<?xml version="1.0" encoding="UTF-8"?>
<svg id="Layer_1" data-name="Layer 1" xmlns="http://www.w3.org/2000/svg" width="600" height="540" xmlns:xlink="http://www.w3.org/1999/xlink" viewBox="0 0 600 540">
  <defs>
    <clipPath id="clippath">
      <rect x="1.89" y="2.21" width="596.21" height="535.58" fill="none"/>
    </clipPath>
  </defs>
  <rect x="-10.18" y="-9.03" width="620.36" height="558.06" fill="#1d253a"/>
  <g clip-path="url(#clippath)">
    <ellipse cx="307.36" cy="269.62" rx="323.18" ry="307.76" fill="#446099" stroke="#221a38" stroke-linecap="round" stroke-miterlimit="10" stroke-width="1.8"/>
    <ellipse cx="307.36" cy="269.62" rx="313.02" ry="298.09" fill="#24335b" stroke="#221a38" stroke-linecap="round" stroke-miterlimit="10" stroke-width="2.3"/>
    <path d="M143.53,329.64c-11.52-22.93-17.96-48.53-17.96-75.53,0-98.27,85.26-177.93,190.43-177.93s190.43,79.66,190.43,177.93-85.26,177.93-190.43,177.93c-31.69,0-61.57-7.23-87.85-20.03" fill="#2f3f70" stroke="#221a38" stroke-linecap="round" stroke-miterlimit="10" stroke-width="2.3"/>
    <path d="M155.47,322.57s-19.75,6.67-26.15,24.55c-6.4,17.88-8.94,28.22-9.74,42.9,0,0-15.27-.87-18.68,14.55-2.09,9.45,4.02,20.68,19.96,21.78,7.95.55,19.15-1.26,33.12-4.12,0,0,2.44,1.68,5.03,2.15,2.58.48,6.84-.14,6.84-.14l1.1,2.01s5.07.5,9.05.38,8.71-1.48,8.71-1.48l.03-5.24,5.91-.37s1.48,4.17,4.44,4.79,8.71,1.79,13.26-.67c4.55-2.46,2.65-5.87,2.65-5.87,0,0,19.99-5.29,22.12-9.56,2.13-4.27,8.72-10.19,4.18-19.27-4.54-9.07-22.54-3.73-22.54-3.73l-4.31-1.77-4.45.57.72-9.81s13.06-27.64,7.19-52.19l-58.44.53Z" fill="#fff"/>
    <g>
      <g>
        <path d="M223.3,273.75s-7.34-.26-7.74,18.06c-.4,18.33,7.89,19.99,14.95,18.94,7.98-1.19,10.28-12.18,7.91-20.98-4.37-16.2-15.12-16.02-15.12-16.02Z" fill="#e293e2" stroke="#000" stroke-linecap="round" stroke-miterlimit="10" stroke-width="1.4"/>
        <path d="M166.06,259.52s-22.68,7.76-25.57,34.18c-2.89,26.42,13.66,47.02,49.44,40.02,35.78-7.01,48.17-31.46,39.92-51.29-8.33-20.02-28.79-35.62-63.79-22.9Z" fill="#fff" stroke="#000" stroke-linecap="round" stroke-miterlimit="10" stroke-width="1.4"/>
        <path d="M212.6,274.46c-7.94,0-9.97,9.55-9.97,9.55,0,0-.29,1.16-.51,2.91-2.67.11-5.55.85-5.55,3.58,0,2.64,2.35,3.66,5.51,3.77.33,2.29,1.08,4.54,2.56,6.27,3.92,4.59,15.88,3.58,16.92-9.12.91-11.14-2.29-16.97-8.96-16.96Z" fill="#fff" stroke="#000" stroke-linecap="round" stroke-miterlimit="10" stroke-width="1.29"/>
        <path d="M189.16,297.93s-13.46,4.02-14.44,14.58c-.98,10.56,5.19,20.88,22.5,16.76,17.3-4.12,15.99-16.62,13.58-23.01-2.41-6.38-10.73-12.55-21.64-8.34Z" fill="#e293e2" stroke="#000" stroke-linecap="round" stroke-miterlimit="10" stroke-width="1.4"/>
        <path d="M190.68,302.78s6.61-3.29,7.79,1.26c1.18,4.55-5.36,5.74-5.36,5.74" fill="none" stroke="#000" stroke-linecap="round" stroke-miterlimit="10" stroke-width="1.83"/>
        <path d="M142.14,279.33s-9.13-3.99-15.88,17.77c-3.26,10.49.3,23.46,9.34,24.85,9.61,1.48,12.31-4.45,14.2-18.44,2.78-20.66-7.66-24.18-7.66-24.18Z" fill="#e293e2" stroke="#000" stroke-linecap="round" stroke-miterlimit="10" stroke-width="1.4"/>
        <g>
          <path d="M182.34,293.99c-.33-2.87-3.6-3.18-6.37-2.91-.09-1.68-1.45-11.21-7.41-11.76-7.03-.64-13.38,4.28-13.42,17.03-.04,12.74,11.66,15.2,16.25,11.29,2.6-2.21,3.77-5.86,4.28-9.12,3.94-.24,7.02-1.48,6.67-4.53Z" fill="none" stroke="#000" stroke-linecap="round" stroke-miterlimit="10" stroke-width="1.29"/>
          <path d="M169.52,287.24s-2.81-1.74-4.65,3.87c-1.85,5.61.86,9.75,3.47,10.46,4.14,1.12,5.35-4.74,4.85-8.94-.7-5.92-3.67-5.39-3.67-5.39Z" fill="#e293e2" stroke="#000" stroke-linecap="round" stroke-miterlimit="10" stroke-width="1.62"/>
        </g>
        <path d="M216.27,282.51c-.74-.02-3.29.79-3.67,6.56-.51,7.76,4.95,7.05,5.96,4.53.96-2.39,2.75-10.99-2.29-11.1Z" fill="#e293e2" stroke="#000" stroke-linecap="round" stroke-miterlimit="10" stroke-width="1.62"/>
        <path d="M198.55,314s-4.34,1.95-8.7,2.04c0,0-.05,3.27,4.25,2.45,4.3-.83,4.62-2.38,4.45-4.49Z"/>
      </g>
      <path d="M149.56,325.77c-8.54,4.21-27.55,16.93-30.71,63.81" fill="none" stroke="#000" stroke-linecap="round" stroke-miterlimit="10" stroke-width="1.4"/>
      <path d="M154.59,422.37c-13.63,1.18-32.99,8.76-46.62-.13-13.63-8.89-8.44-30.32,10.21-32.42,14.21-1.6,21.82,2.4,32.03,6.34,0,0,9.2,3.07,18.65.68" fill="none" stroke="#000" stroke-linecap="round" stroke-miterlimit="10" stroke-width="1.4"/>
      <path d="M214.22,325.41s6.52,10.66-7.7,49.17l-4.06,41.86s7.63-1.53,8.55,1.35c1.19,3.73-.53,8.11-15.91,6.54,0,0-4.72-.78-4.07-8.38.75-8.78,1.88-48.39,1.88-48.39" fill="none" stroke="#000" stroke-linecap="round" stroke-linejoin="round" stroke-width="1.4"/>
      <path d="M163.72,362.86s10.08,52.09,6.94,55.85c-3.14,3.77-10.6,9.36,5.04,8.05,13.36-1.11,7.79-.19,7.79-14.63s-.64-44.6-.64-44.6" fill="none" stroke="#000" stroke-linecap="round" stroke-miterlimit="10" stroke-width="1.4"/>
      <line x1="191.16" y1="419.56" x2="184.24" y2="420.32" fill="none" stroke="#000" stroke-linecap="round" stroke-miterlimit="10" stroke-width="1.4"/>
      <path d="M215.8,385.14c5.29-1.22,12.23-2.04,17.4.19,9.51,4.11,9.98,26.72-22.39,32.05" fill="none" stroke="#000" stroke-linecap="round" stroke-miterlimit="10" stroke-width="1.4"/>
      <path d="M169.8,405.12s-10.59-7.64-17.53,1.47c-6.94,9.11,2.82,21.26,13.67,17.36" fill="none" stroke="#000" stroke-linecap="round" stroke-miterlimit="10" stroke-width="1.4"/>
      <path d="M206.07,384.16s8.24-3.6,11.06,5.94c1.76,5.96-2.14,16.94-13.43,14.99" fill="none" stroke="#000" stroke-linecap="round" stroke-miterlimit="10" stroke-width="1.4"/>
      <line x1="191.6" y1="405.72" x2="183.5" y2="404.96" fill="none" stroke="#000" stroke-linecap="round" stroke-miterlimit="10" stroke-width="1.4"/>
      <line x1="192.13" y1="389.83" x2="183.73" y2="392.92" fill="none" stroke="#000" stroke-linecap="round" stroke-miterlimit="10" stroke-width="1.4"/>
    </g>
    <path d="M321.83,232.2c-2.46-.26-6.06-.89-9.13,7.56-2.3,6.32-3.1,8.87-3.1,8.87,0,0-14.07,31.94-13.95,32.21s4.66,1.5,4.66,1.5l29.72-46.88s-4.25-2.83-8.19-3.25Z" fill="#f7bc00" stroke="#000" stroke-linecap="round" stroke-linejoin="round" stroke-width="1.23"/>
    <path d="M321.21,232.33l-3.86,8.09,3.59,1.74,4.86-8.67s-3.05-1.45-4.58-1.16Z"/>
    <polygon points="316.16 242.56 321.14 244.45 298.95 282.1 296.77 281.68 316.16 242.56" fill="#ddd"/>
    <circle cx="318.78" cy="241.91" r="5" transform="translate(-80.74 218.93) rotate(-33.9)"/>
    <polygon points="319.74 239.79 317.57 240.04 316.69 242.04 317.99 243.8 320.16 243.56 321.04 241.55 319.74 239.79" fill="#fff"/>
    <path d="M315.41,244.18s-18.64,37.17-18.48,37.07" fill="none" stroke="#000" stroke-linecap="round" stroke-miterlimit="10" stroke-width=".55"/>
    <path d="M320.11,245.85s-21.26,36.04-21.09,36" fill="none" stroke="#000" stroke-linecap="round" stroke-miterlimit="10" stroke-width=".55"/>
    <line x1="306.47" y1="262.2" x2="308.52" y2="265.27" fill="none" stroke="#000" stroke-linecap="round" stroke-miterlimit="10" stroke-width=".55"/>
    <line x1="303.09" y1="268.9" x2="304.82" y2="271.51" fill="none" stroke="#000" stroke-linecap="round" stroke-miterlimit="10" stroke-width=".55"/>
    <line x1="299.75" y1="275.66" x2="301.22" y2="277.91" fill="none" stroke="#000" stroke-linecap="round" stroke-miterlimit="10" stroke-width=".55"/>
    <line x1="310.94" y1="253.19" x2="313.32" y2="257.09" fill="none" stroke="#221a38" stroke-linecap="round" stroke-miterlimit="10" stroke-width=".55"/>
    <line x1="313.06" y1="248.83" x2="315.67" y2="253.06" fill="none" stroke="#000" stroke-linecap="round" stroke-miterlimit="10" stroke-width=".55"/>
    <path d="M315.88,259.24s-.01,0-.02,0c-1.85-.17-3.11-.56-4.33-1.25-.58-.33-.55-.6-.85-.75-.25-.13-.68,0-1.3-.18-2.42-.7-3.1-2.41-3.17-2.5-.25-.35-.2-.86.12-1.14.32-.28.78-.23,1.03.11.04.06,2.7,3.54,8.65,4.1.4.04.7.43.66.88-.04.44-.39.77-.78.74Z" fill="#fff34a" stroke="#000" stroke-linecap="round" stroke-miterlimit="10" stroke-width=".65"/>
    <path d="M317.2,257.92s-.01,0-.02,0c-7.31-.87-10.46-4.87-10.59-5.04-.27-.36-.21-.87.15-1.14.36-.27.86-.21,1.14.15.03.04,1.06,1.19,2.75,2.15.19.11.67.92.89,1.02s.96,0,1.26.06c1.46.22,2.56.95,4.59,1.19.45.05.76.46.71.9-.05.44-.45.75-.88.71Z" fill="#fff34a" stroke="#000" stroke-linecap="round" stroke-miterlimit="10" stroke-width=".69"/>
    <g>
      <path d="M311.89,280.86c-.48,0-.88-.36-.93-.84-.2-1.97.47-4.66,1.25-7.78,1.42-5.68,3.03-12.12-.57-14.85-.2-.15-.33-.37-.36-.62-.03-.25.03-.5.18-.7.18-.24.45-.37.75-.37.21,0,.4.07.57.19,4.6,3.48,2.75,10.87,1.26,16.81-.71,2.83-1.38,5.5-1.21,7.13.03.25-.05.49-.21.69s-.38.32-.63.34h-.1Z" fill="#fff34a"/>
      <path d="M311.89,280.86c-.48,0-.88-.36-.93-.84-.2-1.97.47-4.66,1.25-7.78,1.42-5.68,3.03-12.12-.57-14.85-.2-.15-.33-.37-.36-.62-.03-.25.03-.5.18-.7.18-.24.45-.37.75-.37.21,0,.4.07.57.19,4.6,3.48,2.75,10.87,1.26,16.81-.71,2.83-1.38,5.5-1.21,7.13.03.25-.05.49-.21.69s-.38.32-.63.34h-.1Z" fill="none" stroke="#000" stroke-miterlimit="10" stroke-width=".45"/>
    </g>
    <path d="M311.69,254.78s-.86,1.1-1.08,2.78" fill="#fff34a" stroke="#000" stroke-linecap="round" stroke-miterlimit="10" stroke-width=".69"/>
    <g>
      <path d="M305.28,278.36c-.25,0-.49-.1-.67-.28-3.87-3.92.27-17.51,3.11-21.61.78-1.13,1.56-1.71,2.31-1.71.21,0,.43.05.63.14.47.21.69.76.48,1.24-.15.34-.49.56-.86.56-.09,0-.18-.01-.26-.04-.69.35-2.75,3.87-4.14,9.36-1.32,5.25-1.3,9.36.06,10.74.18.18.27.41.27.67,0,.25-.1.49-.28.66-.18.17-.41.27-.66.27h0Z" fill="#fff34a"/>
      <path d="M305.28,278.36c-.25,0-.49-.1-.67-.28-3.87-3.92.27-17.51,3.11-21.61.78-1.13,1.56-1.71,2.31-1.71.21,0,.43.05.63.14.47.21.69.76.48,1.24-.15.34-.49.56-.86.56-.09,0-.18-.01-.26-.04-.69.35-2.75,3.87-4.14,9.36-1.32,5.25-1.3,9.36.06,10.74.18.18.27.41.27.67,0,.25-.1.49-.28.66-.18.17-.41.27-.66.27h0Z" fill="none" stroke="#000" stroke-miterlimit="10" stroke-width=".45"/>
    </g>
    <g>
      <path d="M310.55,258.22c-.39-.05-.65-.39-.6-.75.24-1.83,1.17-3.05,1.21-3.1.13-.16.32-.26.53-.26.15,0,.29.05.41.14.29.23.34.65.12.94,0,0-.75,1-.94,2.46-.04.33-.33.58-.66.58h-.06Z" fill="#fff34a"/>
      <path d="M311.69,254.45c.07,0,.14.02.2.07.14.11.17.31.06.46,0,.01-.81,1.06-1.01,2.62-.02.16-.16.28-.32.28,0,0-.02,0-.03,0,0,0,0,0-.01,0-.18-.02-.3-.19-.28-.37.23-1.74,1.11-2.89,1.14-2.93.06-.08.16-.13.26-.13M311.69,253.77c-.31,0-.61.14-.8.39-.1.14-1.03,1.38-1.28,3.26-.07.55.32,1.06.87,1.14h.05s.09,0,.09,0c.51,0,.94-.38,1-.88.18-1.35.87-2.29.88-2.3.34-.44.25-1.07-.18-1.41-.18-.14-.4-.21-.62-.21h0Z"/>
    </g>
    <ellipse cx="313.38" cy="257.78" rx="36.87" ry="33.88" transform="translate(-27.32 478.19) rotate(-72.34)" fill="#fff34a" opacity=".2"/>
    <g>
      <rect x="94.86" y="156.17" width="258.8" height="37.37" rx="18.68" ry="18.68" fill="#fff"/>
      <path d="M134.05,188.01s3.45,18.41,8.44,23.78l5.75-26.08-14.19,2.3Z" fill="#fff"/>
    </g>
    <text transform="translate(107.65 182.18)" font-family="ChalkboardSE-Bold, &apos;Chalkboard SE&apos;" font-size="24" font-weight="700"><tspan x="0" y="0">H</tspan><tspan x="15.46" y="0" letter-spacing=".02em">o</tspan><tspan x="28.27" y="0">w w</tspan><tspan x="73.86" y="0" letter-spacing=".01em">a</tspan><tspan x="87.54" y="0">s </tspan><tspan x="108.36" y="0" letter-spacing="-.03em">y</tspan><tspan x="121.09" y="0" letter-spacing=".03em">o</tspan><tspan x="134.05" y="0" letter-spacing=".02em">u</tspan><tspan x="147.63" y="0">r d</tspan><tspan x="183.01" y="0" letter-spacing="-.07em">a</tspan><tspan x="194.75" y="0" letter-spacing="-.05em">t</tspan><tspan x="205.07" y="0">e?</tspan></text>
    <path d="M174.28,259.27c3.05,0,17.36,17.46,21.73,42.67.15.84,2.51-.61,2.86,2.2.5,4.09-2.13,3.12-2.03,4.53.48,6.61-.01,13.63-1.94,20.9-.2.76-6.6,3.22-5.89,3.6.59.31,2.03.55,2.64.85,0,0,7.42,8.53,9,19.74s-1.26,63.63-.63,64.74c.63,1.11,3.79-1.05,9-.42,1.89.23,2.21.42,2.05,2.32-.16,1.89-2.05,3.63-2.05,3.63l-5.28.83-5.64.12-5.06-1.38-2.19-3.8-6.56.69.12,5.52-13.8,1.15-4.14-1.27.12-2.07-3.8,1.15-4.6-.58-4.83-1.96-14.49,2.65-16.79,1.61-9.43-1.96-9.66-6.9-2.76-9.55,2.42-8.97,6.1-6.9,10.12-3.34,1.04-11.27s5.14-19.32,8.14-25.16,6.36-12.2,11.37-17.37,12.95-7.74,12.95-7.74l-7.05-7.01s-7.48,4.16-14.11-.26-6.16-13.74-6.16-13.74c0,0,.28-7.35,1.64-11.65s4.98-10.99,10.2-14.75c5.84-4.21,7.59,2.9,8.77,0,6.67-16.39,26.18-20.87,28.63-20.87Z" fill="#2f3f70" opacity=".5"/>
    <path d="M205.7,386.27s6.16-1.58,9,4.26c1.94,3.98,5.05,15.16-11.42,14.21l2.42-18.47Z" fill="#2f3f70" opacity=".5"/>
    <path d="M216.91,387.7s17.84-1.42,20.53,3.32,1.74,19.58-25.74,25.74c0,0-4.42-2.37-9.16-.47l1.26-11.21s8.44.47,12.32-5.21c1.62-2.38.93-7.22.79-12.16Z" fill="#2f3f70" opacity=".5"/>
    <path d="M232.21,279.81c8.44,20.99-10.47,58.53-34.91,54.62-8.64-1.38-6.91-6.91-4.84-35.61,1.67-23.16-38.58-43.39-13.83-43.9,24.76-.51,44.92,3.34,53.58,24.89Z" fill="#ff0" opacity=".08"/>
    <path d="M214.18,353.59c-2.16,8.45-9.24,23.05-7.5,30,.08.32,4.89-1.5,7.26.32,9.2,7.06.56,37.17-13.66,34.89-8.64-1.38-2.23-27.75-.16-56.45.84-11.58-4.96-20.4-7.63-26.05-3.06-6.48,2.45-4.8,14.51-6.62,10.26-1.54,12.92,1.41,7.16,23.9Z" fill="#ff0" opacity=".08"/>
    <path d="M240.51,285.34c4.76,11.84-1.42,32.28-15.21,30.08-4.88-.78,1.1-7.06,3.11-23.16,1.04-8.3-15.98-18.73-2.07-20.05,7.26-.69,9.29.98,14.17,13.14Z" fill="#ff0" opacity=".08"/>
    <path d="M203.72,385.23s20.49-5.41,29.66-.66c9.18,4.75,11.31,17.86,2.95,14.42s-29.83-6.72-32.94-5.24-6.39-7.05.33-8.52Z" fill="#ff0" opacity=".08"/>
  </g>
  <rect x="1.89" y="2.21" width="596.21" height="535.58" fill="none" stroke="#2e4270" stroke-linecap="round" stroke-miterlimit="10" stroke-width="2.3"/>
</svg>