<?xml version="1.0" encoding="UTF-8"?>
<svg id="Layer_1" data-name="Layer 1" xmlns="http://www.w3.org/2000/svg" width="600" height="540" xmlns:xlink="http://www.w3.org/1999/xlink" viewBox="0 0 600 540">
  <defs>
    <clipPath id="clippath">
      <rect x="1.89" y="2.21" width="596.21" height="535.58" fill="none"/>
    </clipPath>
  </defs>
  <rect x="-10.18" y="-9.03" width="620.36" height="558.06" fill="#1d253a"/>
  <g clip-path="url(#clippath)">
    <ellipse cx="307.36" cy="269.62" rx="323.18" ry="307.76" fill="#446099" stroke="#221a38" stroke-linecap="round" stroke-miterlimit="10" stroke-width="1.8"/>
    <ellipse cx="307.36" cy="269.62" rx="313.02" ry="298.09" fill="#24335b" stroke="#221a38" stroke-linecap="round" stroke-miterlimit="10" stroke-width="2.3"/>
    <path d="M143.53,329.64c-11.52-22.93-17.96-48.53-17.96-75.53,0-98.27,85.26-177.93,190.43-177.93s190.43,79.66,190.43,177.93-85.26,177.93-190.43,177.93c-31.69,0-61.57-7.23-87.85-20.03" fill="#2f3f70" stroke="#221a38" stroke-linecap="round" stroke-miterlimit="10" stroke-width="2.3"/>
    <path d="M155.47,322.57s-19.75,6.67-26.15,24.55c-6.4,17.88-8.94,28.22-9.74,42.9,0,0-15.27-.87-18.68,14.55-2.09,9.45,4.02,20.68,19.96,21.78,7.95.55,19.15-1.26,33.12-4.12,0,0,2.44,1.68,5.03,2.15,2.58.48,6.84-.14,6.84-.14l1.1,2.01s5.07.5,9.05.38,8.71-1.48,8.71-1.48l.03-5.24,5.91-.37s1.48,4.17,4.44,4.79,8.71,1.79,13.26-.67c4.55-2.46,2.65-5.87,2.65-5.87,0,0,19.99-5.29,22.12-9.56,2.13-4.27,8.72-10.19,4.18-19.27-4.54-9.07-22.54-3.73-22.54-3.73l-4.31-1.77-4.45.57.72-9.81s13.06-27.64,7.19-52.19l-58.44.53Z" fill="#fff"/>
    <g>
      <g>
        <path d="M223.3,273.75s-7.34-.26-7.74,18.06c-.4,18.33,7.89,19.99,14.95,18.94,7.98-1.19,10.28-12.18,7.91-20.98-4.37-16.2-15.12-16.02-15.12-16.02Z" fill="#e293e2" stroke="#000" stroke-linecap="round" stroke-miterlimit="10" stroke-width="1.4"/>
        <path d="M166.06,259.52s-22.68,7.76-25.57,34.18c-2.89,26.42,13.66,47.02,49.44,40.02,35.78-7.01,48.17-31.46,39.92-51.29-8.33-20.02-28.79-35.62-63.79-22.9Z" fill="#fff" stroke="#000" stroke-linecap="round" stroke-miterlimit="10" stroke-width="1.4"/>
        <path d="M212.6,274.46c-7.94,0-9.97,9.55-9.97,9.55,0,0-.29,1.16-.51,2.91-2.67.11-5.55.85-5.55,3.58,0,2.64,2.35,3.66,5.51,3.77.33,2.29,1.08,4.54,2.56,6.27,3.92,4.59,15.88,3.58,16.92-9.12.91-11.14-2.29-16.97-8.96-16.96Z" fill="#fff" stroke="#000" stroke-linecap="round" stroke-miterlimit="10" stroke-width="1.29"/>
        <path d="M189.16,297.93s-13.46,4.02-14.44,14.58c-.98,10.56,5.19,20.88,22.5,16.76,17.3-4.12,15.99-16.62,13.58-23.01-2.41-6.38-10.73-12.55-21.64-8.34Z" fill="#e293e2" stroke="#000" stroke-linecap="round" stroke-miterlimit="10" stroke-width="1.4"/>
        <path d="M190.68,302.78s6.61-3.29,7.79,1.26c1.18,4.55-5.36,5.74-5.36,5.74" fill="none" stroke="#000" stroke-linecap="round" stroke-miterlimit="10" stroke-width="1.83"/>
        <path d="M142.14,279.33s-9.13-3.99-15.88,17.77c-3.26,10.49.3,23.46,9.34,24.85,9.61,1.48,12.31-4.45,14.2-18.44,2.78-20.66-7.66-24.18-7.66-24.18Z" fill="#e293e2" stroke="#000" stroke-linecap="round" stroke-miterlimit="10" stroke-width="1.4"/>
        <g>
          <path d="M182.34,293.99c-.33-2.87-3.6-3.18-6.37-2.91-.09-1.68-1.45-11.21-7.41-11.76-7.03-.64-13.38,4.28-13.42,17.03-.04,12.74,11.66,15.2,16.25,11.29,2.6-2.21,3.77-5.86,4.28-9.12,3.94-.24,7.02-1.48,6.67-4.53Z" fill="none" stroke="#000" stroke-linecap="round" stroke-miterlimit="10" stroke-width="1.29"/>
          <path d="M169.52,287.24s-2.81-1.74-4.65,3.87c-1.85,5.61.86,9.75,3.47,10.46,4.14,1.12,5.35-4.74,4.85-8.94-.7-5.92-3.67-5.39-3.67-5.39Z" fill="#e293e2" stroke="#000" stroke-linecap="round" stroke-miterlimit="10" stroke-width="1.62"/>
        </g>
        <path d="M216.27,282.51c-.74-.02-3.29.79-3.67,6.56-.51,7.76,4.95,7.05,5.96,4.53.96-2.39,2.75-10.99-2.29-11.1Z" fill="#e293e2" stroke="#000" stroke-linecap="round" stroke-miterlimit="10" stroke-width="1.62"/>
        <path d="M198.55,314s-4.34,1.95-8.7,2.04c0,0-.05,3.27,4.25,2.45,4.3-.83,4.62-2.38,4.45-4.49Z"/>
      </g>
      <path d="M149.56,325.77c-8.54,4.21-27.55,16.93-30.71,63.81" fill="none" stroke="#000" stroke-linecap="round" stroke-miterlimit="10" stroke-width="1.4"/>
      <path d="M154.59,422.37c-13.63,1.18-32.99,8.76-46.62-.13-13.63-8.89-8.44-30.32,10.21-32.42,14.21-1.6,21.82,2.4,32.03,6.34,0,0,9.2,3.07,18.65.68" fill="none" stroke="#000" stroke-linecap="round" stroke-miterlimit="10" stroke-width="1.4"/>
      <path d="M214.22,325.41s6.52,10.66-7.7,49.17l-4.06,41.86s7.63-1.53,8.55,1.35c1.19,3.73-.53,8.11-15.91,6.54,0,0-4.72-.78-4.07-8.38.75-8.78,1.88-48.39,1.88-48.39" fill="none" stroke="#000" stroke-linecap="round" stroke-linejoin="round" stroke-width="1.4"/>
      <path d="M163.72,362.86s10.08,52.09,6.94,55.85c-3.14,3.77-10.6,9.36,5.04,8.05,13.36-1.11,7.79-.19,7.79-14.63s-.64-44.6-.64-44.6" fill="none" stroke="#000" stroke-linecap="round" stroke-miterlimit="10" stroke-width="1.4"/>
      <line x1="191.16" y1="419.56" x2="184.24" y2="420.32" fill="none" stroke="#000" stroke-linecap="round" stroke-miterlimit="10" stroke-width="1.4"/>
      <path d="M215.8,385.14c5.29-1.22,12.23-2.04,17.4.19,9.51,4.11,9.98,26.72-22.39,32.05" fill="none" stroke="#000" stroke-linecap="round" stroke-miterlimit="10" stroke-width="1.4"/>
      <path d="M169.8,405.12s-10.59-7.64-17.53,1.47c-6.94,9.11,2.82,21.26,13.67,17.36" fill="none" stroke="#000" stroke-linecap="round" stroke-miterlimit="10" stroke-width="1.4"/>
      <path d="M206.07,384.16s8.24-3.6,11.06,5.94c1.76,5.96-2.14,16.94-13.43,14.99" fill="none" stroke="#000" stroke-linecap="round" stroke-miterlimit="10" stroke-width="1.4"/>
      <line x1="191.6" y1="405.72" x2="183.5" y2="404.96" fill="none" stroke="#000" stroke-linecap="round" stroke-miterlimit="10" stroke-width="1.4"/>
      <line x1="192.13" y1="389.83" x2="183.73" y2="392.92" fill="none" stroke="#000" stroke-linecap="round" stroke-miterlimit="10" stroke-width="1.4"/>
    </g>
    <path d="M321.83,232.2c-2.46-.26-6.06-.89-9.13,7.56-2.3,6.32-3.1,8.87-3.1,8.87,0,0-14.07,31.94-13.95,32.21s4.66,1.5,4.66,1.5l29.72-46.88s-4.25-2.83-8.19-3.25Z" fill="#f7bc00" stroke="#000" stroke-linecap="round" stroke-linejoin="round" stroke-width="1.23"/>
    <path d="M321.21,232.33l-3.86,8.09,3.59,1.74,4.86-8.67s-3.05-1.45-4.58-1.16Z"/>
    <polygon points="316.16 242.56 321.14 244.45 298.95 282.1 296.77 281.68 316.16 242.56" fill="#ddd"/>
    <circle cx="318.78" cy="241.91" r="5" transform="translate(-80.74 218.93) rotate(-33.9)"/>
    <polygon points="319.74 239.79 317.57 240.04 316.69 242.04 317.99 243.8 320.16 243.56 321.04 241.55 319.74 239.79" fill="#fff"/>
    <path d="M315.41,244.18s-18.64,37.17-18.48,37.07" fill="none" stroke="#000" stroke-linecap="round" stroke-miterlimit="10" stroke-width=".55"/>
    <path d="M320.11,245.85s-21.26,36.04-21.09,36" fill="none" stroke="#000" stroke-linecap="round" stroke-miterlimit="10" stroke-width=".55"/>
    <line x1="306.47" y1="262.2" x2="308.52" y2="265.27" fill="none" stroke="#000" stroke-linecap="round" stroke-miterlimit="10" stroke-width=".55"/>
    <line x1="303.09" y1="268.9" x2="304.82" y2="271.51" fill="none" stroke="#000" stroke-linecap="round" stroke-miterlimit="10" stroke-width=".55"/>
    <line x1="299.75" y1="275.66" x2="301.22" y2="277.91" fill="none" stroke="#000" stroke-linecap="round" stroke-miterlimit="10" stroke-width=".55"/>
    <line x1="310.94" y1="253.19" x2="313.32" y2="257.09" fill="none" stroke="#221a38" stroke-linecap="round" stroke-miterlimit="10" stroke-width=".55"/>
    <line x1="313.06" y1="248.83" x2="315.67" y2="253.06" fill="none" stroke="#000" stroke-linecap="round" stroke-miterlimit="10" stroke-width=".55"/>
    <path d="M315.88,259.24s-.01,0-.02,0c-1.85-.17-3.11-.56-4.33-1.25-.58-.33-.55-.6-.85-.75-.25-.13-.68,0-1.3-.18-2.42-.7-3.1-2.41-3.17-2.5-.25-.35-.2-.86.12-1.14.32-.28.78-.23,1.03.11.04.06,2.7,3.54,8.65,4.1.4.04.7.43.66.88-.04.44-.39.77-.78.74Z" fill="#fff34a" stroke="#000" stroke-linecap="round" stroke-miterlimit="10" stroke-width=".65"/>
    <path d="M317.2,257.92s-.01,0-.02,0c-7.31-.87-10.46-4.87-10.59-5.04-.27-.36-.21-.87.15-1.14.36-.27.86-.21,1.14.15.03.04,1.06,1.19,2.75,2.15.19.11.67.92.89,1.02s.96,0,1.26.06c1.46.22,2.56.95,4.59,1.19.45.05.76.46.71.9-.05.44-.45.75-.88.71Z" fill="#fff34a" stroke="#000" stroke-linecap="round" stroke-miterlimit="10" stroke-width=".69"/>
    <g>
      <path d="M311.89,280.86c-.48,0-.88-.36-.93-.84-.2-1.97.47-4.66,1.25-7.78,1.42-5.68,3.03-12.12-.57-14.85-.2-.15-.33-.37-.36-.62-.03-.25.03-.5.18-.7.18-.24.45-.37.75-.37.21,0,.4.07.57.19,4.6,3.48,2.75,10.87,1.26,16.81-.71,2.83-1.38,5.5-1.21,7.13.03.25-.05.49-.21.69s-.38.32-.63.34h-.1Z" fill="#fff34a"/>
      <path d="M311.89,280.86c-.48,0-.88-.36-.93-.84-.2-1.97.47-4.66,1.25-7.78,1.42-5.68,3.03-12.12-.57-14.85-.2-.15-.33-.37-.36-.62-.03-.25.03-.5.18-.7.18-.24.45-.37.75-.37.21,0,.4.07.57.19,4.6,3.48,2.75,10.87,1.26,16.81-.71,2.83-1.38,5.5-1.21,7.13.03.25-.05.49-.21.69s-.38.32-.63.34h-.1Z" fill="none" stroke="#000" stroke-miterlimit="10" stroke-width=".45"/>
    </g>
    <path d="M311.69,254.78s-.86,1.1-1.08,2.78" fill="#fff34a" stroke="#000" stroke-linecap="round" stroke-miterlimit="10" stroke-width=".69"/>
    <g>
      <path d="M305.28,278.36c-.25,0-.49-.1-.67-.28-3.87-3.92.27-17.51,3.11-21.61.78-1.13,1.56-1.71,2.31-1.71.21,0,.43.05.63.14.47.21.69.76.48,1.24-.15.34-.49.56-.86.56-.09,0-.18-.01-.26-.04-.69.35-2.75,3.87-4.14,9.36-1.32,5.25-1.3,9.36.06,10.74.18.18.27.41.27.67,0,.25-.1.49-.28.66-.18.17-.41.27-.66.27h0Z" fill="#fff34a"/>
      <path d="M305.28,278.36c-.25,0-.49-.1-.67-.28-3.87-3.92.27-17.51,3.11-21.61.78-1.13,1.56-1.71,2.31-1.71.21,0,.43.05.63.14.47.21.69.76.48,1.24-.15.34-.49.56-.86.56-.09,0-.18-.01-.26-.04-.69.35-2.75,3.87-4.14,9.36-1.32,5.25-1.3,9.36.06,10.74.18.18.27.41.27.67,0,.25-.1.49-.28.66-.18.17-.41.27-.66.27h0Z" fill="none" stroke="#000" stroke-miterlimit="10" stroke-width=".45"/>
    </g>
    <g>
      <path d="M310.55,258.22c-.39-.05-.65-.39-.6-.75.24-1.83,1.17-3.05,1.21-3.1.13-.16.32-.26.53-.26.15,0,.29.05.41.14.29.23.34.65.12.94,0,0-.75,1-.94,2.46-.04.33-.33.58-.66.58h-.06Z" fill="#fff34a"/>
      <path d="M311.69,254.45c.07,0,.14.02.2.07.14.11.17.31.06.46,0,.01-.81,1.06-1.01,2.62-.02.16-.16.28-.32.28,0,0-.02,0-.03,0,0,0,0,0-.01,0-.18-.02-.3-.19-.28-.37.23-1.74,1.11-2.89,1.14-2.93.06-.08.16-.13.26-.13M311.69,253.77c-.31,0-.61.14-.8.39-.1.14-1.03,1.38-1.28,3.26-.07.55.32,1.06.87,1.14h.05s.09,0,.09,0c.51,0,.94-.38,1-.88.18-1.35.87-2.29.88-2.3.34-.44.25-1.07-.18-1.41-.18-.14-.4-.21-.62-.21h0Z"/>
    </g>
    <ellipse cx="313.38" cy="257.78" rx="36.87" ry="33.88" transform="translate(-27.32 478.19) rotate(-72.34)" fill="#fff34a" opacity=".2"/>
    <g>
      <rect x="94.86" y="156.17" width="258.8" height="37.37" rx="18.68" ry="18.68" fill="#fff"/>
      <path d="M134.05,188.01s3.45,18.41,8.44,23.78l5.75-26.08-14.19,2.3Z" fill="#fff"/>
    </g>
    <g>
      <path d="M121.6,173.14c.42.12.74.35.95.68.21.33.31.67.31,1.02,0,.35-.12.69-.33.99-.21.31-.52.51-.93.6v4.61c0,.44-.11.84-.33,1.18-.22.34-.49.59-.81.73-.32.14-.65.17-1.01.09-.35-.08-.67-.31-.95-.7-.12-.18-.21-.38-.25-.61-.04-.23-.07-.44-.07-.64v-4.59h-6.18v4.51c0,.19-.02.39-.05.6-.04.2-.1.38-.19.54-.23.42-.52.7-.88.82-.35.12-.7.12-1.03-.01-.34-.13-.62-.36-.86-.69-.24-.33-.36-.73-.36-1.21v-13.71c0-.46.14-.86.41-1.19.27-.34.59-.57.94-.7.35-.13.71-.14,1.07-.03.36.12.63.39.81.84.05.14.09.27.11.38.02.12.03.24.03.38v5.99h6.18v-5.68c0-.35.08-.69.24-1.01.19-.39.47-.66.84-.82s.72-.2,1.06-.13c.34.07.65.24.9.52.26.27.38.65.38,1.13v6.1Z"/>
      <path d="M123.85,175.84c.12-.51.3-1.02.52-1.51.22-.49.49-.97.81-1.42.32-.45.68-.86,1.07-1.23.4-.37.83-.67,1.29-.9.81-.42,1.63-.64,2.45-.65.82,0,1.59.15,2.29.49.71.34,1.31.84,1.8,1.5.49.66.82,1.45.98,2.37.09.6.14,1.17.15,1.71,0,.54-.05,1.1-.17,1.68-.18.83-.54,1.66-1.07,2.48-.54.82-1.18,1.51-1.94,2.07-.75.56-1.57.92-2.47,1.1-.89.18-1.79.04-2.69-.42-.41-.19-.77-.42-1.1-.68-.33-.26-.62-.56-.89-.91-.3-.39-.53-.8-.7-1.22-.17-.42-.3-.87-.41-1.33-.12-.49-.17-.99-.13-1.5.04-.5.1-.99.19-1.47l.03-.16ZM127.04,176.4c-.05.28-.1.56-.13.84-.04.27-.04.55,0,.84.05.41.16.78.33,1.11.17.34.39.6.66.8.27.19.59.3.94.3.35,0,.73-.1,1.14-.33.51-.3.95-.76,1.33-1.39.37-.63.6-1.28.69-1.96.09-.68.02-1.33-.21-1.94-.23-.61-.68-1.05-1.35-1.31-.44,0-.85.08-1.22.25-.37.17-.69.39-.97.66-.27.27-.51.6-.72.97-.2.37-.37.76-.49,1.17Z"/>
      <path d="M150.74,170.72c.27-.35.57-.6.91-.73s.67-.16.97-.08c.3.08.56.26.77.54.21.28.33.66.34,1.14.02.27-.09.74-.33,1.43s-.53,1.59-.86,2.7c-.02.07-.05.16-.09.27-.04.11-.11.28-.19.53-.08.25-.19.59-.34,1.03-.15.44-.36,1.03-.62,1.78-.12.37-.28.81-.46,1.33-.19.51-.42.97-.7,1.37-.28.4-.62.67-1.01.82-.39.15-.86.04-1.41-.33-.18-.12-.37-.38-.58-.76-.21-.38-.42-.79-.61-1.23-.19-.44-.37-.86-.52-1.26-.15-.4-.25-.66-.3-.78-.12-.28-.27-.6-.42-.94s-.31-.69-.45-1.05l-.16.4c-.23.58-.46,1.17-.69,1.75-.23.58-.46,1.16-.69,1.72-.12.3-.24.63-.34.98-.11.35-.26.66-.45.93-.16.23-.36.39-.6.49-.24.1-.48.14-.73.12-.25-.02-.48-.08-.7-.2-.22-.12-.41-.28-.57-.49-.25-.35-.44-.76-.58-1.22-.14-.46-.28-.88-.42-1.27-.19-.55-.37-1.11-.53-1.68-.16-.57-.33-1.13-.5-1.66-.09-.28-.2-.65-.34-1.11-.14-.46-.28-.93-.41-1.42-.13-.49-.24-.96-.32-1.42-.08-.46-.11-.84-.09-1.14.02-.3.12-.57.3-.81s.41-.42.68-.53c.27-.11.54-.15.84-.12.29.04.55.17.78.4.34.35.54.73.61,1.13.07.4.15.83.24,1.29.14.71.31,1.41.49,2.1s.38,1.38.6,2.07c.07-.16.15-.35.24-.58.09-.23.23-.57.42-1.03.16-.39.31-.77.46-1.14.15-.37.3-.74.44-1.11.11-.27.21-.53.32-.78.11-.26.21-.51.32-.76.12-.27.3-.48.54-.65.24-.17.5-.27.78-.32.28-.04.56-.02.82.08.27.1.48.28.64.54.23.35.41.75.53,1.18.12.43.26.84.4,1.23.25.64.49,1.28.73,1.92.24.65.49,1.28.76,1.9.39-1.06.73-2.13,1.03-3.2.3-1.07.63-2.13.98-3.2l.11-.16Z"/>
      <path d="M178.51,170.72c.27-.35.57-.6.92-.73s.67-.16.97-.08c.3.08.56.26.77.54.21.28.33.66.34,1.14.02.27-.09.74-.33,1.43s-.53,1.59-.86,2.7c-.02.07-.05.16-.09.27-.04.11-.11.28-.19.53-.08.25-.19.59-.34,1.03-.15.44-.36,1.03-.62,1.78-.12.37-.28.81-.46,1.33-.19.51-.42.97-.7,1.37-.28.4-.62.67-1.01.82-.39.15-.86.04-1.41-.33-.18-.12-.37-.38-.58-.76-.21-.38-.42-.79-.61-1.23-.19-.44-.37-.86-.52-1.26-.15-.4-.25-.66-.3-.78-.12-.28-.27-.6-.42-.94s-.31-.69-.45-1.05l-.16.4c-.23.58-.46,1.17-.69,1.75-.23.58-.46,1.16-.69,1.72-.12.3-.24.63-.34.98-.11.35-.26.66-.45.93-.16.23-.36.39-.6.49-.24.1-.48.14-.73.12-.25-.02-.48-.08-.7-.2-.22-.12-.41-.28-.57-.49-.25-.35-.44-.76-.58-1.22-.14-.46-.28-.88-.42-1.27-.19-.55-.37-1.11-.53-1.68-.16-.57-.33-1.13-.5-1.66-.09-.28-.2-.65-.34-1.11-.14-.46-.28-.93-.41-1.42-.13-.49-.24-.96-.32-1.42-.08-.46-.11-.84-.09-1.14.02-.3.12-.57.3-.81.19-.24.41-.42.68-.53.27-.11.54-.15.84-.12.29.04.55.17.78.4.34.35.54.73.61,1.13.07.4.15.83.24,1.29.14.71.3,1.41.49,2.1.19.69.38,1.38.6,2.07.07-.16.15-.35.24-.58.09-.23.23-.57.42-1.03.16-.39.31-.77.46-1.14.15-.37.3-.74.44-1.11.11-.27.21-.53.32-.78.11-.26.21-.51.32-.76.12-.27.31-.48.54-.65.24-.17.5-.27.78-.32.28-.04.56-.02.82.08.27.1.48.28.64.54.23.35.41.75.53,1.18.12.43.26.84.4,1.23.25.64.49,1.28.73,1.92.24.65.49,1.28.76,1.9.39-1.06.73-2.13,1.03-3.2.3-1.07.63-2.13.98-3.2l.11-.16Z"/>
      <path d="M194.24,181.01c.14.51.11.94-.08,1.27-.19.34-.46.56-.81.68-.34.11-.72.1-1.13-.04-.41-.14-.76-.42-1.06-.85-.5.37-.98.63-1.45.78-.47.15-1,.23-1.6.25-.9.04-1.71-.07-2.41-.3-.71-.24-1.3-.6-1.79-1.07-.49-.48-.84-1.07-1.07-1.79-.23-.72-.31-1.54-.24-2.48.04-.39.1-.77.2-1.14s.21-.73.33-1.09c.14-.39.34-.8.6-1.25.26-.44.52-.82.78-1.14.95-1.17,2.15-2.01,3.58-2.52.25-.09.58-.17,1.01-.24.42-.07.85-.1,1.29-.09.43,0,.85.07,1.25.17.4.11.69.29.89.56.16.21.27.4.34.56.07.16.11.33.12.5,0,.18,0,.37,0,.57,0,.2-.01.46-.01.76,0,.5,0,.98-.01,1.45,0,.47,0,.94.01,1.42v.62c0,.26,0,.53.03.81.02.28.04.55.07.81.03.26.07.46.12.62l1.06,2.17ZM188.61,179.82c.19-.12.42-.26.66-.41.25-.15.47-.32.66-.52-.16-.94-.25-1.87-.28-2.81-.03-.94-.02-1.88.01-2.84-.8.14-1.51.49-2.15,1.03-.64.55-1.08,1.19-1.33,1.94-.11.3-.19.61-.27.93-.07.32-.1.63-.08.93.02.41.12.75.32,1.02.19.27.43.48.7.62.27.14.57.22.88.24.31.02.6-.03.86-.13Z"/>
      <path d="M195.75,180.4c-.11-.3-.15-.6-.13-.89.02-.29.09-.56.23-.8.13-.24.32-.42.57-.56s.55-.18.9-.15c.19.02.37.07.53.16.16.09.31.19.44.32.13.12.27.26.4.4.13.14.27.27.41.37.3.23.62.4.95.5.34.11.69.19,1.06.24.25,0,.45-.06.6-.19.15-.12.25-.27.3-.45.05-.18.07-.37.04-.57-.03-.2-.09-.37-.2-.49-.3-.3-.67-.49-1.1-.58-.43-.09-.84-.19-1.21-.32-.53-.18-1.05-.4-1.56-.68-.51-.27-.93-.65-1.25-1.13-.34-.49-.53-1.02-.6-1.58-.06-.56-.02-1.1.13-1.63.15-.53.4-1.02.76-1.46.35-.44.78-.8,1.27-1.09.37-.21.78-.35,1.22-.41.44-.06.89-.07,1.34-.04.45.04.9.12,1.34.25s.85.28,1.22.44c.42.19.74.47.95.82.21.35.31.71.3,1.07,0,.36-.13.68-.37.94s-.59.4-1.05.4c-.28,0-.54-.05-.77-.15-.23-.1-.47-.19-.72-.28-.32-.12-.66-.21-1.03-.25-.37-.04-.67-.02-.9.07-.07.02-.15.08-.24.17-.09.1-.16.22-.2.36-.04.14-.05.28-.03.42.03.14.12.26.28.34.42.23.88.41,1.35.53.48.12.95.27,1.41.42.46.16.89.36,1.29.61.4.25.73.6.99,1.06.39.67.59,1.37.6,2.11,0,.73-.14,1.42-.44,2.06-.3.64-.74,1.18-1.33,1.63-.58.45-1.26.72-2.04.81-.55.05-1.09.02-1.62-.09-.53-.12-1.04-.3-1.54-.56-.5-.26-.95-.56-1.38-.91-.42-.35-.8-.72-1.11-1.11l-.08-.16Z"/>
      <path d="M225.98,170.48c.21-.35.48-.6.8-.73.32-.13.63-.16.94-.09.31.07.58.23.82.48.24.25.38.57.44.98.04.3-.02.73-.17,1.27-.15.55-.34,1.11-.56,1.7-.22.58-.45,1.14-.68,1.67-.23.53-.42.95-.56,1.25-.6,1.33-1.26,2.63-1.96,3.9-.71,1.27-1.43,2.54-2.17,3.79-.11.19-.23.43-.37.72-.14.28-.29.57-.44.88-.15.3-.31.58-.46.85s-.31.46-.45.58c-.32.3-.65.48-.98.53-.34.05-.64,0-.92-.13-.27-.14-.5-.36-.66-.66-.17-.3-.23-.66-.2-1.09.02-.16.09-.37.21-.62.12-.26.27-.52.42-.8.16-.27.32-.53.48-.78.16-.25.28-.45.37-.61.35-.58.69-1.17,1.02-1.75.33-.58.66-1.17.99-1.75-1.17-.97-2.18-2.06-3.04-3.25-.86-1.19-1.52-2.51-1.98-3.94-.09-.25-.18-.49-.27-.74-.09-.25-.12-.5-.08-.77.04-.3.12-.57.25-.81s.3-.43.52-.58c.21-.15.46-.23.73-.25.27-.02.55.04.84.19.23.12.41.3.54.52.13.22.24.46.33.72.09.26.16.52.23.78.06.27.14.5.23.72.71,1.75,1.78,3.24,3.21,4.48.51-1.06.97-2.13,1.38-3.2.41-1.07.77-2.16,1.09-3.28l.11-.16Z"/>
      <path d="M229.48,175.84c.12-.51.3-1.02.52-1.51.22-.49.49-.97.81-1.42.32-.45.68-.86,1.07-1.23.4-.37.83-.67,1.29-.9.81-.42,1.63-.64,2.45-.65.82,0,1.59.15,2.29.49.71.34,1.31.84,1.8,1.5.49.66.82,1.45.98,2.37.09.6.14,1.17.15,1.71,0,.54-.05,1.1-.17,1.68-.18.83-.53,1.66-1.07,2.48-.54.82-1.18,1.51-1.94,2.07-.75.56-1.57.92-2.47,1.1-.89.18-1.79.04-2.69-.42-.41-.19-.77-.42-1.1-.68-.33-.26-.62-.56-.89-.91-.3-.39-.54-.8-.7-1.22-.17-.42-.3-.87-.41-1.33-.12-.49-.17-.99-.13-1.5.04-.5.1-.99.19-1.47l.03-.16ZM232.66,176.4c-.05.28-.1.56-.13.84-.04.27-.04.55,0,.84.05.41.16.78.33,1.11.17.34.39.6.66.8.27.19.59.3.94.3.35,0,.73-.1,1.14-.33.51-.3.95-.76,1.33-1.39.37-.63.6-1.28.69-1.96.09-.68.02-1.33-.21-1.94-.23-.61-.68-1.05-1.35-1.31-.44,0-.85.08-1.22.25-.37.17-.69.39-.97.66-.27.27-.51.6-.72.97-.2.37-.37.76-.49,1.17Z"/>
      <path d="M254.33,180.11c.16.23.25.5.28.81.03.31,0,.6-.11.88-.1.27-.26.5-.48.68-.22.18-.51.26-.86.24-.46-.04-.83-.19-1.11-.48-.28-.28-.55-.6-.8-.95-.69.57-1.4.96-2.14,1.18-.73.22-1.45.27-2.16.15-.71-.12-1.37-.42-1.99-.89-.62-.47-1.14-1.1-1.56-1.9-.39-.74-.61-1.56-.65-2.47-.04-.9-.06-1.76-.04-2.57,0-.28,0-.56.03-.84.02-.27.04-.56.05-.86.02-.23.03-.45.03-.68s.01-.43.04-.62c.03-.19.08-.39.16-.58.08-.19.2-.38.36-.56.21-.23.47-.37.77-.41.3-.04.59-.01.86.09.27.11.51.27.72.49.2.22.31.49.33.81.04.9.01,1.81-.07,2.73-.08.92-.08,1.82.01,2.7.04.42.15.86.33,1.3.19.44.48.76.89.95.41.18.82.16,1.23-.04.42-.2.76-.45,1.02-.73.12-.14.24-.3.36-.46.11-.17.24-.31.38-.44-.07-.62-.12-1.24-.13-1.86-.02-.62-.02-1.24,0-1.86,0-.34.01-.7.04-1.1.03-.4.1-.78.21-1.14.11-.36.29-.68.52-.95.23-.27.56-.45.98-.52.19-.04.38-.02.57.05.19.07.35.17.49.29.25.21.42.45.5.72.09.27.13.55.13.85s-.02.61-.07.91c-.04.31-.08.6-.09.86-.04.5-.06,1.02-.08,1.56-.02.55,0,1.1.05,1.64.05.55.15,1.08.31,1.59.15.51.38.98.68,1.41Z"/>
      <path d="M257.22,174c.02-.11,0-.32-.03-.62-.28-.16-.5-.36-.66-.61-.16-.25-.25-.51-.28-.8-.03-.28.03-.55.16-.81.13-.26.35-.47.65-.65.41-.23.85-.27,1.34-.13.49.14.91.35,1.26.64.44-.34.9-.62,1.38-.85.48-.23.96-.38,1.46-.46.49-.08,1-.07,1.51.04s1.02.33,1.51.66c.25.16.48.36.69.6.21.24.34.51.4.81.09.44.05.83-.11,1.15-.16.33-.38.57-.66.72-.28.15-.6.19-.95.13-.35-.06-.69-.25-1.01-.57-.11-.07-.18-.13-.23-.17-.04-.04-.14-.1-.28-.17-.28-.07-.56-.05-.84.05-.27.11-.54.25-.8.44-.26.19-.5.39-.72.61-.22.22-.42.42-.6.6v6.76c0,.27-.05.52-.16.77-.16.41-.41.69-.76.85-.34.16-.69.2-1.03.13-.34-.07-.65-.25-.9-.53-.26-.28-.38-.65-.38-1.09v-7.43c0,.07,0,.05.03-.07Z"/>
      <path d="M288.99,180.06c.3.51.4.97.3,1.38-.1.41-.3.71-.6.91-.3.2-.67.28-1.1.24-.43-.04-.85-.27-1.26-.68-.42.3-.87.53-1.33.7-.46.17-.95.31-1.46.44-.8.18-1.56.16-2.29-.04-.73-.2-1.38-.53-1.95-.99-.57-.46-1.03-1.03-1.38-1.71-.35-.68-.55-1.42-.58-2.21-.05-.88.01-1.73.2-2.55.19-.81.48-1.56.89-2.23.41-.67.94-1.25,1.6-1.72.66-.48,1.45-.81,2.35-1.01.53-.11,1.06-.16,1.6-.16s1.07.04,1.6.13c-.02-.39-.03-.84-.04-1.34,0-.5-.01-.99-.01-1.47s.02-.91.05-1.29c.04-.38.08-.65.13-.81.12-.32.31-.56.57-.73.26-.17.53-.26.81-.27.28,0,.56.06.84.21.27.15.49.38.65.68.04.09.08.17.13.25s.08.16.08.25c.02,2.32.02,4.61.01,6.87,0,2.26-.01,4.55-.01,6.87.07.11.13.19.19.27ZM285.3,178.6c.04-.05.1-.11.2-.16.1-.05.15-.12.15-.21v-2.19c0-.72,0-1.45-.03-2.19-.42-.09-.87-.14-1.33-.16-.46-.02-.91.03-1.34.13-.43.11-.83.28-1.19.53-.36.25-.65.6-.86,1.06-.11.34-.2.67-.29,1.01-.09.34-.14.66-.15.98,0,.32.03.63.12.94.09.31.24.61.45.89.07.07.15.14.25.21.1.07.29.19.57.37.65.05,1.28,0,1.87-.19.59-.18,1.12-.52,1.58-1.03Z"/>
      <path d="M303.39,181.01c.14.51.11.94-.08,1.27-.19.34-.46.56-.81.68-.34.11-.72.1-1.13-.04-.41-.14-.76-.42-1.06-.85-.5.37-.98.63-1.45.78-.47.15-1,.23-1.6.25-.9.04-1.71-.07-2.41-.3-.71-.24-1.3-.6-1.79-1.07-.49-.48-.84-1.07-1.07-1.79-.23-.72-.31-1.54-.24-2.48.04-.39.1-.77.2-1.14.1-.37.21-.73.33-1.09.14-.39.34-.8.6-1.25.26-.44.52-.82.78-1.14.95-1.17,2.15-2.01,3.58-2.52.25-.09.58-.17,1.01-.24.42-.07.85-.1,1.29-.09.43,0,.85.07,1.25.17.4.11.69.29.89.56.16.21.27.4.34.56.07.16.11.33.12.5,0,.18,0,.37,0,.57,0,.2-.01.46-.01.76,0,.5,0,.98-.01,1.45,0,.47,0,.94.01,1.42v.62c0,.26,0,.53.03.81.02.28.04.55.07.81.03.26.07.46.12.62l1.06,2.17ZM297.76,179.82c.19-.12.42-.26.66-.41.25-.15.47-.32.66-.52-.16-.94-.25-1.87-.28-2.81-.03-.94-.02-1.88.01-2.84-.8.14-1.51.49-2.15,1.03-.64.55-1.08,1.19-1.33,1.94-.11.3-.19.61-.27.93-.07.32-.1.63-.08.93.02.41.12.75.32,1.02.19.27.43.48.7.62.27.14.57.22.88.24.31.02.6-.03.86-.13Z"/>
      <path d="M305.59,173.35c-.35-.09-.66-.24-.91-.45-.26-.21-.43-.46-.53-.74-.1-.28-.1-.57,0-.88.1-.3.31-.57.65-.82.28-.21.6-.32.95-.32h1.03c0-.12,0-.39-.03-.81-.02-.42-.02-.87-.01-1.37,0-.49.04-.97.09-1.42.05-.45.15-.76.29-.94.35-.49.79-.73,1.31-.7.52.03.95.28,1.29.76.07.09.14.19.2.32.06.12.09.24.09.34.02.64.02,1.27.01,1.91,0,.64-.01,1.27-.01,1.91h2.1c.32,0,.59.11.82.32.23.21.39.46.49.74.1.28.12.57.08.88-.04.3-.18.55-.41.74-.41.34-.88.51-1.42.53-.54.02-1.09.03-1.66.03,0,.97,0,1.95-.01,2.92,0,.97,0,1.95.01,2.92,0,.42.02.86.07,1.3.04.44.01.87-.09,1.27-.09.32-.24.57-.45.76s-.45.3-.72.34c-.27.04-.54.03-.82-.05-.28-.08-.55-.23-.8-.44-.12-.12-.22-.34-.28-.64-.06-.3-.1-.62-.12-.95-.02-.39-.02-.8,0-1.25v-1.38c0-.57,0-1.15-.01-1.76,0-.61-.01-1.19-.01-1.74v-1.3l-1.19-.03Z"/>
      <path d="M323.49,178.63c.42-.11.8-.11,1.13-.01.33.1.58.26.76.49.18.23.26.51.24.85-.02.34-.17.69-.45,1.06-.23.3-.55.56-.95.77s-.79.38-1.14.5c-.87.32-1.69.54-2.47.66-.78.12-1.51.12-2.19,0-.68-.12-1.32-.38-1.91-.77-.59-.39-1.15-.94-1.66-1.64-.35-.48-.61-1.02-.78-1.63-.17-.61-.26-1.23-.28-1.87-.02-.64.04-1.26.16-1.88.12-.62.3-1.18.53-1.67.3-.62.78-1.18,1.43-1.7.65-.51,1.38-.92,2.17-1.22.8-.3,1.61-.47,2.44-.52.83-.04,1.56.08,2.2.38.53.25.99.61,1.37,1.07.38.47.64.98.78,1.52.14.55.15,1.1.04,1.66-.12.56-.4,1.07-.86,1.52-.44.44-.93.8-1.46,1.07-.53.27-1.08.51-1.64.72-.57.2-1.15.38-1.74.52-.59.14-1.16.3-1.71.48.37.42.8.69,1.27.81.48.12.98.14,1.5.07.52-.07,1.05-.22,1.58-.44.53-.22,1.03-.46,1.49-.73l.16-.08ZM318.13,174.06c-.41.23-.71.52-.9.86-.19.34-.34.83-.42,1.45.46-.14.98-.29,1.55-.45.57-.16,1.12-.33,1.63-.5.51-.18.95-.37,1.3-.58.35-.21.53-.44.53-.69,0-.14-.02-.28-.07-.41-.04-.13-.14-.23-.28-.28-.5-.18-1.01-.21-1.54-.11s-.97.26-1.33.45l-.48.27Z"/>
      <path d="M332.61,175.66c.23.11.44.23.62.37.19.14.35.33.49.56.12.23.17.47.13.73-.04.26-.12.49-.25.7s-.31.39-.53.53c-.22.14-.46.22-.7.24-.42.04-.83-.04-1.22-.21-.39-.18-.74-.41-1.06-.69-.37-.32-.63-.71-.77-1.17-.18-.57-.23-1.07-.16-1.52.07-.45.23-.87.46-1.25.24-.38.54-.73.91-1.06.37-.33.75-.65,1.14-.97.19-.14.39-.29.6-.45.2-.16.4-.33.58-.5.19-.18.34-.37.48-.58.13-.21.21-.45.23-.72-.11-.44-.29-.73-.56-.86-.27-.13-.56-.17-.88-.11-.32.06-.65.19-.98.4-.34.2-.64.41-.9.62-.16.12-.3.27-.44.44-.13.17-.27.33-.41.49-.14.16-.3.3-.46.42-.17.12-.36.2-.57.24-.35.05-.68,0-.98-.15-.3-.15-.53-.36-.7-.62s-.25-.56-.24-.89c0-.33.14-.64.38-.94.44-.53.92-1.01,1.45-1.45.52-.43,1.07-.8,1.66-1.09.58-.29,1.2-.49,1.86-.61.65-.11,1.33-.11,2.04.01.44.09.84.27,1.18.54.34.27.64.6.89.98.25.38.45.78.6,1.21.15.42.25.83.3,1.22.04.41,0,.82-.13,1.23-.12.42-.3.81-.53,1.18-.23.37-.5.72-.8,1.03-.3.32-.61.58-.93.8-.23.16-.48.34-.76.53-.27.19-.51.38-.72.57-.2.19-.35.35-.44.49-.09.14-.05.24.11.29ZM329.61,181.99c.07-.64.31-1.12.73-1.45.42-.33.86-.49,1.34-.5.48,0,.92.15,1.31.46s.61.8.62,1.43c.02.41-.06.76-.24,1.06-.18.3-.4.53-.68.7-.27.17-.58.27-.93.29s-.67-.03-.97-.16c-.3-.13-.56-.35-.78-.65-.22-.3-.36-.7-.41-1.19Z"/>
    </g>
    <path d="M174.28,259.27c3.05,0,17.36,17.46,21.73,42.67.15.84,2.51-.61,2.86,2.2.5,4.09-2.13,3.12-2.03,4.53.48,6.61-.01,13.63-1.94,20.9-.2.76-6.6,3.22-5.89,3.6.59.31,2.03.55,2.64.85,0,0,7.42,8.53,9,19.74s-1.26,63.63-.63,64.74c.63,1.11,3.79-1.05,9-.42,1.89.23,2.21.42,2.05,2.32-.16,1.89-2.05,3.63-2.05,3.63l-5.28.83-5.64.12-5.06-1.38-2.19-3.8-6.56.69.12,5.52-13.8,1.15-4.14-1.27.12-2.07-3.8,1.15-4.6-.58-4.83-1.96-14.49,2.65-16.79,1.61-9.43-1.96-9.66-6.9-2.76-9.55,2.42-8.97,6.1-6.9,10.12-3.34,1.04-11.27s5.14-19.32,8.14-25.16,6.36-12.2,11.37-17.37,12.95-7.74,12.95-7.74l-7.05-7.01s-7.48,4.16-14.11-.26-6.16-13.74-6.16-13.74c0,0,.28-7.35,1.64-11.65s4.98-10.99,10.2-14.75c5.84-4.21,7.59,2.9,8.77,0,6.67-16.39,26.18-20.87,28.63-20.87Z" fill="#2f3f70" opacity=".5"/>
    <path d="M205.7,386.27s6.16-1.58,9,4.26c1.94,3.98,5.05,15.16-11.42,14.21l2.42-18.47Z" fill="#2f3f70" opacity=".5"/>
    <path d="M216.91,387.7s17.84-1.42,20.53,3.32,1.74,19.58-25.74,25.74c0,0-4.42-2.37-9.16-.47l1.26-11.21s8.44.47,12.32-5.21c1.62-2.38.93-7.22.79-12.16Z" fill="#2f3f70" opacity=".5"/>
    <path d="M232.21,279.81c8.44,20.99-10.47,58.53-34.91,54.62-8.64-1.38-6.91-6.91-4.84-35.61,1.67-23.16-38.58-43.39-13.83-43.9,24.76-.51,44.92,3.34,53.58,24.89Z" fill="#ff0" opacity=".08"/>
    <path d="M214.18,353.59c-2.16,8.45-9.24,23.05-7.5,30,.08.32,4.89-1.5,7.26.32,9.2,7.06.56,37.17-13.66,34.89-8.64-1.38-2.23-27.75-.16-56.45.84-11.58-4.96-20.4-7.63-26.05-3.06-6.48,2.45-4.8,14.51-6.62,10.26-1.54,12.92,1.41,7.16,23.9Z" fill="#ff0" opacity=".08"/>
    <path d="M240.51,285.34c4.76,11.84-1.42,32.28-15.21,30.08-4.88-.78,1.1-7.06,3.11-23.16,1.04-8.3-15.98-18.73-2.07-20.05,7.26-.69,9.29.98,14.17,13.14Z" fill="#ff0" opacity=".08"/>
    <path d="M203.72,385.23s20.49-5.41,29.66-.66c9.18,4.75,11.31,17.86,2.95,14.42s-29.83-6.72-32.94-5.24-6.39-7.05.33-8.52Z" fill="#ff0" opacity=".08"/>
  </g>
  <rect x="1.89" y="2.21" width="596.21" height="535.58" fill="none" stroke="#2e4270" stroke-linecap="round" stroke-miterlimit="10" stroke-width="2.3"/>
</svg>