<?xml version="1.0" encoding="UTF-8"?>
<svg id="Layer_1" data-name="Layer 1" xmlns="http://www.w3.org/2000/svg" width="600" height="360" viewBox="0 0 600 360">
  <path d="M22.21,6.06s-13.58.63-16.42,16.11c-2.84,15.47,1.95,90.63,1.32,103.89-.63,13.26.48,106.69-.16,117.43-.63,10.74-1.89,69.16-.63,78.63,1.26,9.47,4.42,27.47,11.68,28.11,7.26.63,52.37-1.26,64.37-1.26s56.53,2.84,70.42,1.58c13.89-1.26,48.63-1.58,58.11-.32,9.47,1.26,60.95.95,71.37.95s146.53-1.58,159.47-.63c12.95.95,49.69,1.27,64.22.64,14.53-.63,65.76.32,70.18,0s11.37,3.47,11.37-14.53,2.3-64.84,2.05-74.64c-.41-16.31,1.13-34.58,1.44-50.36.32-15.79-1.47-62.21-.84-73.26.63-11.05,2.53-62.84,2.53-72.32s1.26-20.84,0-30.63c-1.26-9.79,1.26-21.16-12.95-24.32-14.21-3.16-28.74-4.74-40.74-4.42-12,.32-72.63,1.26-87.16,1.26s-56.21-1.58-75.16-.95c-18.95.63-72.95.95-84.95,1.58s-40.74-1.58-52.74-.32c-12,1.26-40.11,0-53.05,2.21-12.95,2.21-44.21-.95-63.16-1.26-18.95-.32-54.45-3.81-63.32-4.42-9.16-.63-37.26,1.26-37.26,1.26Z" fill="#2b3751" stroke="#000" stroke-linecap="round" stroke-miterlimit="10" stroke-width="1.66"/>
  <path d="M132.52,174.69s-5.89-.63-15.79,10.03c-9.9,10.65-13.66,52.38-13.66,52.38,0,0-3.63,28.7-10.15,33.58-6.52,4.89-14.41,9.52-18.42,10.15s-12.53,5.14-13.16,11.9c-.63,6.77-1.88,23.81,13.66,27.19,15.54,3.38,57.4,8.52,110.16,7.89,0,0,7.66,14.97,16.48,17.83,0,0,13.39,3.47,12.28-4.99,0,0,5.69,3.33,11.79,1.25s7.07-8.46-.97-15.12c0,0,13.46-1.53,15.95-11.24,0,0,19.14-1.39,18.87-20.95s-21.08-20.11-25.94-18.87c-4.86,1.25-17.62,5.55-17.62,5.55,0,0,2.77-19.84,6.24-31.07,3.47-11.24,15.12-47.44,3.33-62.28l-93.05-13.24Z" fill="#fff"/>
  <path d="M246.78,118.09s-10.59-2.42-16.27,24.1c-5.68,26.52,5.92,31.24,16.47,31.67,11.93.48,18.33-14.85,17.32-28.29-1.86-24.75-17.52-27.48-17.52-27.48Z" fill="#e293e2" stroke="#000" stroke-linecap="round" stroke-miterlimit="10" stroke-width="2.4"/>
  <path d="M166.7,79.83s-38.13,4.6-49.67,42.18c-11.54,37.58,13.21,75.64,67.14,76.63,54.66,1,76.19-35.03,69.72-66.13-6.54-31.41-32.79-61.43-87.19-52.68Z" fill="#fff" stroke="#000" stroke-linecap="round" stroke-miterlimit="10" stroke-width="1.58"/>
  <path d="M231.04,116.14c-11.54-2.2-17.14,11.1-17.14,11.1,0,0-.74,1.61-1.55,4.09-3.91-.59-8.3-.31-9.06,3.66-.74,3.83,2.41,5.97,6.96,7.01-.15,3.42.31,6.9,1.98,9.83,4.42,7.76,22.08,9.61,27.12-8.56,4.42-15.94,1.38-25.29-8.3-27.13Z" fill="#fff" stroke="#000" stroke-linecap="round" stroke-miterlimit="10" stroke-width="1.91"/>
  <path d="M190.45,143.74s-20.67,2.11-25.03,17.17c-4.36,15.07,1.75,31.78,28.03,30.61,26.29-1.17,27.85-19.71,26.12-29.66-1.73-9.94-12.1-21.21-29.12-18.12Z" fill="#e293e2" stroke="#000" stroke-linecap="round" stroke-miterlimit="10" stroke-width="2.4"/>
  <path d="M191.32,151.2s10.52-2.95,10.97,4c.45,6.95-9.38,6.86-9.38,6.86" fill="none" stroke="#000" stroke-linecap="round" stroke-miterlimit="10" stroke-width="1.58"/>
  <path d="M131.31,105.59s-10.92-9.9-30.65,17.41c-9.52,13.17-10.65,33.04,1.37,39.25,12.78,6.61,19.37-.43,28.61-19.15,13.65-27.65.68-37.51.68-37.51Z" fill="#e293e2" stroke="#000" stroke-linecap="round" stroke-miterlimit="10" stroke-width="2.4"/>
  <g>
    <path d="M181.65,136.11c.32-4.26-4.34-5.62-8.45-5.99.33-2.47,1-16.7-7.49-19.14-10.04-2.89-20.64,2.5-24.24,21.01-3.6,18.5,12.71,25.33,20.47,20.92,4.39-2.5,7.11-7.47,8.76-12.06,5.79.74,10.61-.2,10.95-4.73Z" fill="none" stroke="#000" stroke-linecap="round" stroke-miterlimit="10" stroke-width="1.91"/>
    <path d="M165.22,123.59s-3.6-3.3-7.84,4.34c-4.24,7.64-1.46,14.41,2.14,16.16,5.71,2.77,9.09-5.4,9.53-11.64.62-8.8-3.83-8.85-3.83-8.85Z" fill="#e293e2" stroke="#000" stroke-linecap="round" stroke-miterlimit="10" stroke-width="2.4"/>
  </g>
  <path d="M234.46,129.71c-1.07-.23-5,.23-7.16,8.52-2.9,11.14,5.23,11.63,7.4,8.24,2.05-3.21,7.04-15.2-.24-16.76Z" fill="#e293e2" stroke="#000" stroke-linecap="round" stroke-miterlimit="10" stroke-width="2.4"/>
  <path d="M186.89,172.54s15.14-2.67,15.05.16" fill="none" stroke="#000" stroke-linecap="round" stroke-miterlimit="10" stroke-width="1.58"/>
  <path d="M171,294.55c-20.06-3.76-43.44-6.81-63.71-2.81" fill="none" stroke="#221a38" stroke-linecap="round" stroke-miterlimit="10" stroke-width="1.58"/>
  <path d="M225.3,326.6c7.87-1.72,14.07-5.34,15.78-12.65,3.79-16.29-11.89-16.11-23.52-13.73" fill="none" stroke="#221a38" stroke-linecap="round" stroke-miterlimit="10" stroke-width="1.58"/>
  <path d="M127.64,175.85c-4.64,2.56-14.8,9.49-18.6,22.79-4.99,17.47-6.74,53.91-11.23,62.9-4.49,8.99-5.23,13.75-26.3,20.4-13,4.1-20.62,32.01,7.83,39,26.74,6.57,84.42,6.92,104.83,6.74" fill="none" stroke="#000" stroke-linecap="round" stroke-miterlimit="10" stroke-width="1.58"/>
  <path d="M215.12,340.91c4.99,2.75,12.98,1,14.98-2.25,2-3.24-2-9.23-6.49-12.98-4.49-3.74-6.24-23.46-7.49-40.93-1.25-17.47,13.36-55.1,13.73-66.89.75-23.96-1.31-23.26-3.49-28.2" fill="none" stroke="#000" stroke-linecap="round" stroke-miterlimit="10" stroke-width="1.58"/>
  <path d="M178.93,243.07s25.96,85.11,29.95,88.86,7.49,9.23,4.24,12.48c-3.24,3.24-7.74,1.75-11.48,1.25-3.74-.5-14.73-9.48-18.47-20.22-3.74-10.73-29.2-73.38-29.2-73.38" fill="none" stroke="#221a38" stroke-linecap="round" stroke-miterlimit="10" stroke-width="1.58"/>
  <path d="M198.65,238.57s-3.74,46.17-1,62.65" fill="none" stroke="#221a38" stroke-linecap="round" stroke-miterlimit="10" stroke-width="1.58"/>
  <path d="M216.1,280.92c3.28-.85,6.54-1.82,9.76-2.91,38.94-13.23,44.43,34.44,14.98,37.94" fill="none" stroke="#221a38" stroke-linecap="round" stroke-miterlimit="10" stroke-width="1.58"/>
  <path d="M192.27,285.22c1.52-.17,2.8-.32,4.34-.53" fill="none" stroke="#221a38" stroke-linecap="round" stroke-miterlimit="10" stroke-width="1.58"/>
  <path d="M119.03,289.49s.25-10.73,11.73-7.24c5.72,1.74,19.69,3.98,37.09,4.15" fill="none" stroke="#221a38" stroke-linecap="round" stroke-miterlimit="10" stroke-width="1.58"/>
  <g>
    <path d="M437.7,118.5c-4.26.14-10.58-.08-13.83,15.11-2.43,11.35-3.19,15.91-3.19,15.91,0,0-16.48,57.98-16.21,58.42s8.33,1.46,8.33,1.46l39.69-87.27s-7.94-3.84-14.78-3.61Z" fill="#f7bc00" stroke="#000" stroke-linecap="round" stroke-linejoin="round" stroke-width="1.89"/>
    <path d="M436.67,118.88l-4.69,14.76,6.55,2.12,6.25-15.99s-5.56-1.75-8.12-.9Z"/>
    <polygon points="430.45 137.57 439.43 139.63 410.42 209.31 406.59 209.11 430.45 137.57" fill="#ddd"/>
    <circle cx="434.78" cy="135.85" r="8.63" transform="translate(20.1 324.34) rotate(-41.79)"/>
    <polygon points="435.92 131.99 432.26 132.93 431.24 136.57 433.88 139.27 437.54 138.34 438.56 134.7 435.92 131.99" fill="#fff"/>
    <path d="M429.56,140.53s-23.05,68.02-22.81,67.82" fill="none" stroke="#221a38" stroke-linecap="round" stroke-miterlimit="10" stroke-width=".94"/>
    <path d="M437.99,142.26s-27.81,66.71-27.52,66.61" fill="none" stroke="#221a38" stroke-linecap="round" stroke-miterlimit="10" stroke-width=".94"/>
    <line x1="418.55" y1="173.49" x2="422.78" y2="178.24" fill="none" stroke="#221a38" stroke-linecap="round" stroke-miterlimit="10" stroke-width=".94"/>
    <line x1="414.36" y1="185.75" x2="417.94" y2="189.79" fill="none" stroke="#221a38" stroke-linecap="round" stroke-miterlimit="10" stroke-width=".94"/>
    <line x1="410.25" y1="198.11" x2="413.31" y2="201.61" fill="none" stroke="#221a38" stroke-linecap="round" stroke-miterlimit="10" stroke-width=".94"/>
    <line x1="424.05" y1="157" x2="429.05" y2="163.12" fill="none" stroke="#221a38" stroke-linecap="round" stroke-miterlimit="10" stroke-width=".94"/>
    <line x1="426.65" y1="149.04" x2="432.12" y2="155.66" fill="none" stroke="#221a38" stroke-linecap="round" stroke-miterlimit="10" stroke-width=".94"/>
    <path d="M433.95,166.19s-.02,0-.03,0c-3.21.14-5.46-.22-7.7-1.11-1.08-.42-1.09-.9-1.63-1.08-.46-.15-1.16.16-2.26,0-4.3-.63-5.88-3.38-6.02-3.53-.52-.53-.55-1.42-.07-1.98.47-.56,1.27-.59,1.79-.06.09.09,5.47,5.41,15.76,4.95.7-.03,1.3.57,1.33,1.35.04.76-.48,1.41-1.17,1.46Z" fill="#fff34a" stroke="#000" stroke-linecap="round" stroke-miterlimit="10" stroke-width="1.13"/>
    <path d="M435.9,163.61s-.02,0-.03,0c-12.71.25-19.05-5.85-19.31-6.11-.55-.54-.56-1.43-.01-1.99.54-.55,1.43-.56,1.98-.02.06.05,2.09,1.78,5.22,3.03.36.14,1.37,1.41,1.76,1.53s1.64-.21,2.17-.2c2.54.03,4.61,1.01,8.14.94.78-.02,1.42.6,1.43,1.38.02.76-.58,1.4-1.34,1.43Z" fill="#fff34a" stroke="#000" stroke-linecap="round" stroke-miterlimit="10" stroke-width="1.18"/>
    <g>
      <path d="M430.06,238.46c-.72,0-1.36-.49-1.56-1.18-6.91-24.63-2.41-43.63.58-56.2,1.71-7.22,2.95-12.43,1.29-15.08-.69-1.1-1.92-1.81-3.88-2.25-.87-.19-1.43-1.06-1.23-1.93.16-.74.83-1.27,1.58-1.27.12,0,.24.01.35.04,2.83.63,4.77,1.83,5.93,3.69,2.38,3.8,1.01,9.57-.88,17.55-2.91,12.25-7.3,30.76-.61,54.58.12.42.06.85-.15,1.23-.21.38-.56.65-.98.77-.14.04-.29.06-.44.06Z" fill="#fff34a"/>
      <path d="M430.06,238.46c-.72,0-1.36-.49-1.56-1.18-6.91-24.63-2.41-43.63.58-56.2,1.71-7.22,2.95-12.43,1.29-15.08-.69-1.1-1.92-1.81-3.88-2.25-.87-.19-1.43-1.06-1.23-1.93.16-.74.83-1.27,1.58-1.27.12,0,.24.01.35.04,2.83.63,4.77,1.83,5.93,3.69,2.38,3.8,1.01,9.57-.88,17.55-2.91,12.25-7.3,30.76-.61,54.58.12.42.06.85-.15,1.23-.21.38-.56.65-.98.77-.14.04-.29.06-.44.06Z" fill="none" stroke="#000" stroke-miterlimit="10" stroke-width=".77"/>
    </g>
    <g>
      <path d="M369.7,209.18c-.87,0-1.58-.68-1.62-1.55-.02-.43.13-.85.43-1.17.29-.32.69-.5,1.13-.52,12.8-.54,17.24-10.96,21.95-21.99,4.96-11.63,10.58-24.81,27.5-24.81,1.51,0,3.11.11,4.75.32.43.06.81.27,1.08.62.26.34.38.77.33,1.2-.1.81-.79,1.42-1.61,1.42-.07,0-.14,0-.21-.01-1.51-.19-2.97-.29-4.35-.29-14.75,0-19.49,11.1-24.5,22.85-4.89,11.47-9.95,23.34-24.79,23.96h-.07Z" fill="#fff34a"/>
      <path d="M369.7,209.18c-.87,0-1.58-.68-1.62-1.55-.02-.43.13-.85.43-1.17.29-.32.69-.5,1.13-.52,12.8-.54,17.24-10.96,21.95-21.99,4.96-11.63,10.58-24.81,27.5-24.81,1.51,0,3.11.11,4.75.32.43.06.81.27,1.08.62.26.34.38.77.33,1.2-.1.81-.79,1.42-1.61,1.42-.07,0-.14,0-.21-.01-1.51-.19-2.97-.29-4.35-.29-14.75,0-19.49,11.1-24.5,22.85-4.89,11.47-9.95,23.34-24.79,23.96h-.07Z" fill="none" stroke="#000" stroke-miterlimit="10" stroke-width=".77"/>
    </g>
    <g>
      <path d="M425.72,159.55s-1.2,2.09-1.19,5.01" fill="#fff34a" stroke="#000" stroke-linecap="round" stroke-miterlimit="10" stroke-width="1.18"/>
      <g>
        <path d="M424.54,165.71c-.63,0-1.15-.51-1.15-1.15-.02-3.13,1.2-5.35,1.34-5.59.21-.36.59-.58,1-.58.2,0,.4.05.57.15.55.32.74,1.02.43,1.58,0,.02-1.05,1.9-1.03,4.43,0,.62-.48,1.13-1.1,1.16h-.05Z" fill="#fff34a"/>
        <path d="M425.72,158.98c.09,0,.19.02.28.08.27.15.36.5.21.77-.01.02-1.13,2-1.11,4.72,0,.3-.24.55-.54.56,0,0-.01,0-.02,0h0c-.31,0-.56-.25-.56-.56-.02-3.04,1.21-5.2,1.26-5.29.1-.18.29-.28.49-.28M425.72,157.8h0c-.62,0-1.2.33-1.51.87-.15.26-1.44,2.59-1.42,5.89,0,.96.79,1.74,1.75,1.74h.1c.92-.04,1.65-.81,1.64-1.76-.01-2.36.95-4.12.96-4.14.47-.83.18-1.89-.65-2.37-.26-.15-.56-.23-.87-.23h0Z"/>
      </g>
    </g>
  </g>
  <path d="M475.79,173.93c-6.68,39.9-34.18,72.24-61.41,72.24s-43.89-32.34-37.21-72.24c6.68-39.9,34.18-72.24,61.41-72.24s43.89,32.34,37.21,72.24Z" fill="#fff34a" opacity=".2"/>
  <path d="M227.68,90.78s-39.16-15.16-64.42,13.05c-25.26,28.21-14.74,63.58-6.74,73.26s31.58,22.74,69.47,12.63c0,0,2.95,16-13.47,47.16-8.13,15.43-8.42,71.16-2.53,84.63,5.89,13.47,13.47,19.79,13.47,19.79l-8.42.42-10.95-17.26-24-74.95s-12.63-15.16-13.05,1.68c-.42,16.84,21.89,74.11,27.37,79.16s11.79,13.05,15.58,13.47-4.63,4.63-10.95,2.11c-6.32-2.53-16.84-19.79-16.84-19.79,0,0-86.74,6.32-113.26-10.11-26.53-16.42-3.79-32.84,3.79-34.95s26.95-9.26,26.95-31.58,10.11-70.74,26.95-73.26l-10.11-11.37s-21.89-.84-22.74-15.16c-.84-14.32,7.58-37.47,30.74-47.16,0,0,39.58-48.42,103.16-11.79Z" fill="#2b3751" opacity=".4"/>
  <path d="M216.05,282.04s16.68-4.73,28.47,2.85c5.89,3.79,12.58,18.7,6.32,26.95-3.4,4.47-10.01,4.22-10.01,4.22,0,0,3.85-11.76-5.25-15.79-4.03-1.79-15.55-.87-17.66.4l-1.87-18.63Z" fill="#2b3751" opacity=".4"/>
  <path d="M218,302.57s15.58-1.26,18.95,6.32-4.21,17.68-12.63,17.68c0,0-8-12.21-6.32-24Z" fill="#2b3751" opacity=".4"/>
  <g>
    <rect x="251.72" y="19.14" width="223.53" height="37.37" rx="18.68" ry="18.68" fill="#fff"/>
    <rect x="138.7" y="46.95" width="447.6" height="37.37" rx="18.68" ry="18.68" fill="#fff"/>
    <path d="M351.69,81.25s19.3,18.5,26.41,20.26l-9.46-24.98-16.95,4.72Z" fill="#fff"/>
  </g>
  <text transform="translate(269.52 43.66)" font-family="ChalkboardSE-Bold, &apos;Chalkboard SE&apos;" font-size="24" font-weight="700"><tspan x="0" y="0">D</tspan><tspan x="15.81" y="0" letter-spacing=".03em">o</tspan><tspan x="28.64" y="0" letter-spacing="-.07em">n</tspan><tspan x="39.65" y="0" letter-spacing="-.16em">’</tspan><tspan x="43.12" y="0">t be je</tspan><tspan x="124.61" y="0" letter-spacing="0em">a</tspan><tspan x="137.82" y="0" letter-spacing="-.04em">l</tspan><tspan x="144.64" y="0" letter-spacing=".03em">o</tspan><tspan x="157.6" y="0" letter-spacing=".03em">u</tspan><tspan x="171.5" y="0" letter-spacing="-.06em">s</tspan><tspan x="180.94" y="0" letter-spacing="-.05em">.</tspan><tspan x="-120.14" y="28.8">E</tspan><tspan x="-106.49" y="28.8" letter-spacing="0em">v</tspan><tspan x="-94.98" y="28.8" letter-spacing=".02em">e</tspan><tspan x="-81.29" y="28.8" letter-spacing=".04em">r</tspan><tspan x="-69.39" y="28.8">y d</tspan><tspan x="-31.65" y="28.8" letter-spacing="-.07em">a</tspan><tspan x="-19.9" y="28.8" letter-spacing="-.05em">t</tspan><tspan x="-9.59" y="28.8">e w</tspan><tspan x="31.33" y="28.8" letter-spacing=".01em">a</tspan><tspan x="45.02" y="28.8">s j</tspan><tspan x="75.67" y="28.8" letter-spacing=".03em">u</tspan><tspan x="89.57" y="28.8" letter-spacing="-.05em">s</tspan><tspan x="99.3" y="28.8">t a w</tspan><tspan x="161.91" y="28.8" letter-spacing=".01em">a</tspan><tspan x="175.59" y="28.8" letter-spacing="-.05em">s</tspan><tspan x="185.33" y="28.8" letter-spacing="-.05em">t</tspan><tspan x="195.64" y="28.8">e of </tspan><tspan x="251.81" y="28.8" letter-spacing="0em">t</tspan><tspan x="263.45" y="28.8">i</tspan><tspan x="269.98" y="28.8" letter-spacing=".02em">m</tspan><tspan x="288.78" y="28.8" letter-spacing="-.04em">e</tspan><tspan x="301.08" y="28.8" letter-spacing="-.05em">.</tspan></text>
</svg>