<?xml version="1.0" encoding="UTF-8"?>
<svg id="Layer_1" data-name="Layer 1" xmlns="http://www.w3.org/2000/svg" width="600" height="360" viewBox="0 0 600 360">
  <path d="M575.93,349.81s13.58-.63,16.42-16.11c2.84-15.47-1.95-90.63-1.32-103.89.63-13.26-.48-106.69.16-117.43.63-10.74,1.89-69.16.63-78.63-1.26-9.47-4.42-27.47-11.68-28.11-7.26-.63-52.37,1.26-64.37,1.26s-56.53-2.84-70.42-1.58c-13.89,1.26-48.63,1.58-58.11.32s-60.95-.95-71.37-.95-146.53,1.58-159.47.63c-12.95-.95-52.24.52-66.76,1.16-14.53.63-59.11-.77-63.54-.46s-17.53.9-17.53,18.9-.23,51.47,1.41,69.45c.89,9.76,2.11,26.48,1.79,42.27-.32,15.79-3.16,69.79-3.79,80.84-.63,11.05-2.53,62.84-2.53,72.32s-1.26,20.84,0,30.63-1.26,21.16,12.95,24.32c14.21,3.16,28.74,4.74,40.74,4.42,12-.32,72.63-1.26,87.16-1.26s56.21,1.58,75.16.95c18.95-.63,72.95-.95,84.95-1.58,12-.63,40.74,1.58,52.74.32s40.11,0,53.05-2.21c12.95-2.21,44.21.95,63.16,1.26,18.95.32,54.45,3.81,63.32,4.42,9.16.63,37.26-1.26,37.26-1.26Z" fill="#2b3751" stroke="#000" stroke-linecap="round" stroke-miterlimit="10" stroke-width="1.66"/>
  <path d="M132.52,174.69s-5.89-.63-15.79,10.03c-9.9,10.65-13.66,52.38-13.66,52.38,0,0-3.63,28.7-10.15,33.58-6.52,4.89-14.41,9.52-18.42,10.15s-12.53,5.14-13.16,11.9c-.63,6.77-1.88,23.81,13.66,27.19,15.54,3.38,57.4,8.52,110.16,7.89,0,0,7.66,14.97,16.48,17.83,0,0,13.39,3.47,12.28-4.99,0,0,5.69,3.33,11.79,1.25s7.07-8.46-.97-15.12c0,0,13.46-1.53,15.95-11.24,0,0,19.14-1.39,18.87-20.95s-21.08-20.11-25.94-18.87c-4.86,1.25-17.62,5.55-17.62,5.55,0,0,2.77-19.84,6.24-31.07,3.47-11.24,15.12-47.44,3.33-62.28l-93.05-13.24Z" fill="#fff"/>
  <path d="M246.78,118.09s-10.59-2.42-16.27,24.1c-5.68,26.52,5.92,31.24,16.47,31.67,11.93.48,18.33-14.85,17.32-28.29-1.86-24.75-17.52-27.48-17.52-27.48Z" fill="#e293e2" stroke="#000" stroke-linecap="round" stroke-miterlimit="10" stroke-width="2.4"/>
  <path d="M166.7,79.83s-38.13,4.6-49.67,42.18c-11.54,37.58,13.21,75.64,67.14,76.63,54.66,1,76.19-35.03,69.72-66.13-6.54-31.41-32.79-61.43-87.19-52.68Z" fill="#fff" stroke="#000" stroke-linecap="round" stroke-miterlimit="10" stroke-width="1.58"/>
  <path d="M231.04,116.14c-11.54-2.2-17.14,11.1-17.14,11.1,0,0-.74,1.61-1.55,4.09-3.91-.59-8.3-.31-9.06,3.66-.74,3.83,2.41,5.97,6.96,7.01-.15,3.42.31,6.9,1.98,9.83,4.42,7.76,22.08,9.61,27.12-8.56,4.42-15.94,1.38-25.29-8.3-27.13Z" fill="#fff" stroke="#000" stroke-linecap="round" stroke-miterlimit="10" stroke-width="1.91"/>
  <path d="M190.45,143.74s-20.67,2.11-25.03,17.17c-4.36,15.07,1.75,31.78,28.03,30.61,26.29-1.17,27.85-19.71,26.12-29.66-1.73-9.94-12.1-21.21-29.12-18.12Z" fill="#e293e2" stroke="#000" stroke-linecap="round" stroke-miterlimit="10" stroke-width="2.4"/>
  <path d="M191.32,151.2s10.52-2.95,10.97,4c.45,6.95-9.38,6.86-9.38,6.86" fill="none" stroke="#000" stroke-linecap="round" stroke-miterlimit="10" stroke-width="1.58"/>
  <path d="M131.31,105.59s-10.92-9.9-30.65,17.41c-9.52,13.17-10.65,33.04,1.37,39.25,12.78,6.61,19.37-.43,28.61-19.15,13.65-27.65.68-37.51.68-37.51Z" fill="#e293e2" stroke="#000" stroke-linecap="round" stroke-miterlimit="10" stroke-width="2.4"/>
  <g>
    <path d="M181.65,136.11c.32-4.26-4.34-5.62-8.45-5.99.33-2.47,1-16.7-7.49-19.14-10.04-2.89-20.64,2.5-24.24,21.01-3.6,18.5,12.71,25.33,20.47,20.92,4.39-2.5,7.11-7.47,8.76-12.06,5.79.74,10.61-.2,10.95-4.73Z" fill="none" stroke="#000" stroke-linecap="round" stroke-miterlimit="10" stroke-width="1.91"/>
    <path d="M165.22,119.59s-3.6-3.3-7.84,4.34c-4.24,7.64-1.46,14.41,2.14,16.16,5.71,2.77,9.09-5.4,9.53-11.64.62-8.8-3.83-8.85-3.83-8.85Z" fill="#e293e2" stroke="#000" stroke-linecap="round" stroke-miterlimit="10" stroke-width="2.4"/>
  </g>
  <g>
    <path d="M234.46,125.71c-1.07-.23-5,.23-7.16,8.52-2.9,11.14,5.23,11.63,7.4,8.24,2.05-3.21,7.04-15.2-.24-16.76Z" fill="#e293e2"/>
    <path d="M231.15,145.51c-.73,0-1.47-.14-2.17-.45-1.55-.68-4.92-3.12-2.83-11.14,2.74-10.51,8.33-9.44,8.57-9.39,2,.43,3.45,1.59,4.19,3.36,2.12,5.09-2.04,13.42-3.19,15.21-.98,1.53-2.75,2.4-4.56,2.4ZM233.97,126.85c-1.12,0-3.85,1.31-5.51,7.67-1.13,4.33-.58,7.45,1.47,8.34,1.31.57,3.03.09,3.75-1.05,1.5-2.35,4.49-9.42,2.99-13-.44-1.06-1.23-1.68-2.48-1.94h0c-.07-.01-.15-.02-.24-.02Z"/>
  </g>
  <path d="M201.94,172.7c-.85.2-7.34.06-11.51-.05-1.33-.04-1.98,1.62-.97,2.49,1.68,1.44,3.95,2.96,6.15,3.01,4.22.09,12.81-6.94,6.33-5.45Z"/>
  <path d="M171,294.55c-20.06-3.76-43.44-6.81-63.71-2.81" fill="none" stroke="#221a38" stroke-linecap="round" stroke-miterlimit="10" stroke-width="1.58"/>
  <path d="M225.3,326.6c7.87-1.72,14.07-5.34,15.78-12.65,3.79-16.29-11.89-16.11-23.52-13.73" fill="none" stroke="#221a38" stroke-linecap="round" stroke-miterlimit="10" stroke-width="1.58"/>
  <path d="M127.64,175.85c-4.64,2.56-14.8,9.49-18.6,22.79-4.99,17.47-6.74,53.91-11.23,62.9-4.49,8.99-5.23,13.75-26.3,20.4-13,4.1-20.62,32.01,7.83,39,26.74,6.57,84.42,6.92,104.83,6.74" fill="none" stroke="#000" stroke-linecap="round" stroke-miterlimit="10" stroke-width="1.58"/>
  <path d="M215.12,340.91c4.99,2.75,12.98,1,14.98-2.25,2-3.24-2-9.23-6.49-12.98-4.49-3.74-6.24-23.46-7.49-40.93-1.25-17.47,13.36-55.1,13.73-66.89.75-23.96-1.31-23.26-3.49-28.2" fill="none" stroke="#000" stroke-linecap="round" stroke-miterlimit="10" stroke-width="1.58"/>
  <path d="M178.93,243.07s25.96,85.11,29.95,88.86,7.49,9.23,4.24,12.48c-3.24,3.24-7.74,1.75-11.48,1.25-3.74-.5-14.73-9.48-18.47-20.22-3.74-10.73-29.2-73.38-29.2-73.38" fill="none" stroke="#221a38" stroke-linecap="round" stroke-miterlimit="10" stroke-width="1.58"/>
  <path d="M198.65,238.57s-3.74,46.17-1,62.65" fill="none" stroke="#221a38" stroke-linecap="round" stroke-miterlimit="10" stroke-width="1.58"/>
  <path d="M216.1,280.92c3.28-.85,6.54-1.82,9.76-2.91,38.94-13.23,44.43,34.44,14.98,37.94" fill="none" stroke="#221a38" stroke-linecap="round" stroke-miterlimit="10" stroke-width="1.58"/>
  <path d="M192.27,285.22c1.52-.17,2.8-.32,4.34-.53" fill="none" stroke="#221a38" stroke-linecap="round" stroke-miterlimit="10" stroke-width="1.58"/>
  <path d="M119.03,289.49s.25-10.73,11.73-7.24c5.72,1.74,19.69,3.98,37.09,4.15" fill="none" stroke="#221a38" stroke-linecap="round" stroke-miterlimit="10" stroke-width="1.58"/>
  <g>
    <path d="M480.51,99.92c-4.26.14-10.58-.08-13.83,15.11-2.43,11.35-3.19,15.91-3.19,15.91,0,0-16.48,57.98-16.21,58.42s8.33,1.46,8.33,1.46l39.69-87.27s-7.94-3.84-14.78-3.61Z" fill="#f7bc00" stroke="#000" stroke-linecap="round" stroke-linejoin="round" stroke-width="1.89"/>
    <path d="M479.48,100.31l-4.69,14.76,6.55,2.12,6.25-15.99s-5.56-1.75-8.12-.9Z"/>
    <polygon points="473.26 119 482.24 121.06 453.22 190.74 449.4 190.53 473.26 119" fill="#ddd"/>
    <circle cx="477.59" cy="117.27" r="8.63" transform="translate(43.37 348.14) rotate(-41.79)"/>
    <polygon points="478.73 113.42 475.07 114.35 474.05 117.99 476.69 120.69 480.35 119.76 481.37 116.12 478.73 113.42" fill="#fff"/>
    <path d="M472.37,121.95s-23.05,68.02-22.81,67.82" fill="none" stroke="#221a38" stroke-linecap="round" stroke-miterlimit="10" stroke-width=".94"/>
    <path d="M480.8,123.68s-27.81,66.71-27.52,66.61" fill="none" stroke="#221a38" stroke-linecap="round" stroke-miterlimit="10" stroke-width=".94"/>
    <line x1="461.36" y1="154.91" x2="465.59" y2="159.66" fill="none" stroke="#221a38" stroke-linecap="round" stroke-miterlimit="10" stroke-width=".94"/>
    <line x1="457.16" y1="167.17" x2="460.75" y2="171.22" fill="none" stroke="#221a38" stroke-linecap="round" stroke-miterlimit="10" stroke-width=".94"/>
    <line x1="453.06" y1="179.53" x2="456.12" y2="183.04" fill="none" stroke="#221a38" stroke-linecap="round" stroke-miterlimit="10" stroke-width=".94"/>
    <line x1="466.86" y1="138.42" x2="471.86" y2="144.54" fill="none" stroke="#221a38" stroke-linecap="round" stroke-miterlimit="10" stroke-width=".94"/>
    <line x1="469.46" y1="130.47" x2="474.92" y2="137.08" fill="none" stroke="#221a38" stroke-linecap="round" stroke-miterlimit="10" stroke-width=".94"/>
    <path d="M476.76,147.61s-.02,0-.03,0c-3.21.14-5.46-.22-7.7-1.11-1.08-.42-1.09-.9-1.63-1.08-.46-.15-1.16.16-2.26,0-4.3-.63-5.88-3.38-6.02-3.53-.52-.53-.55-1.42-.07-1.98.47-.56,1.27-.59,1.79-.06.09.09,5.47,5.41,15.76,4.95.7-.03,1.3.57,1.33,1.35.04.76-.48,1.41-1.17,1.46Z" fill="#fff34a" stroke="#000" stroke-linecap="round" stroke-miterlimit="10" stroke-width="1.13"/>
    <path d="M478.71,145.03s-.02,0-.03,0c-12.71.25-19.05-5.85-19.31-6.11-.55-.54-.56-1.43-.01-1.99.54-.55,1.43-.56,1.98-.02.06.05,2.09,1.78,5.22,3.03.36.14,1.37,1.41,1.76,1.53s1.64-.21,2.17-.2c2.54.03,4.61,1.01,8.14.94.78-.02,1.42.6,1.43,1.38.02.76-.58,1.4-1.34,1.43Z" fill="#fff34a" stroke="#000" stroke-linecap="round" stroke-miterlimit="10" stroke-width="1.18"/>
    <g>
      <path d="M472.87,219.89c-.72,0-1.36-.49-1.56-1.18-6.91-24.63-2.41-43.63.58-56.2,1.71-7.22,2.95-12.43,1.29-15.08-.69-1.1-1.92-1.81-3.88-2.25-.87-.19-1.43-1.06-1.23-1.93.16-.74.83-1.27,1.58-1.27.12,0,.24.01.35.04,2.83.63,4.77,1.83,5.93,3.69,2.38,3.8,1.01,9.57-.88,17.55-2.91,12.25-7.3,30.76-.61,54.58.12.42.06.85-.15,1.23-.21.38-.56.65-.98.77-.14.04-.29.06-.44.06Z" fill="#fff34a"/>
      <path d="M472.87,219.89c-.72,0-1.36-.49-1.56-1.18-6.91-24.63-2.41-43.63.58-56.2,1.71-7.22,2.95-12.43,1.29-15.08-.69-1.1-1.92-1.81-3.88-2.25-.87-.19-1.43-1.06-1.23-1.93.16-.74.83-1.27,1.58-1.27.12,0,.24.01.35.04,2.83.63,4.77,1.83,5.93,3.69,2.38,3.8,1.01,9.57-.88,17.55-2.91,12.25-7.3,30.76-.61,54.58.12.42.06.85-.15,1.23-.21.38-.56.65-.98.77-.14.04-.29.06-.44.06Z" fill="none" stroke="#000" stroke-miterlimit="10" stroke-width=".77"/>
    </g>
    <g>
      <path d="M412.51,190.6c-.87,0-1.58-.68-1.62-1.55-.02-.43.13-.85.43-1.17.29-.32.69-.5,1.13-.52,12.8-.54,17.24-10.96,21.95-21.99,4.96-11.63,10.59-24.81,27.5-24.81,1.51,0,3.1.11,4.75.32.43.05.81.27,1.08.62.26.34.38.77.33,1.2-.1.81-.79,1.42-1.61,1.42-.07,0-.14,0-.21-.01-1.51-.19-2.98-.29-4.35-.29-14.75,0-19.49,11.1-24.5,22.85-4.89,11.47-9.95,23.34-24.79,23.96h-.07Z" fill="#fff34a"/>
      <path d="M412.51,190.6c-.87,0-1.58-.68-1.62-1.55-.02-.43.13-.85.43-1.17.29-.32.69-.5,1.13-.52,12.8-.54,17.24-10.96,21.95-21.99,4.96-11.63,10.59-24.81,27.5-24.81,1.51,0,3.1.11,4.75.32.43.05.81.27,1.08.62.26.34.38.77.33,1.2-.1.81-.79,1.42-1.61,1.42-.07,0-.14,0-.21-.01-1.51-.19-2.98-.29-4.35-.29-14.75,0-19.49,11.1-24.5,22.85-4.89,11.47-9.95,23.34-24.79,23.96h-.07Z" fill="none" stroke="#000" stroke-miterlimit="10" stroke-width=".77"/>
    </g>
    <g>
      <path d="M468.53,140.97s-1.2,2.09-1.19,5.01" fill="#fff34a" stroke="#000" stroke-linecap="round" stroke-miterlimit="10" stroke-width="1.18"/>
      <g>
        <path d="M467.34,147.13c-.63,0-1.15-.51-1.16-1.15-.02-3.13,1.2-5.35,1.34-5.59.21-.36.59-.58,1-.58.2,0,.4.05.57.15.55.32.74,1.02.43,1.57,0,.02-1.05,1.9-1.03,4.43,0,.62-.48,1.13-1.1,1.16h-.05Z" fill="#fff34a"/>
        <path d="M468.53,140.41c.09,0,.19.02.28.07.27.15.36.5.21.77-.01.02-1.13,2-1.11,4.72,0,.3-.24.55-.54.57,0,0-.01,0-.02,0h0c-.31,0-.56-.25-.56-.56-.02-3.04,1.21-5.2,1.26-5.29.1-.18.29-.28.49-.28M468.53,139.22c-.62,0-1.2.33-1.51.87-.15.26-1.44,2.61-1.42,5.89,0,.96.79,1.74,1.75,1.74h.05c.97-.04,1.7-.81,1.69-1.76-.01-2.36.95-4.12.96-4.14.47-.83.18-1.9-.65-2.38-.26-.15-.56-.23-.87-.23h0Z"/>
      </g>
    </g>
  </g>
  <path d="M518.6,155.35c-6.68,39.9-34.18,72.24-61.41,72.24s-43.89-32.34-37.21-72.24c6.68-39.9,34.18-72.24,61.41-72.24,27.23,0,43.89,32.34,37.21,72.24Z" fill="#fff34a" opacity=".2"/>
  <path d="M228.95,94.99s-42.95-18.95-67.58,21.47c-24.63,40.42,12.63,82.11,61.26,74.53,0,0,.42,5.26-.84,13.68-1.26,8.42-11.37,46.74-11.79,56.42s-2.53,57.26,7.16,65.26c9.68,8,13.47,5.47,11.79,9.68s-8.42,8-13.89,5.05c-5.47-2.95-5.89-8.84-7.16-10.11s-26.53-74.11-31.16-77.47-12.21,1.26-9.68,15.58c2.53,14.32,22.32,62.32,28.63,64.84,6.32,2.53,17.68,7.16,14.32,10.11-3.37,2.95-10.95,1.26-14.32-2.11-3.37-3.37-13.05-14.32-13.05-14.32,0,0-74.95,0-90.95-5.05-16-5.05-35.79-2.95-31.58-25.26,4.21-22.32,21.92-17,27.37-20.63,8.84-5.89,14.32-18.95,15.16-33.68s4.21-61.47,24.84-66.95l-8.84-13.47s-12.63,9.68-21.47-3.37c-8.84-13.05-2.53-40,28.63-56.84,0,0,43.37-49.26,103.16-7.37Z" fill="#2b3751" opacity=".4"/>
  <path d="M216.42,281.83s16.68-4.73,28.47,2.85c5.89,3.79,12.58,18.7,6.32,26.95-3.4,4.47-10.01,4.22-10.01,4.22,0,0,3.85-11.76-5.25-15.79-4.03-1.79-15.55-.87-17.66.4l-1.87-18.63Z" fill="#2b3751" opacity=".4"/>
  <path d="M218.37,302.36s15.58-1.26,18.95,6.32c3.37,7.58-4.21,17.68-12.63,17.68,0,0-8-12.21-6.32-24Z" fill="#2b3751" opacity=".4"/>
  <g>
    <rect x="30.47" y="19.79" width="381.58" height="37.37" rx="18.68" ry="18.68" fill="#fff"/>
    <rect x="30.47" y="48.31" width="379.69" height="37.37" rx="18.68" ry="18.68" fill="#fff"/>
    <path d="M307.8,78s-27.26,24.19-34.38,25.95l9.46-24.98,24.91-.97Z" fill="#fff"/>
  </g>
  <text transform="translate(48.58 45.8)" font-family="ChalkboardSE-Bold, &apos;Chalkboard SE&apos;" font-size="24" font-weight="700"><tspan x="0" y="0">B</tspan><tspan x="14.21" y="0" letter-spacing="-.06em">u</tspan><tspan x="25.96" y="0">t the m</tspan><tspan x="113.82" y="0" letter-spacing=".02em">o</tspan><tspan x="126.42" y="0" letter-spacing="-.02em">r</tspan><tspan x="136.92" y="0">e </tspan><tspan x="160.02" y="0" letter-spacing=".01em">p</tspan><tspan x="173.49" y="0">e</tspan><tspan x="186.64" y="0" letter-spacing=".03em">o</tspan><tspan x="199.61" y="0">p</tspan><tspan x="212.81" y="0" letter-spacing="-.06em">l</tspan><tspan x="219.23" y="0">e </tspan><tspan x="242.33" y="0" letter-spacing="-.03em">y</tspan><tspan x="255.06" y="0" letter-spacing=".03em">o</tspan><tspan x="268.03" y="0">u </tspan><tspan x="291.18" y="0" letter-spacing=".02em">m</tspan><tspan x="309.98" y="0">e</tspan><tspan x="323.13" y="0" letter-spacing="-.04em">e</tspan><tspan x="335.23" y="0" letter-spacing="-.13em">t</tspan><tspan x="343.61" y="0">, </tspan><tspan x="0" y="28.8">the b</tspan><tspan x="62.13" y="28.8" letter-spacing="-.04em">e</tspan><tspan x="74.23" y="28.8" letter-spacing="-.03em">t</tspan><tspan x="85.02" y="28.8" letter-spacing="-.05em">t</tspan><tspan x="95.34" y="28.8" letter-spacing=".02em">e</tspan><tspan x="109.02" y="28.8">r the </tspan><tspan x="178.18" y="28.8" letter-spacing="0em">c</tspan><tspan x="190.57" y="28.8">han</tspan><tspan x="230.32" y="28.8" letter-spacing="-.02em">c</tspan><tspan x="242.12" y="28.8" letter-spacing=".02em">e</tspan><tspan x="255.83" y="28.8" letter-spacing="-.04em">s</tspan><tspan x="265.77" y="28.8">, </tspan><tspan x="282.9" y="28.8" letter-spacing=".03em">r</tspan><tspan x="294.57" y="28.8">i</tspan><tspan x="301.1" y="28.8" letter-spacing=".02em">g</tspan><tspan x="314.86" y="28.8" letter-spacing="-.05em">h</tspan><tspan x="327.35" y="28.8">t?</tspan></text>
</svg>