<?xml version="1.0" encoding="UTF-8"?>
<svg id="Layer_1" data-name="Layer 1" xmlns="http://www.w3.org/2000/svg" width="600" height="360" viewBox="0 0 600 360">
  <path d="M575.93,349.81s13.58-.63,16.42-16.11c2.84-15.47-1.95-90.63-1.32-103.89.63-13.26-.48-106.69.16-117.43.63-10.74,1.89-69.16.63-78.63s-4.42-27.47-11.68-28.11c-7.26-.63-52.37,1.26-64.37,1.26s-56.53-2.84-70.42-1.58c-13.89,1.26-48.63,1.58-58.11.32s-60.95-.95-71.37-.95-146.53,1.58-159.47.63c-12.95-.95-52.24.52-66.76,1.16-14.53.63-59.11-.77-63.54-.46s-17.53.9-17.53,18.9-.23,51.47,1.41,69.45c.89,9.76,2.11,26.48,1.79,42.27-.32,15.79-3.16,69.79-3.79,80.84-.63,11.05-2.53,62.84-2.53,72.32s-1.26,20.84,0,30.63-1.26,21.16,12.95,24.32c14.21,3.16,28.74,4.74,40.74,4.42,12-.32,72.63-1.26,87.16-1.26s56.21,1.58,75.16.95c18.95-.63,72.95-.95,84.95-1.58,12-.63,40.74,1.58,52.74.32s40.11,0,53.05-2.21c12.95-2.21,44.21.95,63.16,1.26,18.95.32,54.45,3.81,63.32,4.42,9.16.63,37.26-1.26,37.26-1.26Z" fill="#2b3751" stroke="#000" stroke-linecap="round" stroke-miterlimit="10" stroke-width="1.66"/>
  <path d="M132.52,174.69s-5.89-.63-15.79,10.03c-9.9,10.65-13.66,52.38-13.66,52.38,0,0-3.63,28.7-10.15,33.58-6.52,4.89-14.41,9.52-18.42,10.15s-12.53,5.14-13.16,11.9c-.63,6.77-1.88,23.81,13.66,27.19,15.54,3.38,57.4,8.52,110.16,7.89,0,0,7.66,14.97,16.48,17.83,0,0,13.39,3.47,12.28-4.99,0,0,5.69,3.33,11.79,1.25s7.07-8.46-.97-15.12c0,0,13.46-1.53,15.95-11.24,0,0,19.14-1.39,18.87-20.95s-21.08-20.11-25.94-18.87c-4.86,1.25-17.62,5.55-17.62,5.55,0,0,2.77-19.84,6.24-31.07,3.47-11.24,15.12-47.44,3.33-62.28l-93.05-13.24Z" fill="#fff"/>
  <path d="M246.78,118.09s-10.59-2.42-16.27,24.1c-5.68,26.52,5.92,31.24,16.47,31.67,11.93.48,18.33-14.85,17.32-28.29-1.86-24.75-17.52-27.48-17.52-27.48Z" fill="#e293e2" stroke="#000" stroke-linecap="round" stroke-miterlimit="10" stroke-width="2.4"/>
  <path d="M166.7,79.83s-38.13,4.6-49.67,42.18c-11.54,37.58,13.21,75.64,67.14,76.63,54.66,1,76.19-35.03,69.72-66.13-6.54-31.41-32.79-61.43-87.19-52.68Z" fill="#fff" stroke="#000" stroke-linecap="round" stroke-miterlimit="10" stroke-width="1.58"/>
  <path d="M231.04,116.14c-11.54-2.2-17.14,11.1-17.14,11.1,0,0-.74,1.61-1.55,4.09-3.91-.59-8.3-.31-9.06,3.66-.74,3.83,2.41,5.97,6.96,7.01-.15,3.42.31,6.9,1.98,9.83,4.42,7.76,22.08,9.61,27.12-8.56,4.42-15.94,1.38-25.29-8.3-27.13Z" fill="#fff" stroke="#000" stroke-linecap="round" stroke-miterlimit="10" stroke-width="1.91"/>
  <path d="M190.45,143.74s-20.67,2.11-25.03,17.17c-4.36,15.07,1.75,31.78,28.03,30.61,26.29-1.17,27.85-19.71,26.12-29.66-1.73-9.94-12.1-21.21-29.12-18.12Z" fill="#e293e2" stroke="#000" stroke-linecap="round" stroke-miterlimit="10" stroke-width="2.4"/>
  <path d="M191.32,151.2s10.52-2.95,10.97,4c.45,6.95-9.38,6.86-9.38,6.86" fill="none" stroke="#000" stroke-linecap="round" stroke-miterlimit="10" stroke-width="1.58"/>
  <path d="M131.31,105.59s-10.92-9.9-30.65,17.41c-9.52,13.17-10.65,33.04,1.37,39.25,12.78,6.61,19.37-.43,28.61-19.15,13.65-27.65.68-37.51.68-37.51Z" fill="#e293e2" stroke="#000" stroke-linecap="round" stroke-miterlimit="10" stroke-width="2.4"/>
  <g>
    <path d="M181.65,136.11c.32-4.26-4.34-5.62-8.45-5.99.33-2.47,1-16.7-7.49-19.14-10.04-2.89-20.64,2.5-24.24,21.01-3.6,18.5,12.71,25.33,20.47,20.92,4.39-2.5,7.11-7.47,8.76-12.06,5.79.74,10.61-.2,10.95-4.73Z" fill="none" stroke="#000" stroke-linecap="round" stroke-miterlimit="10" stroke-width="1.91"/>
    <path d="M161.21,131.6s-3.6-3.3-7.84,4.34c-4.24,7.64-1.46,14.41,2.14,16.16,5.71,2.77,9.09-5.4,9.53-11.64.62-8.8-3.83-8.85-3.83-8.85Z" fill="#e293e2" stroke="#000" stroke-linecap="round" stroke-miterlimit="10" stroke-width="2.4"/>
  </g>
  <path d="M230.46,137.71c-1.07-.23-5,.23-7.16,8.52-2.9,11.14,5.23,11.63,7.4,8.24,2.05-3.21,7.04-15.2-.24-16.76Z" fill="#e293e2" stroke="#000" stroke-linecap="round" stroke-miterlimit="10" stroke-width="2.4"/>
  <path d="M200.99,173.3c-2.48,3.74-11.69,3.91-12.91-.13-.1-.33-.2-.62.15-.62l12.61.13c.33,0,.34.34.15.62Z"/>
  <path d="M171,294.55c-20.06-3.76-43.44-6.81-63.71-2.81" fill="none" stroke="#221a38" stroke-linecap="round" stroke-miterlimit="10" stroke-width="1.58"/>
  <path d="M225.3,326.6c7.87-1.72,14.07-5.34,15.78-12.65,3.79-16.29-11.89-16.11-23.52-13.73" fill="none" stroke="#221a38" stroke-linecap="round" stroke-miterlimit="10" stroke-width="1.58"/>
  <path d="M127.64,175.85c-4.64,2.56-14.8,9.49-18.6,22.79-4.99,17.47-6.74,53.91-11.23,62.9-4.49,8.99-5.23,13.75-26.3,20.4-13,4.1-20.62,32.01,7.83,39,26.74,6.57,84.42,6.92,104.83,6.74" fill="none" stroke="#000" stroke-linecap="round" stroke-miterlimit="10" stroke-width="1.58"/>
  <path d="M215.12,340.91c4.99,2.75,12.98,1,14.98-2.25,2-3.24-2-9.23-6.49-12.98-4.49-3.74-6.24-23.46-7.49-40.93s13.36-55.1,13.73-66.89c.75-23.96-1.31-23.26-3.49-28.2" fill="none" stroke="#000" stroke-linecap="round" stroke-miterlimit="10" stroke-width="1.58"/>
  <path d="M178.93,243.07s25.96,85.11,29.95,88.86,7.49,9.23,4.24,12.48c-3.24,3.24-7.74,1.75-11.48,1.25-3.74-.5-14.73-9.48-18.47-20.22-3.74-10.73-29.2-73.38-29.2-73.38" fill="none" stroke="#221a38" stroke-linecap="round" stroke-miterlimit="10" stroke-width="1.58"/>
  <path d="M198.65,238.57s-3.74,46.17-1,62.65" fill="none" stroke="#221a38" stroke-linecap="round" stroke-miterlimit="10" stroke-width="1.58"/>
  <path d="M216.1,280.92c3.28-.85,6.54-1.82,9.76-2.91,38.94-13.23,44.43,34.44,14.98,37.94" fill="none" stroke="#221a38" stroke-linecap="round" stroke-miterlimit="10" stroke-width="1.58"/>
  <path d="M192.27,285.22c1.52-.17,2.8-.32,4.34-.53" fill="none" stroke="#221a38" stroke-linecap="round" stroke-miterlimit="10" stroke-width="1.58"/>
  <path d="M119.03,289.49s.25-10.73,11.73-7.24c5.72,1.74,19.69,3.98,37.09,4.15" fill="none" stroke="#221a38" stroke-linecap="round" stroke-miterlimit="10" stroke-width="1.58"/>
  <g>
    <path d="M480.51,99.92c-4.26.14-10.58-.08-13.83,15.11-2.43,11.35-3.19,15.91-3.19,15.91,0,0-16.48,57.98-16.21,58.42s8.33,1.46,8.33,1.46l39.69-87.27s-7.94-3.84-14.78-3.61Z" fill="#f7bc00" stroke="#000" stroke-linecap="round" stroke-linejoin="round" stroke-width="1.89"/>
    <path d="M479.48,100.31l-4.69,14.76,6.55,2.12,6.25-15.99s-5.56-1.75-8.12-.9Z"/>
    <polygon points="473.26 119 482.24 121.06 453.22 190.74 449.4 190.53 473.26 119" fill="#ddd"/>
    <circle cx="477.59" cy="117.27" r="8.63" transform="translate(43.37 348.14) rotate(-41.79)"/>
    <polygon points="478.73 113.42 475.07 114.35 474.05 117.99 476.69 120.69 480.35 119.76 481.37 116.12 478.73 113.42" fill="#fff"/>
    <path d="M472.37,121.95s-23.05,68.02-22.81,67.82" fill="none" stroke="#221a38" stroke-linecap="round" stroke-miterlimit="10" stroke-width=".94"/>
    <path d="M480.8,123.68s-27.81,66.71-27.52,66.61" fill="none" stroke="#221a38" stroke-linecap="round" stroke-miterlimit="10" stroke-width=".94"/>
    <line x1="461.36" y1="154.91" x2="465.59" y2="159.66" fill="none" stroke="#221a38" stroke-linecap="round" stroke-miterlimit="10" stroke-width=".94"/>
    <line x1="457.16" y1="167.17" x2="460.75" y2="171.22" fill="none" stroke="#221a38" stroke-linecap="round" stroke-miterlimit="10" stroke-width=".94"/>
    <line x1="453.06" y1="179.53" x2="456.12" y2="183.04" fill="none" stroke="#221a38" stroke-linecap="round" stroke-miterlimit="10" stroke-width=".94"/>
    <line x1="466.86" y1="138.42" x2="471.86" y2="144.54" fill="none" stroke="#221a38" stroke-linecap="round" stroke-miterlimit="10" stroke-width=".94"/>
    <line x1="469.46" y1="130.47" x2="474.92" y2="137.08" fill="none" stroke="#221a38" stroke-linecap="round" stroke-miterlimit="10" stroke-width=".94"/>
    <path d="M476.76,147.61s-.02,0-.03,0c-3.21.14-5.46-.22-7.7-1.11-1.08-.42-1.09-.9-1.63-1.08-.46-.15-1.16.16-2.26,0-4.3-.63-5.88-3.38-6.02-3.53-.52-.53-.55-1.42-.07-1.98.47-.56,1.27-.59,1.79-.06.09.09,5.47,5.41,15.76,4.95.7-.03,1.3.57,1.33,1.35.04.76-.48,1.41-1.17,1.46Z" fill="#fff34a" stroke="#000" stroke-linecap="round" stroke-miterlimit="10" stroke-width="1.13"/>
    <path d="M478.71,145.03s-.02,0-.03,0c-12.71.25-19.05-5.85-19.31-6.11-.55-.54-.56-1.43-.01-1.99.54-.55,1.43-.56,1.98-.02.06.05,2.09,1.78,5.22,3.03.36.14,1.37,1.41,1.76,1.53s1.64-.21,2.17-.2c2.54.03,4.61,1.01,8.14.94.78-.02,1.42.6,1.43,1.38.02.76-.58,1.4-1.34,1.43Z" fill="#fff34a" stroke="#000" stroke-linecap="round" stroke-miterlimit="10" stroke-width="1.18"/>
    <g>
      <path d="M472.87,219.89c-.72,0-1.36-.49-1.56-1.18-6.91-24.63-2.41-43.63.58-56.2,1.71-7.22,2.95-12.43,1.29-15.08-.69-1.1-1.92-1.81-3.88-2.25-.87-.19-1.43-1.06-1.23-1.93.16-.74.83-1.27,1.58-1.27.12,0,.24.01.35.04,2.83.63,4.77,1.83,5.93,3.69,2.38,3.8,1.01,9.57-.88,17.55-2.91,12.25-7.3,30.76-.61,54.58.12.42.06.85-.15,1.23-.21.38-.56.65-.98.77-.14.04-.29.06-.44.06Z" fill="#fff34a"/>
      <path d="M472.87,219.89c-.72,0-1.36-.49-1.56-1.18-6.91-24.63-2.41-43.63.58-56.2,1.71-7.22,2.95-12.43,1.29-15.08-.69-1.1-1.92-1.81-3.88-2.25-.87-.19-1.43-1.06-1.23-1.93.16-.74.83-1.27,1.58-1.27.12,0,.24.01.35.04,2.83.63,4.77,1.83,5.93,3.69,2.38,3.8,1.01,9.57-.88,17.55-2.91,12.25-7.3,30.76-.61,54.58.12.42.06.85-.15,1.23-.21.38-.56.65-.98.77-.14.04-.29.06-.44.06Z" fill="none" stroke="#000" stroke-miterlimit="10" stroke-width=".77"/>
    </g>
    <g>
      <path d="M412.51,190.6c-.87,0-1.58-.68-1.62-1.55-.04-.89.66-1.65,1.55-1.69,12.8-.54,17.24-10.96,21.95-21.99,4.96-11.63,10.59-24.82,27.5-24.82,1.51,0,3.1.11,4.75.32.43.05.81.27,1.08.62s.38.77.33,1.2c-.1.81-.79,1.42-1.61,1.42-.07,0-.14,0-.21-.01-1.51-.19-2.97-.29-4.35-.29-14.76,0-19.49,11.1-24.5,22.85-4.89,11.47-9.95,23.34-24.79,23.96h-.07Z" fill="#fff34a"/>
      <path d="M412.51,190.6c-.87,0-1.58-.68-1.62-1.55-.04-.89.66-1.65,1.55-1.69,12.8-.54,17.24-10.96,21.95-21.99,4.96-11.63,10.59-24.82,27.5-24.82,1.51,0,3.1.11,4.75.32.43.05.81.27,1.08.62s.38.77.33,1.2c-.1.81-.79,1.42-1.61,1.42-.07,0-.14,0-.21-.01-1.51-.19-2.97-.29-4.35-.29-14.76,0-19.49,11.1-24.5,22.85-4.89,11.47-9.95,23.34-24.79,23.96h-.07Z" fill="none" stroke="#000" stroke-miterlimit="10" stroke-width=".77"/>
    </g>
    <g>
      <path d="M468.53,140.97s-1.2,2.09-1.19,5.01" fill="#fff34a" stroke="#000" stroke-linecap="round" stroke-miterlimit="10" stroke-width="1.18"/>
      <g>
        <path d="M467.34,147.13c-.63,0-1.15-.51-1.15-1.15-.02-3.19,1.28-5.49,1.34-5.59.21-.36.59-.58,1-.58.2,0,.4.05.57.15.55.32.74,1.02.43,1.58,0,.02-1.05,1.9-1.03,4.43,0,.62-.48,1.13-1.1,1.16h-.05Z" fill="#fff34a"/>
        <path d="M468.53,140.41c.09,0,.19.02.28.07.27.15.36.5.21.77-.01.02-1.13,2-1.11,4.72,0,.3-.24.55-.54.57,0,0-.01,0-.02,0h0c-.31,0-.56-.25-.56-.56-.02-3.04,1.21-5.2,1.26-5.29.1-.18.29-.28.49-.28M468.53,139.22c-.62,0-1.2.33-1.51.87-.15.26-1.44,2.61-1.42,5.89,0,.96.79,1.74,1.75,1.74h.1c.92-.04,1.65-.81,1.64-1.76-.01-2.36.95-4.12.96-4.14.47-.83.18-1.9-.65-2.37-.27-.15-.57-.23-.87-.23h0Z"/>
      </g>
    </g>
  </g>
  <path d="M518.6,155.35c-6.68,39.9-34.18,72.24-61.41,72.24s-43.89-32.34-37.21-72.24c6.68-39.9,34.18-72.24,61.41-72.24,27.23,0,43.89,32.34,37.21,72.24Z" fill="#fff34a" opacity=".2"/>
  <g>
    <rect x="28.65" y="32.17" width="558.21" height="37.37" rx="18.68" ry="18.68" fill="#fff"/>
    <path d="M300.11,69.03s-12.97,13.52-20.08,15.28l9.46-24.98,10.62,9.69Z" fill="#fff"/>
  </g>
  <g>
    <path d="M49.58,55.57c.46.02.84.15,1.14.41.3.26.49.55.58.89.09.34.06.67-.08.99-.14.33-.43.58-.88.76-.32.12-.69.2-1.13.24-.43.04-.87.05-1.3.04-.43,0-.84-.03-1.21-.05-.37-.03-.65-.04-.85-.04h-1.56c-.37,0-.69-.1-.95-.31-.27-.2-.46-.45-.57-.73-.12-.28-.14-.58-.08-.9.06-.32.23-.61.49-.88.25-.25.57-.39.98-.42.41-.04.81-.04,1.22,0v-10.5c-.41,0-.79,0-1.14-.01-.35,0-.71-.14-1.06-.38-.27-.19-.44-.42-.53-.68-.09-.26-.1-.51-.04-.77.06-.26.18-.5.36-.73.18-.23.4-.4.66-.5.25-.11.5-.16.77-.16.9,0,1.81,0,2.72-.01.91,0,1.83,0,2.74.01.09,0,.17.03.25.08.08.05.16.1.25.13.41.23.68.56.82.98s.09.84-.16,1.25c-.12.21-.28.38-.46.49s-.39.19-.61.24c-.22.04-.45.07-.68.07h-.66v10.55c.14,0,.27,0,.38-.01.11,0,.24-.02.38-.04h.19Z"/>
    <path d="M77.31,46.9c.27-.35.57-.6.92-.73s.67-.16.97-.08c.3.08.56.26.77.54.21.28.33.66.34,1.14.02.27-.09.74-.33,1.43-.24.69-.53,1.59-.86,2.71-.02.07-.05.16-.09.27-.04.11-.11.28-.19.53-.08.25-.19.59-.34,1.03-.15.44-.36,1.03-.62,1.78-.12.37-.28.81-.46,1.33-.19.51-.42.97-.7,1.37-.28.4-.62.67-1.01.82-.39.15-.86.04-1.41-.33-.18-.12-.37-.38-.58-.76-.21-.38-.42-.79-.61-1.23-.19-.44-.37-.86-.52-1.26-.15-.4-.25-.66-.3-.78-.12-.28-.27-.6-.42-.94s-.31-.69-.45-1.05l-.16.4c-.23.58-.46,1.17-.69,1.75s-.46,1.16-.69,1.72c-.12.3-.24.63-.34.98-.11.35-.26.66-.45.93-.16.23-.36.39-.6.49-.24.1-.48.14-.73.12-.25-.02-.48-.08-.7-.2-.22-.12-.41-.28-.57-.49-.25-.35-.44-.76-.58-1.22-.14-.46-.28-.88-.42-1.27-.19-.55-.37-1.11-.53-1.68-.16-.57-.33-1.13-.5-1.66-.09-.28-.2-.65-.34-1.11-.14-.46-.28-.93-.41-1.42-.13-.49-.24-.96-.32-1.42-.08-.46-.11-.84-.09-1.14.02-.3.12-.57.3-.81.19-.24.41-.42.68-.53.27-.11.54-.15.84-.12.29.04.55.17.78.4.34.35.54.73.61,1.13.07.4.15.83.24,1.29.14.71.31,1.41.49,2.09s.38,1.38.6,2.07c.07-.16.15-.35.24-.58.09-.23.23-.57.42-1.03.16-.39.31-.77.46-1.14.15-.37.3-.74.44-1.11.11-.27.21-.53.32-.78.11-.26.21-.51.32-.76.12-.27.3-.48.54-.65.24-.17.5-.27.78-.32.28-.04.56-.02.82.08.27.1.48.28.64.54.23.35.41.75.53,1.18.12.43.26.84.4,1.23.25.64.49,1.28.73,1.92.24.65.49,1.28.76,1.9.39-1.06.73-2.13,1.03-3.2.3-1.07.63-2.14.98-3.2l.11-.16Z"/>
    <path d="M93.04,57.19c.14.51.12.94-.08,1.27-.19.34-.46.56-.81.68s-.72.1-1.13-.04c-.41-.14-.76-.42-1.06-.85-.5.37-.98.63-1.45.78-.47.15-1,.23-1.6.25-.9.04-1.71-.07-2.41-.3-.71-.24-1.3-.6-1.79-1.07-.49-.48-.84-1.07-1.07-1.79-.23-.72-.31-1.54-.24-2.48.04-.39.1-.77.2-1.14.1-.37.21-.73.33-1.09.14-.39.34-.8.6-1.25.26-.44.52-.82.78-1.14.96-1.17,2.15-2.01,3.58-2.52.25-.09.58-.17,1.01-.24.42-.07.85-.1,1.29-.09.43,0,.85.07,1.25.17.4.11.69.29.89.56.16.21.27.4.34.56s.11.33.12.5c0,.18,0,.37,0,.57,0,.2-.01.46-.01.76,0,.5,0,.98-.01,1.45,0,.47,0,.94.01,1.42v.62c0,.26,0,.53.03.81.02.28.04.55.07.81.03.26.07.46.12.62l1.06,2.17ZM87.42,56c.19-.12.42-.26.66-.41.25-.15.47-.32.66-.52-.16-.94-.25-1.87-.28-2.81-.03-.94-.02-1.88.01-2.84-.8.14-1.51.49-2.15,1.03-.64.55-1.08,1.19-1.33,1.94-.11.3-.19.61-.27.93-.07.32-.1.63-.08.93.02.41.12.75.32,1.02.19.27.43.48.7.62.27.14.57.22.88.24.31.02.6-.03.86-.13Z"/>
    <path d="M105.48,57.67c-.05.44-.22.8-.49,1.09-.27.28-.58.46-.93.53-.34.07-.68.03-.99-.13-.32-.16-.55-.47-.69-.93-.16-.49-.22-1.01-.19-1.55.04-.54.05-1.04.05-1.5,0-.95,0-1.9.01-2.85,0-.95-.03-1.9-.12-2.85-.02-.04-.04-.07-.05-.09s-.05-.07-.11-.12c-.41-.11-.84-.08-1.3.08-.46.16-.85.36-1.17.61-.28.23-.56.54-.84.94-.27.4-.41.78-.41,1.15v3.66c0,.28,0,.59.03.93.02.34,0,.66-.04.98-.04.32-.15.61-.3.88s-.42.46-.77.58c-.19.07-.38.1-.54.08-.17-.02-.35-.06-.54-.13-.32-.11-.55-.29-.69-.54-.14-.26-.24-.53-.29-.82-.05-.29-.08-.57-.07-.85,0-.27.01-.49.01-.65,0-.41,0-.99-.01-1.76s-.01-1.58-.01-2.43v-4.19c0-.39.11-.71.35-.97.23-.26.5-.42.81-.5.31-.08.64-.06.98.05.34.12.63.35.86.7.71-.46,1.49-.77,2.33-.93.85-.16,1.65-.13,2.4.08s1.38.61,1.88,1.19c.5.58.76,1.39.78,2.41,0,.04,0,.14.03.32.02.18.03.42.03.74v6.79Z"/>
    <path d="M108.77,49.53c-.35-.09-.66-.24-.92-.45-.26-.21-.43-.46-.53-.74-.1-.28-.1-.57,0-.88.1-.3.31-.57.65-.82.28-.21.6-.32.95-.32h1.03c0-.12,0-.39-.03-.81-.02-.42-.02-.87-.01-1.37,0-.49.04-.97.09-1.42.05-.45.15-.76.29-.94.35-.49.79-.73,1.31-.7s.95.28,1.29.76c.07.09.14.19.2.32.06.12.09.24.09.34.02.64.02,1.27.01,1.91,0,.64-.01,1.27-.01,1.91h2.09c.32,0,.59.11.82.32.23.21.39.46.49.74.1.28.12.57.08.88-.04.3-.18.55-.41.74-.41.34-.88.51-1.42.53-.54.02-1.09.03-1.66.03,0,.97,0,1.95-.01,2.92,0,.97,0,1.94.01,2.92,0,.42.02.86.07,1.3.04.44.01.87-.09,1.27-.09.32-.24.57-.45.76-.21.19-.45.3-.72.34-.27.04-.54.03-.82-.05s-.55-.23-.8-.44c-.12-.12-.22-.34-.28-.64-.06-.3-.1-.62-.12-.95-.02-.39-.02-.8,0-1.25v-1.38c0-.57,0-1.15-.01-1.76,0-.61-.01-1.19-.01-1.74v-1.3l-1.19-.03Z"/>
    <path d="M130.22,49.53c-.35-.09-.66-.24-.92-.45-.26-.21-.43-.46-.53-.74-.1-.28-.1-.57,0-.88.1-.3.31-.57.65-.82.28-.21.6-.32.96-.32h1.03c0-.12,0-.39-.03-.81-.02-.42-.02-.87-.01-1.37,0-.49.04-.97.09-1.42.05-.45.15-.76.29-.94.35-.49.79-.73,1.31-.7s.95.28,1.29.76c.07.09.14.19.2.32.06.12.09.24.09.34.02.64.02,1.27.01,1.91,0,.64-.01,1.27-.01,1.91h2.09c.32,0,.59.11.82.32.23.21.39.46.49.74.1.28.12.57.08.88-.04.3-.18.55-.41.74-.41.34-.88.51-1.42.53-.54.02-1.09.03-1.66.03,0,.97,0,1.95-.01,2.92,0,.97,0,1.94.01,2.92,0,.42.02.86.07,1.3.04.44.01.87-.09,1.27-.09.32-.24.57-.45.76-.21.19-.45.3-.72.34-.27.04-.54.03-.82-.05s-.55-.23-.8-.44c-.12-.12-.22-.34-.28-.64-.06-.3-.1-.62-.12-.95-.02-.39-.02-.8,0-1.25v-1.38c0-.57,0-1.15-.01-1.76,0-.61-.01-1.19-.01-1.74v-1.3l-1.19-.03Z"/>
    <path d="M138.23,52.02c.12-.51.3-1.02.52-1.51.22-.49.49-.97.81-1.42.32-.45.68-.86,1.07-1.23.4-.37.83-.67,1.29-.9.81-.42,1.63-.64,2.45-.65.82,0,1.59.16,2.29.49.71.34,1.31.84,1.8,1.5.5.66.82,1.45.98,2.37.09.6.14,1.17.15,1.71,0,.54-.05,1.1-.17,1.68-.18.83-.54,1.66-1.07,2.48-.54.82-1.18,1.51-1.94,2.07s-1.57.92-2.47,1.1c-.89.18-1.79.04-2.69-.42-.41-.19-.77-.42-1.1-.68s-.62-.56-.89-.92c-.3-.39-.53-.8-.7-1.22-.17-.42-.31-.87-.41-1.33-.12-.49-.17-.99-.13-1.5.04-.5.1-.99.19-1.47l.03-.16ZM141.41,52.58c-.05.28-.1.56-.13.84-.04.27-.04.55,0,.84.05.41.16.78.33,1.11.17.34.39.6.66.8.27.19.59.3.94.3.35,0,.73-.1,1.14-.33.51-.3.96-.76,1.33-1.39.37-.63.6-1.28.69-1.96.09-.68.02-1.33-.21-1.94-.23-.61-.68-1.05-1.35-1.31-.44,0-.85.08-1.22.25-.37.17-.69.39-.97.66s-.51.6-.72.97c-.2.37-.37.76-.49,1.17Z"/>
    <path d="M163.69,58.77c-.35.26-.72.38-1.1.36-.38-.02-.72-.17-1.01-.46-.29-.29-.44-.69-.44-1.21v-15.12c0-.27.08-.51.23-.73.15-.22.34-.4.57-.54.23-.14.48-.23.76-.28.27-.04.53-.04.76.03.23.06.43.19.6.4.17.2.26.48.28.84.05,1.38.08,2.62.08,3.71s0,2.2-.03,3.31c.41-.3.79-.61,1.15-.94.36-.33.72-.67,1.07-1.02.32-.34.63-.71.93-1.13.3-.42.68-.7,1.14-.86.34-.11.65-.12.94-.05.29.07.54.21.74.41.2.2.34.45.41.74.07.29.05.61-.05.94-.09.25-.29.56-.6.93-.31.37-.65.75-1.03,1.14-.38.39-.76.75-1.13,1.07-.37.33-.67.58-.9.76.62.67,1.23,1.35,1.83,2.04.6.69,1.21,1.38,1.83,2.07.27.3.52.57.76.81.24.24.45.53.62.86.14.28.19.57.13.88-.05.3-.17.56-.36.78-.19.22-.42.38-.69.49-.27.11-.57.11-.89.03-.3-.09-.59-.25-.88-.49-.28-.24-.55-.5-.81-.78-.26-.28-.5-.57-.73-.88-.23-.3-.44-.56-.64-.77-.48-.55-.95-1.09-1.42-1.63-.47-.54-.95-1.06-1.45-1.58v4.61c-.11.58-.34,1-.69,1.26Z"/>
    <path d="M184.64,57.67c-.05.44-.22.8-.49,1.09-.27.28-.58.46-.93.53-.34.07-.68.03-.99-.13s-.55-.47-.69-.93c-.16-.49-.22-1.01-.19-1.55.04-.54.05-1.04.05-1.5,0-.95,0-1.9.01-2.85,0-.95-.03-1.9-.12-2.85-.02-.04-.04-.07-.05-.09s-.05-.07-.11-.12c-.41-.11-.84-.08-1.3.08-.46.16-.85.36-1.17.61-.28.23-.56.54-.84.94-.27.4-.41.78-.41,1.15v3.66c0,.28,0,.59.03.93.02.34,0,.66-.04.98-.04.32-.15.61-.31.88-.16.27-.42.46-.77.58-.19.07-.38.1-.54.08-.17-.02-.35-.06-.54-.13-.32-.11-.55-.29-.69-.54-.14-.26-.24-.53-.29-.82-.05-.29-.08-.57-.07-.85,0-.27.01-.49.01-.65,0-.41,0-.99-.01-1.76s-.01-1.58-.01-2.43v-4.19c0-.39.11-.71.34-.97.23-.26.5-.42.81-.5.31-.08.64-.06.98.05.34.12.63.35.86.7.71-.46,1.49-.77,2.33-.93.85-.16,1.65-.13,2.4.08s1.38.61,1.88,1.19c.5.58.76,1.39.78,2.41,0,.04,0,.14.03.32.02.18.03.42.03.74v6.79Z"/>
    <path d="M186.94,52.02c.12-.51.3-1.02.52-1.51.22-.49.49-.97.81-1.42.32-.45.68-.86,1.07-1.23.4-.37.83-.67,1.29-.9.81-.42,1.63-.64,2.45-.65.82,0,1.59.16,2.29.49.71.34,1.31.84,1.8,1.5.5.66.82,1.45.98,2.37.09.6.14,1.17.15,1.71,0,.54-.05,1.1-.17,1.68-.18.83-.54,1.66-1.07,2.48-.54.82-1.18,1.51-1.94,2.07s-1.57.92-2.47,1.1c-.89.18-1.79.04-2.69-.42-.41-.19-.77-.42-1.1-.68s-.62-.56-.89-.92c-.3-.39-.53-.8-.7-1.22-.17-.42-.31-.87-.41-1.33-.12-.49-.17-.99-.13-1.5.04-.5.1-.99.19-1.47l.03-.16ZM190.13,52.58c-.05.28-.1.56-.13.84-.04.27-.04.55,0,.84.05.41.16.78.33,1.11.17.34.39.6.66.8.27.19.59.3.94.3.35,0,.73-.1,1.14-.33.51-.3.96-.76,1.33-1.39.37-.63.6-1.28.69-1.96.09-.68.02-1.33-.21-1.94-.23-.61-.68-1.05-1.35-1.31-.44,0-.85.08-1.22.25-.37.17-.69.39-.97.66s-.51.6-.72.97c-.2.37-.37.76-.49,1.17Z"/>
    <path d="M213.83,46.9c.27-.35.57-.6.92-.73s.67-.16.97-.08c.3.08.56.26.77.54.21.28.33.66.34,1.14.02.27-.09.74-.33,1.43s-.53,1.59-.86,2.71c-.02.07-.05.16-.09.27-.04.11-.11.28-.19.53-.08.25-.19.59-.34,1.03-.15.44-.36,1.03-.62,1.78-.12.37-.28.81-.46,1.33-.19.51-.42.97-.7,1.37-.28.4-.62.67-1.01.82-.39.15-.86.04-1.41-.33-.18-.12-.37-.38-.58-.76-.21-.38-.42-.79-.61-1.23-.19-.44-.37-.86-.52-1.26-.15-.4-.25-.66-.31-.78-.12-.28-.27-.6-.42-.94-.16-.34-.31-.69-.45-1.05l-.16.4c-.23.58-.46,1.17-.69,1.75-.23.58-.46,1.16-.69,1.72-.12.3-.24.63-.34.98-.11.35-.26.66-.45.93-.16.23-.36.39-.6.49-.24.1-.48.14-.73.12-.25-.02-.48-.08-.7-.2-.22-.12-.41-.28-.57-.49-.25-.35-.44-.76-.58-1.22-.14-.46-.28-.88-.42-1.27-.19-.55-.37-1.11-.53-1.68-.16-.57-.33-1.13-.5-1.66-.09-.28-.2-.65-.34-1.11-.14-.46-.28-.93-.41-1.42-.13-.49-.24-.96-.32-1.42-.08-.46-.11-.84-.09-1.14.02-.3.12-.57.31-.81.19-.24.41-.42.68-.53.27-.11.54-.15.84-.12.29.04.55.17.78.4.34.35.54.73.61,1.13.07.4.15.83.24,1.29.14.71.31,1.41.49,2.09s.38,1.38.6,2.07c.07-.16.15-.35.24-.58.09-.23.23-.57.42-1.03.16-.39.31-.77.46-1.14.15-.37.3-.74.44-1.11.11-.27.21-.53.32-.78.11-.26.21-.51.32-.76.12-.27.3-.48.54-.65.24-.17.5-.27.78-.32.28-.04.56-.02.82.08.27.1.48.28.64.54.23.35.41.75.53,1.18.12.43.26.84.4,1.23.25.64.49,1.28.73,1.92.24.65.49,1.28.76,1.9.39-1.06.73-2.13,1.03-3.2.3-1.07.63-2.14.98-3.2l.11-.16Z"/>
    <path d="M241.6,46.9c.27-.35.57-.6.92-.73s.67-.16.97-.08c.3.08.56.26.77.54.21.28.33.66.34,1.14.02.27-.09.74-.33,1.43-.24.69-.53,1.59-.86,2.71-.02.07-.05.16-.09.27-.04.11-.11.28-.19.53-.08.25-.19.59-.34,1.03-.15.44-.36,1.03-.62,1.78-.12.37-.28.81-.46,1.33-.19.51-.42.97-.7,1.37-.28.4-.62.67-1.01.82-.39.15-.86.04-1.41-.33-.18-.12-.37-.38-.58-.76-.21-.38-.42-.79-.61-1.23-.19-.44-.37-.86-.52-1.26-.15-.4-.25-.66-.3-.78-.12-.28-.27-.6-.42-.94s-.31-.69-.45-1.05l-.16.4c-.23.58-.46,1.17-.69,1.75-.23.58-.46,1.16-.69,1.72-.12.3-.24.63-.34.98-.11.35-.26.66-.45.93-.16.23-.36.39-.6.49-.24.1-.48.14-.73.12-.25-.02-.48-.08-.7-.2-.22-.12-.41-.28-.57-.49-.25-.35-.44-.76-.58-1.22-.14-.46-.28-.88-.42-1.27-.19-.55-.37-1.11-.53-1.68-.16-.57-.33-1.13-.5-1.66-.09-.28-.2-.65-.34-1.11-.14-.46-.28-.93-.41-1.42-.13-.49-.24-.96-.32-1.42-.08-.46-.11-.84-.09-1.14.02-.3.12-.57.3-.81.19-.24.41-.42.68-.53.27-.11.54-.15.83-.12.29.04.55.17.78.4.34.35.54.73.61,1.13.07.4.15.83.24,1.29.14.71.31,1.41.49,2.09.19.69.38,1.38.6,2.07.07-.16.15-.35.24-.58.09-.23.23-.57.42-1.03.16-.39.31-.77.46-1.14.15-.37.3-.74.44-1.11.11-.27.21-.53.32-.78.11-.26.21-.51.32-.76.12-.27.31-.48.54-.65.24-.17.5-.27.78-.32.28-.04.56-.02.82.08.27.1.48.28.64.54.23.35.41.75.53,1.18.12.43.26.84.4,1.23.25.64.49,1.28.73,1.92.24.65.49,1.28.76,1.9.39-1.06.73-2.13,1.03-3.2.3-1.07.63-2.14.98-3.2l.11-.16Z"/>
    <path d="M249.13,58.9c-.35.26-.72.38-1.1.36-.38-.02-.72-.17-1.01-.46-.29-.29-.44-.69-.44-1.21v-14.74c0-.41.16-.75.48-1.03.32-.28.67-.46,1.06-.53.39-.07.75,0,1.09.19.34.19.52.56.56,1.09.07.92.1,1.82.09,2.69,0,.88-.02,1.75-.04,2.64.65-.44,1.33-.74,2.04-.89.71-.15,1.39-.15,2.04.01.65.16,1.26.48,1.83.95.57.48,1.03,1.14,1.38,1.99.25.57.42,1.17.5,1.82.09.65.14,1.3.15,1.96,0,.66,0,1.32-.03,1.98-.03.65-.04,1.27-.04,1.86,0,.37-.1.71-.29,1.01-.19.3-.44.52-.73.66-.29.14-.6.19-.93.13-.33-.05-.62-.25-.89-.58-.27-.35-.43-.77-.49-1.25-.06-.48-.08-.99-.05-1.52.03-.54.07-1.09.12-1.66.05-.57.07-1.11.04-1.63-.03-.52-.13-1-.31-1.45-.18-.44-.49-.8-.93-1.09-.35-.05-.67-.03-.95.07-.28.1-.54.24-.77.44-.23.19-.45.42-.65.66-.2.25-.41.5-.62.74-.05.09-.12.17-.19.25-.07.08-.15.16-.24.25v5.04c-.11.58-.34,1-.69,1.26Z"/>
    <path d="M271.46,57.19c.14.51.11.94-.08,1.27-.19.34-.46.56-.81.68-.35.11-.72.1-1.13-.04-.41-.14-.76-.42-1.06-.85-.5.37-.98.63-1.45.78-.47.15-1,.23-1.6.25-.9.04-1.71-.07-2.41-.3-.71-.24-1.3-.6-1.79-1.07-.49-.48-.84-1.07-1.07-1.79-.23-.72-.31-1.54-.24-2.48.04-.39.1-.77.2-1.14.1-.37.21-.73.33-1.09.14-.39.34-.8.6-1.25.26-.44.52-.82.78-1.14.96-1.17,2.15-2.01,3.58-2.52.25-.09.58-.17,1.01-.24.42-.07.85-.1,1.29-.09.43,0,.85.07,1.25.17.4.11.69.29.89.56.16.21.27.4.34.56.07.16.11.33.12.5,0,.18,0,.37,0,.57,0,.2-.01.46-.01.76,0,.5,0,.98-.01,1.45,0,.47,0,.94.01,1.42v.62c0,.26,0,.53.03.81.02.28.04.55.07.81.03.26.07.46.12.62l1.06,2.17ZM265.84,56c.19-.12.42-.26.66-.41.25-.15.47-.32.66-.52-.16-.94-.25-1.87-.28-2.81-.03-.94-.02-1.88.01-2.84-.8.14-1.51.49-2.15,1.03-.64.55-1.08,1.19-1.33,1.94-.11.3-.19.61-.27.93-.07.32-.1.63-.08.93.02.41.12.75.32,1.02.19.27.43.48.7.62.27.14.57.22.88.24.31.02.6-.03.86-.13Z"/>
    <path d="M273.66,49.53c-.35-.09-.66-.24-.92-.45-.26-.21-.43-.46-.53-.74-.1-.28-.1-.57,0-.88.1-.3.31-.57.65-.82.28-.21.6-.32.95-.32h1.03c0-.12,0-.39-.03-.81-.02-.42-.02-.87-.01-1.37,0-.49.04-.97.09-1.42.05-.45.15-.76.29-.94.35-.49.79-.73,1.31-.7s.95.28,1.29.76c.07.09.14.19.2.32.06.12.09.24.09.34.02.64.02,1.27.01,1.91,0,.64-.01,1.27-.01,1.91h2.09c.32,0,.59.11.82.32.23.21.39.46.49.74.1.28.12.57.08.88-.04.3-.18.55-.41.74-.41.34-.88.51-1.42.53-.54.02-1.09.03-1.66.03,0,.97,0,1.95-.01,2.92,0,.97,0,1.94.01,2.92,0,.42.02.86.07,1.3.04.44.01.87-.09,1.27-.09.32-.24.57-.45.76-.21.19-.45.3-.72.34-.27.04-.54.03-.82-.05s-.55-.23-.8-.44c-.12-.12-.22-.34-.28-.64-.06-.3-.1-.62-.12-.95-.02-.39-.02-.8,0-1.25v-1.38c0-.57,0-1.15-.01-1.76,0-.61-.01-1.19-.01-1.74v-1.3l-1.19-.03Z"/>
    <path d="M300.31,55.04c.44-.28.86-.41,1.26-.37.4.04.72.17.98.41s.4.56.42.95c.03.4-.11.82-.41,1.26-.2.3-.47.57-.84.82-.36.25-.71.44-1.05.58-.78.35-1.56.51-2.36.48-.8-.04-1.53-.23-2.21-.58-.68-.35-1.27-.84-1.76-1.47-.5-.63-.83-1.36-1.01-2.19-.35-1.59-.28-3.12.21-4.59.19-.53.43-1.04.7-1.54.27-.49.6-.95.99-1.35.39-.41.82-.76,1.3-1.07.48-.31,1-.52,1.56-.62.39-.07.88-.07,1.48.01s1.19.23,1.76.46c.57.23,1.08.53,1.51.9.43.37.68.81.73,1.33.04.28,0,.54-.11.78-.11.24-.26.44-.45.6-.19.16-.42.27-.68.33-.26.06-.52.06-.78-.01-.32-.09-.57-.21-.76-.36-.19-.15-.43-.35-.73-.6-.14-.04-.27-.09-.4-.17-.12-.08-.26-.11-.4-.09l-.72.08c-.12.07-.24.13-.34.19s-.21.11-.32.16c-.6.6-1.04,1.27-1.33,2-.28.73-.35,1.52-.21,2.37.09.55.26,1,.52,1.35.26.35.56.6.9.73.34.13.73.15,1.14.04.42-.11.83-.34,1.23-.72l.13-.11Z"/>
    <path d="M304.29,52.02c.12-.51.3-1.02.52-1.51.22-.49.49-.97.81-1.42.32-.45.68-.86,1.07-1.23s.83-.67,1.29-.9c.81-.42,1.63-.64,2.45-.65.82,0,1.59.16,2.29.49.71.34,1.31.84,1.8,1.5.49.66.82,1.45.98,2.37.09.6.14,1.17.15,1.71,0,.54-.05,1.1-.17,1.68-.18.83-.53,1.66-1.07,2.48-.54.82-1.18,1.51-1.94,2.07s-1.57.92-2.47,1.1c-.89.18-1.79.04-2.69-.42-.41-.19-.77-.42-1.1-.68s-.62-.56-.89-.92c-.3-.39-.54-.8-.7-1.22s-.3-.87-.41-1.33c-.12-.49-.17-.99-.13-1.5.04-.5.1-.99.19-1.47l.03-.16ZM307.47,52.58c-.05.28-.1.56-.13.84-.04.27-.04.55,0,.84.05.41.16.78.33,1.11.17.34.39.6.66.8.27.19.59.3.94.3.35,0,.73-.1,1.14-.33.51-.3.95-.76,1.33-1.39.37-.63.6-1.28.69-1.96.09-.68.02-1.33-.21-1.94-.23-.61-.68-1.05-1.35-1.31-.44,0-.85.08-1.22.25-.37.17-.69.39-.97.66s-.51.6-.72.97c-.2.37-.37.76-.49,1.17Z"/>
    <path d="M324.15,50.77v-.37c-.16-.41-.42-.69-.77-.86-.35-.17-.73-.27-1.14-.3-.23.07-.42.15-.56.24-.14.09-.27.19-.37.29-.11.11-.2.23-.29.36-.09.13-.2.27-.32.41v6.95c0,.55-.16.98-.49,1.29-.33.31-.69.49-1.09.53-.4.04-.76-.05-1.1-.29-.34-.24-.51-.64-.53-1.21-.04-1.36-.05-2.91-.04-4.64,0-1.73.01-3.67.01-5.81,0-.37.11-.68.33-.93.22-.25.49-.42.8-.5.31-.09.63-.08.95.01.33.1.6.3.81.6.99-.49,1.98-.65,2.96-.46.98.19,1.87.65,2.67,1.39.35-.35.73-.67,1.14-.95.41-.28.85-.47,1.33-.56.55-.09,1.1-.07,1.66.07.56.13,1.07.35,1.55.65.48.3.9.67,1.26,1.11.36.44.63.92.81,1.43.09.35.13.67.13.95v7.21c0,.21-.03.42-.08.61-.16.46-.41.78-.76.97s-.7.25-1.06.2c-.36-.05-.68-.22-.94-.5-.27-.28-.4-.66-.4-1.14v-7.13c-.16-.42-.39-.73-.69-.93-.3-.19-.61-.28-.93-.27-.32.02-.62.13-.91.34-.29.21-.53.5-.7.88v6.95c0,.48-.15.88-.46,1.19-.31.32-.65.52-1.02.61-.37.09-.72.05-1.05-.11-.33-.16-.52-.48-.57-.95l-.13-7.32Z"/>
    <path d="M336.14,47.46c.12-.42.32-.75.6-.97.27-.22.57-.35.88-.38.31-.04.61.02.89.16.28.14.5.36.66.66.19-.11.39-.2.58-.29.19-.09.42-.17.66-.24,1.13-.3,2.13-.28,3.01.07.88.34,1.6.88,2.19,1.59s1,1.56,1.25,2.52c.25.96.3,1.93.17,2.89-.13.96-.47,1.87-1.02,2.71-.55.84-1.34,1.49-2.36,1.95-.67.3-1.38.49-2.11.57-.73.08-1.46.09-2.19.04,0,.02,0,.16.01.42,0,.27.01.6.01,1.01v1.33c0,.48-.01.94-.04,1.38-.03.44-.06.84-.11,1.18-.04.34-.11.58-.2.7-.23.34-.51.55-.85.64-.34.09-.65.07-.95-.04-.3-.12-.56-.31-.78-.58-.22-.27-.33-.61-.33-.99v-16.15l.03-.16ZM339.53,50.91c-.05.09-.08.13-.08.12s-.04.02-.11.09v4.38c.35.05.71.08,1.06.08s.72-.05,1.11-.16c.8-.19,1.42-.58,1.88-1.15.46-.57.64-1.29.53-2.13-.05-.35-.15-.72-.3-1.1-.15-.38-.35-.7-.6-.97-.25-.27-.54-.45-.88-.56-.34-.11-.72-.07-1.14.11-.3.12-.57.31-.81.56-.24.25-.46.5-.68.74Z"/>
    <path d="M360.67,57.19c.14.51.12.94-.08,1.27-.2.34-.46.56-.81.68s-.72.1-1.13-.04c-.41-.14-.76-.42-1.06-.85-.5.37-.98.63-1.45.78-.47.15-1,.23-1.6.25-.9.04-1.71-.07-2.41-.3-.71-.24-1.3-.6-1.79-1.07-.49-.48-.84-1.07-1.07-1.79-.23-.72-.31-1.54-.24-2.48.04-.39.1-.77.2-1.14.1-.37.21-.73.33-1.09.14-.39.34-.8.6-1.25.26-.44.52-.82.78-1.14.95-1.17,2.15-2.01,3.58-2.52.25-.09.58-.17,1.01-.24.42-.07.85-.1,1.29-.09.43,0,.85.07,1.25.17.4.11.69.29.89.56.16.21.27.4.34.56.07.16.11.33.12.5,0,.18,0,.37,0,.57,0,.2-.01.46-.01.76,0,.5,0,.98-.01,1.45,0,.47,0,.94.01,1.42v.62c0,.26,0,.53.03.81.02.28.04.55.07.81.03.26.07.46.12.62l1.06,2.17ZM355.05,56c.19-.12.42-.26.66-.41.25-.15.47-.32.66-.52-.16-.94-.25-1.87-.28-2.81-.03-.94-.02-1.88.01-2.84-.8.14-1.51.49-2.15,1.03-.64.55-1.08,1.19-1.33,1.94-.11.3-.19.61-.27.93-.07.32-.1.63-.08.93.02.41.12.75.32,1.02.19.27.43.48.7.62.27.14.57.22.88.24.31.02.6-.03.86-.13Z"/>
    <path d="M373.11,57.67c-.05.44-.22.8-.49,1.09-.27.28-.58.46-.93.53-.34.07-.68.03-.99-.13s-.55-.47-.69-.93c-.16-.49-.22-1.01-.19-1.55.04-.54.05-1.04.05-1.5,0-.95,0-1.9.01-2.85,0-.95-.03-1.9-.12-2.85-.02-.04-.04-.07-.05-.09s-.05-.07-.11-.12c-.41-.11-.84-.08-1.3.08-.46.16-.85.36-1.17.61-.28.23-.56.54-.84.94-.27.4-.41.78-.41,1.15v3.66c0,.28,0,.59.03.93.02.34,0,.66-.04.98-.04.32-.15.61-.31.88-.16.27-.42.46-.77.58-.19.07-.38.1-.54.08-.17-.02-.35-.06-.54-.13-.32-.11-.55-.29-.69-.54-.14-.26-.24-.53-.29-.82-.05-.29-.08-.57-.07-.85,0-.27.01-.49.01-.65,0-.41,0-.99-.01-1.76s-.01-1.58-.01-2.43v-4.19c0-.39.11-.71.34-.97.23-.26.5-.42.81-.5.31-.08.64-.06.98.05.34.12.63.35.86.7.71-.46,1.49-.77,2.33-.93.85-.16,1.65-.13,2.4.08s1.38.61,1.88,1.19c.5.58.76,1.39.78,2.41,0,.04,0,.14.03.32.02.18.03.42.03.74v6.79Z"/>
    <path d="M375.81,42.53c.07-.65.3-1.14.68-1.45.38-.31.78-.46,1.21-.45.42,0,.82.17,1.18.49.36.32.55.77.57,1.35.04.6-.12,1.07-.46,1.39-.34.33-.74.51-1.18.56-.44.04-.86-.08-1.25-.36-.39-.28-.63-.73-.72-1.35l-.03-.19ZM379.31,57.62c-.04.35-.16.67-.37.94-.21.27-.46.47-.73.6-.27.12-.57.15-.89.08-.32-.07-.6-.27-.85-.58-.14-.18-.24-.38-.31-.6-.06-.22-.1-.45-.12-.69-.02-.24-.02-.48-.01-.72,0-.24.01-.46.01-.65-.02-1.04-.02-2.08-.01-3.1,0-1.03,0-2.06-.01-3.1,0-.42-.03-.85-.08-1.29-.05-.43-.03-.86.08-1.29.09-.32.24-.59.46-.82.22-.23.47-.39.74-.48.27-.09.56-.1.85-.03.29.07.54.26.76.56.28.35.42.7.42,1.05v3.06c0,.6,0,1.19.03,1.78.02.85.03,1.7.03,2.55v2.73Z"/>
    <path d="M381.8,52.02c.12-.51.3-1.02.52-1.51.22-.49.49-.97.81-1.42.32-.45.68-.86,1.07-1.23.4-.37.83-.67,1.29-.9.81-.42,1.63-.64,2.45-.65.82,0,1.59.16,2.29.49.71.34,1.31.84,1.8,1.5.49.66.82,1.45.98,2.37.09.6.14,1.17.15,1.71,0,.54-.05,1.1-.17,1.68-.18.83-.54,1.66-1.07,2.48-.54.82-1.18,1.51-1.94,2.07s-1.57.92-2.47,1.1c-.89.18-1.79.04-2.69-.42-.41-.19-.77-.42-1.1-.68-.33-.26-.62-.56-.89-.92-.3-.39-.54-.8-.7-1.22s-.3-.87-.41-1.33c-.12-.49-.17-.99-.13-1.5.04-.5.1-.99.19-1.47l.03-.16ZM384.99,52.58c-.05.28-.1.56-.13.84-.04.27-.04.55,0,.84.05.41.16.78.33,1.11.17.34.39.6.66.8.27.19.59.3.94.3.35,0,.73-.1,1.14-.33.51-.3.95-.76,1.33-1.39.37-.63.6-1.28.69-1.96.09-.68.02-1.33-.21-1.94-.23-.61-.68-1.05-1.35-1.31-.44,0-.85.08-1.22.25-.37.17-.69.39-.97.66s-.51.6-.72.97c-.2.37-.37.76-.49,1.17Z"/>
    <path d="M405.67,57.67c-.05.44-.22.8-.49,1.09-.27.28-.58.46-.93.53-.34.07-.68.03-.99-.13-.32-.16-.55-.47-.69-.93-.16-.49-.22-1.01-.19-1.55.04-.54.05-1.04.05-1.5,0-.95,0-1.9.01-2.85,0-.95-.03-1.9-.12-2.85-.02-.04-.04-.07-.05-.09-.02-.03-.05-.07-.11-.12-.41-.11-.84-.08-1.3.08s-.85.36-1.17.61c-.28.23-.56.54-.84.94-.27.4-.41.78-.41,1.15v3.66c0,.28,0,.59.03.93.02.34,0,.66-.04.98-.04.32-.15.61-.31.88s-.42.46-.77.58c-.19.07-.38.1-.54.08-.17-.02-.35-.06-.54-.13-.32-.11-.55-.29-.69-.54s-.24-.53-.29-.82c-.05-.29-.08-.57-.07-.85,0-.27.01-.49.01-.65,0-.41,0-.99-.01-1.76,0-.77-.01-1.58-.01-2.43v-4.19c0-.39.11-.71.34-.97.23-.26.5-.42.81-.5.31-.08.64-.06.98.05.34.12.63.35.86.7.71-.46,1.49-.77,2.33-.93.85-.16,1.65-.13,2.4.08.75.21,1.38.61,1.88,1.19.5.58.76,1.39.78,2.41,0,.04,0,.14.03.32.02.18.03.42.03.74v6.79Z"/>
    <path d="M407.24,56.58c-.11-.3-.15-.6-.13-.89.02-.29.09-.56.23-.8.13-.24.32-.42.57-.56.25-.13.55-.18.9-.15.19.02.37.07.53.16.16.09.3.19.44.32.13.12.27.26.4.4.13.14.27.27.41.37.3.23.62.4.96.5.34.11.69.19,1.06.24.25,0,.45-.06.6-.19.15-.12.25-.27.3-.45.05-.18.07-.37.04-.57-.03-.2-.09-.37-.2-.49-.3-.3-.67-.49-1.1-.58-.43-.09-.84-.19-1.21-.32-.53-.18-1.05-.4-1.56-.68-.51-.27-.93-.65-1.25-1.13-.34-.49-.53-1.02-.6-1.58s-.02-1.1.13-1.63c.15-.53.4-1.02.76-1.46.35-.44.78-.8,1.27-1.09.37-.21.78-.35,1.22-.41.44-.06.89-.08,1.34-.04.45.04.9.12,1.34.25.44.13.85.28,1.22.44.42.19.74.47.95.82.21.35.31.71.31,1.07,0,.36-.13.68-.37.94-.24.27-.59.4-1.05.4-.28,0-.54-.05-.77-.15-.23-.1-.47-.19-.72-.28-.32-.12-.66-.21-1.03-.25-.37-.04-.67-.02-.9.07-.07.02-.15.08-.24.17-.09.1-.15.22-.2.36-.04.14-.05.28-.03.42.03.14.12.26.28.34.42.23.88.41,1.35.53.48.12.95.27,1.41.42.46.16.89.36,1.29.61.4.25.73.6.99,1.06.39.67.59,1.37.6,2.11,0,.73-.14,1.42-.44,2.06-.3.64-.74,1.18-1.33,1.63-.58.45-1.26.72-2.04.81-.55.05-1.09.02-1.62-.09-.53-.12-1.04-.3-1.54-.56-.5-.26-.95-.56-1.38-.92-.42-.35-.8-.72-1.11-1.11l-.08-.16Z"/>
    <path d="M421.53,58.9c-.35.26-.72.38-1.1.36-.38-.02-.72-.17-1.01-.46s-.44-.69-.44-1.21v-14.74c0-.41.16-.75.48-1.03.32-.28.67-.46,1.06-.53.39-.07.75,0,1.09.19.34.19.52.56.56,1.09.07.92.1,1.82.09,2.69,0,.88-.02,1.75-.04,2.64.65-.44,1.33-.74,2.04-.89.71-.15,1.39-.15,2.04.01.65.16,1.26.48,1.83.95.57.48,1.03,1.14,1.38,1.99.25.57.42,1.17.5,1.82.09.65.14,1.3.15,1.96,0,.66,0,1.32-.03,1.98-.03.65-.04,1.27-.04,1.86,0,.37-.1.71-.29,1.01-.19.3-.44.52-.73.66-.29.14-.6.19-.93.13-.33-.05-.62-.25-.89-.58-.27-.35-.43-.77-.49-1.25-.06-.48-.08-.99-.05-1.52.03-.54.07-1.09.12-1.66.05-.57.07-1.11.04-1.63-.03-.52-.13-1-.3-1.45-.18-.44-.49-.8-.93-1.09-.35-.05-.67-.03-.95.07-.28.1-.54.24-.77.44-.23.19-.45.42-.65.66-.2.25-.41.5-.62.74-.05.09-.12.17-.19.25-.07.08-.15.16-.24.25v5.04c-.11.58-.34,1-.69,1.26Z"/>
    <path d="M432.8,42.53c.07-.65.3-1.14.68-1.45.38-.31.78-.46,1.21-.45.42,0,.82.17,1.18.49.36.32.55.77.57,1.35.04.6-.12,1.07-.46,1.39-.34.33-.74.51-1.18.56-.44.04-.86-.08-1.25-.36-.39-.28-.63-.73-.72-1.35l-.03-.19ZM436.3,57.62c-.04.35-.16.67-.37.94-.21.27-.46.47-.73.6-.27.12-.57.15-.89.08-.32-.07-.6-.27-.85-.58-.14-.18-.24-.38-.3-.6-.06-.22-.1-.45-.12-.69-.02-.24-.02-.48-.01-.72,0-.24.01-.46.01-.65-.02-1.04-.02-2.08-.01-3.1,0-1.03,0-2.06-.01-3.1,0-.42-.03-.85-.08-1.29-.05-.43-.03-.86.08-1.29.09-.32.24-.59.46-.82.22-.23.47-.39.74-.48.27-.09.56-.1.85-.03.29.07.54.26.76.56.28.35.42.7.42,1.05v3.06c0,.6,0,1.19.03,1.78.02.85.03,1.7.03,2.55v2.73Z"/>
    <path d="M438.9,47.46c.12-.42.32-.75.6-.97.27-.22.57-.35.88-.38.31-.04.61.02.89.16.28.14.5.36.66.66.19-.11.39-.2.58-.29.19-.09.42-.17.66-.24,1.13-.3,2.13-.28,3.01.07.88.34,1.6.88,2.19,1.59.58.72,1,1.56,1.25,2.52.25.96.31,1.93.17,2.89-.13.96-.47,1.87-1.02,2.71-.55.84-1.33,1.49-2.36,1.95-.67.3-1.38.49-2.11.57-.73.08-1.46.09-2.19.04,0,.02,0,.16.01.42,0,.27.01.6.01,1.01v1.33c0,.48-.01.94-.04,1.38-.03.44-.06.84-.11,1.18-.04.34-.11.58-.2.7-.23.34-.51.55-.85.64-.34.09-.65.07-.95-.04-.3-.12-.56-.31-.78-.58-.22-.27-.33-.61-.33-.99v-16.15l.03-.16ZM442.29,50.91c-.05.09-.08.13-.08.12s-.04.02-.11.09v4.38c.35.05.71.08,1.06.08s.72-.05,1.11-.16c.8-.19,1.42-.58,1.88-1.15.46-.57.64-1.29.53-2.13-.05-.35-.15-.72-.3-1.1-.15-.38-.35-.7-.6-.97-.25-.27-.54-.45-.88-.56-.34-.11-.72-.07-1.14.11-.3.12-.57.31-.81.56-.24.25-.46.5-.68.74Z"/>
    <path d="M466.61,58.68c-.23.28-.5.48-.8.58-.3.11-.61.11-.93,0-.32-.11-.58-.34-.8-.72-.09-.14-.16-.29-.21-.45s-.08-.32-.08-.48v-6.97c-.34,0-.64-.09-.92-.28-.27-.19-.48-.42-.61-.69-.13-.27-.18-.57-.15-.88.04-.31.18-.6.42-.86.18-.19.37-.32.57-.38.2-.06.42-.1.65-.12-.02-.55-.03-1.09-.04-1.62,0-.53.03-1.06.12-1.59.11-.83.35-1.54.74-2.12.39-.58.87-1.03,1.45-1.35.57-.32,1.22-.5,1.92-.56.71-.05,1.44.05,2.2.32.32.11.62.24.92.4.29.16.55.36.78.61.16.18.27.38.34.62.07.24.08.48.04.72-.04.24-.13.46-.27.66-.13.2-.32.36-.57.46-.34.14-.67.18-.99.11-.33-.07-.65-.19-.97-.34-.19-.07-.38-.14-.56-.21-.18-.07-.36-.12-.56-.16-.19-.04-.37,0-.53.08-.16.09-.3.21-.41.36-.12.15-.2.32-.27.5-.06.19-.09.37-.09.54-.02.41-.02.82-.01,1.23,0,.42.01.83.01,1.23.27-.02.55-.04.85-.05.3-.02.6-.03.89-.03s.56,0,.81.03c.25.02.44.05.58.11.28.11.51.27.69.49.18.22.29.46.34.72.05.26.03.52-.07.78-.1.27-.27.5-.52.69-.23.18-.5.3-.8.37-.3.07-.62.12-.95.15s-.66.04-.98.03c-.32,0-.6-.01-.85-.01v7.08c-.05.39-.19.72-.42,1.01Z"/>
    <path d="M481.75,54.81c.42-.11.8-.11,1.13-.01.33.1.58.26.76.49.18.23.26.51.24.85-.02.34-.17.69-.45,1.06-.23.3-.55.56-.95.77s-.79.38-1.14.5c-.87.32-1.69.54-2.47.66-.78.12-1.51.12-2.19,0-.68-.12-1.32-.38-1.91-.77-.59-.39-1.15-.94-1.66-1.64-.35-.48-.61-1.02-.78-1.63-.17-.61-.26-1.23-.28-1.87-.02-.64.04-1.26.16-1.88.12-.62.3-1.18.53-1.67.3-.62.78-1.18,1.43-1.7.65-.51,1.38-.92,2.17-1.22.8-.3,1.61-.47,2.44-.52.83-.04,1.56.08,2.2.38.53.25.99.61,1.37,1.07.38.47.64.98.78,1.52.14.55.15,1.1.04,1.66s-.4,1.07-.86,1.52c-.44.44-.93.8-1.46,1.07-.53.27-1.08.51-1.64.72-.57.2-1.15.38-1.74.52-.59.14-1.16.3-1.71.48.37.42.8.69,1.27.81.48.12.98.14,1.5.07.52-.07,1.05-.22,1.58-.44.53-.22,1.02-.46,1.48-.73l.16-.08ZM476.4,50.24c-.41.23-.71.52-.9.86-.19.34-.34.83-.42,1.45.46-.14.98-.29,1.55-.45.57-.16,1.12-.33,1.63-.5.51-.18.95-.37,1.3-.58.35-.21.53-.44.53-.69,0-.14-.02-.28-.07-.41-.04-.13-.14-.23-.28-.28-.5-.18-1.01-.21-1.54-.11-.53.11-.97.26-1.33.45l-.48.27Z"/>
    <path d="M494.91,54.81c.42-.11.8-.11,1.13-.01.33.1.58.26.76.49.18.23.26.51.24.85-.02.34-.17.69-.45,1.06-.23.3-.55.56-.95.77-.41.21-.79.38-1.14.5-.87.32-1.69.54-2.47.66-.78.12-1.51.12-2.19,0-.68-.12-1.32-.38-1.91-.77s-1.14-.94-1.66-1.64c-.35-.48-.61-1.02-.78-1.63-.17-.61-.26-1.23-.28-1.87s.04-1.26.16-1.88c.12-.62.3-1.18.53-1.67.3-.62.78-1.18,1.43-1.7.65-.51,1.38-.92,2.17-1.22.8-.3,1.61-.47,2.44-.52.83-.04,1.56.08,2.2.38.53.25.99.61,1.37,1.07.38.47.64.98.78,1.52.14.55.15,1.1.04,1.66-.12.56-.4,1.07-.86,1.52-.44.44-.93.8-1.46,1.07-.53.27-1.08.51-1.64.72-.57.2-1.15.38-1.74.52-.59.14-1.16.3-1.71.48.37.42.8.69,1.27.81.48.12.98.14,1.5.07.52-.07,1.05-.22,1.58-.44.53-.22,1.03-.46,1.49-.73l.16-.08ZM489.55,50.24c-.41.23-.71.52-.9.86-.19.34-.34.83-.42,1.45.46-.14.98-.29,1.55-.45.57-.16,1.12-.33,1.63-.5.51-.18.95-.37,1.3-.58.35-.21.53-.44.53-.69,0-.14-.02-.28-.07-.41-.04-.13-.14-.23-.28-.28-.5-.18-1.01-.21-1.54-.11-.53.11-.97.26-1.33.45l-.48.27Z"/>
    <path d="M502.41,56.71c.19.18.36.4.49.68.13.27.2.55.21.82,0,.27-.05.53-.19.77-.13.24-.37.42-.7.54-.27.09-.56.11-.88.05-.32-.05-.63-.16-.94-.32-.31-.16-.58-.35-.82-.57-.24-.22-.41-.46-.52-.73-.04-.09-.06-.19-.08-.31-.02-.11-.03-.22-.03-.3v-14.72c0-.41.15-.75.46-1.03.31-.28.65-.45,1.02-.5.18-.02.37,0,.57.08.2.07.39.17.57.3.18.13.32.29.44.46.11.18.17.36.17.56v1.83c0,.76,0,1.59.01,2.49s.01,1.83.01,2.8,0,1.89-.01,2.77c0,.88-.01,1.69-.01,2.43s0,1.32-.03,1.76l.24.13Z"/>
    <path d="M505.6,56.58c-.11-.3-.15-.6-.13-.89.02-.29.09-.56.23-.8.13-.24.32-.42.57-.56.25-.13.55-.18.9-.15.19.02.37.07.53.16.16.09.31.19.44.32.13.12.27.26.4.4.13.14.27.27.41.37.3.23.62.4.95.5.34.11.69.19,1.06.24.25,0,.45-.06.6-.19.15-.12.25-.27.3-.45.05-.18.07-.37.04-.57-.03-.2-.09-.37-.2-.49-.3-.3-.67-.49-1.1-.58-.43-.09-.83-.19-1.21-.32-.53-.18-1.05-.4-1.56-.68-.51-.27-.93-.65-1.25-1.13-.34-.49-.54-1.02-.6-1.58-.06-.56-.02-1.1.13-1.63.15-.53.4-1.02.76-1.46.35-.44.78-.8,1.27-1.09.37-.21.78-.35,1.22-.41.44-.06.89-.08,1.34-.04.45.04.9.12,1.34.25.44.13.85.28,1.22.44.42.19.74.47.96.82.21.35.31.71.3,1.07,0,.36-.13.68-.37.94-.24.27-.59.4-1.05.4-.28,0-.54-.05-.77-.15-.23-.1-.47-.19-.72-.28-.32-.12-.66-.21-1.03-.25-.37-.04-.67-.02-.9.07-.07.02-.15.08-.24.17-.09.1-.16.22-.2.36-.04.14-.05.28-.03.42.03.14.12.26.28.34.42.23.88.41,1.35.53.48.12.95.27,1.41.42.46.16.89.36,1.29.61.4.25.73.6.99,1.06.39.67.59,1.37.6,2.11,0,.73-.14,1.42-.44,2.06-.3.64-.74,1.18-1.33,1.63s-1.26.72-2.04.81c-.55.05-1.09.02-1.62-.09-.53-.12-1.04-.3-1.54-.56-.5-.26-.95-.56-1.38-.92-.42-.35-.8-.72-1.11-1.11l-.08-.16Z"/>
    <path d="M530.97,56.71c.19.18.36.4.49.68.13.27.2.55.21.82,0,.27-.05.53-.19.77-.13.24-.37.42-.7.54-.27.09-.56.11-.88.05-.32-.05-.63-.16-.94-.32s-.58-.35-.82-.57c-.24-.22-.41-.46-.52-.73-.04-.09-.06-.19-.08-.31-.02-.11-.03-.22-.03-.3v-14.72c0-.41.15-.75.46-1.03.31-.28.65-.45,1.02-.5.18-.02.37,0,.57.08.2.07.39.17.57.3s.32.29.44.46c.12.18.17.36.17.56v1.83c0,.76,0,1.59.01,2.49s.01,1.83.01,2.8,0,1.89-.01,2.77c0,.88-.01,1.69-.01,2.43s0,1.32-.03,1.76l.24.13Z"/>
    <path d="M533.81,42.53c.07-.65.3-1.14.68-1.45.38-.31.78-.46,1.21-.45.42,0,.82.17,1.18.49.36.32.55.77.57,1.35.04.6-.12,1.07-.46,1.39-.34.33-.74.51-1.18.56-.44.04-.86-.08-1.25-.36-.39-.28-.63-.73-.72-1.35l-.03-.19ZM537.31,57.62c-.04.35-.16.67-.37.94-.21.27-.46.47-.73.6-.27.12-.57.15-.89.08-.32-.07-.6-.27-.85-.58-.14-.18-.24-.38-.3-.6-.06-.22-.1-.45-.12-.69-.02-.24-.02-.48-.01-.72,0-.24.01-.46.01-.65-.02-1.04-.02-2.08-.01-3.1,0-1.03,0-2.06-.01-3.1,0-.42-.03-.85-.08-1.29-.05-.43-.03-.86.08-1.29.09-.32.24-.59.46-.82.22-.23.47-.39.74-.48.27-.09.56-.1.85-.03.29.07.54.26.76.56.28.35.42.7.42,1.05v3.06c0,.6,0,1.19.03,1.78.02.85.03,1.7.03,2.55v2.73Z"/>
    <path d="M543.09,58.77c-.35.26-.72.38-1.1.36-.38-.02-.72-.17-1.01-.46-.29-.29-.44-.69-.44-1.21v-15.12c0-.27.08-.51.23-.73.15-.22.34-.4.57-.54.23-.14.48-.23.76-.28.27-.04.53-.04.76.03.23.06.43.19.6.4.17.2.26.48.28.84.05,1.38.08,2.62.08,3.71s0,2.2-.03,3.31c.41-.3.79-.61,1.15-.94.36-.33.72-.67,1.07-1.02.32-.34.63-.71.93-1.13.3-.42.68-.7,1.14-.86.34-.11.65-.12.94-.05.29.07.54.21.74.41.2.2.34.45.41.74.07.29.05.61-.05.94-.09.25-.29.56-.6.93-.31.37-.65.75-1.03,1.14-.38.39-.76.75-1.13,1.07-.37.33-.67.58-.9.76.62.67,1.23,1.35,1.83,2.04.6.69,1.21,1.38,1.83,2.07.27.3.52.57.76.81.24.24.45.53.62.86.14.28.19.57.13.88-.05.3-.17.56-.36.78-.19.22-.42.38-.69.49-.27.11-.57.11-.89.03-.3-.09-.59-.25-.88-.49-.28-.24-.55-.5-.81-.78-.26-.28-.5-.57-.73-.88-.23-.3-.44-.56-.64-.77-.48-.55-.95-1.09-1.42-1.63-.47-.54-.95-1.06-1.45-1.58v4.61c-.11.58-.34,1-.69,1.26Z"/>
    <path d="M562.13,54.81c.42-.11.8-.11,1.13-.01.33.1.58.26.76.49.18.23.26.51.24.85-.02.34-.17.69-.45,1.06-.23.3-.55.56-.95.77-.41.21-.79.38-1.14.5-.87.32-1.69.54-2.47.66-.78.12-1.51.12-2.19,0-.68-.12-1.32-.38-1.91-.77s-1.14-.94-1.66-1.64c-.35-.48-.61-1.02-.78-1.63-.17-.61-.26-1.23-.28-1.87-.02-.64.04-1.26.16-1.88.12-.62.3-1.18.53-1.67.3-.62.78-1.18,1.43-1.7.65-.51,1.38-.92,2.17-1.22.8-.3,1.61-.47,2.44-.52.83-.04,1.56.08,2.2.38.53.25.99.61,1.37,1.07.38.47.64.98.78,1.52.14.55.15,1.1.04,1.66-.12.56-.4,1.07-.86,1.52-.44.44-.93.8-1.46,1.07-.53.27-1.08.51-1.64.72-.57.2-1.15.38-1.74.52-.59.14-1.16.3-1.71.48.37.42.8.69,1.27.81.48.12.98.14,1.5.07.52-.07,1.05-.22,1.58-.44.53-.22,1.03-.46,1.49-.73l.16-.08ZM556.78,50.24c-.41.23-.71.52-.9.86-.19.34-.34.83-.42,1.45.46-.14.98-.29,1.55-.45.57-.16,1.12-.33,1.63-.5.51-.18.95-.37,1.3-.58.35-.21.53-.44.53-.69,0-.14-.02-.28-.07-.41-.04-.13-.14-.23-.28-.28-.5-.18-1.01-.21-1.54-.11-.53.11-.97.26-1.33.45l-.48.27Z"/>
    <path d="M569.93,56.9c0,.44-.1.82-.3,1.13-.2.31-.46.54-.76.7-.3.16-.63.24-.99.25-.36,0-.7-.05-1.02-.19-.32-.13-.59-.34-.81-.62-.22-.28-.35-.65-.38-1.09-.04-.46.05-.84.25-1.15.2-.31.46-.54.78-.7.32-.16.66-.24,1.03-.25.37,0,.72.05,1.05.19.33.13.6.34.82.64s.33.66.33,1.1Z"/>
  </g>
  <path d="M229.69,95.21s-42.95-18.95-67.58,21.47c-24.63,40.42,12.63,82.11,61.26,74.53,0,0,.42,5.26-.84,13.68-1.26,8.42-11.37,46.74-11.79,56.42s-2.53,57.26,7.16,65.26c9.68,8,13.47,5.47,11.79,9.68s-8.42,8-13.89,5.05c-5.47-2.95-5.89-8.84-7.16-10.11s-26.53-74.11-31.16-77.47-12.21,1.26-9.68,15.58c2.53,14.32,22.32,62.32,28.63,64.84s17.68,7.16,14.32,10.11-10.95,1.26-14.32-2.11-13.05-14.32-13.05-14.32c0,0-74.95,0-90.95-5.05-16-5.05-35.79-2.95-31.58-25.26,4.21-22.32,21.92-17,27.37-20.63,8.84-5.89,14.32-18.95,15.16-33.68.84-14.74,4.21-61.47,24.84-66.95l-8.84-13.47s-12.63,9.68-21.47-3.37-2.53-40,28.63-56.84c0,0,43.37-49.26,103.16-7.37Z" fill="#2b3751" opacity=".4"/>
  <path d="M217.16,282.04s16.68-4.73,28.47,2.85c5.89,3.79,12.58,18.7,6.32,26.95-3.4,4.47-10.01,4.22-10.01,4.22,0,0,3.85-11.76-5.25-15.79-4.03-1.79-15.55-.87-17.66.4l-1.87-18.63Z" fill="#2b3751" opacity=".4"/>
  <path d="M219.11,302.58s15.58-1.26,18.95,6.32-4.21,17.68-12.63,17.68c0,0-8-12.21-6.32-24Z" fill="#2b3751" opacity=".4"/>
</svg>