<?xml version="1.0" encoding="UTF-8"?>
<svg id="Layer_1" data-name="Layer 1" xmlns="http://www.w3.org/2000/svg" width="600" height="360" viewBox="0 0 600 360">
  <path d="M23.14,351.88s-13.58-.63-16.42-16.11c-2.84-15.47,1.95-90.63,1.32-103.89-.63-13.26.48-106.69-.16-117.43-.63-10.74-1.89-69.16-.63-78.63,1.26-9.47-1.27-27.99,5.99-28.62,7.26-.63,58.06,1.78,70.06,1.78,12,0,56.53-2.84,70.42-1.58,13.89,1.26,48.63,1.58,58.11.32,9.47-1.26,60.95-.95,71.37-.95s146.53,1.58,159.47.63c12.95-.95,52.24.52,66.76,1.16,14.53.63,59.11-.77,63.54-.46s17.53.9,17.53,18.9c0,18,.23,51.47-1.41,69.45-.89,9.76-2.11,26.48-1.79,42.27.32,15.79,3.16,69.79,3.79,80.84.63,11.05,2.53,62.84,2.53,72.32s1.26,20.84,0,30.63,1.26,21.16-12.95,24.32c-14.21,3.16-28.74,4.74-40.74,4.42-12-.32-72.63-1.26-87.16-1.26-14.53,0-56.21,1.58-75.16.95-18.95-.63-72.95-.95-84.95-1.58s-40.74,1.58-52.74.32-40.11,2-53.05-.21c-12.95-2.21-44.21-1.05-63.16-.74-18.95.32-54.45,3.81-63.32,4.42-9.16.63-37.26-1.26-37.26-1.26Z" fill="#2b3751" stroke="#000" stroke-linecap="round" stroke-miterlimit="10" stroke-width="1.66"/>
  <path d="M212.83,173.52s-9.41-2.9-16.38.23c-6.97,3.14-9.64,5.81-15.1,17.89-5.46,12.08-14.64,64.83-14.64,64.83,0,0-1.28,19.87-3.72,21.38s-13.01,10.46-18.94,12.32c-5.93,1.86-10.92,10.34-8.48,16.73,2.44,6.39,10.8,19.52,46.7,25.56,35.9,6.04,72.5,1.16,72.5,1.16,0,0,7.09,12.66,15.8,13.83,0,0,3.49-1.28-1.74-5.69,0,0,6.16,7.2,9.06,5.23,0,0,1.16-2.67-2.09-5.69,0,0,5.46,6.74,7.9,5.23,0,0,0-4.18-4.65-7.09,0,0,8.6,9.18,10.69,7.44,2.09-1.74-4.3-7.55-4.3-7.55,0,0,6.85,3.72,1.05-2.67l-5.11-3.25s24.51-3.6,29.63-13.71c0,0,18.01-6.27,22.77-27.77,0,0,1.16-18.12-44.38-9.41,0,0-2.9-.93-3.95-6.04-1.05-5.11,0-40.31,3.83-49.38,0,0,10.8,11.73,19.4,9.41,8.6-2.32,30.67-27.53,34.04-31.6,3.37-4.07,25.21-35.09,25.21-35.09,0,0,8.95,10.46,12.43,10.57,0,0,2.09-2.32-.46-4.41-2.56-2.09-2.09-7.9-1.86-8.37s4.07,12.78,12.08,12.78c0,0,3.95-1.98-1.28-7.55,0,0,4.53,6.74,9.06,4.07,4.53-2.67-4.76-6.85-4.76-6.85l-2.9-5-2.32-4.18s-.46-1.98,1.05-1.16,4.18,5.34,6.85,4.88c2.67-.46-.58-10.34-6.85-12.9-6.27-2.56-17.78-6.27-22.07-4.3-4.3,1.98-11.39,5.46-16.38,10.11s-39.97,42.52-42.99,47.4c-3.02,4.88-7.9-4.07-7.9-4.07,0,0-5.81-24.4-29.97-28.23-24.17-3.83-56.81.93-56.81.93Z" fill="#fff"/>
  <path d="M300.33,93.56s-10.61-1.58-14.18,24.97c-3.57,26.55,8.21,30.32,18.63,29.93,11.78-.43,16.91-16.02,14.9-29.18-3.72-24.23-19.35-25.72-19.35-25.72Z" fill="#e293e2" stroke="#303030" stroke-linecap="round" stroke-miterlimit="10" stroke-width="2.37"/>
  <path d="M218.55,62s-37.19,7.44-45.7,45.32c-8.5,37.89,18.77,73.48,71.96,70.34,53.9-3.18,72.36-40.3,63.61-70.44-8.83-30.43-36.97-57.99-89.87-45.22Z" fill="#fff" stroke="#303030" stroke-linecap="round" stroke-miterlimit="10" stroke-width="1.56"/>
  <path d="M284.68,92.85c-11.53-1.28-16.04,12.24-16.04,12.24,0,0-.6,1.64-1.22,4.14-3.9-.28-8.19.33-8.64,4.3-.43,3.83,2.82,5.7,7.39,6.38.11,3.38.84,6.78,2.7,9.52,4.94,7.3,22.48,7.78,26.06-10.49,3.14-16.03-.57-25.01-10.24-26.09Z" fill="#fff" stroke="#303030" stroke-linecap="round" stroke-miterlimit="10" stroke-width="1.88"/>
  <path d="M246.81,123.12s-20.19,3.65-23.34,18.82c-3.15,15.17,4.14,31.16,29.94,28,25.8-3.16,25.92-21.54,23.46-31.2-2.46-9.66-13.53-19.97-30.06-15.63Z" fill="#e293e2" stroke="#303030" stroke-linecap="round" stroke-miterlimit="10" stroke-width="2.37"/>
  <path d="M248.24,130.4s10.14-3.71,11.11,3.1c.98,6.81-8.71,7.47-8.71,7.47" fill="none" stroke="#303030" stroke-linecap="round" stroke-miterlimit="10" stroke-width="1.56"/>
  <path d="M185.67,90.06s-11.5-8.91-28.86,19.48c-8.37,13.69-7.97,33.34,4.34,38.55,13.09,5.53,19.04-1.9,26.71-21.04,11.33-28.27-2.19-36.99-2.19-36.99Z" fill="#e293e2" stroke="#303030" stroke-linecap="round" stroke-miterlimit="10" stroke-width="2.37"/>
  <g>
    <path d="M237.56,116.28c0-4.22-4.71-5.2-8.78-5.26.14-2.45-.29-16.52-8.84-18.28-10.1-2.08-20.13,4.04-22.27,22.54-2.13,18.5,14.45,23.97,21.76,19.04,4.13-2.79,6.43-7.9,7.7-12.55,5.76.29,10.43-1,10.43-5.49Z" fill="none" stroke="#303030" stroke-linecap="round" stroke-miterlimit="10" stroke-width="1.88"/>
    <path d="M220.04,104.39s-3.79-2.98-7.39,4.87c-3.59,7.85-.34,14.3,3.34,15.75,5.83,2.3,8.54-6.01,8.5-12.19-.06-8.71-4.44-8.43-4.44-8.43Z" fill="#e293e2" stroke="#303030" stroke-linecap="round" stroke-miterlimit="10" stroke-width="2.37"/>
  </g>
  <path d="M288.69,105.13c-1.07-.14-4.9.61-6.4,8.94-2.01,11.19,6.04,11.05,7.91,7.55,1.78-3.32,5.78-15.5-1.51-16.49Z" fill="#e293e2" stroke="#303030" stroke-linecap="round" stroke-miterlimit="10" stroke-width="2.37"/>
  <path d="M259.34,150.74c.53,0,.94.51.79,1.02-.68,2.37-2.75,4.52-7.22,4-4.8-.56-6.48-2.42-7.07-3.75-.3-.68.22-1.44.97-1.43l12.53.16Z" fill="#221a38"/>
  <path d="M207.73,172.57c-4.4-1.82-15.49.15-22.95,11.59-7.4,11.34-16.93,62.45-19.39,83.16-1.17,9.85-.99,12.82-17.42,20.71-18.22,8.75-18.69,24.82,7.72,36.65,33.03,14.79,77.46,9.55,97.62,9.37" fill="none" stroke="#303030" stroke-linecap="round" stroke-miterlimit="10" stroke-width="1.56"/>
  <path d="M205.98,185.64s18.74-5.42,26.13,14.3c7.4,19.72,20.71,69.52,25.64,81.35,4.93,11.83,20.21,50.29,20.21,50.29,0,0,10.35,2.96,10.85,9.37" fill="none" stroke="#303030" stroke-linecap="round" stroke-miterlimit="10" stroke-width="1.56"/>
  <path d="M280.92,336.67s7.4,3.12,8.71,7.89-4.27,1.48-6.74-1.48c-2.47-2.96-4.77-4.6-4.77-4.6,0,0,7.23,6.57,5.42,8.22s-7.23-4.77-7.23-4.77c0,0,4.77,7.4-1.48,4.77l-5.92-4.27s6.25,6.08-.49,4.44c-6.74-1.64-11.83-9.53-14.79-16.43-2.96-6.9-33.03-81.52-33.03-81.52" fill="none" stroke="#303030" stroke-linecap="round" stroke-miterlimit="10" stroke-width="1.56"/>
  <path d="M269.25,308.57c3.28.24,5.76.2,7.07-.17,5.26-1.48,16.76-7.23,23.83-7.23s12.65,4.6,11.5,15.12c-1,9.1-14.54,14.88-30.19,16.48" fill="none" stroke="#303030" stroke-linecap="round" stroke-miterlimit="10" stroke-width="1.56"/>
  <path d="M174.75,291.81s33.69,2.14,53.08,8.22c4.85,1.52,9.97,2.9,15.02,4.08" fill="none" stroke="#303030" stroke-linecap="round" stroke-miterlimit="10" stroke-width="1.56"/>
  <path d="M270.07,173.15s14.13,1.15,21.53,12.49c7.4,11.34,11.18,24.16,14.46,20.38,3.29-3.78,47.17-59.82,64.26-59,17.09.82,23.5,6.9,25.64,12.82,2.14,5.92-1.25,6.66-5.53.9,0,0-1.54-1.79-2.34-1.23-1.22.84,1.85,3.81,2.31,5.27.59,1.9,2.13,3.55,2.87,5.09s4.99,3.08,5.42,5.24c.43,2.16-3.14,3.39-5.98,1.11s-8.81-8.87-9.68-11.15c0,0,6.41,9.8,7.46,10.66s.92,2.83.74,3.7-3.14,1.6-6.22-1.42-5.67-5.79-7.03-9.92c0,0-.86-.06-.55,1.97.31,2.03,1.29,4.62,2.59,6.04,1.29,1.42,1.6,3.88-.31,4.01-1.91.12-11.52-8.87-14.11-15.04" fill="none" stroke="#303030" stroke-linecap="round" stroke-linejoin="round" stroke-width="1.56"/>
  <path d="M368.12,169.68s-20.89,29.15-25.76,35.13c-4.87,5.98-21.94,27.86-33.4,31.25s-22.68-12.88-22.68-12.88" fill="none" stroke="#303030" stroke-linecap="round" stroke-miterlimit="10" stroke-width="1.56"/>
  <path d="M288.89,226.38s-9.7,58.19.88,55.84,31.45-4.7,40.56,2.94c9.11,7.64-3.53,28.51-19.4,34.97" fill="none" stroke="#303030" stroke-linecap="round" stroke-miterlimit="10" stroke-width="1.56"/>
  <g>
    <path d="M430.58,92.9c-3.52.12-8.73-.06-11.41,12.46-2.01,9.37-2.63,13.12-2.63,13.12,0,0-13.6,47.84-13.38,48.2s6.87,1.2,6.87,1.2l32.75-72s-6.55-3.17-12.2-2.98Z" fill="#f7bc00" stroke="#000" stroke-linecap="round" stroke-linejoin="round" stroke-width="1.56"/>
    <path d="M429.74,93.21l-3.87,12.18,5.41,1.75,5.16-13.19s-4.59-1.44-6.7-.74Z"/>
    <polygon points="424.6 108.63 432.02 110.33 408.07 167.82 404.92 167.66 424.6 108.63" fill="#ddd"/>
    <circle cx="428.18" cy="107.21" r="7.12" transform="translate(23.47 283.38) rotate(-37.58)"/>
    <polygon points="429.12 104.03 426.1 104.8 425.26 107.8 427.44 110.03 430.46 109.26 431.3 106.26 429.12 104.03" fill="#fff"/>
    <path d="M423.87,111.07s-19.02,56.12-18.82,55.96" fill="none" stroke="#221a38" stroke-linecap="round" stroke-miterlimit="10" stroke-width=".78"/>
    <path d="M430.83,112.5s-22.94,55.04-22.71,54.96" fill="none" stroke="#221a38" stroke-linecap="round" stroke-miterlimit="10" stroke-width=".78"/>
    <line x1="414.78" y1="138.27" x2="418.28" y2="142.19" fill="none" stroke="#221a38" stroke-linecap="round" stroke-miterlimit="10" stroke-width=".78"/>
    <line x1="411.32" y1="148.38" x2="414.28" y2="151.72" fill="none" stroke="#221a38" stroke-linecap="round" stroke-miterlimit="10" stroke-width=".78"/>
    <line x1="407.94" y1="158.58" x2="410.46" y2="161.47" fill="none" stroke="#221a38" stroke-linecap="round" stroke-miterlimit="10" stroke-width=".78"/>
    <line x1="419.33" y1="124.66" x2="423.45" y2="129.71" fill="none" stroke="#221a38" stroke-linecap="round" stroke-miterlimit="10" stroke-width=".78"/>
    <line x1="421.47" y1="118.1" x2="425.98" y2="123.55" fill="none" stroke="#221a38" stroke-linecap="round" stroke-miterlimit="10" stroke-width=".78"/>
    <path d="M427.49,132.24s-.02,0-.03,0c-2.65.12-4.5-.18-6.36-.91-.89-.35-.9-.75-1.34-.89-.38-.13-.96.13-1.86,0-3.55-.52-4.85-2.79-4.97-2.91-.43-.44-.45-1.17-.06-1.64.39-.46,1.05-.48,1.48-.05.07.07,4.51,4.46,13.01,4.09.58-.03,1.07.47,1.1,1.11.03.63-.4,1.16-.96,1.2Z" fill="#fff34a" stroke="#000" stroke-linecap="round" stroke-miterlimit="10" stroke-width=".93"/>
    <path d="M429.1,130.12s-.02,0-.03,0c-10.49.21-15.72-4.83-15.93-5.04-.46-.45-.46-1.18-.01-1.64.45-.45,1.18-.46,1.64-.01.05.04,1.72,1.47,4.31,2.5.29.12,1.13,1.16,1.45,1.27s1.35-.17,1.79-.17c2.1.03,3.81.84,6.71.78.64-.01,1.17.5,1.18,1.14.01.63-.48,1.15-1.11,1.18Z" fill="#fff34a" stroke="#000" stroke-linecap="round" stroke-miterlimit="10" stroke-width=".98"/>
    <g>
      <path d="M420.7,126.76s-.99,1.72-.98,4.13" fill="#fff34a" stroke="#000" stroke-linecap="round" stroke-miterlimit="10" stroke-width=".98"/>
      <g>
        <path d="M419.72,131.85c-.52,0-.95-.42-.95-.95-.02-2.63,1.06-4.53,1.11-4.61.17-.29.49-.48.83-.48.17,0,.33.04.47.13.45.26.61.84.35,1.3,0,.01-.86,1.56-.85,3.65,0,.51-.4.93-.91.96h-.04Z" fill="#fff34a"/>
        <path d="M420.7,126.3c.08,0,.16.02.23.06.22.13.3.41.17.63,0,.02-.93,1.65-.92,3.9,0,.25-.2.46-.44.47,0,0-.01,0-.02,0h0c-.26,0-.46-.21-.46-.46-.01-2.51,1-4.29,1.04-4.37.09-.15.24-.23.4-.23M420.7,125.32h0c-.51,0-.99.28-1.25.72-.12.21-1.19,2.14-1.17,4.86,0,.79.65,1.43,1.44,1.43h.05c.79-.04,1.39-.67,1.39-1.45-.01-1.95.78-3.4.79-3.41.39-.68.15-1.56-.54-1.96-.22-.13-.47-.19-.72-.19h0Z"/>
      </g>
    </g>
    <g>
      <path d="M381.28,148.56c-7.08,0-8.82-4.94-9.56-9.25-.13-.73.37-1.43,1.11-1.56.08-.01.15-.02.23-.02.66,0,1.22.47,1.33,1.13.87,5.1,2.74,7,6.89,7,2.29,0,3.72-2.09,6.05-5.77,1.88-2.98,4.02-6.35,7.5-9.11,4.97-3.94,10.33-5.93,15.93-5.93,4.89,0,8.22,1.6,8.36,1.67.67.33.95,1.14.62,1.81-.23.47-.69.76-1.22.76-.21,0-.41-.05-.59-.14-.3-.14-3.02-1.39-7.14-1.39-5,0-9.8,1.8-14.28,5.35-3.12,2.47-5.13,5.64-6.9,8.44-2.39,3.77-4.45,7.03-8.34,7.03Z" fill="#fff34a"/>
      <path d="M381.28,148.56c-7.08,0-8.82-4.94-9.56-9.25-.13-.73.37-1.43,1.11-1.56.08-.01.15-.02.23-.02.66,0,1.22.47,1.33,1.13.87,5.1,2.74,7,6.89,7,2.29,0,3.72-2.09,6.05-5.77,1.88-2.98,4.02-6.35,7.5-9.11,4.97-3.94,10.33-5.93,15.93-5.93,4.89,0,8.22,1.6,8.36,1.67.67.33.95,1.14.62,1.81-.23.47-.69.76-1.22.76-.21,0-.41-.05-.59-.14-.3-.14-3.02-1.39-7.14-1.39-5,0-9.8,1.8-14.28,5.35-3.12,2.47-5.13,5.64-6.9,8.44-2.39,3.77-4.45,7.03-8.34,7.03Z" fill="none" stroke="#000" stroke-miterlimit="10" stroke-width=".64"/>
    </g>
    <g>
      <path d="M387.95,157.37c-2.49,0-5.01-.89-6.91-2.44-1.84-1.51-4.76-5.01-3.62-11.57.11-.65.67-1.12,1.33-1.12.08,0,.16,0,.23.02.36.06.67.26.87.55.21.3.29.65.23,1.01-.67,3.86.27,7.06,2.67,9.01,1.42,1.16,3.32,1.82,5.21,1.82.91,0,1.76-.15,2.53-.45,3.12-1.22,4.18-3.46,6.09-7.52.92-1.96,1.97-4.18,3.49-6.8,6.46-11.09,16.78-12.29,20.92-12.29.87,0,1.37.06,1.37.06.74.09,1.27.76,1.18,1.5-.08.68-.66,1.19-1.34,1.19-.05,0-.11,0-.16,0-.09,0-.56-.06-1.32-.06-3.59,0-12.56,1.07-18.32,10.97-1.47,2.52-2.48,4.68-3.38,6.59-1.99,4.23-3.43,7.28-7.55,8.89-1.09.43-2.28.64-3.53.64Z" fill="#fff34a"/>
      <path d="M387.95,157.37c-2.49,0-5.01-.89-6.91-2.44-1.84-1.51-4.76-5.01-3.62-11.57.11-.65.67-1.12,1.33-1.12.08,0,.16,0,.23.02.36.06.67.26.87.55.21.3.29.65.23,1.01-.67,3.86.27,7.06,2.67,9.01,1.42,1.16,3.32,1.82,5.21,1.82.91,0,1.76-.15,2.53-.45,3.12-1.22,4.18-3.46,6.09-7.52.92-1.96,1.97-4.18,3.49-6.8,6.46-11.09,16.78-12.29,20.92-12.29.87,0,1.37.06,1.37.06.74.09,1.27.76,1.18,1.5-.08.68-.66,1.19-1.34,1.19-.05,0-.11,0-.16,0-.09,0-.56-.06-1.32-.06-3.59,0-12.56,1.07-18.32,10.97-1.47,2.52-2.48,4.68-3.38,6.59-1.99,4.23-3.43,7.28-7.55,8.89-1.09.43-2.28.64-3.53.64Z" fill="none" stroke="#000" stroke-miterlimit="10" stroke-width=".64"/>
    </g>
  </g>
  <path d="M470.31,127.6c-5.79,31.05-33.44,56.22-61.77,56.22-28.33,0-46.6-25.17-40.81-56.22,5.79-31.05,33.44-56.22,61.77-56.22,28.33,0,46.6,25.17,40.81,56.22Z" fill="#fff34a" opacity=".2"/>
  <g>
    <rect x="96.68" y="16.97" width="418.1" height="37.37" rx="18.68" ry="18.68" fill="#fff"/>
    <path d="M127.22,53.82s12.97,13.52,20.08,15.28l-9.46-24.98-10.62,9.69Z" fill="#fff"/>
  </g>
  <text transform="translate(113 43.3)" font-family="ChalkboardSE-Bold, &apos;Chalkboard SE&apos;" font-size="24" font-weight="700"><tspan x="0" y="0">B</tspan><tspan x="14.21" y="0" letter-spacing="-.06em">u</tspan><tspan x="25.96" y="0">t </tspan><tspan x="47.42" y="0" letter-spacing="-.07em">a</tspan><tspan x="59.16" y="0">t </tspan><tspan x="80.62" y="0" letter-spacing="-.06em">l</tspan><tspan x="87.04" y="0">e</tspan><tspan x="100.19" y="0" letter-spacing=".01em">a</tspan><tspan x="113.87" y="0" letter-spacing="-.05em">s</tspan><tspan x="123.61" y="0">t I h</tspan><tspan x="179.75" y="0" letter-spacing="0em">a</tspan><tspan x="193.03" y="0" letter-spacing="0em">v</tspan><tspan x="204.54" y="0">e </tspan><tspan x="227.64" y="0" letter-spacing="-.03em">y</tspan><tspan x="240.37" y="0" letter-spacing=".03em">o</tspan><tspan x="253.34" y="0">u </tspan><tspan x="276.49" y="0" letter-spacing="-.04em">t</tspan><tspan x="286.94" y="0">o </tspan><tspan x="309.11" y="0" letter-spacing="-.08em">t</tspan><tspan x="318.71" y="0" letter-spacing="0em">a</tspan><tspan x="331.91" y="0">lk </tspan><tspan x="362.81" y="0" letter-spacing="-.04em">t</tspan><tspan x="373.26" y="0">o</tspan></text>
  <path d="M290.11,76.55s-45.49-16.58-70.12,23.84c-24.63,40.42,1.04,80.19,49.67,72.62,0,0,14.01,4.06,19.48,10.58,5.05,6.01,12.74,23.3,15.63,22.85,2.71-.42,12.97-15.01,24.29-27.18,14.81-15.91,19.94-18.56,22.85-19.84,6.24-2.76,6.78-1.28,12.27,5.65,2.16,2.73,6.37.98,1,8.4-9.75,13.48-28.54,42.56-55.12,61.6-9.32,6.68-21.51-13.63-21.89-8.66-.74,9.67-6.46,45.75,0,56.52,1.44,2.41,38.36-12.37,43.54,4.57,5.29,17.32-21.12,31.88-22.13,34.4-1.68,4.21-25.55,12.33-31.03,9.38s-6.19-15.81-7.46-17.08-28.89-82.83-43.39-120.38c-2.06-5.34-22.07-2.96-2.04,59.2,4.46,13.84,26.48,58.39,28.63,64.84,5.2,15.58,30.27,22.73,26.9,25.68-3.37,2.95-7.99,2.14-12.75,1.92-5.29-.24-15.15-12.03-15.15-12.03,0,0-54.36,4.33-82.74-4.81-15.97-5.14-39.93-14.91-33.43-30.55,4.21-10.13,25.26-12.51,27.18-23.57,4.34-24.97,5.77-33.67,8.42-46.42,3-14.45,9.38-56.28,34.16-55.8,0,0-8.18-1.92-17.08-9.86s-12.55-15.93-12.55-15.93c0,0-12.63,9.68-21.47-3.37-8.84-13.05-7.23-37.71,23.93-54.55,0,0,46.32-59.61,110.4-12.03Z" fill="#2b3751" opacity=".4"/>
</svg>