<?xml version="1.0" encoding="UTF-8"?>
<svg id="Layer_1" data-name="Layer 1" xmlns="http://www.w3.org/2000/svg" width="600" height="360" viewBox="0 0 600 360">
  <path d="M23.14,351.88s-13.58-.63-16.42-16.11c-2.84-15.47,1.95-90.63,1.32-103.89-.63-13.26.48-106.69-.16-117.43-.63-10.74-1.89-69.16-.63-78.63,1.26-9.47-1.27-27.99,5.99-28.62,7.26-.63,58.06,1.78,70.06,1.78,12,0,56.53-2.84,70.42-1.58,13.89,1.26,48.63,1.58,58.11.32,9.47-1.26,60.95-.95,71.37-.95s146.53,1.58,159.47.63c12.95-.95,52.24.52,66.76,1.16,14.53.63,59.11-.77,63.54-.46s17.53.9,17.53,18.9c0,18,.23,51.47-1.41,69.45-.89,9.76-2.11,26.48-1.79,42.27.32,15.79,3.16,69.79,3.79,80.84.63,11.05,2.53,62.84,2.53,72.32s1.26,20.84,0,30.63,1.26,21.16-12.95,24.32c-14.21,3.16-28.74,4.74-40.74,4.42-12-.32-72.63-1.26-87.16-1.26-14.53,0-56.21,1.58-75.16.95-18.95-.63-72.95-.95-84.95-1.58s-40.74,1.58-52.74.32-40.11,2-53.05-.21c-12.95-2.21-44.21-1.05-63.16-.74-18.95.32-54.45,3.81-63.32,4.42-9.16.63-37.26-1.26-37.26-1.26Z" fill="#2b3751" stroke="#000" stroke-linecap="round" stroke-miterlimit="10" stroke-width="1.66"/>
  <path d="M212.83,173.52s-9.41-2.9-16.38.23c-6.97,3.14-9.64,5.81-15.1,17.89-5.46,12.08-14.64,64.83-14.64,64.83,0,0-1.28,19.87-3.72,21.38s-13.01,10.46-18.94,12.32c-5.93,1.86-10.92,10.34-8.48,16.73,2.44,6.39,10.8,19.52,46.7,25.56,35.9,6.04,72.5,1.16,72.5,1.16,0,0,7.09,12.66,15.8,13.83,0,0,3.49-1.28-1.74-5.69,0,0,6.16,7.2,9.06,5.23,0,0,1.16-2.67-2.09-5.69,0,0,5.46,6.74,7.9,5.23,0,0,0-4.18-4.65-7.09,0,0,8.6,9.18,10.69,7.44,2.09-1.74-4.3-7.55-4.3-7.55,0,0,6.85,3.72,1.05-2.67l-5.11-3.25s24.51-3.6,29.63-13.71c0,0,18.01-6.27,22.77-27.77,0,0,1.16-18.12-44.38-9.41,0,0-2.9-.93-3.95-6.04-1.05-5.11,0-40.31,3.83-49.38,0,0,10.8,11.73,19.4,9.41,8.6-2.32,30.67-27.53,34.04-31.6,3.37-4.07,25.21-35.09,25.21-35.09,0,0,8.95,10.46,12.43,10.57,0,0,2.09-2.32-.46-4.41-2.56-2.09-2.09-7.9-1.86-8.37s4.07,12.78,12.08,12.78c0,0,3.95-1.98-1.28-7.55,0,0,4.53,6.74,9.06,4.07,4.53-2.67-4.76-6.85-4.76-6.85l-2.9-5-2.32-4.18s-.46-1.98,1.05-1.16,4.18,5.34,6.85,4.88c2.67-.46-.58-10.34-6.85-12.9-6.27-2.56-17.78-6.27-22.07-4.3-4.3,1.98-11.39,5.46-16.38,10.11s-39.97,42.52-42.99,47.4c-3.02,4.88-7.9-4.07-7.9-4.07,0,0-5.81-24.4-29.97-28.23-24.17-3.83-56.81.93-56.81.93Z" fill="#fff"/>
  <path d="M300.33,93.56s-10.61-1.58-14.18,24.97c-3.57,26.55,8.21,30.32,18.63,29.93,11.78-.43,16.91-16.02,14.9-29.18-3.72-24.23-19.35-25.72-19.35-25.72Z" fill="#e293e2" stroke="#303030" stroke-linecap="round" stroke-miterlimit="10" stroke-width="2.37"/>
  <path d="M218.55,62s-37.19,7.44-45.7,45.32c-8.5,37.89,18.77,73.48,71.96,70.34,53.9-3.18,72.36-40.3,63.61-70.44-8.83-30.43-36.97-57.99-89.87-45.22Z" fill="#fff" stroke="#303030" stroke-linecap="round" stroke-miterlimit="10" stroke-width="1.56"/>
  <path d="M284.68,92.85c-11.53-1.28-16.04,12.24-16.04,12.24,0,0-.6,1.64-1.22,4.14-3.9-.28-8.19.33-8.64,4.3-.43,3.83,2.82,5.7,7.39,6.38.11,3.38.84,6.78,2.7,9.52,4.94,7.3,22.48,7.78,26.06-10.49,3.14-16.03-.57-25.01-10.24-26.09Z" fill="#fff" stroke="#303030" stroke-linecap="round" stroke-miterlimit="10" stroke-width="1.88"/>
  <path d="M246.81,123.12s-20.19,3.65-23.34,18.82c-3.15,15.17,4.14,31.16,29.94,28,25.8-3.16,25.92-21.54,23.46-31.2-2.46-9.66-13.53-19.97-30.06-15.63Z" fill="#e293e2" stroke="#303030" stroke-linecap="round" stroke-miterlimit="10" stroke-width="2.37"/>
  <path d="M248.24,130.4s10.14-3.71,11.11,3.1c.98,6.81-8.71,7.47-8.71,7.47" fill="none" stroke="#303030" stroke-linecap="round" stroke-miterlimit="10" stroke-width="1.56"/>
  <path d="M185.67,90.06s-11.5-8.91-28.86,19.48c-8.37,13.69-7.97,33.34,4.34,38.55,13.09,5.53,19.04-1.9,26.71-21.04,11.33-28.27-2.19-36.99-2.19-36.99Z" fill="#e293e2" stroke="#303030" stroke-linecap="round" stroke-miterlimit="10" stroke-width="2.37"/>
  <g>
    <path d="M237.56,116.28c0-4.22-4.71-5.2-8.78-5.26.14-2.45-.29-16.52-8.84-18.28-10.1-2.08-20.13,4.04-22.27,22.54-2.13,18.5,14.45,23.97,21.76,19.04,4.13-2.79,6.43-7.9,7.7-12.55,5.76.29,10.43-1,10.43-5.49Z" fill="none" stroke="#303030" stroke-linecap="round" stroke-miterlimit="10" stroke-width="1.88"/>
    <path d="M220.04,104.39s-3.79-2.98-7.39,4.87c-3.59,7.85-.34,14.3,3.34,15.75,5.83,2.3,8.54-6.01,8.5-12.19-.06-8.71-4.44-8.43-4.44-8.43Z" fill="#e293e2" stroke="#303030" stroke-linecap="round" stroke-miterlimit="10" stroke-width="2.37"/>
  </g>
  <path d="M288.69,105.13c-1.07-.14-4.9.61-6.4,8.94-2.01,11.19,6.04,11.05,7.91,7.55,1.78-3.32,5.78-15.5-1.51-16.49Z" fill="#e293e2" stroke="#303030" stroke-linecap="round" stroke-miterlimit="10" stroke-width="2.37"/>
  <path d="M259.34,150.74c.53,0,.94.51.79,1.02-.68,2.37-2.75,4.52-7.22,4-4.8-.56-6.48-2.42-7.07-3.75-.3-.68.22-1.44.97-1.43l12.53.16Z" fill="#221a38"/>
  <path d="M207.73,172.57c-4.4-1.82-15.49.15-22.95,11.59-7.4,11.34-16.93,62.45-19.39,83.16-1.17,9.85-.99,12.82-17.42,20.71-18.22,8.75-18.69,24.82,7.72,36.65,33.03,14.79,77.46,9.55,97.62,9.37" fill="none" stroke="#303030" stroke-linecap="round" stroke-miterlimit="10" stroke-width="1.56"/>
  <path d="M205.98,185.64s18.74-5.42,26.13,14.3c7.4,19.72,20.71,69.52,25.64,81.35,4.93,11.83,20.21,50.29,20.21,50.29,0,0,10.35,2.96,10.85,9.37" fill="none" stroke="#303030" stroke-linecap="round" stroke-miterlimit="10" stroke-width="1.56"/>
  <path d="M280.92,336.67s7.4,3.12,8.71,7.89-4.27,1.48-6.74-1.48c-2.47-2.96-4.77-4.6-4.77-4.6,0,0,7.23,6.57,5.42,8.22s-7.23-4.77-7.23-4.77c0,0,4.77,7.4-1.48,4.77l-5.92-4.27s6.25,6.08-.49,4.44c-6.74-1.64-11.83-9.53-14.79-16.43-2.96-6.9-33.03-81.52-33.03-81.52" fill="none" stroke="#303030" stroke-linecap="round" stroke-miterlimit="10" stroke-width="1.56"/>
  <path d="M269.25,308.57c3.28.24,5.76.2,7.07-.17,5.26-1.48,16.76-7.23,23.83-7.23s12.65,4.6,11.5,15.12c-1,9.1-14.54,14.88-30.19,16.48" fill="none" stroke="#303030" stroke-linecap="round" stroke-miterlimit="10" stroke-width="1.56"/>
  <path d="M174.75,291.81s33.69,2.14,53.08,8.22c4.85,1.52,9.97,2.9,15.02,4.08" fill="none" stroke="#303030" stroke-linecap="round" stroke-miterlimit="10" stroke-width="1.56"/>
  <path d="M270.07,173.15s14.13,1.15,21.53,12.49c7.4,11.34,11.18,24.16,14.46,20.38,3.29-3.78,47.17-59.82,64.26-59,17.09.82,23.5,6.9,25.64,12.82,2.14,5.92-1.25,6.66-5.53.9,0,0-1.54-1.79-2.34-1.23-1.22.84,1.85,3.81,2.31,5.27.59,1.9,2.13,3.55,2.87,5.09s4.99,3.08,5.42,5.24c.43,2.16-3.14,3.39-5.98,1.11s-8.81-8.87-9.68-11.15c0,0,6.41,9.8,7.46,10.66s.92,2.83.74,3.7-3.14,1.6-6.22-1.42-5.67-5.79-7.03-9.92c0,0-.86-.06-.55,1.97.31,2.03,1.29,4.62,2.59,6.04,1.29,1.42,1.6,3.88-.31,4.01-1.91.12-11.52-8.87-14.11-15.04" fill="none" stroke="#303030" stroke-linecap="round" stroke-linejoin="round" stroke-width="1.56"/>
  <path d="M368.12,169.68s-20.89,29.15-25.76,35.13c-4.87,5.98-21.94,27.86-33.4,31.25s-22.68-12.88-22.68-12.88" fill="none" stroke="#303030" stroke-linecap="round" stroke-miterlimit="10" stroke-width="1.56"/>
  <path d="M288.89,226.38s-9.7,58.19.88,55.84,31.45-4.7,40.56,2.94c9.11,7.64-3.53,28.51-19.4,34.97" fill="none" stroke="#303030" stroke-linecap="round" stroke-miterlimit="10" stroke-width="1.56"/>
  <g>
    <path d="M430.58,92.9c-3.52.12-8.73-.06-11.41,12.46-2.01,9.37-2.63,13.12-2.63,13.12,0,0-13.6,47.84-13.38,48.2s6.87,1.2,6.87,1.2l32.75-72s-6.55-3.17-12.2-2.98Z" fill="#f7bc00" stroke="#000" stroke-linecap="round" stroke-linejoin="round" stroke-width="1.56"/>
    <path d="M429.74,93.21l-3.87,12.18,5.41,1.75,5.16-13.19s-4.59-1.44-6.7-.74Z"/>
    <polygon points="424.6 108.63 432.02 110.33 408.07 167.82 404.92 167.66 424.6 108.63" fill="#ddd"/>
    <circle cx="428.18" cy="107.21" r="7.12" transform="translate(23.47 283.38) rotate(-37.58)"/>
    <polygon points="429.12 104.03 426.1 104.8 425.26 107.8 427.44 110.03 430.46 109.26 431.3 106.26 429.12 104.03" fill="#fff"/>
    <path d="M423.87,111.07s-19.02,56.12-18.82,55.96" fill="none" stroke="#221a38" stroke-linecap="round" stroke-miterlimit="10" stroke-width=".78"/>
    <path d="M430.83,112.5s-22.94,55.04-22.71,54.96" fill="none" stroke="#221a38" stroke-linecap="round" stroke-miterlimit="10" stroke-width=".78"/>
    <line x1="414.78" y1="138.27" x2="418.28" y2="142.19" fill="none" stroke="#221a38" stroke-linecap="round" stroke-miterlimit="10" stroke-width=".78"/>
    <line x1="411.32" y1="148.38" x2="414.28" y2="151.72" fill="none" stroke="#221a38" stroke-linecap="round" stroke-miterlimit="10" stroke-width=".78"/>
    <line x1="407.94" y1="158.58" x2="410.46" y2="161.47" fill="none" stroke="#221a38" stroke-linecap="round" stroke-miterlimit="10" stroke-width=".78"/>
    <line x1="419.33" y1="124.66" x2="423.45" y2="129.71" fill="none" stroke="#221a38" stroke-linecap="round" stroke-miterlimit="10" stroke-width=".78"/>
    <line x1="421.47" y1="118.1" x2="425.98" y2="123.55" fill="none" stroke="#221a38" stroke-linecap="round" stroke-miterlimit="10" stroke-width=".78"/>
    <path d="M427.49,132.24s-.02,0-.03,0c-2.65.12-4.5-.18-6.36-.91-.89-.35-.9-.75-1.34-.89-.38-.13-.96.13-1.86,0-3.55-.52-4.85-2.79-4.97-2.91-.43-.44-.45-1.17-.06-1.64.39-.46,1.05-.48,1.48-.05.07.07,4.51,4.46,13.01,4.09.58-.03,1.07.47,1.1,1.11.03.63-.4,1.16-.96,1.2Z" fill="#fff34a" stroke="#000" stroke-linecap="round" stroke-miterlimit="10" stroke-width=".93"/>
    <path d="M429.1,130.12s-.02,0-.03,0c-10.49.21-15.72-4.83-15.93-5.04-.46-.45-.46-1.18-.01-1.64.45-.45,1.18-.46,1.64-.01.05.04,1.72,1.47,4.31,2.5.29.12,1.13,1.16,1.45,1.27s1.35-.17,1.79-.17c2.1.03,3.81.84,6.71.78.64-.01,1.17.5,1.18,1.14.01.63-.48,1.15-1.11,1.18Z" fill="#fff34a" stroke="#000" stroke-linecap="round" stroke-miterlimit="10" stroke-width=".98"/>
    <g>
      <path d="M420.7,126.76s-.99,1.72-.98,4.13" fill="#fff34a" stroke="#000" stroke-linecap="round" stroke-miterlimit="10" stroke-width=".98"/>
      <g>
        <path d="M419.72,131.85c-.52,0-.95-.42-.95-.95-.02-2.63,1.06-4.53,1.11-4.61.17-.29.49-.48.83-.48.17,0,.33.04.47.13.45.26.61.84.35,1.3,0,.01-.86,1.56-.85,3.65,0,.51-.4.93-.91.96h-.04Z" fill="#fff34a"/>
        <path d="M420.7,126.3c.08,0,.16.02.23.06.22.13.3.41.17.63,0,.02-.93,1.65-.92,3.9,0,.25-.2.46-.44.47,0,0-.01,0-.02,0h0c-.26,0-.46-.21-.46-.46-.01-2.51,1-4.29,1.04-4.37.09-.15.24-.23.4-.23M420.7,125.32h0c-.51,0-.99.28-1.25.72-.12.21-1.19,2.14-1.17,4.86,0,.79.65,1.43,1.44,1.43h.05c.79-.04,1.39-.67,1.39-1.45-.01-1.95.78-3.4.79-3.41.39-.68.15-1.56-.54-1.96-.22-.13-.47-.19-.72-.19h0Z"/>
      </g>
    </g>
    <g>
      <path d="M381.28,148.56c-7.08,0-8.82-4.94-9.56-9.25-.13-.73.37-1.43,1.11-1.56.08-.01.15-.02.23-.02.66,0,1.22.47,1.33,1.13.87,5.1,2.74,7,6.89,7,2.29,0,3.72-2.09,6.05-5.77,1.88-2.98,4.02-6.35,7.5-9.11,4.97-3.94,10.33-5.93,15.93-5.93,4.89,0,8.22,1.6,8.36,1.67.67.33.95,1.14.62,1.81-.23.47-.69.76-1.22.76-.21,0-.41-.05-.59-.14-.3-.14-3.02-1.39-7.14-1.39-5,0-9.8,1.8-14.28,5.35-3.12,2.47-5.13,5.64-6.9,8.44-2.39,3.77-4.45,7.03-8.34,7.03Z" fill="#fff34a"/>
      <path d="M381.28,148.56c-7.08,0-8.82-4.94-9.56-9.25-.13-.73.37-1.43,1.11-1.56.08-.01.15-.02.23-.02.66,0,1.22.47,1.33,1.13.87,5.1,2.74,7,6.89,7,2.29,0,3.72-2.09,6.05-5.77,1.88-2.98,4.02-6.35,7.5-9.11,4.97-3.94,10.33-5.93,15.93-5.93,4.89,0,8.22,1.6,8.36,1.67.67.33.95,1.14.62,1.81-.23.47-.69.76-1.22.76-.21,0-.41-.05-.59-.14-.3-.14-3.02-1.39-7.14-1.39-5,0-9.8,1.8-14.28,5.35-3.12,2.47-5.13,5.64-6.9,8.44-2.39,3.77-4.45,7.03-8.34,7.03Z" fill="none" stroke="#000" stroke-miterlimit="10" stroke-width=".64"/>
    </g>
    <g>
      <path d="M387.95,157.37c-2.49,0-5.01-.89-6.91-2.44-1.84-1.51-4.76-5.01-3.62-11.57.11-.65.67-1.12,1.33-1.12.08,0,.16,0,.23.02.36.06.67.26.87.55.21.3.29.65.23,1.01-.67,3.86.27,7.06,2.67,9.01,1.42,1.16,3.32,1.82,5.21,1.82.91,0,1.76-.15,2.53-.45,3.12-1.22,4.18-3.46,6.09-7.52.92-1.96,1.97-4.18,3.49-6.8,6.46-11.09,16.78-12.29,20.92-12.29.87,0,1.37.06,1.37.06.74.09,1.27.76,1.18,1.5-.08.68-.66,1.19-1.34,1.19-.05,0-.11,0-.16,0-.09,0-.56-.06-1.32-.06-3.59,0-12.56,1.07-18.32,10.97-1.47,2.52-2.48,4.68-3.38,6.59-1.99,4.23-3.43,7.28-7.55,8.89-1.09.43-2.28.64-3.53.64Z" fill="#fff34a"/>
      <path d="M387.95,157.37c-2.49,0-5.01-.89-6.91-2.44-1.84-1.51-4.76-5.01-3.62-11.57.11-.65.67-1.12,1.33-1.12.08,0,.16,0,.23.02.36.06.67.26.87.55.21.3.29.65.23,1.01-.67,3.86.27,7.06,2.67,9.01,1.42,1.16,3.32,1.82,5.21,1.82.91,0,1.76-.15,2.53-.45,3.12-1.22,4.18-3.46,6.09-7.52.92-1.96,1.97-4.18,3.49-6.8,6.46-11.09,16.78-12.29,20.92-12.29.87,0,1.37.06,1.37.06.74.09,1.27.76,1.18,1.5-.08.68-.66,1.19-1.34,1.19-.05,0-.11,0-.16,0-.09,0-.56-.06-1.32-.06-3.59,0-12.56,1.07-18.32,10.97-1.47,2.52-2.48,4.68-3.38,6.59-1.99,4.23-3.43,7.28-7.55,8.89-1.09.43-2.28.64-3.53.64Z" fill="none" stroke="#000" stroke-miterlimit="10" stroke-width=".64"/>
    </g>
  </g>
  <path d="M470.31,127.6c-5.79,31.05-33.44,56.22-61.77,56.22-28.33,0-46.6-25.17-40.81-56.22,5.79-31.05,33.44-56.22,61.77-56.22,28.33,0,46.6,25.17,40.81,56.22Z" fill="#fff34a" opacity=".2"/>
  <g>
    <rect x="96.68" y="16.97" width="418.1" height="37.37" rx="18.68" ry="18.68" fill="#fff"/>
    <path d="M127.22,53.82s12.97,13.52,20.08,15.28l-9.46-24.98-10.62,9.69Z" fill="#fff"/>
  </g>
  <g>
    <path d="M116.55,43.93c-.76-.09-1.22-.34-1.39-.76-.17-.42-.17-.87-.01-1.37v-10.77c-.28,0-.54-.07-.76-.23-.22-.15-.4-.34-.53-.57-.13-.23-.2-.48-.2-.76s.08-.53.24-.76c.35-.53.81-.95,1.37-1.25.56-.3,1.14-.55,1.74-.74.94-.3,1.88-.47,2.82-.5.95-.04,1.88.16,2.8.58.83.39,1.48.89,1.96,1.51.48.62.78,1.28.9,1.98.12.7.06,1.41-.19,2.15-.25.73-.69,1.42-1.33,2.06.83.53,1.42,1.16,1.78,1.9.35.73.5,1.49.44,2.27-.06.78-.31,1.53-.74,2.25-.43.73-1.02,1.35-1.76,1.88-.44.32-.96.56-1.55.73-.59.17-1.2.29-1.83.36-.63.07-1.25.11-1.87.11s-1.18-.02-1.7-.05l-.19-.03ZM118.38,33.11h.95c.32,0,.63-.03.94-.09.31-.06.61-.16.9-.31.29-.14.55-.34.78-.61.34-.37.46-.76.36-1.18-.1-.42-.35-.75-.76-.99-.46-.3-.98-.46-1.56-.46-.58,0-1.12.06-1.62.2v3.45ZM122.2,37.2c-.32-.21-.63-.37-.93-.48-.3-.11-.61-.18-.92-.21-.31-.04-.62-.04-.94-.03-.32.02-.66.04-1.03.05v4.24c.39,0,.8-.01,1.25-.04.44-.03.87-.1,1.27-.21.41-.11.79-.28,1.14-.49.35-.21.64-.5.85-.88.05-.42.04-.79-.03-1.1-.07-.31-.29-.6-.66-.86Z"/>
    <path d="M139.84,41.23c.16.23.25.5.28.81.03.31,0,.6-.11.88-.1.27-.26.5-.48.68-.22.18-.51.26-.86.24-.46-.04-.83-.19-1.11-.48-.28-.28-.55-.6-.8-.95-.69.57-1.4.96-2.13,1.18-.73.22-1.45.27-2.16.15-.71-.12-1.37-.42-1.99-.89s-1.14-1.1-1.56-1.9c-.39-.74-.61-1.56-.65-2.47-.04-.9-.06-1.76-.04-2.57,0-.28,0-.56.03-.84.02-.27.04-.56.05-.86.02-.23.03-.45.03-.68s.01-.43.04-.62c.03-.19.08-.39.16-.58.08-.19.2-.38.36-.56.21-.23.47-.37.77-.41.3-.04.59-.01.86.09.27.11.51.27.72.49.2.22.31.49.33.81.04.9.01,1.81-.07,2.73-.08.92-.08,1.82.01,2.71.04.42.15.86.33,1.3.19.44.48.76.89.95.41.18.82.16,1.23-.04.42-.2.76-.45,1.02-.73.12-.14.24-.3.36-.46.11-.17.24-.31.38-.44-.07-.62-.12-1.24-.13-1.86-.02-.62-.02-1.24,0-1.86,0-.34.01-.7.04-1.1.03-.4.1-.78.21-1.14.11-.36.29-.68.52-.95.23-.27.56-.45.98-.52.19-.04.38-.02.57.05.19.07.35.17.49.29.25.21.42.45.5.72s.13.55.13.85-.02.61-.07.91c-.04.31-.08.6-.09.86-.04.5-.06,1.02-.08,1.56-.02.55,0,1.1.05,1.64.05.55.15,1.08.3,1.59.15.51.38.98.68,1.41Z"/>
    <path d="M142.15,34.47c-.35-.09-.66-.24-.91-.45-.26-.21-.43-.46-.53-.74-.1-.28-.1-.57,0-.88.1-.3.31-.57.65-.82.28-.21.6-.32.95-.32h1.03c0-.12,0-.39-.03-.81-.02-.42-.02-.87-.01-1.37,0-.49.04-.97.09-1.42.05-.45.15-.76.29-.94.35-.49.79-.73,1.31-.7.52.03.95.28,1.29.76.07.09.14.19.2.32.06.12.09.24.09.34.02.64.02,1.27.01,1.91,0,.64-.01,1.27-.01,1.91h2.1c.32,0,.59.11.82.32.23.21.39.46.49.74.1.28.12.57.08.88-.04.3-.18.55-.41.74-.41.34-.88.51-1.42.53-.54.02-1.09.03-1.66.03,0,.97,0,1.95-.01,2.92,0,.97,0,1.94.01,2.92,0,.42.02.86.07,1.3.04.44.01.87-.09,1.27-.09.32-.24.57-.45.76-.21.19-.45.3-.72.34-.27.04-.54.03-.82-.05-.28-.08-.55-.23-.8-.44-.12-.12-.22-.34-.28-.64-.06-.3-.1-.62-.12-.95-.02-.39-.02-.8,0-1.25v-1.38c0-.57,0-1.15-.01-1.76,0-.61-.01-1.19-.01-1.74v-1.3l-1.19-.03Z"/>
    <path d="M173.15,42.13c.14.51.11.94-.08,1.27-.19.34-.46.56-.81.68s-.72.1-1.13-.04c-.41-.14-.76-.42-1.06-.85-.5.37-.98.63-1.45.78-.47.15-1,.23-1.6.25-.9.04-1.71-.07-2.41-.3-.71-.24-1.3-.6-1.79-1.07-.49-.48-.84-1.07-1.07-1.79-.23-.72-.31-1.54-.24-2.48.04-.39.1-.77.2-1.14.1-.37.21-.73.33-1.09.14-.39.34-.8.6-1.25.26-.44.52-.82.78-1.14.95-1.17,2.15-2.01,3.58-2.52.25-.09.58-.17,1.01-.24.42-.07.85-.1,1.29-.09.43,0,.85.07,1.25.17.4.11.69.29.89.56.16.21.27.4.34.56.07.16.11.33.12.5,0,.18,0,.37,0,.57,0,.2-.01.46-.01.76,0,.5,0,.98-.01,1.45,0,.47,0,.94.01,1.42v.62c0,.26,0,.53.03.81.02.28.04.55.07.81.03.26.07.46.12.62l1.06,2.17ZM167.52,40.94c.19-.12.42-.26.66-.41.25-.15.47-.32.66-.52-.16-.94-.25-1.87-.28-2.81-.03-.94-.02-1.88.01-2.84-.8.14-1.51.49-2.15,1.03-.64.55-1.08,1.19-1.33,1.94-.11.3-.2.61-.27.93-.07.32-.1.63-.08.93.02.41.12.75.32,1.02.19.27.43.48.7.62.27.14.57.22.88.24.31.02.6-.03.86-.13Z"/>
    <path d="M175.35,34.47c-.35-.09-.66-.24-.92-.45-.26-.21-.43-.46-.53-.74-.1-.28-.1-.57,0-.88.1-.3.31-.57.65-.82.28-.21.6-.32.96-.32h1.03c0-.12,0-.39-.03-.81-.02-.42-.02-.87-.01-1.37,0-.49.04-.97.09-1.42.05-.45.15-.76.29-.94.35-.49.79-.73,1.31-.7s.95.28,1.29.76c.07.09.14.19.2.32.06.12.09.24.09.34.02.64.02,1.27.01,1.91,0,.64-.01,1.27-.01,1.91h2.09c.32,0,.59.11.82.32.23.21.39.46.49.74.1.28.12.57.08.88-.04.3-.18.55-.41.74-.41.34-.88.51-1.42.53-.54.02-1.09.03-1.66.03,0,.97,0,1.95-.01,2.92,0,.97,0,1.94.01,2.92,0,.42.02.86.07,1.3.04.44.01.87-.09,1.27-.09.32-.24.57-.45.76-.21.19-.45.3-.72.34-.27.04-.54.03-.82-.05-.28-.08-.55-.23-.8-.44-.12-.12-.22-.34-.28-.64-.06-.3-.1-.62-.12-.95-.02-.39-.02-.8,0-1.25v-1.38c0-.57,0-1.15-.01-1.76,0-.61-.01-1.19-.01-1.74v-1.3l-1.19-.03Z"/>
    <path d="M198.74,41.65c.19.18.36.4.49.68.13.27.2.55.21.82,0,.27-.05.53-.19.77-.13.24-.37.42-.7.54-.27.09-.56.11-.88.05-.32-.05-.63-.16-.94-.32-.31-.16-.58-.35-.82-.57-.24-.22-.41-.46-.52-.73-.04-.09-.06-.19-.08-.31-.02-.11-.03-.22-.03-.3v-14.72c0-.41.15-.75.46-1.03.31-.28.65-.45,1.02-.5.18-.02.37,0,.57.08.2.07.39.17.57.3s.32.29.44.46c.11.18.17.36.17.56v1.83c0,.76,0,1.59.01,2.49s.01,1.83.01,2.8,0,1.89-.01,2.77c0,.88-.01,1.69-.01,2.43s0,1.32-.03,1.76l.24.13Z"/>
    <path d="M210.8,39.74c.42-.11.8-.11,1.13-.01.33.1.58.26.76.49.18.23.26.51.24.85-.02.34-.17.69-.45,1.06-.23.3-.55.56-.96.77s-.79.38-1.14.5c-.87.32-1.69.54-2.47.66-.78.12-1.51.12-2.19,0-.68-.12-1.32-.38-1.91-.77-.59-.39-1.15-.94-1.66-1.64-.35-.48-.61-1.02-.78-1.63s-.26-1.23-.28-1.87c-.02-.64.04-1.26.16-1.88.12-.62.3-1.18.53-1.67.3-.62.78-1.18,1.43-1.7.65-.51,1.38-.92,2.17-1.22.8-.3,1.61-.47,2.44-.52.83-.04,1.56.08,2.2.38.53.25.99.61,1.37,1.07.38.47.64.98.78,1.52.14.55.15,1.1.04,1.66-.12.56-.4,1.07-.86,1.52-.44.44-.93.8-1.46,1.07-.53.27-1.08.51-1.64.72-.57.2-1.15.38-1.74.52-.59.14-1.16.3-1.71.48.37.42.8.69,1.27.81.48.12.98.14,1.5.07.52-.07,1.05-.22,1.58-.44.53-.22,1.03-.46,1.49-.73l.16-.08ZM205.45,35.18c-.41.23-.71.52-.9.86-.19.34-.34.83-.42,1.45.46-.14.98-.29,1.55-.45.57-.16,1.12-.33,1.63-.5.51-.18.95-.37,1.3-.58.35-.21.53-.44.53-.69,0-.14-.02-.28-.07-.41-.04-.13-.14-.23-.28-.28-.5-.18-1.01-.21-1.54-.11-.53.11-.97.26-1.33.45l-.48.27Z"/>
    <path d="M225.92,42.13c.14.51.11.94-.08,1.27-.19.34-.46.56-.81.68s-.72.1-1.13-.04c-.41-.14-.76-.42-1.06-.85-.5.37-.98.63-1.45.78-.47.15-1,.23-1.6.25-.9.04-1.71-.07-2.41-.3-.71-.24-1.3-.6-1.79-1.07-.49-.48-.84-1.07-1.07-1.79-.23-.72-.31-1.54-.24-2.48.04-.39.1-.77.2-1.14.1-.37.21-.73.33-1.09.14-.39.34-.8.6-1.25.26-.44.52-.82.78-1.14.95-1.17,2.15-2.01,3.58-2.52.25-.09.58-.17,1.01-.24.42-.07.85-.1,1.29-.09.43,0,.85.07,1.25.17.4.11.69.29.89.56.16.21.27.4.34.56s.11.33.12.5c0,.18,0,.37,0,.57,0,.2-.01.46-.01.76,0,.5,0,.98-.01,1.45,0,.47,0,.94.01,1.42v.62c0,.26,0,.53.03.81.02.28.04.55.07.81.03.26.07.46.12.62l1.06,2.17ZM220.3,40.94c.19-.12.42-.26.66-.41.25-.15.47-.32.66-.52-.16-.94-.25-1.87-.28-2.81-.03-.94-.02-1.88.01-2.84-.8.14-1.51.49-2.15,1.03-.64.55-1.08,1.19-1.33,1.94-.11.3-.19.61-.27.93-.07.32-.1.63-.08.93.02.41.12.75.32,1.02.19.27.43.48.7.62.27.14.57.22.88.24.31.02.6-.03.86-.13Z"/>
    <path d="M227.43,41.52c-.11-.3-.15-.6-.13-.89.02-.29.09-.56.23-.8.13-.24.32-.42.57-.56.25-.13.55-.18.9-.15.19.02.37.07.53.16.16.09.3.19.44.32.13.12.27.26.4.4.13.14.27.27.41.37.3.23.62.4.95.5.34.11.69.19,1.06.24.25,0,.45-.06.6-.19.15-.12.25-.27.31-.45.05-.18.07-.37.04-.57-.03-.2-.09-.37-.2-.49-.3-.3-.67-.49-1.1-.58-.43-.09-.84-.19-1.21-.32-.53-.18-1.05-.4-1.56-.68-.51-.27-.93-.65-1.25-1.13-.34-.49-.54-1.02-.6-1.58-.06-.56-.02-1.1.13-1.63.15-.53.4-1.02.76-1.46.35-.44.78-.8,1.27-1.09.37-.21.78-.35,1.22-.41.44-.06.89-.08,1.34-.04.45.04.9.12,1.34.25.44.13.85.28,1.22.44.42.19.74.47.95.82.21.35.31.71.31,1.07,0,.36-.13.68-.37.94-.24.27-.59.4-1.05.4-.28,0-.54-.05-.77-.15-.23-.1-.47-.19-.72-.28-.32-.12-.66-.21-1.03-.25-.37-.04-.67-.02-.9.07-.07.02-.15.08-.24.17s-.15.22-.2.36c-.04.14-.05.28-.03.42.03.14.12.26.28.34.42.23.88.41,1.35.53.48.12.95.27,1.41.42.46.16.89.36,1.29.61.4.25.73.6.99,1.06.39.67.59,1.37.6,2.11,0,.73-.14,1.42-.44,2.06-.3.64-.74,1.18-1.33,1.63s-1.26.72-2.04.81c-.55.05-1.09.02-1.62-.09-.53-.12-1.04-.3-1.54-.56-.5-.26-.95-.56-1.38-.92-.42-.35-.8-.72-1.11-1.11l-.08-.16Z"/>
    <path d="M239.79,34.47c-.35-.09-.66-.24-.92-.45-.26-.21-.43-.46-.53-.74-.1-.28-.1-.57,0-.88.1-.3.31-.57.65-.82.28-.21.6-.32.96-.32h1.03c0-.12,0-.39-.03-.81-.02-.42-.02-.87-.01-1.37,0-.49.04-.97.09-1.42.05-.45.15-.76.29-.94.35-.49.79-.73,1.31-.7s.95.28,1.29.76c.07.09.14.19.2.32.06.12.09.24.09.34.02.64.02,1.27.01,1.91,0,.64-.01,1.27-.01,1.91h2.09c.32,0,.59.11.82.32.23.21.39.46.49.74.1.28.12.57.08.88-.04.3-.18.55-.41.74-.41.34-.88.51-1.42.53-.54.02-1.09.03-1.66.03,0,.97,0,1.95-.01,2.92,0,.97,0,1.94.01,2.92,0,.42.02.86.07,1.3.04.44.01.87-.09,1.27-.09.32-.24.57-.45.76-.21.19-.45.3-.72.34-.27.04-.54.03-.82-.05-.28-.08-.55-.23-.8-.44-.12-.12-.22-.34-.28-.64-.06-.3-.1-.62-.12-.95-.02-.39-.02-.8,0-1.25v-1.38c0-.57,0-1.15-.01-1.76,0-.61-.01-1.19-.01-1.74v-1.3l-1.19-.03Z"/>
    <path d="M266.25,40.51c.46.02.84.15,1.14.41.3.26.49.55.58.89.09.34.06.67-.08.99-.14.33-.43.58-.88.76-.32.12-.69.2-1.13.24-.43.04-.87.05-1.3.04-.43,0-.84-.03-1.21-.05-.37-.03-.65-.04-.85-.04h-1.56c-.37,0-.69-.1-.96-.31-.26-.2-.46-.45-.57-.73-.12-.28-.14-.58-.08-.9.06-.32.23-.61.49-.88.25-.25.57-.39.98-.42.41-.04.81-.04,1.22,0v-10.5c-.41,0-.79,0-1.14-.01-.35,0-.71-.14-1.06-.38-.27-.19-.44-.42-.53-.68-.09-.26-.1-.51-.04-.77.06-.26.18-.5.36-.73.18-.23.4-.4.66-.5.25-.11.5-.16.77-.16.9,0,1.81,0,2.72-.01.91,0,1.83,0,2.74.01.09,0,.17.03.25.08.08.05.16.1.25.13.41.23.68.56.82.98.14.42.09.84-.16,1.25-.12.21-.28.38-.46.49-.19.11-.39.19-.61.24-.22.04-.45.07-.68.07h-.66v10.55c.14,0,.27,0,.38-.01.11,0,.24-.02.38-.04h.19Z"/>
    <path d="M283.15,43.84c-.35.26-.72.38-1.1.36-.38-.02-.72-.17-1.01-.46-.29-.29-.44-.69-.44-1.21v-14.74c0-.41.16-.75.48-1.03.32-.28.67-.46,1.06-.53.39-.07.75,0,1.09.19.34.19.52.56.56,1.09.07.92.1,1.82.09,2.69,0,.88-.02,1.75-.04,2.64.65-.44,1.33-.74,2.04-.89.71-.15,1.39-.15,2.04.01.65.16,1.26.48,1.83.95.57.48,1.03,1.14,1.38,1.99.25.57.42,1.17.5,1.82.09.65.14,1.3.15,1.96,0,.66,0,1.32-.03,1.98-.03.65-.04,1.27-.04,1.86,0,.37-.1.71-.29,1.01-.19.3-.44.52-.73.66-.29.14-.6.19-.93.13-.33-.05-.62-.25-.89-.58-.27-.35-.43-.77-.49-1.25-.06-.48-.08-.99-.05-1.52.03-.54.07-1.09.12-1.66.05-.57.07-1.11.04-1.63-.03-.52-.13-1-.31-1.45-.18-.44-.49-.8-.93-1.09-.35-.05-.67-.03-.95.07-.28.1-.54.24-.77.44-.23.19-.45.42-.65.66-.2.25-.41.5-.62.74-.05.09-.12.17-.19.25-.07.08-.15.16-.24.25v5.04c-.11.58-.34,1-.69,1.26Z"/>
    <path d="M305.48,42.13c.14.51.11.94-.08,1.27-.19.34-.46.56-.81.68-.35.11-.72.1-1.13-.04-.41-.14-.76-.42-1.06-.85-.5.37-.98.63-1.45.78-.47.15-1,.23-1.6.25-.9.04-1.71-.07-2.41-.3-.71-.24-1.3-.6-1.79-1.07-.49-.48-.84-1.07-1.07-1.79-.23-.72-.31-1.54-.24-2.48.04-.39.1-.77.2-1.14.1-.37.21-.73.33-1.09.14-.39.34-.8.6-1.25.26-.44.52-.82.78-1.14.96-1.17,2.15-2.01,3.58-2.52.25-.09.58-.17,1.01-.24.42-.07.85-.1,1.29-.09.43,0,.85.07,1.25.17.4.11.69.29.89.56.16.21.27.4.34.56.07.16.11.33.12.5,0,.18,0,.37,0,.57,0,.2-.01.46-.01.76,0,.5,0,.98-.01,1.45,0,.47,0,.94.01,1.42v.62c0,.26,0,.53.03.81.02.28.04.55.07.81.03.26.07.46.12.62l1.06,2.17ZM299.85,40.94c.19-.12.42-.26.66-.41.25-.15.47-.32.66-.52-.16-.94-.25-1.87-.28-2.81-.03-.94-.02-1.88.01-2.84-.8.14-1.51.49-2.15,1.03-.64.55-1.08,1.19-1.33,1.94-.11.3-.19.61-.27.93-.07.32-.1.63-.08.93.02.41.12.75.32,1.02.19.27.43.48.7.62.27.14.57.22.88.24.31.02.6-.03.86-.13Z"/>
    <path d="M314.23,31.84c.27-.35.57-.6.91-.73s.67-.16.97-.08c.3.08.56.26.77.54.21.28.33.66.34,1.14,0,.12-.02.28-.07.48-.04.19-.1.39-.17.6-.07.2-.13.39-.19.56-.05.17-.09.28-.11.33-.3.95-.65,1.98-1.05,3.09-.4,1.11-.76,2.13-1.1,3.09-.14.41-.29.79-.44,1.15-.15.36-.31.74-.46,1.13-.12.32-.31.57-.54.77-.24.19-.5.32-.77.37-.27.05-.55.03-.83-.08-.28-.11-.53-.3-.74-.58-.14-.19-.26-.44-.36-.74-.1-.3-.17-.52-.23-.66-.19-.51-.39-1.02-.58-1.51-.19-.49-.39-.99-.58-1.49-.27-.67-.54-1.33-.82-1.99-.28-.65-.57-1.3-.88-1.94-.18-.39-.37-.77-.58-1.14-.21-.37-.37-.76-.48-1.17-.11-.37-.09-.7.04-.99.13-.29.33-.52.58-.68.26-.16.55-.25.88-.27.33-.02.64.07.94.27.23.14.44.36.64.66.19.3.37.63.53.98.16.35.31.7.44,1.05.13.34.25.63.36.86.25.57.49,1.13.73,1.7.24.57.47,1.13.7,1.7.37-1.04.73-2.08,1.07-3.12.34-1.03.67-2.08.97-3.14l.11-.16Z"/>
    <path d="M328.31,39.74c.42-.11.8-.11,1.13-.01.33.1.58.26.76.49.18.23.26.51.24.85-.02.34-.17.69-.45,1.06-.23.3-.55.56-.95.77-.41.21-.79.38-1.14.5-.87.32-1.69.54-2.47.66-.78.12-1.51.12-2.19,0-.68-.12-1.32-.38-1.91-.77s-1.14-.94-1.66-1.64c-.35-.48-.61-1.02-.78-1.63-.17-.61-.26-1.23-.28-1.87-.02-.64.04-1.26.16-1.88.12-.62.3-1.18.53-1.67.3-.62.78-1.18,1.43-1.7.65-.51,1.38-.92,2.17-1.22.8-.3,1.61-.47,2.44-.52.83-.04,1.56.08,2.2.38.53.25.99.61,1.37,1.07.38.47.64.98.78,1.52.14.55.15,1.1.04,1.66-.12.56-.4,1.07-.86,1.52-.44.44-.93.8-1.46,1.07-.53.27-1.08.51-1.64.72-.57.2-1.15.38-1.74.52-.59.14-1.16.3-1.71.48.37.42.8.69,1.27.81.48.12.98.14,1.5.07.52-.07,1.05-.22,1.58-.44.53-.22,1.03-.46,1.49-.73l.16-.08ZM322.95,35.18c-.41.23-.71.52-.9.86-.19.34-.34.83-.42,1.45.46-.14.98-.29,1.55-.45.57-.16,1.12-.33,1.63-.5.51-.18.95-.37,1.3-.58.35-.21.53-.44.53-.69,0-.14-.02-.28-.07-.41-.04-.13-.14-.23-.28-.28-.5-.18-1.01-.21-1.54-.11-.53.11-.97.26-1.33.45l-.48.27Z"/>
    <path d="M350.61,31.6c.21-.35.48-.6.8-.73s.63-.16.94-.09c.31.07.58.23.82.48.24.25.38.57.44.98.04.3-.02.73-.17,1.27-.15.55-.34,1.11-.56,1.7-.22.58-.45,1.14-.68,1.67-.23.53-.42.95-.56,1.25-.6,1.33-1.26,2.63-1.96,3.9s-1.43,2.54-2.17,3.79c-.11.19-.23.43-.37.72-.14.28-.29.57-.44.88-.15.3-.31.58-.46.85-.16.27-.31.46-.45.58-.32.3-.65.48-.98.53-.34.05-.64,0-.92-.13-.27-.14-.5-.36-.66-.66-.17-.3-.23-.66-.2-1.09.02-.16.09-.37.21-.62.12-.26.27-.52.42-.8.16-.27.32-.53.48-.78.16-.25.28-.45.37-.61.35-.58.69-1.17,1.02-1.75.33-.58.66-1.17.99-1.75-1.17-.97-2.18-2.06-3.04-3.25s-1.52-2.51-1.98-3.94c-.09-.25-.18-.49-.27-.74-.09-.25-.12-.5-.08-.77.04-.3.12-.57.25-.81.13-.24.3-.43.52-.58.21-.15.46-.23.73-.25.27-.02.55.04.84.19.23.12.41.3.54.52.13.22.24.46.33.72.09.26.16.52.23.78s.14.5.23.72c.71,1.75,1.78,3.24,3.21,4.48.51-1.06.97-2.13,1.38-3.2.41-1.07.77-2.16,1.09-3.28l.11-.16Z"/>
    <path d="M354.11,36.96c.12-.51.3-1.02.52-1.51.22-.49.49-.97.81-1.42.32-.45.68-.86,1.07-1.23s.83-.67,1.29-.9c.81-.42,1.63-.64,2.45-.65.82,0,1.59.16,2.29.49.71.34,1.31.84,1.8,1.5.49.66.82,1.45.98,2.37.09.6.14,1.17.15,1.71,0,.54-.05,1.1-.17,1.68-.18.83-.53,1.66-1.07,2.48-.54.82-1.18,1.51-1.94,2.07s-1.57.92-2.47,1.1c-.89.18-1.79.04-2.69-.42-.41-.19-.77-.42-1.1-.68s-.62-.56-.89-.92c-.3-.39-.54-.8-.7-1.22s-.3-.87-.41-1.33c-.12-.49-.17-.99-.13-1.5.04-.5.1-.99.19-1.47l.03-.16ZM357.29,37.52c-.05.28-.1.56-.13.84-.04.27-.04.55,0,.84.05.41.16.78.33,1.11.17.34.39.6.66.8.27.19.59.3.94.3.35,0,.73-.1,1.14-.33.51-.3.95-.76,1.33-1.39.37-.63.6-1.28.69-1.96.09-.68.02-1.33-.21-1.94-.23-.61-.68-1.05-1.35-1.31-.44,0-.85.08-1.22.25-.37.17-.69.39-.97.66s-.51.6-.72.97c-.2.37-.37.76-.49,1.17Z"/>
    <path d="M378.96,41.23c.16.23.25.5.28.81.03.31,0,.6-.11.88-.1.27-.26.5-.48.68-.22.18-.51.26-.86.24-.46-.04-.83-.19-1.11-.48-.28-.28-.55-.6-.8-.95-.69.57-1.4.96-2.14,1.18-.73.22-1.45.27-2.16.15-.71-.12-1.37-.42-1.99-.89-.62-.47-1.14-1.1-1.56-1.9-.39-.74-.61-1.56-.65-2.47-.04-.9-.06-1.76-.04-2.57,0-.28,0-.56.03-.84.02-.27.04-.56.05-.86.02-.23.03-.45.03-.68s.01-.43.04-.62c.03-.19.08-.39.16-.58.08-.19.2-.38.36-.56.21-.23.47-.37.77-.41.3-.04.59-.01.86.09.27.11.51.27.72.49.2.22.31.49.33.81.04.9.01,1.81-.07,2.73-.08.92-.08,1.82.01,2.71.04.42.15.86.33,1.3.19.44.48.76.89.95.41.18.82.16,1.23-.04.42-.2.76-.45,1.02-.73.12-.14.24-.3.36-.46.11-.17.24-.31.38-.44-.07-.62-.12-1.24-.13-1.86-.02-.62-.02-1.24,0-1.86,0-.34.01-.7.04-1.1.03-.4.1-.78.21-1.14.11-.36.29-.68.52-.95.23-.27.56-.45.98-.52.19-.04.38-.02.57.05.19.07.35.17.49.29.25.21.42.45.5.72.09.27.13.55.13.85s-.02.61-.07.91c-.04.31-.08.6-.09.86-.04.5-.06,1.02-.08,1.56-.02.55,0,1.1.05,1.64.05.55.15,1.08.31,1.59.15.51.38.98.68,1.41Z"/>
    <path d="M392.67,34.47c-.35-.09-.66-.24-.92-.45-.26-.21-.43-.46-.53-.74-.1-.28-.1-.57,0-.88.1-.3.31-.57.65-.82.28-.21.6-.32.95-.32h1.03c0-.12,0-.39-.03-.81-.02-.42-.02-.87-.01-1.37,0-.49.04-.97.09-1.42.05-.45.15-.76.29-.94.35-.49.79-.73,1.31-.7s.95.28,1.29.76c.07.09.14.19.2.32.06.12.09.24.09.34.02.64.02,1.27.01,1.91,0,.64-.01,1.27-.01,1.91h2.09c.32,0,.59.11.82.32.23.21.39.46.49.74.1.28.12.57.08.88-.04.3-.18.55-.41.74-.41.34-.88.51-1.42.53-.54.02-1.09.03-1.66.03,0,.97,0,1.95-.01,2.92,0,.97,0,1.94.01,2.92,0,.42.02.86.07,1.3.04.44.01.87-.09,1.27-.09.32-.24.57-.45.76-.21.19-.45.3-.72.34-.27.04-.54.03-.82-.05s-.55-.23-.8-.44c-.12-.12-.22-.34-.28-.64-.06-.3-.1-.62-.12-.95-.02-.39-.02-.8,0-1.25v-1.38c0-.57,0-1.15-.01-1.76,0-.61-.01-1.19-.01-1.74v-1.3l-1.19-.03Z"/>
    <path d="M400.68,36.96c.12-.51.3-1.02.52-1.51.22-.49.49-.97.81-1.42.32-.45.68-.86,1.07-1.23.4-.37.83-.67,1.29-.9.81-.42,1.63-.64,2.45-.65.82,0,1.59.16,2.29.49.71.34,1.31.84,1.8,1.5.49.66.82,1.45.98,2.37.09.6.14,1.17.15,1.71,0,.54-.05,1.1-.17,1.68-.18.83-.53,1.66-1.07,2.48-.54.82-1.18,1.51-1.94,2.07s-1.57.92-2.47,1.1c-.89.18-1.79.04-2.69-.42-.41-.19-.77-.42-1.1-.68s-.62-.56-.89-.92c-.3-.39-.53-.8-.7-1.22-.17-.42-.31-.87-.41-1.33-.12-.49-.17-.99-.13-1.5.04-.5.1-.99.19-1.47l.03-.16ZM403.86,37.52c-.05.28-.1.56-.13.84-.04.27-.04.55,0,.84.05.41.16.78.33,1.11.17.34.39.6.66.8.27.19.59.3.94.3.35,0,.73-.1,1.14-.33.51-.3.95-.76,1.33-1.39.37-.63.6-1.28.69-1.96.09-.68.02-1.33-.21-1.94-.23-.61-.68-1.05-1.35-1.31-.44,0-.85.08-1.22.25-.37.17-.69.39-.97.66-.27.27-.51.6-.72.97-.2.37-.37.76-.49,1.17Z"/>
    <path d="M425.29,34.47c-.35-.09-.66-.24-.91-.45-.26-.21-.43-.46-.53-.74-.1-.28-.1-.57,0-.88.1-.3.31-.57.65-.82.28-.21.6-.32.95-.32h1.03c0-.12,0-.39-.03-.81-.02-.42-.02-.87-.01-1.37,0-.49.04-.97.09-1.42.05-.45.15-.76.29-.94.35-.49.79-.73,1.31-.7.52.03.95.28,1.29.76.07.09.14.19.2.32.06.12.09.24.09.34.02.64.02,1.27.01,1.91s-.01,1.27-.01,1.91h2.1c.32,0,.59.11.82.32.23.21.39.46.49.74.1.28.12.57.08.88-.04.3-.18.55-.41.74-.41.34-.88.51-1.42.53-.54.02-1.09.03-1.66.03,0,.97,0,1.95-.01,2.92,0,.97,0,1.94.01,2.92,0,.42.02.86.07,1.3.04.44.01.87-.09,1.27-.09.32-.24.57-.45.76-.21.19-.45.3-.72.34-.27.04-.54.03-.82-.05-.28-.08-.55-.23-.8-.44-.12-.12-.22-.34-.28-.64-.06-.3-.1-.62-.12-.95-.02-.39-.02-.8,0-1.25v-1.38c0-.57,0-1.15-.01-1.76,0-.61-.01-1.19-.01-1.74v-1.3l-1.19-.03Z"/>
    <path d="M444.44,42.13c.14.51.12.94-.08,1.27-.19.34-.46.56-.81.68s-.72.1-1.13-.04c-.41-.14-.76-.42-1.06-.85-.5.37-.98.63-1.45.78-.47.15-1,.23-1.6.25-.9.04-1.71-.07-2.41-.3-.71-.24-1.3-.6-1.79-1.07-.49-.48-.84-1.07-1.07-1.79-.23-.72-.31-1.54-.24-2.48.04-.39.1-.77.2-1.14.1-.37.21-.73.33-1.09.14-.39.34-.8.6-1.25.26-.44.52-.82.78-1.14.96-1.17,2.15-2.01,3.58-2.52.25-.09.58-.17,1.01-.24.42-.07.85-.1,1.29-.09.43,0,.85.07,1.25.17.4.11.69.29.89.56.16.21.27.4.34.56s.11.33.12.5c0,.18,0,.37,0,.57,0,.2-.01.46-.01.76,0,.5,0,.98-.01,1.45,0,.47,0,.94.01,1.42v.62c0,.26,0,.53.03.81.02.28.04.55.07.81.03.26.07.46.12.62l1.06,2.17ZM438.81,40.94c.19-.12.42-.26.66-.41.25-.15.47-.32.66-.52-.16-.94-.25-1.87-.28-2.81-.03-.94-.02-1.88.01-2.84-.8.14-1.51.49-2.15,1.03-.64.55-1.08,1.19-1.33,1.94-.11.3-.19.61-.27.93-.07.32-.1.63-.08.93.02.41.12.75.32,1.02.19.27.43.48.7.62.27.14.57.22.88.24.31.02.6-.03.86-.13Z"/>
    <path d="M450.03,41.65c.19.18.36.4.49.68.13.27.2.55.21.82,0,.27-.05.53-.19.77-.13.24-.37.42-.7.54-.27.09-.56.11-.88.05-.32-.05-.63-.16-.94-.32-.31-.16-.58-.35-.82-.57-.24-.22-.41-.46-.52-.73-.04-.09-.06-.19-.08-.31-.02-.11-.03-.22-.03-.3v-14.72c0-.41.15-.75.46-1.03.31-.28.65-.45,1.02-.5.18-.02.37,0,.57.08.2.07.39.17.57.3.18.13.32.29.44.46.11.18.17.36.17.56v1.83c0,.76,0,1.59.01,2.49,0,.9.01,1.83.01,2.8s0,1.89-.01,2.77c0,.88-.01,1.69-.01,2.43s0,1.32-.03,1.76l.24.13Z"/>
    <path d="M456.69,43.71c-.35.26-.72.38-1.1.36-.38-.02-.72-.17-1.01-.46-.29-.29-.44-.69-.44-1.21v-15.12c0-.27.08-.51.23-.73.15-.22.34-.4.57-.54.23-.14.48-.23.76-.28.27-.04.53-.04.76.03.23.06.43.19.6.4.17.2.26.48.28.84.05,1.38.08,2.62.08,3.71s0,2.2-.03,3.31c.41-.3.79-.61,1.15-.94.36-.33.72-.67,1.07-1.02.32-.34.63-.71.93-1.13.3-.42.68-.7,1.14-.86.34-.11.65-.12.94-.05.29.07.54.21.74.41.2.2.34.45.41.74.07.29.05.61-.05.94-.09.25-.29.56-.6.93-.31.37-.65.75-1.03,1.14-.38.39-.76.75-1.13,1.07-.37.33-.67.58-.9.76.62.67,1.23,1.35,1.83,2.04.6.69,1.21,1.38,1.83,2.07.27.3.52.57.76.81.24.24.45.53.62.86.14.28.19.57.13.88-.05.3-.17.56-.36.78-.19.22-.42.38-.69.49-.27.11-.57.11-.89.03-.3-.09-.59-.25-.88-.49-.28-.24-.55-.5-.81-.78-.26-.28-.5-.57-.73-.88-.23-.3-.44-.56-.64-.77-.48-.55-.95-1.09-1.42-1.63-.47-.54-.95-1.06-1.45-1.58v4.61c-.11.58-.34,1-.69,1.26Z"/>
    <path d="M478.99,34.47c-.35-.09-.66-.24-.91-.45-.26-.21-.43-.46-.53-.74-.1-.28-.1-.57,0-.88.1-.3.31-.57.65-.82.28-.21.6-.32.95-.32h1.03c0-.12,0-.39-.03-.81-.02-.42-.02-.87-.01-1.37,0-.49.04-.97.09-1.42.05-.45.15-.76.29-.94.35-.49.79-.73,1.31-.7.52.03.95.28,1.29.76.07.09.14.19.2.32.06.12.09.24.09.34.02.64.02,1.27.01,1.91s-.01,1.27-.01,1.91h2.1c.32,0,.59.11.82.32.23.21.39.46.49.74.1.28.12.57.08.88-.04.3-.18.55-.41.74-.41.34-.88.51-1.42.53-.54.02-1.09.03-1.66.03,0,.97,0,1.95-.01,2.92,0,.97,0,1.94.01,2.92,0,.42.02.86.07,1.3.04.44.01.87-.09,1.27-.09.32-.24.57-.45.76-.21.19-.45.3-.72.34-.27.04-.54.03-.82-.05-.28-.08-.55-.23-.8-.44-.12-.12-.22-.34-.28-.64-.06-.3-.1-.62-.12-.95-.02-.39-.02-.8,0-1.25v-1.38c0-.57,0-1.15-.01-1.76,0-.61-.01-1.19-.01-1.74v-1.3l-1.19-.03Z"/>
    <path d="M487,36.96c.12-.51.3-1.02.52-1.51.22-.49.49-.97.81-1.42.32-.45.68-.86,1.07-1.23.4-.37.83-.67,1.29-.9.81-.42,1.63-.64,2.45-.65.82,0,1.59.16,2.29.49.71.34,1.31.84,1.8,1.5.49.66.82,1.45.98,2.37.09.6.14,1.17.15,1.71,0,.54-.05,1.1-.17,1.68-.18.83-.53,1.66-1.07,2.48-.54.82-1.18,1.51-1.94,2.07s-1.57.92-2.47,1.1c-.89.18-1.79.04-2.69-.42-.41-.19-.77-.42-1.1-.68s-.62-.56-.89-.92c-.3-.39-.54-.8-.7-1.22s-.3-.87-.41-1.33c-.12-.49-.17-.99-.13-1.5.04-.5.1-.99.19-1.47l.03-.16ZM490.18,37.52c-.05.28-.1.56-.13.84-.04.27-.04.55,0,.84.05.41.16.78.33,1.11.17.34.39.6.66.8.27.19.59.3.94.3.35,0,.73-.1,1.14-.33.51-.3.95-.76,1.33-1.39.37-.63.6-1.28.69-1.96.09-.68.02-1.33-.21-1.94-.23-.61-.68-1.05-1.35-1.31-.44,0-.85.08-1.22.25-.37.17-.69.39-.97.66s-.51.6-.72.97c-.2.37-.37.76-.49,1.17Z"/>
  </g>
  <path d="M290.11,76.55s-45.49-16.58-70.12,23.84c-24.63,40.42,1.04,80.19,49.67,72.62,0,0,14.01,4.06,19.48,10.58,5.05,6.01,12.74,23.3,15.63,22.85,2.71-.42,12.97-15.01,24.29-27.18,14.81-15.91,19.94-18.56,22.85-19.84,6.24-2.76,6.78-1.28,12.27,5.65,2.16,2.73,6.37.98,1,8.4-9.75,13.48-28.54,42.56-55.12,61.6-9.32,6.68-21.51-13.63-21.89-8.66-.74,9.67-6.46,45.75,0,56.52,1.44,2.41,38.36-12.37,43.54,4.57,5.29,17.32-21.12,31.88-22.13,34.4-1.68,4.21-25.55,12.33-31.03,9.38s-6.19-15.81-7.46-17.08-28.89-82.83-43.39-120.38c-2.06-5.34-22.07-2.96-2.04,59.2,4.46,13.84,26.48,58.39,28.63,64.84,5.2,15.58,30.27,22.73,26.9,25.68-3.37,2.95-7.99,2.14-12.75,1.92-5.29-.24-15.15-12.03-15.15-12.03,0,0-54.36,4.33-82.74-4.81-15.97-5.14-39.93-14.91-33.43-30.55,4.21-10.13,25.26-12.51,27.18-23.57,4.34-24.97,5.77-33.67,8.42-46.42,3-14.45,9.38-56.28,34.16-55.8,0,0-8.18-1.92-17.08-9.86s-12.55-15.93-12.55-15.93c0,0-12.63,9.68-21.47-3.37-8.84-13.05-7.23-37.71,23.93-54.55,0,0,46.32-59.61,110.4-12.03Z" fill="#2b3751" opacity=".4"/>
</svg>