<?xml version="1.0" encoding="UTF-8"?>
<svg id="Layer_1" data-name="Layer 1" xmlns="http://www.w3.org/2000/svg" width="600" height="580" xmlns:xlink="http://www.w3.org/1999/xlink" viewBox="0 0 600 580">
  <defs>
    <clipPath id="clippath">
      <rect x="-6.43" y="-5.12" width="612.86" height="590.23" fill="none"/>
    </clipPath>
  </defs>
  <g clip-path="url(#clippath)">
    <rect x="-9.79" y="-7.08" width="619.57" height="594.17" fill="#2b3751"/>
    <path d="M367.91,178.24c-19.1-3.48-46.99-10.53-76.07,53.88-21.75,48.16-29.52,67.69-29.52,67.69,0,0-129.18,242.08-128.4,244.26.78,2.18,35.64,14.5,35.64,14.5L430.2,208.55s-31.64-24.72-62.29-30.31Z" fill="#f7bc00" stroke="#000" stroke-linecap="round" stroke-linejoin="round" stroke-width="8.61"/>
    <path d="M362.97,178.97l-35.07,61.16,27.1,15.75,43.21-65.11s-23.05-13.13-35.24-11.8Z"/>
    <polygon points="317.29 256.12 355.27 273.93 159.06 555.98 142.24 551.39 317.29 256.12" fill="#ddd"/>
    <path d="M310.48,268.39s-168.06,280.39-166.78,279.74" fill="none" stroke="#221a38" stroke-linecap="round" stroke-miterlimit="10" stroke-width="4.29"/>
    <path d="M346.32,284.23s-187.95,270.01-186.6,269.81" fill="none" stroke="#221a38" stroke-linecap="round" stroke-miterlimit="10" stroke-width="4.29"/>
    <line x1="229.74" y1="404.43" x2="244.01" y2="429.64" fill="none" stroke="#221a38" stroke-linecap="round" stroke-miterlimit="10" stroke-width="4.29"/>
    <line x1="199.29" y1="454.94" x2="211.33" y2="476.38" fill="none" stroke="#221a38" stroke-linecap="round" stroke-miterlimit="10" stroke-width="4.29"/>
    <line x1="270.12" y1="336.38" x2="286.45" y2="368.41" fill="none" stroke="#221a38" stroke-linecap="round" stroke-miterlimit="10" stroke-width="4.29"/>
    <line x1="289.33" y1="303.48" x2="307.28" y2="338.17" fill="none" stroke="#221a38" stroke-linecap="round" stroke-miterlimit="10" stroke-width="4.29"/>
    <path d="M305.3,386.78s-.09-.01-.14-.02c-14.42-2.46-24.07-6.25-33.21-12.35-4.39-2.93-3.98-5.07-6.2-6.39-1.89-1.13-5.33-.4-10.05-2.17-18.54-6.93-22.9-20.69-23.4-21.5-1.78-2.87-1.07-6.85,1.58-8.9,2.64-2.04,6.23-1.38,8.01,1.47.31.48,19.11,29.33,65.36,37.22,3.14.54,5.22,3.79,4.64,7.27-.57,3.43-3.5,5.8-6.59,5.36Z" fill="#fff34a" stroke="#000" stroke-linecap="round" stroke-miterlimit="10" stroke-width="5.12"/>
    <path d="M316.44,377.19c-.05,0-.1-.02-.15-.03-56.8-11.13-79.1-44.37-80.02-45.78-1.93-2.95-1.1-6.91,1.85-8.85,2.95-1.93,6.9-1.11,8.83,1.84.2.29,7.58,9.95,20.31,18.51,1.44.97,4.75,7.58,6.35,8.52,1.53.9,7.48.64,9.84,1.18,11.28,2.6,19.54,8.95,35.3,12.04,3.46.68,5.72,4.04,5.04,7.5-.67,3.41-3.94,5.65-7.35,5.07Z" fill="#fff34a" stroke="#000" stroke-linecap="round" stroke-miterlimit="10" stroke-width="5.39"/>
    <g>
      <path d="M286.46,370.95c-7.97,0-12.64-2.53-13.5-3.04-2.6-1.54-3.45-4.91-1.91-7.51.98-1.65,2.79-2.68,4.71-2.68.95,0,1.89.25,2.72.73.29.15,3.01,1.54,7.98,1.54,2.74,0,5.67-.43,8.69-1.28,3.18-.89,7.07-2.7,11.19-4.62,8.25-3.84,17.59-8.19,27.11-8.19,1.89,0,3.76.17,5.55.52,4.74.91,8.8,1.36,12.43,1.36,17.16,0,21.64-10.16,28.42-25.54,2.97-6.74,6.34-14.38,11.27-21.75,13.19-19.71,25.92-34.66,69.86-47.58,6.18-1.82,8.65-12.98,11.03-23.78,2.26-10.25,4.6-20.85,10.74-27.38,14.08-14.96,21.76-19.65,30.66-25.07.95-.58,1.91-1.17,2.91-1.78.87-.53,1.86-.82,2.87-.82,1.92,0,3.66.97,4.67,2.6.77,1.24,1.01,2.71.67,4.14-.34,1.42-1.21,2.63-2.45,3.4-1.02.63-2,1.23-2.96,1.81-8.56,5.22-15.32,9.34-28.39,23.22-4.07,4.32-6.08,13.43-8.02,22.23-3.07,13.91-6.25,28.29-18.64,31.93-40.5,11.91-51.57,24.82-63.84,43.16-4.4,6.57-7.43,13.44-10.35,20.08-7.27,16.48-14.14,32.05-38.45,32.05-4.35,0-9.23-.52-14.5-1.53-1.07-.21-2.21-.31-3.39-.31-7.2,0-15.36,3.8-22.57,7.15-4.53,2.11-8.82,4.1-12.86,5.24-3.99,1.12-7.91,1.69-11.65,1.69Z" fill="#fff34a"/>
      <path d="M286.46,370.95c-7.97,0-12.64-2.53-13.5-3.04-2.6-1.54-3.45-4.91-1.91-7.51.98-1.65,2.79-2.68,4.71-2.68.95,0,1.89.25,2.72.73.29.15,3.01,1.54,7.98,1.54,2.74,0,5.67-.43,8.69-1.28,3.18-.89,7.07-2.7,11.19-4.62,8.25-3.84,17.59-8.19,27.11-8.19,1.89,0,3.76.17,5.55.52,4.74.91,8.8,1.36,12.43,1.36,17.16,0,21.64-10.16,28.42-25.54,2.97-6.74,6.34-14.38,11.27-21.75,13.19-19.71,25.92-34.66,69.86-47.58,6.18-1.82,8.65-12.98,11.03-23.78,2.26-10.25,4.6-20.85,10.74-27.38,14.08-14.96,21.76-19.65,30.66-25.07.95-.58,1.91-1.17,2.91-1.78.87-.53,1.86-.82,2.87-.82,1.92,0,3.66.97,4.67,2.6.77,1.24,1.01,2.71.67,4.14-.34,1.42-1.21,2.63-2.45,3.4-1.02.63-2,1.23-2.96,1.81-8.56,5.22-15.32,9.34-28.39,23.22-4.07,4.32-6.08,13.43-8.02,22.23-3.07,13.91-6.25,28.29-18.64,31.93-40.5,11.91-51.57,24.82-63.84,43.16-4.4,6.57-7.43,13.44-10.35,20.08-7.27,16.48-14.14,32.05-38.45,32.05-4.35,0-9.23-.52-14.5-1.53-1.07-.21-2.21-.31-3.39-.31-7.2,0-15.36,3.8-22.57,7.15-4.53,2.11-8.82,4.1-12.86,5.24-3.99,1.12-7.91,1.69-11.65,1.69Z" fill="none" stroke="#000" stroke-miterlimit="10" stroke-width="3.51"/>
    </g>
    <g>
      <path d="M261.13,361.32c-.7,0-1.38-.13-2.03-.39-34.42-13.76-31.33-33.45-28.06-54.29,1.12-7.17,2.29-14.58,2.14-22.49-.42-22.06-2.75-38.91-30.4-70.82-8.46-9.76-3.36-23.58,1.57-36.94,3.12-8.46,6.35-17.2,5.27-23.04-3.49-18.74-6.95-25.86-11.33-34.88-.51-1.04-1.01-2.07-1.51-3.13-1.31-2.72-.15-6,2.57-7.31.75-.36,1.54-.54,2.36-.54,2.1,0,4.04,1.22,4.94,3.11.51,1.06,1,2.08,1.49,3.07,4.56,9.37,8.49,17.47,12.25,37.67,1.64,8.8-2.12,18.99-5.76,28.83-3.83,10.38-7.79,21.1-3.57,25.97,29.99,34.62,32.62,54.07,33.07,77.78.17,8.87-1.13,17.11-2.27,24.39-3.12,19.9-5,31.91,21.31,42.42,1.36.54,2.42,1.58,3,2.93.58,1.34.59,2.83.05,4.19-.84,2.09-2.83,3.45-5.09,3.45Z" fill="#fff34a"/>
      <path d="M261.13,361.32c-.7,0-1.38-.13-2.03-.39-34.42-13.76-31.33-33.45-28.06-54.29,1.12-7.17,2.29-14.58,2.14-22.49-.42-22.06-2.75-38.91-30.4-70.82-8.46-9.76-3.36-23.58,1.57-36.94,3.12-8.46,6.35-17.2,5.27-23.04-3.49-18.74-6.95-25.86-11.33-34.88-.51-1.04-1.01-2.07-1.51-3.13-1.31-2.72-.15-6,2.57-7.31.75-.36,1.54-.54,2.36-.54,2.1,0,4.04,1.22,4.94,3.11.51,1.06,1,2.08,1.49,3.07,4.56,9.37,8.49,17.47,12.25,37.67,1.64,8.8-2.12,18.99-5.76,28.83-3.83,10.38-7.79,21.1-3.57,25.97,29.99,34.62,32.62,54.07,33.07,77.78.17,8.87-1.13,17.11-2.27,24.39-3.12,19.9-5,31.91,21.31,42.42,1.36.54,2.42,1.58,3,2.93.58,1.34.59,2.83.05,4.19-.84,2.09-2.83,3.45-5.09,3.45Z" fill="none" stroke="#000" stroke-miterlimit="10" stroke-width="3.51"/>
    </g>
    <g>
      <path d="M275.08,349.31s-7.36,8.13-10.1,21.14" fill="#fff34a" stroke="#000" stroke-linecap="round" stroke-miterlimit="10" stroke-width="5.39"/>
      <g>
        <path d="M264.99,375.7c-.3,0-.59-.03-.89-.08l-.17-.03c-2.86-.6-4.68-3.39-4.09-6.23,2.99-14.2,11-23.2,11.34-23.58,1-1.1,2.42-1.73,3.9-1.73,1.3,0,2.55.48,3.52,1.36,2.15,1.94,2.32,5.27.38,7.42-.06.06-6.49,7.43-8.86,18.7-.51,2.42-2.67,4.17-5.14,4.17Z" fill="#fff34a"/>
        <path d="M275.08,346.75c.61,0,1.23.22,1.72.66,1.05.95,1.13,2.56.19,3.61-.07.08-6.94,7.83-9.49,19.95-.25,1.21-1.32,2.03-2.5,2.03-.14,0-.29-.01-.43-.04-.03,0-.07-.01-.1-.02-1.38-.29-2.27-1.65-1.98-3.03,2.85-13.53,10.39-21.97,10.71-22.33.5-.56,1.2-.84,1.9-.84M275.08,341.36h0c-2.24,0-4.39.95-5.89,2.61-.91,1-8.9,10.18-11.99,24.84-.9,4.29,1.86,8.52,6.15,9.42.08.02.21.04.33.06.41.07.86.11,1.31.11,3.74,0,7.01-2.66,7.78-6.32,2.21-10.51,8.19-17.41,8.25-17.48,2.9-3.22,2.64-8.26-.61-11.19-1.47-1.32-3.36-2.05-5.33-2.05h0Z"/>
      </g>
    </g>
    <circle cx="338.22" cy="252.61" r="39.28" transform="translate(-6.85 9.44) rotate(-1.58)"/>
    <polygon points="347.01 236.57 329.82 237.21 321.78 252.41 330.92 266.98 348.11 266.34 356.16 251.14 347.01 236.57" fill="#fff"/>
    <path d="M438.38,164.34c103.47,65.35,68.52,150.07-7.91,271.08-76.43,121.01-221.76,174.72-288.02,142.31-109.94-53.77-61.74-188.47,14.68-309.48,76.43-121.01,177.77-169.27,281.24-103.91Z" fill="#fff34a" opacity=".2"/>
  </g>
  <g>
    <rect x="69.57" y="59.58" width="504.17" height="37.37" rx="18.68" ry="18.68" fill="#fff"/>
    <path d="M433.68,96.73s-11.36,13.44-17.92,15.51l3.39-18.97,14.53,3.46Z" fill="#fff"/>
    <rect x="106.09" y="31.56" width="434.12" height="37.37" rx="18.68" ry="18.68" fill="#fff"/>
  </g>
  <g>
    <path d="M154.66,41.19c.14-.53.4-.9.77-1.11.37-.21.75-.28,1.14-.21.39.07.72.27.98.6.27.33.36.76.29,1.29-.11.67-.24,1.34-.41,2.02-.17.67-.35,1.33-.54,1.99-.27.85-.56,1.68-.89,2.49-.33.81-.63,1.64-.92,2.49-.28.8-.57,1.59-.86,2.37-.29.79-.6,1.58-.92,2.37-.11.27-.22.54-.33.84s-.26.54-.44.76c-.27.35-.63.57-1.09.64-.46.07-.87-.04-1.22-.34-.28-.25-.49-.55-.61-.92-.12-.36-.26-.71-.4-1.05-.16-.42-.34-.89-.54-1.41-.2-.51-.38-.97-.52-1.38-.3-.8-.59-1.6-.86-2.4-.27-.8-.56-1.6-.86-2.4-.25.74-.51,1.46-.78,2.16-.27.7-.53,1.41-.78,2.13-.19.48-.38.95-.56,1.43-.18.48-.36.95-.56,1.41-.12.32-.23.56-.31.73-.08.17-.21.43-.38.78-.12.28-.31.53-.56.76-.25.22-.51.37-.78.45-.27.08-.55.07-.83-.01-.28-.09-.53-.3-.74-.64-.3-.46-.51-1-.62-1.62-.12-.62-.25-1.18-.41-1.7-.11-.32-.21-.64-.31-.95-.1-.32-.2-.63-.3-.93-.11-.32-.22-.64-.33-.95-.11-.32-.23-.63-.33-.93-.35-1.03-.72-2.04-1.1-3.04-.38-1-.77-2-1.15-3.01-.07-.21-.17-.43-.29-.65-.12-.22-.24-.45-.34-.69-.11-.24-.19-.48-.25-.72-.06-.24-.08-.47-.07-.7.04-.3.15-.56.33-.77s.4-.37.65-.46c.25-.1.51-.13.8-.11.28.03.54.14.77.33.48.41.84.95,1.07,1.62.24.67.46,1.29.68,1.86.25.62.48,1.24.69,1.87.21.63.44,1.25.69,1.87.25.67.49,1.34.72,1.99.23.65.45,1.32.66,1.99.07-.16.13-.32.19-.49.05-.17.11-.34.19-.52.35-.88.69-1.76.99-2.63.31-.87.6-1.75.86-2.65.09-.25.16-.5.23-.76.06-.26.13-.51.2-.76.12-.42.2-.76.24-.99.04-.24.14-.5.32-.78.16-.25.37-.43.64-.54.27-.11.54-.17.82-.16.28,0,.54.08.78.23.24.14.42.35.54.64.05.11.12.27.21.49.09.22.18.46.27.72.09.26.18.5.27.72.09.22.15.38.19.49.21.57.42,1.12.61,1.67.19.55.39,1.11.58,1.67.25.73.5,1.44.76,2.13.26.7.52,1.39.78,2.08.16-.46.31-.93.45-1.41.14-.48.3-.95.48-1.41.48-1.27.93-2.55,1.37-3.82.43-1.27.76-2.57.99-3.9l.03-.16Z"/>
    <path d="M162.77,57.11c-.35.26-.72.38-1.1.36-.38-.02-.72-.17-1.01-.46s-.44-.69-.44-1.21v-14.74c0-.41.16-.75.48-1.03.32-.28.67-.46,1.06-.53.39-.07.75,0,1.09.19.34.19.52.56.56,1.09.07.92.1,1.82.09,2.69,0,.88-.02,1.75-.04,2.64.65-.44,1.33-.74,2.04-.89.71-.15,1.39-.15,2.04.01.65.16,1.26.48,1.83.95s1.03,1.14,1.38,1.99c.25.57.42,1.17.5,1.82.09.65.14,1.3.15,1.96,0,.66,0,1.32-.03,1.98-.03.65-.04,1.27-.04,1.86,0,.37-.1.71-.29,1.01-.19.3-.44.52-.73.66-.29.14-.6.19-.93.13-.33-.05-.62-.25-.89-.58-.27-.35-.43-.77-.49-1.25-.06-.48-.08-.99-.05-1.52.03-.54.07-1.09.12-1.66.05-.57.07-1.11.04-1.63-.03-.52-.13-1-.31-1.45-.18-.44-.49-.8-.93-1.09-.35-.05-.67-.03-.95.07-.28.1-.54.24-.77.44-.23.19-.45.42-.65.66-.2.25-.41.5-.62.74-.05.09-.12.17-.19.25-.07.08-.15.16-.24.25v5.04c-.11.58-.34,1-.69,1.26Z"/>
    <path d="M182.37,44.87c.21-.35.48-.6.8-.73.32-.13.63-.16.94-.09.31.07.58.23.82.48.24.25.38.57.44.98.04.3-.02.73-.17,1.27-.15.55-.34,1.11-.56,1.7-.22.58-.45,1.14-.68,1.67-.23.53-.42.95-.56,1.25-.6,1.33-1.26,2.63-1.96,3.9s-1.43,2.54-2.17,3.79c-.11.19-.23.43-.37.72-.14.28-.29.57-.44.88-.15.3-.3.58-.46.85-.16.27-.31.46-.45.58-.32.3-.65.48-.98.53-.34.05-.64,0-.92-.13-.27-.14-.5-.36-.66-.66-.17-.3-.23-.66-.2-1.09.02-.16.09-.37.21-.62.12-.26.27-.52.42-.8.16-.27.32-.53.48-.78.16-.25.28-.45.37-.61.35-.58.69-1.17,1.02-1.75.33-.58.66-1.17.99-1.75-1.17-.97-2.18-2.06-3.04-3.25s-1.52-2.51-1.98-3.94c-.09-.25-.18-.49-.27-.74-.09-.25-.12-.5-.08-.77.04-.3.12-.57.25-.81.13-.24.31-.43.52-.58.21-.15.46-.23.73-.25.27-.02.55.04.84.19.23.12.41.3.54.52.13.22.24.46.33.72.09.26.16.52.23.78.06.27.14.5.23.72.71,1.75,1.78,3.24,3.21,4.48.51-1.06.97-2.13,1.38-3.2.41-1.07.77-2.16,1.09-3.28l.11-.16Z"/>
    <path d="M208.46,54.45c.3.51.4.97.31,1.38-.1.41-.3.71-.6.91-.3.2-.67.28-1.1.24-.43-.04-.85-.27-1.26-.68-.42.3-.87.53-1.33.7-.46.17-.95.31-1.46.44-.8.18-1.56.16-2.29-.04-.73-.2-1.38-.53-1.95-.99-.57-.46-1.03-1.03-1.38-1.71-.35-.68-.55-1.42-.58-2.21-.05-.88.01-1.73.2-2.55.19-.81.48-1.56.89-2.23.41-.67.94-1.25,1.6-1.72.66-.48,1.45-.81,2.35-1.01.53-.11,1.06-.16,1.6-.16s1.07.04,1.6.13c-.02-.39-.03-.84-.04-1.34,0-.5-.01-.99-.01-1.47s.02-.91.05-1.29c.04-.38.08-.65.13-.81.12-.32.31-.56.57-.73.26-.17.53-.26.81-.27.28,0,.56.06.84.21.27.15.49.38.65.68.04.09.08.17.13.25.05.08.08.16.08.25.02,2.32.02,4.61.01,6.87,0,2.26-.01,4.55-.01,6.87.07.11.13.19.19.27ZM204.78,52.99c.04-.05.1-.11.2-.16s.15-.12.15-.21v-2.19c0-.72,0-1.45-.03-2.19-.42-.09-.87-.14-1.33-.16-.46-.02-.91.03-1.34.13-.43.11-.83.28-1.19.53-.36.25-.65.6-.86,1.06-.11.34-.2.67-.29,1.01-.09.34-.14.66-.15.98,0,.32.03.63.12.94.09.31.24.61.45.89.07.07.15.14.25.21.1.07.29.19.57.37.65.05,1.28,0,1.87-.19.59-.18,1.12-.52,1.58-1.03Z"/>
    <path d="M210.88,50.23c.12-.51.3-1.02.52-1.51.22-.49.49-.97.81-1.42.32-.45.68-.86,1.07-1.23.4-.37.83-.67,1.29-.9.81-.42,1.63-.64,2.45-.65.82,0,1.59.15,2.29.49.71.34,1.31.84,1.8,1.5.49.66.82,1.45.98,2.37.09.6.14,1.17.15,1.71,0,.54-.05,1.1-.17,1.68-.18.83-.54,1.66-1.07,2.48-.54.82-1.18,1.51-1.94,2.07-.75.56-1.57.92-2.47,1.1-.89.18-1.79.04-2.69-.42-.41-.19-.77-.42-1.1-.68s-.62-.56-.89-.92c-.3-.39-.54-.8-.7-1.22s-.3-.87-.41-1.33c-.12-.49-.17-.99-.13-1.5.04-.5.1-.99.19-1.47l.03-.16ZM214.06,50.79c-.05.28-.1.56-.13.84-.04.27-.04.55,0,.84.05.41.16.78.33,1.11.17.34.39.6.66.8.27.19.59.3.94.3.35,0,.73-.1,1.14-.33.51-.3.96-.76,1.33-1.39.37-.63.6-1.28.69-1.96.09-.68.02-1.33-.21-1.94-.23-.61-.68-1.05-1.35-1.31-.44,0-.85.08-1.22.25-.37.17-.69.39-.97.66s-.51.6-.72.97c-.2.37-.37.76-.49,1.17Z"/>
    <path d="M234.74,55.88c-.05.44-.22.8-.49,1.09-.27.28-.58.46-.93.53-.34.07-.68.03-.99-.13-.32-.16-.55-.47-.69-.93-.16-.49-.22-1.01-.19-1.55.04-.54.05-1.04.05-1.5,0-.95,0-1.9.01-2.85,0-.95-.03-1.9-.12-2.85-.02-.04-.04-.07-.05-.09s-.05-.07-.11-.12c-.41-.11-.84-.08-1.3.08-.46.16-.85.36-1.17.61-.28.23-.56.54-.84.94-.27.4-.41.78-.41,1.15v3.66c0,.28,0,.59.03.93.02.34,0,.66-.04.98-.04.32-.15.61-.3.88s-.42.46-.77.58c-.19.07-.38.1-.54.08-.17-.02-.35-.06-.54-.13-.32-.11-.55-.29-.69-.54-.14-.26-.24-.53-.29-.82-.05-.29-.08-.57-.07-.85,0-.27.01-.49.01-.65,0-.41,0-.99-.01-1.76s-.01-1.58-.01-2.43v-4.19c0-.39.11-.71.35-.97.23-.26.5-.42.81-.5.31-.08.64-.06.98.05.34.12.63.35.86.7.71-.46,1.49-.77,2.33-.93.85-.16,1.65-.13,2.4.08s1.38.61,1.88,1.19c.5.58.76,1.39.78,2.41,0,.04,0,.14.03.32.02.18.03.42.03.74v6.79Z"/>
    <path d="M237.05,37.85c.21-.35.48-.59.8-.72.32-.12.63-.15.94-.09.31.06.58.22.82.46.24.25.38.57.41.98.02.27-.02.55-.12.85-.1.3-.22.6-.37.9-.15.3-.31.59-.48.88-.17.28-.3.53-.41.74-.14.28-.27.56-.38.84-.12.27-.25.54-.41.81-.25.44-.57.69-.97.76-.4.06-.77,0-1.11-.16-.34-.17-.61-.43-.8-.78-.19-.35-.19-.73-.01-1.14.09-.35.24-.72.45-1.09.21-.37.4-.72.56-1.03.18-.35.34-.7.5-1.03.16-.34.32-.67.48-1.01l.11-.16Z"/>
    <path d="M240.63,47.74c-.35-.09-.66-.24-.92-.45-.26-.21-.43-.46-.53-.74-.1-.28-.1-.57,0-.88.1-.3.31-.57.65-.82.28-.21.6-.32.95-.32h1.03c0-.12,0-.39-.03-.81-.02-.42-.02-.87-.01-1.37,0-.49.04-.97.09-1.42.05-.45.15-.76.29-.94.35-.49.79-.73,1.31-.7s.95.28,1.29.76c.07.09.14.19.2.32.06.12.09.24.09.34.02.64.02,1.27.01,1.91s-.01,1.27-.01,1.91h2.09c.32,0,.59.11.82.32.23.21.39.46.49.74.1.28.12.57.08.88-.04.3-.18.55-.41.74-.41.34-.88.51-1.42.53-.54.02-1.09.03-1.66.03,0,.97,0,1.95-.01,2.92,0,.97,0,1.95.01,2.92,0,.42.02.86.07,1.3.04.44.01.87-.09,1.27-.09.32-.24.57-.45.76-.21.19-.45.3-.72.34-.27.04-.54.03-.82-.05-.28-.08-.55-.23-.8-.44-.12-.12-.22-.34-.28-.64-.06-.3-.1-.62-.12-.95-.02-.39-.02-.8,0-1.25v-1.38c0-.57,0-1.15-.01-1.76,0-.61-.01-1.19-.01-1.74v-1.3l-1.19-.03Z"/>
    <path d="M268.87,44.87c.21-.35.48-.6.8-.73s.63-.16.94-.09c.31.07.58.23.82.48.24.25.38.57.44.98.04.3-.02.73-.17,1.27-.15.55-.34,1.11-.56,1.7-.22.58-.45,1.14-.68,1.67-.23.53-.42.95-.56,1.25-.6,1.33-1.26,2.63-1.96,3.9-.71,1.27-1.43,2.54-2.17,3.79-.11.19-.23.43-.37.72-.14.28-.29.57-.44.88-.15.3-.31.58-.46.85-.16.27-.31.46-.45.58-.32.3-.65.48-.98.53-.34.05-.64,0-.92-.13-.27-.14-.5-.36-.66-.66-.17-.3-.23-.66-.2-1.09.02-.16.09-.37.21-.62.12-.26.27-.52.42-.8.16-.27.32-.53.48-.78.16-.25.28-.45.37-.61.35-.58.69-1.17,1.02-1.75.33-.58.66-1.17.99-1.75-1.17-.97-2.18-2.06-3.04-3.25s-1.52-2.51-1.98-3.94c-.09-.25-.18-.49-.27-.74-.09-.25-.11-.5-.08-.77.04-.3.12-.57.25-.81.13-.24.3-.43.52-.58.21-.15.45-.23.73-.25.27-.02.55.04.84.19.23.12.41.3.54.52.13.22.24.46.33.72.09.26.16.52.23.78s.14.5.23.72c.71,1.75,1.78,3.24,3.21,4.48.51-1.06.97-2.13,1.38-3.2.41-1.07.77-2.16,1.09-3.28l.11-.16Z"/>
    <path d="M272.37,50.23c.12-.51.3-1.02.52-1.51.22-.49.49-.97.81-1.42.32-.45.68-.86,1.07-1.23.4-.37.83-.67,1.29-.9.81-.42,1.63-.64,2.45-.65.82,0,1.59.15,2.29.49.71.34,1.31.84,1.8,1.5.49.66.82,1.45.98,2.37.09.6.14,1.17.15,1.71,0,.54-.05,1.1-.17,1.68-.18.83-.53,1.66-1.07,2.48-.54.82-1.18,1.51-1.94,2.07s-1.57.92-2.47,1.1c-.89.18-1.79.04-2.69-.42-.41-.19-.77-.42-1.1-.68-.33-.26-.62-.56-.89-.92-.3-.39-.54-.8-.7-1.22s-.3-.87-.41-1.33c-.12-.49-.17-.99-.13-1.5.04-.5.1-.99.19-1.47l.03-.16ZM275.56,50.79c-.05.28-.1.56-.13.84-.04.27-.04.55,0,.84.05.41.16.78.33,1.11.17.34.39.6.66.8.27.19.59.3.94.3.35,0,.73-.1,1.14-.33.51-.3.95-.76,1.33-1.39.37-.63.6-1.28.69-1.96.09-.68.02-1.33-.21-1.94-.23-.61-.68-1.05-1.35-1.31-.44,0-.85.08-1.22.25-.37.17-.69.39-.97.66-.27.27-.51.6-.72.97-.2.37-.37.76-.49,1.17Z"/>
    <path d="M297.22,54.5c.16.23.25.5.28.81.03.31,0,.6-.11.88-.1.27-.26.5-.48.68-.22.18-.51.26-.86.24-.46-.04-.83-.19-1.11-.48-.28-.28-.55-.6-.8-.95-.69.57-1.4.96-2.13,1.18-.73.22-1.45.27-2.16.15-.71-.12-1.37-.42-1.99-.89s-1.14-1.1-1.56-1.9c-.39-.74-.61-1.56-.65-2.47-.04-.9-.06-1.76-.04-2.57,0-.28,0-.56.03-.84.02-.27.04-.56.05-.86.02-.23.03-.45.03-.68s.01-.43.04-.62c.03-.19.08-.39.16-.58.08-.19.2-.38.36-.56.21-.23.47-.37.77-.41.3-.04.59-.01.86.09.27.11.51.27.72.49.2.22.31.49.33.81.04.9.01,1.81-.07,2.73-.08.92-.08,1.82.01,2.71.04.42.15.86.33,1.3.19.44.48.76.89.95.41.18.82.16,1.23-.04.42-.2.76-.45,1.02-.73.12-.14.24-.3.36-.46.12-.17.24-.31.38-.44-.07-.62-.12-1.24-.13-1.86-.02-.62-.02-1.24,0-1.86,0-.34.01-.7.04-1.1.03-.4.1-.78.21-1.14.12-.36.29-.68.52-.95.23-.27.56-.45.98-.52.19-.04.38-.02.57.05.19.07.35.17.49.29.25.21.42.45.5.72.09.27.13.55.13.85s-.02.61-.07.91c-.04.31-.08.6-.09.86-.04.5-.06,1.02-.08,1.56-.02.55,0,1.1.05,1.64.05.55.15,1.08.31,1.59.15.51.38.98.68,1.41Z"/>
    <path d="M316.13,53.25c.44-.28.86-.41,1.26-.37.4.04.72.17.98.41.26.24.4.56.42.95.03.4-.11.82-.41,1.26-.2.3-.47.57-.84.82-.36.25-.71.44-1.05.58-.78.35-1.56.51-2.36.48-.8-.04-1.53-.23-2.21-.58-.68-.35-1.27-.84-1.76-1.47-.5-.63-.83-1.36-1.01-2.19-.35-1.59-.28-3.12.21-4.59.19-.53.43-1.04.7-1.54.27-.49.6-.95.99-1.35.39-.41.82-.76,1.3-1.07.48-.31,1-.52,1.56-.62.39-.07.88-.07,1.48.01s1.19.23,1.76.46c.57.23,1.08.53,1.51.9.43.37.68.81.73,1.33.04.28,0,.54-.11.78-.11.24-.26.44-.45.6-.19.16-.42.27-.68.33-.26.06-.52.06-.78-.01-.32-.09-.57-.21-.76-.36-.19-.15-.43-.35-.73-.6-.14-.04-.27-.09-.4-.17-.12-.08-.26-.11-.4-.09l-.72.08c-.12.07-.24.13-.34.19-.11.05-.21.11-.32.16-.6.6-1.04,1.27-1.33,2-.28.73-.35,1.52-.21,2.37.09.55.26,1,.52,1.35.26.35.56.6.9.73.34.13.73.15,1.14.04.42-.11.83-.34,1.23-.72l.13-.11Z"/>
    <path d="M320.11,50.23c.12-.51.3-1.02.52-1.51.22-.49.49-.97.81-1.42.32-.45.68-.86,1.07-1.23.4-.37.83-.67,1.29-.9.81-.42,1.63-.64,2.45-.65.82,0,1.59.15,2.29.49.71.34,1.31.84,1.8,1.5.5.66.82,1.45.98,2.37.09.6.14,1.17.15,1.71,0,.54-.05,1.1-.17,1.68-.18.83-.54,1.66-1.07,2.48-.54.82-1.18,1.51-1.94,2.07-.75.56-1.57.92-2.47,1.1-.89.18-1.79.04-2.69-.42-.41-.19-.77-.42-1.1-.68s-.62-.56-.89-.92c-.3-.39-.53-.8-.7-1.22-.17-.42-.31-.87-.41-1.33-.12-.49-.17-.99-.13-1.5.04-.5.1-.99.19-1.47l.03-.16ZM323.29,50.79c-.05.28-.1.56-.13.84-.04.27-.04.55,0,.84.05.41.16.78.33,1.11.17.34.39.6.66.8.27.19.59.3.94.3.35,0,.73-.1,1.14-.33.51-.3.96-.76,1.33-1.39.37-.63.6-1.28.69-1.96.09-.68.02-1.33-.21-1.94-.23-.61-.68-1.05-1.35-1.31-.44,0-.85.08-1.22.25-.37.17-.69.39-.97.66s-.51.6-.72.97c-.2.37-.37.76-.49,1.17Z"/>
    <path d="M339.97,48.98v-.37c-.16-.41-.42-.69-.77-.86-.35-.17-.73-.27-1.14-.3-.23.07-.42.15-.56.24-.14.09-.27.19-.37.29-.11.11-.2.23-.29.36-.09.13-.2.27-.32.41v6.95c0,.55-.16.98-.49,1.29-.33.31-.69.49-1.09.53-.4.04-.76-.05-1.1-.29-.34-.24-.51-.64-.53-1.21-.04-1.36-.05-2.91-.04-4.64,0-1.73.01-3.67.01-5.81,0-.37.11-.68.33-.93.22-.25.49-.42.8-.5.31-.09.63-.08.95.01.33.1.6.3.81.6.99-.49,1.98-.65,2.96-.46.98.19,1.87.65,2.67,1.39.35-.35.73-.67,1.14-.95.41-.28.85-.47,1.33-.56.55-.09,1.1-.07,1.66.07s1.07.35,1.55.65c.48.3.9.67,1.26,1.11.36.44.63.92.81,1.43.09.35.13.67.13.95v7.21c0,.21-.03.42-.08.61-.16.46-.41.78-.76.97s-.7.25-1.06.2c-.36-.05-.68-.22-.94-.5-.27-.28-.4-.66-.4-1.14v-7.13c-.16-.42-.39-.73-.69-.93-.3-.19-.61-.28-.93-.27-.32.02-.62.13-.92.34-.29.21-.53.5-.7.88v6.95c0,.48-.15.88-.46,1.19-.31.32-.65.52-1.02.61-.37.09-.72.05-1.05-.11-.33-.16-.52-.48-.57-.95l-.13-7.32Z"/>
    <path d="M361.9,53.01c.42-.11.8-.11,1.13-.01.33.1.58.26.76.49.18.23.26.51.24.85-.02.34-.17.69-.45,1.06-.23.3-.55.56-.96.77s-.79.38-1.14.5c-.87.32-1.69.54-2.47.66-.78.12-1.51.12-2.19,0-.68-.12-1.32-.38-1.91-.77s-1.15-.94-1.66-1.64c-.35-.48-.61-1.02-.78-1.63s-.26-1.23-.28-1.87.04-1.26.16-1.88c.12-.62.3-1.18.53-1.67.3-.62.78-1.18,1.43-1.7.65-.51,1.38-.92,2.17-1.22.8-.3,1.61-.47,2.44-.52.83-.04,1.56.08,2.2.38.53.25.99.61,1.37,1.07.38.47.64.98.78,1.52.14.55.15,1.1.04,1.66-.12.56-.4,1.07-.86,1.52-.44.44-.93.8-1.46,1.07-.53.27-1.08.51-1.64.72-.57.2-1.14.38-1.74.52-.59.14-1.16.3-1.71.48.37.42.8.69,1.27.81.48.12.98.14,1.5.07.52-.07,1.05-.22,1.58-.44.53-.22,1.03-.46,1.49-.73l.16-.08ZM356.54,48.45c-.41.23-.71.52-.9.86-.19.34-.34.83-.42,1.45.46-.14.98-.29,1.55-.45.57-.16,1.12-.33,1.63-.5.51-.18.95-.37,1.3-.58s.53-.44.53-.69c0-.14-.02-.28-.07-.41-.04-.13-.14-.23-.28-.28-.5-.18-1.01-.21-1.54-.11-.53.11-.97.26-1.33.45l-.48.27Z"/>
    <path d="M377.41,47.74c-.35-.09-.66-.24-.92-.45-.26-.21-.43-.46-.53-.74-.1-.28-.1-.57,0-.88.1-.3.31-.57.65-.82.28-.21.6-.32.96-.32h1.03c0-.12,0-.39-.03-.81-.02-.42-.02-.87-.01-1.37,0-.49.04-.97.09-1.42.05-.45.15-.76.29-.94.35-.49.79-.73,1.31-.7s.95.28,1.29.76c.07.09.14.19.2.32.06.12.09.24.09.34.02.64.02,1.27.01,1.91s-.01,1.27-.01,1.91h2.09c.32,0,.59.11.82.32.23.21.39.46.49.74.1.28.12.57.08.88-.04.3-.18.55-.41.74-.41.34-.88.51-1.42.53-.54.02-1.09.03-1.66.03,0,.97,0,1.95-.01,2.92,0,.97,0,1.95.01,2.92,0,.42.02.86.07,1.3.04.44.01.87-.09,1.27-.09.32-.24.57-.45.76-.21.19-.45.3-.72.34-.27.04-.54.03-.82-.05-.28-.08-.55-.23-.8-.44-.12-.12-.22-.34-.28-.64-.06-.3-.1-.62-.12-.95-.02-.39-.02-.8,0-1.25v-1.38c0-.57,0-1.15-.01-1.76,0-.61-.01-1.19-.01-1.74v-1.3l-1.19-.03Z"/>
    <path d="M385.42,50.23c.12-.51.3-1.02.52-1.51.22-.49.49-.97.81-1.42.32-.45.68-.86,1.07-1.23.4-.37.83-.67,1.29-.9.81-.42,1.63-.64,2.45-.65.82,0,1.59.15,2.29.49.71.34,1.31.84,1.8,1.5.5.66.82,1.45.98,2.37.09.6.14,1.17.15,1.71,0,.54-.05,1.1-.17,1.68-.18.83-.53,1.66-1.07,2.48-.54.82-1.18,1.51-1.94,2.07s-1.57.92-2.47,1.1c-.89.18-1.79.04-2.69-.42-.41-.19-.77-.42-1.1-.68-.33-.26-.62-.56-.89-.92-.3-.39-.54-.8-.7-1.22s-.3-.87-.41-1.33c-.12-.49-.17-.99-.13-1.5.04-.5.1-.99.19-1.47l.03-.16ZM388.61,50.79c-.05.28-.1.56-.13.84-.04.27-.04.55,0,.84.05.41.16.78.33,1.11.17.34.39.6.66.8.27.19.59.3.94.3.35,0,.73-.1,1.14-.33.51-.3.95-.76,1.33-1.39.37-.63.6-1.28.69-1.96.09-.68.02-1.33-.21-1.94-.23-.61-.68-1.05-1.35-1.31-.44,0-.85.08-1.22.25-.37.17-.69.39-.97.66s-.51.6-.72.97c-.2.37-.37.76-.49,1.17Z"/>
    <path d="M410.03,47.74c-.35-.09-.66-.24-.92-.45-.26-.21-.43-.46-.53-.74-.1-.28-.1-.57,0-.88.1-.3.31-.57.65-.82.28-.21.6-.32.96-.32h1.03c0-.12,0-.39-.03-.81-.02-.42-.02-.87-.01-1.37,0-.49.04-.97.09-1.42.05-.45.15-.76.29-.94.35-.49.79-.73,1.31-.7s.95.28,1.29.76c.07.09.14.19.2.32.06.12.09.24.09.34.02.64.02,1.27.01,1.91,0,.64-.01,1.27-.01,1.91h2.09c.32,0,.59.11.82.32.23.21.39.46.49.74.1.28.12.57.08.88-.04.3-.18.55-.41.74-.41.34-.88.51-1.42.53s-1.09.03-1.66.03c0,.97,0,1.95-.01,2.92,0,.97,0,1.95.01,2.92,0,.42.02.86.07,1.3.04.44.01.87-.09,1.27-.09.32-.24.57-.45.76-.21.19-.45.3-.72.34-.27.04-.54.03-.82-.05-.28-.08-.55-.23-.8-.44-.12-.12-.22-.34-.28-.64-.06-.3-.1-.62-.12-.95-.02-.39-.02-.8,0-1.25v-1.38c0-.57,0-1.15-.01-1.76,0-.61-.01-1.19-.01-1.74v-1.3l-1.19-.03Z"/>
    <path d="M422.34,57.11c-.35.26-.72.38-1.1.36-.38-.02-.72-.17-1.01-.46-.29-.29-.44-.69-.44-1.21v-14.74c0-.41.16-.75.48-1.03.32-.28.67-.46,1.06-.53.39-.07.75,0,1.09.19.34.19.52.56.56,1.09.07.92.1,1.82.09,2.69,0,.88-.02,1.75-.04,2.64.65-.44,1.33-.74,2.04-.89.71-.15,1.39-.15,2.04.01s1.26.48,1.83.95c.57.48,1.03,1.14,1.38,1.99.25.57.42,1.17.5,1.82.09.65.14,1.3.15,1.96,0,.66,0,1.32-.03,1.98-.03.65-.04,1.27-.04,1.86,0,.37-.1.71-.29,1.01-.2.3-.44.52-.73.66-.29.14-.6.19-.93.13-.33-.05-.62-.25-.89-.58-.27-.35-.43-.77-.49-1.25-.06-.48-.08-.99-.05-1.52.03-.54.07-1.09.12-1.66.05-.57.07-1.11.04-1.63s-.13-1-.3-1.45c-.18-.44-.49-.8-.93-1.09-.35-.05-.67-.03-.95.07-.28.1-.54.24-.77.44-.23.19-.45.42-.65.66-.2.25-.41.5-.62.74-.05.09-.12.17-.19.25s-.15.16-.24.25v5.04c-.11.58-.34,1-.69,1.26Z"/>
    <path d="M442.7,53.01c.42-.11.8-.11,1.13-.01.33.1.58.26.76.49.18.23.26.51.24.85-.02.34-.17.69-.45,1.06-.23.3-.55.56-.95.77-.41.21-.79.38-1.14.5-.87.32-1.69.54-2.47.66-.78.12-1.51.12-2.19,0-.68-.12-1.32-.38-1.91-.77-.59-.39-1.15-.94-1.66-1.64-.35-.48-.61-1.02-.78-1.63-.17-.61-.26-1.23-.28-1.87-.02-.64.04-1.26.16-1.88.12-.62.3-1.18.53-1.67.3-.62.78-1.18,1.43-1.7.65-.51,1.38-.92,2.17-1.22.8-.3,1.61-.47,2.44-.52.83-.04,1.56.08,2.2.38.53.25.99.61,1.37,1.07.38.47.64.98.78,1.52.14.55.15,1.1.04,1.66-.11.56-.4,1.07-.86,1.52-.44.44-.93.8-1.46,1.07-.53.27-1.08.51-1.64.72-.57.2-1.15.38-1.74.52-.59.14-1.16.3-1.71.48.37.42.8.69,1.27.81.48.12.98.14,1.5.07.52-.07,1.05-.22,1.58-.44.53-.22,1.02-.46,1.48-.73l.16-.08ZM437.35,48.45c-.41.23-.71.52-.9.86-.2.34-.34.83-.42,1.45.46-.14.98-.29,1.55-.45.57-.16,1.12-.33,1.63-.5.51-.18.95-.37,1.3-.58.35-.21.53-.44.53-.69,0-.14-.02-.28-.07-.41-.04-.13-.14-.23-.28-.28-.5-.18-1.01-.21-1.54-.11-.53.11-.97.26-1.33.45l-.48.27Z"/>
    <path d="M463.42,53.25c.44-.28.86-.41,1.26-.37.4.04.72.17.98.41.26.24.4.56.42.95.03.4-.11.82-.41,1.26-.19.3-.47.57-.83.82-.36.25-.71.44-1.05.58-.78.35-1.56.51-2.36.48-.8-.04-1.53-.23-2.21-.58-.68-.35-1.27-.84-1.76-1.47-.5-.63-.83-1.36-1.01-2.19-.35-1.59-.28-3.12.21-4.59.19-.53.43-1.04.7-1.54.27-.49.61-.95.99-1.35.39-.41.82-.76,1.3-1.07.48-.31,1-.52,1.56-.62.39-.07.88-.07,1.49.01.6.08,1.19.23,1.76.46.57.23,1.08.53,1.51.9.43.37.68.81.73,1.33.04.28,0,.54-.11.78-.11.24-.26.44-.45.6-.19.16-.42.27-.68.33-.26.06-.52.06-.78-.01-.32-.09-.57-.21-.76-.36-.19-.15-.43-.35-.73-.6-.14-.04-.27-.09-.4-.17-.12-.08-.26-.11-.4-.09l-.72.08c-.12.07-.24.13-.34.19-.11.05-.21.11-.32.16-.6.6-1.04,1.27-1.33,2-.28.73-.35,1.52-.21,2.37.09.55.26,1,.52,1.35.26.35.56.6.9.73.34.13.72.15,1.14.04.42-.11.83-.34,1.23-.72l.13-.11Z"/>
    <path d="M468.67,40.74c.07-.65.3-1.14.68-1.45.38-.31.78-.46,1.21-.45.42,0,.82.17,1.18.49.36.32.55.77.57,1.35.04.6-.12,1.07-.46,1.39-.34.33-.74.51-1.18.56-.44.04-.86-.08-1.25-.36-.39-.28-.63-.73-.72-1.35l-.03-.19ZM472.17,55.83c-.04.35-.16.67-.37.94-.21.27-.46.47-.73.6-.27.12-.57.15-.89.08-.32-.07-.6-.27-.85-.58-.14-.18-.24-.38-.3-.6-.06-.22-.1-.45-.12-.69-.02-.24-.02-.48-.01-.72,0-.24.01-.46.01-.65-.02-1.04-.02-2.08-.01-3.1,0-1.03,0-2.06-.01-3.1,0-.42-.03-.85-.08-1.29-.05-.43-.03-.86.08-1.29.09-.32.24-.59.46-.82.22-.23.47-.39.74-.48.27-.09.56-.1.85-.03.29.07.54.26.76.56.28.35.42.7.42,1.05v3.06c0,.6,0,1.19.03,1.78.02.85.03,1.7.03,2.55v2.73Z"/>
    <path d="M475.35,47.74c-.35-.09-.66-.24-.92-.45-.26-.21-.43-.46-.53-.74-.1-.28-.1-.57,0-.88.1-.3.31-.57.65-.82.28-.21.6-.32.96-.32h1.03c0-.12,0-.39-.03-.81-.02-.42-.02-.87-.01-1.37,0-.49.04-.97.09-1.42.05-.45.15-.76.29-.94.35-.49.79-.73,1.31-.7s.95.28,1.29.76c.07.09.14.19.2.32.06.12.09.24.09.34.02.64.02,1.27.01,1.91,0,.64-.01,1.27-.01,1.91h2.09c.32,0,.59.11.82.32.23.21.39.46.49.74.1.28.12.57.08.88-.04.3-.18.55-.41.74-.41.34-.88.51-1.42.53s-1.09.03-1.66.03c0,.97,0,1.95-.01,2.92,0,.97,0,1.95.01,2.92,0,.42.02.86.07,1.3.04.44.01.87-.09,1.27-.09.32-.24.57-.45.76-.21.19-.45.3-.72.34-.27.04-.54.03-.82-.05-.28-.08-.55-.23-.8-.44-.12-.12-.22-.34-.28-.64-.06-.3-.1-.62-.12-.95-.02-.39-.02-.8,0-1.25v-1.38c0-.57,0-1.15-.01-1.76,0-.61-.01-1.19-.01-1.74v-1.3l-1.19-.03Z"/>
    <path d="M493.65,44.87c.21-.35.48-.6.8-.73s.63-.16.94-.09c.31.07.58.23.82.48.24.25.38.57.44.98.04.3-.02.73-.17,1.27-.15.55-.34,1.11-.56,1.7-.22.58-.45,1.14-.68,1.67-.23.53-.42.95-.56,1.25-.6,1.33-1.26,2.63-1.96,3.9-.71,1.27-1.43,2.54-2.17,3.79-.11.19-.23.43-.37.72-.14.28-.29.57-.44.88-.15.3-.31.58-.46.85-.16.27-.31.46-.45.58-.32.3-.65.48-.98.53-.34.05-.64,0-.92-.13-.27-.14-.5-.36-.66-.66-.17-.3-.23-.66-.2-1.09.02-.16.09-.37.21-.62.12-.26.27-.52.42-.8.16-.27.32-.53.48-.78.16-.25.28-.45.37-.61.35-.58.69-1.17,1.02-1.75.33-.58.66-1.17.99-1.75-1.17-.97-2.18-2.06-3.04-3.25s-1.52-2.51-1.98-3.94c-.09-.25-.18-.49-.27-.74-.09-.25-.11-.5-.08-.77.04-.3.12-.57.25-.81.13-.24.3-.43.52-.58.21-.15.45-.23.73-.25.27-.02.55.04.84.19.23.12.41.3.54.52.13.22.24.46.33.72.09.26.16.52.23.78s.14.5.23.72c.71,1.75,1.78,3.24,3.21,4.48.51-1.06.97-2.13,1.38-3.2.41-1.07.77-2.16,1.09-3.28l.11-.16Z"/>
    <path d="M503.96,50.04c.23.11.44.23.62.37.19.14.35.33.49.56.12.23.17.47.13.73-.04.26-.12.49-.25.7-.13.21-.31.39-.53.53-.22.14-.46.22-.7.24-.42.04-.83-.04-1.22-.21-.39-.18-.74-.41-1.06-.69-.37-.32-.63-.71-.77-1.17-.18-.57-.23-1.07-.16-1.52.07-.45.23-.87.46-1.25.24-.38.54-.73.92-1.06s.75-.65,1.14-.97c.19-.14.39-.29.6-.45.2-.16.4-.33.58-.5.19-.18.34-.37.48-.58s.21-.45.23-.72c-.11-.44-.29-.73-.56-.86-.27-.13-.56-.17-.88-.11-.32.06-.65.19-.98.4-.34.2-.64.41-.9.62-.16.12-.31.27-.44.44-.13.17-.27.33-.41.49-.14.16-.3.3-.46.42-.17.12-.36.2-.57.24-.35.05-.68,0-.98-.15-.3-.15-.54-.36-.7-.62-.17-.27-.25-.56-.24-.89,0-.33.14-.64.38-.94.44-.53.92-1.01,1.45-1.45.52-.43,1.07-.8,1.66-1.09s1.2-.49,1.86-.61c.65-.11,1.33-.11,2.04.01.44.09.84.27,1.18.54.34.27.64.6.89.98.25.38.45.78.6,1.21.15.42.25.83.3,1.22.04.41,0,.82-.13,1.23-.12.42-.3.81-.53,1.18-.23.37-.5.72-.8,1.03-.3.32-.61.58-.93.8-.23.16-.48.34-.76.53-.27.19-.51.38-.72.57-.2.19-.35.35-.44.49-.09.14-.05.24.11.29ZM500.97,56.38c.07-.64.31-1.12.73-1.45.42-.33.86-.49,1.34-.5.48,0,.92.15,1.31.46.4.32.61.8.62,1.43.02.41-.06.76-.24,1.06-.18.3-.4.53-.68.7-.27.17-.58.27-.93.29-.34.03-.67-.03-.97-.16-.3-.13-.56-.35-.78-.65-.22-.3-.36-.7-.41-1.19Z"/>
    <path d="M125.13,84.49c-.05.44-.22.8-.49,1.09-.27.28-.58.46-.93.53-.34.07-.68.03-.99-.13s-.55-.47-.69-.93c-.09-.3-.15-.63-.17-.98-.03-.35-.04-.7-.03-1.05s.02-.68.04-.99c.02-.32.03-.58.03-.8,0-.51,0-1.02-.01-1.51,0-.49-.01-1-.01-1.51-.87-.83-1.66-1.71-2.37-2.64-.72-.93-1.36-1.92-1.92-2.98-.18-.32-.34-.67-.5-1.05-.16-.38-.25-.76-.27-1.13-.09-.34-.05-.64.11-.91.16-.27.38-.49.65-.64.27-.15.57-.22.9-.21.33,0,.62.12.89.33.19.16.35.34.48.56.12.21.23.44.32.68.09.24.17.48.25.73.08.25.18.48.3.69.37.67.78,1.3,1.23,1.87.45.57.93,1.14,1.45,1.71.46-.62.95-1.2,1.48-1.74.53-.54,1.02-1.12,1.46-1.74.09-.14.22-.36.4-.65.18-.29.36-.6.56-.91.19-.32.4-.61.61-.89.21-.27.4-.46.56-.54.28-.18.57-.26.86-.24.29.02.56.11.8.27.24.16.43.38.57.65.14.27.19.57.16.89-.04.34-.19.74-.46,1.22-.27.48-.59.96-.95,1.46-.36.5-.73.96-1.1,1.41-.37.44-.66.8-.88,1.06-.18.21-.35.42-.52.62-.17.2-.34.4-.52.6-.23.27-.45.53-.66.8-.21.27-.42.53-.64.8v3.02c0,1.01,0,2.02.03,3.02v.19Z"/>
    <path d="M129.9,79.03c.12-.51.3-1.02.52-1.51.22-.49.49-.97.81-1.42.32-.45.68-.86,1.07-1.23s.83-.67,1.29-.9c.81-.42,1.63-.64,2.45-.65.82,0,1.59.15,2.29.49.71.34,1.31.84,1.8,1.5.5.66.82,1.45.98,2.37.09.6.14,1.17.15,1.71,0,.54-.05,1.1-.17,1.68-.18.83-.54,1.66-1.07,2.48-.54.82-1.18,1.51-1.94,2.07s-1.57.92-2.47,1.1c-.89.18-1.79.04-2.69-.42-.41-.19-.77-.42-1.1-.68-.33-.26-.62-.56-.89-.92-.3-.39-.54-.8-.7-1.22-.17-.42-.31-.87-.41-1.33-.12-.49-.17-.99-.13-1.5.04-.5.1-.99.19-1.47l.03-.16ZM133.08,79.59c-.05.28-.1.56-.13.84-.04.27-.04.55,0,.84.05.41.16.78.33,1.11.17.34.39.6.66.8.27.19.59.3.94.3.35,0,.73-.1,1.14-.33.51-.3.95-.76,1.33-1.39.37-.63.6-1.28.69-1.96.09-.68.02-1.33-.21-1.94-.23-.61-.68-1.05-1.35-1.31-.44,0-.85.08-1.22.25-.37.17-.69.39-.97.66-.27.27-.51.6-.72.97-.2.37-.37.76-.49,1.17Z"/>
    <path d="M154.75,83.3c.16.23.25.5.28.81.03.31,0,.6-.11.88-.1.27-.26.5-.48.68-.22.18-.51.26-.86.24-.46-.04-.83-.19-1.11-.48-.28-.28-.55-.6-.8-.95-.69.57-1.4.96-2.13,1.18-.73.22-1.45.27-2.16.15-.71-.12-1.37-.42-1.99-.89-.62-.47-1.14-1.1-1.56-1.9-.39-.74-.61-1.56-.65-2.47-.04-.9-.06-1.76-.04-2.57,0-.28,0-.56.03-.84.02-.27.04-.56.05-.86.02-.23.03-.46.03-.68s.01-.43.04-.62c.03-.19.08-.39.16-.58.08-.19.2-.38.36-.56.21-.23.47-.37.77-.41.3-.04.59-.01.86.09.27.11.51.27.72.49.2.22.31.49.33.81.04.9.01,1.81-.07,2.73-.08.92-.08,1.82.01,2.71.04.42.15.86.33,1.3.19.44.48.76.89.95.41.18.82.16,1.23-.04.42-.2.76-.45,1.02-.73.12-.14.24-.3.36-.46.11-.17.24-.31.38-.44-.07-.62-.12-1.24-.13-1.86-.02-.62-.02-1.24,0-1.86,0-.34.01-.7.04-1.1.03-.4.1-.78.21-1.14.11-.36.29-.68.52-.95.23-.27.56-.45.98-.52.19-.04.38-.02.57.05.19.07.35.17.49.29.25.21.42.45.5.72.09.27.13.55.13.85s-.02.61-.07.91c-.04.31-.08.6-.09.86-.04.5-.06,1.02-.08,1.56-.02.55,0,1.1.05,1.64.05.55.15,1.08.3,1.59.15.51.38.98.68,1.41Z"/>
    <path d="M172.91,77.78v-.37c-.16-.41-.42-.69-.77-.86-.35-.17-.73-.27-1.14-.31-.23.07-.42.15-.56.24-.14.09-.27.19-.37.29-.11.11-.2.23-.29.36s-.19.27-.32.41v6.95c0,.55-.16.98-.49,1.29-.33.31-.69.49-1.09.53-.4.04-.76-.05-1.1-.29-.34-.24-.51-.64-.53-1.21-.04-1.36-.05-2.91-.04-4.64,0-1.73.01-3.67.01-5.81,0-.37.11-.68.33-.93.22-.25.49-.42.8-.5.31-.09.63-.08.95.01.33.1.6.3.81.6.99-.49,1.98-.65,2.96-.46.98.19,1.87.65,2.67,1.39.35-.35.73-.67,1.14-.95.41-.28.85-.47,1.33-.56.55-.09,1.1-.07,1.66.07.56.13,1.07.35,1.55.65.48.3.9.67,1.26,1.11.36.44.63.92.81,1.43.09.35.13.67.13.95v7.21c0,.21-.03.42-.08.61-.16.46-.41.78-.76.97s-.7.25-1.06.2c-.36-.05-.68-.22-.94-.5-.27-.28-.4-.66-.4-1.14v-7.13c-.16-.42-.39-.73-.69-.93-.3-.19-.61-.28-.93-.27-.32.02-.62.13-.92.34-.29.21-.53.5-.7.88v6.95c0,.48-.15.88-.46,1.19-.31.32-.65.52-1.02.61-.37.09-.72.05-1.05-.11s-.52-.48-.57-.95l-.13-7.32Z"/>
    <path d="M185.14,69.54c.07-.65.3-1.14.68-1.45.38-.31.78-.46,1.21-.45.42,0,.82.17,1.18.49.36.32.55.77.57,1.35.04.6-.12,1.07-.46,1.39-.34.33-.74.51-1.18.56-.44.04-.86-.07-1.25-.36-.39-.28-.63-.73-.72-1.35l-.03-.19ZM188.64,84.63c-.04.35-.16.67-.37.94-.21.27-.46.47-.73.6-.27.12-.57.15-.89.08-.32-.07-.6-.27-.85-.58-.14-.18-.24-.38-.31-.6-.06-.22-.1-.45-.12-.69-.02-.24-.02-.48-.01-.72,0-.24.01-.46.01-.65-.02-1.04-.02-2.08-.01-3.1,0-1.03,0-2.06-.01-3.1,0-.42-.03-.85-.08-1.29-.05-.43-.03-.86.08-1.29.09-.32.24-.59.46-.82.22-.23.47-.39.74-.48.27-.09.56-.1.85-.03.29.07.54.26.76.56.28.35.42.7.42,1.05v3.06c0,.6,0,1.19.03,1.78.02.85.03,1.7.03,2.55v2.73Z"/>
    <path d="M192.35,90.91c-.3-.37-.46-.76-.48-1.15-.02-.4.07-.74.27-1.02.19-.28.47-.48.84-.58.36-.11.76-.05,1.21.16.19.14.37.25.53.32.16.07.38.18.66.32.27.12.57.22.9.28.34.06.65.08.95.04.6-.04,1.06-.14,1.39-.3.33-.17.56-.39.7-.66.14-.27.23-.61.25-1.01.03-.4.04-.84.04-1.34-.57.19-1.13.34-1.7.44-.57.1-1.15.11-1.75.04-1.17-.14-2.13-.56-2.88-1.25-.75-.69-1.3-1.51-1.64-2.47-.34-.95-.49-1.98-.42-3.06.06-1.09.31-2.09.76-3.01.27-.53.63-1.02,1.09-1.47.46-.45.98-.82,1.55-1.11.57-.29,1.18-.48,1.8-.57.63-.09,1.23-.04,1.82.16.34.12.66.25.98.37.32.12.63.28.93.48.34-.3.73-.45,1.18-.45s.84.21,1.15.64c.07.11.15.23.24.36s.13.26.13.38c.02,1.89.02,3.78.01,5.66,0,1.88-.01,3.77-.01,5.66,0,.76-.1,1.47-.31,2.12-.2.65-.51,1.23-.91,1.74-.41.5-.91.91-1.51,1.23-.6.32-1.3.52-2.1.61-.41.04-.8.05-1.19.05s-.79-.04-1.19-.13c-.57-.11-1.11-.28-1.63-.53-.52-.25-1.04-.52-1.55-.82l-.11-.11ZM195.48,82.82c.78.37,1.49.49,2.15.36.65-.13,1.32-.43,1.99-.89v-4.22c-.51-.51-1.01-.87-1.5-1.07-.49-.2-1.06-.26-1.74-.17-.12.07-.24.13-.36.19-.12.05-.23.11-.36.16-.37.42-.65.84-.85,1.23-.19.4-.31.8-.34,1.22-.04.42,0,.84.09,1.27.1.43.24.91.44,1.42.05.09.13.18.24.27.11.09.19.17.24.24Z"/>
    <path d="M208.13,85.91c-.35.26-.72.38-1.1.36-.38-.02-.72-.17-1.01-.46-.29-.29-.44-.69-.44-1.21v-14.74c0-.41.16-.75.48-1.03.32-.28.67-.46,1.06-.53.39-.07.75,0,1.09.19.34.19.52.56.56,1.09.07.92.1,1.82.09,2.69,0,.88-.02,1.75-.04,2.64.65-.44,1.33-.74,2.04-.89.71-.15,1.39-.15,2.04.01.65.16,1.26.48,1.83.95.57.48,1.02,1.14,1.38,1.99.25.57.42,1.17.5,1.82.09.65.14,1.3.15,1.96,0,.66,0,1.32-.03,1.98-.03.65-.04,1.27-.04,1.86,0,.37-.1.71-.29,1.01-.19.3-.44.52-.73.66-.29.14-.6.19-.93.13-.33-.05-.62-.25-.89-.58-.27-.35-.43-.77-.49-1.25-.06-.48-.08-.99-.05-1.52.03-.54.07-1.09.12-1.66.05-.57.07-1.11.04-1.63-.03-.52-.13-1-.3-1.45-.18-.44-.49-.8-.93-1.09-.35-.05-.67-.03-.96.07-.28.1-.54.24-.77.44-.23.19-.45.42-.65.66-.2.25-.41.5-.62.74-.05.09-.11.17-.19.25-.07.08-.15.16-.24.25v5.04c-.11.58-.34,1-.69,1.26Z"/>
    <path d="M219.83,76.54c-.35-.09-.66-.24-.91-.45-.26-.21-.43-.46-.53-.74-.1-.28-.1-.57,0-.88.1-.3.31-.57.65-.82.28-.21.6-.32.95-.32h1.03c0-.12,0-.39-.03-.81-.02-.42-.02-.87-.01-1.37,0-.49.04-.97.09-1.42.05-.45.15-.76.29-.94.35-.49.79-.73,1.31-.7.52.03.95.28,1.29.76.07.09.14.19.2.32.06.12.09.24.09.34.02.64.02,1.27.01,1.91,0,.64-.01,1.27-.01,1.91h2.1c.32,0,.59.11.82.32.23.21.39.46.49.74.1.28.12.57.08.88-.04.3-.18.55-.41.74-.41.34-.88.51-1.42.53-.54.02-1.09.03-1.66.03,0,.97,0,1.95-.01,2.92,0,.97,0,1.95.01,2.92,0,.42.02.86.07,1.3.04.44.01.87-.09,1.27-.09.32-.24.57-.45.76-.21.19-.45.3-.72.34-.27.04-.54.03-.82-.05-.28-.08-.55-.23-.8-.44-.12-.12-.22-.34-.28-.64-.06-.3-.1-.62-.12-.95-.02-.39-.02-.8,0-1.25v-1.38c0-.57,0-1.15-.01-1.76,0-.61-.01-1.19-.01-1.74v-1.3l-1.19-.03Z"/>
    <path d="M248.86,81.81c.42-.11.8-.11,1.13-.01.33.1.58.26.76.49.18.23.26.51.24.85-.02.34-.17.69-.45,1.06-.23.3-.55.56-.95.77-.41.21-.79.38-1.14.5-.87.32-1.69.54-2.47.66-.78.12-1.51.12-2.19,0-.68-.12-1.32-.38-1.91-.77-.59-.39-1.15-.94-1.66-1.64-.35-.48-.61-1.02-.78-1.63-.17-.61-.26-1.23-.28-1.87-.02-.64.04-1.26.16-1.88.12-.62.3-1.18.53-1.67.3-.62.78-1.18,1.43-1.7.65-.51,1.38-.92,2.17-1.22.8-.3,1.61-.47,2.44-.52.83-.04,1.56.08,2.2.38.53.25.99.61,1.37,1.07.38.47.64.98.78,1.52.14.55.15,1.1.04,1.66s-.4,1.07-.86,1.52c-.44.44-.93.8-1.46,1.07-.53.27-1.08.51-1.64.72-.57.2-1.15.38-1.74.52-.59.14-1.16.3-1.71.48.37.42.8.69,1.27.81.48.12.98.14,1.5.07.52-.07,1.05-.22,1.58-.44.53-.22,1.02-.46,1.48-.73l.16-.08ZM243.51,77.25c-.41.23-.71.52-.9.86-.19.34-.34.83-.42,1.45.46-.14.98-.29,1.55-.45.57-.16,1.12-.33,1.63-.5.51-.18.95-.37,1.3-.58.35-.21.53-.44.53-.69,0-.14-.02-.28-.07-.41-.04-.13-.14-.23-.28-.28-.5-.18-1.01-.21-1.54-.11-.53.11-.97.26-1.33.45l-.48.27Z"/>
    <path d="M263.03,84.68c-.05.44-.22.8-.49,1.09-.27.28-.58.46-.93.53-.34.07-.68.03-1-.13-.32-.16-.55-.47-.69-.93-.16-.49-.22-1.01-.19-1.55.04-.54.05-1.04.05-1.5,0-.95,0-1.9.01-2.85,0-.95-.03-1.9-.12-2.85-.02-.04-.04-.07-.05-.09-.02-.03-.05-.07-.11-.12-.41-.11-.84-.08-1.3.08s-.85.36-1.17.61c-.28.23-.56.54-.83.94-.27.4-.41.78-.41,1.15v3.66c0,.28,0,.59.03.93.02.34,0,.66-.04.98-.04.32-.15.61-.31.88s-.42.46-.77.58c-.2.07-.38.1-.54.08s-.35-.06-.54-.13c-.32-.11-.55-.29-.69-.54-.14-.26-.24-.53-.29-.82-.05-.29-.08-.57-.07-.85,0-.27.01-.49.01-.65,0-.41,0-.99-.01-1.76,0-.77-.01-1.58-.01-2.43v-4.19c0-.39.12-.71.34-.97.23-.26.5-.42.81-.5.31-.08.64-.06.98.05.34.12.63.35.86.7.71-.46,1.48-.77,2.33-.93.85-.16,1.65-.13,2.4.08.75.21,1.38.61,1.88,1.19.5.58.76,1.39.78,2.41,0,.04,0,.14.03.32.02.18.03.42.03.74v6.79Z"/>
    <path d="M277.85,83.25c.3.51.4.97.31,1.38-.1.41-.3.71-.6.92-.3.2-.67.28-1.1.24-.43-.04-.85-.27-1.26-.68-.42.3-.87.53-1.33.7-.46.17-.95.31-1.46.44-.8.18-1.56.16-2.29-.04-.73-.2-1.38-.53-1.95-.99-.57-.46-1.03-1.03-1.38-1.71-.35-.68-.55-1.42-.58-2.21-.05-.88.01-1.73.2-2.55.19-.81.48-1.56.89-2.23.41-.67.94-1.25,1.6-1.72.66-.48,1.45-.81,2.35-1.01.53-.11,1.06-.16,1.6-.16s1.07.04,1.6.13c-.02-.39-.03-.84-.04-1.34,0-.5-.01-.99-.01-1.47s.02-.91.05-1.29c.04-.38.08-.65.13-.81.12-.32.31-.56.57-.73.26-.17.53-.26.81-.27.28,0,.56.06.84.21.27.15.49.38.65.68.04.09.08.17.13.25s.08.16.08.25c.02,2.32.02,4.61.01,6.87,0,2.26-.01,4.55-.01,6.87.07.11.13.19.19.27ZM274.16,81.79c.04-.05.1-.11.2-.16s.15-.12.15-.21v-2.19c0-.72,0-1.45-.03-2.19-.42-.09-.87-.14-1.33-.16-.46-.02-.91.03-1.34.13-.43.11-.83.28-1.19.53-.36.25-.65.6-.86,1.06-.11.34-.2.67-.29,1.01-.09.34-.14.66-.15.98,0,.32.03.63.12.94.09.31.24.61.45.89.07.07.15.14.25.21.1.07.29.19.57.37.65.05,1.28,0,1.87-.19.59-.18,1.12-.52,1.58-1.03Z"/>
    <path d="M302.09,83.3c.16.23.25.5.28.81.03.31,0,.6-.11.88-.1.27-.26.5-.48.68-.22.18-.51.26-.86.24-.46-.04-.83-.19-1.11-.48-.28-.28-.55-.6-.8-.95-.69.57-1.4.96-2.13,1.18-.73.22-1.45.27-2.16.15-.71-.12-1.37-.42-1.99-.89-.62-.47-1.14-1.1-1.56-1.9-.39-.74-.61-1.56-.65-2.47-.04-.9-.06-1.76-.04-2.57,0-.28,0-.56.03-.84.02-.27.04-.56.05-.86.02-.23.03-.46.03-.68s.01-.43.04-.62c.03-.19.08-.39.16-.58.08-.19.2-.38.36-.56.21-.23.47-.37.77-.41.3-.04.59-.01.86.09.27.11.51.27.72.49.2.22.31.49.33.81.04.9.01,1.81-.07,2.73-.08.92-.08,1.82.01,2.71.04.42.15.86.33,1.3.19.44.48.76.89.95.41.18.82.16,1.23-.04.42-.2.76-.45,1.02-.73.12-.14.24-.3.36-.46.11-.17.24-.31.38-.44-.07-.62-.12-1.24-.13-1.86-.02-.62-.02-1.24,0-1.86,0-.34.01-.7.04-1.1.03-.4.1-.78.21-1.14.11-.36.29-.68.52-.95.23-.27.56-.45.98-.52.19-.04.38-.02.57.05.19.07.35.17.49.29.25.21.42.45.5.72.09.27.13.55.13.85s-.02.61-.07.91c-.04.31-.08.6-.09.86-.04.5-.06,1.02-.08,1.56-.02.55,0,1.1.05,1.64.05.55.15,1.08.3,1.59.15.51.38.98.68,1.41Z"/>
    <path d="M304.45,74.47c.12-.42.32-.75.6-.97.27-.22.57-.35.88-.38.31-.04.6.02.89.16s.5.36.66.66c.19-.11.39-.2.58-.29.19-.09.42-.17.66-.24,1.13-.3,2.14-.28,3.01.07s1.6.88,2.19,1.59c.58.72,1,1.56,1.25,2.52.25.96.31,1.93.17,2.89-.13.96-.47,1.87-1.02,2.7-.55.84-1.34,1.49-2.36,1.95-.67.3-1.37.49-2.11.57-.73.08-1.46.09-2.19.04,0,.02,0,.16.01.42,0,.27.01.6.01,1.01v1.33c0,.48-.01.94-.04,1.38-.03.44-.06.84-.11,1.18-.04.34-.11.58-.2.7-.23.34-.51.55-.85.64-.34.09-.65.07-.95-.04-.3-.12-.56-.31-.78-.58-.22-.27-.33-.61-.33-.99v-16.15l.03-.16ZM307.84,77.92c-.05.09-.08.13-.08.12s-.04.02-.11.09v4.38c.35.05.71.08,1.06.08s.73-.05,1.11-.16c.8-.19,1.42-.58,1.88-1.15.46-.57.64-1.29.53-2.14-.05-.35-.15-.72-.3-1.1-.15-.38-.35-.7-.6-.97-.25-.27-.54-.45-.88-.56-.34-.11-.72-.07-1.14.11-.3.12-.57.31-.81.56-.24.25-.46.5-.68.74Z"/>
    <path d="M333.83,77.78v-.37c-.16-.41-.42-.69-.77-.86-.35-.17-.73-.27-1.14-.31-.23.07-.42.15-.56.24-.14.09-.27.19-.37.29-.11.11-.2.23-.29.36s-.19.27-.32.41v6.95c0,.55-.16.98-.49,1.29-.33.31-.69.49-1.09.53-.4.04-.77-.05-1.1-.29-.34-.24-.51-.64-.53-1.21-.04-1.36-.05-2.91-.04-4.64,0-1.73.01-3.67.01-5.81,0-.37.11-.68.33-.93.22-.25.49-.42.8-.5.31-.09.63-.08.95.01.33.1.6.3.81.6.99-.49,1.98-.65,2.96-.46.98.19,1.87.65,2.67,1.39.35-.35.73-.67,1.14-.95.41-.28.85-.47,1.33-.56.55-.09,1.1-.07,1.66.07s1.07.35,1.55.65c.48.3.9.67,1.26,1.11.36.44.63.92.81,1.43.09.35.13.67.13.95v7.21c0,.21-.03.42-.08.61-.16.46-.41.78-.76.97s-.7.25-1.06.2c-.36-.05-.68-.22-.94-.5-.27-.28-.4-.66-.4-1.14v-7.13c-.16-.42-.39-.73-.69-.93-.3-.19-.61-.28-.93-.27-.32.02-.62.13-.92.34-.29.21-.53.5-.7.88v6.95c0,.48-.16.88-.46,1.19-.31.32-.65.52-1.02.61-.37.09-.72.05-1.05-.11s-.52-.48-.57-.95l-.13-7.32Z"/>
    <path d="M355.76,81.81c.42-.11.8-.11,1.13-.01.33.1.58.26.76.49.18.23.26.51.24.85-.02.34-.17.69-.45,1.06-.23.3-.55.56-.95.77-.41.21-.79.38-1.14.5-.87.32-1.69.54-2.47.66-.78.12-1.51.12-2.19,0-.68-.12-1.32-.38-1.91-.77-.59-.39-1.15-.94-1.66-1.64-.35-.48-.61-1.02-.78-1.63-.17-.61-.26-1.23-.28-1.87s.04-1.26.16-1.88c.12-.62.3-1.18.53-1.67.3-.62.78-1.18,1.43-1.7.65-.51,1.38-.92,2.17-1.22.8-.3,1.61-.47,2.44-.52.83-.04,1.56.08,2.2.38.53.25.99.61,1.37,1.07.38.47.64.98.78,1.52.14.55.15,1.1.04,1.66-.12.56-.4,1.07-.86,1.52-.44.44-.93.8-1.46,1.07-.53.27-1.08.51-1.64.72-.57.2-1.14.38-1.74.52-.59.14-1.16.3-1.71.48.37.42.8.69,1.27.81.48.12.98.14,1.5.07.52-.07,1.05-.22,1.58-.44.53-.22,1.02-.46,1.48-.73l.16-.08ZM350.4,77.25c-.41.23-.71.52-.9.86-.19.34-.34.83-.42,1.45.46-.14.98-.29,1.55-.45.57-.16,1.12-.33,1.63-.5.51-.18.95-.37,1.3-.58s.53-.44.53-.69c0-.14-.02-.28-.07-.41-.04-.13-.14-.23-.28-.28-.5-.18-1.01-.21-1.54-.11-.53.11-.97.26-1.33.45l-.48.27Z"/>
    <path d="M368.92,81.81c.42-.11.8-.11,1.13-.01.33.1.58.26.76.49.18.23.26.51.24.85-.02.34-.17.69-.45,1.06-.23.3-.55.56-.95.77-.41.21-.79.38-1.14.5-.87.32-1.69.54-2.47.66-.78.12-1.51.12-2.19,0-.68-.12-1.32-.38-1.91-.77-.59-.39-1.15-.94-1.66-1.64-.35-.48-.61-1.02-.78-1.63-.17-.61-.26-1.23-.28-1.87-.02-.64.04-1.26.16-1.88.12-.62.3-1.18.53-1.67.3-.62.78-1.18,1.43-1.7.65-.51,1.38-.92,2.17-1.22.8-.3,1.61-.47,2.44-.52.83-.04,1.56.08,2.2.38.53.25.99.61,1.37,1.07.38.47.64.98.78,1.52.14.55.15,1.1.04,1.66-.11.56-.4,1.07-.86,1.52-.44.44-.93.8-1.46,1.07-.53.27-1.08.51-1.64.72-.57.2-1.15.38-1.74.52-.59.14-1.16.3-1.71.48.37.42.8.69,1.27.81.48.12.98.14,1.5.07.52-.07,1.05-.22,1.58-.44.53-.22,1.02-.46,1.48-.73l.16-.08ZM363.56,77.25c-.41.23-.71.52-.9.86-.2.34-.34.83-.42,1.45.46-.14.98-.29,1.55-.45.57-.16,1.12-.33,1.63-.5.51-.18.95-.37,1.3-.58.35-.21.53-.44.53-.69,0-.14-.02-.28-.07-.41-.04-.13-.14-.23-.28-.28-.5-.18-1.01-.21-1.54-.11-.53.11-.97.26-1.33.45l-.48.27Z"/>
    <path d="M373.42,76.54c-.35-.09-.66-.24-.92-.45-.26-.21-.43-.46-.53-.74-.1-.28-.1-.57,0-.88.1-.3.31-.57.65-.82.28-.21.6-.32.95-.32h1.03c0-.12,0-.39-.03-.81-.02-.42-.02-.87-.01-1.37,0-.49.04-.97.09-1.42.05-.45.15-.76.29-.94.35-.49.79-.73,1.31-.7.52.03.95.28,1.29.76.07.09.14.19.2.32.06.12.09.24.09.34.02.64.02,1.27.01,1.91,0,.64-.01,1.27-.01,1.91h2.1c.32,0,.59.11.82.32.23.21.39.46.49.74.1.28.12.57.08.88-.04.3-.18.55-.41.74-.41.34-.88.51-1.42.53-.54.02-1.09.03-1.66.03,0,.97,0,1.95-.01,2.92,0,.97,0,1.95.01,2.92,0,.42.02.86.07,1.3.04.44.01.87-.09,1.27-.09.32-.24.57-.45.76-.21.19-.45.3-.72.34-.26.04-.54.03-.82-.05-.28-.08-.55-.23-.79-.44-.12-.12-.22-.34-.28-.64-.06-.3-.1-.62-.12-.95-.02-.39-.02-.8,0-1.25v-1.38c0-.57,0-1.15-.01-1.76,0-.61-.01-1.19-.01-1.74v-1.3l-1.19-.03Z"/>
    <path d="M383.16,69.54c.07-.65.3-1.14.68-1.45.38-.31.78-.46,1.21-.45.42,0,.82.17,1.18.49.36.32.55.77.57,1.35.04.6-.12,1.07-.46,1.39-.34.33-.74.51-1.18.56-.44.04-.86-.07-1.25-.36-.39-.28-.63-.73-.72-1.35l-.03-.19ZM386.66,84.63c-.04.35-.16.67-.37.94-.21.27-.46.47-.73.6-.27.12-.57.15-.89.08-.32-.07-.6-.27-.85-.58-.14-.18-.24-.38-.3-.6-.06-.22-.1-.45-.12-.69-.02-.24-.02-.48-.01-.72,0-.24.01-.46.01-.65-.02-1.04-.02-2.08-.01-3.1,0-1.03,0-2.06-.01-3.1,0-.42-.03-.85-.08-1.29-.05-.43-.03-.86.08-1.29.09-.32.24-.59.46-.82.22-.23.47-.39.74-.48.27-.09.56-.1.85-.03.29.07.54.26.76.56.28.35.42.7.42,1.05v3.06c0,.6,0,1.19.03,1.78.02.85.03,1.7.03,2.55v2.73Z"/>
    <path d="M400.18,84.68c-.05.44-.22.8-.49,1.09-.27.28-.58.46-.93.53-.34.07-.68.03-.99-.13-.32-.16-.55-.47-.69-.93-.16-.49-.22-1.01-.19-1.55.04-.54.05-1.04.05-1.5,0-.95,0-1.9.01-2.85,0-.95-.03-1.9-.12-2.85-.02-.04-.04-.07-.05-.09s-.05-.07-.11-.12c-.41-.11-.84-.08-1.3.08-.46.16-.85.36-1.17.61-.28.23-.56.54-.83.94-.27.4-.41.78-.41,1.15v3.66c0,.28,0,.59.03.93.02.34,0,.66-.04.98-.04.32-.15.61-.3.88s-.42.46-.77.58c-.19.07-.38.1-.54.08-.17-.02-.35-.06-.54-.13-.32-.11-.55-.29-.69-.54s-.24-.53-.29-.82c-.05-.29-.08-.57-.07-.85,0-.27.01-.49.01-.65,0-.41,0-.99-.01-1.76s-.01-1.58-.01-2.43v-4.19c0-.39.11-.71.34-.97.23-.26.5-.42.81-.5.31-.08.64-.06.98.05.34.12.63.35.86.7.71-.46,1.48-.77,2.33-.93.85-.16,1.65-.13,2.4.08.75.21,1.38.61,1.88,1.19.5.58.76,1.39.78,2.41,0,.04,0,.14.03.32.02.18.03.42.03.74v6.79Z"/>
    <path d="M403.52,90.91c-.3-.37-.46-.76-.48-1.15-.02-.4.07-.74.27-1.02.19-.28.47-.48.84-.58.36-.11.76-.05,1.21.16.19.14.37.25.53.32.16.07.38.18.66.32.27.12.57.22.9.28.34.06.65.08.96.04.6-.04,1.06-.14,1.39-.3.33-.17.56-.39.7-.66.14-.27.23-.61.25-1.01.03-.4.04-.84.04-1.34-.57.19-1.13.34-1.7.44-.57.1-1.15.11-1.75.04-1.17-.14-2.13-.56-2.88-1.25-.75-.69-1.3-1.51-1.64-2.47-.34-.95-.49-1.98-.42-3.06.06-1.09.31-2.09.76-3.01.27-.53.63-1.02,1.09-1.47.46-.45.98-.82,1.55-1.11.57-.29,1.18-.48,1.8-.57.63-.09,1.23-.04,1.82.16.34.12.66.25.98.37.32.12.63.28.93.48.34-.3.73-.45,1.18-.45s.84.21,1.15.64c.07.11.15.23.24.36s.13.26.13.38c.02,1.89.02,3.78.01,5.66,0,1.88-.01,3.77-.01,5.66,0,.76-.1,1.47-.3,2.12-.2.65-.51,1.23-.92,1.74-.41.5-.91.91-1.51,1.23-.6.32-1.3.52-2.1.61-.41.04-.8.05-1.19.05s-.79-.04-1.19-.13c-.57-.11-1.11-.28-1.63-.53-.52-.25-1.04-.52-1.55-.82l-.11-.11ZM406.65,82.82c.78.37,1.49.49,2.15.36.65-.13,1.32-.43,1.99-.89v-4.22c-.51-.51-1.01-.87-1.5-1.07-.49-.2-1.07-.26-1.74-.17-.12.07-.24.13-.36.19-.11.05-.23.11-.36.16-.37.42-.65.84-.85,1.23-.2.4-.31.8-.34,1.22-.04.42,0,.84.09,1.27.1.43.24.91.44,1.42.05.09.13.18.24.27.11.09.19.17.24.24Z"/>
    <path d="M425.24,83.59c-.11-.3-.15-.6-.13-.89.02-.29.09-.56.23-.8.13-.24.32-.42.57-.56s.55-.18.9-.15c.19.02.37.07.53.16.16.09.3.19.44.32.13.12.27.26.4.4.13.14.27.27.41.37.3.23.62.4.96.5.34.11.69.19,1.06.24.25,0,.45-.06.6-.19.15-.12.25-.27.3-.45.05-.18.07-.37.04-.57-.03-.2-.09-.37-.2-.49-.3-.3-.67-.49-1.1-.58-.43-.09-.84-.19-1.21-.32-.53-.18-1.05-.4-1.56-.68-.51-.27-.93-.65-1.25-1.13-.34-.49-.53-1.02-.6-1.58-.06-.56-.02-1.1.13-1.63.15-.53.4-1.02.76-1.46s.78-.8,1.27-1.09c.37-.21.78-.35,1.22-.41.44-.06.89-.07,1.34-.04.45.04.9.12,1.34.25s.85.28,1.22.44c.42.19.74.47.95.82.21.35.31.71.31,1.07,0,.36-.13.68-.37.94-.24.27-.59.4-1.05.4-.28,0-.54-.05-.77-.15-.23-.1-.47-.19-.72-.28-.32-.12-.66-.21-1.03-.25-.37-.04-.67-.02-.9.07-.07.02-.15.08-.24.17-.09.1-.15.22-.2.36-.04.14-.05.28-.03.42.03.14.12.26.28.34.42.23.88.41,1.35.53.48.12.95.27,1.41.42.46.16.89.36,1.29.61.4.25.73.6.99,1.06.39.67.59,1.37.6,2.11,0,.73-.14,1.42-.44,2.06-.3.64-.74,1.18-1.33,1.63-.58.45-1.26.72-2.04.81-.55.05-1.09.02-1.62-.09-.53-.12-1.04-.3-1.54-.56-.5-.26-.96-.56-1.38-.92-.42-.35-.8-.72-1.11-1.11l-.08-.16Z"/>
    <path d="M436.3,79.03c.12-.51.3-1.02.52-1.51.22-.49.49-.97.81-1.42s.68-.86,1.07-1.23.83-.67,1.29-.9c.81-.42,1.63-.64,2.45-.65.82,0,1.59.15,2.29.49.71.34,1.31.84,1.8,1.5.49.66.82,1.45.98,2.37.09.6.14,1.17.15,1.71,0,.54-.05,1.1-.17,1.68-.18.83-.54,1.66-1.07,2.48s-1.18,1.51-1.94,2.07c-.75.56-1.57.92-2.47,1.1-.89.18-1.79.04-2.69-.42-.41-.19-.77-.42-1.1-.68s-.62-.56-.89-.92c-.3-.39-.53-.8-.7-1.22-.17-.42-.31-.87-.41-1.33-.12-.49-.17-.99-.13-1.5s.1-.99.19-1.47l.03-.16ZM439.48,79.59c-.05.28-.1.56-.13.84-.04.27-.04.55,0,.84.05.41.16.78.33,1.11.17.34.39.6.66.8.27.19.59.3.94.3.35,0,.73-.1,1.14-.33.51-.3.96-.76,1.33-1.39.37-.63.6-1.28.69-1.96.09-.68.02-1.33-.21-1.94-.23-.61-.68-1.05-1.35-1.31-.44,0-.85.08-1.22.25-.37.17-.69.39-.97.66-.27.27-.51.6-.72.97-.2.37-.37.76-.49,1.17Z"/>
    <path d="M456.16,77.78v-.37c-.16-.41-.42-.69-.77-.86-.35-.17-.73-.27-1.14-.31-.23.07-.42.15-.56.24-.14.09-.27.19-.37.29-.11.11-.2.23-.29.36s-.19.27-.32.41v6.95c0,.55-.16.98-.49,1.29-.33.31-.69.49-1.09.53-.4.04-.77-.05-1.1-.29-.34-.24-.51-.64-.53-1.21-.04-1.36-.05-2.91-.04-4.64,0-1.73.01-3.67.01-5.81,0-.37.11-.68.33-.93.22-.25.49-.42.8-.5.31-.09.63-.08.95.01.33.1.6.3.81.6.99-.49,1.98-.65,2.96-.46.98.19,1.87.65,2.67,1.39.35-.35.73-.67,1.14-.95.41-.28.85-.47,1.33-.56.55-.09,1.1-.07,1.66.07s1.07.35,1.55.65c.48.3.9.67,1.26,1.11.36.44.63.92.81,1.43.09.35.13.67.13.95v7.21c0,.21-.03.42-.08.61-.16.46-.41.78-.76.97s-.7.25-1.06.2c-.36-.05-.68-.22-.94-.5-.27-.28-.4-.66-.4-1.14v-7.13c-.16-.42-.39-.73-.69-.93-.3-.19-.61-.28-.93-.27-.32.02-.62.13-.92.34-.29.21-.53.5-.7.88v6.95c0,.48-.16.88-.46,1.19-.31.32-.65.52-1.02.61-.37.09-.72.05-1.05-.11s-.52-.48-.57-.95l-.13-7.32Z"/>
    <path d="M478.09,81.81c.42-.11.8-.11,1.13-.01.33.1.58.26.76.49.18.23.26.51.24.85-.02.34-.17.69-.45,1.06-.23.3-.55.56-.95.77-.41.21-.79.38-1.14.5-.87.32-1.69.54-2.47.66-.78.12-1.51.12-2.19,0-.68-.12-1.32-.38-1.91-.77-.59-.39-1.15-.94-1.66-1.64-.35-.48-.61-1.02-.78-1.63-.17-.61-.26-1.23-.28-1.87s.04-1.26.16-1.88c.12-.62.3-1.18.53-1.67.3-.62.78-1.18,1.43-1.7.65-.51,1.38-.92,2.17-1.22.8-.3,1.61-.47,2.44-.52.83-.04,1.56.08,2.2.38.53.25.99.61,1.37,1.07.38.47.64.98.78,1.52.14.55.15,1.1.04,1.66-.12.56-.4,1.07-.86,1.52-.44.44-.93.8-1.46,1.07-.53.27-1.08.51-1.64.72-.57.2-1.14.38-1.74.52-.59.14-1.16.3-1.71.48.37.42.8.69,1.27.81.48.12.98.14,1.5.07.52-.07,1.05-.22,1.58-.44.53-.22,1.02-.46,1.48-.73l.16-.08ZM472.74,77.25c-.41.23-.71.52-.9.86-.19.34-.34.83-.42,1.45.46-.14.98-.29,1.55-.45.57-.16,1.12-.33,1.63-.5.51-.18.95-.37,1.3-.58s.53-.44.53-.69c0-.14-.02-.28-.07-.41-.04-.13-.14-.23-.28-.28-.5-.18-1.01-.21-1.54-.11-.53.11-.97.26-1.33.45l-.48.27Z"/>
    <path d="M481.22,79.03c.12-.51.3-1.02.52-1.51.22-.49.49-.97.81-1.42.32-.45.68-.86,1.07-1.23.4-.37.83-.67,1.29-.9.81-.42,1.63-.64,2.45-.65.82,0,1.59.15,2.29.49.71.34,1.31.84,1.8,1.5.49.66.82,1.45.98,2.37.09.6.14,1.17.15,1.71,0,.54-.05,1.1-.17,1.68-.18.83-.53,1.66-1.07,2.48-.54.82-1.18,1.51-1.94,2.07s-1.57.92-2.47,1.1c-.89.18-1.79.04-2.69-.42-.41-.19-.77-.42-1.1-.68-.33-.26-.62-.56-.89-.92-.3-.39-.54-.8-.7-1.22s-.3-.87-.41-1.33c-.12-.49-.17-.99-.13-1.5.04-.5.1-.99.19-1.47l.03-.16ZM484.4,79.59c-.05.28-.1.56-.13.84-.04.27-.04.55,0,.84.05.41.16.78.33,1.11.17.34.39.6.66.8.27.19.59.3.94.3.35,0,.73-.1,1.14-.33.51-.3.95-.76,1.33-1.39.37-.63.6-1.28.69-1.96.09-.68.02-1.33-.21-1.94s-.68-1.05-1.35-1.31c-.44,0-.85.08-1.22.25-.37.17-.69.39-.97.66-.27.27-.51.6-.72.97-.2.37-.37.76-.49,1.17Z"/>
    <path d="M505.09,84.68c-.05.44-.22.8-.49,1.09-.27.28-.58.46-.93.53-.34.07-.68.03-.99-.13s-.55-.47-.69-.93c-.16-.49-.22-1.01-.19-1.55.04-.54.05-1.04.05-1.5,0-.95,0-1.9.01-2.85,0-.95-.03-1.9-.12-2.85-.02-.04-.04-.07-.05-.09-.02-.03-.05-.07-.11-.12-.41-.11-.84-.08-1.3.08s-.85.36-1.17.61c-.28.23-.56.54-.83.94-.27.4-.41.78-.41,1.15v3.66c0,.28,0,.59.03.93.02.34,0,.66-.04.98-.04.32-.15.61-.31.88s-.42.46-.77.58c-.2.07-.38.1-.54.08s-.35-.06-.54-.13c-.32-.11-.55-.29-.69-.54s-.24-.53-.29-.82-.08-.57-.07-.85c0-.27.01-.49.01-.65,0-.41,0-.99-.01-1.76,0-.77-.01-1.58-.01-2.43v-4.19c0-.39.11-.71.34-.97.23-.26.5-.42.81-.5.31-.08.64-.06.98.05.34.12.63.35.86.7.71-.46,1.48-.77,2.33-.93.85-.16,1.65-.13,2.4.08.75.21,1.38.61,1.88,1.19.5.58.76,1.39.78,2.41,0,.04,0,.14.03.32.02.18.03.42.03.74v6.79Z"/>
    <path d="M517.24,81.81c.42-.11.8-.11,1.13-.01.33.1.58.26.76.49.18.23.26.51.24.85-.02.34-.17.69-.45,1.06-.23.3-.55.56-.95.77-.41.21-.79.38-1.14.5-.87.32-1.69.54-2.47.66-.78.12-1.51.12-2.19,0-.68-.12-1.32-.38-1.91-.77-.59-.39-1.15-.94-1.66-1.64-.35-.48-.61-1.02-.78-1.63-.17-.61-.26-1.23-.28-1.87-.02-.64.04-1.26.16-1.88.12-.62.3-1.18.53-1.67.3-.62.78-1.18,1.43-1.7.65-.51,1.38-.92,2.17-1.22.8-.3,1.61-.47,2.44-.52.83-.04,1.56.08,2.2.38.53.25.99.61,1.37,1.07.38.47.64.98.78,1.52.14.55.15,1.1.04,1.66-.11.56-.4,1.07-.86,1.52-.44.44-.93.8-1.46,1.07-.53.27-1.08.51-1.64.72-.57.2-1.15.38-1.74.52-.59.14-1.16.3-1.71.48.37.42.8.69,1.27.81.48.12.98.14,1.5.07.52-.07,1.05-.22,1.58-.44.53-.22,1.02-.46,1.48-.73l.16-.08ZM511.88,77.25c-.41.23-.71.52-.9.86-.2.34-.34.83-.42,1.45.46-.14.98-.29,1.55-.45.57-.16,1.12-.33,1.63-.5.51-.18.95-.37,1.3-.58.35-.21.53-.44.53-.69,0-.14-.02-.28-.07-.41-.04-.13-.14-.23-.28-.28-.5-.18-1.01-.21-1.54-.11-.53.11-.97.26-1.33.45l-.48.27Z"/>
    <path d="M525.03,83.91c0,.44-.1.82-.3,1.13-.2.31-.46.54-.76.7-.3.16-.63.24-.99.25-.36,0-.7-.05-1.02-.19s-.59-.34-.81-.62c-.22-.28-.35-.65-.38-1.09-.04-.46.05-.84.25-1.15.2-.31.46-.54.78-.7.32-.16.66-.24,1.03-.25.37,0,.72.05,1.05.19s.6.34.82.64c.22.29.33.66.33,1.1Z"/>
  </g>
</svg>