<?xml version="1.0" encoding="UTF-8"?>
<svg id="Layer_1" data-name="Layer 1" xmlns="http://www.w3.org/2000/svg" width="600" height="580" xmlns:xlink="http://www.w3.org/1999/xlink" viewBox="0 0 600 580">
  <defs>
    <clipPath id="clippath">
      <rect x="-6.43" y="-5.12" width="612.86" height="590.23" fill="none"/>
    </clipPath>
  </defs>
  <g clip-path="url(#clippath)">
    <rect x="-9.79" y="-7.08" width="619.57" height="594.17" fill="#2b3751"/>
    <path d="M367.91,178.24c-19.1-3.48-46.99-10.53-76.07,53.88-21.75,48.16-29.52,67.69-29.52,67.69,0,0-129.18,242.08-128.4,244.26.78,2.18,35.64,14.5,35.64,14.5L430.2,208.55s-31.64-24.72-62.29-30.31Z" fill="#f7bc00" stroke="#000" stroke-linecap="round" stroke-linejoin="round" stroke-width="8.61"/>
    <path d="M362.97,178.97l-35.07,61.16,27.1,15.75,43.21-65.11s-23.05-13.13-35.24-11.8Z"/>
    <polygon points="317.29 256.12 355.27 273.93 159.06 555.98 142.24 551.39 317.29 256.12" fill="#ddd"/>
    <path d="M310.48,268.39s-168.06,280.39-166.78,279.74" fill="none" stroke="#221a38" stroke-linecap="round" stroke-miterlimit="10" stroke-width="4.29"/>
    <path d="M346.32,284.23s-187.95,270.01-186.6,269.81" fill="none" stroke="#221a38" stroke-linecap="round" stroke-miterlimit="10" stroke-width="4.29"/>
    <line x1="229.74" y1="404.43" x2="244.01" y2="429.64" fill="none" stroke="#221a38" stroke-linecap="round" stroke-miterlimit="10" stroke-width="4.29"/>
    <line x1="199.29" y1="454.94" x2="211.33" y2="476.38" fill="none" stroke="#221a38" stroke-linecap="round" stroke-miterlimit="10" stroke-width="4.29"/>
    <line x1="270.12" y1="336.38" x2="286.45" y2="368.41" fill="none" stroke="#221a38" stroke-linecap="round" stroke-miterlimit="10" stroke-width="4.29"/>
    <line x1="289.33" y1="303.48" x2="307.28" y2="338.17" fill="none" stroke="#221a38" stroke-linecap="round" stroke-miterlimit="10" stroke-width="4.29"/>
    <path d="M305.3,386.78s-.09-.01-.14-.02c-14.42-2.46-24.07-6.25-33.21-12.35-4.39-2.93-3.98-5.07-6.2-6.39-1.89-1.13-5.33-.4-10.05-2.17-18.54-6.93-22.9-20.69-23.4-21.5-1.78-2.87-1.07-6.85,1.58-8.9,2.64-2.04,6.23-1.38,8.01,1.47.31.48,19.11,29.33,65.36,37.22,3.14.54,5.22,3.79,4.64,7.27-.57,3.43-3.5,5.8-6.59,5.36Z" fill="#fff34a" stroke="#000" stroke-linecap="round" stroke-miterlimit="10" stroke-width="5.12"/>
    <path d="M316.44,377.19c-.05,0-.1-.02-.15-.03-56.8-11.13-79.1-44.37-80.02-45.78-1.93-2.95-1.1-6.91,1.85-8.85,2.95-1.93,6.9-1.11,8.83,1.84.2.29,7.58,9.95,20.31,18.51,1.44.97,4.75,7.58,6.35,8.52,1.53.9,7.48.64,9.84,1.18,11.28,2.6,19.54,8.95,35.3,12.04,3.46.68,5.72,4.04,5.04,7.5-.67,3.41-3.94,5.65-7.35,5.07Z" fill="#fff34a" stroke="#000" stroke-linecap="round" stroke-miterlimit="10" stroke-width="5.39"/>
    <g>
      <path d="M286.46,370.95c-7.97,0-12.64-2.53-13.5-3.04-2.6-1.54-3.45-4.91-1.91-7.51.98-1.65,2.79-2.68,4.71-2.68.95,0,1.89.25,2.72.73.29.15,3.01,1.54,7.98,1.54,2.74,0,5.67-.43,8.69-1.28,3.18-.89,7.07-2.7,11.19-4.62,8.25-3.84,17.59-8.19,27.11-8.19,1.89,0,3.76.17,5.55.52,4.74.91,8.8,1.36,12.43,1.36,17.16,0,21.64-10.16,28.42-25.54,2.97-6.74,6.34-14.38,11.27-21.75,13.19-19.71,25.92-34.66,69.86-47.58,6.18-1.82,8.65-12.98,11.03-23.78,2.26-10.25,4.6-20.85,10.74-27.38,14.08-14.96,21.76-19.65,30.66-25.07.95-.58,1.91-1.17,2.91-1.78.87-.53,1.86-.82,2.87-.82,1.92,0,3.66.97,4.67,2.6.77,1.24,1.01,2.71.67,4.14-.34,1.42-1.21,2.63-2.45,3.4-1.02.63-2,1.23-2.96,1.81-8.56,5.22-15.32,9.34-28.39,23.22-4.07,4.32-6.08,13.43-8.02,22.23-3.07,13.91-6.25,28.29-18.64,31.93-40.5,11.91-51.57,24.82-63.84,43.16-4.4,6.57-7.43,13.44-10.35,20.08-7.27,16.48-14.14,32.05-38.45,32.05-4.35,0-9.23-.52-14.5-1.53-1.07-.21-2.21-.31-3.39-.31-7.2,0-15.36,3.8-22.57,7.15-4.53,2.11-8.82,4.1-12.86,5.24-3.99,1.12-7.91,1.69-11.65,1.69Z" fill="#fff34a"/>
      <path d="M286.46,370.95c-7.97,0-12.64-2.53-13.5-3.04-2.6-1.54-3.45-4.91-1.91-7.51.98-1.65,2.79-2.68,4.71-2.68.95,0,1.89.25,2.72.73.29.15,3.01,1.54,7.98,1.54,2.74,0,5.67-.43,8.69-1.28,3.18-.89,7.07-2.7,11.19-4.62,8.25-3.84,17.59-8.19,27.11-8.19,1.89,0,3.76.17,5.55.52,4.74.91,8.8,1.36,12.43,1.36,17.16,0,21.64-10.16,28.42-25.54,2.97-6.74,6.34-14.38,11.27-21.75,13.19-19.71,25.92-34.66,69.86-47.58,6.18-1.82,8.65-12.98,11.03-23.78,2.26-10.25,4.6-20.85,10.74-27.38,14.08-14.96,21.76-19.65,30.66-25.07.95-.58,1.91-1.17,2.91-1.78.87-.53,1.86-.82,2.87-.82,1.92,0,3.66.97,4.67,2.6.77,1.24,1.01,2.71.67,4.14-.34,1.42-1.21,2.63-2.45,3.4-1.02.63-2,1.23-2.96,1.81-8.56,5.22-15.32,9.34-28.39,23.22-4.07,4.32-6.08,13.43-8.02,22.23-3.07,13.91-6.25,28.29-18.64,31.93-40.5,11.91-51.57,24.82-63.84,43.16-4.4,6.57-7.43,13.44-10.35,20.08-7.27,16.48-14.14,32.05-38.45,32.05-4.35,0-9.23-.52-14.5-1.53-1.07-.21-2.21-.31-3.39-.31-7.2,0-15.36,3.8-22.57,7.15-4.53,2.11-8.82,4.1-12.86,5.24-3.99,1.12-7.91,1.69-11.65,1.69Z" fill="none" stroke="#000" stroke-miterlimit="10" stroke-width="3.51"/>
    </g>
    <g>
      <path d="M261.13,361.32c-.7,0-1.38-.13-2.03-.39-34.42-13.76-31.33-33.45-28.06-54.29,1.12-7.17,2.29-14.58,2.14-22.49-.42-22.06-2.75-38.91-30.4-70.82-8.46-9.76-3.36-23.58,1.57-36.94,3.12-8.46,6.35-17.2,5.27-23.04-3.49-18.74-6.95-25.86-11.33-34.88-.51-1.04-1.01-2.07-1.51-3.13-1.31-2.72-.15-6,2.57-7.31.75-.36,1.54-.54,2.36-.54,2.1,0,4.04,1.22,4.94,3.11.51,1.06,1,2.08,1.49,3.07,4.56,9.37,8.49,17.47,12.25,37.67,1.64,8.8-2.12,18.99-5.76,28.83-3.83,10.38-7.79,21.1-3.57,25.97,29.99,34.62,32.62,54.07,33.07,77.78.17,8.87-1.13,17.11-2.27,24.39-3.12,19.9-5,31.91,21.31,42.42,1.36.54,2.42,1.58,3,2.93.58,1.34.59,2.83.05,4.19-.84,2.09-2.83,3.45-5.09,3.45Z" fill="#fff34a"/>
      <path d="M261.13,361.32c-.7,0-1.38-.13-2.03-.39-34.42-13.76-31.33-33.45-28.06-54.29,1.12-7.17,2.29-14.58,2.14-22.49-.42-22.06-2.75-38.91-30.4-70.82-8.46-9.76-3.36-23.58,1.57-36.94,3.12-8.46,6.35-17.2,5.27-23.04-3.49-18.74-6.95-25.86-11.33-34.88-.51-1.04-1.01-2.07-1.51-3.13-1.31-2.72-.15-6,2.57-7.31.75-.36,1.54-.54,2.36-.54,2.1,0,4.04,1.22,4.94,3.11.51,1.06,1,2.08,1.49,3.07,4.56,9.37,8.49,17.47,12.25,37.67,1.64,8.8-2.12,18.99-5.76,28.83-3.83,10.38-7.79,21.1-3.57,25.97,29.99,34.62,32.62,54.07,33.07,77.78.17,8.87-1.13,17.11-2.27,24.39-3.12,19.9-5,31.91,21.31,42.42,1.36.54,2.42,1.58,3,2.93.58,1.34.59,2.83.05,4.19-.84,2.09-2.83,3.45-5.09,3.45Z" fill="none" stroke="#000" stroke-miterlimit="10" stroke-width="3.51"/>
    </g>
    <g>
      <path d="M275.08,349.31s-7.36,8.13-10.1,21.14" fill="#fff34a" stroke="#000" stroke-linecap="round" stroke-miterlimit="10" stroke-width="5.39"/>
      <g>
        <path d="M264.99,375.7c-.3,0-.59-.03-.89-.08l-.17-.03c-2.86-.6-4.68-3.39-4.09-6.23,2.99-14.2,11-23.2,11.34-23.58,1-1.1,2.42-1.73,3.9-1.73,1.3,0,2.55.48,3.52,1.36,2.15,1.94,2.32,5.27.38,7.42-.06.06-6.49,7.43-8.86,18.7-.51,2.42-2.67,4.17-5.14,4.17Z" fill="#fff34a"/>
        <path d="M275.08,346.75c.61,0,1.23.22,1.72.66,1.05.95,1.13,2.56.19,3.61-.07.08-6.94,7.83-9.49,19.95-.25,1.21-1.32,2.03-2.5,2.03-.14,0-.29-.01-.43-.04-.03,0-.07-.01-.1-.02-1.38-.29-2.27-1.65-1.98-3.03,2.85-13.53,10.39-21.97,10.71-22.33.5-.56,1.2-.84,1.9-.84M275.08,341.36h0c-2.24,0-4.39.95-5.89,2.61-.91,1-8.9,10.18-11.99,24.84-.9,4.29,1.86,8.52,6.15,9.42.08.02.21.04.33.06.41.07.86.11,1.31.11,3.74,0,7.01-2.66,7.78-6.32,2.21-10.51,8.19-17.41,8.25-17.48,2.9-3.22,2.64-8.26-.61-11.19-1.47-1.32-3.36-2.05-5.33-2.05h0Z"/>
      </g>
    </g>
    <circle cx="338.22" cy="252.61" r="39.28" transform="translate(-6.85 9.44) rotate(-1.58)"/>
    <polygon points="347.01 236.57 329.82 237.21 321.78 252.41 330.92 266.98 348.11 266.34 356.16 251.14 347.01 236.57" fill="#fff"/>
    <path d="M438.38,164.34c103.47,65.35,68.52,150.07-7.91,271.08-76.43,121.01-221.76,174.72-288.02,142.31-109.94-53.77-61.74-188.47,14.68-309.48,76.43-121.01,177.77-169.27,281.24-103.91Z" fill="#fff34a" opacity=".2"/>
  </g>
  <g>
    <rect x="69.57" y="59.58" width="504.17" height="37.37" rx="18.68" ry="18.68" fill="#fff"/>
    <path d="M433.68,96.73s-11.36,13.44-17.92,15.51l3.39-18.97,14.53,3.46Z" fill="#fff"/>
    <rect x="106.09" y="31.56" width="434.12" height="37.37" rx="18.68" ry="18.68" fill="#fff"/>
  </g>
  <text transform="translate(134.53 56.57)" font-family="ChalkboardSE-Bold, &apos;Chalkboard SE&apos;" font-size="24" font-weight="700"><tspan x="0" y="0" letter-spacing="0em">Wh</tspan><tspan x="37.87" y="0">y d</tspan><tspan x="75.6" y="0" letter-spacing=".03em">o</tspan><tspan x="88.44" y="0" letter-spacing="-.07em">n</tspan><tspan x="99.45" y="0" letter-spacing="-.16em">’</tspan><tspan x="102.92" y="0">t </tspan><tspan x="124.37" y="0" letter-spacing="-.03em">y</tspan><tspan x="137.1" y="0" letter-spacing=".03em">o</tspan><tspan x="150.07" y="0">u </tspan><tspan x="173.22" y="0" letter-spacing="-.03em">c</tspan><tspan x="184.84" y="0" letter-spacing=".03em">o</tspan><tspan x="197.8" y="0" letter-spacing=".02em">m</tspan><tspan x="216.61" y="0" letter-spacing="0em">e </tspan><tspan x="239.7" y="0" letter-spacing="-.04em">t</tspan><tspan x="250.15" y="0" letter-spacing="0em">o the c</tspan><tspan x="332.86" y="0" letter-spacing="-.07em">i</tspan><tspan x="337.64" y="0">t</tspan><tspan x="349.15" y="0" letter-spacing="0em">y</tspan><tspan x="362.7" y="0">?</tspan><tspan x="-17.83" y="28.8" letter-spacing="-.09em">Y</tspan><tspan x="-5.37" y="28.8" letter-spacing=".03em">o</tspan><tspan x="7.6" y="28.8">u </tspan><tspan x="30.75" y="28.8" letter-spacing=".02em">m</tspan><tspan x="49.34" y="28.8">i</tspan><tspan x="55.86" y="28.8" letter-spacing=".02em">g</tspan><tspan x="69.62" y="28.8" letter-spacing="-.05em">h</tspan><tspan x="82.12" y="28.8">t e</tspan><tspan x="116.72" y="28.8" letter-spacing=".05em">n</tspan><tspan x="130.59" y="28.8">d </tspan><tspan x="154.94" y="28.8" letter-spacing=".02em">u</tspan><tspan x="168.51" y="28.8" letter-spacing="0em">p </tspan><tspan x="191.66" y="28.8" letter-spacing=".02em">m</tspan><tspan x="210.47" y="28.8">e</tspan><tspan x="223.62" y="28.8" letter-spacing="-.04em">e</tspan><tspan x="235.71" y="28.8" letter-spacing="0em">t</tspan><tspan x="247.35" y="28.8">i</tspan><tspan x="253.88" y="28.8" letter-spacing=".02em">n</tspan><tspan x="267.03" y="28.8" letter-spacing="0em">g s</tspan><tspan x="301.03" y="28.8" letter-spacing=".03em">o</tspan><tspan x="314" y="28.8" letter-spacing=".02em">m</tspan><tspan x="332.8" y="28.8">e</tspan><tspan x="345.95" y="28.8" letter-spacing=".03em">o</tspan><tspan x="358.79" y="28.8" letter-spacing=".02em">n</tspan><tspan x="371.94" y="28.8" letter-spacing="-.04em">e</tspan><tspan x="384.25" y="28.8" letter-spacing="-.05em">.</tspan></text>
</svg>