<?xml version="1.0" encoding="UTF-8"?>
<svg id="Layer_1" data-name="Layer 1" xmlns="http://www.w3.org/2000/svg" width="600" height="330" xmlns:xlink="http://www.w3.org/1999/xlink" viewBox="0 0 600 330">
  <defs>
    <linearGradient id="linear-gradient" x1="176.52" y1="225.5" x2="592.89" y2="225.5" gradientUnits="userSpaceOnUse">
      <stop offset="0" stop-color="#fffa3b"/>
      <stop offset=".03" stop-color="#fffa3b" stop-opacity=".96"/>
      <stop offset=".19" stop-color="#fffa3b" stop-opacity=".79"/>
      <stop offset=".35" stop-color="#fffa3b" stop-opacity=".65"/>
      <stop offset=".51" stop-color="#fffa3b" stop-opacity=".54"/>
      <stop offset=".68" stop-color="#fffa3b" stop-opacity=".46"/>
      <stop offset=".84" stop-color="#fffa3b" stop-opacity=".42"/>
      <stop offset="1" stop-color="#fffa3b" stop-opacity=".4"/>
    </linearGradient>
  </defs>
  <path d="M20.62,3.73S4.76.89,3.81,22.2c-.85,19.09-.69,113.79-1.34,129.98-.65,16.19,1.12,30.14.47,43.24-.65,13.11.05,86.41,1.35,97.98,1.3,11.56-4.46,31.53,3.01,32.3,7.47.77,57.73.46,70.08.46s58.15,2.47,72.44.93c14.29-1.54,38.86-.02,59.77-.39,9.86-.17,62.69.16,73.41.16s150.73-1.93,164.04-.77c13.32,1.16,50.79,2,65.73,1.23,14.94-.77,63.99-.61,68.54-1,4.55-.39,12.36-3.04,11.69-17.73-.99-21.95,3.14-79.64.54-91.2-2.6-11.56-.19-36.69.45-50.18.65-13.49,2.6-76.7,2.6-88.27s1.3-30.44,0-42.39,1.96-28.78-4.58-30.15c-14.79-3.11-37.3-3.31-49.64-2.92s-75.71-.46-90.66-.46-57.82-1.93-77.31-1.16c-19.49.77-73.27,1.34-85.61,2.11-12.34.77-42.57-1.07-54.91.47-12.34,1.54-39.45-1.08-53.02-.47-25.51,1.13-47.02.86-66.51.47-19.49-.39-41.69.46-50.81-.28-9.42-.77-42.92-.43-42.92-.43Z" fill="#1d253a"/>
  <g>
    <rect x="201.85" y="270.29" width="354.35" height="37.37" rx="18.68" ry="18.68" fill="#fff"/>
    <path d="M546.47,276.68s18.44-3.29,25.23-.53l-22.36,14.62-2.87-14.09Z" fill="#fff"/>
  </g>
  <path d="M96.07,140.38s-16.09,6.03-24.94,7.64c-8.85,1.61-27.76,20.52-18.5,40.23,9.25,19.71,9.25,27.35,17.3,32.58,8.05,5.23,20.11,16.9,22.93,23.33s6.84,14.08,10.86,17.7c4.02,3.62,12.47,7.24,18.5,8.05,6.03.8,16.09,5.63,31.38,2.82,15.29-2.82,27.35-6.84,31.38-12.07,4.02-5.23,11.67-10.46,14.48-15.69,2.82-5.23,10.46-17.7,13.27-20.52,2.82-2.82,9.25-18.5,9.25-20.92s8.05-17.7,9.65-20.11c1.61-2.41,6.03-16.9,4.42-24.14-1.61-7.24-5.63-18.1-22.93-24.94-17.3-6.84-47.47-6.44-47.47-6.44,0,0-49.57,4.96-69.59,12.47Z" fill="#2b3751"/>
  <path d="M235.25,171.12s-7.65,15.52-12.07,18.34c-4.42,2.82-9.25,6.84-10.86,10.46s-12.07,10.06-17.7,13.27c-5.63,3.22-20.11,5.23-28.56,9.25-8.45,4.02-20.92,1.61-24.54.8-3.62-.8-22.93-2.41-29.77-1.61-6.84.8-23.33-1.21-25.74-5.23-2.41-4.02-11.67-11.67-19.31-17.7-7.64-6.03-16.09-21.32-16.09-21.32,0,0-2.06-22.25,19.18-29,21.24-6.75,43.13-10.7,47.25-12.68,4.12-1.98,37.86-7.9,60.58-6.91,22.72.99,38.19,2.14,46.75,12.35,8.56,10.21,13.22,13.7,10.89,29.98Z" fill="#576f96"/>
  <path d="M100.3,153.22c-7.85-14.05-10.59-47.63,26.45-48.58l55.01,31.25s18.75,8.75,7.5,30c-11.25,21.25-28.75,8.75-28.75,8.75l-48.35-12.55-.88-.08c-5.1-.46-8.48-4.33-10.98-8.8Z" fill="#2b3751"/>
  <path d="M174.51,177.99c-4.22,1.01-24.33-6.18-13.21-29.3,9.48-19.71,23.95-10.36,23.95-10.36,0,0,13.01,6.84,7.18,20.26-8.23,18.93-17.92,19.4-17.92,19.4Z" fill="#435577"/>
  <line x1="177.26" y1="156.8" x2="592.14" y2="294.21" fill="none" stroke="url(#linear-gradient)" stroke-linecap="round" stroke-miterlimit="10" stroke-width="1.5"/>
  <g>
    <rect x="29.98" y="55.77" width="292.27" height="37.37" rx="18.68" ry="18.68" fill="#fff"/>
    <path d="M80,91s12.67,13.8,19.74,15.72l-8.91-25.18-10.83,9.46Z" fill="#fff"/>
  </g>
  <g>
    <path d="M54.44,73.74c.42.12.74.35.95.68.21.33.31.67.31,1.02,0,.35-.12.69-.33.99-.21.31-.52.51-.93.6v4.61c0,.44-.11.84-.33,1.18-.22.34-.49.59-.81.73-.32.14-.65.17-1.01.09-.35-.08-.67-.31-.96-.7-.12-.18-.21-.38-.25-.61-.04-.23-.07-.44-.07-.64v-4.59h-6.18v4.51c0,.19-.02.39-.05.6-.04.2-.1.38-.19.54-.23.42-.52.7-.88.82-.35.12-.7.12-1.03-.01-.34-.13-.62-.36-.86-.69-.24-.33-.36-.73-.36-1.21v-13.71c0-.46.14-.86.41-1.19.27-.34.59-.57.94-.7.35-.13.71-.14,1.07-.03.36.12.63.39.81.84.05.14.09.27.11.38.02.11.03.24.03.38v5.99h6.18v-5.68c0-.35.08-.69.24-1.01.19-.39.47-.66.83-.82s.72-.2,1.06-.13c.34.07.65.24.9.52.26.27.38.65.38,1.13v6.1Z"/>
    <path d="M68.57,80.71c.16.23.25.5.28.81.03.31,0,.6-.11.88-.1.27-.26.5-.48.68-.22.18-.51.26-.86.24-.46-.04-.83-.19-1.11-.48-.28-.28-.55-.6-.8-.95-.69.57-1.4.96-2.14,1.18-.73.22-1.45.27-2.16.15-.71-.12-1.37-.42-1.99-.89-.62-.47-1.14-1.1-1.56-1.9-.39-.74-.61-1.56-.65-2.47-.04-.9-.06-1.76-.04-2.57,0-.28,0-.56.03-.84.02-.27.04-.56.05-.86.02-.23.03-.46.03-.68s.01-.43.04-.62c.03-.19.08-.39.16-.58.08-.19.2-.38.36-.56.21-.23.47-.37.77-.41.3-.04.59-.01.86.09.27.11.51.27.72.49.2.22.31.49.33.81.04.9.01,1.81-.07,2.73-.08.92-.08,1.82.01,2.7.04.42.15.86.33,1.3.19.44.48.76.89.95.41.18.82.16,1.23-.04.42-.2.76-.45,1.02-.73.12-.14.24-.3.36-.46.11-.17.24-.31.38-.44-.07-.62-.12-1.24-.13-1.86-.02-.62-.02-1.24,0-1.86,0-.34.01-.7.04-1.1.03-.4.1-.78.21-1.14.11-.36.29-.68.52-.95.23-.27.56-.45.98-.52.19-.04.38-.02.57.05.19.07.35.17.49.29.25.21.42.45.5.72.09.27.13.55.13.85s-.02.61-.07.92c-.04.31-.08.6-.09.86-.04.5-.06,1.02-.08,1.56-.02.55,0,1.1.05,1.64.05.55.15,1.08.31,1.59.15.51.38.98.68,1.41Z"/>
    <path d="M73.13,83.32c-.35.26-.72.38-1.1.36-.38-.02-.72-.17-1.01-.46s-.44-.69-.44-1.21v-14.74c0-.41.16-.75.48-1.03.32-.28.67-.46,1.06-.53.39-.07.75,0,1.09.19.34.19.52.56.56,1.09.07.92.1,1.82.09,2.69,0,.88-.02,1.75-.04,2.64.65-.44,1.33-.74,2.04-.89.71-.15,1.39-.15,2.04.01.65.16,1.26.48,1.83.95s1.03,1.14,1.38,1.99c.25.57.42,1.17.5,1.82.09.65.14,1.3.15,1.96,0,.66,0,1.32-.03,1.98-.03.65-.04,1.27-.04,1.86,0,.37-.1.71-.29,1.01-.19.3-.44.52-.73.66-.29.14-.6.19-.93.13s-.62-.25-.89-.58c-.27-.35-.43-.77-.49-1.25s-.08-.99-.05-1.52c.03-.54.07-1.09.12-1.66.05-.57.07-1.11.04-1.63-.03-.52-.13-1-.31-1.45-.18-.44-.49-.8-.93-1.09-.35-.05-.67-.03-.95.07-.28.1-.54.24-.77.44-.23.19-.45.42-.65.66-.2.25-.41.5-.62.74-.05.09-.12.17-.19.25-.07.08-.15.16-.24.25v5.04c-.11.58-.34,1-.69,1.26Z"/>
    <path d="M84.46,82.2c.05-.42.18-.78.38-1.07.2-.29.45-.51.74-.65.29-.14.6-.22.92-.23.32,0,.62.06.9.2.28.14.52.35.7.64.19.28.29.64.31,1.06.04.64-.14,1.13-.53,1.47s-.82.53-1.3.54c-.48.02-.93-.13-1.37-.45-.43-.32-.69-.82-.76-1.51ZM84.72,67.56c.16-.42.38-.76.66-.99.28-.24.58-.37.89-.38.31-.02.61.08.9.28.29.2.53.53.7.97.04.92.07,1.79.09,2.6.03.81.04,1.6.05,2.36,0,.76,0,1.51-.01,2.25-.02.74-.04,1.5-.08,2.28-.02.55-.2.96-.54,1.23-.34.27-.72.4-1.11.38-.4-.02-.76-.17-1.09-.45-.33-.28-.49-.69-.49-1.22v-9.15l.03-.16Z"/>
    <path d="M103.42,83.42c-.76-.09-1.22-.34-1.39-.76-.17-.42-.17-.87-.01-1.37v-10.77c-.28,0-.54-.08-.76-.23-.22-.15-.4-.34-.53-.57-.13-.23-.2-.48-.2-.76s.08-.53.24-.76c.35-.53.81-.95,1.37-1.25.56-.3,1.14-.55,1.74-.74.94-.3,1.88-.47,2.82-.5.95-.04,1.88.16,2.8.58.83.39,1.49.89,1.96,1.51.48.62.78,1.28.9,1.98.12.7.06,1.41-.19,2.15-.25.73-.69,1.42-1.33,2.06.83.53,1.42,1.16,1.78,1.9.35.73.5,1.49.44,2.27-.06.78-.31,1.53-.74,2.25-.43.73-1.02,1.35-1.76,1.88-.44.32-.96.56-1.55.73-.59.17-1.2.29-1.83.36-.63.07-1.25.11-1.87.11s-1.18-.02-1.7-.05l-.19-.03ZM105.25,72.6h.95c.32,0,.63-.03.94-.09.31-.06.61-.16.9-.3.29-.14.55-.34.78-.61.34-.37.45-.76.36-1.18-.1-.42-.35-.75-.76-.99-.46-.3-.98-.45-1.56-.46-.58,0-1.12.06-1.62.2v3.45ZM109.07,76.68c-.32-.21-.63-.37-.93-.48-.3-.11-.61-.18-.91-.21-.31-.04-.62-.04-.94-.03-.32.02-.66.04-1.03.05v4.24c.39,0,.8-.01,1.25-.04.44-.03.87-.1,1.27-.21.41-.11.79-.28,1.14-.49.35-.21.64-.5.85-.88.05-.42.04-.79-.03-1.1-.07-.31-.29-.6-.66-.86Z"/>
    <path d="M126.7,80.71c.16.23.25.5.28.81.03.31,0,.6-.11.88-.1.27-.26.5-.48.68-.22.18-.51.26-.86.24-.46-.04-.83-.19-1.11-.48-.28-.28-.55-.6-.8-.95-.69.57-1.4.96-2.13,1.18-.73.22-1.45.27-2.16.15-.71-.12-1.37-.42-1.99-.89-.62-.47-1.14-1.1-1.56-1.9-.39-.74-.61-1.56-.65-2.47s-.06-1.76-.04-2.57c0-.28,0-.56.03-.84.02-.27.04-.56.05-.86.02-.23.03-.46.03-.68s.01-.43.04-.62c.03-.19.08-.39.16-.58.08-.19.2-.38.36-.56.21-.23.47-.37.77-.41.3-.04.59-.01.86.09.27.11.51.27.72.49.2.22.31.49.33.81.04.9.01,1.81-.07,2.73-.08.92-.08,1.82.01,2.7.04.42.15.86.33,1.3.19.44.48.76.89.95.41.18.82.16,1.23-.04.42-.2.76-.45,1.02-.73.12-.14.24-.3.36-.46.11-.17.24-.31.38-.44-.07-.62-.12-1.24-.13-1.86-.02-.62-.02-1.24,0-1.86,0-.34.01-.7.04-1.1.03-.4.1-.78.21-1.14.11-.36.29-.68.52-.95.23-.27.56-.45.98-.52.19-.04.38-.02.57.05.19.07.35.17.49.29.25.21.42.45.5.72.09.27.13.55.13.85s-.02.61-.07.92c-.04.31-.08.6-.09.86-.04.5-.06,1.02-.08,1.56-.02.55,0,1.1.05,1.64.05.55.15,1.08.3,1.59.15.51.38.98.68,1.41Z"/>
    <path d="M129.01,73.95c-.35-.09-.66-.24-.92-.45-.26-.21-.43-.46-.53-.74-.1-.28-.1-.57,0-.88.1-.3.31-.57.65-.82.28-.21.6-.32.95-.32h1.03c0-.12,0-.39-.03-.81-.02-.42-.02-.87-.01-1.37,0-.49.04-.97.09-1.42s.15-.76.29-.94c.35-.49.79-.73,1.31-.7.52.03.95.28,1.29.76.07.09.14.19.2.32.06.12.09.24.09.34.02.64.02,1.27.01,1.91,0,.64-.01,1.27-.01,1.91h2.1c.32,0,.59.11.82.32.23.21.39.46.49.74.1.28.12.57.08.88-.04.3-.18.55-.41.74-.41.34-.88.51-1.42.53-.54.02-1.09.03-1.66.03,0,.97,0,1.94-.01,2.92,0,.97,0,1.95.01,2.92,0,.42.02.86.07,1.3.04.44.01.87-.09,1.27-.09.32-.24.57-.45.76s-.45.3-.72.34c-.26.04-.54.03-.82-.05-.28-.08-.55-.23-.79-.44-.12-.12-.22-.34-.28-.64-.06-.3-.1-.62-.12-.95-.02-.39-.02-.8,0-1.25v-1.38c0-.57,0-1.15-.01-1.76,0-.61-.01-1.19-.01-1.74v-1.3l-1.19-.03Z"/>
    <path d="M150.46,73.95c-.35-.09-.66-.24-.92-.45-.26-.21-.43-.46-.53-.74-.1-.28-.1-.57,0-.88.1-.3.31-.57.65-.82.28-.21.6-.32.96-.32h1.03c0-.12,0-.39-.03-.81-.02-.42-.02-.87-.01-1.37,0-.49.04-.97.09-1.42s.15-.76.29-.94c.35-.49.79-.73,1.31-.7.52.03.95.28,1.29.76.07.09.14.19.2.32.06.12.09.24.09.34.02.64.02,1.27.01,1.91s-.01,1.27-.01,1.91h2.09c.32,0,.59.11.82.32.23.21.39.46.49.74.1.28.12.57.08.88-.04.3-.18.55-.41.74-.41.34-.88.51-1.42.53-.54.02-1.09.03-1.66.03,0,.97,0,1.94-.01,2.92,0,.97,0,1.95.01,2.92,0,.42.02.86.07,1.3.04.44.01.87-.09,1.27-.09.32-.24.57-.45.76s-.45.3-.72.34c-.27.04-.54.03-.82-.05-.28-.08-.55-.23-.8-.44-.12-.12-.22-.34-.28-.64-.06-.3-.1-.62-.12-.95-.02-.39-.02-.8,0-1.25v-1.38c0-.57,0-1.15-.01-1.76s-.01-1.19-.01-1.74v-1.3l-1.19-.03Z"/>
    <path d="M162.77,83.32c-.35.26-.72.38-1.1.36-.38-.02-.72-.17-1.01-.46s-.44-.69-.44-1.21v-14.74c0-.41.16-.75.48-1.03.32-.28.67-.46,1.06-.53.39-.07.75,0,1.09.19.34.19.52.56.56,1.09.07.92.1,1.82.09,2.69,0,.88-.02,1.75-.04,2.64.65-.44,1.33-.74,2.04-.89.71-.15,1.39-.15,2.04.01.65.16,1.26.48,1.83.95.57.48,1.02,1.14,1.38,1.99.25.57.42,1.17.5,1.82.09.65.14,1.3.15,1.96,0,.66,0,1.32-.03,1.98-.03.65-.04,1.27-.04,1.86,0,.37-.1.71-.29,1.01-.19.3-.44.52-.73.66-.29.14-.6.19-.93.13s-.62-.25-.89-.58c-.27-.35-.43-.77-.49-1.25-.06-.48-.08-.99-.05-1.52.03-.54.07-1.09.12-1.66.05-.57.07-1.11.04-1.63-.03-.52-.13-1-.31-1.45-.18-.44-.49-.8-.93-1.09-.35-.05-.67-.03-.95.07-.28.1-.54.24-.77.44-.23.19-.45.42-.65.66-.2.25-.41.5-.62.74-.05.09-.12.17-.19.25-.07.08-.15.16-.24.25v5.04c-.11.58-.34,1-.69,1.26Z"/>
    <path d="M185.1,81.61c.14.51.11.94-.08,1.27s-.46.56-.81.68c-.34.11-.72.1-1.13-.04-.41-.14-.76-.42-1.06-.85-.5.37-.98.63-1.45.78-.47.15-1,.23-1.6.25-.9.04-1.71-.07-2.41-.3-.71-.24-1.3-.6-1.79-1.07-.49-.48-.84-1.07-1.07-1.79-.23-.72-.31-1.54-.24-2.48.04-.39.1-.77.2-1.14.1-.37.21-.73.33-1.09.14-.39.34-.8.6-1.25.26-.44.52-.82.78-1.14.95-1.17,2.15-2.01,3.58-2.52.25-.09.58-.17,1.01-.24.42-.07.85-.1,1.29-.09.43,0,.85.07,1.25.17.4.11.69.29.89.56.16.21.27.4.34.56.07.16.11.33.12.5,0,.18,0,.37,0,.57,0,.2-.01.46-.01.76,0,.5,0,.98-.01,1.45,0,.47,0,.94.01,1.42v.62c0,.26,0,.53.03.81.02.28.04.55.07.81.03.26.07.46.12.62l1.06,2.17ZM179.47,80.42c.19-.12.42-.26.66-.41.25-.15.47-.32.66-.52-.16-.94-.25-1.87-.28-2.81-.03-.94-.02-1.88.01-2.84-.8.14-1.51.49-2.15,1.03-.64.55-1.08,1.19-1.33,1.94-.11.3-.19.61-.27.93-.07.32-.1.63-.08.93.02.41.12.75.32,1.02.19.27.43.48.7.62.27.14.57.22.88.24.31.02.6-.03.86-.13Z"/>
    <path d="M187.3,73.95c-.35-.09-.66-.24-.92-.45-.26-.21-.43-.46-.53-.74-.1-.28-.1-.57,0-.88.1-.3.31-.57.65-.82.28-.21.6-.32.96-.32h1.03c0-.12,0-.39-.03-.81-.02-.42-.02-.87-.01-1.37,0-.49.04-.97.09-1.42s.15-.76.29-.94c.35-.49.79-.73,1.31-.7.52.03.95.28,1.29.76.07.09.14.19.2.32.06.12.09.24.09.34.02.64.02,1.27.01,1.91s-.01,1.27-.01,1.91h2.09c.32,0,.59.11.82.32.23.21.39.46.49.74.1.28.12.57.08.88-.04.3-.18.55-.41.74-.41.34-.88.51-1.42.53-.54.02-1.09.03-1.66.03,0,.97,0,1.94-.01,2.92,0,.97,0,1.95.01,2.92,0,.42.02.86.07,1.3.04.44.01.87-.09,1.27-.09.32-.24.57-.45.76s-.45.3-.72.34c-.27.04-.54.03-.82-.05-.28-.08-.55-.23-.8-.44-.12-.12-.22-.34-.28-.64-.06-.3-.1-.62-.12-.95-.02-.39-.02-.8,0-1.25v-1.38c0-.57,0-1.15-.01-1.76s-.01-1.19-.01-1.74v-1.3l-1.19-.03Z"/>
    <path d="M198.7,64.06c.21-.35.48-.59.8-.72.32-.12.63-.15.94-.09.31.06.58.22.82.46.24.25.38.57.41.98.02.27-.02.55-.12.85-.1.3-.22.6-.37.9-.15.3-.31.59-.48.88-.17.28-.31.53-.41.74-.14.28-.27.56-.38.84-.12.27-.25.54-.41.81-.25.44-.57.69-.97.76-.4.06-.77,0-1.11-.16-.34-.17-.61-.43-.8-.78-.19-.35-.19-.73-.01-1.14.09-.35.24-.72.45-1.09.21-.37.4-.72.56-1.03.18-.35.34-.7.5-1.03.16-.34.32-.67.48-1.01l.11-.16Z"/>
    <path d="M198.83,81c-.11-.3-.15-.6-.13-.89.02-.29.09-.56.23-.8.13-.24.32-.42.57-.56s.55-.18.9-.15c.19.02.37.07.53.16.16.09.31.19.44.32.13.12.26.26.4.4.13.14.27.27.41.37.3.23.62.4.95.5.34.11.69.19,1.06.24.25,0,.45-.06.6-.19.15-.12.25-.27.3-.45.05-.18.07-.37.04-.57-.03-.2-.09-.37-.2-.49-.3-.3-.67-.49-1.1-.58-.43-.09-.83-.19-1.21-.32-.53-.18-1.05-.4-1.56-.68-.51-.27-.93-.65-1.25-1.13-.34-.49-.54-1.02-.6-1.58-.06-.56-.02-1.1.13-1.63.15-.53.4-1.02.76-1.46.35-.44.78-.8,1.27-1.09.37-.21.78-.35,1.22-.41.44-.06.89-.07,1.34-.04.45.04.9.12,1.34.25s.85.28,1.22.44c.42.19.74.47.96.82.21.35.31.71.3,1.07,0,.36-.13.68-.37.94s-.59.4-1.05.4c-.28,0-.54-.05-.77-.15-.23-.1-.47-.19-.72-.28-.32-.12-.66-.21-1.03-.25-.37-.04-.67-.02-.9.07-.07.02-.15.08-.24.17-.09.1-.16.22-.2.36-.04.14-.05.28-.03.42.03.14.12.26.28.34.42.23.88.41,1.35.53.48.12.95.27,1.41.42.46.16.89.36,1.29.61.4.25.73.6.99,1.06.39.67.59,1.38.6,2.11,0,.73-.14,1.42-.44,2.06-.3.64-.74,1.18-1.33,1.63-.58.45-1.26.72-2.04.81-.55.05-1.09.02-1.62-.09-.53-.12-1.04-.3-1.54-.56-.5-.26-.95-.56-1.38-.91-.42-.35-.8-.72-1.11-1.11l-.08-.16Z"/>
    <path d="M222.27,73.95c-.35-.09-.66-.24-.92-.45s-.43-.46-.53-.74c-.1-.28-.1-.57,0-.88.1-.3.31-.57.65-.82.28-.21.6-.32.95-.32h1.03c0-.12,0-.39-.03-.81-.02-.42-.02-.87-.01-1.37,0-.49.04-.97.09-1.42.05-.45.15-.76.29-.94.35-.49.79-.73,1.31-.7.52.03.95.28,1.29.76.07.09.14.19.2.32.06.12.09.24.09.34.02.64.02,1.27.01,1.91s-.01,1.27-.01,1.91h2.1c.32,0,.59.11.82.32s.39.46.49.74c.1.28.12.57.08.88-.04.3-.18.55-.41.74-.41.34-.88.51-1.42.53-.54.02-1.09.03-1.66.03,0,.97,0,1.94-.01,2.92,0,.97,0,1.95.01,2.92,0,.42.02.86.07,1.3.04.44.01.87-.09,1.27-.09.32-.24.57-.45.76-.21.19-.45.3-.72.34-.27.04-.54.03-.82-.05s-.55-.23-.8-.44c-.12-.12-.22-.34-.28-.64-.06-.3-.1-.62-.12-.95-.02-.39-.02-.8,0-1.25v-1.38c0-.57,0-1.15-.01-1.76s-.01-1.19-.01-1.74v-1.3l-1.19-.03Z"/>
    <path d="M230.28,76.44c.12-.51.3-1.02.52-1.51.22-.49.49-.97.81-1.42.32-.45.68-.86,1.07-1.23.4-.37.83-.67,1.29-.9.81-.42,1.63-.64,2.45-.65.82,0,1.59.16,2.29.49.71.34,1.31.84,1.8,1.5.49.66.82,1.45.98,2.37.09.6.14,1.17.15,1.71,0,.54-.05,1.1-.17,1.68-.18.83-.53,1.66-1.07,2.48-.54.82-1.18,1.51-1.94,2.07-.75.56-1.57.92-2.47,1.1-.89.18-1.79.04-2.69-.42-.41-.19-.77-.42-1.1-.68-.33-.26-.62-.56-.89-.91-.3-.39-.54-.8-.7-1.22s-.3-.87-.41-1.33c-.12-.49-.17-.99-.13-1.5.04-.5.1-.99.19-1.47l.03-.16ZM233.47,77c-.05.28-.1.56-.13.84-.04.27-.04.55,0,.84.05.41.16.78.33,1.11.17.34.39.6.66.8.27.19.59.3.94.3.35,0,.73-.1,1.14-.33.51-.3.95-.76,1.33-1.39.37-.63.6-1.28.69-1.96.09-.68.02-1.33-.21-1.94s-.68-1.05-1.35-1.31c-.44,0-.85.08-1.22.25-.37.17-.69.39-.97.66-.27.27-.51.6-.72.97-.2.37-.37.76-.49,1.17Z"/>
    <path d="M243.44,76.44c.12-.51.3-1.02.52-1.51.22-.49.49-.97.81-1.42.32-.45.68-.86,1.07-1.23.4-.37.83-.67,1.29-.9.81-.42,1.63-.64,2.45-.65.82,0,1.59.16,2.29.49.71.34,1.31.84,1.8,1.5.49.66.82,1.45.98,2.37.09.6.14,1.17.15,1.71,0,.54-.05,1.1-.17,1.68-.18.83-.54,1.66-1.07,2.48-.54.82-1.18,1.51-1.94,2.07-.75.56-1.57.92-2.47,1.1-.89.18-1.79.04-2.69-.42-.41-.19-.77-.42-1.1-.68-.33-.26-.62-.56-.89-.91-.3-.39-.53-.8-.7-1.22-.17-.42-.31-.87-.41-1.33-.12-.49-.17-.99-.13-1.5s.1-.99.19-1.47l.03-.16ZM246.62,77c-.05.28-.1.56-.13.84-.04.27-.04.55,0,.84.05.41.16.78.33,1.11.17.34.39.6.66.8.27.19.59.3.94.3.35,0,.73-.1,1.14-.33.51-.3.96-.76,1.33-1.39.37-.63.6-1.28.69-1.96.09-.68.02-1.33-.21-1.94-.23-.61-.68-1.05-1.35-1.31-.44,0-.85.08-1.22.25-.37.17-.69.39-.97.66-.27.27-.51.6-.72.97-.2.37-.37.76-.49,1.17Z"/>
    <path d="M270.83,83.1c-.23.28-.5.48-.8.58-.3.11-.61.11-.93,0-.32-.11-.58-.34-.8-.72-.09-.14-.16-.29-.21-.45s-.08-.32-.08-.48v-6.97c-.34,0-.64-.09-.91-.28-.27-.19-.48-.42-.61-.69-.13-.27-.18-.57-.15-.88.04-.31.18-.6.42-.86.18-.19.37-.32.57-.38.2-.06.42-.1.65-.12-.02-.55-.03-1.09-.04-1.62,0-.53.03-1.06.12-1.59.11-.83.35-1.54.74-2.12.39-.58.87-1.03,1.45-1.35.57-.32,1.22-.5,1.92-.56.71-.05,1.44.05,2.2.32.32.11.62.24.92.4.29.16.55.36.78.61.16.18.27.38.34.62.07.24.08.48.04.72-.04.24-.13.46-.27.66-.13.2-.32.36-.57.46-.34.14-.67.18-.99.11-.33-.07-.65-.19-.97-.34-.2-.07-.38-.14-.56-.21-.18-.07-.36-.12-.56-.16-.19-.04-.37,0-.53.08-.16.09-.3.21-.41.36-.12.15-.2.32-.27.5-.06.19-.09.37-.09.54-.02.41-.02.82-.01,1.23,0,.42.01.83.01,1.23.27-.02.55-.04.85-.05.3-.02.6-.03.89-.03s.56,0,.81.03c.25.02.44.05.58.11.28.11.51.27.69.49.18.22.29.46.34.72.05.26.03.52-.07.78s-.27.5-.52.69c-.23.18-.5.3-.8.37-.3.07-.62.12-.96.15-.34.03-.66.04-.98.03-.32,0-.6-.01-.85-.01v7.08c-.05.39-.19.72-.42,1.01Z"/>
    <path d="M287.75,81.61c.14.51.12.94-.08,1.27-.19.34-.46.56-.81.68-.34.11-.72.1-1.13-.04-.41-.14-.76-.42-1.06-.85-.5.37-.98.63-1.45.78-.47.15-1,.23-1.6.25-.9.04-1.71-.07-2.41-.3-.71-.24-1.3-.6-1.79-1.07s-.84-1.07-1.07-1.79-.31-1.54-.24-2.48c.04-.39.1-.77.2-1.14s.21-.73.33-1.09c.14-.39.34-.8.6-1.25.26-.44.52-.82.78-1.14.96-1.17,2.15-2.01,3.58-2.52.25-.09.58-.17,1.01-.24.42-.07.85-.1,1.29-.09.43,0,.85.07,1.25.17.4.11.69.29.89.56.16.21.27.4.34.56.07.16.11.33.12.5,0,.18,0,.37,0,.57,0,.2-.01.46-.01.76,0,.5,0,.98-.01,1.45,0,.47,0,.94.01,1.42v.62c0,.26,0,.53.03.81.02.28.04.55.07.81.03.26.07.46.12.62l1.06,2.17ZM282.13,80.42c.19-.12.42-.26.66-.41.25-.15.47-.32.66-.52-.16-.94-.25-1.87-.28-2.81-.03-.94-.02-1.88.01-2.84-.8.14-1.51.49-2.15,1.03-.64.55-1.08,1.19-1.33,1.94-.11.3-.19.61-.27.93-.07.32-.1.63-.08.93.02.41.12.75.32,1.02.19.27.43.48.7.62.27.14.57.22.88.24.31.02.6-.03.86-.13Z"/>
    <path d="M290,74.6c.02-.11,0-.32-.03-.62-.28-.16-.5-.36-.66-.61-.16-.25-.25-.51-.28-.8-.03-.28.03-.55.16-.81.13-.26.35-.47.65-.65.41-.23.85-.27,1.34-.13.49.14.91.35,1.26.64.44-.34.9-.62,1.38-.85.48-.23.96-.38,1.46-.46.49-.08,1-.07,1.51.04.51.11,1.02.33,1.51.66.25.16.48.36.69.6.21.24.34.51.4.81.09.44.05.83-.11,1.15-.16.33-.38.57-.66.72-.28.15-.6.19-.95.13-.35-.06-.69-.25-1.01-.57-.11-.07-.18-.13-.23-.17-.04-.04-.14-.1-.28-.17-.28-.07-.56-.05-.84.05-.27.11-.54.25-.8.44s-.5.39-.72.61c-.22.22-.42.42-.6.6v6.76c0,.27-.05.52-.16.77-.16.41-.41.69-.76.85-.34.16-.69.2-1.03.13-.34-.07-.65-.25-.9-.53-.26-.28-.38-.65-.38-1.09v-7.43c0,.07,0,.05.03-.07Z"/>
    <path d="M300.82,82.2c.05-.42.18-.78.38-1.07.2-.29.45-.51.74-.65.29-.14.6-.22.91-.23.32,0,.62.06.9.2.28.14.52.35.7.64.19.28.29.64.31,1.06.04.64-.14,1.13-.53,1.47-.39.34-.82.53-1.3.54-.48.02-.93-.13-1.37-.45-.43-.32-.69-.82-.76-1.51ZM301.09,67.56c.16-.42.38-.76.66-.99.28-.24.58-.37.89-.38.31-.02.61.08.9.28.29.2.53.53.7.97.04.92.07,1.79.09,2.6.03.81.04,1.6.05,2.36,0,.76,0,1.51-.01,2.25-.02.74-.04,1.5-.08,2.28-.02.55-.2.96-.54,1.23-.34.27-.72.4-1.11.38-.4-.02-.76-.17-1.09-.45-.33-.28-.49-.69-.49-1.22v-9.15l.03-.16Z"/>
  </g>
  <g>
    <rect x="292.93" y="202.75" width="275.78" height="37.37" rx="18.68" ry="18.68" fill="#fff"/>
    <path d="M552.99,237.74s15.71,10.2,23.04,10.29l-14.92-22.16-8.12,11.86Z" fill="#fff"/>
  </g>
  <g>
    <path d="M321.25,211.78c.35,0,.66.09.93.27.27.18.46.4.6.68.13.27.18.57.15.88s-.18.6-.42.86c-.16.18-.35.31-.58.4-.23.09-.47.14-.72.16-.25.02-.5.02-.76.01-.26,0-.49-.01-.7-.01,0,.05.02.3.05.76.04.45.07,1.03.11,1.72.04.7.06,1.48.08,2.33.02.86,0,1.7-.03,2.53-.04.83-.11,1.61-.23,2.33-.12.73-.28,1.31-.49,1.75-.32.65-.77,1.22-1.35,1.71s-1.23.85-1.94,1.1c-.71.25-1.44.36-2.19.34-.75-.02-1.45-.21-2.11-.58-.57-.32-1.07-.76-1.52-1.33-.45-.57-.83-1.14-1.13-1.72-.19-.28-.29-.58-.29-.89s.07-.59.2-.85c.13-.26.33-.46.6-.62.27-.16.58-.21.95-.16.37.05.67.18.89.37.22.19.42.42.58.66.17.25.33.5.48.77.15.27.33.49.54.68.21.19.47.31.78.38.31.07.71.04,1.21-.11.26-.07.52-.2.77-.4.27-.21.46-.46.57-.73.11-.27.19-.56.24-.86.04-.3.07-.61.07-.93s0-.63.03-.93c.05-1.22.05-2.44,0-3.65-.05-1.21-.09-2.43-.11-3.65-.6.02-1.2.03-1.79.03h-1.79c-.41,0-.85.02-1.33.07-.48.04-.92-.01-1.33-.17-.39-.14-.66-.38-.82-.72-.16-.34-.22-.68-.19-1.02.04-.34.18-.65.42-.93.25-.27.59-.42,1.03-.44.28-.02.57-.02.85-.01.28,0,.57.01.88.01,1.47-.02,2.93-.03,4.39-.04,1.46,0,2.93-.03,4.42-.07Z"/>
    <path d="M334.8,226.2c.16.23.25.5.28.81.03.31,0,.6-.11.88-.1.27-.26.5-.48.68-.22.18-.51.26-.86.24-.46-.04-.83-.19-1.11-.48-.28-.28-.55-.6-.8-.95-.69.57-1.4.96-2.14,1.18-.73.22-1.45.27-2.16.15-.71-.12-1.37-.42-1.99-.89-.62-.47-1.14-1.1-1.56-1.9-.39-.74-.61-1.56-.65-2.47-.04-.9-.06-1.76-.04-2.57,0-.28,0-.56.03-.84.02-.27.04-.56.05-.86.02-.23.03-.46.03-.68s.01-.43.04-.62c.03-.19.08-.39.16-.58.08-.19.2-.38.36-.56.21-.23.47-.37.77-.41.3-.04.59-.01.86.09.27.11.51.27.72.49.2.22.31.49.33.81.04.9.01,1.81-.07,2.73-.08.92-.08,1.82.01,2.7.04.42.15.86.33,1.3.19.44.48.76.89.95.41.18.82.16,1.23-.04.42-.2.76-.45,1.02-.73.12-.14.24-.3.36-.46.11-.17.24-.31.38-.44-.07-.62-.12-1.24-.13-1.86-.02-.62-.02-1.24,0-1.86,0-.34.01-.7.04-1.1.03-.4.1-.78.21-1.14.11-.36.29-.68.52-.95.23-.27.56-.45.98-.52.19-.04.38-.02.57.05.19.07.35.17.49.29.25.21.42.45.5.72.09.27.13.55.13.85s-.02.61-.07.92c-.04.31-.08.6-.09.86-.04.5-.06,1.02-.08,1.56-.02.55,0,1.1.05,1.64.05.55.15,1.08.31,1.59.15.51.38.98.68,1.41Z"/>
    <path d="M336.63,226.49c-.11-.3-.15-.6-.13-.89.02-.29.09-.56.23-.8.13-.24.32-.42.57-.56.25-.13.55-.18.9-.15.19.02.37.07.53.16.16.09.3.19.44.32.13.12.27.26.4.4.13.14.27.27.41.37.3.23.62.4.96.5.34.11.69.19,1.06.24.25,0,.45-.06.6-.19.15-.12.25-.27.3-.45.05-.18.07-.37.04-.57-.03-.2-.09-.37-.2-.49-.3-.3-.67-.49-1.1-.58-.43-.09-.84-.19-1.21-.32-.53-.18-1.05-.4-1.56-.68-.51-.27-.93-.65-1.25-1.13-.34-.49-.53-1.02-.6-1.58s-.02-1.1.13-1.63c.15-.53.4-1.02.76-1.46.35-.44.78-.8,1.27-1.09.37-.21.78-.35,1.22-.41.44-.06.89-.07,1.34-.04.45.04.9.12,1.34.25.44.13.85.28,1.22.44.42.19.74.47.95.82.21.35.31.71.31,1.07,0,.36-.13.68-.37.94-.24.27-.59.4-1.05.4-.28,0-.54-.05-.77-.15-.23-.1-.47-.19-.72-.28-.32-.12-.66-.21-1.03-.25-.37-.04-.67-.02-.9.07-.07.02-.15.08-.24.17-.09.1-.15.22-.2.36-.04.14-.05.28-.03.42.03.14.12.26.28.34.42.23.88.41,1.35.53.48.12.95.27,1.41.42.46.16.89.36,1.29.61.4.25.73.6.99,1.06.39.67.59,1.38.6,2.11,0,.73-.14,1.42-.44,2.06-.3.64-.74,1.18-1.33,1.63-.58.45-1.26.72-2.04.81-.55.05-1.09.02-1.62-.09-.53-.12-1.04-.3-1.54-.56-.5-.26-.95-.56-1.38-.91-.42-.35-.8-.72-1.11-1.11l-.08-.16Z"/>
    <path d="M348.99,219.44c-.35-.09-.66-.24-.92-.45-.26-.21-.43-.46-.53-.74-.1-.28-.1-.57,0-.88.1-.3.31-.57.65-.82.28-.21.6-.32.95-.32h1.03c0-.12,0-.39-.03-.81-.02-.42-.02-.87-.01-1.37,0-.49.04-.97.09-1.42.05-.45.15-.76.29-.94.35-.49.79-.73,1.31-.7.52.03.95.28,1.29.76.07.09.14.19.2.32.06.12.09.24.09.34.02.64.02,1.27.01,1.91,0,.64-.01,1.27-.01,1.91h2.09c.32,0,.59.11.82.32.23.21.39.46.49.74.1.28.12.57.08.88-.04.3-.18.55-.41.74-.41.34-.88.51-1.42.53-.54.02-1.09.03-1.66.03,0,.97,0,1.94-.01,2.92,0,.97,0,1.95.01,2.92,0,.42.02.86.07,1.3.04.44.01.87-.09,1.27-.09.32-.24.57-.45.76s-.45.3-.72.34c-.27.04-.54.03-.82-.05s-.55-.23-.8-.44c-.12-.12-.22-.34-.28-.64-.06-.3-.1-.62-.12-.95-.02-.39-.02-.8,0-1.25v-1.38c0-.57,0-1.15-.01-1.76,0-.61-.01-1.19-.01-1.74v-1.3l-1.19-.03Z"/>
    <path d="M373.23,228.59c-.23.28-.5.48-.79.58-.3.11-.61.11-.93,0-.32-.11-.58-.34-.8-.72-.09-.14-.16-.29-.21-.45-.05-.16-.08-.32-.08-.48v-6.97c-.34,0-.64-.09-.92-.28-.27-.19-.48-.42-.61-.69-.13-.27-.18-.57-.15-.88.04-.31.18-.6.42-.86.18-.19.37-.32.57-.38.2-.06.42-.1.65-.12-.02-.55-.03-1.09-.04-1.62,0-.53.03-1.06.12-1.59.11-.83.35-1.54.74-2.12.39-.58.87-1.03,1.45-1.35.57-.32,1.22-.5,1.92-.56.71-.05,1.44.05,2.2.32.32.11.62.24.92.4.29.16.55.36.78.61.16.18.27.38.34.62.07.24.08.48.04.72-.04.24-.13.46-.27.66-.13.2-.32.36-.57.46-.34.14-.67.18-.99.11-.33-.07-.65-.19-.97-.34-.19-.07-.38-.14-.56-.21-.18-.07-.36-.12-.56-.16-.19-.04-.37,0-.53.08-.16.09-.3.21-.41.36-.12.15-.2.32-.27.5-.06.19-.09.37-.09.54-.02.41-.02.82-.01,1.23,0,.42.01.83.01,1.23.26-.02.55-.04.85-.05.3-.02.6-.03.89-.03s.56,0,.81.03c.25.02.44.05.58.11.28.11.51.27.69.49.18.22.29.46.34.72.05.26.03.52-.07.78-.1.27-.27.5-.52.69-.23.18-.5.3-.8.37-.3.07-.62.12-.95.15-.34.03-.66.04-.98.03-.32,0-.6-.01-.85-.01v7.08c-.05.39-.2.72-.42,1.01Z"/>
    <path d="M378.16,221.93c.12-.51.3-1.02.52-1.51.22-.49.49-.97.81-1.42.32-.45.68-.86,1.07-1.23.4-.37.83-.67,1.29-.9.81-.42,1.63-.64,2.45-.65.82,0,1.59.16,2.29.49.71.34,1.31.84,1.8,1.5s.82,1.45.98,2.37c.09.6.14,1.17.15,1.71,0,.54-.05,1.1-.17,1.68-.18.83-.54,1.66-1.07,2.48-.54.82-1.18,1.51-1.94,2.07-.75.56-1.57.92-2.47,1.1-.89.18-1.79.04-2.69-.42-.41-.19-.77-.42-1.1-.68s-.62-.56-.89-.91c-.3-.39-.53-.8-.7-1.22-.17-.42-.31-.87-.41-1.33-.12-.49-.17-.99-.13-1.5.04-.5.1-.99.19-1.47l.03-.16ZM381.34,222.49c-.05.28-.1.56-.13.84-.04.27-.04.55,0,.84.05.41.16.78.33,1.11.17.34.39.6.66.8.27.19.59.3.94.3.35,0,.73-.1,1.14-.33.51-.3.96-.76,1.33-1.39.37-.63.6-1.28.69-1.96.09-.68.02-1.33-.21-1.94-.23-.61-.68-1.05-1.35-1.31-.44,0-.85.08-1.22.25-.37.17-.69.39-.97.66-.27.27-.51.6-.72.97-.2.37-.37.76-.49,1.17Z"/>
    <path d="M394.76,226.63c.19.18.36.4.49.68.13.27.2.55.21.82s-.05.53-.19.77c-.13.24-.37.42-.7.54-.27.09-.56.11-.88.05-.32-.05-.63-.16-.94-.32-.31-.16-.58-.35-.82-.57-.24-.22-.41-.46-.52-.73-.04-.09-.06-.19-.08-.3-.02-.11-.03-.22-.03-.3v-14.72c0-.41.15-.75.46-1.03.31-.28.65-.45,1.02-.5.18-.02.37,0,.57.08.2.07.39.17.57.3.18.13.32.29.44.46.11.18.17.36.17.56v1.83c0,.76,0,1.59.01,2.49,0,.9.01,1.83.01,2.8s0,1.89-.01,2.77c0,.88-.01,1.69-.01,2.43s0,1.32-.03,1.76l.24.13Z"/>
    <path d="M402.13,226.63c.19.18.36.4.49.68.13.27.2.55.21.82,0,.27-.05.53-.19.77-.13.24-.37.42-.7.54-.27.09-.56.11-.88.05s-.63-.16-.94-.32c-.31-.16-.58-.35-.82-.57-.24-.22-.41-.46-.52-.73-.04-.09-.06-.19-.08-.3-.02-.11-.03-.22-.03-.3v-14.72c0-.41.15-.75.46-1.03.31-.28.65-.45,1.02-.5.18-.02.37,0,.57.08.2.07.39.17.57.3s.32.29.44.46c.12.18.17.36.17.56v1.83c0,.76,0,1.59.01,2.49,0,.9.01,1.83.01,2.8s0,1.89-.01,2.77c0,.88-.01,1.69-.01,2.43s0,1.32-.03,1.76l.24.13Z"/>
    <path d="M404.57,221.93c.12-.51.3-1.02.52-1.51.22-.49.49-.97.81-1.42.32-.45.68-.86,1.07-1.23.4-.37.83-.67,1.29-.9.81-.42,1.63-.64,2.45-.65.82,0,1.59.16,2.29.49.71.34,1.31.84,1.8,1.5.49.66.82,1.45.98,2.37.09.6.14,1.17.15,1.71,0,.54-.05,1.1-.17,1.68-.18.83-.53,1.66-1.07,2.48-.54.82-1.18,1.51-1.94,2.07s-1.57.92-2.47,1.1c-.89.18-1.79.04-2.69-.42-.41-.19-.77-.42-1.1-.68-.33-.26-.62-.56-.89-.91-.3-.39-.54-.8-.7-1.22s-.3-.87-.41-1.33c-.12-.49-.17-.99-.13-1.5.04-.5.1-.99.19-1.47l.03-.16ZM407.75,222.49c-.05.28-.1.56-.13.84-.04.27-.04.55,0,.84.05.41.16.78.33,1.11.17.34.39.6.66.8.27.19.59.3.94.3.35,0,.73-.1,1.14-.33.51-.3.95-.76,1.33-1.39.37-.63.6-1.28.69-1.96.09-.68.02-1.33-.21-1.94-.23-.61-.68-1.05-1.35-1.31-.44,0-.85.08-1.22.25-.37.17-.69.39-.97.66-.27.27-.51.6-.72.97-.2.37-.37.76-.49,1.17Z"/>
    <path d="M431.46,216.81c.27-.35.57-.6.92-.73s.67-.16.97-.08c.3.08.56.26.77.54.21.28.33.66.34,1.14.02.27-.09.74-.33,1.43-.24.69-.53,1.59-.86,2.71-.02.07-.05.16-.09.27-.04.11-.11.28-.19.53-.08.25-.19.59-.34,1.03-.15.44-.36,1.03-.62,1.78-.12.37-.28.81-.46,1.33-.19.51-.42.97-.7,1.37-.28.4-.62.67-1.01.82-.39.15-.86.04-1.41-.33-.18-.12-.37-.38-.58-.76-.21-.38-.42-.79-.61-1.23-.19-.44-.37-.86-.52-1.26-.15-.4-.25-.66-.3-.78-.12-.28-.27-.6-.42-.94s-.31-.69-.45-1.05l-.16.4c-.23.58-.46,1.17-.69,1.75-.23.58-.46,1.16-.69,1.72-.12.3-.24.63-.34.98-.11.35-.26.66-.45.93-.16.23-.36.39-.6.49-.24.1-.48.14-.73.12-.25-.02-.48-.08-.7-.2-.22-.12-.41-.28-.57-.49-.25-.35-.44-.76-.58-1.22-.14-.46-.28-.88-.42-1.27-.2-.55-.37-1.11-.53-1.68-.16-.57-.33-1.13-.5-1.66-.09-.28-.2-.65-.34-1.11-.14-.46-.28-.93-.41-1.42-.13-.49-.24-.96-.32-1.42-.08-.46-.11-.84-.09-1.14.02-.3.12-.57.3-.81.19-.24.41-.42.68-.53.27-.11.54-.15.84-.12.29.04.55.17.78.4.34.35.54.73.61,1.13s.15.83.24,1.29c.14.71.3,1.41.49,2.09.19.69.38,1.38.6,2.07.07-.16.15-.35.24-.58.09-.23.23-.57.42-1.03.16-.39.31-.77.46-1.14.15-.37.3-.74.44-1.11.11-.27.21-.53.32-.78.11-.26.21-.51.32-.76.12-.27.31-.48.54-.65.24-.17.5-.27.78-.32.28-.04.56-.02.82.08.27.1.48.28.64.54.23.35.41.75.53,1.18.12.43.26.84.4,1.23.25.64.49,1.28.73,1.92.24.65.49,1.28.76,1.9.39-1.06.73-2.13,1.03-3.2.3-1.07.63-2.13.98-3.2l.11-.16Z"/>
    <path d="M447.59,219.44c-.35-.09-.66-.24-.92-.45s-.43-.46-.53-.74c-.1-.28-.1-.57,0-.88.1-.3.31-.57.65-.82.28-.21.6-.32.95-.32h1.03c0-.12,0-.39-.03-.81-.02-.42-.02-.87-.01-1.37,0-.49.04-.97.09-1.42.05-.45.15-.76.29-.94.35-.49.79-.73,1.31-.7.52.03.95.28,1.29.76.07.09.14.19.2.32.06.12.09.24.09.34.02.64.02,1.27.01,1.91s-.01,1.27-.01,1.91h2.1c.32,0,.59.11.82.32s.39.46.49.74c.1.28.12.57.08.88-.04.3-.18.55-.41.74-.41.34-.88.51-1.42.53-.54.02-1.09.03-1.66.03,0,.97,0,1.94-.01,2.92,0,.97,0,1.95.01,2.92,0,.42.02.86.07,1.3.04.44.01.87-.09,1.27-.09.32-.24.57-.45.76-.21.19-.45.3-.72.34-.27.04-.54.03-.82-.05s-.55-.23-.8-.44c-.12-.12-.22-.34-.28-.64-.06-.3-.1-.62-.12-.95-.02-.39-.02-.8,0-1.25v-1.38c0-.57,0-1.15-.01-1.76s-.01-1.19-.01-1.74v-1.3l-1.19-.03Z"/>
    <path d="M459.89,228.81c-.35.26-.72.38-1.1.36-.38-.02-.72-.17-1.01-.46-.29-.29-.44-.69-.44-1.21v-14.74c0-.41.16-.75.48-1.03.32-.28.67-.46,1.06-.53.39-.07.75,0,1.09.19.34.19.52.56.56,1.09.07.92.1,1.82.09,2.69,0,.88-.02,1.75-.04,2.64.65-.44,1.33-.74,2.04-.89.71-.15,1.39-.15,2.04.01.65.16,1.26.48,1.83.95.57.48,1.02,1.14,1.38,1.99.25.57.42,1.17.5,1.82.09.65.14,1.3.15,1.96,0,.66,0,1.32-.03,1.98-.03.65-.04,1.27-.04,1.86,0,.37-.1.71-.29,1.01-.19.3-.44.52-.73.66-.29.14-.6.19-.93.13s-.62-.25-.89-.58c-.26-.35-.43-.77-.49-1.25-.06-.48-.08-.99-.05-1.52.03-.54.07-1.09.12-1.66.05-.57.07-1.11.04-1.63-.03-.52-.13-1-.31-1.45-.18-.44-.49-.8-.93-1.09-.35-.05-.67-.03-.96.07-.28.1-.54.24-.77.44-.23.19-.45.42-.65.66-.2.25-.41.5-.62.74-.05.09-.12.17-.19.25-.07.08-.15.16-.24.25v5.04c-.11.58-.34,1-.69,1.26Z"/>
    <path d="M480.26,224.72c.42-.11.8-.11,1.13-.01s.58.26.76.49c.18.23.26.51.24.85-.02.34-.17.69-.45,1.06-.23.3-.55.56-.96.77s-.79.38-1.14.5c-.87.32-1.69.54-2.47.66-.78.12-1.51.12-2.19,0-.68-.12-1.32-.38-1.91-.77s-1.15-.94-1.66-1.64c-.35-.48-.61-1.02-.78-1.63-.17-.61-.26-1.23-.28-1.87s.04-1.26.16-1.88c.12-.62.3-1.18.53-1.67.3-.62.78-1.18,1.43-1.7.65-.51,1.38-.92,2.17-1.22.8-.3,1.61-.47,2.44-.52.83-.04,1.56.08,2.2.38.53.25.99.61,1.37,1.07.38.47.64.98.78,1.52.14.55.15,1.1.04,1.66-.12.56-.4,1.07-.86,1.52-.44.44-.93.8-1.46,1.07-.53.27-1.08.51-1.64.72-.57.2-1.14.38-1.74.52-.59.14-1.16.3-1.71.48.37.42.8.69,1.27.81.48.12.98.14,1.5.07.52-.07,1.05-.22,1.58-.44.53-.22,1.03-.46,1.49-.73l.16-.08ZM474.9,220.16c-.41.23-.71.52-.9.86s-.34.83-.42,1.45c.46-.14.98-.29,1.55-.45.57-.16,1.12-.33,1.63-.5.51-.18.95-.37,1.3-.58s.53-.44.53-.69c0-.14-.02-.28-.07-.41s-.14-.23-.28-.28c-.5-.18-1.01-.21-1.54-.11s-.97.26-1.33.45l-.48.27Z"/>
    <path d="M493.14,226.49c-.11-.3-.15-.6-.13-.89.02-.29.09-.56.23-.8.13-.24.32-.42.57-.56s.55-.18.9-.15c.19.02.37.07.53.16.16.09.3.19.44.32.13.12.27.26.4.4.13.14.27.27.41.37.3.23.62.4.96.5.34.11.69.19,1.06.24.25,0,.45-.06.6-.19.15-.12.25-.27.3-.45.05-.18.07-.37.04-.57-.03-.2-.09-.37-.2-.49-.3-.3-.67-.49-1.1-.58-.43-.09-.84-.19-1.21-.32-.53-.18-1.05-.4-1.56-.68-.51-.27-.93-.65-1.25-1.13-.34-.49-.53-1.02-.6-1.58-.06-.56-.02-1.1.13-1.63.15-.53.4-1.02.76-1.46.35-.44.78-.8,1.27-1.09.37-.21.78-.35,1.22-.41.44-.06.89-.07,1.34-.04.45.04.9.12,1.34.25s.85.28,1.22.44c.42.19.74.47.95.82.21.35.31.71.31,1.07,0,.36-.13.68-.37.94-.24.27-.59.4-1.05.4-.28,0-.54-.05-.77-.15-.23-.1-.47-.19-.72-.28-.32-.12-.66-.21-1.03-.25-.37-.04-.67-.02-.9.07-.07.02-.15.08-.24.17-.09.1-.15.22-.2.36-.04.14-.05.28-.03.42.03.14.12.26.28.34.42.23.88.41,1.35.53.48.12.95.27,1.41.42.46.16.89.36,1.29.61.4.25.73.6.99,1.06.39.67.59,1.38.6,2.11,0,.73-.14,1.42-.44,2.06-.3.64-.74,1.18-1.33,1.63-.58.45-1.26.72-2.04.81-.55.05-1.09.02-1.62-.09-.53-.12-1.04-.3-1.54-.56-.5-.26-.96-.56-1.38-.91-.42-.35-.8-.72-1.11-1.11l-.08-.16Z"/>
    <path d="M505.5,219.44c-.35-.09-.66-.24-.92-.45s-.43-.46-.53-.74c-.1-.28-.1-.57,0-.88.1-.3.31-.57.65-.82.28-.21.6-.32.95-.32h1.03c0-.12,0-.39-.03-.81-.02-.42-.02-.87-.01-1.37,0-.49.04-.97.09-1.42.05-.45.15-.76.29-.94.35-.49.79-.73,1.31-.7.52.03.95.28,1.29.76.07.09.14.19.2.32.06.12.09.24.09.34.02.64.02,1.27.01,1.91s-.01,1.27-.01,1.91h2.1c.32,0,.59.11.82.32s.39.46.49.74c.1.28.12.57.08.88-.04.3-.18.55-.41.74-.41.34-.88.51-1.42.53-.54.02-1.09.03-1.66.03,0,.97,0,1.94-.01,2.92,0,.97,0,1.95.01,2.92,0,.42.02.86.07,1.3.04.44.01.87-.09,1.27-.09.32-.24.57-.45.76-.21.19-.45.3-.72.34-.27.04-.54.03-.82-.05s-.55-.23-.8-.44c-.12-.12-.22-.34-.28-.64-.06-.3-.1-.62-.12-.95-.02-.39-.02-.8,0-1.25v-1.38c0-.57,0-1.15-.01-1.76s-.01-1.19-.01-1.74v-1.3l-1.19-.03Z"/>
    <path d="M515.77,220.09c.02-.11,0-.32-.03-.62-.28-.16-.5-.36-.66-.61-.16-.25-.25-.51-.28-.8-.03-.28.03-.55.16-.81.13-.26.35-.47.65-.65.41-.23.85-.27,1.34-.13.49.14.91.35,1.26.64.44-.34.9-.62,1.38-.85.48-.23.96-.38,1.46-.46.49-.08,1-.07,1.51.04.51.11,1.02.33,1.51.66.25.16.48.36.69.6.21.24.34.51.4.81.09.44.05.83-.11,1.15-.16.33-.38.57-.66.72-.28.15-.6.19-.95.13-.35-.06-.69-.25-1.01-.57-.11-.07-.18-.13-.23-.17-.04-.04-.14-.1-.28-.17-.28-.07-.56-.05-.84.05-.27.11-.54.25-.79.44-.26.19-.5.39-.72.61-.22.22-.42.42-.6.6v6.76c0,.27-.05.52-.16.77-.16.41-.41.69-.76.85-.34.16-.69.2-1.03.13-.34-.07-.65-.25-.9-.53-.26-.28-.38-.65-.38-1.09v-7.43c0,.07,0,.05.03-.07Z"/>
    <path d="M526.77,212.44c.07-.65.3-1.14.68-1.45.38-.31.78-.46,1.21-.45.42,0,.82.17,1.18.49.36.32.55.77.57,1.35.04.6-.12,1.07-.46,1.39-.34.33-.74.51-1.18.56-.44.04-.86-.07-1.25-.36-.39-.28-.63-.73-.72-1.35l-.03-.19ZM530.27,227.53c-.04.35-.16.67-.37.94-.21.27-.46.47-.73.6-.27.12-.57.15-.89.08-.32-.07-.6-.27-.85-.58-.14-.18-.24-.38-.3-.6-.06-.22-.1-.45-.12-.69s-.02-.48-.01-.72c0-.24.01-.45.01-.65-.02-1.04-.02-2.08-.01-3.1,0-1.03,0-2.06-.01-3.1,0-.42-.03-.85-.08-1.29-.05-.43-.03-.86.08-1.29.09-.32.24-.59.46-.82.22-.23.47-.39.74-.48.27-.09.56-.1.85-.03.29.07.54.26.76.56.28.35.42.7.42,1.05v3.06c0,.6,0,1.19.03,1.78.02.85.03,1.7.03,2.55v2.73Z"/>
    <path d="M543.8,227.58c-.05.44-.22.8-.49,1.09-.27.28-.58.46-.93.53-.34.07-.68.03-.99-.13-.32-.16-.55-.47-.69-.93-.16-.49-.22-1.01-.19-1.55.04-.54.05-1.04.05-1.5,0-.95,0-1.91.01-2.85,0-.95-.03-1.9-.12-2.85-.02-.04-.04-.07-.05-.09-.02-.03-.05-.07-.11-.12-.41-.11-.84-.08-1.3.08-.46.16-.85.36-1.17.61-.28.23-.56.54-.83.94-.27.4-.41.78-.41,1.15v3.66c0,.28,0,.59.03.93.02.34,0,.66-.04.98-.04.32-.15.61-.31.88-.16.27-.42.46-.77.58-.2.07-.38.1-.54.08-.17-.02-.35-.06-.54-.13-.32-.11-.55-.29-.69-.54s-.24-.53-.29-.82-.08-.57-.07-.85c0-.27.01-.49.01-.65,0-.41,0-.99-.01-1.76,0-.77-.01-1.58-.01-2.43v-4.19c0-.39.11-.71.34-.97.23-.26.5-.42.81-.5s.64-.06.98.05.63.35.86.7c.71-.46,1.48-.77,2.33-.93s1.65-.13,2.4.08c.75.21,1.38.61,1.88,1.19s.76,1.39.78,2.41c0,.04,0,.14.03.32.02.18.03.42.03.74v6.79Z"/>
    <path d="M547.14,233.81c-.3-.37-.46-.76-.48-1.15-.02-.4.07-.74.27-1.02.19-.28.47-.48.84-.58.36-.11.76-.05,1.21.16.19.14.37.25.53.32.16.07.38.18.66.32.27.12.57.22.9.28.34.06.65.07.95.04.6-.04,1.06-.14,1.39-.3.33-.17.56-.39.7-.66.14-.27.23-.61.25-1.01.03-.4.04-.84.04-1.34-.57.19-1.13.34-1.7.44-.57.1-1.15.11-1.75.04-1.17-.14-2.13-.56-2.88-1.25-.75-.69-1.3-1.51-1.64-2.47-.34-.95-.49-1.98-.42-3.06.06-1.09.31-2.09.76-3.01.27-.53.63-1.02,1.09-1.47.46-.45.98-.82,1.55-1.11s1.18-.48,1.8-.57c.63-.09,1.23-.04,1.82.16.34.12.66.25.98.37.32.12.63.28.93.48.34-.3.73-.45,1.18-.45s.84.21,1.15.64c.07.11.15.23.24.36.09.13.13.26.13.38.02,1.89.02,3.78.01,5.66s-.01,3.77-.01,5.66c0,.76-.1,1.47-.31,2.12-.2.65-.51,1.23-.92,1.74-.41.5-.91.91-1.51,1.23-.6.32-1.3.52-2.1.61-.41.04-.8.05-1.19.05s-.79-.04-1.19-.13c-.57-.11-1.11-.28-1.63-.53-.52-.25-1.04-.52-1.55-.82l-.11-.11ZM550.27,225.72c.78.37,1.49.49,2.15.36.65-.13,1.32-.43,1.99-.89v-4.22c-.51-.51-1.01-.87-1.5-1.07-.49-.2-1.07-.26-1.74-.17-.12.07-.24.13-.36.19-.12.05-.23.11-.36.16-.37.42-.65.84-.85,1.23s-.31.8-.34,1.22c-.04.42,0,.84.09,1.27.1.43.24.91.44,1.42.05.09.13.18.24.27.11.09.19.17.24.24Z"/>
  </g>
  <g>
    <path d="M229.81,294.55c-.05.39-.19.72-.4.99s-.46.46-.73.57c-.27.11-.57.12-.88.04-.31-.08-.6-.29-.86-.62-.23-.28-.36-.6-.38-.94-.03-.34-.08-.68-.15-1.02-.18-.97-.43-1.97-.77-3-1.1.02-2.18.03-3.26.03s-2.16,0-3.24.03c-.16.46-.3.93-.41,1.41-.12.48-.23.95-.33,1.41-.09.35-.17.72-.24,1.1-.07.38-.23.71-.48.99-.3.35-.62.55-.97.6-.34.04-.65-.01-.93-.17-.27-.16-.5-.4-.66-.73s-.23-.7-.17-1.13c.05-.55.16-1.09.32-1.62.16-.53.31-1.06.45-1.59.8-3.04,1.82-5.98,3.08-8.83.11-.25.22-.49.33-.72.12-.23.23-.46.33-.69.12-.25.25-.51.37-.8.12-.28.27-.54.44-.78.17-.24.37-.44.6-.61.23-.17.51-.25.85-.25.44,0,.81.14,1.11.42,1.2,1.2,2.19,2.56,2.97,4.07.78,1.51,1.48,3.05,2.09,4.63.37-.02.73-.02,1.09,0,.35.02.67.18.95.48.25.25.39.51.44.8.04.28.02.56-.08.82-.1.27-.26.5-.48.69-.22.19-.49.33-.81.4.18.62.33,1.25.46,1.9.13.65.24,1.3.33,1.95v.19ZM224.4,287.33c-.34-.8-.69-1.59-1.07-2.37-.38-.79-.81-1.53-1.29-2.24-.35.78-.69,1.55-.99,2.32-.31.77-.6,1.55-.86,2.35.83-.02,1.56-.03,2.19-.03s1.3,0,2.03-.03Z"/>
    <path d="M242.3,294.62c-.05.44-.22.8-.49,1.09-.27.28-.58.46-.93.53-.34.07-.68.03-.99-.13-.32-.16-.55-.47-.69-.93-.16-.49-.22-1.01-.19-1.55.04-.54.05-1.04.05-1.5,0-.95,0-1.9.01-2.85,0-.95-.03-1.9-.12-2.85-.02-.04-.04-.07-.05-.09-.02-.03-.05-.07-.11-.12-.41-.11-.84-.08-1.3.08-.46.16-.85.36-1.17.61-.28.23-.56.54-.84.94-.27.4-.41.78-.41,1.15v3.66c0,.28,0,.59.03.93.02.34,0,.66-.04.98-.04.32-.15.61-.31.88-.16.27-.42.46-.77.58-.19.07-.38.1-.54.08-.17-.02-.35-.06-.54-.13-.32-.11-.55-.29-.69-.54s-.24-.53-.29-.82-.08-.57-.07-.85c0-.27.01-.49.01-.65,0-.41,0-.99-.01-1.76,0-.77-.01-1.58-.01-2.43v-4.19c0-.39.11-.71.34-.97.23-.26.5-.42.81-.5.31-.08.64-.06.98.05.34.12.63.35.86.7.71-.46,1.49-.77,2.33-.93s1.65-.13,2.4.08c.75.21,1.38.61,1.88,1.19s.76,1.39.78,2.41c0,.04,0,.14.03.32.02.18.03.42.03.74v6.79Z"/>
    <path d="M257.13,293.19c.3.51.4.97.31,1.38-.1.41-.3.71-.6.92-.3.2-.67.28-1.1.24-.43-.04-.85-.27-1.26-.68-.42.3-.87.53-1.33.7-.46.17-.95.31-1.46.44-.8.18-1.56.16-2.29-.04-.73-.2-1.38-.53-1.95-.99-.57-.46-1.03-1.03-1.38-1.71-.35-.68-.55-1.42-.58-2.21-.05-.88.01-1.73.2-2.55.19-.81.48-1.56.89-2.23.41-.67.94-1.25,1.6-1.72.66-.48,1.45-.81,2.35-1.01.53-.11,1.06-.16,1.6-.16s1.07.04,1.6.13c-.02-.39-.03-.84-.04-1.34,0-.5-.01-.99-.01-1.47s.02-.91.05-1.29c.04-.38.08-.65.13-.81.12-.32.31-.56.57-.73.26-.17.53-.26.81-.27.28,0,.56.06.84.21.27.15.49.38.65.68.04.09.08.17.13.25.05.08.08.16.08.25.02,2.32.02,4.61.01,6.87,0,2.26-.01,4.55-.01,6.87.07.11.13.19.19.27ZM253.44,291.73c.04-.05.1-.11.2-.16.1-.05.15-.12.15-.21v-2.19c0-.72,0-1.45-.03-2.19-.42-.09-.87-.14-1.33-.16-.46-.02-.91.03-1.34.13-.43.11-.83.28-1.19.53-.36.25-.65.6-.86,1.06-.11.34-.2.67-.29,1.01-.09.34-.14.66-.15.98,0,.32.03.63.12.94.09.31.24.61.45.89.07.07.15.14.25.21.1.07.29.19.57.37.65.05,1.28,0,1.87-.19.59-.18,1.12-.52,1.58-1.03Z"/>
    <path d="M273.86,293.67c.19.18.36.4.49.68.13.27.2.55.21.82,0,.27-.05.53-.19.77-.13.24-.37.42-.7.54-.27.09-.56.11-.88.05s-.63-.16-.94-.32c-.31-.16-.58-.35-.82-.57-.24-.22-.41-.46-.52-.73-.04-.09-.06-.19-.08-.3-.02-.11-.03-.22-.03-.3v-14.72c0-.41.15-.75.46-1.03.31-.28.65-.45,1.02-.5.18-.02.37,0,.57.08.2.07.39.17.57.3.18.13.32.29.44.46.11.18.17.36.17.56v1.83c0,.76,0,1.59.01,2.49,0,.9.01,1.83.01,2.8s0,1.89-.01,2.77c0,.88-.01,1.69-.01,2.43s0,1.32-.03,1.76l.24.13Z"/>
    <path d="M285.93,291.76c.42-.11.8-.11,1.13-.01.33.1.58.26.76.49.18.23.26.51.24.85-.02.34-.17.69-.45,1.06-.23.3-.55.56-.95.77s-.79.38-1.14.5c-.87.32-1.69.54-2.47.66-.78.12-1.51.12-2.19,0-.68-.12-1.32-.38-1.91-.77-.59-.39-1.15-.94-1.66-1.64-.35-.48-.61-1.02-.78-1.63-.17-.61-.26-1.23-.28-1.87s.04-1.26.16-1.88c.12-.62.3-1.18.53-1.67.3-.62.78-1.18,1.43-1.7.65-.51,1.38-.92,2.17-1.22.8-.3,1.61-.47,2.44-.52.83-.04,1.56.08,2.2.38.53.25.99.61,1.37,1.07.38.47.64.98.78,1.52.14.55.15,1.1.04,1.66-.12.56-.4,1.07-.86,1.52-.44.44-.93.8-1.46,1.07-.53.27-1.08.51-1.64.72-.57.2-1.14.38-1.74.52-.59.14-1.16.3-1.71.48.37.42.8.69,1.27.81.48.12.98.14,1.5.07.52-.07,1.05-.22,1.58-.44.53-.22,1.03-.46,1.49-.73l.16-.08ZM280.57,287.2c-.41.23-.71.52-.9.86-.19.34-.34.83-.42,1.45.46-.14.98-.29,1.55-.45.57-.16,1.12-.33,1.63-.5.51-.18.95-.37,1.3-.58.35-.21.53-.44.53-.69,0-.14-.02-.28-.07-.41-.04-.13-.14-.23-.28-.28-.5-.18-1.01-.21-1.54-.11-.53.11-.97.26-1.33.45l-.48.27Z"/>
    <path d="M290.43,286.48c-.35-.09-.66-.24-.92-.45-.26-.21-.43-.46-.53-.74-.1-.28-.1-.57,0-.88.1-.3.31-.57.65-.82.28-.21.6-.32.96-.32h1.03c0-.12,0-.39-.03-.81-.02-.42-.02-.87-.01-1.37,0-.49.04-.97.09-1.42.05-.45.15-.76.29-.94.35-.49.79-.73,1.31-.7.52.03.95.28,1.29.76.07.09.14.19.2.32.06.12.09.24.09.34.02.64.02,1.27.01,1.91,0,.64-.01,1.27-.01,1.91h2.09c.32,0,.59.11.82.32.23.21.39.46.49.74.1.28.12.57.08.88-.04.3-.18.55-.41.74-.41.34-.88.51-1.42.53-.54.02-1.09.03-1.66.03,0,.97,0,1.94-.01,2.92,0,.97,0,1.95.01,2.92,0,.42.02.86.07,1.3.04.44.01.87-.09,1.27-.09.32-.24.57-.45.76-.21.19-.45.3-.72.34-.27.04-.54.03-.82-.05s-.55-.23-.8-.44c-.12-.12-.22-.34-.28-.64-.06-.3-.1-.62-.12-.95-.02-.39-.02-.8,0-1.25v-1.38c0-.57,0-1.15-.01-1.76,0-.61-.01-1.19-.01-1.74v-1.3l-1.19-.03Z"/>
    <path d="M301.84,276.59c.21-.35.48-.59.8-.72.32-.12.63-.15.94-.09.31.06.58.22.82.46.24.25.38.57.41.98.02.27-.02.55-.12.85-.1.3-.22.6-.37.9-.15.3-.31.59-.48.88-.17.28-.3.53-.41.74-.14.28-.27.56-.38.84-.12.27-.25.54-.41.81-.25.44-.57.69-.97.76-.4.06-.77,0-1.11-.16-.34-.17-.61-.43-.8-.78-.19-.35-.19-.73-.01-1.14.09-.35.24-.72.45-1.09.21-.37.4-.72.56-1.03.18-.35.34-.7.5-1.03.16-.34.32-.67.48-1.01l.11-.16Z"/>
    <path d="M301.97,293.54c-.11-.3-.15-.6-.13-.89s.09-.56.23-.8c.13-.24.32-.42.57-.56s.55-.18.9-.15c.19.02.37.07.53.16.16.09.3.19.44.32.13.12.27.26.4.4.13.14.27.27.41.37.3.23.62.4.95.5.34.11.69.19,1.06.24.25,0,.45-.06.6-.19.15-.12.25-.27.3-.45.05-.18.07-.37.04-.57-.03-.2-.09-.37-.2-.49-.3-.3-.67-.49-1.1-.58-.43-.09-.83-.19-1.21-.32-.53-.18-1.05-.4-1.56-.68-.51-.27-.93-.65-1.25-1.13-.34-.49-.53-1.02-.6-1.58s-.02-1.1.13-1.63c.15-.53.4-1.02.76-1.46.35-.44.78-.8,1.27-1.09.37-.21.78-.35,1.22-.41.44-.06.89-.07,1.34-.04.45.04.9.12,1.34.25s.85.28,1.22.44c.42.19.74.47.95.82.21.35.31.71.31,1.07,0,.36-.13.68-.37.94-.24.27-.59.4-1.05.4-.28,0-.54-.05-.77-.15-.23-.1-.47-.19-.72-.28-.32-.12-.66-.21-1.03-.25-.37-.04-.67-.02-.9.07-.07.02-.15.08-.24.17-.09.1-.16.22-.2.36-.04.14-.05.28-.03.42.03.14.12.26.28.34.42.23.88.41,1.35.53.48.12.95.27,1.41.42.46.16.89.36,1.29.61.4.25.73.6.99,1.06.39.67.59,1.38.6,2.11,0,.73-.14,1.42-.44,2.06-.3.64-.74,1.18-1.33,1.63-.58.45-1.26.72-2.04.81-.55.05-1.09.02-1.62-.09-.53-.12-1.04-.3-1.54-.56-.5-.26-.95-.56-1.38-.91-.42-.35-.8-.72-1.11-1.11l-.08-.16Z"/>
    <path d="M329.87,287.73v-.37c-.16-.41-.42-.69-.77-.86-.35-.17-.73-.27-1.14-.3-.23.07-.42.15-.56.24-.14.09-.27.19-.37.29-.11.11-.2.23-.29.36s-.19.27-.32.41v6.95c0,.55-.16.98-.49,1.29-.33.31-.69.49-1.09.53-.4.04-.77-.05-1.1-.29-.34-.24-.51-.64-.53-1.21-.04-1.36-.05-2.91-.04-4.64,0-1.73.01-3.67.01-5.81,0-.37.11-.68.33-.93.22-.25.49-.42.8-.5.31-.09.63-.08.95.01.33.1.6.3.81.6.99-.49,1.98-.65,2.96-.46.98.19,1.87.65,2.67,1.39.35-.35.73-.67,1.14-.95.41-.28.85-.47,1.33-.56.55-.09,1.1-.07,1.66.07.56.13,1.07.35,1.55.65.48.3.9.67,1.26,1.11.36.44.63.92.81,1.43.09.35.13.67.13.95v7.21c0,.21-.03.42-.08.61-.16.46-.41.78-.76.97-.34.19-.7.25-1.06.2s-.68-.22-.94-.5c-.26-.28-.4-.66-.4-1.14v-7.13c-.16-.42-.39-.73-.69-.93-.3-.19-.61-.28-.93-.27-.32.02-.62.13-.92.34s-.53.5-.7.88v6.95c0,.48-.16.88-.46,1.19-.31.32-.65.52-1.02.61-.37.09-.72.05-1.05-.11-.33-.16-.52-.48-.57-.95l-.13-7.32Z"/>
    <path d="M351.8,291.76c.42-.11.8-.11,1.13-.01.33.1.58.26.76.49.18.23.26.51.24.85-.02.34-.17.69-.45,1.06-.23.3-.55.56-.95.77-.41.21-.79.38-1.14.5-.87.32-1.69.54-2.47.66-.78.12-1.51.12-2.19,0-.68-.12-1.32-.38-1.91-.77-.59-.39-1.15-.94-1.66-1.64-.35-.48-.61-1.02-.78-1.63-.17-.61-.26-1.23-.28-1.87-.02-.64.04-1.26.16-1.88.12-.62.3-1.18.53-1.67.3-.62.78-1.18,1.43-1.7.65-.51,1.38-.92,2.17-1.22.8-.3,1.61-.47,2.44-.52.83-.04,1.56.08,2.2.38.53.25.99.61,1.37,1.07.38.47.64.98.78,1.52.14.55.15,1.1.04,1.66-.11.56-.4,1.07-.86,1.52-.44.44-.93.8-1.46,1.07-.53.27-1.08.51-1.64.72-.57.2-1.15.38-1.74.52-.59.14-1.16.3-1.71.48.37.42.8.69,1.27.81.48.12.98.14,1.5.07.52-.07,1.05-.22,1.58-.44.53-.22,1.02-.46,1.48-.73l.16-.08ZM346.44,287.2c-.41.23-.71.52-.9.86-.2.34-.34.83-.42,1.45.46-.14.98-.29,1.55-.45.57-.16,1.12-.33,1.63-.5.51-.18.95-.37,1.3-.58.35-.21.53-.44.53-.69,0-.14-.02-.28-.07-.41-.04-.13-.14-.23-.28-.28-.5-.18-1.01-.21-1.54-.11-.53.11-.97.26-1.33.45l-.48.27Z"/>
    <path d="M364.95,291.76c.42-.11.8-.11,1.13-.01.33.1.58.26.76.49.18.23.26.51.24.85-.02.34-.17.69-.45,1.06-.23.3-.55.56-.95.77-.41.21-.79.38-1.14.5-.87.32-1.69.54-2.47.66-.78.12-1.51.12-2.19,0-.68-.12-1.32-.38-1.91-.77s-1.14-.94-1.66-1.64c-.35-.48-.61-1.02-.78-1.63-.17-.61-.26-1.23-.28-1.87-.02-.64.04-1.26.16-1.88.12-.62.3-1.18.53-1.67.3-.62.78-1.18,1.43-1.7.65-.51,1.38-.92,2.17-1.22.8-.3,1.61-.47,2.44-.52.83-.04,1.56.08,2.2.38.53.25.99.61,1.37,1.07.38.47.64.98.78,1.52.14.55.15,1.1.04,1.66-.11.56-.4,1.07-.86,1.52-.44.44-.93.8-1.46,1.07-.53.27-1.08.51-1.64.72-.57.2-1.15.38-1.74.52-.59.14-1.16.3-1.71.48.37.42.8.69,1.27.81.48.12.98.14,1.5.07.52-.07,1.05-.22,1.58-.44.53-.22,1.03-.46,1.49-.73l.16-.08ZM359.6,287.2c-.41.23-.71.52-.9.86-.19.34-.34.83-.42,1.45.46-.14.98-.29,1.55-.45.57-.16,1.12-.33,1.63-.5.51-.18.95-.37,1.3-.58.35-.21.53-.44.53-.69,0-.14-.02-.28-.07-.41s-.14-.23-.28-.28c-.5-.18-1.01-.21-1.54-.11-.53.11-.97.26-1.33.45l-.48.27Z"/>
    <path d="M369.46,286.48c-.35-.09-.66-.24-.92-.45s-.43-.46-.53-.74c-.1-.28-.1-.57,0-.88.1-.3.31-.57.65-.82.28-.21.6-.32.95-.32h1.03c0-.12,0-.39-.03-.81-.02-.42-.02-.87-.01-1.37,0-.49.04-.97.09-1.42.05-.45.15-.76.29-.94.35-.49.79-.73,1.31-.7.52.03.95.28,1.29.76.07.09.14.19.2.32.06.12.09.24.09.34.02.64.02,1.27.01,1.91s-.01,1.27-.01,1.91h2.1c.32,0,.59.11.82.32s.39.46.49.74c.1.28.12.57.08.88-.04.3-.18.55-.41.74-.41.34-.88.51-1.42.53-.54.02-1.09.03-1.66.03,0,.97,0,1.94-.01,2.92,0,.97,0,1.95.01,2.92,0,.42.02.86.07,1.3.04.44.01.87-.09,1.27-.09.32-.24.57-.45.76-.21.19-.45.3-.72.34-.27.04-.54.03-.82-.05s-.55-.23-.8-.44c-.12-.12-.22-.34-.28-.64-.06-.3-.1-.62-.12-.95-.02-.39-.02-.8,0-1.25v-1.38c0-.57,0-1.15-.01-1.76s-.01-1.19-.01-1.74v-1.3l-1.19-.03Z"/>
    <path d="M389.01,279.48c.07-.65.3-1.14.68-1.45.38-.31.78-.46,1.21-.45.42,0,.82.17,1.18.49.36.32.55.77.57,1.35.04.6-.12,1.07-.46,1.39-.34.33-.74.51-1.18.56-.44.04-.86-.07-1.25-.36-.39-.28-.63-.73-.72-1.35l-.03-.19ZM392.51,294.57c-.04.35-.16.67-.37.94s-.46.47-.73.6c-.27.12-.57.15-.89.08-.32-.07-.6-.27-.85-.58-.14-.18-.24-.38-.31-.6-.06-.22-.1-.45-.12-.69-.02-.24-.02-.48-.01-.72,0-.24.01-.45.01-.65-.02-1.04-.02-2.08-.01-3.1,0-1.03,0-2.06-.01-3.1,0-.42-.03-.85-.08-1.29-.05-.43-.03-.86.08-1.29.09-.32.24-.59.46-.82.22-.23.47-.39.74-.48.27-.09.56-.1.85-.03.29.07.54.26.76.56.28.35.42.7.42,1.05v3.06c0,.6,0,1.19.03,1.78.02.85.03,1.7.03,2.55v2.73Z"/>
    <path d="M406.03,294.62c-.05.44-.22.8-.49,1.09-.27.28-.58.46-.93.53-.34.07-.68.03-.99-.13-.32-.16-.55-.47-.69-.93-.16-.49-.22-1.01-.19-1.55.04-.54.05-1.04.05-1.5,0-.95,0-1.9.01-2.85,0-.95-.03-1.9-.12-2.85-.02-.04-.04-.07-.05-.09-.02-.03-.05-.07-.11-.12-.41-.11-.84-.08-1.3.08-.46.16-.85.36-1.17.61-.28.23-.56.54-.84.94-.27.4-.41.78-.41,1.15v3.66c0,.28,0,.59.03.93.02.34,0,.66-.04.98-.04.32-.15.61-.3.88-.16.27-.42.46-.77.58-.19.07-.38.1-.54.08-.17-.02-.35-.06-.54-.13-.32-.11-.55-.29-.69-.54-.14-.26-.24-.53-.29-.82s-.08-.57-.07-.85c0-.27.01-.49.01-.65,0-.41,0-.99-.01-1.76s-.01-1.58-.01-2.43v-4.19c0-.39.11-.71.34-.97.23-.26.5-.42.81-.5.31-.08.64-.06.98.05.34.12.63.35.86.7.71-.46,1.49-.77,2.33-.93s1.65-.13,2.4.08,1.38.61,1.88,1.19.76,1.39.78,2.41c0,.04,0,.14.03.32.02.18.03.42.03.74v6.79Z"/>
    <path d="M420.17,286.48c-.35-.09-.66-.24-.92-.45s-.43-.46-.53-.74c-.1-.28-.1-.57,0-.88.1-.3.31-.57.65-.82.28-.21.6-.32.95-.32h1.03c0-.12,0-.39-.03-.81-.02-.42-.02-.87-.01-1.37,0-.49.04-.97.09-1.42.05-.45.15-.76.29-.94.35-.49.79-.73,1.31-.7.52.03.95.28,1.29.76.07.09.14.19.2.32.06.12.09.24.09.34.02.64.02,1.27.01,1.91s-.01,1.27-.01,1.91h2.1c.32,0,.59.11.82.32s.39.46.49.74c.1.28.12.57.08.88-.04.3-.18.55-.41.74-.41.34-.88.51-1.42.53-.54.02-1.09.03-1.66.03,0,.97,0,1.94-.01,2.92,0,.97,0,1.95.01,2.92,0,.42.02.86.07,1.3.04.44.01.87-.09,1.27-.09.32-.24.57-.45.76-.21.19-.45.3-.72.34-.27.04-.54.03-.82-.05s-.55-.23-.8-.44c-.12-.12-.22-.34-.28-.64-.06-.3-.1-.62-.12-.95-.02-.39-.02-.8,0-1.25v-1.38c0-.57,0-1.15-.01-1.76s-.01-1.19-.01-1.74v-1.3l-1.19-.03Z"/>
    <path d="M432.47,295.86c-.35.26-.72.38-1.1.36-.38-.02-.72-.17-1.01-.46-.29-.29-.44-.69-.44-1.21v-14.74c0-.41.16-.75.48-1.03.32-.28.67-.46,1.06-.53.39-.07.75,0,1.09.19.34.19.52.56.56,1.09.07.92.1,1.82.09,2.69,0,.88-.02,1.75-.04,2.64.65-.44,1.33-.74,2.04-.89.71-.15,1.39-.15,2.04.01.65.16,1.26.48,1.83.95.57.48,1.02,1.14,1.38,1.99.25.57.42,1.17.5,1.82.09.65.14,1.3.15,1.96,0,.66,0,1.32-.03,1.98-.03.65-.04,1.27-.04,1.86,0,.37-.1.71-.29,1.01-.19.3-.44.52-.73.66-.29.14-.6.19-.93.13s-.62-.25-.89-.58c-.26-.35-.43-.77-.49-1.25-.06-.48-.08-.99-.05-1.52.03-.54.07-1.09.12-1.66.05-.57.07-1.11.04-1.63-.03-.52-.13-1-.31-1.45-.18-.44-.49-.8-.93-1.09-.35-.05-.67-.03-.96.07-.28.1-.54.24-.77.44-.23.19-.45.42-.65.66-.2.25-.41.5-.62.74-.05.09-.12.17-.19.25-.07.08-.15.16-.24.25v5.04c-.11.58-.34,1-.69,1.26Z"/>
    <path d="M452.84,291.76c.42-.11.8-.11,1.13-.01.33.1.58.26.76.49.18.23.26.51.24.85-.02.34-.17.69-.45,1.06-.23.3-.55.56-.96.77s-.79.38-1.14.5c-.87.32-1.69.54-2.47.66-.78.12-1.51.12-2.19,0-.68-.12-1.32-.38-1.91-.77s-1.15-.94-1.66-1.64c-.35-.48-.61-1.02-.78-1.63-.17-.61-.26-1.23-.28-1.87s.04-1.26.16-1.88c.12-.62.3-1.18.53-1.67.3-.62.78-1.18,1.43-1.7.65-.51,1.38-.92,2.17-1.22.8-.3,1.61-.47,2.44-.52.83-.04,1.56.08,2.2.38.53.25.99.61,1.37,1.07.38.47.64.98.78,1.52.14.55.15,1.1.04,1.66-.12.56-.4,1.07-.86,1.52-.44.44-.93.8-1.46,1.07-.53.27-1.08.51-1.64.72-.57.2-1.14.38-1.74.52-.59.14-1.16.3-1.71.48.37.42.8.69,1.27.81.48.12.98.14,1.5.07.52-.07,1.05-.22,1.58-.44.53-.22,1.03-.46,1.49-.73l.16-.08ZM447.48,287.2c-.41.23-.71.52-.9.86s-.34.83-.42,1.45c.46-.14.98-.29,1.55-.45.57-.16,1.12-.33,1.63-.5.51-.18.95-.37,1.3-.58s.53-.44.53-.69c0-.14-.02-.28-.07-.41s-.14-.23-.28-.28c-.5-.18-1.01-.21-1.54-.11-.53.11-.97.26-1.33.45l-.48.27Z"/>
    <path d="M472.81,287.73v-.37c-.16-.41-.42-.69-.77-.86-.35-.17-.73-.27-1.14-.3-.23.07-.42.15-.56.24-.14.09-.27.19-.37.29-.11.11-.2.23-.29.36-.09.13-.2.27-.32.41v6.95c0,.55-.16.98-.49,1.29-.33.31-.69.49-1.09.53-.4.04-.76-.05-1.1-.29-.34-.24-.51-.64-.53-1.21-.04-1.36-.05-2.91-.04-4.64,0-1.73.01-3.67.01-5.81,0-.37.11-.68.33-.93.22-.25.49-.42.8-.5.31-.09.63-.08.95.01.33.1.6.3.81.6.99-.49,1.98-.65,2.96-.46.98.19,1.87.65,2.67,1.39.35-.35.73-.67,1.14-.95.41-.28.85-.47,1.33-.56.55-.09,1.1-.07,1.66.07.56.13,1.07.35,1.55.65.48.3.9.67,1.26,1.11.36.44.63.92.81,1.43.09.35.13.67.13.95v7.21c0,.21-.03.42-.08.61-.16.46-.41.78-.76.97-.34.19-.7.25-1.06.2-.36-.05-.68-.22-.94-.5-.27-.28-.4-.66-.4-1.14v-7.13c-.16-.42-.39-.73-.69-.93-.3-.19-.61-.28-.93-.27-.32.02-.62.13-.92.34-.29.21-.53.5-.7.88v6.95c0,.48-.15.88-.46,1.19-.31.32-.65.52-1.02.61-.37.09-.72.05-1.05-.11-.33-.16-.52-.48-.57-.95l-.13-7.32Z"/>
    <path d="M485.03,279.48c.07-.65.3-1.14.68-1.45.38-.31.78-.46,1.21-.45.42,0,.82.17,1.18.49.36.32.55.77.57,1.35.04.6-.12,1.07-.46,1.39-.34.33-.74.51-1.18.56-.44.04-.86-.07-1.25-.36-.39-.28-.63-.73-.72-1.35l-.03-.19ZM488.53,294.57c-.04.35-.16.67-.37.94s-.46.47-.73.6c-.27.12-.57.15-.89.08-.32-.07-.6-.27-.85-.58-.14-.18-.24-.38-.3-.6-.06-.22-.1-.45-.12-.69-.02-.24-.02-.48-.01-.72,0-.24.01-.45.01-.65-.02-1.04-.02-2.08-.01-3.1,0-1.03,0-2.06-.01-3.1,0-.42-.03-.85-.08-1.29-.05-.43-.03-.86.08-1.29.09-.32.24-.59.46-.82.22-.23.47-.39.74-.48.27-.09.56-.1.85-.03.29.07.54.26.76.56.28.35.42.7.42,1.05v3.06c0,.6,0,1.19.03,1.78.02.85.03,1.7.03,2.55v2.73Z"/>
    <path d="M503.86,293.19c.3.51.4.97.3,1.38-.1.41-.3.71-.6.92-.3.2-.67.28-1.1.24-.43-.04-.85-.27-1.26-.68-.42.3-.87.53-1.33.7-.46.17-.95.31-1.46.44-.8.18-1.56.16-2.29-.04-.73-.2-1.38-.53-1.95-.99-.57-.46-1.03-1.03-1.38-1.71-.35-.68-.55-1.42-.58-2.21-.05-.88.01-1.73.2-2.55.19-.81.48-1.56.89-2.23.41-.67.94-1.25,1.6-1.72.66-.48,1.45-.81,2.35-1.01.53-.11,1.06-.16,1.6-.16s1.07.04,1.6.13c-.02-.39-.03-.84-.04-1.34s-.01-.99-.01-1.47.02-.91.05-1.29c.04-.38.08-.65.13-.81.12-.32.31-.56.57-.73.26-.17.53-.26.81-.27.28,0,.56.06.83.21.27.15.49.38.65.68.04.09.08.17.13.25.05.08.08.16.08.25.02,2.32.02,4.61.01,6.87,0,2.26-.01,4.55-.01,6.87.07.11.13.19.19.27ZM500.17,291.73c.04-.05.1-.11.2-.16.1-.05.15-.12.15-.21v-2.19c0-.72,0-1.45-.03-2.19-.42-.09-.87-.14-1.33-.16-.46-.02-.91.03-1.34.13-.43.11-.83.28-1.19.53-.36.25-.65.6-.86,1.06-.11.34-.2.67-.29,1.01-.09.34-.14.66-.15.98,0,.32.03.63.12.94.09.31.24.61.45.89.07.07.15.14.25.21.1.07.29.19.57.37.65.05,1.28,0,1.87-.19.59-.18,1.12-.52,1.58-1.03Z"/>
    <path d="M518.82,293.19c.3.51.4.97.3,1.38-.1.41-.3.71-.6.92-.3.2-.67.28-1.1.24-.43-.04-.85-.27-1.26-.68-.42.3-.87.53-1.33.7-.46.17-.95.31-1.46.44-.8.18-1.56.16-2.29-.04-.73-.2-1.38-.53-1.95-.99-.57-.46-1.03-1.03-1.38-1.71-.35-.68-.55-1.42-.58-2.21-.05-.88.01-1.73.2-2.55.19-.81.48-1.56.89-2.23.41-.67.94-1.25,1.6-1.72s1.45-.81,2.35-1.01c.53-.11,1.07-.16,1.6-.16s1.07.04,1.6.13c-.02-.39-.03-.84-.04-1.34s-.01-.99-.01-1.47.02-.91.05-1.29c.04-.38.08-.65.13-.81.12-.32.31-.56.57-.73.26-.17.53-.26.81-.27.28,0,.56.06.84.21.27.15.49.38.65.68.04.09.08.17.13.25s.08.16.08.25c.02,2.32.02,4.61.01,6.87,0,2.26-.01,4.55-.01,6.87.07.11.13.19.19.27ZM515.13,291.73c.04-.05.1-.11.2-.16.1-.05.15-.12.15-.21v-2.19c0-.72,0-1.45-.03-2.19-.42-.09-.87-.14-1.33-.16-.46-.02-.91.03-1.34.13-.43.11-.83.28-1.19.53-.36.25-.65.6-.86,1.06-.11.34-.2.67-.29,1.01-.09.34-.14.66-.15.98,0,.32.03.63.12.94.09.31.24.61.45.89.07.07.15.14.25.21.1.07.29.19.57.37.65.05,1.28,0,1.87-.19.59-.18,1.12-.52,1.58-1.03Z"/>
    <path d="M525.6,293.67c.19.18.36.4.49.68.13.27.2.55.21.82,0,.27-.05.53-.19.77-.13.24-.37.42-.7.54-.27.09-.56.11-.88.05-.32-.05-.63-.16-.94-.32-.31-.16-.58-.35-.82-.57-.24-.22-.41-.46-.52-.73-.04-.09-.06-.19-.08-.3-.02-.11-.03-.22-.03-.3v-14.72c0-.41.15-.75.46-1.03.31-.28.65-.45,1.02-.5.18-.02.37,0,.57.08.2.07.39.17.57.3s.32.29.44.46c.11.18.17.36.17.56v1.83c0,.76,0,1.59.01,2.49,0,.9.01,1.83.01,2.8s0,1.89-.01,2.77c0,.88-.01,1.69-.01,2.43s0,1.32-.03,1.76l.24.13Z"/>
    <path d="M537.67,291.76c.42-.11.8-.11,1.13-.01.33.1.58.26.76.49.18.23.26.51.24.85-.02.34-.17.69-.45,1.06-.23.3-.55.56-.96.77s-.79.38-1.14.5c-.87.32-1.69.54-2.47.66-.78.12-1.51.12-2.19,0-.68-.12-1.32-.38-1.91-.77s-1.15-.94-1.66-1.64c-.35-.48-.61-1.02-.78-1.63-.17-.61-.26-1.23-.28-1.87s.04-1.26.16-1.88c.12-.62.3-1.18.53-1.67.3-.62.78-1.18,1.43-1.7.65-.51,1.38-.92,2.17-1.22.8-.3,1.61-.47,2.44-.52.83-.04,1.56.08,2.2.38.53.25.99.61,1.37,1.07.38.47.64.98.78,1.52.14.55.15,1.1.04,1.66-.12.56-.4,1.07-.86,1.52-.44.44-.93.8-1.46,1.07-.53.27-1.08.51-1.64.72-.57.2-1.14.38-1.74.52-.59.14-1.16.3-1.71.48.37.42.8.69,1.27.81.48.12.98.14,1.5.07.52-.07,1.05-.22,1.58-.44.53-.22,1.03-.46,1.49-.73l.16-.08ZM532.31,287.2c-.41.23-.71.52-.9.86s-.34.83-.42,1.45c.46-.14.98-.29,1.55-.45.57-.16,1.12-.33,1.63-.5.51-.18.95-.37,1.3-.58s.53-.44.53-.69c0-.14-.02-.28-.07-.41s-.14-.23-.28-.28c-.5-.18-1.01-.21-1.54-.11-.53.11-.97.26-1.33.45l-.48.27Z"/>
    <path d="M541.78,294.73c.05-.42.18-.78.38-1.07.2-.29.45-.51.74-.65.29-.14.6-.22.92-.23.32,0,.62.06.9.2.28.14.52.35.7.64.19.28.29.64.3,1.06.04.64-.14,1.13-.53,1.47-.39.34-.82.53-1.3.54-.48.02-.93-.13-1.37-.45-.43-.32-.69-.82-.76-1.51ZM542.05,280.09c.16-.42.38-.76.66-.99.28-.24.58-.37.89-.38.31-.02.61.08.9.28.29.2.53.53.7.97.04.92.07,1.79.09,2.6.03.81.04,1.6.05,2.36,0,.76,0,1.51-.01,2.25-.02.74-.04,1.5-.08,2.28-.02.55-.2.96-.54,1.23-.34.27-.72.4-1.11.38-.4-.02-.76-.17-1.09-.45-.33-.28-.49-.69-.49-1.22v-9.15l.03-.16Z"/>
  </g>
  <path d="M20.62,3.73S4.76.89,3.81,22.2c-.85,19.09-.69,113.79-1.34,129.98-.65,16.19,1.12,30.14.47,43.24-.65,13.11.05,86.41,1.35,97.98,1.3,11.56-4.46,31.53,3.01,32.3,7.47.77,57.73.46,70.08.46s58.15,2.47,72.44.93c14.29-1.54,38.86-.02,59.77-.39,9.86-.17,62.69.16,73.41.16s150.73-1.93,164.04-.77c13.32,1.16,50.79,2,65.73,1.23,14.94-.77,63.99-.61,68.54-1,4.55-.39,12.36-3.04,11.69-17.73-.99-21.95,3.14-79.64.54-91.2-2.6-11.56-.19-36.69.45-50.18.65-13.49,2.6-76.7,2.6-88.27s1.3-30.44,0-42.39,1.96-28.78-4.58-30.15c-14.79-3.11-37.3-3.31-49.64-2.92s-75.71-.46-90.66-.46-57.82-1.93-77.31-1.16c-19.49.77-73.27,1.34-85.61,2.11-12.34.77-42.57-1.07-54.91.47-12.34,1.54-39.45-1.08-53.02-.47-25.51,1.13-47.02.86-66.51.47-19.49-.39-41.69.46-50.81-.28-9.42-.77-42.92-.43-42.92-.43Z" fill="none" stroke="#576f96" stroke-miterlimit="10" stroke-width="2"/>
  <g>
    <circle cx="146.03" cy="20.28" r="4.3" fill="#6994ff"/>
    <circle cx="13.72" cy="124.97" r="4.3" fill="#6994ff"/>
    <circle cx="525.72" cy="54.23" r="4.3" fill="#6994ff"/>
    <circle cx="346.38" cy="36.25" r="4.3" fill="#6994ff"/>
    <path d="M550.82,4.4c-.23,2.36-1.95,3.8-4.32,3.8s-4.01-1.35-4.34-3.7c-.07-.49,2.2-.13,4.57-.13s4.11-.26,4.08.03Z" fill="#6994ff"/>
    <circle cx="575.51" cy="197.47" r="4.3" fill="#6994ff"/>
    <circle cx="396.55" cy="84.16" r="4.3" fill="#6994ff"/>
  </g>
</svg>