<?xml version="1.0" encoding="UTF-8"?>
<svg id="Layer_1" data-name="Layer 1" xmlns="http://www.w3.org/2000/svg" width="600" height="330" xmlns:xlink="http://www.w3.org/1999/xlink" viewBox="0 0 600 330">
  <defs>
    <linearGradient id="linear-gradient" x1="176.52" y1="225.5" x2="592.89" y2="225.5" gradientUnits="userSpaceOnUse">
      <stop offset="0" stop-color="#fffa3b"/>
      <stop offset=".03" stop-color="#fffa3b" stop-opacity=".96"/>
      <stop offset=".19" stop-color="#fffa3b" stop-opacity=".79"/>
      <stop offset=".35" stop-color="#fffa3b" stop-opacity=".65"/>
      <stop offset=".51" stop-color="#fffa3b" stop-opacity=".54"/>
      <stop offset=".68" stop-color="#fffa3b" stop-opacity=".46"/>
      <stop offset=".84" stop-color="#fffa3b" stop-opacity=".42"/>
      <stop offset="1" stop-color="#fffa3b" stop-opacity=".4"/>
    </linearGradient>
  </defs>
  <path d="M20.62,3.73S4.76.89,3.81,22.2c-.85,19.09-.69,113.79-1.34,129.98-.65,16.19,1.12,30.14.47,43.24-.65,13.11.05,86.41,1.35,97.98,1.3,11.56-4.46,31.53,3.01,32.3,7.47.77,57.73.46,70.08.46s58.15,2.47,72.44.93c14.29-1.54,38.86-.02,59.77-.39,9.86-.17,62.69.16,73.41.16s150.73-1.93,164.04-.77c13.32,1.16,50.79,2,65.73,1.23,14.94-.77,63.99-.61,68.54-1,4.55-.39,12.36-3.04,11.69-17.73-.99-21.95,3.14-79.64.54-91.2-2.6-11.56-.19-36.69.45-50.18.65-13.49,2.6-76.7,2.6-88.27s1.3-30.44,0-42.39,1.96-28.78-4.58-30.15c-14.79-3.11-37.3-3.31-49.64-2.92s-75.71-.46-90.66-.46-57.82-1.93-77.31-1.16c-19.49.77-73.27,1.34-85.61,2.11-12.34.77-42.57-1.07-54.91.47-12.34,1.54-39.45-1.08-53.02-.47-25.51,1.13-47.02.86-66.51.47-19.49-.39-41.69.46-50.81-.28-9.42-.77-42.92-.43-42.92-.43Z" fill="#1d253a"/>
  <g>
    <rect x="201.85" y="270.29" width="354.35" height="37.37" rx="18.68" ry="18.68" fill="#fff"/>
    <path d="M546.47,276.68s18.44-3.29,25.23-.53l-22.36,14.62-2.87-14.09Z" fill="#fff"/>
  </g>
  <path d="M96.07,140.38s-16.09,6.03-24.94,7.64c-8.85,1.61-27.76,20.52-18.5,40.23,9.25,19.71,9.25,27.35,17.3,32.58,8.05,5.23,20.11,16.9,22.93,23.33s6.84,14.08,10.86,17.7c4.02,3.62,12.47,7.24,18.5,8.05,6.03.8,16.09,5.63,31.38,2.82,15.29-2.82,27.35-6.84,31.38-12.07,4.02-5.23,11.67-10.46,14.48-15.69,2.82-5.23,10.46-17.7,13.27-20.52,2.82-2.82,9.25-18.5,9.25-20.92s8.05-17.7,9.65-20.11c1.61-2.41,6.03-16.9,4.42-24.14-1.61-7.24-5.63-18.1-22.93-24.94-17.3-6.84-47.47-6.44-47.47-6.44,0,0-49.57,4.96-69.59,12.47Z" fill="#2b3751"/>
  <path d="M235.25,171.12s-7.65,15.52-12.07,18.34c-4.42,2.82-9.25,6.84-10.86,10.46s-12.07,10.06-17.7,13.27c-5.63,3.22-20.11,5.23-28.56,9.25-8.45,4.02-20.92,1.61-24.54.8-3.62-.8-22.93-2.41-29.77-1.61-6.84.8-23.33-1.21-25.74-5.23-2.41-4.02-11.67-11.67-19.31-17.7-7.64-6.03-16.09-21.32-16.09-21.32,0,0-2.06-22.25,19.18-29,21.24-6.75,43.13-10.7,47.25-12.68,4.12-1.98,37.86-7.9,60.58-6.91,22.72.99,38.19,2.14,46.75,12.35,8.56,10.21,13.22,13.7,10.89,29.98Z" fill="#576f96"/>
  <path d="M100.3,153.22c-7.85-14.05-10.59-47.63,26.45-48.58l55.01,31.25s18.75,8.75,7.5,30c-11.25,21.25-28.75,8.75-28.75,8.75l-48.35-12.55-.88-.08c-5.1-.46-8.48-4.33-10.98-8.8Z" fill="#2b3751"/>
  <path d="M174.51,177.99c-4.22,1.01-24.33-6.18-13.21-29.3,9.48-19.71,23.95-10.36,23.95-10.36,0,0,13.01,6.84,7.18,20.26-8.23,18.93-17.92,19.4-17.92,19.4Z" fill="#435577"/>
  <line x1="177.26" y1="156.8" x2="592.14" y2="294.21" fill="none" stroke="url(#linear-gradient)" stroke-linecap="round" stroke-miterlimit="10" stroke-width="1.5"/>
  <g>
    <rect x="29.98" y="55.77" width="292.27" height="37.37" rx="18.68" ry="18.68" fill="#fff"/>
    <path d="M80,91s12.67,13.8,19.74,15.72l-8.91-25.18-10.83,9.46Z" fill="#fff"/>
  </g>
  <text transform="translate(40.49 82.78)" font-family="ChalkboardSE-Bold, &apos;Chalkboard SE&apos;" font-size="24" font-weight="700"><tspan x="0" y="0">Huh! B</tspan><tspan x="73.59" y="0" letter-spacing="-.06em">u</tspan><tspan x="85.34" y="0">t th</tspan><tspan x="131.88" y="0" letter-spacing="-.07em">a</tspan><tspan x="143.63" y="0">t</tspan><tspan x="155.14" y="0" letter-spacing="-.19em">’</tspan><tspan x="157.79" y="0" letter-spacing="0em">s </tspan><tspan x="178.6" y="0" letter-spacing="-.04em">t</tspan><tspan x="189.05" y="0" letter-spacing=".04em">o</tspan><tspan x="202.21" y="0" letter-spacing="0em">o </tspan><tspan x="224.38" y="0" letter-spacing="-.03em">f</tspan><tspan x="234.53" y="0" letter-spacing="-.01em">a</tspan><tspan x="247.58" y="0">r!</tspan></text>
  <g>
    <rect x="292.93" y="202.75" width="275.78" height="37.37" rx="18.68" ry="18.68" fill="#fff"/>
    <path d="M552.99,237.74s15.71,10.2,23.04,10.29l-14.92-22.16-8.12,11.86Z" fill="#fff"/>
  </g>
  <text transform="translate(309.02 228.27)" font-family="ChalkboardSE-Bold, &apos;Chalkboard SE&apos;" font-size="24" font-weight="700"><tspan x="0" y="0" letter-spacing="-.02em">J</tspan><tspan x="13.15" y="0" letter-spacing=".03em">u</tspan><tspan x="27.05" y="0" letter-spacing="-.05em">s</tspan><tspan x="36.78" y="0">t </tspan><tspan x="58.24" y="0" letter-spacing="-.03em">f</tspan><tspan x="68.39" y="0">o</tspan><tspan x="80.62" y="0" letter-spacing="-.02em">l</tspan><tspan x="87.99" y="0" letter-spacing="-.04em">l</tspan><tspan x="94.81" y="0" letter-spacing=".02em">o</tspan><tspan x="107.61" y="0">w the </tspan><tspan x="183.56" y="0" letter-spacing="-.05em">s</tspan><tspan x="193.3" y="0">t</tspan><tspan x="204.81" y="0" letter-spacing=".03em">r</tspan><tspan x="216.47" y="0">i</tspan><tspan x="223" y="0" letter-spacing=".02em">n</tspan><tspan x="236.15" y="0" letter-spacing="0em">g</tspan></text>
  <text transform="translate(214.51 295.31)" font-family="ChalkboardSE-Bold, &apos;Chalkboard SE&apos;" font-size="24" font-weight="700"><tspan x="0" y="0">A</tspan><tspan x="16.02" y="0" letter-spacing=".05em">n</tspan><tspan x="29.89" y="0">d </tspan><tspan x="54.23" y="0" letter-spacing="-.06em">l</tspan><tspan x="60.65" y="0" letter-spacing="-.04em">e</tspan><tspan x="72.74" y="0">t</tspan><tspan x="84.25" y="0" letter-spacing="-.19em">’</tspan><tspan x="86.9" y="0" letter-spacing="0em">s </tspan><tspan x="107.72" y="0" letter-spacing=".02em">m</tspan><tspan x="126.52" y="0">e</tspan><tspan x="139.68" y="0" letter-spacing="-.04em">e</tspan><tspan x="151.77" y="0">t in the </tspan><tspan x="250.66" y="0" letter-spacing=".02em">m</tspan><tspan x="269.25" y="0" letter-spacing=".04em">i</tspan><tspan x="276.62" y="0" letter-spacing=".02em">d</tspan><tspan x="291.58" y="0">d</tspan><tspan x="305.98" y="0" letter-spacing="-.06em">l</tspan><tspan x="312.39" y="0" letter-spacing="0em">e!</tspan></text>
  <path d="M20.62,3.73S4.76.89,3.81,22.2c-.85,19.09-.69,113.79-1.34,129.98-.65,16.19,1.12,30.14.47,43.24-.65,13.11.05,86.41,1.35,97.98,1.3,11.56-4.46,31.53,3.01,32.3,7.47.77,57.73.46,70.08.46s58.15,2.47,72.44.93c14.29-1.54,38.86-.02,59.77-.39,9.86-.17,62.69.16,73.41.16s150.73-1.93,164.04-.77c13.32,1.16,50.79,2,65.73,1.23,14.94-.77,63.99-.61,68.54-1,4.55-.39,12.36-3.04,11.69-17.73-.99-21.95,3.14-79.64.54-91.2-2.6-11.56-.19-36.69.45-50.18.65-13.49,2.6-76.7,2.6-88.27s1.3-30.44,0-42.39,1.96-28.78-4.58-30.15c-14.79-3.11-37.3-3.31-49.64-2.92s-75.71-.46-90.66-.46-57.82-1.93-77.31-1.16c-19.49.77-73.27,1.34-85.61,2.11-12.34.77-42.57-1.07-54.91.47-12.34,1.54-39.45-1.08-53.02-.47-25.51,1.13-47.02.86-66.51.47-19.49-.39-41.69.46-50.81-.28-9.42-.77-42.92-.43-42.92-.43Z" fill="none" stroke="#576f96" stroke-miterlimit="10" stroke-width="2"/>
  <g>
    <circle cx="146.03" cy="20.28" r="4.3" fill="#6994ff"/>
    <circle cx="13.72" cy="124.97" r="4.3" fill="#6994ff"/>
    <circle cx="525.72" cy="54.23" r="4.3" fill="#6994ff"/>
    <circle cx="346.38" cy="36.25" r="4.3" fill="#6994ff"/>
    <path d="M550.82,4.4c-.23,2.36-1.95,3.8-4.32,3.8s-4.01-1.35-4.34-3.7c-.07-.49,2.2-.13,4.57-.13s4.11-.26,4.08.03Z" fill="#6994ff"/>
    <circle cx="575.51" cy="197.47" r="4.3" fill="#6994ff"/>
    <circle cx="396.55" cy="84.16" r="4.3" fill="#6994ff"/>
  </g>
</svg>