<?xml version="1.0" encoding="UTF-8"?>
<svg id="Layer_1" data-name="Layer 1" xmlns="http://www.w3.org/2000/svg" width="600" height="330" xmlns:xlink="http://www.w3.org/1999/xlink" viewBox="0 0 600 330">
  <defs>
    <linearGradient id="linear-gradient" x1="134.93" y1="236.6" x2="483.42" y2="236.6" gradientUnits="userSpaceOnUse">
      <stop offset="0" stop-color="#fffa3b"/>
      <stop offset=".03" stop-color="#fffa3b" stop-opacity=".96"/>
      <stop offset=".19" stop-color="#fffa3b" stop-opacity=".79"/>
      <stop offset=".35" stop-color="#fffa3b" stop-opacity=".65"/>
      <stop offset=".51" stop-color="#fffa3b" stop-opacity=".54"/>
      <stop offset=".68" stop-color="#fffa3b" stop-opacity=".46"/>
      <stop offset=".84" stop-color="#fffa3b" stop-opacity=".42"/>
      <stop offset="1" stop-color="#fffa3b" stop-opacity=".4"/>
    </linearGradient>
  </defs>
  <path d="M22.3,4.06S6.44,1.22,5.49,22.52c-.85,19.09-.69,113.79-1.34,129.98-.65,16.19,1.12,30.14.47,43.24-.65,13.11.05,86.41,1.35,97.98,1.3,11.56-4.46,31.53,3.01,32.3,7.47.77,57.73.46,70.08.46s58.15,2.47,72.44.93c14.29-1.54,38.86-.02,59.77-.39,9.86-.17,62.69.16,73.41.16s150.73-1.93,164.04-.77c13.32,1.16,50.79,2,65.73,1.23,14.94-.77,63.99-.61,68.54-1,4.55-.39,12.36-3.04,11.69-17.73-.99-21.95,3.14-79.64.54-91.2-2.6-11.56-.19-36.69.45-50.18.65-13.49,2.6-76.7,2.6-88.27s1.3-30.44,0-42.39c-1.3-11.95,1.96-28.78-4.58-30.15-14.79-3.11-37.3-3.31-49.64-2.92s-75.71-.46-90.66-.46-57.82-1.93-77.31-1.16c-19.49.77-73.27,1.34-85.61,2.11-12.34.77-42.57-1.07-54.91.47-12.34,1.54-39.45-1.08-53.02-.47-25.51,1.13-47.02.86-66.51.47-19.49-.39-41.69.46-50.81-.28-9.42-.77-42.92-.43-42.92-.43Z" fill="#1d253a"/>
  <g>
    <path d="M589.72,217.13c-3.88-2.4-7.86-4.66-11.92-6.75-10.4-5.36-20.79-4.46-30.92.71-4.87,2.48-9.73,5.12-14.16,8.29-8.8,6.3-18.78,7.28-29.11,8.09-9.01.7-18.04-.95-26.93.41-9.21,1.42-15.96,6.62-19.78,15.35-1.6,3.67-.54,6.65,2.02,9.34,4.38,4.6,10.08,6.98,15.83,9.2,3.09,1.2,6.37,1.95,8.73,4.52" fill="none" stroke="#2b3751" stroke-miterlimit="10" stroke-width="2"/>
    <path d="M567.5,271.52c-3.74,2.69-7.63,1.53-11.18-.07-9.74-4.39-15.1-12.2-16.45-22.73-1.02-7.94-4.62-12-12.35-13.84-11.68-2.78-19.02,2.86-23.16,12.72-1.67,3.97-3.36,7.93-4.82,11.97-.9,2.49-2.41,3.96-4.88,4.9-2.59.98-5.2,1.82-7.86,2.59-2.22.65-4.33,1.14-6.36-.41-1.81-1.38-4.06-.95-5.98-1.01-15.85-.46-29.73-6.26-42.59-15.05-4.97-3.4-10.13-6.28-16.03-7.96-4.27-1.22-8.33-.45-12.35.2-11.25,1.82-22.47,2.49-33.63-.16-5.82-1.38-11.49-3.36-17.2-5.18-10.52-3.36-19.81-1.43-28.45,5.56-9.97,8.07-20.03,16.06-30.96,22.85-6.55,4.07-13.08,8.18-20.93,9.32-.1.02-.3-.36-.36-.34-14.37,5.77-34.2,10.76-50.82,11.16-7.59.15-15.23-.46-22.78.18-5.71.48-10.78-1.2-16.09-2.36-1.81-.39-3.73-.32-5.6-.41-3.75-.19-6.41-2.73-9.29-4.57-4.31-2.76-5.12-7.5-6.1-12.23-2.95-14.2-9.81-25.96-21.94-34.43-6.59-4.6-13.9-6.98-21.7-8.16-6.81-1.03-13.61-2.12-20.55-1.18-2.59.35-4.99-.4-6.72-2.58-2.37-2.99-4.66-6.04-7.11-8.96-10.32-12.29-23.95-17.82-39.6-18.62-9.2-.47-18.29.74-26.91,4.38-.42.18-.99.04-1.48.02-4.52-.18-8.11,1.74-11.22,4.85" fill="none" stroke="#2b3751" stroke-miterlimit="10" stroke-width="2"/>
    <path d="M586.62,117.01c-2.41,3.62-6.7,4.33-10.45,5.57-9.45,3.13-18.87,1.37-28.39-.22-11.27-1.88-20.95-6.9-30.28-13.13-6.71-4.48-14.1-7.71-22.37-6.67-7.16.9-14.22,2.59-21.31,4.03-6.06,1.22-12.15,2.17-18.31,2.6-.5.03-1.07.17-1.48-.02-5.58-2.57-10.74.56-16.08,1.15" fill="none" stroke="#2b3751" stroke-miterlimit="10" stroke-width="2"/>
    <path d="M291.69,3.89c-1.97.93-3.77.46-5.65.64-8.66.85-17.22,1.86-24.7,7.06-3.19,2.22-5.69,4.84-7.44,8.27-3.85,7.56-.16,13.84,8.6,14.96,1,.13,2.15.32,2.98.24,4.28-.44,6.19,2.11,7.88,5.35,2.16,4.15,4.56,8.15,7.81,11.61,9.2,9.79,20.93,14.8,33.65,17.9,9.37,2.29,18.94,2.06,28.38,1.04,14.51-1.57,28.9-2.49,43.36.42,9.93,2,18.58,6.63,26.86,12.06,7.46,4.9,15.1,9.34,23.56,12.31,2.96,1.04,3.68,3.83,2.69,6.72-2.14,6.19-6.38,8.71-12.77,8.6-18.82-.3-32.32,9.35-43.34,23.51-2.23,2.87-4.69,5.6-6.68,8.63-2.89,4.4-7.11,6.03-12,6.71-7.79,1.07-15.53,2.43-22.78,5.61-12.02,5.28-23.7,11.09-31,22.78-1.27,2.03-2.36,4.18-3.36,6.35-1.28,2.78-3.35,3.92-6.38,3.75-3.86-.22-7.72-.3-11.58-.39-10.96-.26-20.56,3.48-29.13,10.1-3.3,2.54-6.58,5.11-9.7,7.86-5.14,4.52-10.83,6.23-17.59,4.48-14.31-3.7-28.14-1.47-41.86,3.29-13.57,4.7-26.11,11.08-37.01,20.56-2.4,2.09-4.83,3.96-4.82,7.51" fill="none" stroke="#2b3751" stroke-miterlimit="10" stroke-width="2"/>
    <path d="M162.02,5.7c4.12,1.79,8.71,2.48,13.03,3.85,10.81,3.45,20.26,8.58,26.28,18.96,3.17,5.48,4.72,11.28,5.79,17.27,1.54,8.6,6.63,13.59,14.61,16.5,6.7,2.44,13.51,4.58,20.24,6.92,16.94,5.88,26.62,17.81,30.56,34.87.69,3,1.67,5.88,3.07,8.56,3.04,5.79,8.74,7.19,14.53,8.22,3.35.6,6.77.81,10.08,1.55,10.48,2.36,17.13,8.95,20.58,19.01,1.18,3.43,1.94,7.05,4.09,10.09" fill="none" stroke="#2b3751" stroke-miterlimit="10" stroke-width="2"/>
    <path d="M470.72,303.65c-3.02,2.45-6.74,1.43-10.1,1.76-12.46,1.23-22.93,6.75-32.48,14.33" fill="none" stroke="#2b3751" stroke-miterlimit="10" stroke-width="2"/>
    <path d="M141.62,271.7c-3.87.45-7.58,2.14-11.58,1.49-5.08-.83-9.8-2.4-13.47-6.33-3.55-3.79-7.85-4.68-13.07-4.23-22.42,1.91-42.52-4.51-60.52-17.83-4.29-3.18-8.46-6.78-13.84-7.75" fill="none" stroke="#2b3751" stroke-miterlimit="10" stroke-width="2"/>
    <path d="M19.48,86.34c5.73,8.88,13.94,13.22,24.61,12.34,4.94-.41,9.48-1.8,13.11-5.56,4.38-4.54,9.33-8.26,15.65-9.79,1.2-.29,2.25-1.2,3.37-1.82" fill="none" stroke="#2b3751" stroke-miterlimit="10" stroke-width="2"/>
    <path d="M101.03,281.5c.02,2.39,1.34,4.07,2.99,5.61,7.58,7.07,13.28,15.55,17.09,25.07" fill="none" stroke="#2b3751" stroke-miterlimit="10" stroke-width="2"/>
    <path d="M591.84,315.37c-3.42-2.98-8.24-5.16-12.39-5.44-8.8-.6-17.05,1.93-25.39,3.91-3.03.72-5.28.51-7.92-1.15-4.81-3.01-9.6-6.07-14.87-8.36-10.63-4.62-20.37-1.77-29.89,3.11-2.43,1.25-4.39,3.41-6.79,4.73-2.12,1.17-4.14,1.91-6.8-.17-3.96-3.1-8.53-5.44-13.32-7.3-5.08-1.97-9.03-5.88-13.38-9.03-3.17-2.29-3.21-7.54-.82-10.69,4.58-6.02,9.98-11.02,17.54-13.1,2.13-.58,3.49-2.16,4.86-3.74" fill="none" stroke="#2b3751" stroke-miterlimit="10" stroke-width="2"/>
  </g>
  <path d="M82.55,142.13s4.45,12.73,9.85,16.54c5.65,4,26.52,12.98,31.81,11.86,6.52-1.38,21.93-6.52,23.71-30.43,2.14-28.83-53.58-27.23-65.37,2.03Z" fill="#2b3751"/>
  <path d="M82.38,143.54c-2.45-6.91-2.71-13.79-1.04-19.97.6-2.21,2.8-4.15,3.88-6.15,1.16-2.14,1.22-4.34,2.91-6.18,3.49-3.81,5.68-6.28,11.29-8.11,13.56-4.43,19.47,3.95,23.49,4.69,3.26.6,5.82,1.12,7.72,2.05,1.85.91.71,1.06,3.98,2.99,1.94,1.14,3.16,2.81,5.46,5.96,1.69,2.31,4.04,4.39,4.66,6.13,2.97,8.36,2.93,14.62.48,20.81-2.68,6.77-8.59,13.42-17.87,16.71s-18.93-1.54-27.13-5.94c-7.08-3.8-14.97-4.87-17.85-12.99Z" fill="#576f96"/>
  <path d="M139.25,135.42l-35.42-22.92-13.61,24.86,38.57,16.49c.79.34,2.24,1.25,3.86.21,4.47-2.87,7.84-11.09,8.08-14.61.24-3.57-.74-3.55-1.48-4.03Z" fill="#2b3751"/>
  <ellipse cx="96.43" cy="124.37" rx="14.81" ry="3.56" transform="translate(-58.74 150.65) rotate(-61.83)" fill="#2b3751"/>
  <path d="M134.11,144.45c-2.83,5.58-3.74,8.97-2.72,9.49s3.36-1.96,6.4-7.2c2.58-4.44,3.21-9.14,2.2-9.66-1.01-.52-3.56,2.78-5.88,7.37Z" fill="#435577"/>
  <line x1="135.67" y1="145.49" x2="482.67" y2="327.7" fill="none" stroke="url(#linear-gradient)" stroke-linecap="round" stroke-miterlimit="10" stroke-width="1.5"/>
  <g>
    <rect x="130.15" y="258.36" width="411.12" height="37.37" rx="18.68" ry="18.68" fill="#fff"/>
    <path d="M530.9,286.95s17.34,7.09,24.56,5.81l-18.79-18.99-5.77,13.17Z" fill="#fff"/>
  </g>
  <g>
    <rect x="125.58" y="60.57" width="327.48" height="37.37" rx="18.68" ry="18.68" fill="#fff"/>
    <path d="M158.78,97.08s-15.38,10.69-22.7,11.02l11.73-17.75,10.97,6.74Z" fill="#fff"/>
    <rect x="25.63" y="32.17" width="507.5" height="37.37" rx="18.68" ry="18.68" fill="#fff"/>
  </g>
  <g>
    <path d="M57.27,49.43c.42.12.74.35.95.68.21.33.31.67.31,1.02,0,.35-.12.69-.33.99-.21.31-.52.51-.93.6v4.61c0,.44-.11.84-.33,1.18-.22.34-.49.59-.81.73-.32.14-.65.17-1.01.09-.35-.08-.67-.31-.95-.7-.12-.18-.21-.38-.25-.61-.04-.23-.07-.44-.07-.64v-4.59h-6.18v4.51c0,.19-.02.39-.05.6-.04.2-.1.38-.19.54-.23.42-.52.7-.88.82-.35.12-.7.12-1.03-.01-.34-.13-.62-.36-.86-.69s-.36-.73-.36-1.21v-13.71c0-.46.14-.86.41-1.19.27-.34.59-.57.94-.7.35-.13.71-.14,1.07-.03.36.12.63.39.81.84.05.14.09.27.11.38.02.11.03.24.03.38v5.99h6.18v-5.68c0-.35.08-.69.24-1.01.19-.39.47-.66.84-.82s.72-.2,1.06-.13c.34.07.65.24.9.52.26.27.38.65.38,1.13v6.1Z"/>
    <path d="M71.51,57.31c.14.51.11.94-.08,1.27-.19.34-.46.56-.81.68-.34.11-.72.1-1.13-.04-.41-.14-.76-.42-1.06-.85-.5.37-.98.63-1.45.78-.47.15-1,.23-1.6.25-.9.04-1.71-.07-2.41-.3-.71-.24-1.3-.6-1.79-1.07-.49-.48-.84-1.07-1.07-1.79-.23-.72-.31-1.54-.24-2.48.04-.39.1-.77.2-1.14.1-.37.21-.73.33-1.09.14-.39.34-.8.6-1.25.26-.44.52-.82.78-1.14.95-1.17,2.15-2.01,3.58-2.52.25-.09.58-.17,1.01-.24.42-.07.85-.1,1.29-.09.43,0,.85.07,1.25.17.4.11.69.29.89.56.16.21.27.4.34.56.07.16.11.33.12.5,0,.18,0,.37,0,.57,0,.2-.01.46-.01.76,0,.5,0,.98-.01,1.45,0,.47,0,.94.01,1.42v.62c0,.26,0,.53.03.81.02.28.04.55.07.81.03.26.07.46.12.62l1.06,2.17ZM65.89,56.11c.19-.12.42-.26.66-.41.25-.15.47-.32.66-.52-.16-.94-.25-1.87-.28-2.81-.03-.94-.02-1.88.01-2.84-.8.14-1.51.49-2.15,1.03-.64.55-1.08,1.19-1.33,1.94-.11.3-.19.61-.27.93-.07.32-.1.63-.08.93.02.41.12.75.32,1.02.19.27.43.48.7.62.27.14.57.22.88.24.31.02.6-.03.86-.13Z"/>
    <path d="M76.15,59.02c-.35.26-.72.38-1.1.36-.38-.02-.72-.17-1.01-.46-.29-.29-.44-.69-.44-1.21v-14.74c0-.41.16-.75.48-1.03.32-.28.67-.46,1.06-.53.39-.07.75,0,1.09.19.34.19.52.56.56,1.09.07.92.1,1.82.09,2.69,0,.88-.02,1.75-.04,2.64.65-.44,1.33-.74,2.04-.89.71-.15,1.39-.15,2.04.01.65.16,1.26.48,1.83.95s1.03,1.14,1.38,1.99c.25.57.42,1.17.5,1.82.09.65.14,1.3.15,1.96,0,.66,0,1.32-.03,1.98-.03.65-.04,1.27-.04,1.86,0,.37-.1.71-.29,1.01-.19.3-.44.52-.73.66-.29.14-.6.19-.93.13-.33-.05-.62-.25-.89-.58-.27-.35-.43-.77-.49-1.25-.06-.48-.08-.99-.05-1.52.03-.54.07-1.09.12-1.66.05-.57.07-1.11.04-1.63-.03-.52-.13-1-.31-1.45-.18-.44-.49-.8-.93-1.09-.35-.05-.67-.03-.95.07-.28.1-.54.24-.77.44-.23.19-.45.42-.65.66-.2.25-.41.5-.62.74-.05.09-.12.17-.19.25-.07.08-.15.16-.24.25v5.04c-.11.58-.34,1-.69,1.26Z"/>
    <path d="M98.48,57.31c.14.51.11.94-.08,1.27-.19.34-.46.56-.81.68-.35.11-.72.1-1.13-.04-.41-.14-.76-.42-1.06-.85-.5.37-.98.63-1.45.78-.47.15-1,.23-1.6.25-.9.04-1.71-.07-2.41-.3-.71-.24-1.3-.6-1.79-1.07s-.84-1.07-1.07-1.79c-.23-.72-.31-1.54-.24-2.48.04-.39.1-.77.2-1.14.1-.37.21-.73.33-1.09.14-.39.34-.8.6-1.25.26-.44.52-.82.78-1.14.96-1.17,2.15-2.01,3.58-2.52.25-.09.58-.17,1.01-.24.42-.07.85-.1,1.29-.09.43,0,.85.07,1.25.17.4.11.69.29.89.56.16.21.27.4.34.56.07.16.11.33.12.5,0,.18,0,.37,0,.57,0,.2-.01.46-.01.76,0,.5,0,.98-.01,1.45,0,.47,0,.94.01,1.42v.62c0,.26,0,.53.03.81.02.28.04.55.07.81.03.26.07.46.12.62l1.06,2.17ZM92.86,56.11c.19-.12.42-.26.66-.41.25-.15.47-.32.66-.52-.16-.94-.25-1.87-.28-2.81-.03-.94-.02-1.88.01-2.84-.8.14-1.51.49-2.15,1.03-.64.55-1.08,1.19-1.33,1.94-.11.3-.19.61-.27.93-.07.32-.1.63-.08.93.02.41.12.75.32,1.02.19.27.43.48.7.62.27.14.57.22.88.24.31.02.6-.03.86-.13Z"/>
    <path d="M102.3,55.79c.21-.35.48-.59.8-.72.32-.12.64-.15.96-.09.32.06.6.22.83.46.24.25.38.57.41.98.04.28-.01.55-.15.8-.13.25-.25.5-.36.74-.27.58-.53,1.17-.81,1.76-.27.59-.57,1.16-.89,1.71-.19.34-.45.56-.77.68-.32.11-.64.14-.96.07-.32-.07-.6-.23-.84-.48-.24-.25-.37-.57-.38-.95l2.15-4.96Z"/>
    <path d="M129.01,57.31c.14.51.11.94-.08,1.27-.19.34-.46.56-.81.68-.34.11-.72.1-1.13-.04-.41-.14-.76-.42-1.06-.85-.5.37-.98.63-1.45.78-.47.15-1,.23-1.6.25-.9.04-1.71-.07-2.41-.3-.71-.24-1.3-.6-1.79-1.07-.49-.48-.84-1.07-1.07-1.79-.23-.72-.31-1.54-.24-2.48.04-.39.1-.77.2-1.14.1-.37.21-.73.33-1.09.14-.39.34-.8.6-1.25.26-.44.52-.82.78-1.14.95-1.17,2.15-2.01,3.58-2.52.25-.09.58-.17,1.01-.24.42-.07.85-.1,1.29-.09.43,0,.85.07,1.25.17.4.11.69.29.89.56.16.21.27.4.34.56.07.16.11.33.12.5,0,.18,0,.37,0,.57,0,.2-.01.46-.01.76,0,.5,0,.98-.01,1.45,0,.47,0,.94.01,1.42v.62c0,.26,0,.53.03.81.02.28.04.55.07.81.03.26.07.46.12.62l1.06,2.17ZM123.38,56.11c.19-.12.42-.26.66-.41.25-.15.47-.32.66-.52-.16-.94-.25-1.87-.28-2.81-.03-.94-.02-1.88.01-2.84-.8.14-1.51.49-2.15,1.03-.64.55-1.08,1.19-1.33,1.94-.11.3-.2.61-.27.93-.07.32-.1.63-.08.93.02.41.12.75.32,1.02.19.27.43.48.7.62.27.14.57.22.88.24.31.02.6-.03.86-.13Z"/>
    <path d="M131.26,50.29c.02-.11,0-.32-.03-.62-.28-.16-.5-.36-.66-.61-.16-.25-.25-.51-.28-.8-.03-.28.03-.55.16-.81.13-.26.35-.47.65-.65.41-.23.85-.27,1.34-.13.49.14.91.35,1.26.64.44-.34.9-.62,1.38-.85.48-.23.96-.38,1.46-.46.49-.08,1-.07,1.51.04.51.11,1.02.33,1.51.66.25.16.48.36.69.6.21.24.34.51.4.81.09.44.05.83-.11,1.15-.16.33-.38.57-.66.72-.28.15-.6.19-.95.13-.35-.06-.69-.25-1.01-.57-.11-.07-.18-.13-.23-.17-.04-.04-.14-.1-.28-.17-.28-.07-.56-.05-.83.05-.27.11-.54.25-.8.44-.26.19-.5.39-.72.61-.22.22-.42.42-.6.6v6.76c0,.27-.05.52-.16.77-.16.41-.41.69-.76.85s-.69.2-1.03.13c-.34-.07-.65-.25-.9-.53-.26-.28-.38-.65-.38-1.09v-7.43c0,.07,0,.05.03-.07Z"/>
    <path d="M150.59,54.92c.42-.11.8-.11,1.13-.01.33.1.58.26.76.49.18.23.26.51.24.85-.02.34-.17.69-.45,1.06-.23.3-.55.56-.95.77s-.79.38-1.14.5c-.87.32-1.69.54-2.47.66-.78.12-1.51.12-2.19,0-.68-.12-1.32-.38-1.91-.77-.59-.39-1.15-.94-1.66-1.64-.35-.48-.61-1.02-.78-1.63-.17-.61-.26-1.23-.28-1.87-.02-.64.04-1.26.16-1.88.12-.62.3-1.18.53-1.67.3-.62.78-1.18,1.43-1.7.65-.51,1.38-.92,2.17-1.22.8-.3,1.61-.47,2.44-.52.83-.04,1.56.08,2.2.38.53.25.99.61,1.37,1.07.38.47.64.98.78,1.52.14.55.15,1.1.04,1.66s-.4,1.07-.86,1.52c-.44.44-.93.8-1.46,1.07-.53.27-1.08.51-1.64.72-.57.2-1.15.38-1.74.52-.59.14-1.16.3-1.71.48.37.42.8.69,1.27.81.48.12.98.14,1.5.07.52-.07,1.05-.22,1.58-.44.53-.22,1.02-.46,1.48-.73l.16-.08ZM145.23,50.36c-.41.23-.71.52-.9.86-.19.34-.34.83-.42,1.45.46-.14.98-.29,1.55-.45.57-.16,1.12-.33,1.63-.5.51-.18.95-.37,1.3-.58.35-.21.53-.44.53-.69,0-.14-.02-.28-.07-.41-.04-.13-.14-.23-.28-.28-.5-.18-1.01-.21-1.54-.11s-.97.26-1.33.45l-.48.27Z"/>
    <path d="M164.75,57.78c-.05.44-.22.8-.49,1.09-.27.28-.58.46-.93.53-.34.07-.68.03-.99-.13-.32-.16-.55-.47-.69-.93-.16-.49-.22-1.01-.19-1.55.04-.54.05-1.04.05-1.5,0-.95,0-1.91.01-2.85,0-.95-.03-1.9-.12-2.85-.02-.04-.04-.07-.05-.09-.02-.03-.05-.07-.11-.12-.41-.11-.84-.08-1.3.08-.46.16-.85.36-1.17.61-.28.23-.56.54-.84.94-.27.4-.41.78-.41,1.15v3.66c0,.28,0,.59.03.93.02.34,0,.66-.04.98-.04.32-.15.61-.31.88-.16.27-.42.46-.77.58-.19.07-.38.1-.54.08-.17-.02-.35-.06-.54-.13-.32-.11-.55-.29-.69-.54-.14-.26-.24-.53-.29-.82-.05-.29-.08-.57-.07-.85,0-.27.01-.49.01-.65,0-.41,0-.99-.01-1.76,0-.77-.01-1.58-.01-2.43v-4.19c0-.39.12-.71.34-.97.23-.26.5-.42.81-.5.31-.08.64-.06.98.05s.63.35.86.7c.71-.46,1.48-.77,2.33-.93s1.65-.13,2.4.08,1.38.61,1.88,1.19.76,1.39.78,2.41c0,.04,0,.14.03.32.02.18.03.42.03.74v6.79Z"/>
    <path d="M167.06,39.75c.21-.35.48-.59.8-.72.32-.12.63-.15.94-.09.31.06.58.22.82.46.24.25.38.57.41.98.02.27-.02.55-.12.85-.1.3-.22.6-.37.9-.15.3-.31.59-.48.88-.17.28-.31.53-.41.74-.14.28-.27.56-.38.84-.12.27-.25.54-.41.81-.25.44-.57.69-.97.76-.4.06-.77,0-1.11-.16-.34-.17-.61-.43-.8-.78-.19-.35-.19-.73-.01-1.14.09-.35.24-.72.45-1.09.21-.37.4-.72.56-1.03.18-.35.34-.7.5-1.03.16-.34.32-.67.48-1.01l.11-.16Z"/>
    <path d="M170.64,49.64c-.35-.09-.66-.24-.91-.45-.26-.21-.43-.46-.53-.74-.1-.28-.1-.57,0-.88.1-.3.31-.57.65-.82.28-.21.6-.32.95-.32h1.03c0-.12,0-.39-.03-.81-.02-.42-.02-.87-.01-1.37,0-.49.04-.97.09-1.42.05-.45.15-.76.29-.94.35-.49.79-.73,1.31-.7.52.03.95.28,1.29.76.07.09.14.19.2.32.06.12.09.24.09.34.02.64.02,1.27.01,1.91,0,.64-.01,1.27-.01,1.91h2.1c.32,0,.59.11.82.32.23.21.39.46.49.74.1.28.12.57.08.88-.04.3-.18.55-.41.74-.41.34-.88.51-1.42.53-.54.02-1.09.03-1.66.03,0,.97,0,1.94-.01,2.92,0,.97,0,1.95.01,2.92,0,.42.02.86.07,1.3.04.44.01.87-.09,1.27-.09.32-.24.57-.45.76-.21.19-.45.3-.72.34-.27.04-.54.03-.82-.05-.28-.08-.55-.23-.8-.44-.12-.12-.22-.34-.28-.64-.06-.3-.1-.62-.12-.95-.02-.39-.02-.8,0-1.25v-1.38c0-.57,0-1.15-.01-1.76,0-.61-.01-1.19-.01-1.74v-1.3l-1.19-.03Z"/>
    <path d="M198.88,46.78c.21-.35.48-.6.8-.73.32-.13.63-.16.94-.09.31.07.58.23.82.48.24.25.38.57.44.98.04.3-.02.73-.17,1.27-.15.55-.34,1.11-.56,1.7-.22.58-.45,1.14-.68,1.67-.23.53-.42.95-.56,1.25-.6,1.33-1.26,2.63-1.96,3.9s-1.43,2.54-2.17,3.79c-.11.19-.23.43-.37.72-.14.28-.29.57-.44.88-.15.3-.3.58-.46.85s-.31.46-.45.58c-.32.3-.65.48-.98.53-.34.05-.64,0-.91-.13-.27-.14-.5-.36-.66-.66-.17-.3-.23-.66-.2-1.09.02-.16.09-.37.21-.62.12-.26.27-.52.42-.8.16-.27.32-.53.48-.78.16-.25.28-.45.37-.61.35-.58.69-1.17,1.02-1.75.33-.58.66-1.17.99-1.75-1.17-.97-2.18-2.06-3.04-3.25-.86-1.19-1.52-2.51-1.98-3.94-.09-.25-.18-.49-.26-.74-.09-.25-.12-.5-.08-.77.04-.3.12-.57.25-.81.13-.24.31-.43.52-.58.21-.15.45-.23.73-.25.27-.02.55.04.84.19.23.12.41.3.54.52.13.22.24.46.33.72.09.26.16.52.23.78.06.27.14.5.23.72.71,1.75,1.78,3.24,3.21,4.48.51-1.06.97-2.13,1.38-3.2.41-1.07.77-2.16,1.09-3.28l.11-.16Z"/>
    <path d="M202.38,52.14c.12-.51.3-1.02.52-1.51.22-.49.49-.97.81-1.42.32-.45.68-.86,1.07-1.23.4-.37.83-.67,1.29-.9.81-.42,1.63-.64,2.45-.65.82,0,1.59.16,2.29.49.71.34,1.31.84,1.8,1.5s.82,1.45.98,2.37c.09.6.14,1.17.15,1.71,0,.54-.05,1.1-.17,1.68-.18.83-.54,1.66-1.07,2.48-.54.82-1.18,1.51-1.94,2.07s-1.57.92-2.47,1.1c-.89.18-1.79.04-2.69-.42-.41-.19-.77-.42-1.1-.68s-.62-.56-.89-.91c-.3-.39-.53-.8-.7-1.22-.17-.42-.31-.87-.41-1.33-.12-.49-.17-.99-.13-1.5.04-.5.1-.99.19-1.47l.03-.16ZM205.57,52.69c-.05.28-.1.56-.13.84-.04.27-.04.55,0,.84.05.41.16.78.33,1.11.17.34.39.6.66.8.27.19.59.3.94.3.35,0,.73-.1,1.14-.33.51-.3.96-.76,1.33-1.39.37-.63.6-1.28.69-1.96.09-.68.02-1.33-.21-1.94-.23-.61-.68-1.05-1.35-1.31-.44,0-.85.08-1.22.25-.37.17-.69.39-.97.66-.27.27-.51.6-.72.97-.2.37-.37.76-.49,1.17Z"/>
    <path d="M227.23,56.4c.16.23.25.5.28.81.03.31,0,.6-.11.88-.1.27-.26.5-.48.68-.22.18-.51.26-.86.24-.46-.04-.83-.19-1.11-.48-.28-.28-.55-.6-.8-.95-.69.57-1.4.96-2.13,1.18-.73.22-1.45.27-2.16.15-.71-.12-1.37-.42-1.99-.89-.62-.47-1.14-1.1-1.56-1.9-.39-.74-.61-1.56-.65-2.47s-.06-1.76-.04-2.57c0-.28,0-.56.03-.84.02-.27.04-.56.05-.86.02-.23.03-.46.03-.68s.01-.43.04-.62c.03-.19.08-.39.16-.58.08-.19.2-.38.36-.56.21-.23.47-.37.77-.41.3-.04.59-.01.86.09.27.11.51.27.72.49.2.22.31.49.33.81.04.9.01,1.81-.07,2.73-.08.92-.08,1.82.01,2.7.04.42.15.86.33,1.3.19.44.48.76.89.95.41.18.82.16,1.23-.04.42-.2.76-.45,1.02-.73.12-.14.24-.3.36-.46.11-.17.24-.31.38-.44-.07-.62-.12-1.24-.13-1.86-.02-.62-.02-1.24,0-1.86,0-.34.01-.7.04-1.1.03-.4.1-.78.21-1.14.11-.36.29-.68.52-.95.23-.27.56-.45.98-.52.19-.04.38-.02.57.05.19.07.35.17.49.29.25.21.42.45.5.72.09.27.13.55.13.85s-.02.61-.07.92c-.04.31-.08.6-.09.86-.04.5-.06,1.02-.08,1.56-.02.55,0,1.1.05,1.64.05.55.15,1.08.3,1.59.15.51.38.98.68,1.41Z"/>
    <path d="M238.32,56.7c-.11-.3-.15-.6-.13-.89.02-.29.09-.56.23-.8.13-.24.32-.42.57-.56s.55-.18.9-.15c.19.02.37.07.53.16.16.09.31.19.44.32.13.12.26.26.4.4.13.14.27.27.41.37.3.23.62.4.95.5.34.11.69.19,1.06.24.25,0,.45-.06.6-.19.15-.12.25-.27.3-.45.05-.18.07-.37.04-.57-.03-.2-.09-.37-.2-.49-.3-.3-.67-.49-1.1-.58-.43-.09-.83-.19-1.21-.32-.53-.18-1.05-.4-1.56-.68-.51-.27-.93-.65-1.25-1.13-.34-.49-.54-1.02-.6-1.58-.06-.56-.02-1.1.13-1.63.15-.53.4-1.02.76-1.46.35-.44.78-.8,1.27-1.09.37-.21.78-.35,1.22-.41.44-.06.89-.07,1.34-.04.45.04.9.12,1.34.25s.85.28,1.22.44c.42.19.74.47.96.82.21.35.31.71.3,1.07,0,.36-.13.68-.37.94s-.59.4-1.05.4c-.28,0-.54-.05-.77-.15-.23-.1-.47-.19-.72-.28-.32-.12-.66-.21-1.03-.25-.37-.04-.67-.02-.9.07-.07.02-.15.08-.24.17-.09.1-.16.22-.2.36-.04.14-.05.28-.03.42.03.14.12.26.28.34.42.23.88.41,1.35.53.48.12.95.27,1.41.42.46.16.89.36,1.29.61.4.25.73.6.99,1.06.39.67.59,1.38.6,2.11,0,.73-.14,1.42-.44,2.06-.3.64-.74,1.18-1.33,1.63-.58.45-1.26.72-2.04.81-.55.05-1.09.02-1.62-.09-.53-.12-1.04-.3-1.54-.56-.5-.26-.95-.56-1.38-.91-.42-.35-.8-.72-1.11-1.11l-.08-.16Z"/>
    <path d="M261.26,56.4c.16.23.25.5.28.81.03.31,0,.6-.11.88-.1.27-.26.5-.48.68-.22.18-.51.26-.86.24-.46-.04-.83-.19-1.11-.48-.28-.28-.55-.6-.8-.95-.69.57-1.4.96-2.13,1.18-.73.22-1.45.27-2.16.15-.71-.12-1.37-.42-1.99-.89-.62-.47-1.14-1.1-1.56-1.9-.39-.74-.61-1.56-.65-2.47s-.06-1.76-.04-2.57c0-.28,0-.56.03-.84.02-.27.04-.56.05-.86.02-.23.03-.46.03-.68s.01-.43.04-.62c.03-.19.08-.39.16-.58.08-.19.2-.38.36-.56.21-.23.47-.37.77-.41.3-.04.59-.01.86.09.27.11.51.27.72.49.2.22.31.49.33.81.04.9.01,1.81-.07,2.73-.08.92-.08,1.82.01,2.7.04.42.15.86.33,1.3.19.44.48.76.89.95.41.18.82.16,1.23-.04.42-.2.76-.45,1.02-.73.12-.14.24-.3.36-.46.11-.17.24-.31.38-.44-.07-.62-.12-1.24-.13-1.86-.02-.62-.02-1.24,0-1.86,0-.34.01-.7.04-1.1.03-.4.1-.78.21-1.14.11-.36.29-.68.52-.95.23-.27.56-.45.98-.52.19-.04.38-.02.57.05.19.07.35.17.49.29.25.21.42.45.5.72.09.27.13.55.13.85s-.02.61-.07.92c-.04.31-.08.6-.09.86-.04.5-.06,1.02-.08,1.56-.02.55,0,1.1.05,1.64.05.55.15,1.08.3,1.59.15.51.38.98.68,1.41Z"/>
    <path d="M263.61,47.57c.12-.42.32-.75.6-.97.27-.22.57-.35.88-.38.31-.04.61.02.89.16.28.14.5.36.66.66.19-.11.39-.2.58-.29.19-.09.42-.17.66-.24,1.13-.3,2.13-.28,3.01.07.88.34,1.6.88,2.19,1.59.58.72,1,1.56,1.25,2.52.25.96.3,1.93.17,2.89-.13.96-.47,1.87-1.02,2.71-.55.84-1.33,1.49-2.36,1.95-.67.3-1.38.49-2.11.57s-1.46.09-2.19.04c0,.02,0,.16.01.42,0,.27.01.6.01,1.01v1.33c0,.48-.01.94-.04,1.38-.03.44-.06.84-.11,1.18-.04.34-.11.58-.2.7-.23.34-.51.55-.85.64-.34.09-.65.07-.95-.04-.3-.12-.56-.31-.78-.58-.22-.27-.33-.61-.33-.99v-16.15l.03-.16ZM267.01,51.02c-.05.09-.08.13-.08.12,0,0-.04.02-.11.09v4.38c.35.05.71.08,1.06.08s.72-.05,1.11-.16c.79-.19,1.42-.58,1.88-1.15.46-.57.64-1.29.53-2.13-.05-.35-.16-.72-.31-1.1-.15-.38-.35-.7-.6-.97-.25-.27-.54-.45-.88-.56-.34-.11-.72-.07-1.14.11-.3.12-.57.31-.81.56-.24.25-.46.5-.68.74Z"/>
    <path d="M276.82,47.57c.12-.42.32-.75.6-.97.27-.22.57-.35.88-.38.31-.04.6.02.89.16.28.14.5.36.66.66.19-.11.39-.2.58-.29.19-.09.42-.17.66-.24,1.13-.3,2.14-.28,3.01.07.88.34,1.6.88,2.19,1.59.58.72,1,1.56,1.25,2.52s.31,1.93.17,2.89c-.13.96-.47,1.87-1.02,2.71-.55.84-1.33,1.49-2.36,1.95-.67.3-1.37.49-2.11.57-.73.08-1.46.09-2.19.04,0,.02,0,.16.01.42,0,.27.01.6.01,1.01v1.33c0,.48-.01.94-.04,1.38-.03.44-.06.84-.11,1.18-.04.34-.11.58-.2.7-.23.34-.51.55-.85.64-.34.09-.65.07-.95-.04-.3-.12-.56-.31-.78-.58-.22-.27-.33-.61-.33-.99v-16.15l.03-.16ZM280.22,51.02c-.05.09-.08.13-.08.12,0,0-.04.02-.11.09v4.38c.35.05.71.08,1.06.08s.73-.05,1.11-.16c.8-.19,1.42-.58,1.88-1.15.46-.57.64-1.29.53-2.13-.05-.35-.16-.72-.3-1.1-.15-.38-.35-.7-.6-.97-.25-.27-.54-.45-.88-.56-.34-.11-.72-.07-1.14.11-.3.12-.57.31-.81.56-.24.25-.46.5-.68.74Z"/>
    <path d="M289.66,52.14c.12-.51.3-1.02.52-1.51.22-.49.49-.97.81-1.42.32-.45.68-.86,1.07-1.23.4-.37.83-.67,1.29-.9.81-.42,1.63-.64,2.45-.65.82,0,1.59.16,2.29.49.71.34,1.31.84,1.8,1.5s.82,1.45.98,2.37c.09.6.14,1.17.15,1.71,0,.54-.05,1.1-.17,1.68-.18.83-.54,1.66-1.07,2.48-.54.82-1.18,1.51-1.94,2.07-.75.56-1.57.92-2.47,1.1-.89.18-1.79.04-2.69-.42-.41-.19-.77-.42-1.1-.68s-.62-.56-.89-.91c-.3-.39-.53-.8-.7-1.22-.17-.42-.31-.87-.41-1.33-.12-.49-.17-.99-.13-1.5.04-.5.1-.99.19-1.47l.03-.16ZM292.84,52.69c-.05.28-.1.56-.13.84-.04.27-.04.55,0,.84.05.41.16.78.33,1.11.17.34.39.6.66.8.27.19.59.3.94.3.35,0,.73-.1,1.14-.33.51-.3.96-.76,1.33-1.39.37-.63.6-1.28.69-1.96.09-.68.02-1.33-.21-1.94-.23-.61-.68-1.05-1.35-1.31-.44,0-.85.08-1.22.25-.37.17-.69.39-.97.66-.27.27-.51.6-.72.97-.2.37-.37.76-.49,1.17Z"/>
    <path d="M301.93,56.7c-.11-.3-.15-.6-.13-.89s.09-.56.23-.8c.13-.24.32-.42.57-.56.25-.13.55-.18.9-.15.19.02.37.07.53.16.16.09.3.19.44.32.13.12.27.26.4.4.13.14.27.27.41.37.3.23.62.4.95.5.34.11.69.19,1.06.24.25,0,.45-.06.6-.19.15-.12.25-.27.31-.45.05-.18.07-.37.04-.57-.03-.2-.09-.37-.2-.49-.3-.3-.67-.49-1.1-.58-.43-.09-.84-.19-1.21-.32-.53-.18-1.05-.4-1.56-.68-.51-.27-.93-.65-1.25-1.13-.34-.49-.53-1.02-.6-1.58s-.02-1.1.13-1.63c.15-.53.4-1.02.76-1.46.35-.44.78-.8,1.27-1.09.37-.21.78-.35,1.22-.41.44-.06.89-.07,1.34-.04.45.04.9.12,1.34.25.44.13.85.28,1.22.44.42.19.74.47.95.82.21.35.31.71.31,1.07,0,.36-.13.68-.37.94s-.59.4-1.05.4c-.28,0-.54-.05-.77-.15-.23-.1-.47-.19-.72-.28-.32-.12-.66-.21-1.03-.25-.37-.04-.67-.02-.9.07-.07.02-.15.08-.24.17-.09.1-.15.22-.2.36-.04.14-.05.28-.03.42.03.14.12.26.28.34.42.23.88.41,1.35.53.48.12.95.27,1.41.42.46.16.89.36,1.29.61.4.25.73.6.99,1.06.39.67.59,1.38.6,2.11,0,.73-.14,1.42-.44,2.06s-.74,1.18-1.33,1.63c-.58.45-1.26.72-2.04.81-.55.05-1.09.02-1.62-.09-.53-.12-1.04-.3-1.54-.56-.5-.26-.96-.56-1.38-.91-.42-.35-.8-.72-1.11-1.11l-.08-.16Z"/>
    <path d="M323.02,54.92c.42-.11.8-.11,1.13-.01.33.1.58.26.76.49.18.23.26.51.24.85-.02.34-.17.69-.45,1.06-.23.3-.55.56-.95.77-.41.21-.79.38-1.14.5-.87.32-1.69.54-2.47.66-.78.12-1.51.12-2.19,0-.68-.12-1.32-.38-1.91-.77-.59-.39-1.15-.94-1.66-1.64-.35-.48-.61-1.02-.78-1.63-.17-.61-.26-1.23-.28-1.87-.02-.64.04-1.26.16-1.88.12-.62.3-1.18.53-1.67.3-.62.78-1.18,1.43-1.7.65-.51,1.38-.92,2.17-1.22.8-.3,1.61-.47,2.44-.52.83-.04,1.56.08,2.2.38.53.25.99.61,1.37,1.07.38.47.64.98.78,1.52.14.55.15,1.1.04,1.66-.11.56-.4,1.07-.86,1.52-.44.44-.93.8-1.46,1.07-.53.27-1.08.51-1.64.72-.57.2-1.15.38-1.74.52-.59.14-1.16.3-1.71.48.37.42.8.69,1.27.81.48.12.98.14,1.5.07.52-.07,1.05-.22,1.58-.44.53-.22,1.02-.46,1.48-.73l.16-.08ZM317.66,50.36c-.41.23-.71.52-.9.86-.2.34-.34.83-.42,1.45.46-.14.98-.29,1.55-.45.57-.16,1.12-.33,1.63-.5.51-.18.95-.37,1.3-.58.35-.21.53-.44.53-.69,0-.14-.02-.28-.07-.41-.04-.13-.14-.23-.28-.28-.5-.18-1.01-.21-1.54-.11-.53.11-.97.26-1.33.45l-.48.27Z"/>
    <path d="M339.27,56.35c.3.51.4.97.3,1.38-.1.41-.3.71-.6.92-.3.2-.67.28-1.1.24-.43-.04-.85-.27-1.26-.68-.42.3-.87.53-1.33.7-.46.17-.95.31-1.46.44-.8.18-1.56.16-2.29-.04-.73-.2-1.38-.53-1.95-.99-.57-.46-1.03-1.03-1.38-1.71-.35-.68-.55-1.42-.58-2.21-.05-.88.01-1.73.2-2.55.19-.81.48-1.56.89-2.23.41-.67.94-1.25,1.6-1.72.66-.48,1.45-.81,2.35-1.01.53-.11,1.06-.16,1.6-.16s1.07.04,1.6.13c-.02-.39-.03-.84-.04-1.34s-.01-.99-.01-1.47.02-.91.05-1.29c.04-.38.08-.65.13-.81.12-.32.31-.56.57-.73.26-.17.53-.26.81-.27.28,0,.56.06.83.21.27.15.49.38.65.68.04.09.08.17.13.25.05.08.08.16.08.25.02,2.32.02,4.61.01,6.87,0,2.26-.01,4.55-.01,6.87.07.11.13.19.19.27ZM335.59,54.89c.04-.05.1-.11.2-.16.1-.05.15-.12.15-.21v-2.19c0-.72,0-1.45-.03-2.19-.42-.09-.87-.14-1.33-.16-.46-.02-.91.03-1.34.13-.43.11-.83.28-1.19.53-.36.25-.65.6-.86,1.06-.11.34-.2.67-.29,1.01-.09.34-.14.66-.15.98,0,.32.03.63.12.94.09.31.24.61.45.89.07.07.15.14.25.21.1.07.29.19.57.37.65.05,1.28,0,1.87-.19.59-.18,1.12-.52,1.58-1.03Z"/>
    <path d="M354.07,49.64c-.35-.09-.66-.24-.92-.45-.26-.21-.43-.46-.53-.74-.1-.28-.1-.57,0-.88.1-.3.31-.57.65-.82.28-.21.6-.32.95-.32h1.03c0-.12,0-.39-.03-.81-.02-.42-.02-.87-.01-1.37,0-.49.04-.97.09-1.42.05-.45.15-.76.29-.94.35-.49.79-.73,1.31-.7.52.03.95.28,1.29.76.07.09.14.19.2.32.06.12.09.24.09.34.02.64.02,1.27.01,1.91,0,.64-.01,1.27-.01,1.91h2.1c.32,0,.59.11.82.32.23.21.39.46.49.74.1.28.12.57.08.88-.04.3-.18.55-.41.74-.41.34-.88.51-1.42.53-.54.02-1.09.03-1.66.03,0,.97,0,1.94-.01,2.92,0,.97,0,1.95.01,2.92,0,.42.02.86.07,1.3.04.44.01.87-.09,1.27-.09.32-.24.57-.45.76s-.45.3-.72.34c-.26.04-.54.03-.82-.05-.28-.08-.55-.23-.79-.44-.12-.12-.22-.34-.28-.64-.06-.3-.1-.62-.12-.95-.02-.39-.02-.8,0-1.25v-1.38c0-.57,0-1.15-.01-1.76,0-.61-.01-1.19-.01-1.74v-1.3l-1.19-.03Z"/>
    <path d="M362.08,52.14c.12-.51.3-1.02.52-1.51.22-.49.49-.97.81-1.42.32-.45.68-.86,1.07-1.23.4-.37.83-.67,1.29-.9.81-.42,1.63-.64,2.45-.65.82,0,1.59.16,2.29.49.71.34,1.31.84,1.8,1.5.49.66.82,1.45.98,2.37.09.6.14,1.17.15,1.71,0,.54-.05,1.1-.17,1.68-.18.83-.54,1.66-1.07,2.48s-1.18,1.51-1.94,2.07c-.75.56-1.57.92-2.47,1.1-.89.18-1.79.04-2.69-.42-.41-.19-.77-.42-1.1-.68s-.62-.56-.89-.91c-.3-.39-.53-.8-.7-1.22-.17-.42-.31-.87-.41-1.33-.12-.49-.17-.99-.13-1.5s.1-.99.19-1.47l.03-.16ZM365.26,52.69c-.05.28-.1.56-.13.84-.04.27-.04.55,0,.84.05.41.16.78.33,1.11.17.34.39.6.66.8.27.19.59.3.94.3.35,0,.73-.1,1.14-.33.51-.3.96-.76,1.33-1.39.37-.63.6-1.28.69-1.96.09-.68.02-1.33-.21-1.94-.23-.61-.68-1.05-1.35-1.31-.44,0-.85.08-1.22.25-.37.17-.69.39-.97.66-.27.27-.51.6-.72.97-.2.37-.37.76-.49,1.17Z"/>
    <path d="M390.16,59.16c-.51.02-1-.02-1.47-.11-.47-.09-.93-.24-1.39-.45-.23.12-.46.19-.68.19s-.42-.04-.61-.11c-.19-.07-.34-.15-.48-.25-.13-.1-.23-.17-.28-.23-.2-.28-.31-.6-.34-.95-.04-.35.08-.69.34-1.01v-13.63c0-.41.14-.75.42-1.02.28-.27.61-.45.98-.52.37-.07.73,0,1.07.19.34.19.58.55.7,1.06.07.32.13.63.17.94.04.31.07.67.08,1.07,0,.41,0,.88,0,1.41,0,.53-.03,1.18-.07,1.96.16-.09.32-.17.49-.25.17-.08.34-.16.52-.25.49-.23,1.02-.37,1.59-.42.57-.05,1.12-.02,1.66.09.54.12,1.04.33,1.51.64.47.31.85.71,1.15,1.21.42.71.71,1.53.86,2.48.15.95.15,1.88,0,2.81-.15.93-.46,1.79-.93,2.59-.47.8-1.13,1.39-1.98,1.78-.53.25-1.07.44-1.63.57-.56.13-1.13.21-1.71.23ZM388.49,52.37v3.18s.07.06.11.08c.04.02.07.04.11.08,1.59.53,2.97.17,4.14-1.09.27-.71.39-1.37.38-2,0-.63-.13-1.3-.36-2.03-.09-.21-.23-.35-.44-.41-.2-.06-.38-.14-.54-.23-.28-.05-.59,0-.92.16s-.64.36-.94.6c-.3.24-.58.5-.82.78-.25.28-.44.52-.58.72l-.13.16Z"/>
    <path d="M408.22,54.92c.42-.11.8-.11,1.13-.01s.58.26.76.49c.18.23.26.51.24.85-.02.34-.17.69-.45,1.06-.23.3-.55.56-.95.77-.41.21-.79.38-1.14.5-.87.32-1.69.54-2.47.66-.78.12-1.51.12-2.19,0-.68-.12-1.32-.38-1.91-.77s-1.14-.94-1.66-1.64c-.35-.48-.61-1.02-.78-1.63-.17-.61-.26-1.23-.28-1.87-.02-.64.04-1.26.16-1.88.12-.62.3-1.18.53-1.67.3-.62.78-1.18,1.43-1.7.65-.51,1.38-.92,2.17-1.22.8-.3,1.61-.47,2.44-.52.83-.04,1.56.08,2.2.38.53.25.99.61,1.37,1.07.38.47.64.98.78,1.52.14.55.15,1.1.04,1.66s-.4,1.07-.86,1.52c-.44.44-.93.8-1.46,1.07-.53.27-1.08.51-1.64.72-.57.2-1.15.38-1.74.52-.59.14-1.16.3-1.71.48.37.42.8.69,1.27.81.48.12.98.14,1.5.07.52-.07,1.05-.22,1.58-.44.53-.22,1.03-.46,1.49-.73l.16-.08ZM402.86,50.36c-.41.23-.71.52-.9.86-.19.34-.34.83-.42,1.45.46-.14.98-.29,1.55-.45.57-.16,1.12-.33,1.63-.5.51-.18.95-.37,1.3-.58.35-.21.53-.44.53-.69,0-.14-.02-.28-.07-.41s-.14-.23-.28-.28c-.5-.18-1.01-.21-1.54-.11s-.97.26-1.33.45l-.48.27Z"/>
    <path d="M421.11,56.7c-.11-.3-.15-.6-.13-.89s.09-.56.23-.8c.13-.24.32-.42.57-.56.25-.13.55-.18.9-.15.19.02.37.07.53.16.16.09.31.19.44.32.13.12.27.26.4.4.13.14.27.27.41.37.3.23.62.4.95.5.34.11.69.19,1.06.24.25,0,.45-.06.6-.19.15-.12.25-.27.31-.45.05-.18.07-.37.04-.57-.03-.2-.09-.37-.2-.49-.3-.3-.67-.49-1.1-.58-.43-.09-.84-.19-1.21-.32-.53-.18-1.05-.4-1.56-.68-.51-.27-.93-.65-1.25-1.13-.34-.49-.54-1.02-.6-1.58-.06-.56-.02-1.1.13-1.63.15-.53.4-1.02.76-1.46.35-.44.78-.8,1.27-1.09.37-.21.78-.35,1.22-.41.44-.06.89-.07,1.34-.04.45.04.9.12,1.34.25.44.13.85.28,1.22.44.42.19.74.47.96.82.21.35.31.71.3,1.07,0,.36-.13.68-.37.94-.24.27-.59.4-1.05.4-.28,0-.54-.05-.77-.15-.23-.1-.47-.19-.72-.28-.32-.12-.66-.21-1.03-.25-.37-.04-.67-.02-.9.07-.07.02-.15.08-.24.17-.09.1-.15.22-.2.36-.04.14-.05.28-.03.42.03.14.12.26.28.34.42.23.88.41,1.35.53.48.12.95.27,1.41.42s.89.36,1.29.61c.4.25.73.6.99,1.06.39.67.59,1.38.6,2.11,0,.73-.14,1.42-.44,2.06-.3.64-.74,1.18-1.33,1.63-.58.45-1.26.72-2.04.81-.55.05-1.09.02-1.62-.09-.53-.12-1.04-.3-1.54-.56-.5-.26-.95-.56-1.38-.91-.42-.35-.8-.72-1.11-1.11l-.08-.16Z"/>
    <path d="M436.54,56.83c.19.18.36.4.49.68.13.27.2.55.21.82s-.05.53-.19.77c-.13.24-.37.42-.7.54-.27.09-.56.11-.88.05-.32-.05-.63-.16-.94-.32-.31-.16-.58-.35-.82-.57-.24-.22-.41-.46-.52-.73-.04-.09-.06-.19-.08-.3-.02-.11-.03-.22-.03-.3v-14.72c0-.41.15-.75.46-1.03.31-.28.65-.45,1.02-.5.18-.02.37,0,.57.08.2.07.39.17.57.3.18.13.32.29.44.46.11.18.17.36.17.56v1.83c0,.76,0,1.59.01,2.49,0,.9.01,1.83.01,2.8s0,1.89-.01,2.77c0,.88-.01,1.69-.01,2.43s0,1.32-.03,1.76l.24.13Z"/>
    <path d="M448.61,54.92c.42-.11.8-.11,1.13-.01s.58.26.76.49c.18.23.26.51.24.85-.02.34-.17.69-.45,1.06-.23.3-.55.56-.95.77-.41.21-.79.38-1.14.5-.87.32-1.69.54-2.47.66-.78.12-1.51.12-2.19,0-.68-.12-1.32-.38-1.91-.77s-1.14-.94-1.66-1.64c-.35-.48-.61-1.02-.78-1.63-.17-.61-.26-1.23-.28-1.87-.02-.64.04-1.26.16-1.88.12-.62.3-1.18.53-1.67.3-.62.78-1.18,1.43-1.7.65-.51,1.38-.92,2.17-1.22.8-.3,1.61-.47,2.44-.52.83-.04,1.56.08,2.2.38.53.25.99.61,1.37,1.07.38.47.64.98.78,1.52.14.55.15,1.1.04,1.66s-.4,1.07-.86,1.52c-.44.44-.93.8-1.46,1.07-.53.27-1.08.51-1.64.72-.57.2-1.15.38-1.74.52-.59.14-1.16.3-1.71.48.37.42.8.69,1.27.81.48.12.98.14,1.5.07.52-.07,1.05-.22,1.58-.44.53-.22,1.03-.46,1.49-.73l.16-.08ZM443.25,50.36c-.41.23-.71.52-.9.86-.19.34-.34.83-.42,1.45.46-.14.98-.29,1.55-.45.57-.16,1.12-.33,1.63-.5.51-.18.95-.37,1.3-.58.35-.21.53-.44.53-.69,0-.14-.02-.28-.07-.41s-.14-.23-.28-.28c-.5-.18-1.01-.21-1.54-.11s-.97.26-1.33.45l-.48.27Z"/>
    <path d="M461.76,54.92c.42-.11.8-.11,1.13-.01s.58.26.76.49c.18.23.26.51.24.85-.02.34-.17.69-.45,1.06-.23.3-.55.56-.95.77-.41.21-.79.38-1.14.5-.87.32-1.69.54-2.47.66-.78.12-1.51.12-2.19,0-.68-.12-1.32-.38-1.91-.77s-1.14-.94-1.66-1.64c-.35-.48-.61-1.02-.78-1.63-.17-.61-.26-1.23-.28-1.87-.02-.64.04-1.26.16-1.88.12-.62.3-1.18.53-1.67.3-.62.78-1.18,1.43-1.7.65-.51,1.38-.92,2.17-1.22.8-.3,1.61-.47,2.44-.52.83-.04,1.56.08,2.2.38.53.25.99.61,1.37,1.07.38.47.64.98.78,1.52.14.55.15,1.1.04,1.66s-.4,1.07-.86,1.52c-.44.44-.93.8-1.46,1.07-.53.27-1.08.51-1.64.72-.57.2-1.15.38-1.74.52-.59.14-1.16.3-1.71.48.37.42.8.69,1.27.81.48.12.98.14,1.5.07.52-.07,1.05-.22,1.58-.44.53-.22,1.03-.46,1.49-.73l.16-.08ZM456.41,50.36c-.41.23-.71.52-.9.86-.19.34-.34.83-.42,1.45.46-.14.98-.29,1.55-.45.57-.16,1.12-.33,1.63-.5.51-.18.95-.37,1.3-.58.35-.21.53-.44.53-.69,0-.14-.02-.28-.07-.41s-.14-.23-.28-.28c-.5-.18-1.01-.21-1.54-.11s-.97.26-1.33.45l-.48.27Z"/>
    <path d="M465.95,47.57c.12-.42.32-.75.6-.97.27-.22.57-.35.88-.38.31-.04.6.02.89.16.28.14.5.36.66.66.19-.11.39-.2.58-.29.19-.09.42-.17.66-.24,1.13-.3,2.14-.28,3.01.07.88.34,1.6.88,2.19,1.59.58.72,1,1.56,1.25,2.52s.31,1.93.17,2.89c-.13.96-.47,1.87-1.02,2.71-.55.84-1.33,1.49-2.36,1.95-.67.3-1.37.49-2.11.57-.73.08-1.46.09-2.19.04,0,.02,0,.16.01.42,0,.27.01.6.01,1.01v1.33c0,.48-.01.94-.04,1.38-.03.44-.06.84-.11,1.18-.04.34-.11.58-.2.7-.23.34-.51.55-.85.64-.34.09-.65.07-.95-.04-.3-.12-.56-.31-.78-.58-.22-.27-.33-.61-.33-.99v-16.15l.03-.16ZM469.35,51.02c-.05.09-.08.13-.08.12,0,0-.04.02-.11.09v4.38c.35.05.71.08,1.06.08s.73-.05,1.11-.16c.8-.19,1.42-.58,1.88-1.15.46-.57.64-1.29.53-2.13-.05-.35-.16-.72-.3-1.1-.15-.38-.35-.7-.6-.97-.25-.27-.54-.45-.88-.56-.34-.11-.72-.07-1.14.11-.3.12-.57.31-.81.56-.24.25-.46.5-.68.74Z"/>
    <path d="M479.03,42.64c.07-.65.3-1.14.68-1.45.38-.31.78-.46,1.21-.45.42,0,.82.17,1.18.49.36.32.55.77.57,1.35.04.6-.12,1.07-.46,1.39-.34.33-.74.51-1.18.56-.44.04-.86-.07-1.25-.36-.39-.28-.63-.73-.72-1.35l-.03-.19ZM482.53,57.73c-.04.35-.16.67-.37.94-.21.27-.46.47-.73.6-.27.12-.57.15-.89.08-.32-.07-.6-.27-.85-.58-.14-.18-.24-.38-.31-.6-.06-.22-.1-.45-.12-.69-.02-.24-.02-.48-.01-.72,0-.24.01-.45.01-.65-.02-1.04-.02-2.08-.01-3.1,0-1.03,0-2.06-.01-3.1,0-.42-.03-.85-.08-1.29-.05-.43-.03-.86.08-1.29.09-.32.24-.59.46-.82.22-.23.47-.39.74-.48.27-.09.56-.1.85-.03.29.07.54.26.76.56.28.35.42.7.42,1.05v3.06c0,.6,0,1.19.03,1.78.02.85.03,1.7.03,2.55v2.73Z"/>
    <path d="M496.05,57.78c-.05.44-.22.8-.49,1.09-.27.28-.58.46-.93.53-.34.07-.68.03-.99-.13s-.55-.47-.69-.93c-.16-.49-.22-1.01-.19-1.55.04-.54.05-1.04.05-1.5,0-.95,0-1.91.01-2.85,0-.95-.03-1.9-.12-2.85-.02-.04-.04-.07-.05-.09-.02-.03-.05-.07-.11-.12-.41-.11-.84-.08-1.3.08-.46.16-.85.36-1.17.61-.28.23-.56.54-.84.94s-.41.78-.41,1.15v3.66c0,.28,0,.59.03.93.02.34,0,.66-.04.98-.04.32-.15.61-.31.88-.16.27-.42.46-.77.58-.19.07-.38.1-.54.08-.17-.02-.35-.06-.54-.13-.32-.11-.55-.29-.69-.54-.14-.26-.24-.53-.29-.82-.05-.29-.08-.57-.07-.85,0-.27.01-.49.01-.65,0-.41,0-.99-.01-1.76,0-.77-.01-1.58-.01-2.43v-4.19c0-.39.12-.71.34-.97.23-.26.5-.42.81-.5.31-.08.64-.06.98.05s.63.35.86.7c.71-.46,1.48-.77,2.33-.93s1.65-.13,2.4.08,1.38.61,1.88,1.19.76,1.39.78,2.41c0,.04,0,.14.03.32.02.18.03.42.03.74v6.79Z"/>
    <path d="M499.39,64.02c-.3-.37-.46-.76-.48-1.15-.02-.4.07-.74.27-1.02.19-.28.47-.48.83-.58.36-.11.76-.05,1.21.16.19.14.37.25.53.32.16.07.38.18.66.32.26.12.57.22.9.28.34.06.65.07.96.04.6-.04,1.06-.14,1.39-.3.33-.17.56-.39.7-.66.14-.27.23-.61.25-1.01.03-.4.04-.84.04-1.34-.57.19-1.13.34-1.7.44-.57.1-1.15.11-1.75.04-1.17-.14-2.13-.56-2.88-1.25-.75-.69-1.3-1.51-1.64-2.47-.34-.95-.49-1.98-.42-3.06.06-1.09.31-2.09.76-3.01.27-.53.63-1.02,1.09-1.47.46-.45.98-.82,1.55-1.11.57-.29,1.18-.48,1.8-.57.63-.09,1.23-.04,1.82.16.34.12.66.25.98.37.32.12.63.28.93.48.34-.3.73-.45,1.18-.45s.84.21,1.15.64c.07.11.15.23.24.36.09.13.13.26.13.38.02,1.89.02,3.78.01,5.66s-.01,3.77-.01,5.66c0,.76-.1,1.47-.31,2.12-.2.65-.51,1.23-.92,1.74-.41.5-.91.91-1.51,1.23-.6.32-1.3.52-2.1.61-.41.04-.8.05-1.19.05s-.79-.04-1.19-.13c-.57-.11-1.11-.28-1.63-.53-.52-.25-1.04-.52-1.55-.82l-.11-.11ZM502.52,55.93c.78.37,1.49.49,2.15.36.65-.13,1.32-.43,1.99-.89v-4.22c-.51-.51-1.01-.87-1.5-1.07-.49-.2-1.07-.26-1.74-.17-.12.07-.24.13-.36.19s-.23.11-.36.16c-.37.42-.65.84-.85,1.23-.19.4-.31.8-.34,1.22-.04.42,0,.84.09,1.27.1.43.24.91.44,1.42.05.09.13.18.24.27.11.09.19.17.24.24Z"/>
    <path d="M516.26,51.95c.23.11.44.23.62.37.19.14.35.33.49.56.12.23.17.47.13.73-.04.26-.12.49-.25.7s-.31.39-.53.53c-.22.14-.46.22-.7.24-.42.04-.83-.04-1.22-.21-.39-.18-.74-.41-1.06-.69-.37-.32-.63-.71-.77-1.17-.18-.57-.23-1.07-.16-1.52.07-.45.23-.87.46-1.25.24-.38.54-.73.92-1.06.37-.33.75-.65,1.14-.97.19-.14.39-.29.6-.45.2-.16.4-.33.58-.5.19-.18.34-.37.48-.58s.21-.45.23-.72c-.11-.44-.29-.73-.56-.86s-.56-.17-.88-.11c-.32.06-.65.19-.98.4-.34.2-.64.41-.9.62-.16.12-.3.27-.44.44-.13.17-.27.33-.41.49-.14.16-.3.3-.46.42-.17.12-.36.2-.57.24-.35.05-.68,0-.98-.15-.3-.15-.54-.36-.7-.62-.17-.27-.25-.56-.24-.89,0-.33.14-.64.38-.94.44-.53.92-1.01,1.45-1.45.52-.43,1.07-.8,1.66-1.09.58-.29,1.2-.49,1.86-.61.65-.11,1.33-.11,2.04.01.44.09.84.27,1.18.54.34.27.64.6.89.98.25.38.45.78.6,1.21.15.42.25.83.31,1.22.04.41,0,.82-.13,1.23-.12.42-.3.81-.53,1.18-.23.37-.5.72-.8,1.03-.3.32-.61.58-.93.8-.23.16-.48.34-.76.53-.27.19-.51.38-.72.57-.2.19-.35.35-.44.49-.09.14-.05.24.11.29ZM513.26,58.29c.07-.64.31-1.12.73-1.45.42-.33.86-.49,1.34-.5.48,0,.92.15,1.31.46.4.32.61.8.62,1.43.02.41-.06.76-.24,1.06-.18.3-.4.53-.68.7-.27.17-.58.27-.93.29-.34.03-.67-.03-.97-.16-.3-.13-.56-.35-.78-.65-.22-.3-.36-.7-.41-1.19Z"/>
    <path d="M144.05,86.4c-.05.44-.22.8-.49,1.09-.27.28-.58.46-.93.53-.35.07-.68.03-.99-.13s-.55-.47-.69-.93c-.09-.3-.15-.63-.17-.98-.03-.35-.04-.7-.03-1.05s.02-.68.04-.99c.02-.32.03-.58.03-.8,0-.51,0-1.02-.01-1.51,0-.49-.01-1-.01-1.51-.87-.83-1.66-1.71-2.37-2.64s-1.36-1.92-1.92-2.98c-.18-.32-.34-.67-.5-1.05-.16-.38-.25-.76-.27-1.13-.09-.34-.05-.64.11-.92.16-.27.38-.49.65-.64.27-.15.57-.22.9-.21.33,0,.62.12.89.33.19.16.35.34.48.56.12.21.23.44.32.68.09.24.17.48.25.73.08.25.18.48.31.69.37.67.78,1.3,1.23,1.87.45.57.93,1.15,1.45,1.71.46-.62.96-1.2,1.49-1.74.53-.54,1.02-1.12,1.46-1.74.09-.14.22-.36.4-.65.18-.29.36-.6.56-.92.19-.32.4-.61.61-.89.21-.27.4-.45.56-.54.28-.18.57-.26.86-.24.29.02.56.11.8.27.24.16.43.38.57.65.14.27.19.57.16.89-.04.34-.19.74-.46,1.22-.27.48-.59.96-.96,1.46-.36.5-.73.96-1.1,1.41-.37.44-.66.8-.88,1.06-.18.21-.35.42-.52.62-.17.2-.34.4-.52.6-.23.27-.45.53-.66.8-.21.27-.42.53-.64.8v3.02c0,1.01,0,2.02.03,3.02v.19Z"/>
    <path d="M148.83,80.94c.12-.51.3-1.02.52-1.51.22-.49.49-.97.81-1.42.32-.45.68-.86,1.07-1.23.4-.37.83-.67,1.29-.9.81-.42,1.63-.64,2.45-.65.82,0,1.59.16,2.29.49.71.34,1.31.84,1.8,1.5.49.66.82,1.45.98,2.37.09.6.14,1.17.15,1.71,0,.54-.05,1.1-.17,1.68-.18.83-.53,1.66-1.07,2.48-.54.82-1.18,1.51-1.94,2.07s-1.57.92-2.47,1.1c-.89.18-1.79.04-2.69-.42-.41-.19-.77-.42-1.1-.68s-.62-.56-.89-.91c-.3-.39-.53-.8-.7-1.22-.17-.42-.31-.87-.41-1.33-.12-.49-.17-.99-.13-1.5s.1-.99.19-1.47l.03-.16ZM152.01,81.49c-.05.28-.1.56-.13.84-.04.27-.04.55,0,.84.05.41.16.78.33,1.11.17.34.39.6.66.8.27.19.59.3.94.3.35,0,.73-.1,1.14-.33.51-.3.95-.76,1.33-1.39.37-.63.6-1.28.69-1.96.09-.68.02-1.33-.21-1.94-.23-.61-.68-1.05-1.35-1.31-.44,0-.85.08-1.22.25-.37.17-.69.39-.97.66-.27.27-.51.6-.72.97-.2.37-.37.76-.49,1.17Z"/>
    <path d="M173.68,85.2c.16.23.25.5.28.81.03.31,0,.6-.11.88-.1.27-.26.5-.48.68-.22.18-.51.26-.86.24-.46-.04-.83-.19-1.11-.48-.28-.28-.55-.6-.8-.95-.69.57-1.4.96-2.13,1.18-.73.22-1.45.27-2.16.15-.71-.12-1.37-.42-1.99-.89-.62-.47-1.14-1.1-1.56-1.9-.39-.74-.61-1.56-.65-2.47-.04-.9-.06-1.76-.04-2.57,0-.28,0-.56.03-.84.02-.27.04-.56.05-.86.02-.23.03-.46.03-.68s.01-.43.04-.62c.03-.19.08-.39.16-.58.08-.19.2-.38.36-.56.21-.23.47-.37.77-.41.3-.04.59-.01.86.09.27.11.51.27.72.49.2.22.31.49.33.81.04.9.01,1.81-.07,2.73-.08.92-.08,1.82.01,2.71.04.42.15.86.33,1.3.19.44.48.76.89.95.41.18.82.16,1.23-.04.42-.2.76-.45,1.02-.73.12-.14.24-.3.36-.46.11-.17.24-.31.38-.44-.07-.62-.12-1.24-.13-1.86-.02-.62-.02-1.24,0-1.86,0-.34.01-.7.04-1.1.03-.4.1-.78.21-1.14.11-.36.29-.68.52-.95.23-.27.56-.45.98-.52.19-.04.38-.02.57.05.19.07.35.17.49.29.25.21.42.45.5.72s.13.55.13.85-.02.61-.07.92c-.04.31-.08.6-.09.86-.04.5-.06,1.02-.08,1.56-.02.55,0,1.1.05,1.64.05.55.15,1.08.31,1.59.15.51.38.98.68,1.41Z"/>
    <path d="M177.34,68.55c.21-.35.48-.59.8-.72.32-.12.63-.15.94-.09.31.06.58.22.82.46.24.25.38.57.41.98.02.27-.02.55-.12.85-.1.3-.22.6-.37.9-.15.3-.31.59-.48.88-.17.28-.31.53-.41.74-.14.28-.27.56-.38.84-.12.27-.25.54-.41.81-.25.44-.57.69-.97.76-.4.06-.77,0-1.11-.16-.34-.17-.61-.43-.8-.78-.19-.35-.19-.73-.01-1.14.09-.35.24-.72.45-1.09.21-.37.4-.72.56-1.03.18-.35.34-.7.5-1.03.16-.34.32-.67.48-1.01l.11-.16Z"/>
    <path d="M187.12,75.82c.27-.35.57-.6.92-.73s.67-.16.97-.08c.3.08.56.26.77.54.21.28.33.66.34,1.14,0,.12-.02.28-.07.48-.04.19-.1.39-.17.6-.07.2-.13.39-.19.56-.05.17-.09.28-.11.33-.3.95-.65,1.98-1.05,3.09-.4,1.11-.77,2.14-1.1,3.09-.14.41-.29.79-.44,1.15-.15.36-.31.74-.46,1.13-.12.32-.3.57-.54.77-.24.19-.5.32-.77.37-.27.05-.55.03-.84-.08-.28-.11-.53-.3-.74-.58-.14-.19-.26-.44-.36-.74-.1-.3-.17-.52-.23-.66-.19-.51-.39-1.02-.58-1.51-.19-.49-.39-.99-.58-1.49-.27-.67-.54-1.33-.82-1.99-.28-.65-.57-1.3-.88-1.94-.18-.39-.37-.77-.58-1.14-.21-.37-.37-.76-.48-1.17-.11-.37-.09-.7.04-.99.13-.29.33-.52.58-.68.26-.16.55-.25.88-.27.33-.02.64.07.94.27.23.14.44.36.64.66.19.3.37.63.53.98.16.35.3.7.44,1.05s.25.63.36.86c.25.57.49,1.13.73,1.7.24.57.47,1.13.7,1.7.37-1.04.73-2.08,1.07-3.12.34-1.03.67-2.08.97-3.14l.11-.16Z"/>
    <path d="M201.2,83.72c.42-.11.8-.11,1.13-.01.33.1.58.26.76.49.18.23.26.51.24.85-.02.34-.17.69-.45,1.06-.23.3-.55.56-.95.77-.41.21-.79.38-1.14.5-.87.32-1.69.54-2.47.66-.78.12-1.51.12-2.19,0-.68-.12-1.32-.38-1.91-.77s-1.14-.94-1.66-1.64c-.35-.48-.61-1.02-.78-1.63-.17-.61-.26-1.23-.28-1.87s.04-1.26.16-1.88c.12-.62.3-1.18.53-1.67.3-.62.78-1.18,1.43-1.7.65-.51,1.38-.92,2.17-1.22.8-.3,1.61-.47,2.44-.52.83-.04,1.56.08,2.2.38.53.25.99.61,1.37,1.07.38.47.64.98.78,1.52.14.55.15,1.1.04,1.66-.12.56-.4,1.07-.86,1.52-.44.44-.93.8-1.46,1.07-.53.27-1.08.51-1.64.72-.57.2-1.15.38-1.74.52-.59.14-1.16.3-1.71.48.37.42.8.69,1.27.81s.98.14,1.5.07c.52-.07,1.05-.22,1.58-.44.53-.22,1.03-.46,1.49-.73l.16-.08ZM195.85,79.16c-.41.23-.71.52-.9.86-.19.34-.34.83-.42,1.45.46-.14.98-.29,1.55-.45.57-.16,1.12-.33,1.63-.5.51-.18.95-.37,1.3-.58.35-.21.53-.44.53-.69,0-.14-.02-.28-.07-.41-.04-.13-.14-.23-.28-.28-.5-.18-1.01-.21-1.54-.11-.53.11-.97.26-1.33.45l-.48.27Z"/>
    <path d="M215.5,92.82c-.3-.37-.46-.76-.48-1.15-.02-.4.07-.74.27-1.02.19-.28.47-.48.84-.58.36-.11.76-.05,1.21.16.19.14.37.25.53.32.16.07.38.18.66.32.27.12.57.22.9.28.34.06.65.07.95.04.6-.04,1.06-.14,1.39-.3.33-.17.56-.39.7-.66.14-.27.23-.61.25-1.01.03-.4.04-.84.04-1.34-.57.19-1.13.34-1.7.44-.57.1-1.15.11-1.75.04-1.17-.14-2.13-.56-2.88-1.25s-1.3-1.51-1.64-2.47-.49-1.98-.42-3.06.31-2.09.76-3.01c.27-.53.63-1.02,1.09-1.47.46-.45.98-.82,1.55-1.11.57-.29,1.18-.48,1.8-.57.63-.09,1.23-.04,1.82.16.34.12.66.25.98.37.32.12.63.28.93.48.34-.3.73-.45,1.18-.45s.84.21,1.15.64c.07.11.15.23.24.36.09.13.13.26.13.38.02,1.89.02,3.78.01,5.66,0,1.88-.01,3.77-.01,5.66,0,.76-.1,1.47-.3,2.12-.2.65-.51,1.23-.92,1.74-.41.5-.91.92-1.51,1.23-.6.32-1.3.52-2.1.61-.41.04-.8.05-1.19.05s-.79-.04-1.19-.13c-.57-.11-1.11-.28-1.63-.53-.52-.25-1.04-.52-1.55-.82l-.11-.11ZM218.63,84.73c.78.37,1.49.49,2.15.36s1.32-.43,1.99-.89v-4.22c-.51-.51-1.01-.87-1.5-1.07-.49-.2-1.07-.26-1.74-.17-.12.07-.24.13-.36.19-.12.05-.23.11-.36.16-.37.42-.65.84-.85,1.23-.19.4-.31.8-.34,1.22-.04.42,0,.84.09,1.27.1.43.24.91.44,1.42.05.09.13.18.24.27.11.09.19.17.24.24Z"/>
    <path d="M228.01,80.94c.12-.51.3-1.02.52-1.51.22-.49.49-.97.81-1.42.32-.45.68-.86,1.07-1.23.4-.37.83-.67,1.29-.9.81-.42,1.63-.64,2.45-.65.82,0,1.59.16,2.29.49.71.34,1.31.84,1.8,1.5.49.66.82,1.45.98,2.37.09.6.14,1.17.15,1.71,0,.54-.05,1.1-.17,1.68-.18.83-.54,1.66-1.07,2.48-.54.82-1.18,1.51-1.94,2.07-.75.56-1.57.92-2.47,1.1-.89.18-1.79.04-2.69-.42-.41-.19-.77-.42-1.1-.68s-.62-.56-.89-.91c-.3-.39-.53-.8-.7-1.22-.17-.42-.31-.87-.41-1.33-.12-.49-.17-.99-.13-1.5s.1-.99.19-1.47l.03-.16ZM231.2,81.49c-.05.28-.1.56-.13.84-.04.27-.04.55,0,.84.05.41.16.78.33,1.11.17.34.39.6.66.8.27.19.59.3.94.3.35,0,.73-.1,1.14-.33.51-.3.96-.76,1.33-1.39.37-.63.6-1.28.69-1.96.09-.68.02-1.33-.21-1.94-.23-.61-.68-1.05-1.35-1.31-.44,0-.85.08-1.22.25-.37.17-.69.39-.97.66-.27.27-.51.6-.72.97-.2.37-.37.76-.49,1.17Z"/>
    <path d="M241.8,78.44c-.35-.09-.66-.24-.92-.45s-.43-.46-.53-.74c-.1-.28-.1-.57,0-.88.1-.3.31-.57.65-.82.28-.21.6-.32.95-.32h1.03c0-.12,0-.39-.03-.81-.02-.42-.02-.87-.01-1.37,0-.49.04-.97.09-1.42.05-.45.15-.76.29-.94.35-.49.79-.73,1.31-.7.52.03.95.28,1.29.76.07.09.14.19.2.32.06.12.09.24.09.34.02.64.02,1.27.01,1.91,0,.64-.01,1.27-.01,1.91h2.1c.32,0,.59.11.82.32s.39.46.49.74c.1.28.12.57.08.88-.04.3-.18.55-.41.74-.41.34-.88.51-1.42.53-.54.02-1.09.03-1.66.03,0,.97,0,1.95-.01,2.92,0,.97,0,1.95.01,2.92,0,.42.02.86.07,1.3.04.44.01.87-.09,1.27-.09.32-.24.57-.45.76-.21.19-.45.3-.72.34-.27.04-.54.03-.82-.05-.28-.08-.55-.23-.8-.44-.12-.12-.22-.34-.28-.64-.06-.3-.1-.62-.12-.95-.02-.39-.02-.8,0-1.25v-1.38c0-.57,0-1.15-.01-1.76,0-.61-.01-1.19-.01-1.74v-1.3l-1.19-.03Z"/>
    <path d="M274.9,75.82c.27-.35.57-.6.92-.73s.67-.16.97-.08c.3.08.56.26.77.54.21.28.33.66.34,1.14.02.27-.09.74-.33,1.43-.24.69-.53,1.59-.86,2.71-.02.07-.05.16-.09.27-.04.11-.11.28-.19.53s-.19.59-.34,1.03c-.15.44-.36,1.03-.62,1.78-.12.37-.28.81-.46,1.33-.19.51-.42.97-.7,1.37-.28.4-.62.67-1.01.82-.39.15-.86.04-1.41-.33-.18-.12-.37-.38-.58-.76-.21-.38-.42-.79-.61-1.23-.19-.44-.37-.86-.52-1.26s-.25-.66-.3-.78c-.12-.28-.27-.6-.42-.94-.16-.34-.31-.69-.45-1.05l-.16.4c-.23.58-.46,1.17-.69,1.75-.23.58-.46,1.16-.69,1.72-.12.3-.24.63-.34.98-.11.35-.26.66-.45.93-.16.23-.36.39-.6.49-.24.1-.48.14-.73.12-.25-.02-.48-.08-.7-.2-.22-.11-.41-.28-.57-.49-.25-.35-.44-.76-.58-1.22-.14-.46-.28-.88-.42-1.27-.19-.55-.37-1.11-.53-1.68-.16-.57-.33-1.13-.5-1.66-.09-.28-.2-.65-.34-1.11-.14-.46-.28-.93-.41-1.42-.13-.49-.24-.96-.32-1.42-.08-.46-.11-.84-.09-1.14.02-.3.12-.57.3-.81.19-.24.41-.42.68-.53.26-.11.54-.15.83-.12.29.04.55.17.78.4.34.35.54.73.61,1.13.07.4.15.83.24,1.29.14.71.31,1.41.49,2.09.19.69.38,1.38.6,2.07.07-.16.15-.35.24-.58.09-.23.23-.57.42-1.03.16-.39.31-.77.46-1.14.15-.37.3-.74.44-1.11.11-.27.21-.53.32-.78.11-.26.21-.51.32-.76.12-.27.31-.48.54-.65.24-.17.5-.27.78-.32.28-.04.56-.02.82.08.27.1.48.28.64.54.23.35.41.75.53,1.18.12.43.26.84.4,1.23.25.64.49,1.28.73,1.92.24.65.49,1.28.76,1.9.39-1.06.73-2.13,1.03-3.2.3-1.07.63-2.13.98-3.2l.11-.16Z"/>
    <path d="M278.77,80.94c.12-.51.3-1.02.52-1.51.22-.49.49-.97.81-1.42.32-.45.68-.86,1.07-1.23.4-.37.83-.67,1.29-.9.81-.42,1.63-.64,2.45-.65.82,0,1.59.16,2.29.49.71.34,1.31.84,1.8,1.5.5.66.82,1.45.98,2.37.09.6.14,1.17.15,1.71,0,.54-.05,1.1-.17,1.68-.18.83-.54,1.66-1.07,2.48-.54.82-1.18,1.51-1.94,2.07-.75.56-1.57.92-2.47,1.1-.89.18-1.79.04-2.69-.42-.41-.19-.77-.42-1.1-.68s-.62-.56-.89-.91c-.3-.39-.53-.8-.7-1.22-.17-.42-.31-.87-.41-1.33-.12-.49-.17-.99-.13-1.5.04-.5.1-.99.19-1.47l.03-.16ZM281.95,81.49c-.05.28-.1.56-.13.84-.04.27-.04.55,0,.84.05.41.16.78.33,1.11.17.34.39.6.66.8.27.19.59.3.94.3.35,0,.73-.1,1.14-.33.51-.3.96-.76,1.33-1.39.37-.63.6-1.28.69-1.96.09-.68.02-1.33-.21-1.94-.23-.61-.68-1.05-1.35-1.31-.44,0-.85.08-1.22.25-.37.17-.69.39-.97.66s-.51.6-.72.97-.37.76-.49,1.17Z"/>
    <path d="M292.56,79.09c.02-.11,0-.32-.03-.62-.28-.16-.5-.36-.66-.61-.16-.25-.25-.51-.28-.8-.03-.28.03-.55.16-.81.13-.26.35-.47.65-.65.41-.23.85-.27,1.34-.13.49.14.91.35,1.26.64.44-.34.9-.62,1.38-.85.48-.23.96-.38,1.46-.46.49-.08,1-.07,1.51.04.51.11,1.02.33,1.51.66.25.16.48.36.69.6.21.24.34.51.4.81.09.44.05.83-.11,1.15-.16.33-.38.57-.66.72-.28.15-.6.19-.95.13-.35-.06-.69-.25-1.01-.57-.11-.07-.18-.13-.23-.17-.04-.04-.14-.1-.28-.17-.28-.07-.56-.05-.84.05-.27.11-.54.25-.79.44-.26.19-.5.39-.72.61-.22.22-.42.42-.6.6v6.76c0,.27-.05.52-.16.77-.16.41-.41.69-.76.85-.34.16-.69.2-1.03.13-.34-.07-.65-.25-.9-.53-.26-.28-.38-.65-.38-1.09v-7.43c0,.07,0,.05.03-.07Z"/>
    <path d="M305.71,87.68c-.35.26-.72.38-1.1.36-.38-.02-.72-.17-1.01-.46-.29-.29-.44-.69-.44-1.21v-15.12c0-.27.07-.51.23-.73.15-.22.34-.4.57-.54.23-.14.48-.23.76-.28.27-.04.53-.04.76.03.23.06.43.19.6.4.17.2.26.48.28.84.05,1.38.08,2.62.08,3.71s0,2.2-.03,3.31c.41-.3.79-.61,1.15-.94.36-.33.72-.67,1.07-1.02.32-.34.63-.71.93-1.13.3-.42.68-.7,1.14-.86.34-.11.65-.12.94-.05.29.07.54.21.74.41.2.2.34.45.41.74.07.29.05.61-.05.94-.09.25-.29.56-.6.93-.31.37-.65.75-1.03,1.14-.38.39-.76.75-1.13,1.07-.37.33-.67.58-.9.76.62.67,1.23,1.35,1.83,2.04.6.69,1.21,1.38,1.83,2.07.26.3.52.57.76.81.24.24.45.53.62.86.14.28.19.57.13.88-.05.3-.17.56-.36.78-.19.22-.42.38-.69.49-.27.11-.57.11-.89.03-.3-.09-.59-.25-.88-.49-.28-.24-.55-.5-.81-.78-.26-.28-.5-.57-.73-.88-.23-.3-.44-.56-.64-.77-.48-.55-.95-1.09-1.42-1.63-.47-.54-.95-1.06-1.45-1.58v4.61c-.11.58-.34,1-.69,1.26Z"/>
    <path d="M328.02,78.44c-.35-.09-.66-.24-.92-.45-.26-.21-.43-.46-.53-.74-.1-.28-.1-.57,0-.88.1-.3.31-.57.65-.82.28-.21.6-.32.96-.32h1.03c0-.12,0-.39-.03-.81-.02-.42-.02-.87-.01-1.37,0-.49.04-.97.09-1.42s.15-.76.29-.94c.35-.49.79-.73,1.31-.7.52.03.95.28,1.29.76.07.09.14.19.2.32.06.12.09.24.09.34.02.64.02,1.27.01,1.91,0,.64-.01,1.27-.01,1.91h2.09c.32,0,.59.11.82.32.23.21.39.46.49.74.1.28.12.57.08.88-.04.3-.18.55-.41.74-.41.34-.88.51-1.42.53-.54.02-1.09.03-1.66.03,0,.97,0,1.95-.01,2.92,0,.97,0,1.95.01,2.92,0,.42.02.86.07,1.3.04.44.01.87-.09,1.27-.09.32-.24.57-.45.76-.21.19-.45.3-.72.34-.27.04-.54.03-.82-.05-.28-.08-.55-.23-.8-.44-.12-.12-.22-.34-.28-.64-.06-.3-.1-.62-.12-.95-.02-.39-.02-.8,0-1.25v-1.38c0-.57,0-1.15-.01-1.76,0-.61-.01-1.19-.01-1.74v-1.3l-1.19-.03Z"/>
    <path d="M336.02,80.94c.12-.51.3-1.02.52-1.51.22-.49.49-.97.81-1.42.32-.45.68-.86,1.07-1.23.4-.37.83-.67,1.29-.9.81-.42,1.63-.64,2.45-.65.82,0,1.59.16,2.29.49.71.34,1.31.84,1.8,1.5.5.66.82,1.45.98,2.37.09.6.14,1.17.15,1.71,0,.54-.05,1.1-.17,1.68-.18.83-.53,1.66-1.07,2.48-.54.82-1.18,1.51-1.94,2.07s-1.57.92-2.47,1.1c-.89.18-1.79.04-2.69-.42-.41-.19-.77-.42-1.1-.68-.33-.26-.62-.56-.89-.91-.3-.39-.54-.8-.7-1.22s-.3-.87-.41-1.33c-.12-.49-.17-.99-.13-1.5s.1-.99.19-1.47l.03-.16ZM339.21,81.49c-.05.28-.1.56-.13.84-.04.27-.04.55,0,.84.05.41.16.78.33,1.11.17.34.39.6.66.8.27.19.59.3.94.3.35,0,.73-.1,1.14-.33.51-.3.95-.76,1.33-1.39.37-.63.6-1.28.69-1.96.09-.68.02-1.33-.21-1.94-.23-.61-.68-1.05-1.35-1.31-.44,0-.85.08-1.22.25-.37.17-.69.39-.97.66s-.51.6-.72.97c-.2.37-.37.76-.49,1.17Z"/>
    <path d="M355.89,79.69v-.37c-.16-.41-.42-.69-.77-.86-.35-.17-.73-.27-1.14-.3-.23.07-.42.15-.56.24-.14.09-.27.19-.37.29-.11.11-.2.23-.29.36-.09.13-.19.27-.32.41v6.95c0,.55-.16.98-.49,1.29-.33.31-.69.49-1.09.53-.4.04-.76-.05-1.1-.29-.34-.24-.51-.64-.53-1.21-.04-1.36-.05-2.91-.04-4.64,0-1.73.01-3.67.01-5.81,0-.37.11-.68.33-.93.22-.25.49-.42.8-.5.31-.09.63-.08.96.01.33.1.6.3.81.6.99-.49,1.98-.65,2.96-.46.98.19,1.87.65,2.67,1.39.35-.35.73-.67,1.14-.95.41-.28.85-.47,1.33-.56.55-.09,1.1-.07,1.66.07.56.13,1.07.35,1.55.65.48.3.9.67,1.26,1.11.36.44.63.92.81,1.43.09.35.13.67.13.95v7.21c0,.21-.03.42-.08.61-.16.46-.41.78-.76.97-.34.19-.7.25-1.06.2-.36-.05-.68-.22-.94-.5-.27-.28-.4-.66-.4-1.14v-7.13c-.16-.42-.39-.73-.69-.93-.3-.19-.61-.28-.93-.27-.32.02-.62.13-.92.34s-.53.5-.7.88v6.95c0,.48-.15.88-.46,1.19-.31.32-.65.52-1.02.61-.37.09-.72.05-1.05-.11-.33-.16-.52-.48-.57-.95l-.13-7.32Z"/>
    <path d="M367.21,80.94c.12-.51.3-1.02.52-1.51.22-.49.49-.97.81-1.42.32-.45.68-.86,1.07-1.23.4-.37.83-.67,1.29-.9.81-.42,1.63-.64,2.45-.65.82,0,1.59.16,2.29.49.71.34,1.31.84,1.8,1.5.49.66.82,1.45.98,2.37.09.6.14,1.17.15,1.71,0,.54-.05,1.1-.17,1.68-.18.83-.53,1.66-1.07,2.48-.54.82-1.18,1.51-1.94,2.07s-1.57.92-2.47,1.1c-.89.18-1.79.04-2.69-.42-.41-.19-.77-.42-1.1-.68-.33-.26-.62-.56-.89-.91-.3-.39-.54-.8-.7-1.22s-.3-.87-.41-1.33c-.12-.49-.17-.99-.13-1.5.04-.5.1-.99.19-1.47l.03-.16ZM370.39,81.49c-.05.28-.1.56-.13.84-.04.27-.04.55,0,.84.05.41.16.78.33,1.11.17.34.39.6.66.8.27.19.59.3.94.3.35,0,.73-.1,1.14-.33.51-.3.95-.76,1.33-1.39.37-.63.6-1.28.69-1.96.09-.68.02-1.33-.21-1.94-.23-.61-.68-1.05-1.35-1.31-.44,0-.85.08-1.22.25-.37.17-.69.39-.97.66-.27.27-.51.6-.72.97-.2.37-.37.76-.49,1.17Z"/>
    <path d="M381,79.09c.02-.11,0-.32-.03-.62-.28-.16-.5-.36-.66-.61-.16-.25-.25-.51-.28-.8-.03-.28.03-.55.16-.81.13-.26.35-.47.65-.65.41-.23.85-.27,1.34-.13.49.14.91.35,1.26.64.44-.34.9-.62,1.38-.85.48-.23.96-.38,1.46-.46s1-.07,1.51.04,1.02.33,1.51.66c.25.16.48.36.69.6.21.24.34.51.4.81.09.44.05.83-.11,1.15-.16.33-.38.57-.66.72-.28.15-.6.19-.96.13-.35-.06-.69-.25-1.01-.57-.11-.07-.18-.13-.23-.17-.04-.04-.14-.1-.28-.17-.28-.07-.56-.05-.83.05-.27.11-.54.25-.8.44-.26.19-.5.39-.72.61-.22.22-.42.42-.6.6v6.76c0,.27-.05.52-.16.77-.16.41-.41.69-.76.85s-.69.2-1.03.13c-.34-.07-.65-.25-.9-.53-.26-.28-.38-.65-.38-1.09v-7.43c0,.07,0,.05.03-.07Z"/>
    <path d="M392.77,79.09c.02-.11,0-.32-.03-.62-.28-.16-.5-.36-.66-.61-.16-.25-.25-.51-.28-.8-.03-.28.03-.55.16-.81.13-.26.35-.47.65-.65.41-.23.85-.27,1.34-.13.49.14.91.35,1.26.64.44-.34.9-.62,1.38-.85.48-.23.96-.38,1.46-.46.49-.08,1-.07,1.51.04.51.11,1.02.33,1.51.66.25.16.48.36.69.6.21.24.34.51.4.81.09.44.05.83-.11,1.15-.16.33-.38.57-.66.72-.28.15-.6.19-.95.13-.35-.06-.69-.25-1.01-.57-.11-.07-.18-.13-.23-.17-.04-.04-.14-.1-.28-.17-.28-.07-.56-.05-.84.05-.27.11-.54.25-.8.44-.26.19-.5.39-.72.61-.22.22-.42.42-.6.6v6.76c0,.27-.05.52-.16.77-.16.41-.41.69-.76.85s-.69.2-1.03.13c-.34-.07-.65-.25-.9-.53-.26-.28-.38-.65-.38-1.09v-7.43c0,.07,0,.05.03-.07Z"/>
    <path d="M402.27,80.94c.12-.51.3-1.02.52-1.51.22-.49.49-.97.81-1.42.32-.45.68-.86,1.07-1.23.4-.37.83-.67,1.29-.9.81-.42,1.63-.64,2.45-.65.82,0,1.59.16,2.29.49.71.34,1.31.84,1.8,1.5.49.66.82,1.45.98,2.37.09.6.14,1.17.15,1.71,0,.54-.05,1.1-.17,1.68-.18.83-.54,1.66-1.07,2.48-.54.82-1.18,1.51-1.94,2.07-.75.56-1.57.92-2.47,1.1-.89.18-1.79.04-2.69-.42-.41-.19-.77-.42-1.1-.68s-.62-.56-.89-.91c-.3-.39-.53-.8-.7-1.22-.17-.42-.31-.87-.41-1.33-.12-.49-.17-.99-.13-1.5s.1-.99.19-1.47l.03-.16ZM405.45,81.49c-.05.28-.1.56-.13.84-.04.27-.04.55,0,.84.05.41.16.78.33,1.11.17.34.39.6.66.8.27.19.59.3.94.3.35,0,.73-.1,1.14-.33.51-.3.96-.76,1.33-1.39.37-.63.6-1.28.69-1.96.09-.68.02-1.33-.21-1.94-.23-.61-.68-1.05-1.35-1.31-.44,0-.85.08-1.22.25-.37.17-.69.39-.97.66-.27.27-.51.6-.72.97-.2.37-.37.76-.49,1.17Z"/>
    <path d="M429.16,75.82c.27-.35.57-.6.92-.73s.67-.16.97-.08.56.26.77.54c.21.28.33.66.34,1.14.02.27-.09.74-.33,1.43-.24.69-.53,1.59-.86,2.71-.02.07-.05.16-.09.27-.04.11-.11.28-.19.53s-.19.59-.34,1.03c-.15.44-.36,1.03-.62,1.78-.12.37-.28.81-.46,1.33-.19.51-.42.97-.7,1.37s-.62.67-1.01.82c-.39.15-.86.04-1.41-.33-.18-.12-.37-.38-.58-.76-.21-.38-.42-.79-.61-1.23-.19-.44-.37-.86-.52-1.26-.15-.4-.25-.66-.31-.78-.12-.28-.27-.6-.42-.94-.16-.34-.31-.69-.45-1.05l-.16.4c-.23.58-.46,1.17-.69,1.75-.23.58-.46,1.16-.69,1.72-.12.3-.24.63-.34.98-.11.35-.26.66-.45.93-.16.23-.36.39-.6.49-.24.1-.48.14-.73.12-.25-.02-.48-.08-.7-.2-.22-.11-.41-.28-.57-.49-.25-.35-.44-.76-.58-1.22-.14-.46-.28-.88-.42-1.27-.19-.55-.37-1.11-.53-1.68-.16-.57-.33-1.13-.5-1.66-.09-.28-.2-.65-.34-1.11-.14-.46-.28-.93-.41-1.42-.13-.49-.24-.96-.32-1.42-.08-.46-.11-.84-.09-1.14.02-.3.12-.57.31-.81.19-.24.41-.42.68-.53.27-.11.54-.15.84-.12.29.04.55.17.78.4.34.35.54.73.61,1.13.07.4.15.83.24,1.29.14.71.3,1.41.49,2.09s.38,1.38.6,2.07c.07-.16.15-.35.24-.58.09-.23.23-.57.42-1.03.16-.39.31-.77.46-1.14s.3-.74.44-1.11c.11-.27.21-.53.32-.78.11-.26.21-.51.32-.76.12-.27.31-.48.54-.65.24-.17.5-.27.78-.32.28-.04.56-.02.82.08.26.1.48.28.64.54.23.35.41.75.53,1.18.12.43.26.84.4,1.23.25.64.49,1.28.73,1.92.24.65.49,1.28.76,1.9.39-1.06.73-2.13,1.03-3.2.3-1.07.63-2.13.98-3.2l.11-.16Z"/>
    <path d="M437.14,85.81c0,.44-.1.82-.3,1.13-.2.31-.46.54-.76.7s-.63.24-.99.25c-.36,0-.7-.05-1.02-.19s-.59-.34-.81-.62c-.22-.28-.35-.65-.38-1.09-.04-.46.05-.84.25-1.15.2-.31.46-.54.78-.7s.66-.24,1.03-.25c.37,0,.72.05,1.05.19s.6.34.82.64c.22.29.33.66.33,1.1Z"/>
  </g>
  <g>
    <path d="M158.61,275.48c.42.12.74.35.95.68.21.33.31.67.31,1.02,0,.35-.12.69-.33.99-.21.31-.52.51-.93.6v4.61c0,.44-.11.84-.33,1.18-.22.34-.49.59-.81.73-.32.14-.65.17-1.01.09-.35-.08-.67-.31-.96-.7-.12-.18-.21-.38-.25-.61-.04-.23-.07-.44-.07-.64v-4.59h-6.18v4.51c0,.19-.02.39-.05.6-.04.2-.1.38-.19.54-.23.42-.52.7-.88.82-.35.12-.7.12-1.03-.01-.34-.13-.62-.36-.86-.69-.24-.33-.36-.73-.36-1.21v-13.71c0-.46.14-.86.41-1.19.27-.34.59-.57.94-.7.35-.13.71-.14,1.07-.03.36.12.63.39.81.84.05.14.09.27.11.38.02.11.03.24.03.38v5.99h6.18v-5.68c0-.35.08-.69.24-1.01.19-.39.47-.66.83-.82s.72-.2,1.06-.13c.34.07.65.24.9.52.26.27.38.65.38,1.13v6.1Z"/>
    <path d="M172.85,283.35c.14.51.11.94-.08,1.27-.19.34-.46.56-.81.68-.35.11-.72.1-1.13-.04-.41-.14-.76-.42-1.06-.85-.5.37-.98.63-1.45.78-.47.15-1,.23-1.6.25-.9.04-1.71-.07-2.41-.3-.71-.24-1.3-.6-1.79-1.07-.49-.48-.84-1.07-1.07-1.79-.23-.72-.31-1.54-.24-2.48.04-.39.1-.77.2-1.14.1-.37.21-.73.33-1.09.14-.39.34-.8.6-1.25.26-.44.52-.82.78-1.14.95-1.17,2.15-2.01,3.58-2.52.25-.09.58-.17,1.01-.24.42-.07.85-.1,1.29-.09.43,0,.85.07,1.25.17.4.11.69.29.89.56.16.21.27.4.34.56.07.16.11.33.12.5,0,.18,0,.37,0,.57,0,.2-.01.46-.01.76,0,.5,0,.98-.01,1.45,0,.47,0,.94.01,1.42v.62c0,.26,0,.53.03.81.02.28.04.55.07.81.03.26.07.46.12.62l1.06,2.17ZM167.23,282.16c.19-.12.42-.26.66-.41.25-.15.47-.32.66-.52-.16-.94-.25-1.87-.28-2.81-.03-.94-.02-1.88.01-2.84-.8.14-1.51.49-2.15,1.03-.64.55-1.08,1.19-1.33,1.94-.11.3-.19.61-.27.93-.07.32-.1.63-.08.93.02.41.12.75.32,1.02.19.27.43.48.7.62.27.14.57.22.88.24.31.02.6-.03.86-.13Z"/>
    <path d="M177.49,285.06c-.35.26-.72.38-1.1.36-.38-.02-.72-.17-1.01-.46-.29-.29-.44-.69-.44-1.21v-14.74c0-.41.16-.75.48-1.03.32-.28.67-.46,1.06-.53.39-.07.75,0,1.09.19.34.19.52.56.56,1.09.07.92.1,1.82.09,2.69,0,.88-.02,1.75-.04,2.64.65-.44,1.33-.74,2.04-.89.71-.15,1.39-.15,2.04.01.65.16,1.26.48,1.83.95.57.48,1.02,1.14,1.38,1.99.25.57.42,1.17.5,1.82.09.65.14,1.3.15,1.96,0,.66,0,1.32-.03,1.98-.03.65-.04,1.27-.04,1.86,0,.37-.1.71-.29,1.01-.19.3-.44.52-.73.66-.29.14-.6.19-.93.13-.33-.05-.62-.25-.89-.58-.27-.35-.43-.77-.49-1.25s-.08-.99-.05-1.52c.03-.54.07-1.09.12-1.66.05-.57.07-1.11.04-1.63-.03-.52-.13-1-.31-1.45-.18-.44-.49-.8-.93-1.09-.35-.05-.67-.03-.95.07-.28.1-.54.24-.77.44-.23.19-.45.42-.65.66-.2.25-.41.5-.62.74-.05.09-.12.17-.19.25-.07.08-.15.16-.24.25v5.04c-.11.58-.34,1-.69,1.26Z"/>
    <path d="M199.82,283.35c.14.51.11.94-.08,1.27-.19.34-.46.56-.81.68-.34.11-.72.1-1.13-.04-.41-.14-.76-.42-1.06-.85-.5.37-.98.63-1.45.78-.47.15-1,.23-1.6.25-.9.04-1.71-.07-2.41-.3-.71-.24-1.3-.6-1.79-1.07-.49-.48-.84-1.07-1.07-1.79-.23-.72-.31-1.54-.24-2.48.04-.39.1-.77.2-1.14.1-.37.21-.73.33-1.09.14-.39.34-.8.6-1.25.26-.44.52-.82.78-1.14.95-1.17,2.15-2.01,3.58-2.52.25-.09.58-.17,1.01-.24.42-.07.85-.1,1.29-.09.43,0,.85.07,1.25.17.4.11.69.29.89.56.16.21.27.4.34.56.07.16.11.33.12.5,0,.18,0,.37,0,.57,0,.2-.01.46-.01.76,0,.5,0,.98-.01,1.45,0,.47,0,.94.01,1.42v.62c0,.26,0,.53.03.81.02.28.04.55.07.81.03.26.07.46.12.62l1.06,2.17ZM194.2,282.16c.19-.12.42-.26.66-.41.25-.15.47-.32.66-.52-.16-.94-.25-1.87-.28-2.81-.03-.94-.02-1.88.01-2.84-.8.14-1.51.49-2.15,1.03-.64.55-1.08,1.19-1.33,1.94-.11.3-.2.61-.27.93-.07.32-.1.63-.08.93.02.41.12.75.32,1.02.19.27.43.48.7.62.27.14.57.22.88.24.31.02.6-.03.86-.13Z"/>
    <path d="M211.17,278.18c.12-.51.3-1.02.52-1.51.22-.49.49-.97.81-1.42.32-.45.68-.86,1.07-1.23.4-.37.83-.67,1.29-.9.81-.42,1.63-.64,2.45-.65.82,0,1.59.16,2.29.49.71.34,1.31.84,1.8,1.5s.82,1.45.98,2.37c.09.6.14,1.17.15,1.71,0,.54-.05,1.1-.17,1.68-.18.83-.54,1.66-1.07,2.48-.54.82-1.18,1.51-1.94,2.07s-1.57.92-2.47,1.1c-.89.18-1.79.04-2.69-.42-.41-.19-.77-.42-1.1-.68-.33-.26-.62-.56-.89-.91-.3-.39-.54-.8-.7-1.22-.17-.42-.31-.87-.41-1.33-.12-.49-.17-.99-.13-1.5.04-.5.1-.99.19-1.47l.03-.16ZM214.35,278.74c-.05.28-.1.56-.13.84-.04.27-.04.55,0,.84.05.41.16.78.33,1.11.17.34.39.6.66.8.27.19.59.3.94.3.35,0,.73-.1,1.14-.33.51-.3.95-.76,1.33-1.39.37-.63.6-1.28.69-1.96.09-.68.02-1.33-.21-1.94-.23-.61-.68-1.05-1.35-1.31-.44,0-.85.08-1.22.25-.37.17-.69.39-.97.66-.27.27-.51.6-.72.97-.2.37-.37.76-.49,1.17Z"/>
    <path d="M226.68,284.93c-.35.26-.72.38-1.1.36-.38-.02-.72-.17-1.01-.46-.29-.29-.44-.69-.44-1.21v-15.12c0-.27.08-.51.23-.73.15-.22.34-.4.57-.54.23-.14.48-.23.76-.28.27-.04.53-.04.76.03.23.06.43.19.6.4.17.2.26.48.28.84.05,1.38.08,2.62.08,3.71s0,2.2-.03,3.31c.41-.3.79-.61,1.15-.94.36-.33.72-.67,1.07-1.02.32-.34.63-.71.93-1.13.3-.42.68-.7,1.14-.86.34-.11.65-.12.94-.05.29.07.54.21.74.41.2.2.34.45.41.74.07.29.05.61-.05.94-.09.25-.29.56-.6.93-.31.37-.65.75-1.03,1.14-.38.39-.76.75-1.13,1.07-.37.33-.67.58-.9.76.62.67,1.23,1.35,1.83,2.04s1.21,1.38,1.83,2.07c.27.3.52.57.76.81.24.24.45.53.62.86.14.28.19.57.13.88-.05.3-.17.56-.36.78s-.42.38-.69.49c-.27.11-.57.11-.89.03-.3-.09-.59-.25-.88-.49-.28-.24-.55-.5-.81-.78-.26-.28-.5-.57-.73-.88-.23-.3-.44-.56-.64-.77-.48-.55-.95-1.09-1.42-1.63-.47-.54-.95-1.06-1.45-1.58v4.61c-.11.58-.34,1-.69,1.26Z"/>
    <path d="M239.01,281.84c.21-.35.48-.59.8-.72.32-.12.64-.15.95-.09.32.06.6.22.84.46.24.25.38.57.41.98.04.28-.01.55-.15.8-.13.25-.25.5-.36.74-.27.58-.53,1.17-.81,1.76-.27.59-.57,1.16-.89,1.71-.2.34-.45.56-.77.68-.32.11-.64.14-.95.07-.32-.07-.6-.23-.84-.48-.24-.25-.37-.57-.38-.95l2.15-4.96Z"/>
    <path d="M258.11,282.87c.19.18.36.4.49.68.13.27.2.55.21.82,0,.27-.05.53-.19.77-.13.24-.37.42-.7.54-.27.09-.56.11-.88.05s-.63-.16-.94-.32c-.31-.16-.58-.35-.82-.57-.24-.22-.41-.46-.52-.73-.04-.09-.06-.19-.08-.3-.02-.11-.03-.22-.03-.3v-14.72c0-.41.15-.75.46-1.03.31-.28.65-.45,1.02-.5.18-.02.37,0,.57.08.2.07.39.17.57.3.18.13.32.29.44.46.11.18.17.36.17.56v1.83c0,.76,0,1.59.01,2.49,0,.9.01,1.83.01,2.8s0,1.89-.01,2.77c0,.88-.01,1.69-.01,2.43s0,1.32-.03,1.76l.24.13Z"/>
    <path d="M270.17,280.96c.42-.11.8-.11,1.13-.01.33.1.58.26.76.49.18.23.26.51.24.85-.02.34-.17.69-.45,1.06-.23.3-.55.56-.95.77-.41.21-.79.38-1.14.5-.87.32-1.69.54-2.47.66-.78.12-1.51.12-2.19,0-.68-.12-1.32-.38-1.91-.77s-1.14-.94-1.66-1.64c-.35-.48-.61-1.02-.78-1.63-.17-.61-.26-1.23-.28-1.87-.02-.64.04-1.26.16-1.88.12-.62.3-1.18.53-1.67.3-.62.78-1.18,1.43-1.7.65-.51,1.38-.92,2.17-1.22.8-.3,1.61-.47,2.44-.52.83-.04,1.56.08,2.2.38.53.25.99.61,1.37,1.07.38.47.64.98.78,1.52.14.55.15,1.1.04,1.66-.12.56-.4,1.07-.86,1.52-.44.44-.93.8-1.46,1.07-.53.27-1.08.51-1.64.72-.57.2-1.15.38-1.74.52-.59.14-1.16.3-1.71.48.37.42.8.69,1.27.81.48.12.98.14,1.5.07.52-.07,1.05-.22,1.58-.44.53-.22,1.03-.46,1.49-.73l.16-.08ZM264.82,276.4c-.41.23-.71.52-.9.86-.19.34-.34.83-.42,1.45.46-.14.98-.29,1.55-.45.57-.16,1.12-.33,1.63-.5.51-.18.95-.37,1.3-.58.35-.21.53-.44.53-.69,0-.14-.02-.28-.07-.41-.04-.13-.14-.23-.28-.28-.5-.18-1.01-.21-1.54-.11s-.97.26-1.33.45l-.48.27Z"/>
    <path d="M274.68,275.69c-.35-.09-.66-.24-.92-.45s-.43-.46-.53-.74c-.1-.28-.1-.57,0-.88.1-.3.31-.57.65-.82.28-.21.6-.32.95-.32h1.03c0-.12,0-.39-.03-.81-.02-.42-.02-.87-.01-1.37,0-.49.04-.97.09-1.42.05-.45.15-.76.29-.94.35-.49.79-.73,1.31-.7.52.03.95.28,1.29.76.07.09.14.19.2.32.06.12.09.24.09.34.02.64.02,1.27.01,1.91s-.01,1.27-.01,1.91h2.1c.32,0,.59.11.82.32s.39.46.49.74c.1.28.12.57.08.88-.04.3-.18.55-.41.74-.41.34-.88.51-1.42.53-.54.02-1.09.03-1.66.03,0,.97,0,1.94-.01,2.92,0,.97,0,1.95.01,2.92,0,.42.02.86.07,1.3.04.44.01.87-.09,1.27-.09.32-.24.57-.45.76-.21.19-.45.3-.72.34-.27.04-.54.03-.82-.05s-.55-.23-.8-.44c-.12-.12-.22-.34-.28-.64-.06-.3-.1-.62-.12-.95-.02-.39-.02-.8,0-1.25v-1.38c0-.57,0-1.15-.01-1.76s-.01-1.19-.01-1.74v-1.3l-1.19-.03Z"/>
    <path d="M286.08,265.8c.21-.35.48-.59.8-.72.32-.12.63-.15.94-.09.31.06.58.22.82.46.24.25.38.57.41.98.02.27-.02.55-.12.85-.1.3-.22.6-.37.9-.15.3-.31.59-.48.88-.17.28-.31.53-.41.74-.14.28-.27.56-.38.84-.12.27-.25.54-.41.81-.25.44-.57.69-.97.76-.4.06-.77,0-1.11-.16-.34-.17-.61-.43-.8-.78-.19-.35-.19-.73-.01-1.14.09-.35.24-.72.45-1.09.21-.37.4-.72.56-1.03.18-.35.34-.7.5-1.03.16-.34.32-.67.48-1.01l.11-.16Z"/>
    <path d="M286.22,282.74c-.11-.3-.15-.6-.13-.89s.09-.56.23-.8c.13-.24.32-.42.57-.56.25-.13.55-.18.9-.15.19.02.37.07.53.16.16.09.3.19.44.32.13.12.27.26.4.4.13.14.27.27.41.37.3.23.62.4.95.5.34.11.69.19,1.06.24.25,0,.45-.06.6-.19.15-.12.25-.27.31-.45.05-.18.07-.37.04-.57-.03-.2-.09-.37-.2-.49-.3-.3-.67-.49-1.1-.58-.43-.09-.84-.19-1.21-.32-.53-.18-1.05-.4-1.56-.68-.51-.27-.93-.65-1.25-1.13-.34-.49-.53-1.02-.6-1.58s-.02-1.1.13-1.63c.15-.53.4-1.02.76-1.46.35-.44.78-.8,1.27-1.09.37-.21.78-.35,1.22-.41.44-.06.89-.07,1.34-.04.45.04.9.12,1.34.25.44.13.85.28,1.22.44.42.19.74.47.95.82.21.35.31.71.31,1.07,0,.36-.13.68-.37.94s-.59.4-1.05.4c-.28,0-.54-.05-.77-.15-.23-.1-.47-.19-.72-.28-.32-.12-.66-.21-1.03-.25-.37-.04-.67-.02-.9.07-.07.02-.15.08-.24.17-.09.1-.15.22-.2.36-.04.14-.05.28-.03.42.03.14.12.26.28.34.42.23.88.41,1.35.53.48.12.95.27,1.41.42.46.16.89.36,1.29.61.4.25.73.6.99,1.06.39.67.59,1.38.6,2.11,0,.73-.14,1.42-.44,2.06s-.74,1.18-1.33,1.63c-.58.45-1.26.72-2.04.81-.55.05-1.09.02-1.62-.09-.53-.12-1.04-.3-1.54-.56-.5-.26-.96-.56-1.38-.91-.42-.35-.8-.72-1.11-1.11l-.08-.16Z"/>
    <path d="M309.66,275.69c-.35-.09-.66-.24-.92-.45-.26-.21-.43-.46-.53-.74-.1-.28-.1-.57,0-.88.1-.3.31-.57.65-.82.28-.21.6-.32.95-.32h1.03c0-.12,0-.39-.03-.81-.02-.42-.02-.87-.01-1.37,0-.49.04-.97.09-1.42.05-.45.15-.76.29-.94.35-.49.79-.73,1.31-.7.52.03.95.28,1.29.76.07.09.14.19.2.32.06.12.09.24.09.34.02.64.02,1.27.01,1.91,0,.64-.01,1.27-.01,1.91h2.1c.32,0,.59.11.82.32.23.21.39.46.49.74.1.28.12.57.08.88-.04.3-.18.55-.41.74-.41.34-.88.51-1.42.53-.54.02-1.09.03-1.66.03,0,.97,0,1.94-.01,2.92,0,.97,0,1.95.01,2.92,0,.42.02.86.07,1.3.04.44.01.87-.09,1.27-.09.32-.24.57-.45.76s-.45.3-.72.34c-.26.04-.54.03-.82-.05-.28-.08-.55-.23-.79-.44-.12-.12-.22-.34-.28-.64-.06-.3-.1-.62-.12-.95-.02-.39-.02-.8,0-1.25v-1.38c0-.57,0-1.15-.01-1.76,0-.61-.01-1.19-.01-1.74v-1.3l-1.19-.03Z"/>
    <path d="M328.81,283.35c.14.51.11.94-.08,1.27s-.46.56-.81.68c-.34.11-.72.1-1.13-.04-.41-.14-.76-.42-1.06-.85-.5.37-.98.63-1.45.78-.47.15-1,.23-1.6.25-.9.04-1.71-.07-2.41-.3-.71-.24-1.3-.6-1.79-1.07-.49-.48-.84-1.07-1.07-1.79-.23-.72-.31-1.54-.24-2.48.04-.39.1-.77.2-1.14.1-.37.21-.73.33-1.09.14-.39.34-.8.6-1.25.26-.44.52-.82.78-1.14.95-1.17,2.15-2.01,3.58-2.52.25-.09.58-.17,1.01-.24.42-.07.85-.1,1.29-.09.43,0,.85.07,1.25.17.4.11.69.29.89.56.16.21.27.4.34.56.07.16.11.33.12.5,0,.18,0,.37,0,.57,0,.2-.01.46-.01.76,0,.5,0,.98-.01,1.45,0,.47,0,.94.01,1.42v.62c0,.26,0,.53.03.81.02.28.04.55.07.81.03.26.07.46.12.62l1.06,2.17ZM323.18,282.16c.19-.12.42-.26.66-.41.25-.15.47-.32.66-.52-.16-.94-.25-1.87-.28-2.81-.03-.94-.02-1.88.01-2.84-.8.14-1.51.49-2.15,1.03-.64.55-1.08,1.19-1.33,1.94-.11.3-.19.61-.27.93-.07.32-.1.63-.08.93.02.41.12.75.32,1.02.19.27.43.48.7.62.27.14.57.22.88.24.31.02.6-.03.86-.13Z"/>
    <path d="M334.4,282.87c.19.18.36.4.49.68.13.27.2.55.21.82,0,.27-.05.53-.19.77-.13.24-.37.42-.7.54-.27.09-.56.11-.88.05-.32-.05-.63-.16-.94-.32-.31-.16-.58-.35-.82-.57-.24-.22-.41-.46-.52-.73-.04-.09-.06-.19-.08-.3-.02-.11-.03-.22-.03-.3v-14.72c0-.41.15-.75.46-1.03.31-.28.65-.45,1.02-.5.18-.02.37,0,.57.08.2.07.39.17.57.3s.32.29.44.46c.11.18.17.36.17.56v1.83c0,.76,0,1.59.01,2.49,0,.9.01,1.83.01,2.8s0,1.89-.01,2.77c0,.88-.01,1.69-.01,2.43s0,1.32-.03,1.76l.24.13Z"/>
    <path d="M341.06,284.93c-.35.26-.72.38-1.1.36-.38-.02-.72-.17-1.01-.46-.29-.29-.44-.69-.44-1.21v-15.12c0-.27.07-.51.23-.73.15-.22.34-.4.57-.54.23-.14.48-.23.76-.28.27-.04.53-.04.76.03.23.06.43.19.6.4.17.2.26.48.28.84.05,1.38.08,2.62.08,3.71s0,2.2-.03,3.31c.41-.3.79-.61,1.15-.94.36-.33.72-.67,1.07-1.02.32-.34.63-.71.93-1.13.3-.42.68-.7,1.14-.86.34-.11.65-.12.94-.05.29.07.54.21.74.41.2.2.34.45.41.74.07.29.05.61-.05.94-.09.25-.29.56-.6.93-.31.37-.65.75-1.03,1.14-.38.39-.76.75-1.13,1.07-.37.33-.67.58-.9.76.62.67,1.23,1.35,1.83,2.04s1.21,1.38,1.83,2.07c.27.3.52.57.76.81.24.24.45.53.62.86.14.28.19.57.13.88-.05.3-.17.56-.36.78s-.42.38-.69.49c-.27.11-.57.11-.89.03-.3-.09-.59-.25-.88-.49-.28-.24-.55-.5-.81-.78-.26-.28-.5-.57-.73-.88-.23-.3-.44-.56-.64-.77-.48-.55-.95-1.09-1.42-1.63-.47-.54-.95-1.06-1.45-1.58v4.61c-.11.58-.34,1-.69,1.26Z"/>
    <path d="M363.36,275.69c-.35-.09-.66-.24-.92-.45-.26-.21-.43-.46-.53-.74-.1-.28-.1-.57,0-.88.1-.3.31-.57.65-.82.28-.21.6-.32.95-.32h1.03c0-.12,0-.39-.03-.81-.02-.42-.02-.87-.01-1.37,0-.49.04-.97.09-1.42.05-.45.15-.76.29-.94.35-.49.79-.73,1.31-.7.52.03.95.28,1.29.76.07.09.14.19.2.32.06.12.09.24.09.34.02.64.02,1.27.01,1.91,0,.64-.01,1.27-.01,1.91h2.1c.32,0,.59.11.82.32.23.21.39.46.49.74.1.28.12.57.08.88-.04.3-.18.55-.41.74-.41.34-.88.51-1.42.53-.54.02-1.09.03-1.66.03,0,.97,0,1.94-.01,2.92,0,.97,0,1.95.01,2.92,0,.42.02.86.07,1.3.04.44.01.87-.09,1.27-.09.32-.24.57-.45.76s-.45.3-.72.34c-.26.04-.54.03-.82-.05-.28-.08-.55-.23-.79-.44-.12-.12-.22-.34-.28-.64-.06-.3-.1-.62-.12-.95-.02-.39-.02-.8,0-1.25v-1.38c0-.57,0-1.15-.01-1.76,0-.61-.01-1.19-.01-1.74v-1.3l-1.19-.03Z"/>
    <path d="M371.37,278.18c.12-.51.3-1.02.52-1.51.22-.49.49-.97.81-1.42.32-.45.68-.86,1.07-1.23.4-.37.83-.67,1.29-.9.81-.42,1.63-.64,2.45-.65.82,0,1.59.16,2.29.49.71.34,1.31.84,1.8,1.5.49.66.82,1.45.98,2.37.09.6.14,1.17.15,1.71,0,.54-.05,1.1-.17,1.68-.18.83-.54,1.66-1.07,2.48s-1.18,1.51-1.94,2.07c-.75.56-1.57.92-2.47,1.1-.89.18-1.79.04-2.69-.42-.41-.19-.77-.42-1.1-.68s-.62-.56-.89-.91c-.3-.39-.53-.8-.7-1.22-.17-.42-.31-.87-.41-1.33-.12-.49-.17-.99-.13-1.5s.1-.99.19-1.47l.03-.16ZM374.55,278.74c-.05.28-.1.56-.13.84-.04.27-.04.55,0,.84.05.41.16.78.33,1.11.17.34.39.6.66.8.27.19.59.3.94.3.35,0,.73-.1,1.14-.33.51-.3.96-.76,1.33-1.39.37-.63.6-1.28.69-1.96.09-.68.02-1.33-.21-1.94-.23-.61-.68-1.05-1.35-1.31-.44,0-.85.08-1.22.25-.37.17-.69.39-.97.66-.27.27-.51.6-.72.97-.2.37-.37.76-.49,1.17Z"/>
    <path d="M391.23,276.93v-.37c-.16-.41-.42-.69-.77-.86-.35-.17-.73-.27-1.14-.3-.23.07-.42.15-.56.24-.14.09-.27.19-.37.29-.11.11-.2.23-.29.36s-.19.27-.32.41v6.95c0,.55-.16.98-.49,1.29-.33.31-.69.49-1.09.53-.4.04-.77-.05-1.1-.29-.34-.24-.51-.64-.53-1.21-.04-1.36-.05-2.91-.04-4.64,0-1.73.01-3.67.01-5.81,0-.37.11-.68.33-.93.22-.25.49-.42.8-.5.31-.09.63-.08.95.01s.6.3.81.6c.99-.49,1.98-.65,2.96-.46.98.19,1.87.65,2.67,1.39.35-.35.73-.67,1.14-.95.41-.28.85-.47,1.33-.56.55-.09,1.1-.07,1.66.07s1.07.35,1.55.65c.48.3.9.67,1.26,1.11.36.44.63.92.81,1.43.09.35.13.67.13.95v7.21c0,.21-.03.42-.08.61-.16.46-.41.78-.76.97-.34.19-.7.25-1.06.2s-.68-.22-.94-.5c-.27-.28-.4-.66-.4-1.14v-7.13c-.16-.42-.39-.73-.69-.93-.3-.19-.61-.28-.93-.27-.32.02-.62.13-.92.34-.29.21-.53.5-.7.88v6.95c0,.48-.16.88-.46,1.19-.31.32-.65.52-1.02.61-.37.09-.72.05-1.05-.11-.33-.16-.52-.48-.57-.95l-.13-7.32Z"/>
    <path d="M402.56,278.18c.12-.51.3-1.02.52-1.51.22-.49.49-.97.81-1.42.32-.45.68-.86,1.07-1.23.4-.37.83-.67,1.29-.9.81-.42,1.63-.64,2.45-.65.82,0,1.59.16,2.29.49.71.34,1.31.84,1.8,1.5s.82,1.45.98,2.37c.09.6.14,1.17.15,1.71,0,.54-.05,1.1-.17,1.68-.18.83-.53,1.66-1.07,2.48-.54.82-1.18,1.51-1.94,2.07s-1.57.92-2.47,1.1c-.89.18-1.79.04-2.69-.42-.41-.19-.77-.42-1.1-.68-.33-.26-.62-.56-.89-.91-.3-.39-.54-.8-.7-1.22s-.3-.87-.41-1.33c-.12-.49-.17-.99-.13-1.5s.1-.99.19-1.47l.03-.16ZM405.74,278.74c-.05.28-.1.56-.13.84-.04.27-.04.55,0,.84.05.41.16.78.33,1.11.17.34.39.6.66.8.27.19.59.3.94.3.35,0,.73-.1,1.14-.33.51-.3.95-.76,1.33-1.39.37-.63.6-1.28.69-1.96.09-.68.02-1.33-.21-1.94-.23-.61-.68-1.05-1.35-1.31-.44,0-.85.08-1.22.25-.37.17-.69.39-.97.66-.27.27-.51.6-.72.97-.2.37-.37.76-.49,1.17Z"/>
    <path d="M416.34,276.34c.02-.11,0-.32-.03-.62-.28-.16-.5-.36-.66-.61-.16-.25-.25-.51-.28-.8-.03-.28.03-.55.16-.81.13-.26.35-.47.65-.65.41-.23.85-.27,1.34-.13.49.14.91.35,1.26.64.44-.34.9-.62,1.38-.85.48-.23.96-.38,1.46-.46.49-.08,1-.07,1.51.04.51.11,1.02.33,1.51.66.25.16.48.36.69.6.21.24.34.51.4.81.09.44.05.83-.11,1.15-.16.33-.38.57-.66.72-.28.15-.6.19-.95.13-.35-.06-.69-.25-1.01-.57-.11-.07-.18-.13-.23-.17-.04-.04-.14-.1-.28-.17-.28-.07-.56-.05-.84.05-.27.11-.54.25-.8.44s-.5.39-.72.61c-.22.22-.42.42-.6.6v6.76c0,.27-.05.52-.16.77-.16.41-.41.69-.76.85-.34.16-.69.2-1.03.13-.34-.07-.65-.25-.9-.53-.26-.28-.38-.65-.38-1.09v-7.43c0,.07,0,.05.03-.07Z"/>
    <path d="M428.12,276.34c.02-.11,0-.32-.03-.62-.28-.16-.5-.36-.66-.61-.16-.25-.25-.51-.28-.8-.03-.28.03-.55.16-.81.13-.26.35-.47.65-.65.41-.23.85-.27,1.34-.13.49.14.91.35,1.26.64.44-.34.9-.62,1.38-.85.48-.23.96-.38,1.46-.46s1-.07,1.51.04c.51.11,1.02.33,1.51.66.25.16.48.36.69.6.21.24.34.51.4.81.09.44.05.83-.11,1.15-.16.33-.38.57-.66.72-.28.15-.6.19-.96.13-.35-.06-.69-.25-1.01-.57-.11-.07-.18-.13-.23-.17-.04-.04-.14-.1-.28-.17-.28-.07-.56-.05-.83.05-.27.11-.54.25-.8.44s-.5.39-.72.61c-.22.22-.42.42-.6.6v6.76c0,.27-.05.52-.16.77-.16.41-.41.69-.76.85s-.69.2-1.03.13c-.34-.07-.65-.25-.9-.53-.26-.28-.38-.65-.38-1.09v-7.43c0,.07,0,.05.03-.07Z"/>
    <path d="M437.61,278.18c.12-.51.3-1.02.52-1.51.22-.49.49-.97.81-1.42.32-.45.68-.86,1.07-1.23.4-.37.83-.67,1.29-.9.81-.42,1.63-.64,2.45-.65.82,0,1.59.16,2.29.49.71.34,1.31.84,1.8,1.5s.82,1.45.98,2.37c.09.6.14,1.17.15,1.71,0,.54-.05,1.1-.17,1.68-.18.83-.53,1.66-1.07,2.48-.54.82-1.18,1.51-1.94,2.07s-1.57.92-2.47,1.1c-.89.18-1.79.04-2.69-.42-.41-.19-.77-.42-1.1-.68-.33-.26-.62-.56-.89-.91-.3-.39-.54-.8-.7-1.22s-.3-.87-.41-1.33c-.12-.49-.17-.99-.13-1.5s.1-.99.19-1.47l.03-.16ZM440.8,278.74c-.05.28-.1.56-.13.84-.04.27-.04.55,0,.84.05.41.16.78.33,1.11.17.34.39.6.66.8.27.19.59.3.94.3.35,0,.73-.1,1.14-.33.51-.3.95-.76,1.33-1.39.37-.63.6-1.28.69-1.96.09-.68.02-1.33-.21-1.94-.23-.61-.68-1.05-1.35-1.31-.44,0-.85.08-1.22.25-.37.17-.69.39-.97.66-.27.27-.51.6-.72.97-.2.37-.37.76-.49,1.17Z"/>
    <path d="M464.5,273.06c.27-.35.57-.6.92-.73s.67-.16.97-.08c.3.08.56.26.77.54.21.28.33.66.34,1.14.02.27-.09.74-.33,1.43-.24.69-.53,1.59-.86,2.71-.02.07-.05.16-.09.27-.04.11-.11.28-.19.53-.08.25-.19.59-.34,1.03-.15.44-.36,1.03-.62,1.78-.12.37-.28.81-.46,1.33-.19.51-.42.97-.7,1.37-.28.4-.62.67-1.01.82-.39.15-.86.04-1.41-.33-.18-.12-.37-.38-.58-.76-.21-.38-.42-.79-.61-1.23-.19-.44-.37-.86-.52-1.26-.15-.4-.25-.66-.3-.78-.12-.28-.27-.6-.42-.94s-.31-.69-.45-1.05l-.16.4c-.23.58-.46,1.17-.69,1.75-.23.58-.46,1.16-.69,1.72-.12.3-.24.63-.34.98-.11.35-.26.66-.45.93-.16.23-.36.39-.6.49-.24.1-.48.14-.73.12-.25-.02-.48-.08-.7-.2-.22-.12-.41-.28-.57-.49-.25-.35-.44-.76-.58-1.22-.14-.46-.28-.88-.42-1.27-.19-.55-.37-1.11-.53-1.68-.16-.57-.33-1.13-.5-1.66-.09-.28-.2-.65-.34-1.11-.14-.46-.28-.93-.41-1.42-.13-.49-.24-.96-.32-1.42-.08-.46-.11-.84-.09-1.14.02-.3.12-.57.3-.81.19-.24.41-.42.68-.53.26-.11.54-.15.83-.12.29.04.55.17.78.4.34.35.54.73.61,1.13.07.4.15.83.24,1.29.14.71.31,1.41.49,2.09.19.69.38,1.38.6,2.07.07-.16.15-.35.24-.58.09-.23.23-.57.42-1.03.16-.39.31-.77.46-1.14.15-.37.3-.74.44-1.11.11-.27.21-.53.32-.78.11-.26.21-.51.32-.76.12-.27.31-.48.54-.65.24-.17.5-.27.78-.32.28-.04.56-.02.82.08.27.1.48.28.64.54.23.35.41.75.53,1.18.12.43.26.84.4,1.23.25.64.49,1.28.73,1.92.24.65.49,1.28.76,1.9.39-1.06.73-2.13,1.03-3.2.3-1.07.63-2.13.98-3.2l.11-.16Z"/>
    <path d="M480.63,275.69c-.35-.09-.66-.24-.92-.45-.26-.21-.43-.46-.53-.74-.1-.28-.1-.57,0-.88.1-.3.31-.57.65-.82.28-.21.6-.32.96-.32h1.03c0-.12,0-.39-.03-.81-.02-.42-.02-.87-.01-1.37,0-.49.04-.97.09-1.42.05-.45.15-.76.29-.94.35-.49.79-.73,1.31-.7.52.03.95.28,1.29.76.07.09.14.19.2.32.06.12.09.24.09.34.02.64.02,1.27.01,1.91s-.01,1.27-.01,1.91h2.09c.32,0,.59.11.82.32.23.21.39.46.49.74.1.28.12.57.08.88-.04.3-.18.55-.41.74-.41.34-.88.51-1.42.53-.54.02-1.09.03-1.66.03,0,.97,0,1.94-.01,2.92,0,.97,0,1.95.01,2.92,0,.42.02.86.07,1.3.04.44.01.87-.09,1.27-.09.32-.24.57-.45.76s-.45.3-.72.34c-.27.04-.54.03-.82-.05-.28-.08-.55-.23-.8-.44-.12-.12-.22-.34-.28-.64-.06-.3-.1-.62-.12-.95-.02-.39-.02-.8,0-1.25v-1.38c0-.57,0-1.15-.01-1.76s-.01-1.19-.01-1.74v-1.3l-1.19-.03Z"/>
    <path d="M492.93,285.06c-.35.26-.72.38-1.1.36-.38-.02-.72-.17-1.01-.46s-.44-.69-.44-1.21v-14.74c0-.41.16-.75.48-1.03.32-.28.67-.46,1.06-.53.39-.07.75,0,1.09.19.34.19.52.56.56,1.09.07.92.1,1.82.09,2.69,0,.88-.02,1.75-.04,2.64.65-.44,1.33-.74,2.04-.89.71-.15,1.39-.15,2.04.01.65.16,1.26.48,1.83.95.57.48,1.02,1.14,1.38,1.99.25.57.42,1.17.5,1.82.09.65.14,1.3.15,1.96,0,.66,0,1.32-.03,1.98-.03.65-.04,1.27-.04,1.86,0,.37-.1.71-.29,1.01-.19.3-.44.52-.73.66-.29.14-.6.19-.93.13s-.62-.25-.89-.58c-.27-.35-.43-.77-.49-1.25-.06-.48-.08-.99-.05-1.52.03-.54.07-1.09.12-1.66.05-.57.07-1.11.04-1.63-.03-.52-.13-1-.31-1.45-.18-.44-.49-.8-.93-1.09-.35-.05-.67-.03-.95.07-.28.1-.54.24-.77.44-.23.19-.45.42-.65.66-.2.25-.41.5-.62.74-.05.09-.12.17-.19.25-.07.08-.15.16-.24.25v5.04c-.11.58-.34,1-.69,1.26Z"/>
    <path d="M513.3,280.96c.42-.11.8-.11,1.13-.01.33.1.58.26.76.49.18.23.26.51.24.85-.02.34-.17.69-.45,1.06-.23.3-.55.56-.95.77s-.79.38-1.14.5c-.87.32-1.69.54-2.47.66-.78.12-1.51.12-2.19,0-.68-.12-1.32-.38-1.91-.77-.59-.39-1.15-.94-1.66-1.64-.35-.48-.61-1.02-.78-1.63-.17-.61-.26-1.23-.28-1.87s.04-1.26.16-1.88c.12-.62.3-1.18.53-1.67.3-.62.78-1.18,1.43-1.7.65-.51,1.38-.92,2.17-1.22.8-.3,1.61-.47,2.44-.52.83-.04,1.56.08,2.2.38.53.25.99.61,1.37,1.07.38.47.64.98.78,1.52.14.55.15,1.1.04,1.66-.12.56-.4,1.07-.86,1.52-.44.44-.93.8-1.46,1.07-.53.27-1.08.51-1.64.72-.57.2-1.14.38-1.74.52-.59.14-1.16.3-1.71.48.37.42.8.69,1.27.81.48.12.98.14,1.5.07.52-.07,1.05-.22,1.58-.44.53-.22,1.02-.46,1.48-.73l.16-.08ZM507.94,276.4c-.41.23-.71.52-.9.86-.19.34-.34.83-.42,1.45.46-.14.98-.29,1.55-.45.57-.16,1.12-.33,1.63-.5.51-.18.95-.37,1.3-.58s.53-.44.53-.69c0-.14-.02-.28-.07-.41-.04-.13-.14-.23-.28-.28-.5-.18-1.01-.21-1.54-.11-.53.11-.97.26-1.33.45l-.48.27Z"/>
    <path d="M527.46,283.83c-.05.44-.22.8-.49,1.09-.27.28-.58.46-.93.53-.34.07-.68.03-.99-.13s-.55-.47-.69-.93c-.16-.49-.22-1.01-.19-1.55.04-.54.05-1.04.05-1.5,0-.95,0-1.91.01-2.85,0-.95-.03-1.9-.12-2.85-.02-.04-.04-.07-.05-.09-.02-.03-.05-.07-.11-.12-.41-.11-.84-.08-1.3.08-.46.16-.85.36-1.17.61-.28.23-.56.54-.84.94s-.41.78-.41,1.15v3.66c0,.28,0,.59.03.93.02.34,0,.66-.04.98-.04.32-.15.61-.31.88-.16.27-.42.46-.77.58-.19.07-.38.1-.54.08-.17-.02-.35-.06-.54-.13-.32-.11-.55-.29-.69-.54-.14-.26-.24-.53-.29-.82-.05-.29-.08-.57-.07-.85,0-.27.01-.49.01-.65,0-.41,0-.99-.01-1.76,0-.77-.01-1.58-.01-2.43v-4.19c0-.39.12-.71.34-.97.23-.26.5-.42.81-.5.31-.08.64-.06.98.05s.63.35.86.7c.71-.46,1.48-.77,2.33-.93s1.65-.13,2.4.08,1.38.61,1.88,1.19.76,1.39.78,2.41c0,.04,0,.14.03.32.02.18.03.42.03.74v6.79Z"/>
  </g>
  <path d="M22.3,4.06S6.44,1.22,5.49,22.52c-.85,19.09-.69,113.79-1.34,129.98-.65,16.19,1.12,30.14.47,43.24-.65,13.11.05,86.41,1.35,97.98,1.3,11.56-4.46,31.53,3.01,32.3,7.47.77,57.73.46,70.08.46s58.15,2.47,72.44.93c14.29-1.54,38.86-.02,59.77-.39,9.86-.17,62.69.16,73.41.16s150.73-1.93,164.04-.77c13.32,1.16,50.79,2,65.73,1.23,14.94-.77,63.99-.61,68.54-1,4.55-.39,12.36-3.04,11.69-17.73-.99-21.95,3.14-79.64.54-91.2-2.6-11.56-.19-36.69.45-50.18.65-13.49,2.6-76.7,2.6-88.27s1.3-30.44,0-42.39c-1.3-11.95,1.96-28.78-4.58-30.15-14.79-3.11-37.3-3.31-49.64-2.92s-75.71-.46-90.66-.46-57.82-1.93-77.31-1.16c-19.49.77-73.27,1.34-85.61,2.11-12.34.77-42.57-1.07-54.91.47-12.34,1.54-39.45-1.08-53.02-.47-25.51,1.13-47.02.86-66.51.47-19.49-.39-41.69.46-50.81-.28-9.42-.77-42.92-.43-42.92-.43Z" fill="none" stroke="#576f96" stroke-miterlimit="10" stroke-width="2"/>
</svg>