<?xml version="1.0" encoding="UTF-8"?>
<svg id="Layer_1" data-name="Layer 1" xmlns="http://www.w3.org/2000/svg" width="600" height="330" xmlns:xlink="http://www.w3.org/1999/xlink" viewBox="0 0 600 330">
  <defs>
    <linearGradient id="linear-gradient" x1="134.93" y1="236.6" x2="483.42" y2="236.6" gradientUnits="userSpaceOnUse">
      <stop offset="0" stop-color="#fffa3b"/>
      <stop offset=".03" stop-color="#fffa3b" stop-opacity=".96"/>
      <stop offset=".19" stop-color="#fffa3b" stop-opacity=".79"/>
      <stop offset=".35" stop-color="#fffa3b" stop-opacity=".65"/>
      <stop offset=".51" stop-color="#fffa3b" stop-opacity=".54"/>
      <stop offset=".68" stop-color="#fffa3b" stop-opacity=".46"/>
      <stop offset=".84" stop-color="#fffa3b" stop-opacity=".42"/>
      <stop offset="1" stop-color="#fffa3b" stop-opacity=".4"/>
    </linearGradient>
  </defs>
  <path d="M22.3,4.06S6.44,1.22,5.49,22.52c-.85,19.09-.69,113.79-1.34,129.98-.65,16.19,1.12,30.14.47,43.24-.65,13.11.05,86.41,1.35,97.98,1.3,11.56-4.46,31.53,3.01,32.3,7.47.77,57.73.46,70.08.46s58.15,2.47,72.44.93c14.29-1.54,38.86-.02,59.77-.39,9.86-.17,62.69.16,73.41.16s150.73-1.93,164.04-.77c13.32,1.16,50.79,2,65.73,1.23,14.94-.77,63.99-.61,68.54-1,4.55-.39,12.36-3.04,11.69-17.73-.99-21.95,3.14-79.64.54-91.2-2.6-11.56-.19-36.69.45-50.18.65-13.49,2.6-76.7,2.6-88.27s1.3-30.44,0-42.39c-1.3-11.95,1.96-28.78-4.58-30.15-14.79-3.11-37.3-3.31-49.64-2.92s-75.71-.46-90.66-.46-57.82-1.93-77.31-1.16c-19.49.77-73.27,1.34-85.61,2.11-12.34.77-42.57-1.07-54.91.47-12.34,1.54-39.45-1.08-53.02-.47-25.51,1.13-47.02.86-66.51.47-19.49-.39-41.69.46-50.81-.28-9.42-.77-42.92-.43-42.92-.43Z" fill="#1d253a"/>
  <g>
    <path d="M589.72,217.13c-3.88-2.4-7.86-4.66-11.92-6.75-10.4-5.36-20.79-4.46-30.92.71-4.87,2.48-9.73,5.12-14.16,8.29-8.8,6.3-18.78,7.28-29.11,8.09-9.01.7-18.04-.95-26.93.41-9.21,1.42-15.96,6.62-19.78,15.35-1.6,3.67-.54,6.65,2.02,9.34,4.38,4.6,10.08,6.98,15.83,9.2,3.09,1.2,6.37,1.95,8.73,4.52" fill="none" stroke="#2b3751" stroke-miterlimit="10" stroke-width="2"/>
    <path d="M567.5,271.52c-3.74,2.69-7.63,1.53-11.18-.07-9.74-4.39-15.1-12.2-16.45-22.73-1.02-7.94-4.62-12-12.35-13.84-11.68-2.78-19.02,2.86-23.16,12.72-1.67,3.97-3.36,7.93-4.82,11.97-.9,2.49-2.41,3.96-4.88,4.9-2.59.98-5.2,1.82-7.86,2.59-2.22.65-4.33,1.14-6.36-.41-1.81-1.38-4.06-.95-5.98-1.01-15.85-.46-29.73-6.26-42.59-15.05-4.97-3.4-10.13-6.28-16.03-7.96-4.27-1.22-8.33-.45-12.35.2-11.25,1.82-22.47,2.49-33.63-.16-5.82-1.38-11.49-3.36-17.2-5.18-10.52-3.36-19.81-1.43-28.45,5.56-9.97,8.07-20.03,16.06-30.96,22.85-6.55,4.07-13.08,8.18-20.93,9.32-.1.02-.3-.36-.36-.34-14.37,5.77-34.2,10.76-50.82,11.16-7.59.15-15.23-.46-22.78.18-5.71.48-10.78-1.2-16.09-2.36-1.81-.39-3.73-.32-5.6-.41-3.75-.19-6.41-2.73-9.29-4.57-4.31-2.76-5.12-7.5-6.1-12.23-2.95-14.2-9.81-25.96-21.94-34.43-6.59-4.6-13.9-6.98-21.7-8.16-6.81-1.03-13.61-2.12-20.55-1.18-2.59.35-4.99-.4-6.72-2.58-2.37-2.99-4.66-6.04-7.11-8.96-10.32-12.29-23.95-17.82-39.6-18.62-9.2-.47-18.29.74-26.91,4.38-.42.18-.99.04-1.48.02-4.52-.18-8.11,1.74-11.22,4.85" fill="none" stroke="#2b3751" stroke-miterlimit="10" stroke-width="2"/>
    <path d="M586.62,117.01c-2.41,3.62-6.7,4.33-10.45,5.57-9.45,3.13-18.87,1.37-28.39-.22-11.27-1.88-20.95-6.9-30.28-13.13-6.71-4.48-14.1-7.71-22.37-6.67-7.16.9-14.22,2.59-21.31,4.03-6.06,1.22-12.15,2.17-18.31,2.6-.5.03-1.07.17-1.48-.02-5.58-2.57-10.74.56-16.08,1.15" fill="none" stroke="#2b3751" stroke-miterlimit="10" stroke-width="2"/>
    <path d="M291.69,3.89c-1.97.93-3.77.46-5.65.64-8.66.85-17.22,1.86-24.7,7.06-3.19,2.22-5.69,4.84-7.44,8.27-3.85,7.56-.16,13.84,8.6,14.96,1,.13,2.15.32,2.98.24,4.28-.44,6.19,2.11,7.88,5.35,2.16,4.15,4.56,8.15,7.81,11.61,9.2,9.79,20.93,14.8,33.65,17.9,9.37,2.29,18.94,2.06,28.38,1.04,14.51-1.57,28.9-2.49,43.36.42,9.93,2,18.58,6.63,26.86,12.06,7.46,4.9,15.1,9.34,23.56,12.31,2.96,1.04,3.68,3.83,2.69,6.72-2.14,6.19-6.38,8.71-12.77,8.6-18.82-.3-32.32,9.35-43.34,23.51-2.23,2.87-4.69,5.6-6.68,8.63-2.89,4.4-7.11,6.03-12,6.71-7.79,1.07-15.53,2.43-22.78,5.61-12.02,5.28-23.7,11.09-31,22.78-1.27,2.03-2.36,4.18-3.36,6.35-1.28,2.78-3.35,3.92-6.38,3.75-3.86-.22-7.72-.3-11.58-.39-10.96-.26-20.56,3.48-29.13,10.1-3.3,2.54-6.58,5.11-9.7,7.86-5.14,4.52-10.83,6.23-17.59,4.48-14.31-3.7-28.14-1.47-41.86,3.29-13.57,4.7-26.11,11.08-37.01,20.56-2.4,2.09-4.83,3.96-4.82,7.51" fill="none" stroke="#2b3751" stroke-miterlimit="10" stroke-width="2"/>
    <path d="M162.02,5.7c4.12,1.79,8.71,2.48,13.03,3.85,10.81,3.45,20.26,8.58,26.28,18.96,3.17,5.48,4.72,11.28,5.79,17.27,1.54,8.6,6.63,13.59,14.61,16.5,6.7,2.44,13.51,4.58,20.24,6.92,16.94,5.88,26.62,17.81,30.56,34.87.69,3,1.67,5.88,3.07,8.56,3.04,5.79,8.74,7.19,14.53,8.22,3.35.6,6.77.81,10.08,1.55,10.48,2.36,17.13,8.95,20.58,19.01,1.18,3.43,1.94,7.05,4.09,10.09" fill="none" stroke="#2b3751" stroke-miterlimit="10" stroke-width="2"/>
    <path d="M470.72,303.65c-3.02,2.45-6.74,1.43-10.1,1.76-12.46,1.23-22.93,6.75-32.48,14.33" fill="none" stroke="#2b3751" stroke-miterlimit="10" stroke-width="2"/>
    <path d="M141.62,271.7c-3.87.45-7.58,2.14-11.58,1.49-5.08-.83-9.8-2.4-13.47-6.33-3.55-3.79-7.85-4.68-13.07-4.23-22.42,1.91-42.52-4.51-60.52-17.83-4.29-3.18-8.46-6.78-13.84-7.75" fill="none" stroke="#2b3751" stroke-miterlimit="10" stroke-width="2"/>
    <path d="M19.48,86.34c5.73,8.88,13.94,13.22,24.61,12.34,4.94-.41,9.48-1.8,13.11-5.56,4.38-4.54,9.33-8.26,15.65-9.79,1.2-.29,2.25-1.2,3.37-1.82" fill="none" stroke="#2b3751" stroke-miterlimit="10" stroke-width="2"/>
    <path d="M101.03,281.5c.02,2.39,1.34,4.07,2.99,5.61,7.58,7.07,13.28,15.55,17.09,25.07" fill="none" stroke="#2b3751" stroke-miterlimit="10" stroke-width="2"/>
    <path d="M591.84,315.37c-3.42-2.98-8.24-5.16-12.39-5.44-8.8-.6-17.05,1.93-25.39,3.91-3.03.72-5.28.51-7.92-1.15-4.81-3.01-9.6-6.07-14.87-8.36-10.63-4.62-20.37-1.77-29.89,3.11-2.43,1.25-4.39,3.41-6.79,4.73-2.12,1.17-4.14,1.91-6.8-.17-3.96-3.1-8.53-5.44-13.32-7.3-5.08-1.97-9.03-5.88-13.38-9.03-3.17-2.29-3.21-7.54-.82-10.69,4.58-6.02,9.98-11.02,17.54-13.1,2.13-.58,3.49-2.16,4.86-3.74" fill="none" stroke="#2b3751" stroke-miterlimit="10" stroke-width="2"/>
  </g>
  <path d="M82.55,142.13s4.45,12.73,9.85,16.54c5.65,4,26.52,12.98,31.81,11.86,6.52-1.38,21.93-6.52,23.71-30.43,2.14-28.83-53.58-27.23-65.37,2.03Z" fill="#2b3751"/>
  <path d="M82.38,143.54c-2.45-6.91-2.71-13.79-1.04-19.97.6-2.21,2.8-4.15,3.88-6.15,1.16-2.14,1.22-4.34,2.91-6.18,3.49-3.81,5.68-6.28,11.29-8.11,13.56-4.43,19.47,3.95,23.49,4.69,3.26.6,5.82,1.12,7.72,2.05,1.85.91.71,1.06,3.98,2.99,1.94,1.14,3.16,2.81,5.46,5.96,1.69,2.31,4.04,4.39,4.66,6.13,2.97,8.36,2.93,14.62.48,20.81-2.68,6.77-8.59,13.42-17.87,16.71s-18.93-1.54-27.13-5.94c-7.08-3.8-14.97-4.87-17.85-12.99Z" fill="#576f96"/>
  <path d="M139.25,135.42l-35.42-22.92-13.61,24.86,38.57,16.49c.79.34,2.24,1.25,3.86.21,4.47-2.87,7.84-11.09,8.08-14.61.24-3.57-.74-3.55-1.48-4.03Z" fill="#2b3751"/>
  <ellipse cx="96.43" cy="124.37" rx="14.81" ry="3.56" transform="translate(-58.74 150.65) rotate(-61.83)" fill="#2b3751"/>
  <path d="M134.11,144.45c-2.83,5.58-3.74,8.97-2.72,9.49s3.36-1.96,6.4-7.2c2.58-4.44,3.21-9.14,2.2-9.66-1.01-.52-3.56,2.78-5.88,7.37Z" fill="#435577"/>
  <line x1="135.67" y1="145.49" x2="482.67" y2="327.7" fill="none" stroke="url(#linear-gradient)" stroke-linecap="round" stroke-miterlimit="10" stroke-width="1.5"/>
  <g>
    <rect x="130.15" y="258.36" width="411.12" height="37.37" rx="18.68" ry="18.68" fill="#fff"/>
    <path d="M530.9,286.95s17.34,7.09,24.56,5.81l-18.79-18.99-5.77,13.17Z" fill="#fff"/>
  </g>
  <g>
    <rect x="125.58" y="60.57" width="327.48" height="37.37" rx="18.68" ry="18.68" fill="#fff"/>
    <path d="M158.78,97.08s-15.38,10.69-22.7,11.02l11.73-17.75,10.97,6.74Z" fill="#fff"/>
    <rect x="25.63" y="32.17" width="507.5" height="37.37" rx="18.68" ry="18.68" fill="#fff"/>
  </g>
  <text transform="translate(43.32 58.47)" font-family="ChalkboardSE-Bold, &apos;Chalkboard SE&apos;" font-size="24" font-weight="700"><tspan x="0" y="0">Haha, </tspan><tspan x="72.95" y="0" letter-spacing="-.01em">a</tspan><tspan x="86" y="0" letter-spacing="-.02em">r</tspan><tspan x="96.5" y="0">e</tspan><tspan x="109.66" y="0" letter-spacing="-.07em">n</tspan><tspan x="120.66" y="0" letter-spacing="-.16em">’</tspan><tspan x="124.14" y="0">t </tspan><tspan x="145.59" y="0" letter-spacing="-.03em">y</tspan><tspan x="158.32" y="0" letter-spacing=".03em">o</tspan><tspan x="171.29" y="0">u s</tspan><tspan x="205.31" y="0" letter-spacing=".02em">u</tspan><tspan x="218.89" y="0">p</tspan><tspan x="232.09" y="0" letter-spacing=".01em">p</tspan><tspan x="245.59" y="0" letter-spacing="0em">o</tspan><tspan x="258.05" y="0">s</tspan><tspan x="268.93" y="0" letter-spacing=".05em">e</tspan><tspan x="283.22" y="0" letter-spacing="0em">d </tspan><tspan x="307.56" y="0" letter-spacing="-.04em">t</tspan><tspan x="318.01" y="0">o be s</tspan><tspan x="388.1" y="0" letter-spacing="-.06em">l</tspan><tspan x="394.52" y="0" letter-spacing="0em">e</tspan><tspan x="407.67" y="0" letter-spacing=".02em">e</tspan><tspan x="421.23" y="0" letter-spacing="0em">pi</tspan><tspan x="440.96" y="0" letter-spacing=".02em">n</tspan><tspan x="454.11" y="0" letter-spacing="-.05em">g</tspan><tspan x="466.2" y="0">? </tspan><tspan x="92.3" y="28.8" letter-spacing="-.09em">Y</tspan><tspan x="104.76" y="28.8" letter-spacing=".03em">o</tspan><tspan x="117.73" y="28.8">u</tspan><tspan x="130.94" y="28.8" letter-spacing="-.11em">’</tspan><tspan x="135.6" y="28.8" letter-spacing="0em">v</tspan><tspan x="147.11" y="28.8">e </tspan><tspan x="170.21" y="28.8" letter-spacing=".02em">g</tspan><tspan x="183.95" y="28.8" letter-spacing="-.04em">o</tspan><tspan x="195.3" y="28.8">t </tspan><tspan x="216.75" y="28.8" letter-spacing="0em">w</tspan><tspan x="234.71" y="28.8" letter-spacing=".02em">o</tspan><tspan x="247.3" y="28.8" letter-spacing="0em">r</tspan><tspan x="258.36" y="28.8">k </tspan><tspan x="281.51" y="28.8" letter-spacing="-.04em">t</tspan><tspan x="291.96" y="28.8" letter-spacing=".03em">o</tspan><tspan x="304.93" y="28.8" letter-spacing="0em">m</tspan><tspan x="323.15" y="28.8" letter-spacing=".02em">o</tspan><tspan x="335.74" y="28.8" letter-spacing=".03em">r</tspan><tspan x="347.52" y="28.8" letter-spacing="-.01em">r</tspan><tspan x="358.2" y="28.8" letter-spacing=".02em">o</tspan><tspan x="371.01" y="28.8" letter-spacing="-.05em">w</tspan><tspan x="387.56" y="28.8" letter-spacing="-.05em">.</tspan></text>
  <text transform="translate(144.66 284.52)" font-family="ChalkboardSE-Bold, &apos;Chalkboard SE&apos;" font-size="24" font-weight="700"><tspan x="0" y="0">Haha ok, </tspan><tspan x="108.33" y="0" letter-spacing="-.06em">l</tspan><tspan x="114.75" y="0" letter-spacing="-.04em">e</tspan><tspan x="126.84" y="0">t</tspan><tspan x="138.35" y="0" letter-spacing="-.19em">’</tspan><tspan x="141" y="0" letter-spacing="0em">s </tspan><tspan x="161.82" y="0" letter-spacing="-.08em">t</tspan><tspan x="171.42" y="0" letter-spacing="0em">a</tspan><tspan x="184.63" y="0" letter-spacing="0em">lk </tspan><tspan x="215.52" y="0" letter-spacing="-.04em">t</tspan><tspan x="225.97" y="0" letter-spacing=".03em">o</tspan><tspan x="238.94" y="0" letter-spacing="0em">m</tspan><tspan x="257.15" y="0" letter-spacing=".02em">o</tspan><tspan x="269.75" y="0" letter-spacing=".03em">r</tspan><tspan x="281.52" y="0" letter-spacing="-.01em">r</tspan><tspan x="292.21" y="0" letter-spacing=".02em">o</tspan><tspan x="305.02" y="0">w then </tspan></text>
  <path d="M22.3,4.06S6.44,1.22,5.49,22.52c-.85,19.09-.69,113.79-1.34,129.98-.65,16.19,1.12,30.14.47,43.24-.65,13.11.05,86.41,1.35,97.98,1.3,11.56-4.46,31.53,3.01,32.3,7.47.77,57.73.46,70.08.46s58.15,2.47,72.44.93c14.29-1.54,38.86-.02,59.77-.39,9.86-.17,62.69.16,73.41.16s150.73-1.93,164.04-.77c13.32,1.16,50.79,2,65.73,1.23,14.94-.77,63.99-.61,68.54-1,4.55-.39,12.36-3.04,11.69-17.73-.99-21.95,3.14-79.64.54-91.2-2.6-11.56-.19-36.69.45-50.18.65-13.49,2.6-76.7,2.6-88.27s1.3-30.44,0-42.39c-1.3-11.95,1.96-28.78-4.58-30.15-14.79-3.11-37.3-3.31-49.64-2.92s-75.71-.46-90.66-.46-57.82-1.93-77.31-1.16c-19.49.77-73.27,1.34-85.61,2.11-12.34.77-42.57-1.07-54.91.47-12.34,1.54-39.45-1.08-53.02-.47-25.51,1.13-47.02.86-66.51.47-19.49-.39-41.69.46-50.81-.28-9.42-.77-42.92-.43-42.92-.43Z" fill="none" stroke="#576f96" stroke-miterlimit="10" stroke-width="2"/>
</svg>