<?xml version="1.0" encoding="UTF-8"?>
<svg id="Layer_1" data-name="Layer 1" xmlns="http://www.w3.org/2000/svg" width="600" height="580" xmlns:xlink="http://www.w3.org/1999/xlink" viewBox="0 0 600 580">
  <defs>
    <clipPath id="clippath">
      <rect x="-13.46" y="-7.05" width="626.92" height="594.09" fill="#fffef8"/>
    </clipPath>
  </defs>
  <rect x="-13.46" y="-7.05" width="626.92" height="594.09" fill="#fffef8"/>
  <g clip-path="url(#clippath)">
    <path d="M578.53,393.62c0,64.91-108.97,101.12-261.05,101.12S53.47,434.53,53.47,379.37c0-120.36,92.97,16.84,245.05,16.84s280-139.79,280-2.59Z" fill="#889dbf" opacity=".4"/>
    <path d="M344.16-261.66s-288.45.19-371.07,232.95C-109.54,204.06,42.37,490.79,296.74,490.79c277.51,0,386.26-142.1,393.75-357.33,7.48-215.23-100.8-373.84-346.33-395.12Z" fill="#f5faff" stroke="#889dbf" stroke-linecap="round" stroke-miterlimit="10" stroke-width="3.73"/>
    <path d="M343.53-251.66s-280.78.18-361.21,226.76C-98.11,201.68,49.76,480.79,297.38,480.79c270.14,0,376-138.32,383.28-347.83,7.29-209.51-98.12-363.9-337.13-384.62Z" fill="#dcecff"/>
    <path d="M268.31,472.4S-12.18,456.6-30.23,121.39C-48.27-213.83,337.22-303.75,520.07-195c182.85,108.75,156.33,347.91,153.24,386.19-3.09,38.28-80.85,326.11-405,281.21Z" fill="#dcecff"/>
    <path d="M540.31,368.21s-23.68-2.84-32.21,6.63c-8.53,9.47-84.5,48.75-201.97,44.01,0,0-13.08,6.2-8.34,14.72,0,0-17.05,23.68,16.11,23.68l12.5-5.64s56.66,2.8,62.34-.99c5.68-3.79,16.2-23.02,16.2-23.02l34.27-8.5s19.64,15.42,27.22,11.63c7.58-3.79,50.21-17.05,52.11-25.58,1.89-8.53,41.68-34.11,21.79-36.95Z" fill="#889dbf" opacity=".3"/>
    <path d="M306.32,417.01S40.89,432.42,20.84,153.39C-.24-139.99,332.01-216.02,480.84-126.97c148.83,89.05,165.13,319.11,120.78,400.88-44.35,81.77-82.52,143.46-295.3,143.1Z" fill="#889dbf" opacity=".3"/>
    <g>
      <path d="M520.54,316.1s-15.73-15.14-31.1-17.98c-15.37-2.84-27.56,4.49-27.56,4.49,0,0-4.14-2.48-6.39-.83-2.25,1.66-10.76,3.55-14.66,16.56-3.9,13.01-1.18,23.89-1.18,23.89,0,0-54.64,12.06-59.72,15.37-5.09,3.31-15.85,8.99-18.69,24.13-2.84,15.14-1.77,31.69-1.77,31.69l-24.56,4.17s-4.65-4.41-10.68-3.93-11.72,5.49-11.72,5.49c0,0-13.21,11.78-4.01,13.2,0,0-9.58,10.53-6.39,18.09,0,0,7.66,7.16,15.61-.95,0,0,1.89-5.2,10.05-4.02,8.16,1.18,34.18,3.67,40.8,1.3,6.62-2.37,19.54,2.79,22.02-24.06,0,0,10.49-.45,22.62-2.5,14.03-2.37,29.77-8.36,34.72-10.58,0,0,8.63,13.84,14.9,15.14,6.27,1.3,20.1-2.72,25.43-5.2,5.32-2.48,21.52-10.64,23.06-12.65,1.54-2.01,3.33-3.9,2.73-6.44-.6-2.54,5.31-2.78,7.79-5.62,2.48-2.84,12.65-13.36,10.64-28.74,0,0,10.88-28.62-11.94-50.02ZM498.19,402.19c-3.9,1.54-23.42,10.76-26.89,10.35-3.48-.41-6.34-10.47-6.34-10.47,2.6-1.42,19.16-9.7,19.16-9.7,15.26,2.96,18.57,1.54,18.57,1.54l3.72,3.06c-3.26.69-4.31,3.68-8.21,5.22Z" fill="#fff"/>
      <path d="M529.05,362.24s9.1,3-.02,22.92c-4.4,9.61-15.27,16.62-22.64,11.81-7.83-5.11-5.97-11.09,1.66-22.32,11.26-16.59,21-12.41,21-12.41Z" fill="#e293e2" stroke="#221a38" stroke-linecap="round" stroke-miterlimit="10" stroke-width="2.51"/>
      <path d="M525.99,321.39s17.29,19.84,5.53,46.54c-11.77,26.7-38.82,37.19-68.99,10.87-30.16-26.33-28.5-56.38-9.77-70.7s46.94-18.04,73.22,13.28Z" fill="#fff" stroke="#221a38" stroke-linecap="round" stroke-miterlimit="10" stroke-width="2.51"/>
      <path d="M492.79,317.06c2.13,4.05-3.23,11.68-3.23,11.68,0,0-.69,1.11-1.9,2.63,1.96,2.18,3.59,5.01,1.44,7.11-2.07,2.02-4.68.95-7.19-1.44-2.06,1.49-4.4,2.63-6.89,2.8-6.61.44-14.18-9.1-5.8-20.3,4.02-5.36,12.92-7.45,16.01-7.05,1.28.17,5.18.06,7.56,4.56Z" fill="#fff" stroke="#221a38" stroke-linecap="round" stroke-miterlimit="10" stroke-width="1.26"/>
      <path d="M459.04,301.38s8.05.38,6.83,20.46c-1.22,20.08-10.45,21.14-18.08,19.35-8.63-2.03-10.15-14.26-6.75-23.67,6.26-17.31,18-16.14,18-16.14Z" fill="#e293e2" stroke="#221a38" stroke-linecap="round" stroke-miterlimit="10" stroke-width="2.51"/>
      <path d="M490.87,346.68s10.18,11.59,4.94,21.98c-5.24,10.4-16.67,16.06-30.37,2.15-13.7-13.91-5.52-24.45.44-28.98,5.96-4.54,17.29-5.43,24.99,4.85Z" fill="#e293e2" stroke="#221a38" stroke-linecap="round" stroke-miterlimit="10" stroke-width="1.26"/>
      <path d="M482.09,357.4s5.16,5.17,8.59,1.16c3.36-3.93-3.8-7.74-3.8-7.74" fill="none" stroke="#221a38" stroke-linecap="round" stroke-miterlimit="10" stroke-width="1.26"/>
      <g>
        <path d="M501.69,352.39c2.51-1.94,5.26.39,7.17,2.78,1.39-1.22,7.57-7.69,13.56-5.09,2.35,1.02,6.51,4.65,6.6,8.36.09,3.74-3.32,12.23-8.34,17.15-9.99,9.8-20.89,2.49-21.33-4.12-.25-3.74,1.72-7.46,3.89-10.36-2.83-3.28-4.22-6.65-1.55-8.72Z" fill="none" stroke="#221a38" stroke-linecap="round" stroke-miterlimit="10" stroke-width="1.26"/>
        <path d="M512.88,362.48s2.43,2,3.15,3.92c.72,1.92-1.94.22-4.09-1.72-3.4-3.08-3.58-4.53-2.64-4.52,1.32,0,3.58,2.33,3.58,2.33Z" fill="#e293e2" stroke="#221a38" stroke-linecap="round" stroke-miterlimit="10" stroke-width=".84"/>
      </g>
      <path d="M479.1,324.17c.27.32,4.32,5.47,1.32,5.08s-5.15-5.58-5.15-5.58c0,0-.03-4.11,3.83.49Z" fill="#e293e2" stroke="#221a38" stroke-linecap="round" stroke-miterlimit="10" stroke-width=".84"/>
      <path d="M479.14,362.59s-2.13-2.44-4.1-.95c-1.97,1.49-2.45,2.92.13,5.1,1.9,1.61,4.02,1.85,4.88.51,1.77-2.76-.91-4.66-.91-4.66Z" fill="#221a38"/>
      <path d="M365.43,412.14l-30.52,5.45s-7.63-7.09-15.81-2.73-16.6,13.56-13.08,16.35c8.25,6.54,24.58-3.86,24.58-3.86l41.92.59-7.09-15.81Z" fill="#fff" stroke="#221a38" stroke-linecap="round" stroke-miterlimit="10" stroke-width="2.51"/>
      <path d="M439.72,342.52c-11.11,2.49-37.66,8.53-50.92,12.4-17.03,4.97-26.46,13.34-28.58,31.79-1.41,12.24-1.17,26.18-.85,34.18.15,3.73-2.58,6.95-6.28,7.41l-24.77,3.1c-1.5.19-3-.3-4.11-1.33-1.98-1.84-5.94-4.17-11.68-1.18-7.12,3.71-18.49,25.16-3.55,24.48,6.09-.28,8.72-3.79,11.44-6.5,1.29-1.29,3.11-1.91,4.92-1.68,9.36,1.18,42.17,4.76,53.71-1.04,16.46-8.29,9.4-43.64,9.4-43.64" fill="#fff" stroke="#221a38" stroke-linecap="round" stroke-miterlimit="10" stroke-width="2.51"/>
      <path d="M389.8,423.52c7.18-.71,28.5-3.04,38.74-6.69,37.68-13.46,53.86-23.02,56.4-24.58" fill="none" stroke="#221a38" stroke-linecap="round" stroke-miterlimit="10" stroke-width="2.51"/>
      <path d="M459.76,383.45s6.21,28.56,11.53,29.09c5.32.53,28.38-11.71,28.38-11.71,0,0,10.65-10.17,14.37-.35,1.95,5.14-7.98,9.76-10.11,10.64-2.13.89-34.41,20.75-45.77,10.47-11.35-10.29-17.03-25.54-17.03-25.54" fill="#fff" stroke="#221a38" stroke-linecap="round" stroke-miterlimit="10" stroke-width="2.51"/>
    </g>
    <g>
      <path d="M331,80.63c-3.37.11-8.35-.06-10.92,11.93-1.92,8.96-2.52,12.56-2.52,12.56,0,0-13.01,45.78-12.8,46.12s6.57,1.15,6.57,1.15l31.34-68.91s-6.27-3.03-11.67-2.85Z" fill="#f7bc00" stroke="#000" stroke-linecap="round" stroke-linejoin="round" stroke-width="1.49"/>
      <path d="M330.19,80.94l-3.7,11.66,5.17,1.68,4.94-12.62s-4.39-1.38-6.41-.71Z"/>
      <polygon points="325.28 95.7 332.37 97.32 309.46 152.34 306.44 152.18 325.28 95.7" fill="#ddd"/>
      <circle cx="328.7" cy="94.33" r="6.81" transform="translate(18.1 237.41) rotate(-40.75)"/>
      <polygon points="329.6 91.29 326.71 92.03 325.9 94.9 327.99 97.04 330.88 96.3 331.69 93.42 329.6 91.29" fill="#fff"/>
      <path d="M324.58,98.03s-18.2,53.7-18.01,53.55" fill="none" stroke="#221a38" stroke-linecap="round" stroke-miterlimit="10" stroke-width=".74"/>
      <path d="M331.23,99.4s-21.95,52.67-21.73,52.59" fill="none" stroke="#221a38" stroke-linecap="round" stroke-miterlimit="10" stroke-width=".74"/>
      <line x1="315.88" y1="124.05" x2="319.22" y2="127.8" fill="none" stroke="#221a38" stroke-linecap="round" stroke-miterlimit="10" stroke-width=".74"/>
      <line x1="312.57" y1="133.73" x2="315.4" y2="136.93" fill="none" stroke="#221a38" stroke-linecap="round" stroke-miterlimit="10" stroke-width=".74"/>
      <line x1="309.33" y1="143.49" x2="311.74" y2="146.26" fill="none" stroke="#221a38" stroke-linecap="round" stroke-miterlimit="10" stroke-width=".74"/>
      <line x1="320.23" y1="111.03" x2="324.17" y2="115.86" fill="none" stroke="#221a38" stroke-linecap="round" stroke-miterlimit="10" stroke-width=".74"/>
      <line x1="322.28" y1="104.75" x2="326.59" y2="109.97" fill="none" stroke="#221a38" stroke-linecap="round" stroke-miterlimit="10" stroke-width=".74"/>
      <path d="M328.04,118.29s-.02,0-.02,0c-2.54.11-4.31-.18-6.08-.87-.85-.34-.86-.71-1.29-.86-.36-.12-.92.13-1.78,0-3.4-.49-4.64-2.67-4.76-2.79-.41-.42-.43-1.12-.06-1.57.37-.44,1-.46,1.41-.04.07.07,4.32,4.27,12.45,3.91.55-.02,1.02.45,1.05,1.06.03.6-.38,1.11-.92,1.15Z" fill="#fff34a" stroke="#000" stroke-linecap="round" stroke-miterlimit="10" stroke-width=".89"/>
      <path d="M329.58,116.25s-.02,0-.03,0c-10.04.2-15.04-4.62-15.25-4.82-.44-.43-.44-1.13-.01-1.57.43-.43,1.13-.44,1.57-.01.04.04,1.65,1.41,4.12,2.39.28.11,1.08,1.11,1.39,1.21s1.29-.17,1.71-.16c2.01.03,3.64.8,6.43.75.61-.01,1.12.47,1.13,1.09.01.6-.46,1.1-1.06,1.13Z" fill="#fff34a" stroke="#000" stroke-linecap="round" stroke-miterlimit="10" stroke-width=".94"/>
      <g>
        <path d="M324.97,175.35c-.57,0-1.08-.38-1.23-.93-5.46-19.45-1.9-34.45.46-44.38,1.35-5.7,2.33-9.82,1.02-11.91-.54-.87-1.52-1.43-3.07-1.77-.69-.15-1.13-.84-.97-1.53.13-.59.64-1,1.25-1,.09,0,.19.01.28.03,2.23.49,3.76,1.45,4.68,2.91,1.88,3,.8,7.55-.7,13.86-2.29,9.67-5.76,24.29-.48,43.09.19.68-.21,1.39-.89,1.58-.11.03-.23.05-.35.05Z" fill="#fff34a"/>
        <path d="M324.97,175.35c-.57,0-1.08-.38-1.23-.93-5.46-19.45-1.9-34.45.46-44.38,1.35-5.7,2.33-9.82,1.02-11.91-.54-.87-1.52-1.43-3.07-1.77-.69-.15-1.13-.84-.97-1.53.13-.59.64-1,1.25-1,.09,0,.19.01.28.03,2.23.49,3.76,1.45,4.68,2.91,1.88,3,.8,7.55-.7,13.86-2.29,9.67-5.76,24.29-.48,43.09.19.68-.21,1.39-.89,1.58-.11.03-.23.05-.35.05Z" fill="none" stroke="#000" stroke-miterlimit="10" stroke-width=".61"/>
      </g>
      <g>
        <path d="M288.62,168.49c-.49,0-.94-.29-1.16-.73-4.25-8.87-1.79-30.11,7.65-43.16,5.6-7.76,13.01-11.86,21.41-11.86,1.15,0,2.33.08,3.52.23.34.04.64.22.85.49.21.27.3.61.26.95-.08.64-.63,1.12-1.27,1.12-.05,0-.11,0-.16-.01-1.07-.14-2.13-.21-3.17-.21-9.56,0-15.81,5.87-19.37,10.8-6.5,9-12.48,29.99-7.41,40.56.3.64.03,1.4-.6,1.71-.17.08-.36.13-.55.13Z" fill="#fff34a"/>
        <path d="M288.62,168.49c-.49,0-.94-.29-1.16-.73-4.25-8.87-1.79-30.11,7.65-43.16,5.6-7.76,13.01-11.86,21.41-11.86,1.15,0,2.33.08,3.52.23.34.04.64.22.85.49.21.27.3.61.26.95-.08.64-.63,1.12-1.27,1.12-.05,0-.11,0-.16-.01-1.07-.14-2.13-.21-3.17-.21-9.56,0-15.81,5.87-19.37,10.8-6.5,9-12.48,29.99-7.41,40.56.3.64.03,1.4-.6,1.71-.17.08-.36.13-.55.13Z" fill="none" stroke="#000" stroke-miterlimit="10" stroke-width=".61"/>
      </g>
      <g>
        <path d="M321.54,113.04s-.95,1.65-.94,3.95" fill="#fff34a" stroke="#000" stroke-linecap="round" stroke-miterlimit="10" stroke-width=".94"/>
        <g>
          <path d="M320.61,117.91c-.5,0-.91-.41-.91-.91-.01-2.47.95-4.22,1.06-4.41.16-.28.47-.46.79-.46.16,0,.32.04.45.12.44.25.59.81.34,1.24,0,.01-.83,1.5-.81,3.5,0,.49-.38.89-.87.92h-.04Z" fill="#fff34a"/>
          <path d="M321.54,112.6c.08,0,.15.02.22.06.21.12.29.39.16.61,0,.02-.89,1.58-.88,3.73,0,.24-.19.44-.42.45,0,0-.01,0-.02,0h0c-.24,0-.44-.2-.44-.44-.01-2.4.95-4.11,1-4.18.08-.14.23-.22.38-.22M321.54,111.66h0c-.49,0-.95.26-1.19.69-.12.2-1.14,2.05-1.12,4.65,0,.76.62,1.37,1.38,1.37h.1c.7-.03,1.28-.64,1.28-1.39-.01-1.86.75-3.25.76-3.27.37-.65.14-1.5-.51-1.88-.21-.12-.45-.18-.69-.18h0Z"/>
        </g>
      </g>
    </g>
    <path d="M528.75,328.05s-43.27,52.78-66.79,59.03c0,0,1.75,15.51,6,14.01,4.25-1.5,16.14-8.72,16.14-8.72,0,0,14.62,3.22,27.38-1.79,12.76-5,34.52-36.52,17.26-62.53Z" fill="#889dbf" opacity=".4"/>
    <path d="M442.95,400.34s-30.27,14.26-52.28,14.26c0,0-3.5,9.25,4.25,8.5,7.75-.75,54.28-7.75,51.53-16.51-2.75-8.75-3.5-6.25-3.5-6.25Z" fill="#889dbf" opacity=".4"/>
    <path d="M388.93,426.61s2.25,11.26-23.76,12.26c-26.01,1-43.52,0-45.52-.5s-14.07,10-10.66,15.01,12.67-8.29,18.79-7.89,60.41,11.65,61.16-18.87Z" fill="#889dbf" opacity=".4"/>
    <path d="M359.41,417.85s-22.26,5.25-29.27,5.5c-7,.25-15.76-2-23.01,2.5s.25,6.5,3.75,4.25c3.5-2.25,8.88-4.34,13.32-.04l6.39-2.7s24.56,1,25.56,0,3.25-3.5,3.25-9.51Z" fill="#889dbf" opacity=".4"/>
  </g>
</svg>