<?xml version="1.0" encoding="UTF-8"?>
<svg id="Layer_1" data-name="Layer 1" xmlns="http://www.w3.org/2000/svg" width="600" height="580" xmlns:xlink="http://www.w3.org/1999/xlink" viewBox="0 0 600 580">
  <defs>
    <clipPath id="clippath">
      <rect x="-682.93" y="-5.78" width="626.92" height="594.09" fill="#fffef8"/>
    </clipPath>
    <clipPath id="clippath-1">
      <rect x="-6.98" y="-6.75" width="613.96" height="593.5" fill="none"/>
    </clipPath>
  </defs>
  <g>
    <rect x="-682.93" y="-5.78" width="626.92" height="594.09" fill="#fffef8"/>
    <g clip-path="url(#clippath)">
      <path d="M-325.32-260.39s-288.45.19-371.07,232.95c-82.63,232.76,69.28,519.5,323.66,519.5C-95.22,492.06,13.53,349.96,21.02,134.73c7.48-215.23-100.8-373.84-346.33-395.12Z" fill="#f5faff" stroke="#889dbf" stroke-linecap="round" stroke-miterlimit="10" stroke-width="3.73"/>
      <path d="M-325.94-250.39s-280.78.18-361.21,226.76c-80.43,226.58,67.44,505.69,315.05,505.69C-101.96,482.06,3.9,343.73,11.19,134.23,18.47-75.28-86.93-229.68-325.94-250.39Z" fill="#dcecff"/>
      <path d="M-401.17,473.67s-280.49-15.8-298.53-351.02c-18.04-335.21,367.45-425.14,550.3-316.39C33.45-84.99,6.93,154.18,3.84,192.45c-3.09,38.28-80.85,326.11-405,281.21Z" fill="#dcecff"/>
    </g>
  </g>
  <g clip-path="url(#clippath-1)">
    <g>
      <rect x="-17" y="-21.18" width="633.35" height="613.96" fill="#ffffdc"/>
      <g>
        <path d="M84.21,301.68s23.16,104.16,67,185.48c38.59,71.58,72.81,116.76,72.81,116.76h388.74s0-199.48,0-199.48L84.21,301.68Z" fill="#cde1f9" stroke="#889dbf" stroke-linecap="round" stroke-miterlimit="10" stroke-width="3.85"/>
        <path d="M186.92,140.27S309.4-21.07,543.94,13.94c0,0,253.58-29.29,326.81,32.96,73.23,62.25,105.24,180.45-63.17,269.14-162.93,85.81-346.95,143.72-442.16,129.08-95.21-14.65-310-66.1-280.12-175.76,26.98-99.03,101.61-129.08,101.61-129.08Z" fill="#e9f4ff" stroke="#889dbf" stroke-linecap="round" stroke-miterlimit="10" stroke-width="3.85"/>
        <path d="M385.31,338.25l426.54-186.19s77.85-85.93,3.41-243.4c-74.43-157.47-225.32-13.42-244.24-.63-18.93,12.79-302.96,178.75-302.96,178.75l117.25,251.48Z" fill="#fffffd" stroke="#889dbf" stroke-linecap="round" stroke-miterlimit="10" stroke-width="3.01"/>
        <path d="M315.37,348.03s-110.44-19.39-102.94-144.79c7.51-125.4,85.9-136.33,144.45-133.64,58.55,2.68,106.24,96.9,94.97,162.65-24.36,142.08-136.48,115.79-136.48,115.79Z" fill="#bdd7ef" stroke="#889dbf" stroke-linecap="round" stroke-miterlimit="10" stroke-width="3.85"/>
        <path d="M512.58,276.28s-2.16-7.29-9.99.54c-7.83,7.83-8.1,19.18,0,21.61,8.1,2.43,14.05,2.43,15.4-5.4,1.35-7.83-2.97-7.83-5.4-16.75Z" fill="#eef7ff" stroke="#889dbf" stroke-linecap="round" stroke-miterlimit="10" stroke-width="3.01"/>
        <path d="M487.66,281.72s-.54-13.51-6.21-15.13c-5.67-1.62-22.15,3.51-19.18,22.15,2.97,18.64,29.17,14.05,25.39-7.02Z" fill="#eef7ff" stroke="#889dbf" stroke-linecap="round" stroke-miterlimit="10" stroke-width="3.01"/>
        <path d="M503.43,293.97s0-6.21-2.97-13.23c-2.97-7.02-14.59-7.56-19.18,1.89-4.59,9.45-9.72,22.42-3.78,27.28,5.94,4.86,14.59,4.05,19.18,1.35,4.59-2.7,9.45-2.16,6.75-17.29Z" fill="#eef7ff" stroke="#889dbf" stroke-linecap="round" stroke-miterlimit="10" stroke-width="3.01"/>
        <path d="M482.21,305.13s1.08-4.86-10.8-10.8c-11.88-5.94-21.34,10.53-17.56,17.56,3.78,7.02,12.96,5.94,15.67,5.67,0,0,14.86,2.16,12.69-12.42Z" fill="#eef7ff" stroke="#889dbf" stroke-linecap="round" stroke-miterlimit="10" stroke-width="3.01"/>
        <path d="M309.31,327.82s-84.98-32.58-79.99-131.42c5.6-110.95,74.12-130.4,124.64-127.84,50.52,2.57,110.45,92.7,100.63,155.58-23.76,152.13-145.28,103.68-145.28,103.68Z" fill="#cde1f9" stroke="#889dbf" stroke-linecap="round" stroke-miterlimit="10" stroke-width="3.85"/>
      </g>
      <path d="M334.83,211.37l-4.49,10.97c-23.78,58.12-67.22,106.04-122.74,135.39l-11.71,6.19-38.74,15.36C84.36,408.13,27.85,467.39,2.46,541.46l-8.96,26.14" fill="none" stroke="#ff0" stroke-linecap="round" stroke-miterlimit="10" stroke-width="4.09"/>
    </g>
  </g>
</svg>