<?xml version="1.0" encoding="UTF-8"?>
<svg id="Layer_1" data-name="Layer 1" xmlns="http://www.w3.org/2000/svg" width="600" height="400" viewBox="0 0 600 400">
  <rect x="-8.34" y="-6.36" width="616.69" height="412.53" fill="#2f3f70"/>
  <path d="M470.65,40.25c-15.91-1.68-39.25-5.75-59.16,48.96-14.89,40.91-20.06,57.43-20.06,57.43,0,0-91.15,206.85-90.37,208.59.78,1.74,30.17,9.7,30.17,9.7L523.7,61.3s-27.52-18.35-53.05-21.05Z" fill="#f7bc00" stroke="#000" stroke-linecap="round" stroke-linejoin="round" stroke-width="7.95"/>
  <path d="M466.64,41.15l-25.03,52.41,23.24,11.26,31.47-56.16s-19.74-9.36-29.68-7.51Z"/>
  <polygon points="433.89 107.35 466.18 119.63 322.44 363.45 308.34 360.72 433.89 107.35" fill="#ddd"/>
  <circle cx="450.87" cy="103.17" r="32.36" transform="translate(11.3 247.06) rotate(-31.02)"/>
  <polygon points="457.09 89.45 443.01 91.04 437.34 104.03 445.76 115.43 459.84 113.84 465.5 100.85 457.09 89.45" fill="#fff"/>
  <path d="M429.05,117.85s-120.73,240.72-119.71,240.11" fill="none" stroke="#000" stroke-linecap="round" stroke-miterlimit="10" stroke-width="3.53"/>
  <path d="M459.47,128.65s-137.71,233.42-136.61,233.17" fill="none" stroke="#000" stroke-linecap="round" stroke-miterlimit="10" stroke-width="3.53"/>
  <line x1="371.13" y1="234.59" x2="384.41" y2="254.42" fill="none" stroke="#000" stroke-linecap="round" stroke-miterlimit="10" stroke-width="3.53"/>
  <line x1="349.24" y1="277.97" x2="360.46" y2="294.84" fill="none" stroke="#000" stroke-linecap="round" stroke-miterlimit="10" stroke-width="3.53"/>
  <line x1="327.61" y1="321.75" x2="337.16" y2="336.34" fill="none" stroke="#000" stroke-linecap="round" stroke-miterlimit="10" stroke-width="3.53"/>
  <line x1="400.1" y1="176.2" x2="415.49" y2="201.5" fill="none" stroke="#000" stroke-linecap="round" stroke-miterlimit="10" stroke-width="3.53"/>
  <line x1="413.84" y1="147.98" x2="430.74" y2="175.37" fill="none" stroke="#000" stroke-linecap="round" stroke-miterlimit="10" stroke-width="3.53"/>
  <path d="M432.11,215.42s-.08,0-.12,0c-12-1.13-20.16-3.64-28.04-8.09-3.79-2.13-3.58-3.92-5.49-4.87-1.62-.81-4.4,0-8.39-1.16-15.66-4.54-20.09-15.58-20.55-16.21-1.64-2.25-1.3-5.56.75-7.41,2.05-1.84,5.03-1.52,6.67.71.28.37,17.51,22.91,55.99,26.54,2.61.25,4.52,2.79,4.26,5.69-.25,2.85-2.52,4.98-5.08,4.81Z" fill="#fff34a" stroke="#000" stroke-linecap="round" stroke-miterlimit="10" stroke-width="4.22"/>
  <path d="M440.67,206.86s-.09,0-.13-.01c-47.35-5.63-67.72-31.56-68.57-32.66-1.77-2.31-1.33-5.61.97-7.38,2.3-1.77,5.6-1.34,7.37.96.18.23,6.84,7.71,17.83,13.95,1.25.71,4.37,5.93,5.75,6.61s6.19.06,8.15.36c9.43,1.43,16.61,6.15,29.74,7.71,2.89.34,4.95,2.96,4.61,5.85-.34,2.84-2.88,4.89-5.72,4.62Z" fill="#fff34a" stroke="#000" stroke-linecap="round" stroke-miterlimit="10" stroke-width="4.44"/>
  <g>
    <path d="M570.18,335.85c-.86,0-1.69-.18-2.48-.53-1.48-.66-2.62-1.87-3.19-3.38-.58-1.52-.53-3.17.13-4.65,19.4-43.27,17.74-53.05,6.69-58.59-7.89-3.96-13.79-4.5-18.99-4.5-1.34,0-2.67.04-4.01.07-1.32.04-2.64.07-3.98.07-5.32,0-11.16-.53-17.87-4.41-10.35-5.98-12.44-17.88-14.27-28.38-1.84-10.53-3.26-17.07-8.86-18.77-2.77-.84-5.71-1.24-9-1.24-6.23,0-13.02,1.5-20.21,3.08-8.08,1.78-17.23,3.8-27.09,3.8-15.2,0-29.08-4.92-42.46-15.04-2.67-2.02-3.2-5.84-1.18-8.52,1.16-1.53,2.93-2.41,4.85-2.41,1.33,0,2.6.43,3.67,1.23,11.35,8.59,22.51,12.6,35.12,12.6,8.45,0,16.59-1.79,24.46-3.53,7.88-1.74,15.32-3.38,22.85-3.38,4.47,0,8.56.58,12.5,1.77,13.05,3.95,15.32,16.89,17.31,28.31,1.51,8.64,2.94,16.81,8.38,19.94,4.01,2.32,7.47,2.78,11.75,2.78,1.17,0,2.39-.03,3.68-.07,1.36-.04,2.77-.08,4.26-.08,6.42,0,14.35.69,24.52,5.79,11.7,5.87,16.51,16.42,14.29,31.37-1.82,12.27-8.02,26.76-15.33,43.06-.98,2.18-3.16,3.59-5.55,3.59Z" fill="#fff34a"/>
    <path d="M570.18,335.85c-.86,0-1.69-.18-2.48-.53-1.48-.66-2.62-1.87-3.19-3.38-.58-1.52-.53-3.17.13-4.65,19.4-43.27,17.74-53.05,6.69-58.59-7.89-3.96-13.79-4.5-18.99-4.5-1.34,0-2.67.04-4.01.07-1.32.04-2.64.07-3.98.07-5.32,0-11.16-.53-17.87-4.41-10.35-5.98-12.44-17.88-14.27-28.38-1.84-10.53-3.26-17.07-8.86-18.77-2.77-.84-5.71-1.24-9-1.24-6.23,0-13.02,1.5-20.21,3.08-8.08,1.78-17.23,3.8-27.09,3.8-15.2,0-29.08-4.92-42.46-15.04-2.67-2.02-3.2-5.84-1.18-8.52,1.16-1.53,2.93-2.41,4.85-2.41,1.33,0,2.6.43,3.67,1.23,11.35,8.59,22.51,12.6,35.12,12.6,8.45,0,16.59-1.79,24.46-3.53,7.88-1.74,15.32-3.38,22.85-3.38,4.47,0,8.56.58,12.5,1.77,13.05,3.95,15.32,16.89,17.31,28.31,1.51,8.64,2.94,16.81,8.38,19.94,4.01,2.32,7.47,2.78,11.75,2.78,1.17,0,2.39-.03,3.68-.07,1.36-.04,2.77-.08,4.26-.08,6.42,0,14.35.69,24.52,5.79,11.7,5.87,16.51,16.42,14.29,31.37-1.82,12.27-8.02,26.76-15.33,43.06-.98,2.18-3.16,3.59-5.55,3.59Z" fill="none" stroke="#000" stroke-miterlimit="10" stroke-width="2.6"/>
  </g>
  <g opacity=".8">
    <path d="M404.97,186.51s-5.54,7.13-6.99,17.99" fill="#fff34a" stroke="#fff" stroke-miterlimit="10"/>
    <path d="M397.79,206.6s-.05,0-.08,0c-1.16-.15-1.97-1.21-1.81-2.37,1.5-11.29,7.17-18.69,7.41-19,.71-.92,2.03-1.08,2.96-.37.92.71,1.09,2.04.38,2.96-.05.07-5.22,6.86-6.56,16.97-.15,1.13-1.17,1.93-2.29,1.82Z" fill="#fff34a" stroke="#000" stroke-miterlimit="10" stroke-width="2.6"/>
  </g>
  <g>
    <path d="M522.39,374.13c-1.39,0-2.75-.48-3.83-1.37-1.26-1.03-2.04-2.48-2.21-4.09-.17-1.62.31-3.2,1.33-4.46,29.94-36.77,30.87-46.64,21.63-54.86-8.01-7.12-14.35-8.63-21.07-10.23-6.55-1.56-13.32-3.18-19.98-9.85-8.18-8.18-9.67-19.59-11.11-30.63-1.23-9.43-2.39-18.35-7.63-23.66-9.67-9.81-19.32-10.61-30.02-10.61-.98,0-1.96,0-2.95.01-.97,0-1.95.01-2.94.01-13.67,0-28-1.54-39.74-19.98-1.8-2.83-.96-6.59,1.86-8.39.98-.62,2.1-.95,3.26-.95,2.09,0,4.01,1.05,5.13,2.82,8.48,13.32,17.53,14.35,29.38,14.35.97,0,1.95,0,2.95-.01,1.02,0,2.05-.01,3.09-.01,12.44,0,25.68,1.1,38.63,14.23,8.11,8.23,9.6,19.61,11.03,30.63,1.23,9.44,2.39,18.35,7.65,23.6,4.24,4.24,8.42,5.24,14.21,6.62,7.14,1.7,16.03,3.83,26.32,12.97,9.79,8.7,11.7,20.14,5.68,34-4.94,11.38-14.68,23.77-25.96,37.62-1.16,1.42-2.88,2.24-4.72,2.24Z" fill="#fff34a"/>
    <path d="M522.39,374.13c-1.39,0-2.75-.48-3.83-1.37-1.26-1.03-2.04-2.48-2.21-4.09-.17-1.62.31-3.2,1.33-4.46,29.94-36.77,30.87-46.64,21.63-54.86-8.01-7.12-14.35-8.63-21.07-10.23-6.55-1.56-13.32-3.18-19.98-9.85-8.18-8.18-9.67-19.59-11.11-30.63-1.23-9.43-2.39-18.35-7.63-23.66-9.67-9.81-19.32-10.61-30.02-10.61-.98,0-1.96,0-2.95.01-.97,0-1.95.01-2.94.01-13.67,0-28-1.54-39.74-19.98-1.8-2.83-.96-6.59,1.86-8.39.98-.62,2.1-.95,3.26-.95,2.09,0,4.01,1.05,5.13,2.82,8.48,13.32,17.53,14.35,29.38,14.35.97,0,1.95,0,2.95-.01,1.02,0,2.05-.01,3.09-.01,12.44,0,25.68,1.1,38.63,14.23,8.11,8.23,9.6,19.61,11.03,30.63,1.23,9.44,2.39,18.35,7.65,23.6,4.24,4.24,8.42,5.24,14.21,6.62,7.14,1.7,16.03,3.83,26.32,12.97,9.79,8.7,11.7,20.14,5.68,34-4.94,11.38-14.68,23.77-25.96,37.62-1.16,1.42-2.88,2.24-4.72,2.24Z" fill="none" stroke="#000" stroke-miterlimit="10" stroke-width="2.6"/>
  </g>
  <path d="M566.8,263.08c-27.84,101.44-139.68,150.98-228.49,116.26-89.91-35.15-88.09-139.88-40.37-238.99C345.66,41.24,426.53-5.68,513.51,36.2c86.98,41.88,82.4,120.8,53.29,226.88Z" fill="#fff34a" opacity=".2"/>
  <g>
    <path d="M190.07,212.24s28.14,7.95,34.84,6.36l-18.53-16.11-16.31,9.75Z" fill="#fff"/>
    <rect x="16.4" y="45.81" width="121.95" height="37.37" rx="18.68" ry="18.68" fill="#fff"/>
    <path d="M191.65,213.46H38.75c-11.57,0-20.95-9.38-20.95-20.95v-16.42s173.85,0,173.85,0c10.32,0,18.68,8.37,18.68,18.68h0c0,10.32-8.37,18.68-18.68,18.68Z" fill="#fff"/>
    <path d="M35.53,70.77h285.95c9.8,0,17.75,7.95,17.75,17.75v78.28c0,9.8-7.95,17.75-17.75,17.75H17.78v-96.03c0-9.8,7.95-17.75,17.75-17.75Z" fill="#fff"/>
  </g>
  <text transform="translate(31.97 73.82)" font-family="ChalkboardSE-Bold, &apos;Chalkboard SE&apos;" font-size="24" font-weight="700"><tspan x="0" y="0" letter-spacing="-.13em">T</tspan><tspan x="11.03" y="0" letter-spacing=".02em">e</tspan><tspan x="24.72" y="0" letter-spacing=".03em">r</tspan><tspan x="36.49" y="0" letter-spacing=".03em">r</tspan><tspan x="48.16" y="0">ib</tspan><tspan x="68.63" y="0" letter-spacing="-.06em">l</tspan><tspan x="75.05" y="0" letter-spacing="-.04em">e</tspan><tspan x="87.35" y="0" letter-spacing="-.05em">.</tspan><tspan x="0" y="32">I sh</tspan><tspan x="45.56" y="32" letter-spacing=".03em">o</tspan><tspan x="58.53" y="32" letter-spacing=".03em">u</tspan><tspan x="72.37" y="32">ld h</tspan><tspan x="118.03" y="32" letter-spacing="0em">a</tspan><tspan x="131.32" y="32" letter-spacing="0em">v</tspan><tspan x="142.83" y="32">e j</tspan><tspan x="175.77" y="32" letter-spacing=".03em">u</tspan><tspan x="189.66" y="32" letter-spacing="-.05em">s</tspan><tspan x="199.4" y="32">t </tspan><tspan x="220.85" y="32" letter-spacing="-.05em">s</tspan><tspan x="230.58" y="32" letter-spacing="-.08em">t</tspan><tspan x="240.18" y="32" letter-spacing="0em">a</tspan><tspan x="253.6" y="32" letter-spacing="-.04em">y</tspan><tspan x="266.06" y="32" letter-spacing=".05em">e</tspan><tspan x="280.36" y="32">d </tspan><tspan x="0" y="64">h</tspan><tspan x="13.58" y="64" letter-spacing=".03em">o</tspan><tspan x="26.55" y="64" letter-spacing=".02em">m</tspan><tspan x="45.35" y="64">e a</tspan><tspan x="81.84" y="64" letter-spacing=".05em">n</tspan><tspan x="95.71" y="64">d </tspan><tspan x="120.05" y="64" letter-spacing="0em">c</tspan><tspan x="132.44" y="64">h</tspan><tspan x="146.01" y="64" letter-spacing="-.07em">a</tspan><tspan x="157.76" y="64" letter-spacing="-.03em">t</tspan><tspan x="168.55" y="64" letter-spacing="-.05em">t</tspan><tspan x="178.87" y="64" letter-spacing=".05em">e</tspan><tspan x="193.16" y="64">d </tspan><tspan x="217.51" y="64" letter-spacing=".04em">w</tspan><tspan x="236.26" y="64" letter-spacing="-.07em">i</tspan><tspan x="241.03" y="64">th </tspan><tspan x="0" y="96" letter-spacing="-.03em">y</tspan><tspan x="12.73" y="96" letter-spacing=".03em">o</tspan><tspan x="25.7" y="96" letter-spacing="-.01em">u</tspan><tspan x="38.56" y="96">, </tspan><tspan x="55.69" y="96" letter-spacing="-.07em">i</tspan><tspan x="60.46" y="96">t </tspan><tspan x="81.92" y="96" letter-spacing="0em">w</tspan><tspan x="99.87" y="96" letter-spacing=".03em">o</tspan><tspan x="112.84" y="96" letter-spacing=".03em">u</tspan><tspan x="126.68" y="96">ld h</tspan><tspan x="172.35" y="96" letter-spacing="0em">a</tspan><tspan x="185.63" y="96" letter-spacing="0em">v</tspan><tspan x="197.14" y="96">e been </tspan><tspan x="0" y="128">w</tspan><tspan x="17.82" y="128" letter-spacing="0em">a</tspan><tspan x="31.24" y="128">y m</tspan><tspan x="72.79" y="128" letter-spacing=".02em">o</tspan><tspan x="85.39" y="128" letter-spacing="-.02em">r</tspan><tspan x="95.89" y="128">e f</tspan><tspan x="129.89" y="128" letter-spacing=".01em">u</tspan><tspan x="143.44" y="128">n!</tspan></text>
</svg>