<?xml version="1.0" encoding="UTF-8"?>
<svg id="Layer_1" data-name="Layer 1" xmlns="http://www.w3.org/2000/svg" width="600" height="580" xmlns:xlink="http://www.w3.org/1999/xlink" viewBox="0 0 600 580">
  <defs>
    <clipPath id="clippath">
      <rect x="-641.08" y="-4.22" width="613.96" height="593.5" fill="none"/>
    </clipPath>
  </defs>
  <rect x="-12.83" y="-6.72" width="625.66" height="593.44" fill="#dcecff"/>
  <g>
    <g>
      <path d="M174.89,585.55s65.84-83.17,64.72-159.91c-.87-59.96-15.32-157.92-96.13-271.43C118.07,118.51-11.05,101.05-11.05,101.05l-3.79,486s192.66,2.87,189.73-1.5Z" fill="#fff" stroke="#221a38" stroke-linecap="round" stroke-miterlimit="10" stroke-width="4"/>
      <path d="M467.89,483.05s28.09,36.18-61.22,90.92c-43.07,26.39-104.92,25.2-121.34-13.52-17.46-41.18,5.92-59.94,66.13-84.16,88.94-35.78,116.43,6.77,116.43,6.77Z" fill="#e293e2" stroke="#221a38" stroke-linecap="round" stroke-miterlimit="10" stroke-width="4"/>
      <path d="M564.69,312.79s15.7,124.86-102.22,199.44c-117.92,74.58-253.28,44.03-302.75-140.89-49.47-184.93,37.3-299.75,149.83-306.59,113.65-6.91,234.39,53.61,255.14,248.04Z" fill="#fff" stroke="#221a38" stroke-linecap="round" stroke-miterlimit="10" stroke-width="4"/>
      <path d="M444.51,207.03c-2.34,21.74-43.98,37.75-43.98,37.75,0,0-5.72,2.57-14.55,5.39,1.97,13.89.86,29.45-13.26,32.05-13.61,2.5-21.12-8.71-24.69-24.9-12.13.43-24.49-1.31-34.81-7.3-27.39-15.89-32-73.94,31.15-96.01,30.24-10.57,71.12,4.9,82.31,14.74,4.65,4.08,20.42,14.05,17.82,38.27Z" fill="#fff" stroke="#221a38" stroke-linecap="round" stroke-miterlimit="10" stroke-width="4"/>
      <path d="M354.04,63.11s30.95,22.99-27.47,99.4c-58.41,76.41-97.88,56.03-123.37,28.54-28.81-31.07-2.23-83.65,36.35-111.91,71.01-52.02,114.48-16.04,114.48-16.04Z" fill="#e293e2" stroke="#221a38" stroke-linecap="round" stroke-miterlimit="10" stroke-width="4"/>
      <path d="M357.86,319.45s9.48,73.13-39.03,100.42c-48.51,27.29-108.99,19.28-126.26-72.49-17.27-91.77,43.31-111.75,79.06-113.85,35.75-2.1,83.1,24.61,86.23,85.92Z" fill="#e293e2" stroke="#221a38" stroke-linecap="round" stroke-miterlimit="10" stroke-width="4"/>
      <path d="M294.42,338.59s6.69,34.28,31.01,27.5c23.8-6.63,5.56-40.85,5.56-40.85" fill="none" stroke="#221a38" stroke-linecap="round" stroke-miterlimit="10" stroke-width="5"/>
      <g>
        <path d="M385.57,371.01c15.14-1.03,19.81,15.58,21.02,30.17,8.76-1.12,50.55-10.31,67.39,15.96,6.6,10.3,13.41,35.81,3.9,50.76-9.6,15.09-45.8,39.68-78.84,45.83-65.77,12.24-89.52-45.85-73.65-73.26,8.98-15.51,26.73-25.01,43.07-30.73-2.46-20.56,1.01-37.64,17.11-38.74Z" fill="none" stroke="#221a38" stroke-linecap="round" stroke-miterlimit="10" stroke-width="4"/>
        <path d="M423.05,447.01s8.27,13.57-7.52,25.98c-15.79,12.41-31.52.61-36.35-12.49-7.66-20.77,9.54-30,23.25-29.59,19.32.57,20.62,16.11,20.62,16.11Z" fill="#e293e2" stroke="#221a38" stroke-linecap="round" stroke-miterlimit="10" stroke-width="3"/>
      </g>
      <path d="M381.82,203.33c.32,2,2.52,33.23-26.26,25.08-28.77-8.14-10.47-35.49-10.47-35.49,0,0,32.25-18.05,36.73,10.41Z" fill="#e293e2" stroke="#221a38" stroke-linecap="round" stroke-miterlimit="10" stroke-width="3"/>
    </g>
    <ellipse cx="247.28" cy="356.67" rx="9.03" ry="14.44" fill="#221a38"/>
  </g>
  <g clip-path="url(#clippath)">
    <g>
      <path d="M-447.19,142.8S-324.7-18.54-90.17,16.47c0,0,253.58-29.29,326.81,32.96,73.23,62.25,105.24,180.45-63.17,269.14C10.55,404.37-173.47,462.29-268.68,447.64c-95.21-14.65-310-66.1-280.12-175.76,26.98-99.03,101.61-129.08,101.61-129.08Z" fill="#e9f4ff" stroke="#889dbf" stroke-linecap="round" stroke-miterlimit="10" stroke-width="3.85"/>
      <path d="M-248.8,340.78L177.74,154.59s77.85-85.93,3.41-243.4c-74.43-157.47-225.32-13.42-244.24-.63-18.93,12.79-302.96,178.75-302.96,178.75l117.25,251.48Z" fill="#fffffd" stroke="#889dbf" stroke-linecap="round" stroke-miterlimit="10" stroke-width="3.01"/>
    </g>
  </g>
  <path d="M447.32,53.83h93.08c18.72,0,33.9,15.18,33.9,33.9h0c0,18.72-15.18,33.9-33.9,33.9h-39.42c-2.58,10.66-7.26,26.82-13.11,33.12l-7.31-33.12h-33.24c-18.72,0-33.9-15.18-33.9-33.9h0c0-18.72,15.18-33.9,33.9-33.9Z"/>
  <path d="M497.4,90.94c.58.27,1.1.58,1.57.94.47.36.88.83,1.24,1.41.31.58.42,1.19.33,1.84-.09.65-.3,1.24-.64,1.77-.33.54-.78.98-1.34,1.34-.56.36-1.15.56-1.77.6-1.07.09-2.1-.09-3.08-.54-.98-.45-1.88-1.03-2.68-1.74-.94-.8-1.58-1.78-1.94-2.95-.45-1.43-.58-2.71-.4-3.85.18-1.14.57-2.19,1.17-3.15.6-.96,1.37-1.85,2.31-2.68.94-.83,1.9-1.64,2.88-2.44.49-.36.99-.74,1.51-1.14.51-.4,1-.83,1.47-1.27.47-.45.87-.94,1.21-1.47.33-.54.52-1.14.57-1.81-.27-1.12-.74-1.84-1.41-2.18-.67-.33-1.41-.42-2.21-.27-.8.16-1.63.49-2.48,1-.85.51-1.61,1.04-2.28,1.57-.4.31-.77.68-1.1,1.1-.33.42-.68.84-1.04,1.24-.36.4-.75.76-1.17,1.07-.42.31-.9.51-1.44.6-.89.13-1.72.01-2.48-.37-.76-.38-1.35-.9-1.77-1.57-.42-.67-.63-1.42-.6-2.24.02-.83.35-1.62.97-2.38,1.12-1.34,2.33-2.55,3.65-3.65,1.32-1.09,2.71-2.01,4.18-2.75,1.47-.74,3.04-1.25,4.69-1.54,1.65-.29,3.37-.28,5.16.03,1.12.22,2.11.68,2.98,1.37.87.69,1.62,1.52,2.24,2.48.62.96,1.13,1.98,1.51,3.05.38,1.07.64,2.1.77,3.08.09,1.03-.02,2.07-.33,3.11-.31,1.05-.76,2.04-1.34,2.98-.58.94-1.25,1.81-2.01,2.61-.76.8-1.54,1.47-2.34,2.01-.58.4-1.22.85-1.91,1.34-.69.49-1.3.97-1.81,1.44-.51.47-.88.88-1.1,1.24-.22.36-.13.6.27.74ZM489.84,106.94c.18-1.61.79-2.82,1.84-3.65,1.05-.83,2.18-1.25,3.38-1.27,1.21-.02,2.31.37,3.31,1.17,1,.8,1.53,2.01,1.57,3.62.04,1.03-.16,1.92-.6,2.68-.45.76-1.02,1.35-1.71,1.77-.69.42-1.47.67-2.34.74-.87.07-1.69-.07-2.44-.4-.76-.33-1.42-.88-1.98-1.64-.56-.76-.9-1.76-1.04-3.01Z" fill="#fff"/>
  <path d="M553.49,244.45s-56.93,197.04-378.33,166.04c0,0-61.48,47.96-176.08,43.39l.92,126.12,178.74-.25,46.98-76.74s46.62,32.63,53.43,34.43c0,0,8.56,51.44,57.69,52.88,49.13,1.43,114.44-32.44,134.88-83.72,0,0,133.78-87.59,81.76-262.14Z" fill="#889dbf" opacity=".3"/>
</svg>