<?xml version="1.0" encoding="UTF-8"?>
<svg id="Layer_1" data-name="Layer 1" xmlns="http://www.w3.org/2000/svg" width="800" height="600" xmlns:xlink="http://www.w3.org/1999/xlink" viewBox="0 0 800 600">
  <defs>
    <clipPath id="clippath">
      <rect x="-322.69" y="662.11" width="621.01" height="545.01" fill="#fff"/>
    </clipPath>
  </defs>
  <rect x="-10.09" y="-6" width="820.1" height="615.74" fill="#ffffdc"/>
  <path d="M43.1,450.54c-3.09-12.35-6.71-38.39-6.71-38.39h62.84v36.78l-56.13,1.61Z" fill="#f7f5df" stroke="#889dbf" stroke-linecap="round" stroke-miterlimit="10" stroke-width="3.76"/>
  <polygon points="780.54 468.83 754.08 609.74 46.87 611.26 19.57 480.7 780.54 468.83" fill="#cde1f9" stroke="#889dbf" stroke-linecap="round" stroke-miterlimit="10" stroke-width="3.76"/>
  <path d="M385.33,387.83s-153.26-3.71-169.41-4.52c-16.94-.85-173.74,6.77-178.73,21.18-7.62,22.02,29.54,22.93,34.73,26.26,21.18,13.55-65.41,16.28-51.67,53.36,8.47,22.87,143.15,31.34,183.81,35.58,21.01,2.19,64.65,18.64,143.15,18.64s177.79-4.67,255.04-12.86c37.39-3.97,89.06-16.56,110.04-20.17,54.21-9.32,76.49-30.23,67.76-55.06-11.01-31.34-53.67-26.16-50.82-36.42,4.24-15.25-38.12-24.56-179.58-25.41-93.24-.56-164.33-.56-164.33-.56Z" fill="#e9f4ff" stroke="#889dbf" stroke-linecap="round" stroke-miterlimit="10" stroke-width="3.76"/>
  <path d="M578.67,454.78c-11.45,32.27-80.08,50.67-168.01,50.67-62.82,0-158.81-13.2-173.38-46.51-32.55-74.41,86.63-83.54,153.71-83.54,134.33,0,206.2,27.22,187.69,79.38Z" fill="#aec2d6" opacity=".4"/>
  <path d="M421.89,30.32s-186.27-6.88-238.86,141.26c-52.59,148.14,29.37,330.62,205.98,330.62s245.83-90.44,250.59-227.41c4.76-136.98-61.45-230.93-217.72-244.47Z" fill="#dcecff" stroke="#889dbf" stroke-linecap="round" stroke-miterlimit="10" stroke-width="3.76"/>
  <path d="M394.71,450.16s-173.18,24.07-186.3-162.69c-13.12-186.76,203.24-235.11,300.45-178.43,97.21,56.68,107.85,203.09,78.89,255.13-28.96,52.04-54.93,92.08-193.03,85.99Z" fill="#bcd0e8" stroke="#7488a5" stroke-linecap="round" stroke-miterlimit="10"/>
  <path d="M370.92,490.5s-178.51-10.06-190-223.4C169.45,53.76,414.78-3.47,531.15,65.74c116.37,69.21,99.49,221.42,97.53,245.78s-51.46,207.55-257.76,178.97Z" fill="none"/>
  <path d="M566.88,427.37s1.24-1.24-3.78-3.48" fill="none" stroke="#221a38" stroke-linecap="round" stroke-linejoin="round" stroke-width="1.32"/>
  <path d="M567.77,424.83s-2.09-2.34-3.83-3.04" fill="none" stroke="#221a38" stroke-linecap="round" stroke-linejoin="round" stroke-width="1.32"/>
  <g>
    <g>
      <path d="M417.35,242.84c-2.02-.68-4.94-1.9-9.14,4.64-3.14,4.89-4.29,6.89-4.29,6.89,0,0-17.92,24.26-17.87,24.51s3.64,2.15,3.64,2.15l33.95-33.9s-3.05-3.2-6.29-4.29Z" fill="#f7bc00" stroke="#221a38" stroke-linecap="round" stroke-linejoin="round" stroke-width=".71"/>
      <path d="M387.05,279.48c-.15.05,22.62-27.76,22.62-27.76l3.64,2.3s-24.76,26.36-24.61,26.36l-1.65-.9Z" fill="#e8e8e8" stroke="#221a38" stroke-linecap="round" stroke-miterlimit="10" stroke-width=".35"/>
      <path d="M416.8,242.84l-4.79,6.09,2.7,2.15,5.74-6.39s-2.3-1.8-3.64-1.85Z"/>
      <line x1="389.82" y1="275.91" x2="390.44" y2="278.69" fill="none" stroke="#221a38" stroke-linecap="round" stroke-miterlimit="10" stroke-width=".35"/>
      <line x1="392.64" y1="272.74" x2="393.46" y2="275.24" fill="none" stroke="#221a38" stroke-linecap="round" stroke-miterlimit="10" stroke-width=".35"/>
      <line x1="395.28" y1="269.32" x2="396.38" y2="272.07" fill="none" stroke="#221a38" stroke-linecap="round" stroke-miterlimit="10" stroke-width=".35"/>
      <circle cx="412.93" cy="250.45" r="4.32"/>
      <g>
        <path d="M407.49,266c-1.28-.08-2.74-.45-5.17-4.04-1.36-2.01-1-3.95-.67-4.93.35-1.03.98-1.9,1.71-2.42-.46,1.4-1.1,4.21.15,6.64.96,1.87,2.84,3.12,5.58,3.72-.19.41-.62,1.03-1.49,1.03h-.12Z" fill="#ff0"/>
        <path d="M402.67,255.81c-.33,1.56-.46,3.69.53,5.61.95,1.86,2.75,3.13,5.34,3.79-.19.24-.49.45-.94.45-.03,0-.06,0-.1,0-1.19-.07-2.56-.43-4.9-3.88-1.27-1.88-.94-3.7-.62-4.62.17-.49.41-.95.69-1.34M404.02,253.87c-2.3.75-4.33,4.85-2,8.29,2.4,3.54,3.95,4.11,5.44,4.19.05,0,.09,0,.14,0,1.58,0,1.96-1.65,1.96-1.65-9.69-1.85-5.54-10.83-5.54-10.83h0Z" fill="#221a38"/>
      </g>
      <g>
        <path d="M406.27,266.81c-.62,0-1.38-.2-2.25-.58-3.85-1.7-4.79-6.3-3.74-8.72.6-1.39.96-1.4.97-1.4.03,0,.08.04.11.09-.34,2.84-.52,4.53.97,6.22,2.29,2.59,4.09,3.74,5.12,4-.26.26-.66.39-1.18.39Z" fill="#ff0"/>
        <path d="M401.34,256.44h0,0M400.9,257.03c-.27,2.4-.29,3.99,1.16,5.63,1.82,2.06,3.35,3.24,4.47,3.79-.09.01-.18.01-.27.01-.58,0-1.29-.18-2.11-.55-3.6-1.59-4.52-6.02-3.56-8.26.11-.26.21-.46.3-.62M401.24,255.75c-.3,0-.73.33-1.29,1.62-1.15,2.65-.03,7.44,3.92,9.19.98.43,1.77.61,2.4.61,1.04,0,1.61-.49,1.8-1.11-.02.04-.08.07-.19.07-.58,0-2.43-.71-5.27-3.94-1.43-1.62-1.22-3.17-.87-6.07,0,0-.16-.37-.48-.37h0Z" fill="#221a38"/>
      </g>
      <path d="M406.92,266.9s-1.85-3.25-4.44.05c-2.6,3.29-1.95,17.67-1.35,24.76,0,0,1.1,1.55,1.8.15.2-.4-.63-9.92-.45-14.33.2-4.99,0-11.18,4.44-10.63Z" fill="#ff0" stroke="#221a38" stroke-linecap="round" stroke-linejoin="round" stroke-width=".71"/>
      <g>
        <path d="M406.89,268.29c-.84,0-1.52-.52-1.86-.85.8-.5,1.66-.56,1.67-.56h.08s.07-.04.07-.04c.83-.44,1.26-.96,1.28-1.52.01-.51-.31-.9-.57-1.13.36-.51.66-.83.82-.98.7.26,1.46,1.1,1.57,2.07.12,1.08-.58,2.04-2.03,2.76-.33.17-.68.25-1.01.25h0Z" fill="#ff0"/>
        <path d="M408.45,263.62c.53.29,1.06.96,1.14,1.69.13,1.17-.93,1.95-1.84,2.41-.29.14-.57.21-.86.21-.48,0-.91-.21-1.23-.43.56-.24,1.05-.27,1.05-.27h.15s.14-.08.14-.08c.95-.51,1.44-1.12,1.46-1.83.01-.49-.21-.89-.46-1.17.17-.23.32-.4.44-.52M408.28,262.8s-.52.41-1.21,1.46c0,0,1.81,1.09-.39,2.26,0,0-1.21.08-2.18.86,0,0,.97,1.26,2.4,1.26.36,0,.76-.08,1.17-.29,3.91-1.94,1.86-5.15.22-5.55h0Z" fill="#221a38"/>
      </g>
      <line x1="398.7" y1="265.23" x2="399.85" y2="268.2" fill="none" stroke="#221a38" stroke-linecap="round" stroke-miterlimit="10" stroke-width=".35"/>
      <path d="M409.39,266.86c-.48,0-1.28,1.08-1.28,1.08,0,0,1.91,2.54,2.57,4.86.92,3.25,4.46,3.65,5.34.8s-5.28-6.74-6.62-6.74ZM414.41,273.57c-.91,1.49-1.85-.12-2.61-2.01-.76-1.89-1.85-3.33-1.85-3.33,0,0,5.34,3.89,4.46,5.34Z" fill="#ff0" stroke="#221a38" stroke-linecap="round" stroke-linejoin="round" stroke-width=".71"/>
      <line x1="404.07" y1="258.2" x2="405.4" y2="262.13" fill="none" stroke="#221a38" stroke-linecap="round" stroke-miterlimit="10" stroke-width=".35"/>
      <line x1="406.8" y1="255.2" x2="408.2" y2="259.27" fill="none" stroke="#221a38" stroke-linecap="round" stroke-miterlimit="10" stroke-width=".35"/>
    </g>
    <path d="M416.51,270.1h0c-1.38-1.87-3.58-3.64-5.36-4.33.18-.38.48-1.77.49-1.82l-.49-1.55-1.64-.49c-2.4-.46-3.56-.02-4.31-1.47-1.31-2.53-.99-6.09-.98-6.13l2-3.51-2.53,1.71c-.91.3-1.77.93-2.46,1.81-1.28.08-1.99,1.36-2.47,2.46-1.16,2.68-.52,6.98,2.45,9.63-1.2,1.87-1.82,5.54-1.92,11.45-.1,5.73.34,11.66.53,13.95l.03.38.22.31c.22.31,1.04,1.33,2.23,1.33.05,0,.1,0,.15,0,.45-.03,1.28-.26,1.84-1.36.24-.48.24-.71,0-5.01-.17-3.13-.41-7.41-.31-9.9.02-.41.03-.83.04-1.26.1-3.08.01-5.94,1.38-6.87.45.06,1.38.14,1.78.09l.84.62s.81,1,1.38,3.02c.73,2.56,2.7,3.72,4.33,3.74h.05c1.71,0,3.12-1.11,3.68-2.9.38-1.22.05-2.54-.96-3.92Z" fill="#ff0" opacity=".2"/>
    <g opacity=".2">
      <path d="M402.91,295.6c-1.95,0-3.86-1.06-5.12-2.83l-.78-1.1-.11-1.34c-.2-2.34-.65-8.42-.54-14.31.09-4.86.49-8.28,1.3-10.75-2.69-3.75-2.91-8.53-1.54-11.68.94-2.17,2.22-3.58,3.8-4.21.82-.8,1.74-1.41,2.74-1.82l2.34-.37,4.31-2.04-.99,8.39c0,.79.08,1.9.36,2.82.56.05,1.25.12,2.09.28l.17.03,4.09-1.84.75,3.73.06,3.67c1.53,1.07,3,2.48,4.11,3.98,2.14,2.91,2,5.45,1.49,7.07-1.02,3.28-3.79,5.39-7.06,5.39h-.07c-2.12-.03-4.53-1.04-6.17-3.2,0,.16-.01.32-.02.47-.09,2.32.14,6.5.3,9.56.26,4.82.3,5.44-.37,6.79-.97,1.95-2.7,3.15-4.73,3.31-.14.01-.28.02-.42.02Z" fill="#ff0"/>
    </g>
  </g>
  <path d="M466.21,428.72s20.74-40.13,25.3-49.26c4.56-9.12,14.73-10.22,14.73-10.22l31.5,3.61c3.45,2.39,3.74,11.98,6.28,18.34,3.12,9.22,8.53,20.95,17.14,27.31,1.75.68,6.42,1.71,6.67,6.36.25,4.68-2.72,2.77-7.77,1.6.34,2.07.69,4.64-.62,4.06-1.34-.59-2.25-3.52-2.66-5.03-2.43-1.35-8.47-5.54-14.73-16.43l1,13.97c3.47,6.44,7.52,22.98,9.04,36.61.73,6.53.39,18.64,1.16,25.13l.28,1.83c10.67-3.14,12.12,5.62,7.44,8.51-2.74,1.69-10.35,4.5-15.99,3.45-4.71-.88-4.92-6.28-4.21-7.67.25-2.06-4.69-23.6-7.35-34.57-1.94-8.02-6.04-18.69-10.29-18.16-1.25-.24-5.18,17.14-8.03,26.2-4.65,14.77-24.17,20.02-31.91,19.83.03,6.59-2.67,11.28-7.19,8.61-3.47-2.05-5.99-8.34-4.62-13.78,1.83-7.25,7.63-6.5,7.63-6.5,10.7.42,18.33-7.5,15.84-19.53-1.54-7.46-.78-18.46.03-25.76-.08-.38-.09-.77-.03-1.2,1.66-11.2,1.17-28.39,1.17-28.39-4.14,6.47-18.28,33.35-18.28,33.35,0,0,.67,8.11-2.18,7.01,0,0-1.74-7.16-2.47-.84-.74,6.32-2,7.79-6,5.26-4-2.53-4.89-5.32-4.65-6.08s.58-6.38,3.77-7.62Z" fill="#fff"/>
  <path d="M465.31,440.17c-.27-.05-3.46,1.06-2.87-3.82.65-5.39,1.81-5.81,5.91-9.76" fill="none" stroke="#221a38" stroke-linecap="round" stroke-miterlimit="10" stroke-width="2.6"/>
  <path d="M466.21,428.72s20.74-40.13,25.3-49.26c4.56-9.12,14.73-10.22,14.73-10.22l31.5,3.61c3.45,2.39,3.74,11.98,6.28,18.34,3.12,9.22,8.53,20.95,17.14,27.31,1.75.68,6.42,1.71,6.67,6.36.25,4.68-2.72,2.77-7.77,1.6.34,2.07.69,4.64-.62,4.06-1.34-.59-2.25-3.52-2.66-5.03-2.43-1.35-8.47-5.54-14.73-16.43l1,13.97c3.47,6.44,7.52,22.98,9.04,36.61.73,6.53.39,18.64,1.16,25.13l.28,1.83c10.67-3.14,12.12,5.62,7.44,8.51-2.74,1.69-10.35,4.5-15.99,3.45-4.71-.88-4.92-6.28-4.21-7.67.25-2.06-4.69-23.6-7.35-34.57-1.94-8.02-6.04-18.69-10.29-18.16-1.25-.24-5.18,17.14-8.03,26.2-4.65,14.77-24.17,20.02-31.91,19.83.03,6.59-2.67,11.28-7.19,8.61-3.47-2.05-5.99-8.34-4.62-13.78,1.83-7.25,7.63-6.5,7.63-6.5,10.7.42,18.33-7.5,15.84-19.53-1.54-7.46-.78-18.46.03-25.76-.08-.38-.09-.77-.03-1.2,1.66-11.2,1.17-28.39,1.17-28.39-4.14,6.47-18.28,33.35-18.28,33.35" fill="#fff" stroke="#221a38" stroke-linecap="round" stroke-linejoin="round" stroke-width="2.2"/>
  <path d="M479,428.54s-1.66,2.39-.89,6.21c0,0,.33,2.09-1.31,2.54-1.64.45-2.12-1.1-2.44-4.23-.33-3.13-1.46,6.44-2.07,8.71,0,0,.26,1.85-1.71,1.85s-1.49-3.09-.74-7.43" fill="none" stroke="#221a38" stroke-linecap="round" stroke-miterlimit="10" stroke-width="2.6"/>
  <path d="M468.71,441.88c-3.78,2.39-3.51-2.99-2.73-6.4" fill="none" stroke="#221a38" stroke-linecap="round" stroke-miterlimit="10" stroke-width="2.6"/>
  <path d="M546.36,336.23s-4.72-.75-6.44,11.05c-1.71,11.81,3.52,13.54,8.16,13.42,5.25-.14,7.53-1.52,6.77-12.93-.73-10.89-8.5-11.54-8.5-11.54Z" fill="#e293e2" stroke="#221a38" stroke-linecap="round" stroke-miterlimit="10" stroke-width="2.2"/>
  <path d="M518.3,323.51s-15.55,1.38-21.57,18.53c-6.01,17.14,1.18,33.67,24.89,34.98,23.71,1.31,32.49-14.24,28.62-28.48-3.87-14.24-7.81-27.65-31.94-25.02Z" fill="#fff" stroke="#221a38" stroke-linecap="round" stroke-miterlimit="10" stroke-width="2.2"/>
  <path d="M355.58,480.63c-17.05,1.26-164.84-5.05-181.11-199.58C155.74,57.07,408.34,3.59,524.21,62.37c87.16,44.21,101.4,120.03,107.37,213,4.42,68.84-66.64,132.32-114.95,156-64.31,31.53-147.74,48.28-161.05,49.26Z" fill="#889dbf" opacity=".3"/>
  <ellipse cx="528.36" cy="341.73" rx="15.4" ry="16.04" transform="translate(-100.08 309.96) rotate(-30)" fill="#fff" opacity=".6"/>
  <path d="M543.23,339.17c-3.66,1.65-3.92,5.07-3.92,5.07,0,0-.12.59-.21,1.48-1.35.1-2.78.53-2.74,1.91.05,1.33,1.26,1.8,2.85,1.8.21,1.15.63,2.27,1.41,3.12,2.06,2.24,8.07,1.73,8.84-4.66.76-6.39-2.58-10.37-6.23-8.72Z" fill="#fff" stroke="#221a38" stroke-linecap="round" stroke-miterlimit="10" stroke-width="1.71"/>
  <path d="M545,342.95s-2.25-.07-2.32,2.67c-.07,2.75.28,3.7,1.39,3.87s2.19,0,2.21-3.46-1.27-3.08-1.27-3.08Z" fill="#e293e2" stroke="#221a38" stroke-linecap="round" stroke-miterlimit="10" stroke-width=".94"/>
  <path d="M534.52,351.02s-7.25.52-8.89,5.15c-1.64,4.64.37,11.33,9.58,11.15,9.21-.19,9.9-7.4,9.37-10.49s-4.08-6.65-10.06-5.81Z" fill="#e293e2" stroke="#221a38" stroke-linecap="round" stroke-miterlimit="10" stroke-width="2.2"/>
  <path d="M533.89,361.09s2.02,1.08,3.89.19" fill="none" stroke="#221a38" stroke-linecap="round" stroke-miterlimit="10" stroke-width="1.48"/>
  <g>
    <path d="M531.2,348.26c-.24-1.61-2.09-1.72-3.65-1.51-.08-.94-.61-3.89-3.86-5.71-3.91-2.19-8.01,1.91-7.77,9.09.23,7.18,6.87,8.33,9.38,6.04,1.42-1.3,2.01-3.38,2.23-5.22,2.21-.22,3.92-.97,3.67-2.69Z" fill="none" stroke="#221a38" stroke-linecap="round" stroke-miterlimit="10" stroke-width="1.91"/>
    <path d="M523.44,345.41s-1.51-.74-2.26,2.04c-.75,2.78.75,4.93,2.16,4.93s1.8-2.16,1.84-4.04c.04-2.15-1.74-2.94-1.74-2.94Z" fill="#e293e2" stroke="#221a38" stroke-linecap="round" stroke-miterlimit="10" stroke-width=".94"/>
  </g>
  <path d="M497.88,338.31s-7.12-.97-8.99,11.89,1.52,14.72,6.57,15.14c5.05.41,9.57-.6,9.4-15.14-.14-11.89-6.98-11.89-6.98-11.89Z" fill="#e293e2" stroke="#221a38" stroke-linecap="round" stroke-miterlimit="10" stroke-width="2.2"/>
  <path d="M535.19,353.81s3.24-.83,3.34,1.3-2.92,2.04-2.92,2.04" fill="none" stroke="#221a38" stroke-linecap="round" stroke-miterlimit="10" stroke-width="1.48"/>
  <g>
    <rect x="-322.69" y="662.11" width="621.01" height="545.01" fill="#fff"/>
    <g clip-path="url(#clippath)">
      <path d="M58.17,1038.21l449.62-190.07s76.07-83.98,3.33-237.87c-72.74-153.89-268.28-73.07-286.78-60.58-18.5,12.5-258.99,245.65-258.99,245.65l92.81,242.87Z" fill="#fffffd" stroke="#889dbf" stroke-linecap="round" stroke-miterlimit="10" stroke-width="2.94"/>
    </g>
  </g>
</svg>