<?xml version="1.0" encoding="UTF-8"?>
<svg id="Layer_1" data-name="Layer 1" xmlns="http://www.w3.org/2000/svg" width="600" height="530" xmlns:xlink="http://www.w3.org/1999/xlink" viewBox="0 0 600 530">
  <defs>
    <clipPath id="clippath">
      <rect x="-11.01" y="-9.01" width="621.01" height="545.01" fill="#fff"/>
    </clipPath>
  </defs>
  <rect x="-11.01" y="-9.01" width="621.01" height="545.01" fill="#fff"/>
  <g clip-path="url(#clippath)">
    <rect x="-14.57" y="-15.55" width="632.28" height="553.45" fill="#ffffdc"/>
    <path d="M933.83,204.21c-3.79,52.42-70.11,148.42-72,188.84-1.89,40.42-123.37,98.32-154.1,129.89-30.74,31.58-218.53,80.42-266.53,85.05-48,4.63-92.63-13.05-109.89-18.95-17.26-5.89-42.11-29.89-83.79-47.58-41.68-17.68-77.89-66.53-90.95-87.16-13.05-20.63-46.99-125.79-46.99-125.79l824.25-124.32Z" fill="#cde1f9" stroke="#889dbf" stroke-linecap="round" stroke-miterlimit="10" stroke-width="3.76"/>
    <path d="M208.76,165.51S328.46,7.83,557.66,42.05c0,0,247.81-28.63,319.38,32.21,71.57,60.83,102.84,176.35-61.73,263.02-159.23,83.85-339.06,140.46-432.1,126.14-93.04-14.31-302.95-64.6-273.75-171.77,26.37-96.78,99.3-126.14,99.3-126.14Z" fill="#e9f4ff" stroke="#889dbf" stroke-linecap="round" stroke-miterlimit="10" stroke-width="3.76"/>
    <path d="M369.86,367.1l449.62-190.07s76.07-83.98,3.33-237.87c-72.74-153.89-268.28-73.07-286.78-60.58-18.5,12.5-258.99,245.65-258.99,245.65l92.81,242.87Z" fill="#fffffd" stroke="#889dbf" stroke-linecap="round" stroke-miterlimit="10" stroke-width="2.94"/>
    <path d="M324.28,366.54s-97.92-16.94-90.59-139.5c7.33-122.55,83.94-133.23,141.16-130.61,57.22,2.62,113.83,94.69,102.82,158.95-23.81,138.85-153.39,111.15-153.39,111.15Z" fill="#bdd7ef" stroke="#889dbf" stroke-miterlimit="10" stroke-width="3.76"/>
    <path d="M527.02,298.42s-2.11-7.13-9.77.53c-7.65,7.65-7.92,18.74,0,21.12,7.92,2.38,13.73,2.38,15.05-5.28,1.32-7.65-2.9-7.65-5.28-16.37Z" fill="#eef7ff" stroke="#889dbf" stroke-linecap="round" stroke-miterlimit="10" stroke-width="2.94"/>
    <path d="M502.66,303.73s-.53-13.2-6.07-14.78c-5.54-1.58-21.64,3.43-18.74,21.64,2.9,18.21,28.51,13.73,24.81-6.86Z" fill="#eef7ff" stroke="#889dbf" stroke-linecap="round" stroke-miterlimit="10" stroke-width="2.94"/>
    <ellipse cx="235.09" cy="339.26" rx="38.26" ry="20.98" fill="#aec2d6" opacity=".4"/>
    <path d="M518.07,315.7s0-6.07-2.9-12.93c-2.9-6.86-14.25-7.39-18.74,1.85-4.49,9.24-9.5,21.91-3.7,26.66,5.81,4.75,14.25,3.96,18.74,1.32,4.49-2.64,9.24-2.11,6.6-16.89Z" fill="#eef7ff" stroke="#889dbf" stroke-linecap="round" stroke-miterlimit="10" stroke-width="2.94"/>
    <path d="M497.33,326.61s1.06-4.75-10.56-10.56c-11.61-5.81-20.85,10.29-17.16,17.16,3.7,6.86,12.67,5.81,15.31,5.54,0,0,14.52,2.11,12.41-12.14Z" fill="#eef7ff" stroke="#889dbf" stroke-linecap="round" stroke-miterlimit="10" stroke-width="2.94"/>
    <path d="M331.36,354.79s-92.42-16.21-85.5-133.44c6.92-117.23,79.23-127.44,133.24-124.93s107.44,90.58,97.04,152.04c-22.47,132.82-144.78,106.32-144.78,106.32Z" fill="#cde1f9" stroke="#889dbf" stroke-linecap="round" stroke-miterlimit="10" stroke-width="3.76"/>
    <path d="M341.89,230.93c-1.9.34-1.63,2.57-1.63,2.57,0,0,0,123.46-25.05,138.67-16.47,10-55.68,33.44-86.15,48.67-3.24,1.62-4.34,33.05-2.52,55.34v43.97l.94,65.75" fill="none" stroke="#ff0" stroke-linecap="round" stroke-miterlimit="10" stroke-width="4"/>
    <path d="M205.98,263.04s-3.86,5.79-4.82,9.17c-.58,2.02-3.61,7.36-6.85,7.87-2.2.35-4.98-1.42-5.53-5.78,0,0-.1-3.37,1.57-6.49,1.07-2,3.5-4.65,3.62-5.55s-1.93-2.53-4.28,1.33c0,0,3.81-4.3,2.05-5.55-1.12-.8-1.99,0-3.08,2.77,0,0,2.54-3.96.88-4.49-2.41-.77-1.91,1.65-3.23,3.7,0,0,1.17-2.63-.07-3.32-2.69-1.47-3.25,4.15-4.33,6.23-.95,1.83-4.46,15.48.91,21.45s15.45,11.63,23.76-.42c0,0-2.23,32.57,14.59,55.97,0,0,8.22,11.88,13.21,13.01,4.99,1.13,13.83-4.1,8.93-8.36,0,0-3.14-.72-5.15,0-2.01.72-5.55-12.87-7.56-28.14,0,0,2.68-7.62,8.98-4.71,0,0,19.8,19.99,25.92,21.84,6.11,1.85,9.73-.16,11.66-4.91,1.93-4.74-3.06-6.59-7-4.91,0,0-12.87-14.88-17.93-25.41-5.07-10.53-9.57-21.23-11.18-26.94,0,0,15.43-8.69,15.6-18.98.11-6.36,2.24-14.23-8.29-20.51,0,0-1.85-.48-1.53.96.32,1.45,2.56,2.99,2.56,2.99,0,0-3.95-4.04-5.6-2.26-1.11,1.19,3.78,4.26,3.78,4.26,0,0-4.05-3.47-4.58-1.85-.77,2.34,1.68,3.72,1.68,3.72,0,0-1.38,1.21-1.15,1.89.42,1.27,1.92.37,3.53-.51,0,0,4.52,5.82-.04,10.58-5.53,5.78-9.81,8.68-12.62,6.35s-19.06-7.72-28.39,4.99Z" fill="#fff" stroke="#221a38" stroke-linecap="round" stroke-linejoin="round" stroke-width="1.89"/>
    <path d="M214.85,259s-4.8,2.22-2.75,5.46c2.05,3.24,10.68,1.64,10.68,1.64,0,0,9.4-2.46,5.17-7.35-3.4-3.93-13.1.25-13.1.25Z" fill="#fff" stroke="#221a38" stroke-linecap="round" stroke-linejoin="round" stroke-width="1.89"/>
    <g>
      <path d="M230.29,233.65s2.4,3.47,10.55-.82c6.68-3.52,5.91-9.05,3.42-11.65-2.81-2.93-7.23-1.32-10.91,2.85-5.59,6.33-3.06,9.62-3.06,9.62Z" fill="#e293e2" stroke="#221a38" stroke-miterlimit="10" stroke-width="2.06"/>
      <path d="M222.63,218.85s-11.73-2.84-20.38,8.22c-8.65,11.06-7.48,24.94,9.55,31.77,17.03,6.84,27.32-2.38,28.01-13.76.69-11.38,1.13-22.18-17.18-26.23Z" fill="#fff" stroke="#221a38" stroke-miterlimit="10" stroke-width="2.06"/>
      <path d="M237.3,233.18c-3.92.76-4.97,4.02-4.97,4.02,0,0-.25.54-.54,1.39-1.33-.21-2.82-.12-3.09,1.22-.26,1.3.8,2.04,2.35,2.4-.06,1.16.09,2.35.65,3.35,1.48,2.65,7.44,3.53,9.64-2.49,2.21-6.02-.12-10.65-4.04-9.89Z" fill="#e293e2" stroke="#221a38" stroke-miterlimit="10" stroke-width="1.28"/>
      <path d="M238.9,237.61s-2.96-1.13-4.12,2.11c-1.16,3.24-1.06,4.53.34,5.26,1.41.73,2.92,1.02,4.27-3.1,1.36-4.11-.5-4.27-.5-4.27Z" fill="#221a38"/>
      <path d="M203.03,233.65s5.25-.93,3.82-10.87c-1.13-7.87-5.03-11.02-9.38-8.92-3.52,1.7-4.35,7.94-2.38,12.68,3.53,8.49,7.94,7.11,7.94,7.11Z" fill="#e293e2" stroke="#221a38" stroke-miterlimit="10" stroke-width="2.06"/>
      <path d="M224.33,239.09c.27-1.43-1.26-2.06-2.64-2.34.2-.82.62-3.46-1.58-5.94-2.66-2.99-7.31-.73-9.22,5.4-1.9,6.12,3.36,9.04,6.15,7.83,1.58-.68,2.68-2.26,3.41-3.76,1.93.47,3.6.33,3.88-1.19Z" fill="#e293e2" stroke="#221a38" stroke-miterlimit="10" stroke-width="1.28"/>
      <path d="M217.79,234.79s-1.35-1.47-3.38,1.29c-2.03,2.76-1.28,5.78.27,6.39,1.56.61,2.92-1.62,3.77-3.68.97-2.36-.66-4-.66-4Z" fill="#221a38"/>
      <path d="M226.94,242.44s-7.12-1.79-10.39,2.69c-3.26,4.48-3.84,10.49,5.2,12.69,7.33,1.78,12.06-2.33,12.68-5.85.62-3.51-1.47-8.51-7.49-9.53Z" fill="#e293e2" stroke="#221a38" stroke-miterlimit="10" stroke-width="1.28"/>
      <path d="M226.23,245.19s3.85.29,3.16,2.65c-.69,2.36-3.94,1.15-3.94,1.15" fill="none" stroke="#221a38" stroke-linecap="round" stroke-miterlimit="10" stroke-width="1.28"/>
      <path d="M222.08,254.09c.59.55,2.24,2.45,5.25.39,0,0,1.55-1.46-.43-2.7s-4.82-1.62-5.11.53c0,0-.22.83-.12.93l.4.85Z" fill="#221a38"/>
    </g>
    <path d="M215.33,260.22s1.01,3.33-1.84,4.95" fill="#fff" stroke="#221a38" stroke-linecap="round" stroke-miterlimit="10" stroke-width="1.89"/>
    <path d="M223.42,261.29s-.23,3.06,1.92,3.34" fill="#fff" stroke="#221a38" stroke-linecap="round" stroke-miterlimit="10" stroke-width="1.89"/>
    <path d="M238.83,258.39s-4.94,13.71-20.9,14.38c-15.95.67-15.28-4.94-15.28-4.94,0,0,4.27-8.76,7.41-8.76s16.23,5.62,24.29-1.01l4.47.34Z" fill="#939ca5" opacity=".4"/>
  </g>
</svg>