<?xml version="1.0" encoding="UTF-8"?>
<svg id="Layer_1" data-name="Layer 1" xmlns="http://www.w3.org/2000/svg" width="700" height="530" xmlns:xlink="http://www.w3.org/1999/xlink" viewBox="0 0 700 530">
  <defs>
    <clipPath id="clippath">
      <rect x="-704.27" y="-7.75" width="621.01" height="545.01" fill="#fff"/>
    </clipPath>
    <clipPath id="clippath-1">
      <rect x="-12.01" y="-9.01" width="724.01" height="547.01" fill="none"/>
    </clipPath>
  </defs>
  <g>
    <rect x="-704.27" y="-7.75" width="621.01" height="545.01" fill="#fff"/>
    <g clip-path="url(#clippath)">
      <path d="M240.56,205.46c-3.79,52.42-70.11,148.42-72,188.84-1.89,40.42-123.37,98.32-154.1,129.89-30.74,31.58-218.53,80.42-266.53,85.05-48,4.63-92.63-13.05-109.89-18.95-17.26-5.89-42.11-29.89-83.79-47.58-41.68-17.68-77.89-66.53-90.95-87.16-13.05-20.63-46.99-125.79-46.99-125.79L240.56,205.46Z" fill="#cde1f9" stroke="#889dbf" stroke-linecap="round" stroke-miterlimit="10" stroke-width="3.76"/>
      <path d="M-484.51,166.76S-364.81,9.08-135.61,43.3c0,0,247.81-28.63,319.38,32.21,71.57,60.83,102.84,176.35-61.73,263.02-159.23,83.85-339.06,140.46-432.1,126.14-93.04-14.31-302.95-64.6-273.75-171.77,26.37-96.78,99.3-126.14,99.3-126.14Z" fill="#e9f4ff" stroke="#889dbf" stroke-linecap="round" stroke-miterlimit="10" stroke-width="3.76"/>
      <path d="M-323.41,368.35L126.21,178.27s76.07-83.98,3.33-237.87C56.8-213.48-138.74-132.67-157.24-120.17c-18.5,12.5-258.99,245.65-258.99,245.65l92.81,242.87Z" fill="#fffffd" stroke="#889dbf" stroke-linecap="round" stroke-miterlimit="10" stroke-width="2.94"/>
    </g>
  </g>
  <g clip-path="url(#clippath-1)">
    <rect x="-14.08" y="-10.98" width="728.16" height="551.95" fill="#ffffdc"/>
    <g>
      <path d="M336.88,297.47s-121.6,24.47-136.28,54.21c-14.68,29.74-16.56,83.95-4.52,109.93l15.46,19.32-4.27,51.68,313.52.53-13.88-78.48s19.72-52.15-7.76-103.35c-27.48-51.2-162.26-53.84-162.26-53.84Z" fill="#fff"/>
      <path d="M341.85,444.15c6.81,56.25-55,56.18-55,56.18,0,0-96.4,4.78-97.7-69.79-1.59-63.71,3.63-104.99,90.47-133.48,0,0,215.22-28.7,231.28,89.52,16.85,123.98-75.77,110.42-75.77,110.42,0,0-73.27-8.16-58.35-69.27" fill="none" stroke="#221a38" stroke-linecap="round" stroke-miterlimit="10" stroke-width="5"/>
      <line x1="347.25" y1="415.39" x2="373.86" y2="416.58" fill="none" stroke="#ff0" stroke-linecap="round" stroke-miterlimit="10" stroke-width="10"/>
      <line x1="211.71" y1="477.81" x2="206.56" y2="534.47" fill="none" stroke="#221a38" stroke-linecap="round" stroke-miterlimit="10" stroke-width="5"/>
      <line x1="507.8" y1="452.2" x2="520.79" y2="535.33" fill="none" stroke="#221a38" stroke-linecap="round" stroke-miterlimit="10" stroke-width="5"/>
      <g>
        <path d="M291.58,419.99s-8.05-23.27,2.18-29.48c9.61-5.83,16.38,11.47,14.2,25.66" fill="none" stroke="#221a38" stroke-linecap="round" stroke-miterlimit="10" stroke-width="5"/>
        <path d="M305.29,394.35s3.82-11.44,17.37-4.39c5.81,3.03,3.64,24.59,3.64,24.59" fill="none" stroke="#221a38" stroke-linecap="round" stroke-miterlimit="10" stroke-width="5"/>
        <path d="M327.1,395.06s4.91-6.78,13.55-.17c6.57,5.02,8.82,12.38,8.27,24.93-.55,12.56-1.66,29.65-22.41,32.38-20.75,2.73-46.23,1.7-51.87-30.03-4.37-24.57,12.56-18.02,12.56-18.02" fill="none" stroke="#221a38" stroke-linecap="round" stroke-miterlimit="10" stroke-width="5"/>
      </g>
      <path d="M287.39,413.82s-4.27.74-4.83,5.48c-3.4,28.93-4.82,111.61-4.82,111.61" fill="none" stroke="#ff0" stroke-linecap="round" stroke-miterlimit="10" stroke-width="10"/>
      <g>
        <path d="M432.57,422.47s6.01-20.75-2.18-29.48c-8.19-8.74-16.38,11.47-14.2,25.66" fill="none" stroke="#221a38" stroke-linecap="round" stroke-miterlimit="10" stroke-width="5"/>
        <path d="M419.12,397.63s-7.3-16.11-17.13-5.19-7.64,24.02-7.64,24.02" fill="none" stroke="#221a38" stroke-linecap="round" stroke-miterlimit="10" stroke-width="5"/>
        <path d="M399.81,395.17s-4.77-8.99-15.28-.28c-6.95,5.76-8.67,13.51-8.12,26.06.55,12.56-.38,26.35,18.82,30.49,20.46,4.41,48.62,4.94,54.26-26.79,4.37-24.57-12.56-18.02-12.56-18.02" fill="none" stroke="#221a38" stroke-linecap="round" stroke-miterlimit="10" stroke-width="5"/>
      </g>
      <path d="M435.85,418.79s5.91.58,5.33,5.36c-5.5,45.56,10.48,106.4,10.48,106.4" fill="none" stroke="#ff0" stroke-linecap="round" stroke-miterlimit="10" stroke-width="10"/>
      <path d="M308.43,58.38s-93.01,7.83-128.98,104.86c-35.96,97.04,7.03,190.55,148.82,197.99,141.79,7.43,211.75-73.19,199.4-155.9-12.48-83.53-74.97-161.82-219.24-146.95Z" fill="#fff" stroke="#221a38" stroke-linecap="round" stroke-miterlimit="10" stroke-width="6.57"/>
      <path d="M440.54,140.98c-15.8-3.65-20.78,35.01-20.78,35.01,0,0-.99,4.54-1.67,11.39-10.39.71-21.5,3.91-21.21,14.55.28,10.26,9.57,13.99,21.86,14.08,1.55,8.87,3.69,24.24,10.14,30.29,22.96,21.5,53.1,4.03,59.4-45.19,3.01-23.57-4.45-39.5-14.94-43-16.4-5.47-12.6-12.47-32.8-17.13Z" fill="#fff" stroke="#221a38" stroke-linecap="round" stroke-miterlimit="10" stroke-width="4"/>
      <path d="M187.28,136.62s-17.4-9.46-43.36,63.77c-12.52,35.31-11.31,78.23,19.31,84.18,32.56,6.33,11.73-19.27,20.04-66.69,12.27-70.04,4.01-81.26,4.01-81.26Z" fill="#e293e2" stroke="#221a38" stroke-linecap="round" stroke-miterlimit="10" stroke-width="7"/>
      <path d="M337.21,202.54c-1.58-11.14-14.35-11.98-25.13-10.61-.54-6.53,3.35-46.26-19.68-48.49-24.08-2.33-33.62,14.85-43,24.05-9.47,9.29-18.45,22.31-17.82,47.23,1.24,49.61,47.05,57.9,64.49,42.17,9.87-8.9,14.03-23.24,15.67-35.98,15.3-1.38,27.16-6.53,25.47-18.38Z" fill="none" stroke="#221a38" stroke-linecap="round" stroke-miterlimit="10" stroke-width="4"/>
      <path d="M281.49,201.49s-11.12-6.45-17.69,15.59c-6.57,22.04,4.41,37.87,14.66,40.32,16.25,3.89,20.3-19.03,17.89-35.32-3.39-22.97-14.86-20.59-14.86-20.59Z" fill="#e293e2" stroke="#221a38" stroke-linecap="round" stroke-miterlimit="10" stroke-width="4"/>
      <path d="M455.45,203.1c-1.26-.33-20.13-6.77-17.09,28.31,3.04,35.08,23.21,9.12,23.21,9.12,0,0,11.84-32.77-6.11-37.43Z" fill="#e293e2" stroke="#221a38" stroke-linecap="round" stroke-miterlimit="10" stroke-width="4"/>
      <path d="M511.97,141.35s-15.07,2.72-2.18,72.89c12.89,70.17,19.68,63.04,29.15,63.77,31.34,2.41,28.49-41.92,14.94-74.7-29.52-71.42-41.91-61.96-41.91-61.96Z" fill="#e293e2" stroke="#221a38" stroke-linecap="round" stroke-miterlimit="10" stroke-width="7"/>
      <path d="M360.56,213.27s-54.52,4.38-66.86,43.77c-12.34,39.4,2.79,81.64,72.03,80.04,69.24-1.59,74.42-48.21,70.44-74.47-3.98-26.26-30.64-56.51-75.61-49.35Z" fill="#e293e2" stroke="#221a38" stroke-linecap="round" stroke-miterlimit="10" stroke-width="5.26"/>
      <path d="M362.82,233.27s22.23-.32,22.91,15.27c.68,15.59-25.01,8.68-25.01,8.68" fill="#e293e2" stroke="#221a38" stroke-linecap="round" stroke-miterlimit="10" stroke-width="5.26"/>
      <path d="M353.5,287.55s19.15-6.37,31.87.4" fill="none" stroke="#221a38" stroke-linecap="round" stroke-linejoin="round" stroke-width="6.57"/>
      <path d="M432.57,422.47s6.01-20.75-2.18-29.48c-8.19-8.74-16.38,11.47-14.2,25.66" fill="none" stroke="#221a38" stroke-linecap="round" stroke-miterlimit="10" stroke-width="5"/>
      <path d="M291.58,419.99s-8.05-23.27,2.18-29.48c9.61-5.83,16.38,11.47,14.2,25.66" fill="none" stroke="#221a38" stroke-linecap="round" stroke-miterlimit="10" stroke-width="5"/>
      <path d="M553.87,203.31c-28.2-76.59-42.16-66.99-50.01-49.54,0,0-5.23-96.83-179.71-96.83-2.62,0-87.24,1.74-129.11,75.9,0,0-5.23-13.96-17.45,7.85-12.21,21.81-54.09,69.79-32.28,131.73,0,0,13.96,16.57,29.66,13.96,0,0,25.3,45.36,50.6,52.34,0,0-35.77-6.11-35.77,71.53,0,0,.21,30.23,6.98,47.98,3.46,9.09,11.32,17.38,19.4,23.45-4.95-.83-7,2.27-8.06,13.19-2.62,27.04,0,45.36,0,45.36,0,0,315.79,6.98,314.92,3.49-.87-3.49-20.94-82.87-13.09-111.66,7.85-28.79,6.98-72.41-41-102.07,0,0,44.49-32.28,59.32-74.15,0,0-4.02,23.42,10.64,22.18,14.66-1.24,43.14,1.88,14.94-74.7ZM347.72,432.05s-1.48,13.14-13.77,16.84c-9.23,2.78-30.73.98-30.73,3.41,0,21.01,3.5,55.64-40.12,46.04-9.43-2.07-17.22-4.68-23.68-7.21.93-.69,1.07-2.03.12-4.13-23.55-52.34,28.79-61.94,28.79-61.94,0,0,6.36-31.36,18.88-20.91,0,0-5.8-22.71,13.4-15.73,0,0,3.11-10.01,22.06,1.54,0,0,28.54-12.88,25.05,42.08ZM447.17,432.05c-6.98,17.45-16.99,19.28-40.53,18.79-22.06-.46-35.36-22.28-30.13-44.09,5.23-21.81,25.49-14.31,25.49-14.31,16.77-11.69,14.64,12.56,14.64,12.56,3.49-19.19,13.75-12.01,13.75-12.01,6.44,4.41,6.55,13.65,6.55,13.65,25.54-9.71,10.23,25.41,10.23,25.41ZM364.29,350.92s-164,8.72-146.56-140.45c17.45-149.17,212.01-103.5,245.13-73.28,49.72,45.36,60.19,186.68-98.58,213.73Z" fill="#939ca5" opacity=".4"/>
    </g>
  </g>
</svg>