<?xml version="1.0" encoding="UTF-8"?>
<svg id="Layer_1" data-name="Layer 1" xmlns="http://www.w3.org/2000/svg" width="1400" height="700" xmlns:xlink="http://www.w3.org/1999/xlink" viewBox="0 0 1400 700">
  <defs>
    <clipPath id="clippath">
      <rect x="36.36" y="-577.13" width="621.01" height="545.01" fill="#fff"/>
    </clipPath>
    <clipPath id="clippath-1">
      <rect x="-14.76" y="-12.25" width="1429.53" height="724.5" fill="none"/>
    </clipPath>
  </defs>
  <g>
    <rect x="36.36" y="-577.13" width="621.01" height="545.01" fill="#fff"/>
    <g clip-path="url(#clippath)">
      <path d="M981.2-363.92c-3.79,52.42-70.11,148.42-72,188.84-1.89,40.42-123.37,98.32-154.1,129.89-30.74,31.58-218.53,80.42-266.53,85.05-48,4.63-92.63-13.05-109.89-18.95-17.26-5.89-42.11-29.89-83.79-47.58-41.68-17.68-77.89-66.53-90.95-87.16-13.05-20.63-46.99-125.79-46.99-125.79l824.25-124.32Z" fill="#cde1f9" stroke="#889dbf" stroke-linecap="round" stroke-miterlimit="10" stroke-width="3.76"/>
      <path d="M389.26-337.2c-1.9.34-1.63,2.57-1.63,2.57,0,0,0,123.46-25.05,138.67-16.47,10-55.68,33.44-86.15,48.67-3.24,1.62-4.34,33.05-2.52,55.34v43.97l.94,65.75" fill="none" stroke="#ff0" stroke-linecap="round" stroke-miterlimit="10" stroke-width="4"/>
    </g>
  </g>
  <g clip-path="url(#clippath-1)">
    <rect x="-16.74" y="-12.11" width="1433.48" height="724.21" fill="#1d253a"/>
    <g>
      <path d="M143.09,394.73s40.17,263,213.46,332.1c173.29,69.09,406.27,83.58,406.27,83.58,0,0,159.52,1.11,239.86-62.41,80.34-63.52,106.73-164.93,125.09-171.62,18.36-6.69,122.8,65.75,191.66-6.69,51.03-53.68,143.46-264.12,149.19-400.08L143.09,394.73Z" fill="#2b3751"/>
      <path d="M302.23,181.83S214.11-12.16,772.65-38.6c0,0,486.81-66.77,604.33,30.23,117.52,97,150.57,257.48-70.14,398.71-19.22,12.3-60.87,34.28-109.17,42.91-24.62,4.4-58.56-7.5-76.49.52-17.47,7.81-6.34,30.28-28.15,52.1-18.59,18.6-68.87,36.53-97.1,46.67-171.18,61.52-301.19,71.53-414.73,71.58-154.57.06-482.81-94.71-434.87-265.58,43.3-154.31,155.9-156.69,155.9-156.69Z" fill="#576f96"/>
      <path d="M587.68,462.29l747.48-325.99s137.42-151.7,6.02-429.69c-131.4-277.99-484.62-132-518.04-109.43-33.41,22.57-467.84,443.75-467.84,443.75l232.37,421.37Z" fill="#2b3751"/>
      <path d="M440.65,478.65s-176.89-30.61-163.64-251.99C290.26,5.28,428.64-14,532.01-9.27c103.37,4.73,205.63,171.05,185.73,287.13-43,250.82-277.09,200.79-277.09,200.79Z" fill="#2b3751" stroke="#131b28" stroke-miterlimit="10" stroke-width="2.67"/>
      <g>
        <path d="M251.39,455.98s-9.09,16.07-11.22,29.25c-2.12,13.19-.51,13.59,1.69,21.89,0,0,4.37,5.63,5.24,6.21,1.76,1.17-4.46,2.28-3.25,15.62.91,10.02,7.15,22.03,8.59,27.05,1.14,3.96-3.42,15.92,2.3,17.51,3.2.89,6.7-3.34,7.24-5.43.55-2.17.92-9.57.41-11.06-1.3-3.79-3.2-15.99-2.92-21.17.47-8.63,2.43-9.46,3.49-9.04.41.16-.78,7.46.78,13.81,2.53,10.26,7.3,21.15,6.6,22.91-.84,2.11-3.8,7.64-2.9,9.91.91,2.27,3.18,4.7,7.73,1.97,4.55-2.73,10.76-6.21,7.73-17.28,0,0-3.49-18.95,5.31-28.5,8.79-9.55,27.13-20.01,22.58-40.93-4.55-20.92-13.74-35.71-16.17-38.14-2.43-2.43-35.82-12.04-43.25,5.4Z" fill="#fff"/>
        <path d="M267.09,520.7s-9.14,8.54-7.84,17.32c1.38,9.25,3.59,18.72,3.62,22.69.03,3.97-1.64,14.25-7.89,12.72-6.29-1.54-2.96-12.64-2.41-15.46.77-3.95-8.08-14.22-9.14-33.17-.4-7.15,5.51-14.73,8.04-16.6l-12.24-14.68" fill="none" stroke="#221a38" stroke-linecap="round" stroke-miterlimit="10" stroke-width="2.33"/>
        <path d="M284.62,512.87c-6.88,4.36-22.95,9.07-22.21,20.67.65,10.3,8.27,27.99,7.95,30-.23,1.43-6.88,9.55-.14,12.5,2.4,1.05,5.63.67,10.4-4.64,6.18-6.88,2.11-11.8,2.11-11.8,0,0-1.16-16.01,2.53-24.66,5.86-13.74,28-16.3,25.67-41.53-1.43-15.5-10.54-37.59-14.96-41.23,0,0-2.98-3.35-9.01-4.54" fill="none" stroke="#221a38" stroke-linecap="round" stroke-miterlimit="10" stroke-width="2.33"/>
        <path d="M249.81,460.88s-5.15,5.91-7.43,12.58c-2.27,6.67-10.59,27.14,6.83,40.83,0,0,2.53,1.83,3.65,7.59.97,4.99,7.55,4.39,9.37,2,1.83-2.39,1.9-10.53-2.46-14.6-4.36-4.07-7.06-5.3-7.48-12.92" fill="#fff" stroke="#221a38" stroke-linecap="round" stroke-miterlimit="10" stroke-width="1.86"/>
        <g>
          <path d="M231.69,443.49s4.48-1.64,8.43,9.6c3.94,11.24-.85,13.94-5.43,14.71-5.18.87-7.68-.05-9.12-11.37-1.37-10.82,6.12-12.94,6.12-12.94Z" fill="#e293e2" stroke="#221a38" stroke-linecap="round" stroke-miterlimit="10" stroke-width="1.86"/>
          <path d="M247.04,425.93s14.74-5.76,29.57,5.28c14.83,11.03,18.04,28.87-2.78,40.84-20.95,12.04-36.18,5.28-41.02-8.93-4.84-14.21-4.63-28.57,14.23-37.18Z" fill="#fff" stroke="#221a38" stroke-linecap="round" stroke-miterlimit="10" stroke-width="1.86"/>
          <path d="M237.08,448.54c0-3.41,5.44,2.81,5.44,2.81,0,0,.41.48.93,1.25,1.28-.58,2.8-.9,3.45.39.62,1.24-.24,2.27-1.7,3.07.38,1.15.56,2.39.28,3.55-.76,3.08-6.49,5.6-10.38.13-1.58-2.22-2.02-3.26-2.09-5.11-.1-2.68,4.07-2,4.07-6.09Z" fill="#fff" stroke="#221a38" stroke-linecap="round" stroke-miterlimit="10" stroke-width="1.16"/>
          <path d="M239.44,454.88s2.18-1.3,3.54,1.09c1.36,2.39,1.46,3.42.45,4.19-1.01.77-2.16,1.2-3.79-1.85-1.64-3.05-.2-3.43-.2-3.43Z" fill="#e293e2" stroke="#221a38" stroke-linecap="round" stroke-miterlimit="10" stroke-width=".7"/>
          <path d="M275.74,427.28s6.21-3.86,13.29,7.3c7.08,11.16,4.71,14.3.2,16.79-4.51,2.48-9.13,3.43-15.03-10.14-4.82-11.1,1.53-13.94,1.53-13.94Z" fill="#e293e2" stroke="#221a38" stroke-linecap="round" stroke-miterlimit="10" stroke-width="1.86"/>
          <path d="M251.05,450.4c-.4-1.61,1.26-2.41,2.78-2.81-.29-.92-.95-3.91,1.34-6.85,1.45-1.86,2.43,1.61,4.65,1.28s3.15-.7,6.04,4.37c3.64,6.37-3.11,10.47-6.31,9.25-1.81-.69-3.16-2.43-4.08-4.09-2.12.63-3.99.56-4.42-1.15Z" fill="none" stroke="#221a38" stroke-linecap="round" stroke-miterlimit="10" stroke-width="1.16"/>
          <path d="M258.32,447.6s1.34-1.14,2.83,1.49c1.49,2.63.52,5.21-.91,5.58-1.43.37-2.39-1.73-2.92-3.63-.6-2.17,1-3.44,1-3.44Z" fill="#e293e2" stroke="#221a38" stroke-linecap="round" stroke-miterlimit="10" stroke-width=".7"/>
          <path d="M248.89,455.87s8.42-4.75,14.12-.2c5.7,4.55,7.88,12.09-3.24,17.19-7.15,3.28-14.3.91-16.32-3.33-2.01-4.24-1.86-10.26,5.44-13.66Z" fill="#e293e2" stroke="#221a38" stroke-linecap="round" stroke-miterlimit="10" stroke-width=".91"/>
          <path d="M250.59,458.76s-3.92,1.4-2.53,3.65c1.39,2.26,4.42.07,4.42.07" fill="none" stroke="#221a38" stroke-linecap="round" stroke-miterlimit="10" stroke-width=".75"/>
          <path d="M252.47,467.98c.11.41,1.45-.54,4.39-.47" fill="none" stroke="#221a38" stroke-linecap="round" stroke-miterlimit="10" stroke-width=".91"/>
        </g>
        <path d="M289.09,486.65s6.06,11.12-3.23,15.97c-7.43,3.87-11.6,6.45-18.48,10.38-6.45,3.69-7.89,13.93-2.67,15.59,6.6,2.11,4.21-6.88,11.52-8.85,12.23-3.29,35.68-13.56,31.75-40.12" fill="#fff" stroke="#221a38" stroke-linecap="round" stroke-miterlimit="10" stroke-width="2.1"/>
      </g>
      <path d="M808.6,364.23s-3.81-12.87-17.64.95c-13.83,13.83-14.3,33.85,0,38.15,14.3,4.29,24.79,4.29,27.18-9.54,2.38-13.83-5.25-13.83-9.54-29.56Z" fill="#3a5084" stroke="#221a38" stroke-linecap="round" stroke-miterlimit="10" stroke-width="3"/>
      <path d="M762.88,365.19s-.95-23.84-10.97-26.7c-10.01-2.86-39.1,6.2-33.85,39.1,5.25,32.9,51.5,24.79,44.82-12.4Z" fill="#3a5084" stroke="#221a38" stroke-linecap="round" stroke-miterlimit="10" stroke-width="3"/>
      <path d="M790.72,386.82s0-10.97-5.25-23.36c-5.25-12.4-25.75-13.35-33.85,3.34-8.11,16.69-17.17,39.58-6.68,48.16,10.49,8.58,25.75,7.15,33.85,2.38,8.11-4.77,16.69-3.81,11.92-30.52Z" fill="#3a5084" stroke="#221a38" stroke-linecap="round" stroke-miterlimit="10" stroke-width="3"/>
      <path d="M753.25,406.52s1.91-8.58-19.07-19.07c-20.98-10.49-37.67,18.6-30.99,30.99,6.68,12.4,22.89,10.49,27.66,10.01,0,0,26.23,3.81,22.41-21.93Z" fill="#3a5084" stroke="#221a38" stroke-linecap="round" stroke-miterlimit="10" stroke-width="3"/>
      <path d="M453.44,457.43s-166.96-29.28-154.45-241.04C311.49,4.62,442.11-13.82,539.67-9.3c97.56,4.53,194.08,163.62,175.3,274.65-40.59,239.92-261.53,192.07-261.53,192.07Z" fill="#435577" stroke="#131b28" stroke-miterlimit="10" stroke-width="4"/>
      <path d="M472.46,233.68c-3.43.61-2.94,4.64-2.94,4.64,0,0,0,223.02-45.25,250.49-29.76,18.07-39.54,36.38-94.59,63.91-5.86,2.93-7.85,59.7-4.55,99.96v79.42l1.69,109.27" fill="none" stroke="#ff0" stroke-linecap="round" stroke-miterlimit="10" stroke-width="3"/>
      <path d="M264.11,426.12s-17.84,1.83-12.71,29.86c0,0,.5,14.35,6.79,17.38s21.92-1.98,31.61-23.25c1.39-3.06,11.34,3.6,14.08,16.37.24,1.11-20.76-17.45-14.99,16.94,1.08,6.44,1.94,15.35.41,16.33-10.97,6.98-23.66,14.54-25.94,17.03-.1.11-4.61-3.93-7.68.09-4.58,6.01,6,7.55,6.32,9.87,0,0-5.46,3.58-2.09,15.37,3.37,11.79,2.29,24.37,2.09,25.97s-2.27,7.35-7.24,5.43c-4.96-1.93-3.07-9.51-2.44-12.87.63-3.37-2.95-10.32-4.42-16.42-1.47-6.11-10.84-19.04-.79-30.89,0,0-8.98-6.11-7.88-19.82s.88-20.66.88-20.66c0,0-3.52-1.21-5.43-5.05,0,0-5.1,1.66-6.5-1.42-1.4-3.08-6.24-15.17,1.68-21.84,0,0,7.87-26.99,34.25-18.43Z" fill="#2b3751" opacity=".4"/>
      <path d="M472.46,233.68c-3.43.61-2.94,4.64-2.94,4.64,0,0,0,223.02-45.25,250.49-29.76,18.07-39.54,36.38-94.59,63.91-5.86,2.93-7.85,59.7-4.55,99.96v79.42l1.69,109.27" fill="none" opacity=".2" stroke="#ff0" stroke-linecap="round" stroke-miterlimit="10" stroke-width="16"/>
    </g>
    <path d="M309.31,497.36s-6.86,19.95-22.5,28.62c-6.02,3.33-6.69,7.57-12.13,5.46-4.54-1.76-13.3-4.76-12.69-.37.61,4.39,2.09,10.81,2.5,13.06.41,2.24,7.09,16.14,6.02,17.97s-4.99,10.16-2.13,12.41c2.86,2.24,9.35,2.22,14.35-7.13,0,0,1.29-4.8.28-9.08-2.96-12.5,4.94-29.77,10.65-33.34,5.71-3.57,23.23-16.65,15.65-27.6Z" fill="#2b3751" opacity=".4"/>
  </g>
</svg>