<?xml version="1.0" encoding="UTF-8"?>
<svg id="Layer_1" data-name="Layer 1" xmlns="http://www.w3.org/2000/svg" width="600" height="580" xmlns:xlink="http://www.w3.org/1999/xlink" viewBox="0 0 600 580">
  <defs>
    <clipPath id="clippath">
      <rect x="688.5" y="-11.15" width="620.01" height="600.01" fill="#24335b"/>
    </clipPath>
  </defs>
  <g>
    <rect x="688.5" y="-11.15" width="620.01" height="600.01" fill="#24335b"/>
    <g clip-path="url(#clippath)">
      <ellipse cx="1012.28" cy="75.32" rx="518.92" ry="102.38" fill="#2f3f70" stroke="#221a38" stroke-linecap="round" stroke-miterlimit="10" stroke-width="2.76"/>
    </g>
  </g>
  <rect x="-10.01" y="-10.01" width="620.01" height="600.01" fill="#1d253a"/>
  <circle cx="131.18" cy="16.81" r="4.3" fill="#6994ff"/>
  <circle cx="6.13" cy="121.25" r="4.3" fill="#6994ff"/>
  <circle cx="238.97" cy="99.26" r="4.3" fill="#6994ff"/>
  <circle cx="331.53" cy="32.79" r="4.3" fill="#6994ff"/>
  <circle cx="531.6" cy="1.25" r="4.3" fill="#6994ff"/>
  <circle cx="560.66" cy="194.01" r="4.3" fill="#6994ff"/>
  <circle cx="381.69" cy="80.69" r="4.3" fill="#6994ff"/>
  <g>
    <path d="M313.83,53.45s-189.74.12-244.1,153.24c-54.35,153.11,30.35,341.74,212.91,341.74s254.09-93.48,259.01-235.06c4.92-141.58-66.31-245.92-227.82-259.92Z" fill="#446099" stroke="#221a38" stroke-linecap="round" stroke-miterlimit="10" stroke-width="1.54"/>
    <path d="M263.94,536.32s-184.51-10.4-196.38-230.9C55.69,84.91,309.27,25.76,429.55,97.29c120.28,71.54,102.84,228.86,100.8,254.04-2.03,25.18-53.19,214.52-266.42,184.99Z" fill="#24335b" stroke="#221a38" stroke-linecap="round" stroke-miterlimit="10" stroke-width="1.82"/>
    <path d="M288.52,494.63s-179,24.88-192.57-168.16c-13.56-193.04,210.07-243.01,310.55-184.43,100.47,58.58,111.48,209.92,81.54,263.71-29.94,53.79-56.78,95.18-199.52,88.88Z" fill="#2f3f70" stroke="#221a38" stroke-linecap="round" stroke-miterlimit="10" stroke-width="1.82"/>
    <g>
      <path d="M242.41,492.42s5.38-23.02,29.74-12.82c0,0,6.29-2.48,15.5-5.75,11.11-3.94,16.36-7.14,21.41-11.99,5.05-4.85,17.41-11.85,27.22-7.29s9.91,8.29,8.13,20.38c-1.78,12.08-10.1,21.57-10.1,21.57,0,0,14.36,4.47,22.97.41,0,0-1.58-3.86,4.46-5.45,6.04-1.58,11.4,6.18,11,8.46-.4,2.28-4.24,3.11-16.88,6.83,0,0,.87,1.11.85,2.09,0,.42-4.32.84-4.64,1.41-.21.38,5.65-.52,4.83,1.63-.21.56-5.84.59-5.01.59,2.08,0,3.71,1.11,3.12,1.41-3.56,1.84-9.08.5-10.1.84-1.19.4-67.74,1.04-67.74,1.04,0,0-13.13,5.12-29.12-4.9-9.01-5.65-5.62-18.48-5.62-18.48Z" fill="#fff"/>
      <path d="M279.38,483.47c16.65,13.16,5.22,26.32,5.22,26.32-8.77,14.46-49.64,6.7-42.3-17.36,7.34-24.06,28.92-13.36,28.92-13.36,0,0,6.73,3.28,8.16,4.4Z" fill="none" stroke="#221a38" stroke-linecap="round" stroke-miterlimit="10" stroke-width="1.08"/>
      <path d="M262.31,496.1c.18-.28.37-.56.54-.85,0,0,3.38-4.09-.33-6.65-3.71-2.56-11.03,4.58-9.5,9.22,1.55,4.68,4.83,3.58,7.7.34,2.35,1.69,2.98,1.14,3.29.72.76-1.02-.76-2.18-1.71-2.78Z" fill="none" stroke="#221a38" stroke-linecap="round" stroke-miterlimit="10" stroke-width="1.05"/>
      <path d="M271.06,500.78c-.83-.65-2.03-1.28-2.67-.14-.7,1.25.53,2.16,1.48,2.65-.34,1.69-.57,4.57,1.28,5.98,2.71,2.06,7.28-2.36,8.13-5.82.81-3.32-1.81-11.2-8.22-2.67Z" fill="#fff" stroke="#221a38" stroke-linecap="round" stroke-miterlimit="10" stroke-width="1.05"/>
      <path d="M267.89,483.8s-4.31,1.56-4.31,7.62,7,7.22,7,7.22c0,0,7.07,1.25,7.4-6.2.33-7.44-2.86-11.2-10.08-8.64Z" fill="#e293e2" stroke="#221a38" stroke-linecap="round" stroke-linejoin="round" stroke-width=".74"/>
      <path d="M269.45,494.78s2.56,1.38,3.42.04c.86-1.34-2.46-2.52-2.46-2.52" fill="none" stroke="#221a38" stroke-linecap="round" stroke-miterlimit="10" stroke-width="1.05"/>
      <path d="M270.46,488.29s1.44,2.03,4.9,1.84" fill="none" stroke="#221a38" stroke-linecap="round" stroke-miterlimit="10" stroke-width="1.05"/>
      <path d="M272.89,479.68c6.21-2.76,19.76-7.98,25.94-11.29,13.36-7.14,19.28-19.3,38.03-13.26,14.82,4.78,8.04,24.77-2.67,41.38,0,0,13.37,3.37,22.97.41,0,0-2.38-6.14,7.92-5.35,6.96.54,11.72,9.86,1.6,11.66-2.5.45-7.44,2.69-10.21,3.58l-3.79.71" fill="none" stroke="#221a38" stroke-linecap="round" stroke-linejoin="round" stroke-width="1.54"/>
      <path d="M275.99,516.12s32.63.2,71.93-1.39c0,0,6.68-.18,6.98-.81.69-1.47-2.46-1.31-3.35-1.55l-.24-.18s2.34.02,4.85-.12c0,0,.95.07.87-.88-.06-.71-.74-.83-1.93-.77l-4.02-.33s4.03-.81,5.03-.85,1.23-2.38-.78-1.93c-2.01.45-3.54.54-3.54.54l-2.15.57c1.46-.8,2.43-.56,3.69-1.24s.63-2.25-1.11-2.11c-.98.08-2.96.19-2.96.19-3.71-.3-6.18.18-6.26.18-3.37,0-7.97.1-31.45-2.13" fill="none" stroke="#221a38" stroke-linecap="round" stroke-linejoin="round" stroke-width="1.23"/>
      <path d="M258.38,492.58c1.53.45,1.6,2.47.06,4.33" fill="none" stroke="#221a38" stroke-linecap="round" stroke-miterlimit="10" stroke-width=".72"/>
      <path d="M271.77,505.29s.9-2.63,3-2.78c0,0,.85-.12,1.8.49" fill="none" stroke="#221a38" stroke-linecap="round" stroke-miterlimit="10" stroke-width=".66"/>
      <line x1="348.79" y1="509.64" x2="348.53" y2="512.14" fill="none" stroke="#221a38" stroke-linecap="round" stroke-linejoin="round" stroke-width="1.05"/>
      <path d="M245.03,488.03s-1.89-1.63-4.3,2.48c-2.41,4.11-7.36,13.23-11.47,13.56s-1.63,4.56,2.22,4.24,10.1-2.67,12.19-10.1c2.09-7.43,1.37-10.17,1.37-10.17Z" fill="#e293e2" stroke="#221a38" stroke-linecap="round" stroke-miterlimit="10" stroke-width=".74"/>
      <path d="M287.86,517.1s.91,2.07-4.67,2.23c-4.01.12-13.22-.46-15.94-.8s-2-1.88,1.18-2.56c3.55-.76,14.38-6.22,19.43,1.13Z" fill="#e293e2" stroke="#221a38" stroke-linecap="round" stroke-linejoin="round" stroke-width=".74"/>
    </g>
    <path d="M252.87,481.25c8.84-2.95,22.53-1.89,35.16,20,0,0-.21-9.68-5.05-15.16,0,0,20.63-8.42,26.53-12.42,5.89-4,25.47-20.21,34.74-10.95,0,0,3.79,8.84-9.89,34.11,0,0,9.68,4,23.37.42,0,0,.42-2.95,4.84-2.32,4.42.63,7.37.84,9.26,4,0,0-.42,4-3.79,4s-12,3.16-12,3.16c0,0-2.11-.84-4.84-1.05-2.74-.21-18.53,1.05-26.11-.63-7.58-1.68-13.68-1.26-13.68-1.26,0,0-3.37,1.26-.21,2.11s37.47,3.79,37.47,3.79l7.37,2.32s-1.68,1.26-3.58,1.05c-1.89-.21,4.84,2.53,0,2.11s-64.84,1.05-64.84,1.05c0,0,1.05,5.26-6.95,4s-14.53-.84-14.53-.84l-.42-1.89s-14.53-2.11-17.68-5.89c-3.16-3.79-6.32-9.05-6.32-9.05,0,0-4.84,7.58-11.16,6.11-6.32-1.47-1.05-2.74.84-3.16s8.53-7.37,9.58-10.32c1.05-2.95,2-6.95,3.47-6.74,1.47.21,3.11-4.76,8.42-6.53Z" fill="#1d253a" opacity=".4"/>
    <g>
      <g>
        <path d="M306.28,303.01c-1.39-.47-3.4-1.3-6.28,3.19-2.15,3.36-2.95,4.73-2.95,4.73,0,0-12.31,16.67-12.28,16.84s2.5,1.47,2.5,1.47l23.32-23.29s-2.09-2.2-4.32-2.95Z" fill="#f7bc00" stroke="#221a38" stroke-linecap="round" stroke-linejoin="round" stroke-width=".49"/>
        <path d="M285.46,328.19c-.1.03,15.54-19.07,15.54-19.07l2.5,1.58s-17.01,18.11-16.91,18.11l-1.13-.62Z" fill="#e8e8e8" stroke="#221a38" stroke-linecap="round" stroke-miterlimit="10" stroke-width=".24"/>
        <path d="M305.9,303.01l-3.29,4.18,1.85,1.47,3.94-4.39s-1.58-1.23-2.5-1.27Z"/>
        <line x1="287.36" y1="325.73" x2="287.79" y2="327.64" fill="none" stroke="#221a38" stroke-linecap="round" stroke-miterlimit="10" stroke-width=".24"/>
        <line x1="289.3" y1="323.56" x2="289.87" y2="325.27" fill="none" stroke="#221a38" stroke-linecap="round" stroke-miterlimit="10" stroke-width=".24"/>
        <line x1="291.12" y1="321.21" x2="291.87" y2="323.09" fill="none" stroke="#221a38" stroke-linecap="round" stroke-miterlimit="10" stroke-width=".24"/>
        <circle cx="303.24" cy="308.24" r="2.97"/>
        <g>
          <path d="M299.5,318.92c-.88-.05-1.88-.31-3.55-2.77-.93-1.38-.69-2.71-.46-3.39.24-.71.68-1.31,1.17-1.66-.32.96-.76,2.89.1,4.56.66,1.28,1.95,2.14,3.83,2.56-.13.28-.42.71-1.02.71h-.08Z" fill="#ff0"/>
          <path d="M296.19,311.92c-.23,1.07-.32,2.53.36,3.85.66,1.27,1.89,2.15,3.67,2.61-.13.16-.34.31-.64.31h-.07c-.82-.05-1.76-.3-3.36-2.67-.88-1.29-.64-2.54-.43-3.17.12-.34.28-.65.47-.92M297.12,310.59c-1.58.51-2.97,3.33-1.37,5.69,1.65,2.44,2.71,2.82,3.74,2.88.03,0,.06,0,.09,0,1.09,0,1.35-1.13,1.35-1.13-6.65-1.27-3.81-7.44-3.81-7.44h0Z" fill="#221a38"/>
        </g>
        <g>
          <path d="M298.66,319.48c-.43,0-.95-.13-1.55-.4-2.65-1.17-3.29-4.33-2.57-5.99.41-.95.66-.96.66-.96.02,0,.05.03.08.06-.24,1.95-.36,3.11.67,4.28,1.57,1.78,2.81,2.57,3.52,2.75-.18.18-.46.27-.81.27Z" fill="#ff0"/>
          <path d="M295.28,312.36h0,0M294.98,312.76c-.19,1.65-.2,2.74.8,3.87,1.25,1.42,2.3,2.22,3.07,2.6-.06,0-.12.01-.18.01-.4,0-.88-.13-1.45-.38-2.47-1.09-3.11-4.14-2.44-5.67.08-.18.15-.32.21-.43M295.21,311.88c-.21,0-.5.23-.89,1.11-.79,1.82-.02,5.11,2.69,6.31.67.3,1.22.42,1.65.42.71,0,1.11-.33,1.23-.76-.01.03-.06.05-.13.05-.4,0-1.67-.49-3.62-2.7-.98-1.11-.84-2.18-.6-4.17,0,0-.11-.25-.33-.25h0Z" fill="#221a38"/>
        </g>
        <path d="M299.11,319.54s-1.27-2.23-3.05.03-1.34,12.14-.93,17.01c0,0,.75,1.07,1.23.1.14-.27-.43-6.81-.31-9.84.14-3.43,0-7.68,3.05-7.31Z" fill="#ff0" stroke="#221a38" stroke-linecap="round" stroke-linejoin="round" stroke-width=".49"/>
        <g>
          <path d="M299.09,320.49c-.58,0-1.04-.36-1.28-.59.55-.34,1.14-.38,1.15-.38h.05s.05-.03.05-.03c.57-.31.87-.66.88-1.05,0-.35-.21-.62-.39-.78.25-.35.45-.57.56-.67.48.18,1.01.76,1.08,1.42.08.74-.4,1.4-1.4,1.9-.23.11-.46.17-.7.17h0Z" fill="#ff0"/>
          <path d="M300.16,317.29c.36.2.73.66.78,1.16.09.8-.64,1.34-1.26,1.65-.2.1-.39.15-.59.15-.33,0-.62-.14-.84-.29.38-.16.72-.19.72-.19h.11s.09-.06.09-.06c.65-.35.99-.77,1.01-1.26,0-.34-.15-.61-.32-.8.12-.15.22-.27.3-.36M300.05,316.73s-.35.28-.83,1c0,0,1.24.75-.27,1.55,0,0-.83.05-1.5.59,0,0,.67.87,1.65.87.25,0,.52-.06.81-.2,2.68-1.34,1.28-3.54.15-3.81h0Z" fill="#221a38"/>
        </g>
        <line x1="293.47" y1="318.39" x2="294.26" y2="320.44" fill="none" stroke="#221a38" stroke-linecap="round" stroke-miterlimit="10" stroke-width=".24"/>
        <path d="M300.81,319.52c-.33,0-.88.74-.88.74,0,0,1.31,1.74,1.77,3.34.63,2.23,3.06,2.51,3.67.55.61-1.96-3.63-4.63-4.55-4.63ZM304.26,324.12c-.62,1.02-1.27-.08-1.79-1.38-.52-1.3-1.27-2.29-1.27-2.29,0,0,3.67,2.68,3.06,3.67Z" fill="#ff0" stroke="#221a38" stroke-linecap="round" stroke-linejoin="round" stroke-width=".49"/>
        <line x1="297.15" y1="313.56" x2="298.07" y2="316.26" fill="none" stroke="#221a38" stroke-linecap="round" stroke-miterlimit="10" stroke-width=".24"/>
        <line x1="299.03" y1="311.51" x2="299.99" y2="314.3" fill="none" stroke="#221a38" stroke-linecap="round" stroke-miterlimit="10" stroke-width=".24"/>
      </g>
      <path d="M305.7,321.74h0c-.94-1.28-2.46-2.5-3.69-2.97.12-.26.33-1.21.34-1.25l-.34-1.07-1.13-.34c-1.65-.31-2.45-.01-2.96-1.01-.9-1.74-.68-4.19-.67-4.21l1.37-2.41-1.74,1.18c-.62.2-1.21.64-1.69,1.24-.88.06-1.37.94-1.7,1.69-.8,1.84-.35,4.8,1.69,6.62-.83,1.29-1.25,3.8-1.32,7.87-.07,3.93.23,8.01.36,9.58l.02.26.15.22c.15.22.71.92,1.53.92.04,0,.07,0,.11,0,.31-.02.88-.18,1.26-.94.17-.33.17-.49,0-3.44-.12-2.15-.28-5.09-.21-6.8.01-.28.02-.57.03-.87.07-2.11,0-4.08.95-4.72.31.04.95.09,1.22.06l.58.43s.56.68.95,2.07c.5,1.76,1.85,2.56,2.97,2.57h.03c1.18,0,2.15-.76,2.53-2,.26-.84.04-1.75-.66-2.69Z" fill="#ff0" opacity=".2"/>
      <g opacity=".2">
        <path d="M296.36,339.26c-1.34,0-2.65-.73-3.51-1.94l-.53-.75-.08-.92c-.14-1.61-.44-5.78-.37-9.83.06-3.34.34-5.69.9-7.39-1.85-2.57-2-5.86-1.06-8.02.65-1.49,1.52-2.46,2.61-2.89.56-.55,1.2-.97,1.88-1.25l1.61-.25,2.96-1.4-.68,5.76c0,.54.06,1.31.25,1.93.38.04.86.08,1.44.2l.12.02,2.81-1.27.52,2.56.04,2.52c1.05.74,2.06,1.7,2.82,2.73,1.47,2,1.37,3.74,1.03,4.85-.7,2.25-2.6,3.71-4.85,3.71h-.05c-1.46-.02-3.11-.72-4.24-2.2,0,.11,0,.22-.01.32-.06,1.59.09,4.47.21,6.57.18,3.31.2,3.74-.26,4.66-.67,1.34-1.85,2.17-3.25,2.27-.1,0-.19.01-.29.01Z" fill="#ff0"/>
      </g>
    </g>
    <path d="M392.88,242.81c39.72,49.33,22.57,148.58-43.29,170.15-65.87,21.57-139.34,5.41-159.58-56.38-20.24-61.79,12.16-130.96,78.03-152.53,65.87-21.57,84.07-11.88,124.84,38.76Z" fill="#ff0" opacity=".04"/>
    <path d="M374.96,318.33c-1.55,41.54-52.76,83.34-94.68,65.68-41.92-17.66-71.38-57.29-54.81-96.62,16.57-39.33,62.39-59.66,104.31-42,41.92,17.66,46.77,30.29,45.18,72.94Z" fill="#ff0" opacity=".08"/>
  </g>
  <path d="M342.76,457.88s-15.79-9.89-28.84-.42c-10.74,7.79-25.05,15.34-27.58,16.42s-8.63,6.53-13.89,4c-5.57-2.67-14.11-4.21-21.47.84-5.71,3.92-13.26,12.63-6.32,10.53,6.95-2.11,5.21-4.9,13.68-6.32,7.58-1.26,12.21,1.05,18.11,4.84,7.92,5.09,10.95,15.69,11.58,13.05,2.53-10.53-8.25-12.12-1.05-14.95,5.89-2.32,24.22-10.64,25.47-11.58,2.53-1.89,12.58-10.42,21.05-12.21,10.17-2.14,14.42-1.07,9.26-4.21Z" fill="#ff0" opacity=".2"/>
  <path d="M314.18,502.09s-5.84-.63-5.37,1.11c.47,1.74.79,2.68,5.37,3.47,4.58.79,40.42,4.11,44.37,3.16s2.37-5.84-4.58-5.68c-6.95.16-39.79-2.05-39.79-2.05Z" fill="#ff0" opacity=".2"/>
  <path d="M357.13,495.93s-2.21-5.05,5.53-5.37c7.74-.32,12.63,6,11.37,7.89-1.26,1.89-5.53-2.21-9.16-2.68-3.33-.43-4.58,1.26-7.74.16Z" fill="#ff0" opacity=".4"/>
</svg>