<?xml version="1.0" encoding="UTF-8"?>
<svg id="Layer_1" data-name="Layer 1" xmlns="http://www.w3.org/2000/svg" width="600" height="580" xmlns:xlink="http://www.w3.org/1999/xlink" viewBox="0 0 600 580">
  <defs>
    <clipPath id="clippath">
      <rect x="-10.01" y="-10.01" width="620.01" height="600.01" fill="#24335b"/>
    </clipPath>
  </defs>
  <g>
    <rect x="-10.01" y="-10.01" width="620.01" height="600.01" fill="#24335b"/>
    <g clip-path="url(#clippath)">
      <path d="M196.34,368.41l-5.95,1.05c-2.02.15-2.65-1.41-2.16-2.52.35-.81,1.66-1.27,1.66-1.27l6.76-2.35s11.44-4.69,22.11-13.29c10.67-8.6,50.32-45.72,62.52-47.28,12.2-1.56,54.51-14.07,82.72,7.03,28.21,21.1,62.17,48.42,64.8,50.8,2.7,2.44,3.97,2.71,7.24,4.77,2.34,1.47,4.32,4.17,2.8,5.46-1.51,1.29-7.78-3.04-7.78-3.04,0,0,8.14,6.81,4.61,9.08s-8.92-6.1-8.92-6.1c0,0,9.95,7.54,5.39,10.1-3.17,1.78-9.67-6.74-9.67-6.74,0,0,6.31,6.39.08,6.05-1.86-.1-7.07-8.28-9.42-11.56-2.36-3.28-46.6-30.35-55.18-32.42,0,0-2.36,59.67-1.18,68.47,1.18,8.8,3.2,38.8,3.2,52.43s2.69,72.61,5.55,79.33c2.86,6.73,12.11,1.38,11.94,10.35s-21.53,11.56-27.93,7.59c-6.39-3.97-13.96-20.35-19.68-49.15-5.72-28.8-11.94-49.32-19.51-49.67s-41.38,70.19-44.58,85.37-22.04,11.56-24.39,10.87c-2.36-.69-13.12-1.72-8.58-13.62,4.54-11.9,7.07,4.83,13.29-16.38,6.22-21.21,16.15-56.91,18.67-90.89,2.52-33.98,8.08-81.06,8.24-95.03,0,0-51.98,37.77-59.55,40.18,0,0-5.55,5-6.56,8.45-1.01,3.45-3.03,1.21-3.53-.34-.5-1.55-.67-4.66.84-8.11,0,0-6.22,3.28-10.43,4.31-4.21,1.03-3.36-1.9-1.35-3.28,2.02-1.38,8.92-6.38,8.92-6.38,0,0-7.7,5.96-11.37,6.11-3.68.15-3.64-2.81-1.99-3.73,1.65-.92,8.38-4.64,8.38-4.64" fill="#fff" stroke="#221a38" stroke-linecap="round" stroke-linejoin="round" stroke-width="1.78"/>
      <path d="M201.16,365.84s-8.92,4.85-11.1,5.97-3.28,2.24-2.91,3.73c.36,1.49,3.2,1.66,8.45-.77" fill="none" stroke="#221a38" stroke-linecap="round" stroke-linejoin="round" stroke-width="1.93"/>
      <g>
        <path d="M306.07,222.04s-28.75,2.48-39.87,33.23c-11.12,30.75,2.17,60.38,46,62.74,43.83,2.36,65.45-23.19,61.63-49.4-3.86-26.47-23.17-51.28-67.76-46.56Z" fill="#fff" stroke="#221a38" stroke-linecap="round" stroke-miterlimit="10" stroke-width="1.8"/>
        <path d="M346.91,246.95c-4.88-1.16-6.42,11.09-6.42,11.09,0,0-.31,1.44-.52,3.61-3.21.22-6.65,1.24-6.56,4.61.09,3.25,2.96,4.43,6.76,4.46.48,2.81,1.14,7.68,3.14,9.6,7.1,6.81,16.41,1.28,18.36-14.32.93-7.47-1.38-12.52-4.62-13.63-5.07-1.73-3.9-3.95-10.14-5.43Z" fill="#fff" stroke="#221a38" stroke-linecap="round" stroke-miterlimit="10" stroke-width="1.8"/>
        <path d="M268.63,246.83s-3.47-3.33-11.5,19.87c-3.87,11.19-16.84,21.72-7.37,23.61,10.07,2.01,15.06-2.71,17.63-17.73,3.79-22.19,1.24-25.75,1.24-25.75Z" fill="#e293e2" stroke="#221a38" stroke-linecap="round" stroke-miterlimit="10" stroke-width="1.44"/>
        <path d="M314.35,266.14c-.49-3.53-4.44-3.79-7.77-3.36-.17-2.07,1.04-14.66-6.08-15.36-7.44-.74-10.39,4.7-13.29,7.62-2.93,2.94-5.7,7.07-5.51,14.97.38,15.72,14.54,18.35,19.93,13.36,3.05-2.82,4.34-7.36,4.84-11.4,4.73-.44,8.39-2.07,7.87-5.82Z" fill="none" stroke="#221a38" stroke-linecap="round" stroke-miterlimit="10" stroke-width="1.8"/>
        <path d="M368.98,248.33s-4.66.86-.68,23.1c3.98,22.23,11.07,22.11,16.56,18.89,6.45-3.78-1.95-10.7-6.14-21.09-9.12-22.63-9.75-20.89-9.75-20.89Z" fill="#e293e2" stroke="#221a38" stroke-linecap="round" stroke-miterlimit="10" stroke-width="1.44"/>
        <path d="M322.19,272.7s-16.85,1.39-20.66,13.87c-3.81,12.48.86,25.87,22.26,25.36,21.4-.5,23-15.28,21.77-23.6-1.23-8.32-9.47-17.91-23.37-15.64Z" fill="#e293e2" stroke="#221a38" stroke-linecap="round" stroke-miterlimit="10" stroke-width="1.44"/>
        <path d="M322.88,279.04s6.87-.1,7.08,4.84c.21,4.94-7.73,2.75-7.73,2.75" fill="none" stroke="#221a38" stroke-linecap="round" stroke-miterlimit="10" stroke-width="1.8"/>
        <path d="M320,296.24s7.86-2.3,9.85.13" fill="none" stroke="#221a38" stroke-linecap="round" stroke-linejoin="round" stroke-width="1.8"/>
        <path d="M299.51,265.13s-7.06,4.09-12.28,4.09" fill="none" stroke="#221a38" stroke-linecap="round" stroke-miterlimit="10" stroke-width="1.94"/>
        <path d="M345.26,263.87s5.53,5.04,11.98,7.24" fill="none" stroke="#221a38" stroke-linecap="round" stroke-miterlimit="10" stroke-width="1.94"/>
      </g>
      <ellipse cx="313.77" cy="76.47" rx="518.92" ry="102.38" fill="#2f3f70" stroke="#221a38" stroke-linecap="round" stroke-miterlimit="10" stroke-width="2.76"/>
      <g>
        <path d="M315.07,125.92s-.87,1.37-.6,2.33c.27.96,1,1.64.73,2.88-.18.85-.46,1.82-.42,2.61.03.53.49.91,1,.81h0c.41-.08.71-.45.69-.88-.02-.55.01-1.32.27-2,.47-1.23.53-2.19.13-2.74-.4-.55-.53-1.1,0-2.05l-1.8-.96Z" fill="#fff" stroke="#221a38" stroke-linecap="round" stroke-linejoin="round" stroke-width="1.21"/>
        <path d="M313.6,115.99s-5.61-1.37-6.68-1.23-3.94.77-3.34,4.86c.4,2.74,7.81,5.04,8.68,5.41,1.94.82,7.08,1.44,9.55-.34,1.67-1.21,3.21-3.9,1.4-4.79-1.8-.89-6.75-3.36-9.62-3.9Z" fill="#f7bc00" stroke="#221a38" stroke-linecap="round" stroke-linejoin="round" stroke-width="2.76"/>
        <path d="M307.91,116.56s-1.17-.09-2.13.98c-.95,1.07-1.39,2.05,1.74,3.69,3.12,1.65,10.2,3.16,13.36,1.6,3.17-1.56-1.21-2.98-4.12-4.09s-8.03-2.31-8.85-2.18Z" fill="none" stroke="#221a38" stroke-linecap="round" stroke-linejoin="round" stroke-width="1.21"/>
        <path d="M314.61,115.18l-1,2.38,2.34.75.82-2.18c.3-.74-.18-1.57-.95-1.66h0c-.51-.06-.99.22-1.2.7Z" fill="#fff" stroke="#221a38" stroke-linecap="round" stroke-linejoin="round" stroke-width="1.21"/>
        <path d="M316.08,123.52l.18,2.27c.05.64.59,1.12,1.21,1.08h0c.63-.04,1.12-.6,1.08-1.25l-.13-2.25-2.34.14Z" fill="#fff" stroke="#221a38" stroke-linecap="round" stroke-linejoin="round" stroke-width="1.21"/>
        <path d="M318.29,123.5l.56,2.21c.16.62.77,1,1.38.85h0c.62-.15,1-.79.85-1.42l-.51-2.19-2.28.55Z" fill="#fff" stroke="#221a38" stroke-linecap="round" stroke-linejoin="round" stroke-width="1.21"/>
      </g>
      <path d="M312.05,223.08c1.68.01-42.1,4.89-41.58,39.58.36,24.05,17.03,37.92,47.55,40.78,15.37,1.44,19.96-2.63,29.73-9.29,13.62-9.29,45.47-47.5-26.8-71.73,0,0,35.14,0,54.62,37.92,3.93,7.65,11.14,19.19,8.98,24.45-2.17,5.26-4.02,7.74-7.43,5.88-3.4-1.86-4.02-4.33-5.57-1.55s-8.43,14.37-12.15,17.15c0,0,66.75,39.06,85.07,70.64l-10.74,6.32-74.53-46.74,1.89,75.79,4.42,125.05,7.58,5.43s-17.61,21.51-26.85,9.61c-9.24-11.9-27.47-92.09-27.47-92.09l-9.47-2.53-12.63,13.89s-12.24,24.58-22.14,46.92c-2.93,6.6-5.69,12.53-7.53,17.72-2.29,6.45-3.49,11.56-5.75,13.13-5.3,3.69-13.15,4.25-20.56,2.95-7.41-1.3-8.85-8.27-8.85-8.27,0,0,.93,3.51,10.55,5.06,6.82,1.1,12.84,1.69,14.83-1.73,1.98-3.42-2.16-7.46-7.57-9.98-7.03-3.27-16.31.72-16.31.72,0,0,.35-2.22,2.57-4.57,1.26-1.33,3.82,1.08,5.58-1.13,3.4-4.26,6.33-14.64,8.96-24.65,6.37-24.28,12.12-50.07,12.12-50.07l.63-42.95,9.47-76.42-70.11,55.58-24-21.47s75.97-67.28,93.92-69.45c0,0-9.91-13.31-10.21-19.19,0,0-8.05,4.64-8.67-4.02s.9-4.16,3.7-12.76c2.8-8.6,7.8-19.62,11.49-19.37,0,0,11.68-24.84,43.26-24.62Z" fill="#1d253a" opacity=".2"/>
    </g>
  </g>
  <path d="M317.88,135.49c-2.49,0-5.15-.47-6.95-1.23l-.35-.12c-5.61-2.03-10.91-4.6-11.65-9.62-.54-3.73.6-6.22,1.66-7.65,1.48-2.01,3.7-3.25,6.4-3.59.24-.03.53-.05.86-.05,1.67,0,5.05.74,7.64,1.37,3.08.62,7.12,2.5,10.69,4.26l.15.07c2.23,1.1,3.68,3.24,3.88,5.74.28,3.54-2.06,6.91-4.51,8.67-1.99,1.44-4.63,2.17-7.83,2.17h0Z" fill="#ff0" opacity=".2"/>
  <path d="M314.7,114.56s-8.31-.99-9.82-.8-5.55,1.09-4.71,6.85c.56,3.86,2.68,6.85,11.69,10.11,7.14,2.59,10.52-.46,14-2.97,2.36-1.7,4.24-6.32,1.7-7.57-2.54-1.25-8.82-4.85-12.87-5.62Z" fill="#ff0" opacity=".2"/>
</svg>