<?xml version="1.0" encoding="UTF-8"?>
<svg id="Layer_1" data-name="Layer 1" xmlns="http://www.w3.org/2000/svg" width="600" height="580" xmlns:xlink="http://www.w3.org/1999/xlink" viewBox="0 0 600 580">
  <defs>
    <clipPath id="clippath">
      <polygon points="610.47 590.01 -10.54 590.01 -10.01 -10.01 610.01 -10.01 610.47 590.01" fill="none"/>
    </clipPath>
    <clipPath id="clippath-1">
      <rect x="-46.83" y="656.53" width="1420.01" height="1039.7" fill="none"/>
    </clipPath>
  </defs>
  <rect x="-10.6" y="0" width="621.2" height="592.05" fill="#24335b"/>
  <g clip-path="url(#clippath)">
    <path d="M205.31,343.07s-7.08-6.62-23.44,39.53c-7.89,22.26-34.94,30.18-18.48,45.86,17.22,16.4,34.16-4.29,39.4-34.18,7.73-44.14,2.53-51.21,2.53-51.21Z" fill="#e293e2" stroke="#221a38" stroke-linecap="round" stroke-miterlimit="10" stroke-width="2.89"/>
    <path d="M409.93,346.05s-9.5,1.71-1.38,45.94c8.12,44.22,30.51,53.37,40.45,40.45,20.94-27.23-11.52-35.87-20.94-53.14-18.67-34.23-18.13-33.24-18.13-33.24Z" fill="#e293e2" stroke="#221a38" stroke-linecap="round" stroke-miterlimit="10" stroke-width="2.89"/>
    <path d="M152.37,711.55c-2.47,3.46-7.21,3.06-10.18-11.78-2.97-14.84,1.48-26.21,1.48-26.21,16.61-114.6,31.77-222.14,86.45-221.9,25.07.11,111.15-27.98,168.66,13.99,57.52,41.97,37.85,221,37.79,228.17-.07,7.35,1.22,9.65,2.5,17.38.91,5.51-.5,12.08-4.47,11.43-3.97-.65-5.8-15.95-5.8-15.95,0,0,.62,21.41-7.5,18.92-8.13-2.49-2.73-21.7-2.73-21.7,0,0,1.95,25.15-7.99,21.45-6.91-2.57-2.78-23.68-2.78-23.68,0,0-1.18,18.04-8.98,8-2.32-2.99,3.02-21.67,4.8-29.57,1.78-7.9-9.32-131.6-26.82-135.72,0,0,.58,79.8,2.98,97.29,2.4,17.49-5.37,57.06-5.37,84.16,0,0-10.15,91.09-17.31,104.81-7.16,13.73-25.67,48.58-24.47,50.97,1.19,2.39,7.3,45.36-13.73,45.36-28.05,0-17.91-23.88-16.71-48.95,1.19-25.07-1.05-22.79-1.05-22.79-11.66-57.28,3.7-99.06-11.74-99.74s-11.74,64.06-18.25,94.25l-1.19,21.13s14.92,50.74-7.16,54.91c-20.93,3.96-25.67-7.16-26.86-48.95,0,0-7.16,2.15-10.15-54.55-2.76-52.51-34.49-48.27-29.34-115.84,5.15-67.58,16.64-138.18,16.98-165.96,0,0-37.59,102.88-38.58,138,0,0,6.43,12.86.49,16.82" fill="#fff" stroke="#221a38" stroke-linecap="round" stroke-linejoin="round" stroke-width="3.59"/>
    <path d="M281.66,293.76s-58.62,4.93-81.29,66.09c-22.67,61.16,4.43,120.09,93.79,124.78,89.36,4.69,133.45-46.13,125.67-98.25-7.86-52.64-47.25-101.99-138.17-92.61Z" fill="#fff" stroke="#221a38" stroke-linecap="round" stroke-miterlimit="10" stroke-width="3.62"/>
    <path d="M364.92,343c-8.31,5.95-13.1,22.06-13.1,22.06,0,0-.62,2.86-1.06,7.18-6.55.44-13.55,2.46-13.37,9.17.17,6.47,6.03,8.81,13.78,8.88.98,5.59,2.32,15.28,6.39,19.09,14.47,13.55,33.47,2.54,37.43-28.48,1.9-14.85-4.55-30.85-9.67-35.58-5.2-4.8-12.9-7.7-20.41-2.32Z" fill="#fff" stroke="#221a38" stroke-linecap="round" stroke-miterlimit="10" stroke-width="3.62"/>
    <path d="M298.54,381.46c-1-7.02-9.05-7.55-15.84-6.69-.34-4.11,2.11-29.15-12.4-30.56-15.17-1.47-22.43,4.3-28.35,10.1-5.97,5.85-10.38,19.13-9.99,34.83.78,31.26,29.65,36.49,40.64,26.57,6.22-5.61,8.84-14.65,9.87-22.67,9.64-.87,17.12-4.11,16.05-11.58Z" fill="none" stroke="#221a38" stroke-linecap="round" stroke-miterlimit="10" stroke-width="3.62"/>
    <path d="M314.51,394.53s-34.36,2.76-42.13,27.59c-7.77,24.83,1.76,51.45,45.4,50.45,43.64-1,46.9-30.38,44.39-46.93-2.51-16.55-19.31-35.61-47.65-31.1Z" fill="#e293e2" stroke="#221a38" stroke-linecap="round" stroke-miterlimit="10" stroke-width="2.89"/>
    <path d="M315.93,407.13s14.01-.2,14.44,9.63c.43,9.83-15.76,5.47-15.76,5.47" fill="none" stroke="#221a38" stroke-linecap="round" stroke-miterlimit="10" stroke-width="3.62"/>
    <ellipse cx="297.35" cy="99.8" rx="853.51" ry="164.26" fill="#2f3f70" stroke="#221a38" stroke-linecap="round" stroke-miterlimit="10" stroke-width="2.64"/>
    <path d="M263.74,345.98s-11-2.7-13.4,12.4c-2.4,15.1,5.7,25.4,13.6,22.6,7.9-2.8,6.7-14.6,6.9-20.7.2-6.1-1.4-12.7-7.1-14.3Z" fill="#e293e2" stroke="#221a38" stroke-linecap="round" stroke-miterlimit="10" stroke-width="2.89"/>
    <path d="M374.72,343.09s-9.31-2.48-10.72,10.35c-1.4,12.84-.7,24.13,7.84,24.44,8.54.31,10.99-10.27,11.35-20.85s-2.67-13.35-8.47-13.95Z" fill="#e293e2" stroke="#221a38" stroke-linecap="round" stroke-miterlimit="10" stroke-width="2.89"/>
    <path d="M304.74,441.87s11.59-.28,18.73,3.15" fill="none" stroke="#221a38" stroke-linecap="round" stroke-linejoin="round" stroke-width="3.62"/>
    <path d="M400.91,85.84c26.52,38.24-11.24,103.98-82.13,104.83-70.89.86-133.72-27.61-128.33-73.34,4.86-41.27,53.54-74.07,112.99-74.79,59.45-.72,72.63,7.47,97.47,43.29Z" fill="#ff0" opacity=".08"/>
    <g>
      <path d="M301.05,117.05s-1.25,1.97-.87,3.35c.38,1.38,1.44,2.37,1.06,4.14-.26,1.22-.66,2.62-.61,3.76.04.76.71,1.31,1.43,1.17h0c.59-.11,1.02-.65,1-1.26-.03-.79.02-1.9.39-2.88.67-1.77.77-3.15.19-3.94-.58-.79-.77-1.58,0-2.96l-2.6-1.38Z" fill="#fff" stroke="#221a38" stroke-linecap="round" stroke-linejoin="round" stroke-width="1.74"/>
      <path d="M298.93,102.75s-8.08-1.97-9.62-1.77c-1.54.2-5.67,1.11-4.81,7,.58,3.94,11.24,7.25,12.5,7.79,2.79,1.18,10.19,2.07,13.75-.49,2.41-1.73,4.62-5.62,2.02-6.9-2.6-1.28-9.71-4.83-13.85-5.62Z" fill="#f7bc00" stroke="#221a38" stroke-linecap="round" stroke-linejoin="round" stroke-width="3.98"/>
      <path d="M290.73,103.58s-1.69-.13-3.06,1.41c-1.37,1.54-2,2.94,2.5,5.31,4.5,2.37,14.68,4.55,19.23,2.3,4.56-2.24-1.75-4.29-5.93-5.89-4.18-1.6-11.55-3.33-12.74-3.14Z" fill="none" stroke="#221a38" stroke-linecap="round" stroke-linejoin="round" stroke-width="1.74"/>
      <path d="M300.38,101.59l-1.45,3.43,3.37,1.08,1.18-3.13c.43-1.07-.25-2.26-1.37-2.39h0c-.73-.08-1.42.32-1.73,1.01Z" fill="#fff" stroke="#221a38" stroke-linecap="round" stroke-linejoin="round" stroke-width="1.74"/>
      <path d="M302.49,113.6l.26,3.27c.07.92.85,1.61,1.75,1.56h0c.91-.06,1.61-.86,1.55-1.79l-.19-3.23-3.37.2Z" fill="#fff" stroke="#221a38" stroke-linecap="round" stroke-linejoin="round" stroke-width="1.74"/>
      <path d="M305.68,113.56l.81,3.18c.23.89,1.11,1.43,1.98,1.22h0c.89-.22,1.44-1.13,1.22-2.04l-.74-3.15-3.28.8Z" fill="#fff" stroke="#221a38" stroke-linecap="round" stroke-linejoin="round" stroke-width="1.74"/>
    </g>
    <path d="M305.09,130.82c-3.59,0-7.42-.68-10-1.77l-.5-.18c-8.08-2.92-15.7-6.62-16.76-13.85-.78-5.37.86-8.95,2.39-11.01,2.14-2.89,5.33-4.68,9.22-5.17.34-.04.76-.08,1.23-.08,2.4,0,7.27,1.06,11,1.97,4.43.89,10.26,3.6,15.39,6.13l.21.1c3.21,1.58,5.29,4.67,5.58,8.26.41,5.1-2.97,9.95-6.49,12.49-2.87,2.07-6.66,3.12-11.27,3.12h0Z" fill="#ff0" opacity=".2"/>
    <path d="M300.51,100.69s-11.97-1.43-14.14-1.15-7.99,1.56-6.77,9.86c.81,5.56,3.86,9.85,16.83,14.56,10.28,3.73,15.14-.67,20.15-4.28,3.39-2.44,6.11-9.09,2.45-10.9-3.66-1.81-12.7-6.98-18.53-8.09Z" fill="#ff0" opacity=".2"/>
    <path d="M216.63,344.84c4.42,5.05-48.63,105.47,76.42,132,26.23,5.56,59.02.32,78.95-13.26,27.79-18.95,55.58-100.42,29.68-123.16,0,0,12.63,13.26,21.47,28.42,8.84,15.16,22.74,39.16,18.32,49.89-4.42,10.74-8.21,15.79-15.16,12s-8.21-8.84-11.37-3.16c-3.16,5.68-17.21,29.32-24.79,35,0,0,36.16-3.42,49.42,117.84l-287.37,1.89s24-121.89,60.63-126.32c0,0-20.21-27.16-20.84-39.16,0,0-16.42,9.47-17.68-8.21-1.26-17.68,1.83-8.49,7.55-26.04s15.91-40.04,23.44-39.53c0,0-1.99-13.44,11.33,1.77Z" fill="#1d253a" opacity=".3"/>
  </g>
  <g clip-path="url(#clippath-1)">
    <rect x="-58.24" y="564.22" width="1442.84" height="1164.92" fill="#2f3f70"/>
    <path d="M1364.93,524.33c269.25,334.39,153,1007.12-293.45,1153.32-446.45,146.2-944.5,36.67-1081.66-382.16C-147.34,876.65,72.26,407.8,518.71,261.59c446.45-146.2,569.82-80.54,846.22,262.74Z" fill="#ff0" opacity=".04"/>
    <path d="M899.49,1320.55c-227.28,104.26-590.53-57.5-609.31-330.47-18.77-272.98,114.23-538.55,370.32-556.16,256.09-17.6,489.46,173.38,508.24,446.35,18.77,272.98-35.93,333.25-269.25,440.28Z" fill="#ff0" opacity=".08"/>
  </g>
</svg>