<?xml version="1.0" encoding="UTF-8"?>
<svg id="Layer_1" data-name="Layer 1" xmlns="http://www.w3.org/2000/svg" width="600.64" height="580" xmlns:xlink="http://www.w3.org/1999/xlink" viewBox="0 0 600.64 580">
  <defs>
    <clipPath id="clippath">
      <polygon points="-75.43 587.48 -696.43 587.48 -695.9 -12.53 -75.89 -12.53 -75.43 587.48" fill="none"/>
    </clipPath>
    <clipPath id="clippath-1">
      <rect x="-732.72" y="654" width="1420.01" height="1039.7" fill="none"/>
    </clipPath>
    <clipPath id="clippath-2">
      <path d="M21.18,9.64S5.33,7.75,4.38,44.47c-.85,32.91-.69,196.14-1.34,224.04-.65,27.9,1.12,51.95.47,74.54-.65,22.59.05,148.95,1.35,168.88,1.3,19.93-3.46,54.35,4.01,55.68,7.47,1.33,56.73.79,69.07.79s58.15,4.25,72.44,1.6c14.29-2.66,38.86-.03,59.77-.66,9.86-.3,62.69.27,73.41.27s150.73-3.32,164.04-1.33c13.32,1.99,50.79,3.45,65.73,2.12,14.94-1.33,63.99-1.05,68.54-1.72,4.55-.66,12.36-5.23,11.69-30.56-.99-37.83,3.14-137.27.54-157.2-2.6-19.93-.19-63.24.45-86.5.65-23.25,2.6-132.21,2.6-152.15s1.3-52.47,0-73.07c-1.3-20.6,1.96-49.6-4.58-51.97-14.79-5.37-37.3-5.7-49.64-5.04-12.34.66-75.71-.79-90.66-.79s-57.82-3.32-77.31-1.99c-19.49,1.33-73.27-.69-85.61.64-12.34,1.33-42.57-1.84-54.91.82-12.34,2.66-39.45-1.86-53.02-.82-25.51,1.95-47.02,1.48-66.51.82-19.49-.66-41.69.8-50.81-.49-9.42-1.33-42.92-.74-42.92-.74Z" fill="none"/>
    </clipPath>
  </defs>
  <rect x="-16.88" y="-16.32" width="633.77" height="612.64" fill="#1d253a"/>
  <g clip-path="url(#clippath)">
    <ellipse cx="-388.55" cy="97.27" rx="853.51" ry="164.26" fill="#2f3f70" stroke="#221a38" stroke-linecap="round" stroke-miterlimit="10" stroke-width="2.64"/>
  </g>
  <g clip-path="url(#clippath-1)">
    <rect x="-744.14" y="561.69" width="1442.84" height="1164.92" fill="#2f3f70"/>
    <path d="M679.04,521.81c269.25,334.39,153,1007.12-293.45,1153.32-446.45,146.2-944.5,36.67-1081.66-382.16-137.16-418.84,82.44-887.69,528.89-1033.89,446.45-146.2,569.82-80.54,846.22,262.74Z" fill="#ff0" opacity=".04"/>
    <path d="M213.59,1318.02c-227.28,104.26-590.53-57.5-609.31-330.47-18.77-272.98,114.23-538.55,370.32-556.16,256.09-17.6,489.46,173.38,508.24,446.35,18.77,272.98-35.93,333.25-269.25,440.28Z" fill="#ff0" opacity=".08"/>
  </g>
  <g clip-path="url(#clippath-2)">
    <g>
      <path d="M497.05,108.66l42.07,36.59c79.42,58.26,86.81,185.28,60.89,231.84-15.53,27.9-30.25,39.69-63.51,67.03l-85.3,49.03,45.85-384.5Z" fill="#2f3f70" stroke="#221a38" stroke-linecap="round" stroke-miterlimit="10" stroke-width="3.92"/>
      <path d="M313.63,20.7s-196.49.13-252.77,158.68c-56.28,158.56,31.43,353.88,220.47,353.88s263.12-96.8,268.22-243.41c5.1-146.61-68.66-254.66-235.92-269.15Z" fill="#24335b" stroke="#221a38" stroke-linecap="round" stroke-miterlimit="10" stroke-width="2.67"/>
      <path d="M497.44,126.36c-99.57-30.12-265.68,20.14-254.56,178.53,12.35,175.83,175.39,153.16,175.39,153.16,20.21.89,50.85-3.69,66.93-8.98,0,0,38.15-43.95,51.34-122.48,14.55-86.64-14.7-159.13-30.27-185.84l-8.83-14.39Z" fill="#2f3f70" stroke="#221a38" stroke-linecap="round" stroke-miterlimit="10" stroke-width="2.67"/>
      <g>
        <g>
          <path d="M442.09,276.34c-1.42-.21-3.5-.65-5.48,4.19-1.48,3.62-2,5.08-2,5.08,0,0-8.89,18.23-8.83,18.39s2.67.98,2.67.98l18.32-26.56s-2.4-1.74-4.68-2.07Z" fill="#f7bc00" stroke="#221a38" stroke-linecap="round" stroke-linejoin="round" stroke-width=".48"/>
          <path d="M426.52,304.27c-.09.05,11.57-21.12,11.57-21.12l2.69,1.07s-13.16,20.45-13.06,20.44l-1.2-.39Z" fill="#e8e8e8" stroke="#221a38" stroke-linecap="round" stroke-miterlimit="10" stroke-width=".24"/>
          <path d="M441.72,276.41l-2.43,4.61,2.04,1.09,3.02-4.93s-1.74-.91-2.64-.78Z"/>
          <line x1="427.91" y1="301.57" x2="428.66" y2="303.33" fill="none" stroke="#221a38" stroke-linecap="round" stroke-miterlimit="10" stroke-width=".24"/>
          <line x1="429.39" y1="299.13" x2="430.24" y2="300.68" fill="none" stroke="#221a38" stroke-linecap="round" stroke-miterlimit="10" stroke-width=".24"/>
          <line x1="430.72" y1="296.55" x2="431.79" y2="298.23" fill="none" stroke="#221a38" stroke-linecap="round" stroke-miterlimit="10" stroke-width=".24"/>
          <circle cx="440.09" cy="281.91" r="2.9"/>
          <g>
            <path d="M437.97,292.89c-.72,0-1.7-.25-3.49-2.07-1.14-1.16-1.14-2.49-1.04-3.18.11-.72.42-1.38.83-1.81-.14.98-.22,2.92.91,4.38.86,1.12,2.26,1.72,4.15,1.78-.08.31-.3.8-.94.88-.14.02-.28.03-.42.03Z" fill="#ff0"/>
            <path d="M433.96,286.71c-.03,1.07.14,2.5,1.03,3.64.86,1.11,2.2,1.73,4,1.86-.11.19-.3.38-.63.42-.13.02-.26.03-.39.03-.67,0-1.59-.24-3.32-2-1.07-1.09-1.07-2.33-.98-2.98.05-.35.15-.68.29-.97M434.62,285.26c-1.43.78-2.27,3.73-.31,5.72,1.72,1.75,2.77,2.14,3.66,2.14.15,0,.3-.01.45-.03,1.13-.14,1.19-1.35,1.19-1.35-6.63-.04-4.99-6.49-4.99-6.49h0Z" fill="#221a38"/>
          </g>
          <g>
            <path d="M437.22,293.58c-.32,0-.69-.05-1.1-.15-2.76-.66-3.93-3.58-3.54-5.31.2-.85.41-1.05.47-1.05.02,0,.05.02.08.05.12,1.92.21,3.06,1.4,4,2.19,1.71,3.43,1.98,3.88,2.02-.2.29-.61.44-1.19.44Z" fill="#ff0"/>
            <path d="M433.16,287.29h0,0M432.94,287.73c.11,1.62.3,2.67,1.46,3.58,1.61,1.26,2.73,1.77,3.42,1.96-.21.07-.45.08-.59.08-.3,0-.66-.05-1.05-.14-2.58-.61-3.73-3.43-3.36-5.03.04-.19.08-.33.12-.45M433.06,286.84c-.2,0-.48.24-.71,1.23-.44,1.89.89,4.92,3.71,5.6.45.11.83.15,1.16.15,1.03,0,1.5-.47,1.55-1,0,.04-.09.08-.25.08-.51,0-1.77-.36-3.83-1.97-1.14-.89-1.2-1.95-1.32-3.91,0,0-.13-.19-.31-.19h0Z" fill="#221a38"/>
          </g>
          <path d="M438.12,293.53s-1.62-1.92-2.93.58c-1.32,2.5.87,11.93,2.13,16.54,0,0,.91.89,1.21-.12.08-.29-1.62-6.48-2.04-9.42-.48-3.33-1.36-7.4,1.64-7.57Z" fill="#ff0" stroke="#221a38" stroke-linecap="round" stroke-linejoin="round" stroke-width=".48"/>
          <g>
            <path d="M438.02,294.47c-.45,0-.85-.21-1.08-.36.47-.43,1.03-.57,1.04-.57h.05s.04-.04.04-.04c.5-.4.72-.79.66-1.16-.05-.34-.31-.56-.51-.68.18-.38.34-.63.42-.75.5.09,1.1.55,1.29,1.18.21.7-.14,1.42-1.01,2.08-.28.21-.58.31-.9.31h0Z" fill="#ff0"/>
            <path d="M438.74,291.17c.39.13.82.5.96.98.23.76-.38,1.4-.92,1.82-.24.18-.48.27-.75.27-.24,0-.46-.07-.65-.15.34-.22.66-.31.66-.31l.1-.02.08-.06c.57-.45.82-.92.74-1.39-.05-.33-.25-.56-.45-.72.09-.17.16-.3.22-.4M438.52,290.65s-.29.33-.63,1.11c0,0,1.33.5.02,1.54,0,0-.79.2-1.34.83,0,0,.63.57,1.44.57.33,0,.69-.09,1.04-.36,2.35-1.76.6-3.63-.53-3.7h0Z" fill="#221a38"/>
          </g>
          <line x1="432.49" y1="293.42" x2="433.61" y2="295.25" fill="none" stroke="#221a38" stroke-linecap="round" stroke-miterlimit="10" stroke-width=".24"/>
          <path d="M439.75,293.2c-.32.06-.72.87-.72.87,0,0,1.57,1.45,2.29,2.9,1.01,2.04,3.39,1.87,3.63-.12.24-1.99-4.32-3.82-5.2-3.65ZM443.89,297.02c-.42,1.09-1.24.15-1.97-1.01-.73-1.15-1.63-1.98-1.63-1.98,0,0,4.01,1.92,3.6,2.99Z" fill="#ff0" stroke="#221a38" stroke-linecap="round" stroke-linejoin="round" stroke-width=".48"/>
          <line x1="435.18" y1="288.12" x2="436.54" y2="290.55" fill="none" stroke="#221a38" stroke-linecap="round" stroke-miterlimit="10" stroke-width=".24"/>
          <line x1="436.62" y1="285.8" x2="438.04" y2="288.32" fill="none" stroke="#221a38" stroke-linecap="round" stroke-miterlimit="10" stroke-width=".24"/>
        </g>
        <path d="M444.86,294.47h0c-1.14-1.07-2.81-1.97-4.08-2.21.07-.27.1-1.23.1-1.26l-.51-.97-1.15-.12c-1.64-.01-2.36.42-3.03-.44-1.17-1.51-1.4-3.91-1.39-3.93l.89-2.56-1.46,1.44c-.56.31-1.06.83-1.41,1.5-.83.21-1.15,1.14-1.33,1.93-.44,1.91.51,4.68,2.8,6.07-.57,1.38-.53,3.88.13,7.81.63,3.8,1.64,7.67,2.05,9.16l.07.25.18.18c.18.18.85.76,1.64.61.03,0,.07-.01.1-.02.29-.08.82-.33,1.05-1.12.1-.35.07-.5-.61-3.31-.49-2.05-1.17-4.85-1.41-6.51-.04-.28-.08-.56-.12-.84-.31-2.05-.72-3.93.07-4.71.3-.01.93-.08,1.19-.16l.63.31s.66.56,1.28,1.83c.79,1.6,2.24,2.13,3.32,1.95h.03c1.13-.21,1.93-1.12,2.08-2.38.1-.85-.27-1.69-1.11-2.48Z" fill="#ff0" opacity=".2"/>
        <g opacity=".2">
          <path d="M438.97,313c-1.29.24-2.68-.23-3.73-1.25l-.65-.63-.24-.87c-.42-1.52-1.45-5.49-2.1-9.4-.54-3.22-.69-5.53-.45-7.27-2.23-2.15-2.96-5.29-2.45-7.53.36-1.55,1.03-2.64,2-3.25.44-.63.98-1.15,1.59-1.54l1.5-.53,2.6-1.88.37,5.67c.09.52.29,1.25.58,1.82.37-.03.84-.07,1.42-.07h.12s2.48-1.72,2.48-1.72l.95,2.37.49,2.42c1.15.52,2.29,1.27,3.2,2.13,1.77,1.66,1.98,3.36,1.85,4.49-.27,2.29-1.85,4.03-4.01,4.43h-.05c-1.41.25-3.12-.13-4.47-1.36.02.11.03.21.05.31.22,1.54.88,4.28,1.37,6.28.76,3.16.86,3.56.58,4.53-.41,1.41-1.4,2.41-2.73,2.76-.09.02-.18.04-.28.06Z" fill="#ff0"/>
        </g>
      </g>
      <path d="M415.78,293.68s4.01-4.48,10.5-5.87c0,0,4.48-.77-.77,3.09,0,0,3.71-3.71,4.94-2.32,1.24,1.39-2.78,3.71-2.78,3.71,0,0,7.87-3.09.31,3.71l-12.2-2.32Z" fill="#fff"/>
      <g>
        <path d="M447.07,293.52s-2.82-2.45-3.86-2.54-.91.55-.91.55c0,0-1.58-1.21-1.3.77,0,0-1.69-1.08-1.74.47s1.32,2.45,1.32,2.45c0,0-.66-.33-1.08.52s-.24,1.6.66,2.16c.89.56,1.98,1.98,2.78,3.2.8,1.22,4.75,5.65,6.3,14.3s-8.28,16.04-11.53,17.17l-4.05-.47-29.69-.14-6.12-7.9s-2.82,3.39-3.9,5.83c-1.08,2.45-4.7,11.01-5.27,21.17-.56,10.16,2.68,58.48,2.68,58.48,0,0,.09,30.81.05,33.31s-1.98,9.31-.94,12.09c1.03,2.78,2.4,7.2,5.17,8.33,2.78,1.13,10.96-.05,10.82-.09s5.03.42,4.09-3.95c0,0-.38-2.49-2.54-4.19-2.16-1.69-4.58-2.69-4.36-8.33.22-5.64,3.65-26.11,3.65-26.11l3.1-22.27,2.03.21,2.5,45.89s.3,10.84,2.18,15.58c1.89,4.74,4.21,4.1,4.64,3.99s8.95-.24,8.95-.24c0,0,1.89-.27,1.99-2.35.11-2.08-1.16-3.47-1.7-4.74-.54-1.27-2.1-3.19-1.99-9.3.11-6.12,2.99-28.55,3.59-32.7.59-4.15,3.56-21.73,6.28-30.46,2.72-8.73,5.77-18.79,6.71-23.86.94-5.07,4.47-15.98,6.36-19.79,1.89-3.8,6.23-6.55,8.46-12.18s3.51-8.89,1.43-16.36c-2.53-9.11-14.78-18.48-14.78-18.48Z" fill="#fff"/>
        <path d="M399.93,332.04s16.58-1.07,21.85-.99c6.09.1,15.62,1.3,15.62,1.3,21.88-11.22,7.31-27.89,4.32-33.17,0,0-1.65-1.42-2.03-1.73-1.23-1.01-.37-2.43,1.08-1.79.96.42,2.41,1.72,2.41,1.72" fill="none" stroke="#221a38" stroke-linecap="round" stroke-miterlimit="10" stroke-width="1.04"/>
        <path d="M408.14,329.01s9.34-23.59,18.42-32.18c0,0,2.56-2.65,3.81-3.39,1.26-.74.57-3.03-2.34-1.31" fill="none" stroke="#221a38" stroke-linecap="round" stroke-miterlimit="10" stroke-width="1.04"/>
        <g>
          <path d="M398.74,303.02s-5.69-.65-7.18,8.04c-1.49,8.69,1.21,9.95,5.24,10.23,4.03.28,7.64-.41,7.51-10.23-.11-8.04-5.58-8.04-5.58-8.04Z" fill="#e293e2" stroke="#221a38" stroke-linecap="round" stroke-miterlimit="10" stroke-width="1.21"/>
          <path d="M415,292.31s-12.36,1.1-17.14,14.73c-4.78,13.63.93,26.76,19.78,27.8s25.83-11.32,22.75-22.64c-3.08-11.32-6.23-21.31-25.39-19.89Z" fill="#fff" stroke="#221a38" stroke-linecap="round" stroke-miterlimit="10" stroke-width="1.31"/>
          <path d="M438.57,303.68s-3.75-.6-5.12,8.79c-1.36,9.38,2.8,10.76,6.49,10.66,4.18-.11,5.99-1.21,5.38-10.28-.58-8.66-6.76-9.18-6.76-9.18Z" fill="#e293e2" stroke="#221a38" stroke-linecap="round" stroke-miterlimit="10" stroke-width="1.31"/>
        </g>
        <path d="M442.87,297.1s-3.53-2.89-3.8-3.49c-.17-.37.1-1.23,1.25-.96s3.9,2.53,3.9,2.53" fill="none" stroke="#221a38" stroke-linecap="round" stroke-miterlimit="10" stroke-width="1.04"/>
        <path d="M444.09,295.51s-3.68-3.14-3.36-3.73c.32-.59.98-.71,1.57-.25s3.24,2.87,3.24,2.87" fill="none" stroke="#221a38" stroke-linecap="round" stroke-miterlimit="10" stroke-width="1.04"/>
        <path d="M427.85,291.92c.46-.26-.69.35,2.67-1.59,0,0,1.31-.86.06-1.66-1.26-.8-5.94,2.23-5.94,2.23" fill="none" stroke="#221a38" stroke-linecap="round" stroke-miterlimit="10" stroke-width="1.04"/>
        <path d="M397.93,323.76c-5.32,6.8-7.84,15.17-8.84,22.61-2.36,17.67,5.29,67.22,1.27,105.86,0,0,.19,7.36,4.77,10.54,1.99,1.38,6.06.96,10.54.5,0,0,7.46.31,3.76-6.27-2.26-4.01-6.52-3.01-5.77-10.29.75-7.28,6.77-48.43,6.77-48.43l2.01.25,3.01,54.2s.75,9.28,5.02,11.29l9.53-.33s5.77-.5,1-7.03c-4.77-6.52,1-37.31,1-37.31l.5-3.51c2.51-24.59,11.02-44.07,12.68-53.43,1.84-10.43,4.7-16.76,4.7-16.76,0,0,1.97-6.36,5.76-10.25,7.66-7.88,9.02-20.1,4.42-27.32-6.37-10-11.96-13.74-11.96-13.74l-.39-.23s-1.87-1.89-3.39-2.9c-1.52-1.01-1.94-.1-2.04.32s2.99,2.7,2.99,2.7" fill="none" stroke="#221a38" stroke-linecap="round" stroke-miterlimit="10" stroke-width="1.04"/>
        <path d="M426.83,289.7s2.78-1.71,1.18-2.28c-1.6-.57-4.68,1.18-4.68,1.18-2.32,1.07-3.59,2.04-5.64,3.48" fill="none" stroke="#221a38" stroke-linecap="round" stroke-miterlimit="10" stroke-width="1.04"/>
      </g>
      <path d="M313.26,26.4s-192.11.13-247.15,155.15c-55.03,155.03,30.73,346,215.57,346s257.26-94.64,262.25-237.99c4.99-143.35-67.14-248.99-230.67-263.16Z" fill="none" stroke="#446099" stroke-linecap="round" stroke-miterlimit="10" stroke-width="7.91"/>
      <path d="M518.58,218.99c45.63,56.67,25.93,170.69-49.73,195.47-75.66,24.78-160.07,6.22-183.32-64.77-23.25-70.98,13.97-150.45,89.64-175.22,75.66-24.78,96.57-13.65,143.42,44.53Z" fill="#ff0" opacity=".04"/>
      <path d="M509.01,306.68c-2,53.7-68.21,107.74-122.4,84.91-54.19-22.83-92.27-74.06-70.85-124.9,21.42-50.84,80.66-77.13,134.85-54.3,54.19,22.83,60.46,39.16,58.41,94.29Z" fill="#ff0" opacity=".08"/>
      <path d="M419.88,296.6s-11.67-3.39-18.07,9.04c0,0-3.58-3.2-5.46.38s-6.02,12.24,3.39,15.62c0,0-2.64,2.07,1.13,7.53,0,0-4.14-3.01-6.96,2.26s-.94,68.71-2.07,88.28c-1.13,19.58-2.26,30.87-.38,37.27s3.01,6.02,5.84,6.59,16.18,1.15,12.14-6.58-6.56-1.74-5.77-10.29,6.24-51.27,6.24-51.27l2.82,1.13s1.69,46.12,3.01,54.78c1.32,8.66.94,12.88,6.02,12.65s14.16,1.95,9.25-7.33c-4.92-9.28-1.48-20.03,1.51-40.82s14.1-64.27,16.92-71.42c2.82-7.15,11.29-10.73,12.42-21.08s-3.2-13.93-5.84-12.24-4.14,9.79-8.66,13.74-9.6,7.91-12.05,7.72-3.76.56-.75-2.64c3.01-3.2,5.65-2.64,6.21-11.86s-2.07-20.14-20.89-21.46Z" fill="#1d253a" opacity=".3"/>
    </g>
  </g>
  <path d="M21.18,9.64S5.33,7.75,4.38,44.47c-.85,32.91-.69,196.14-1.34,224.04-.65,27.9,1.12,51.95.47,74.54-.65,22.59.05,148.95,1.35,168.88,1.3,19.93-3.46,54.35,4.01,55.68,7.47,1.33,56.73.79,69.07.79s58.15,4.25,72.44,1.6c14.29-2.66,38.86-.03,59.77-.66,9.86-.3,62.69.27,73.41.27s150.73-3.32,164.04-1.33c13.32,1.99,50.79,3.45,65.73,2.12,14.94-1.33,63.99-1.05,68.54-1.72,4.55-.66,12.36-5.23,11.69-30.56-.99-37.83,3.14-137.27.54-157.2-2.6-19.93-.19-63.24.45-86.5.65-23.25,2.6-132.21,2.6-152.15s1.3-52.47,0-73.07c-1.3-20.6,1.96-49.6-4.58-51.97-14.79-5.37-37.3-5.7-49.64-5.04-12.34.66-75.71-.79-90.66-.79s-57.82-3.32-77.31-1.99c-19.49,1.33-73.27-.69-85.61.64-12.34,1.33-42.57-1.84-54.91.82-12.34,2.66-39.45-1.86-53.02-.82-25.51,1.95-47.02,1.48-66.51.82-19.49-.66-41.69.8-50.81-.49-9.42-1.33-42.92-.74-42.92-.74Z" fill="none" stroke="#576f96" stroke-miterlimit="10" stroke-width="2.63"/>
</svg>