<?xml version="1.0" encoding="UTF-8"?>
<svg id="Layer_1" data-name="Layer 1" xmlns="http://www.w3.org/2000/svg" width="1400" height="1019.68" xmlns:xlink="http://www.w3.org/1999/xlink" viewBox="0 0 1400 1019.68">
  <defs>
    <clipPath id="clippath">
      <polygon points="647.29 -76.53 26.29 -76.53 26.82 -676.54 646.83 -676.54 647.29 -76.53" fill="none"/>
    </clipPath>
    <clipPath id="clippath-1">
      <rect x="-10.01" y="-10.01" width="1420.01" height="1039.7" fill="none"/>
    </clipPath>
  </defs>
  <g clip-path="url(#clippath)">
    <path d="M189.19,45.02c-2.47,3.46-7.21,3.06-10.18-11.78-2.97-14.84,1.48-26.21,1.48-26.21,16.61-114.6,31.77-222.14,86.45-221.9,25.07.11,111.15-27.98,168.66,13.99,57.52,41.97,37.85,221,37.79,228.17-.07,7.35,1.22,9.65,2.5,17.38.91,5.51-.5,12.08-4.47,11.43-3.97-.65-5.8-15.95-5.8-15.95,0,0,.62,21.41-7.5,18.92-8.13-2.49-2.73-21.7-2.73-21.7,0,0,1.95,25.15-7.99,21.45-6.91-2.57-2.78-23.68-2.78-23.68,0,0-1.18,18.04-8.98,8-2.32-2.99,3.02-21.67,4.8-29.57,1.78-7.9-9.32-131.6-26.82-135.72,0,0,.58,79.8,2.98,97.29,2.4,17.49-5.37,57.06-5.37,84.16,0,0-10.15,91.09-17.31,104.81-7.16,13.73-25.67,48.58-24.47,50.97,1.19,2.39,7.3,45.36-13.73,45.36-28.05,0-17.91-23.88-16.71-48.95,1.19-25.07-1.05-22.79-1.05-22.79-11.66-57.28,3.7-99.06-11.74-99.74s-11.74,64.06-18.25,94.25l-1.19,21.13s14.92,50.74-7.16,54.91c-20.93,3.96-25.67-7.16-26.86-48.95,0,0-7.16,2.15-10.15-54.55-2.76-52.51-34.49-48.27-29.34-115.84,5.15-67.58,16.64-138.18,16.98-165.96,0,0-37.59,102.88-38.58,138,0,0,6.43,12.86.49,16.82" fill="#fff" stroke="#221a38" stroke-linecap="round" stroke-linejoin="round" stroke-width="3.59"/>
    <path d="M206.66,14.92s2.58,17.88,4.96,24.35c2.39,6.46-4.43,7.08-5.62,5.67-3.46-4.12-5.48-12.88-6.65-17.37" fill="none" stroke="#221a38" stroke-linecap="round" stroke-linejoin="round" stroke-width="3.59"/>
    <path d="M205.37,44.48c.22.1.22,4.57-2.69,4.99-2.9.42-9.04-4.92-12.22-22.52" fill="none" stroke="#221a38" stroke-linecap="round" stroke-linejoin="round" stroke-width="3.59"/>
    <path d="M272.75,169.52s12.53,11.34,24.47.6" fill="none" stroke="#221a38" stroke-linecap="round" stroke-linejoin="round" stroke-width="3.59"/>
    <path d="M350.94,159.37s12.53,17.91,29.25,5.97" fill="none" stroke="#221a38" stroke-linecap="round" stroke-linejoin="round" stroke-width="3.59"/>
  </g>
  <g clip-path="url(#clippath-1)">
    <rect x="-21.42" y="-102.32" width="1442.84" height="1164.92" fill="#2f3f70"/>
    <path d="M1401.75-142.2c269.25,334.39,153,1007.12-293.45,1153.32-446.45,146.2-944.5,36.67-1081.66-382.16C-110.51,210.12,109.08-258.74,555.53-404.94c446.45-146.2,569.82-80.54,846.22,262.74Z" fill="#ff0" opacity=".04"/>
    <path d="M969.02,162.71c-4.16,111.62-141.77,223.93-254.41,176.48-112.64-47.45-191.79-153.94-147.27-259.61,44.52-105.67,167.64-160.3,280.28-112.85,112.64,47.45,125.67,81.4,121.4,195.98Z" fill="#ff0" opacity=".08"/>
    <g>
      <g>
        <path d="M808.35,66.95c-7.54-1.09-18.58-3.46-29.07,22.22-7.84,19.2-10.61,26.97-10.61,26.97,0,0-47.21,96.79-46.88,97.64.34.84,14.19,5.18,14.19,5.18l97.24-141s-12.76-9.25-24.87-11Z" fill="#f7bc00" stroke="#221a38" stroke-linecap="round" stroke-linejoin="round" stroke-width="2.53"/>
        <path d="M725.68,215.23c-.49.27,61.43-112.1,61.43-112.1l14.28,5.7s-69.87,108.58-69.34,108.49l-6.37-2.09Z" fill="#e8e8e8" stroke="#221a38" stroke-linecap="round" stroke-miterlimit="10" stroke-width="1.26"/>
        <path d="M806.42,67.31l-12.88,24.49,10.86,5.79,16.02-26.15s-9.23-4.82-13.99-4.13Z"/>
        <line x1="733.1" y1="200.91" x2="737.08" y2="210.23" fill="none" stroke="#221a38" stroke-linecap="round" stroke-miterlimit="10" stroke-width="1.26"/>
        <line x1="740.95" y1="187.95" x2="745.45" y2="196.18" fill="none" stroke="#221a38" stroke-linecap="round" stroke-miterlimit="10" stroke-width="1.26"/>
        <line x1="748.02" y1="174.23" x2="753.66" y2="183.16" fill="none" stroke="#221a38" stroke-linecap="round" stroke-miterlimit="10" stroke-width="1.26"/>
        <circle cx="797.76" cy="96.54" r="15.42"/>
        <g>
          <path d="M786.47,154.81c-3.81,0-9-1.3-18.53-10.98-6.08-6.17-6.07-13.23-5.53-16.88.57-3.83,2.22-7.32,4.43-9.62-.72,5.21-1.14,15.49,4.83,23.23,4.59,5.94,11.98,9.12,22,9.45-.41,1.62-1.59,4.23-4.98,4.65-.81.1-1.54.15-2.24.15Z" fill="#ff0"/>
          <path d="M765.21,121.98c-.15,5.68.77,13.25,5.47,19.34,4.56,5.9,11.69,9.21,21.24,9.86-1.1,1.87-3.08,2.19-3.37,2.22-.76.09-1.44.14-2.08.14-3.55,0-8.43-1.26-17.63-10.6-5.69-5.78-5.69-12.39-5.18-15.81.27-1.84.81-3.59,1.54-5.15M768.69,114.32c-7.58,4.12-12.06,19.82-1.64,30.39,9.14,9.29,14.7,11.36,19.43,11.36.82,0,1.61-.06,2.39-.16,6.02-.75,6.3-7.14,6.3-7.14-35.2-.21-26.47-34.45-26.47-34.45h0Z" fill="#221a38"/>
        </g>
        <g>
          <path d="M782.53,158.49c-1.72,0-3.69-.26-5.86-.78-14.63-3.49-20.89-19.03-18.77-28.2,1.05-4.54,2.19-5.56,2.51-5.56.12,0,.29.12.43.25.63,10.09,1.03,16.19,7.45,21.22,11.6,9.1,18.19,10.53,20.57,10.71-1.04,1.52-3.25,2.36-6.34,2.36Z" fill="#ff0"/>
          <path d="M760.94,125.07h0,0M759.79,127.41c.6,8.62,1.58,14.19,7.73,19.01,8.56,6.71,14.47,9.38,18.14,10.4-1.13.35-2.37.41-3.13.41-1.62,0-3.49-.25-5.57-.75-6.13-1.46-11.36-5.46-14.74-11.25-2.94-5.04-4.12-10.95-3.09-15.44.23-.98.45-1.77.66-2.39M760.41,122.69c-1.09,0-2.52,1.25-3.75,6.54-2.32,10.03,4.73,26.14,19.71,29.71,2.37.57,4.42.81,6.15.81,5.48,0,7.94-2.47,8.25-5.28-.05.23-.49.42-1.35.42-2.69,0-9.42-1.89-20.35-10.46-6.06-4.75-6.35-10.34-7-20.73,0,0-.69-1.01-1.67-1.01h0Z" fill="#221a38"/>
        </g>
        <path d="M787.29,158.19s-8.59-10.2-15.57,3.05c-6.98,13.25,4.61,63.31,11.3,87.81,0,0,4.85,4.74,6.41-.64.44-1.53-8.62-34.41-10.86-50.01-2.53-17.66-7.24-39.26,8.71-40.21Z" fill="#ff0" stroke="#221a38" stroke-linecap="round" stroke-linejoin="round" stroke-width="2.53"/>
        <g>
          <path d="M786.74,163.19c-2.4,0-4.52-1.11-5.73-1.91,2.49-2.26,5.46-3.04,5.5-3.04l.26-.07.22-.17c2.63-2.1,3.81-4.18,3.49-6.18-.28-1.8-1.67-2.96-2.73-3.6.95-2.03,1.78-3.32,2.24-3.98,2.64.47,5.85,2.93,6.86,6.26,1.13,3.73-.72,7.54-5.35,11.02-1.47,1.1-3.07,1.66-4.76,1.66h0Z" fill="#ff0"/>
          <path d="M790.55,145.69c2.05.69,4.33,2.67,5.1,5.18,1.22,4.01-2,7.46-4.9,9.64-1.26.95-2.57,1.41-4,1.41-1.27,0-2.47-.37-3.45-.82,1.81-1.19,3.5-1.64,3.52-1.65l.53-.13.43-.34c3.01-2.4,4.34-4.88,3.95-7.36-.27-1.73-1.32-2.98-2.37-3.81.46-.9.87-1.6,1.19-2.12M789.43,142.91s-1.55,1.77-3.32,5.9c0,0,7.05,2.66.09,8.2,0,0-4.19,1.04-7.1,4.42,0,0,3.36,3.02,7.64,3.02,1.74,0,3.64-.5,5.52-1.92,12.45-9.36,3.21-19.29-2.83-19.63h0Z" fill="#221a38"/>
        </g>
        <line x1="757.38" y1="157.64" x2="763.33" y2="167.33" fill="none" stroke="#221a38" stroke-linecap="round" stroke-miterlimit="10" stroke-width="1.26"/>
        <path d="M795.94,156.45c-1.69.31-3.81,4.64-3.81,4.64,0,0,8.35,7.67,12.17,15.39,5.35,10.82,18.01,9.94,19.27-.64,1.26-10.58-22.91-20.26-27.63-19.39ZM817.9,176.74c-2.23,5.81-6.56.77-10.46-5.36-3.9-6.13-8.64-10.5-8.64-10.5,0,0,21.27,10.22,19.1,15.86Z" fill="#ff0" stroke="#221a38" stroke-linecap="round" stroke-linejoin="round" stroke-width="2.53"/>
        <line x1="771.67" y1="129.48" x2="778.88" y2="142.41" fill="none" stroke="#221a38" stroke-linecap="round" stroke-miterlimit="10" stroke-width="1.26"/>
        <line x1="779.31" y1="117.2" x2="786.85" y2="130.55" fill="none" stroke="#221a38" stroke-linecap="round" stroke-miterlimit="10" stroke-width="1.26"/>
      </g>
      <path d="M823.05,163.22h0c-6.04-5.66-14.93-10.46-21.64-11.72.39-1.44.53-6.52.54-6.71l-2.72-5.14-6.08-.65c-8.72-.05-12.51,2.24-16.07-2.36-6.23-8.04-7.42-20.76-7.4-20.87l4.74-13.61-7.76,7.65c-2.99,1.63-5.6,4.42-7.46,7.95-4.43,1.12-6.11,6.07-7.07,10.25-2.35,10.16,2.71,24.86,14.85,32.22-3.01,7.35-2.79,20.62.67,41.45,3.35,20.18,8.73,40.73,10.89,48.63l.36,1.32.98.96c.98.96,4.5,4.01,8.68,3.24.18-.03.36-.07.54-.12,1.55-.41,4.34-1.73,5.56-5.97.53-1.84.38-2.66-3.22-17.58-2.63-10.87-6.22-25.76-7.48-34.55-.21-1.46-.43-2.95-.66-4.46-1.64-10.87-3.81-20.86.39-25.02,1.61-.07,4.95-.42,6.29-.84l3.36,1.64c.08.07,3.48,2.98,6.81,9.71,4.2,8.51,11.88,11.32,17.61,10.33l.17-.03c6.02-1.11,10.24-5.93,11.03-12.58.54-4.53-1.45-8.96-5.92-13.14Z" fill="#ff0" opacity=".2"/>
      <g opacity=".2">
        <path d="M791.8,261.55c-6.85,1.26-14.25-1.21-19.79-6.63l-3.43-3.35-1.27-4.64c-2.21-8.09-7.72-29.14-11.17-49.89-2.84-17.12-3.64-29.38-2.39-38.59-11.86-11.42-15.73-28.08-12.98-40,1.9-8.22,5.46-14,10.62-17.25,2.35-3.33,5.2-6.09,8.42-8.16l7.98-2.81,13.8-9.96,1.94,30.09c.5,2.76,1.52,6.63,3.1,9.65,1.99-.17,4.46-.38,7.54-.36h.63s13.17-9.11,13.17-9.11l5.06,12.6,2.59,12.83c6.08,2.78,12.14,6.76,17,11.32,9.41,8.82,10.53,17.83,9.82,23.84-1.44,12.16-9.8,21.39-21.28,23.51l-.26.05c-7.46,1.29-16.58-.72-23.75-7.24.08.56.16,1.11.24,1.67,1.18,8.2,4.69,22.74,7.26,33.36,4.05,16.76,4.57,18.92,3.08,24.07-2.16,7.47-7.43,12.82-14.47,14.67-.48.13-.98.24-1.47.33Z" fill="#ff0"/>
      </g>
    </g>
    <path d="M936.31,654.02c-227.28,104.26-590.53-57.5-609.31-330.47-18.77-272.98,114.23-538.55,370.32-556.16,256.09-17.6,489.46,173.38,508.24,446.35,18.77,272.98-35.93,333.25-269.25,440.28Z" fill="#ff0" opacity=".08"/>
    <g>
      <path d="M829.03,160.59c-.56-4.58-5.79-6.87-10.36-5.99-2.92.56-4.94,4.7-7.34,2.9-3.41-2.56-7.12-8.56-11.95-7.51-1.37.3-2.62.89-3.8,1.61l-45.78,130.01c-11.86,126.92-145.47,51.66-145.47,51.66l95.17-94.37s26.15-31.34,30.9-37.67c4.75-6.34,15.84-11.88,15.84-11.88,8.35-8.35,18.3-32.67,24.41-49.17-.87-1.24-1.75-2.43-2.67-3.5-7.28-8.48-15.51-12.57-26.79-9.22-11.98,3.56-14.85,9.04-22.53,15.53-13.73,11.6-29.73,35.13-59.21,52.56-63.05,37.27-154.3,100.84-207.91,174.32-21.68,29.72-16.35,63.94-23.83,93.93-13.81,55.35-27.65,99.83-27.65,99.83,0,0,7.17,240.49,20.86,426.59,6.58,89.5,14.73,125.56,5.33,206.44-9.99,85.91,10.15,107.72,9.99,107.88,0,0,11.86,10.96,36.35,13.7,29.01,3.24,80.46-.03,77.13-21.84-5.12-33.62-31.64-39.84-34.3-49.83-2.66-9.99-8.43-27.8-8.53-46.42-.11-20.74,33.23-236.57,33.23-236.57,0,0,1.33-34.63,13.32-29.97,11.99,4.66,9.32,21.31,9.32,29.97s17.98,287.68,23.97,306.33c5.99,18.65,15.18,49.52,53.77,49.52s70.1,3.09,55.45-38.2c-14.65-41.29-20.64-13.98-20.64-87.24s26.19-187.2,28.85-221.83c2.66-34.63,57.06-336.23,57.06-338.9s11.32-91.23,12.65-99.89c.2-1.33,18.07-68.68,24.57-147.26,3.6-43.51-6-89.63-.96-131.88,4.12-34.46,33.09-41.4,41.49-58.86,5.04-10.48-8.65-24.12-9.95-34.79Z" fill="#fff"/>
      <polyline points="647.35 297.94 739.07 189.41 756.19 179.22" fill="none" stroke="#221a38" stroke-linecap="round" stroke-linejoin="round" stroke-width="7.11"/>
      <path d="M449.79,447.92s113.09-7.3,149.01-6.73c41.51.67,106.53,8.86,106.53,8.86" fill="none" stroke="#221a38" stroke-linecap="round" stroke-miterlimit="10" stroke-width="7.11"/>
      <path d="M727.21,351.69c6.55-39.09,48.26-143.69,48.26-143.69,0,0,7.52-34.91,13.77-47.21,5.48-10.8,22.5-18.25,19.86.64,0,0,2.67-8.6,13.22-7.12,8.31,1.16,8.64,8.48,7.65,12.13,0,0,10.3-.17,7.81,13.96,0,0,6.15,5.82,2.16,14.63-3.99,8.81-30.42,29.25-30.42,29.25l-6.46,11.59c-19.08,55.17,9.07,108.07-11.34,216.9-6.82,36.4-19.65,90.69-19.65,90.69,0,0-1.1,40.46-13.65,111.56-16.85,95.5-46.53,228.97-60.34,364.34l-3.42,23.95s-39.35,179.79-6.84,224.27c32.51,44.48-6.84,47.9-6.84,47.9,0,0-17.24,3.43-34.31,3.6-17.06.17-30.71-4.98-30.71-4.98-29.08-13.69-34.22-73.36-34.22-73.36l-20.53-306.8-13.69-1.71s-42.27,240-35.5,289.42c4.98,36.4,11.29,29.17,28.3,50.71,31.89,40.4-25.3,47.5-25.3,47.5-30.57,3.11-58.31-1.25-71.86-10.67-31.19-21.7-18.47-75.37-18.47-75.37,24.02-231.19-44.96-522.22-24.61-674.79,6.76-50.69,14.39-84.19,50.68-130.55" fill="none" stroke="#221a38" stroke-linecap="round" stroke-linejoin="round" stroke-width="7.11"/>
      <path d="M725.21,137.62c6.42-7.94,18.06-9.68,21.92-9.82,7.37-.27,11.75-.04,18.6,5.79" fill="none" stroke="#221a38" stroke-linecap="round" stroke-linejoin="round" stroke-width="7.11"/>
      <path d="M569.02,258.01l137.49-102.53c4.88-5.43,7.82-11.24,12.85-14.55,4.16-2.74,8.97-4.63,14.45-4.35,5.21.27,18.04,2.65,24.18,7.84,0,0,7.17,10.08-4.25,10.86,0,0-9.26,0-16.15.09" fill="none" stroke="#221a38" stroke-linecap="round" stroke-linejoin="round" stroke-width="7.11"/>
      <g>
        <path d="M435.06,319.73s-38.77-4.46-48.93,54.81c-10.16,59.27,8.28,67.87,35.76,69.78,27.48,1.91,52.11-2.76,51.19-69.78-.75-54.81-38.02-54.81-38.02-54.81Z" fill="#e293e2" stroke="#221a38" stroke-linecap="round" stroke-miterlimit="10" stroke-width="8.27"/>
        <path d="M545.88,246.67s-84.3,7.49-116.9,100.41c-32.6,92.92,6.37,182.47,134.88,189.58,128.51,7.12,176.1-77.18,155.11-154.37-20.98-77.18-42.5-145.3-173.1-135.63Z" fill="#fff" stroke="#221a38" stroke-linecap="round" stroke-miterlimit="10" stroke-width="8.95"/>
        <path d="M706.63,324.24s-25.59-4.07-34.88,59.91c-9.29,63.99,19.06,73.38,44.25,72.72,28.48-.75,40.84-8.24,36.72-70.06-3.94-59.05-46.08-62.57-46.08-62.57Z" fill="#e293e2" stroke="#221a38" stroke-linecap="round" stroke-miterlimit="10" stroke-width="8.95"/>
      </g>
    </g>
    <path d="M576.46,266.23s-81.73-23.73-126.55,63.27c0,0-19.13-6.9-32.31,18.14-13.18,25.05-48.1,70.18,17.81,93.9,0,0-26.36-5.63,0,32.59,0,0-1.61,12.98-21.38,49.89-19.77,36.91,20.38,393.83,12.47,530.93-7.91,137.09-62.28,289.56-49.1,334.38,13.18,44.82,21.09,42.18,40.86,46.14,19.77,3.95,113.33,8.03,85.01-46.08s-45.91-12.2-40.41-72.04c5.5-59.84,72.32-392.46,72.32-392.46l33.85,10.69s-30.81,353.56-21.58,414.2c9.23,60.64,6.6,90.22,42.19,88.61,35.59-1.61,99.17,13.67,64.74-51.31-34.43-64.98,4.18-236.43,25.11-382.02,20.94-145.58,76.5-420.82,85.52-473.91,16.03-94.43,23.89-115.93,24.94-188.85.63-43.51,5.27-90.28,16.47-118.61,6.14-15.54,20.28-19.24,22.76-28.5,5.78-21.56-11.29-22.16-19.63-16.8-18.45,11.86-35.63,99.77-60.58,174.6-13.29,39.88,6.45,111.78-10.69,110.46-17.14-1.32-33.56,9.94-12.47-12.47,21.09-22.41-7,30.11-3.05-34.48,3.95-64.59-14.5-141.05-146.32-150.27Z" fill="#1d253a" opacity=".3"/>
  </g>
</svg>