<?xml version="1.0" encoding="UTF-8"?>
<svg id="Layer_1" data-name="Layer 1" xmlns="http://www.w3.org/2000/svg" width="600" height="200" viewBox="0 0 600 200">
  <rect x="-7.32" y="-4.96" width="614.64" height="209.92" fill="#2b3751"/>
  <path d="M104.1,159.16s-31.58,20.21-35.37,45.47h189.47s-5.05-39.16-15.16-59.37l-138.95,13.89Z" fill="#fff" stroke="#000" stroke-linecap="round" stroke-miterlimit="10" stroke-width="2.26"/>
  <g>
    <path d="M257.73,57.7s-15.44-1.54-18.75,37.04c-3.31,38.59,13.95,43.22,28.98,41.94,16.99-1.44,23.32-24.3,19.49-43.18-7.05-34.74-29.73-35.81-29.73-35.81Z" fill="#e293e2" stroke="#000" stroke-linecap="round" stroke-miterlimit="10" stroke-width="3.42"/>
    <path d="M138.95,20s-48.86,13.31-58.51,68.62c-9.65,55.31,25.13,103.6,101.51,93.64,76.38-9.96,103.14-62.47,88.42-105.39-14.87-43.34-55.9-78.98-131.42-56.87Z" fill="#fff" stroke="#000" stroke-linecap="round" stroke-miterlimit="10" stroke-width="2.26"/>
    <path d="M235.08,57.76c-16.74-1.05-22.31,18.79-22.31,18.79,0,0-.76,2.41-1.47,6.07-5.65-.14-11.81,1.04-12.19,6.8-.36,5.56,4.47,8.03,11.11,8.7.4,4.87,1.68,9.73,4.55,13.57,7.64,10.2,33.01,9.68,36.91-16.96,3.42-23.37-2.55-36.08-16.6-36.96Z" fill="#fff" stroke="#000" stroke-linecap="round" stroke-miterlimit="10" stroke-width="2.72"/>
    <path d="M85.86,58.54s-18.71-9.63-35.87,35.32c-8.28,21.68-2.51,49.51,16.36,53.65,20.07,4.41,26.56-7.73,32.41-36.97,8.64-43.18-12.9-52-12.9-52Z" fill="#e293e2" stroke="#000" stroke-linecap="round" stroke-miterlimit="10" stroke-width="3.42"/>
    <g>
      <path d="M168.66,94.85c-.3-6.1-7.16-7.19-13.05-6.98.03-3.55-1.56-23.83-14.03-25.79-14.73-2.3-28.79,7.23-30.59,34.09-1.8,26.86,22.53,33.62,32.74,25.99,5.78-4.32,8.74-11.86,10.26-18.66,8.33.02,15-2.17,14.68-8.66Z" fill="none" stroke="#000" stroke-linecap="round" stroke-miterlimit="10" stroke-width="2.72"/>
      <path d="M142.52,78.9s-5.69-4.04-10.33,7.54c-4.65,11.58.5,20.68,5.91,22.51,8.58,2.91,11.91-9.27,11.43-18.19-.69-12.58-7-11.86-7-11.86Z" fill="#e293e2" stroke="#000" stroke-linecap="round" stroke-miterlimit="10" stroke-width="3.42"/>
    </g>
    <path d="M241.72,75.22c-1.56-.13-7.04,1.21-8.62,13.35-2.12,16.3,9.49,15.54,11.95,10.36,2.34-4.92,7.27-22.79-3.33-23.71Z" fill="#e293e2" stroke="#000" stroke-linecap="round" stroke-miterlimit="10" stroke-width="3.42"/>
    <path d="M182.49,104.09s-28.91,6.68-32.41,28.8c-3.49,22.12,8.14,44.71,45.18,38.37,37.04-6.35,35.95-32.9,31.73-46.68-4.22-13.78-20.93-27.9-44.5-20.48Z" fill="#e293e2" stroke="#000" stroke-linecap="round" stroke-miterlimit="10" stroke-width="3.42"/>
    <path d="M185.06,114.51s14.38-6.05,16.26,3.71c1.88,9.76-12.07,11.39-12.07,11.39" fill="none" stroke="#000" stroke-linecap="round" stroke-miterlimit="10" stroke-width="3.86"/>
    <path d="M200.14,139.23s-9.41,3.53-18.61,3.14c0,0-.54,6.89,8.64,5.73,9.17-1.16,10.06-4.41,9.98-8.87Z"/>
    <path d="M151.16,14.21s46.11,57.79,43.89,168l2.12,22.82-162.22-.54V15.32l116.21-1.11Z" fill="#2b3751" opacity=".5"/>
  </g>
  <g>
    <rect x="294.2" y="75.24" width="275.78" height="37.37" rx="18.68" ry="18.68" fill="#fff"/>
    <rect x="330.51" y="102.88" width="217.88" height="37.37" rx="18.68" ry="18.68" fill="#fff"/>
    <path d="M348.47,138.15s-21.37,11.88-28.69,12.05l14.71-22.3,13.99,10.25Z" fill="#fff"/>
  </g>
  <text transform="translate(307.72 101.37)" font-family="ChalkboardSE-Bold, &apos;Chalkboard SE&apos;" font-size="24" font-weight="700"><tspan x="0" y="0" letter-spacing="0em">W</tspan><tspan x="24.26" y="0">h</tspan><tspan x="37.84" y="0" letter-spacing="-.07em">a</tspan><tspan x="49.59" y="0">t ki</tspan><tspan x="90.77" y="0" letter-spacing=".05em">n</tspan><tspan x="104.64" y="0">d of dis</tspan><tspan x="193.85" y="0" letter-spacing=".01em">a</tspan><tspan x="207.54" y="0" letter-spacing="-.05em">s</tspan><tspan x="217.27" y="0" letter-spacing="-.05em">t</tspan><tspan x="227.59" y="0" letter-spacing=".02em">e</tspan><tspan x="241.27" y="0">r </tspan><tspan x="34.45" y="28.8">w</tspan><tspan x="52.27" y="28.8" letter-spacing=".01em">a</tspan><tspan x="65.95" y="28.8">s </tspan><tspan x="86.77" y="28.8" letter-spacing="-.07em">i</tspan><tspan x="91.54" y="28.8">t t</tspan><tspan x="124.51" y="28.8" letter-spacing=".02em">h</tspan><tspan x="138.48" y="28.8">is </tspan><tspan x="165.82" y="28.8" letter-spacing="0em">t</tspan><tspan x="177.46" y="28.8">i</tspan><tspan x="183.99" y="28.8" letter-spacing=".02em">m</tspan><tspan x="202.79" y="28.8">e?</tspan></text>
</svg>