<?xml version="1.0" encoding="UTF-8"?>
<svg id="Layer_1" data-name="Layer 1" xmlns="http://www.w3.org/2000/svg" width="600" height="400" xmlns:xlink="http://www.w3.org/1999/xlink" viewBox="0 0 600 400">
  <defs>
    <clipPath id="clippath">
      <rect x="0" width="600" height="400" fill="none"/>
    </clipPath>
    <clipPath id="clippath-1">
      <rect x="617.9" y="-1.04" width="600" height="400" fill="none"/>
    </clipPath>
  </defs>
  <rect x="0" width="600" height="400" fill="#24335b"/>
  <g clip-path="url(#clippath)">
    <path d="M52.42,188.12s39.5-35.04,42.45-47.71c2.96-12.67,8.09-76.97,8.09-76.97,0,0,4.25-21.58,21.98-16.09,17.73,5.49,19.75,32.69,19.33,46.62,0,0-1.69,23.22,1.69,27.02,3.38,3.8,20.69,25.75,21.11,27.44s-114.65,39.68-114.65,39.68Z" fill="#fff"/>
    <path d="M-5.55,233.88S141.73,107.91,164.53,95.24c22.8-12.67,42.64-30.4,50.66-41.8,8.02-11.4,18.15-26.18,33.35-24.91,15.2,1.27,10.13,41.8-21.11,71.35,0,0,29.98-34.62,38.42-46.86,8.44-12.24,10.13-18.15,21.53-17.73,11.4.42,23.22,29.98-28.71,86.13,0,0,28.29-17.73,35.89-25.33,7.6-7.6,14.78-11.82,23.22-4.64s-.03,42.86-27.36,69.21c-26.15,25.22-191.82,140.58-283.1,195.39,0,0-7.01-14.63-10.66-47.53-3.65-32.9-2.22-74.63-2.22-74.63Z" fill="#fff"/>
    <path d="M148.58,104.71c13.97-7.96,43.38-19.57,65.51-50.63,17.86-25.07,27.91-27.57,33.95-25.67,6.42,2.02,25.81,12.08-21.05,69.5l1.88,1.65c.81,0,26.58-28.97,37.14-47.39,10.56-18.42,18.83-18.51,24.92-15.17,12.2,6.7,2.98,52.81-31.69,82.61l1.62,1.61c1.41-.92,7.26-4.55,24.52-18.51,8.1-6.55,14.87-14.94,24.69-14.85,12.68.12,27.38,30.4-33.11,87.27,0,0-166.24,114.92-264.09,179.94" fill="none" stroke="#221a38" stroke-linecap="round" stroke-linejoin="round" stroke-width="6.24"/>
    <path d="M147.03,95.15s5.41.4,9.43,13.74c3.27,10.85,15.75,18.55,33.14,36.17,10.98,11.12,37.81,37.81,44.55,89.4,2.81,21.49,6.67,138.53,6.67,138.53" fill="none" stroke="#ff0" stroke-linecap="round" stroke-miterlimit="10" stroke-width="11.12"/>
    <path d="M135.71,473.32s123.05-123.77,132.47-135.55c9.42-11.77,38.46-43.95,40.42-50.23s11.77-46.7,45.13-85.55c33.36-38.85,76.92-80.84,76.92-80.84,0,0,10.6-11.77,20.8-5.89s3.53,34.93-9.81,49.06c0,0,31-41.6,38.46-49.84,7.46-8.24,22.76-8.63,22.76,5.49s-23.15,62.01-23.15,62.01c0,0,29.43-33.36,40.42-40.03,10.99-6.67,17.27-3.14,20.01-1.57,2.75,1.57,8.45,19.26-11.56,48.69l-93.22,121.63s-63.54,90.48-74.57,114.99c-10.03,22.29-15.01,25.4-15.01,25.4,0,0-62.17,68.23-91.47,36.45-23.15-25.12-72.17,13.04-118.61-14.22Z" fill="#fff"/>
    <path d="M11.82,217.63c-.27-.81,78.35-64.03,81.33-76.76,2.98-12.73,9.11-72.03,12.04-85.42,1.54-7.03,12.27-11.32,20-9.01,11.51,3.44,18.68,8.35,19.42,61.66,0,0,0,10.56,5.96,18.69,2.98,4.06,8.33,11.04,13.51,18.62" fill="none" stroke="#221a38" stroke-linecap="round" stroke-miterlimit="10" stroke-width="6.24"/>
    <path d="M481.55,245.5c3.96-5.25,10.04-12.79,18.91-23.04,18.96-21.94,42.79-53.9,43.88-66.9,1.08-13-1.9-17.6-13.81-17.88s-46.58,39-54.17,50.92c0,0,28.44-47.94,26.81-62.02-1.63-14.08-5.42-18.96-17.6-14.9-12.19,4.06-44.69,51.46-45.23,52.54-.54,1.08,14.92-10.31,17.45-31.83,2.53-21.52-18.02-19.71-25-13.69-6.97,6.02-36.87,34.69-36.87,35.77l-21.16,20.09c-9.63,11.3-51.19,50.65-67.98,116.73,0,0-146.87,158.55-157.16,166.68" fill="none" stroke="#221a38" stroke-linecap="round" stroke-miterlimit="10" stroke-width="6.24"/>
    <g>
      <path d="M546.26,172.46c-8-10.72-18.77-27.36-63.67-8.51-33.57,14.1-46.65,20.3-46.65,20.3,0,0-178.77,61.55-179.4,63.01-.63,1.47,11.18,24.04,11.18,24.04l295.75-54.32s-4.36-27.32-17.21-44.52Z" fill="#f7bc00" stroke="#221a38" stroke-linecap="round" stroke-linejoin="round" stroke-width="4.44"/>
      <path d="M259.57,253.91c-.95-.27,215.42-62.91,215.42-62.91l10.65,24.81s-221.53,48.06-220.76,48.59l-5.31-10.5Z" fill="#e8e8e8" stroke="#221a38" stroke-linecap="round" stroke-miterlimit="10" stroke-width="2.22"/>
      <path d="M543.43,170.51l-46.39,14.41,6.29,20.66,52.35-12.58s-5.47-17.44-12.25-22.49Z" fill="#221a38"/>
      <line x1="286.56" y1="245.33" x2="280.51" y2="260.61" fill="none" stroke="#221a38" stroke-linecap="round" stroke-miterlimit="10" stroke-width="2.22"/>
      <line x1="312.39" y1="238.99" x2="307.77" y2="254.81" fill="none" stroke="#221a38" stroke-linecap="round" stroke-miterlimit="10" stroke-width="2.22"/>
      <line x1="338.21" y1="230.74" x2="334.12" y2="248.82" fill="none" stroke="#221a38" stroke-linecap="round" stroke-miterlimit="10" stroke-width="2.22"/>
      <circle cx="496.39" cy="196.05" r="27.07" fill="#221a38"/>
      <line x1="370.41" y1="221.77" x2="365.78" y2="241.18" fill="none" stroke="#221a38" stroke-linecap="round" stroke-miterlimit="10" stroke-width="2.22"/>
      <line x1="422.73" y1="205.89" x2="416.15" y2="230.67" fill="none" stroke="#221a38" stroke-linecap="round" stroke-miterlimit="10" stroke-width="2.22"/>
      <line x1="397.95" y1="212.47" x2="391.37" y2="237.25" fill="none" stroke="#221a38" stroke-linecap="round" stroke-miterlimit="10" stroke-width="2.22"/>
      <line x1="447.85" y1="198.78" x2="440.63" y2="224.71" fill="none" stroke="#221a38" stroke-linecap="round" stroke-miterlimit="10" stroke-width="2.22"/>
    </g>
    <path d="M384.54,387.94c-.24-.82,34.4-65.27,58.23-82.61,0,0,42.32-17.29,66.66-22.74s40.61-20.12,40.23-29.43c-.63-15.75-2.98-12.24-12.67-18.25-14.76-9.16-25.74-.27-35.39,1.49-10.78,1.97-22.35,7.69-32.83,4.2-10.38-3.45-38.7-14.63-75.83-5.96-40.95,9.56-59.72,65.09-59.72,65.09,0,0,51.87,90.1,51.32,88.2Z" fill="#fff"/>
    <path d="M339.02,461.11s83.98-143.86,101.31-153.07c17.33-9.21,57.54-24.05,68.81-25.63,22.63-3.17,43.87-20.4,39.95-33.81-3.29-11.29-14.62-17.6-31.11-17.04-22.85.77-25.51,17.87-54.21,7.82-31.36-10.99-67.42-5.48-68.2-5.28,0,0-27.7,4.06-43,32.23" fill="none" stroke="#221a38" stroke-linecap="round" stroke-miterlimit="10" stroke-width="6.24"/>
    <path d="M47.05,141.12s-40.49,130.14,95.44,202.45c89.62,47.67,146.57-1.49,208.41-56.33,51.38-45.57,114.67-19.42,159.36-28.05,12.86-2.48,28.16-19.24,29.53-21.08,1.37-1.84-8.32-7.73-24.32-5.2-9.78,1.55-27.8,13.56-40.26,9.71-49.73-15.39-85.1-7.72-93.82-4.51-21.45,7.9,29.78-44.44,40.69-59.17,56.95-76.83,47.21-136.15,107.95-89.88,60.73,46.27,83.87,107.01,43.38,237.15-40.49,130.14-286.32,92.55-286.32,92.55H-22.36l-26.03-254.5,95.44-23.14Z" fill="#1d253a" opacity=".4"/>
  </g>
  <g clip-path="url(#clippath-1)">
    <path d="M602.21,302.65s71.13-99.01,173.71-120.81c0,0,14.54-30.31,45.04-39.32,31.45-9.29,45.39-10.37,76.85,1.07,31.45,11.44,20.73,30.38,20.73,30.38l-51.47,102.58s-20.73,14.3-43.96,13.23c-23.23-1.07-25.02-10.72-42.53-2.5-17.51,8.22-41.74,20.59-58.98,52.19s-8.33,95.26-8.33,95.26c0,0-85.8,30.22-118.98-5.14-18.83-20.07,3.26-90.19,7.92-126.94Z" fill="#fff"/>
    <path d="M596.6,308.59c23.91-33.66,78.18-93.81,178.37-129.23" fill="none" stroke="#221a38" stroke-linecap="round" stroke-miterlimit="10" stroke-width="6.67"/>
    <path d="M744.37,190.22s-49.36,30.54,7,109.19l-29.4,61.59-9.8,62.99-131.45-1.95,33.46-138.04,57.84-46.34,72.34-47.45Z" fill="#1d253a" opacity=".4"/>
  </g>
</svg>