<?xml version="1.0" encoding="UTF-8"?>
<svg id="Layer_1" data-name="Layer 1" xmlns="http://www.w3.org/2000/svg" width="600" height="400" xmlns:xlink="http://www.w3.org/1999/xlink" viewBox="0 0 600 400">
  <defs>
    <clipPath id="clippath">
      <rect x="-616.49" y=".96" width="600" height="400" fill="none"/>
    </clipPath>
    <clipPath id="clippath-1">
      <rect width="600" height="400" fill="none"/>
    </clipPath>
  </defs>
  <rect width="600" height="400" fill="#24335b"/>
  <g clip-path="url(#clippath)">
    <path d="M-200.71,53.32c-.55.26,34.65,10.28,20.23,65.33-14.42,55.05-36.04,35.38-49.81,36.7,0,0-.08,7.07,19.75,21.66,5.16,3.8,60.2,241.8,64.14,241.8S1.72,416.19.41,412.26s-103.6-234.72-103.6-234.72l4.06-22.19s15.66-3.93,39.25-41.94l-40.69-14.12s2.78-41.85-23.09-29.18c0,0-10.18-7.25-14.41,7.15,0,0,.18-25.65-19.76-22.33-2,.33-10.92-2.85-14.59,10.93,0,0-14.67-18.91-28.28-12.53Z" fill="#1d253a" opacity=".4"/>
  </g>
  <g clip-path="url(#clippath-1)">
    <path d="M92.77,463.77s4.78-153.55,34.96-230.32c30.18-76.76,51.55-99.97,51.55-99.97,0,0,8.62-19.49,9.5-27.85.88-8.35,22.73-33.35,41.73-44.66,19.01-11.31,33.79-28.11,33.79-28.11,0,0,36.04-18.62,31.81,18.29l41.35,53.61s18.68,5.62,17.43,17.32c-1.25,11.7-9.66,36.31-30.02,52.17-15.39,11.99-55.74,29.29-65.81,37.9-8.31,7.11-17.18,41.1-19.09,59.07-1.91,17.97-5.24,207.58-5.24,207.58,0,0-97.09-8.19-141.97-15.04Z" fill="#fff"/>
    <path d="M616.7,400.81s-104.17-55.48-111.07-59.35c-6.9-3.87-28.15-15.51-32.36-21.27-4.2-5.76-27.11-37.26-34.96-46.07-7.84-8.82-36.19-34.64-57.94-35.68-21.75-1.04-51.03,6.31-65.2,16.06-14.17,9.75-24.58,20.9-27.16,36.88-2.58,15.98-2.44,45.25,1.51,54.31,3.94,9.06,13.4,10.03,20.43,3.71,0,0,1.86,14.44,16.59,24.46,14.73,10.02,20.45,7.7,26.34.51,0,0,11.65,8.34,21.24-.88,0,0,11.68,6.46,19.39,5.73s16.99,3.77,21.92,7.37,124.05,105.85,124.05,105.85c0,0,56.6-32.08,77.22-91.64Z" fill="#fff"/>
    <path d="M93.51,464.06s-5.94-204.44,87.4-334.17l3.01-5.73s-1.52-14.87,15.24-36.03c19.6-24.74,26.89-20.2,50.66-42.22,38.86-35.97,58.01-4.7,40.07,13.67-8.9,9.11-9.55,15.82-23.19,20" fill="none" stroke="#221a38" stroke-linecap="round" stroke-miterlimit="10" stroke-width="4.84"/>
    <path d="M324.87,307.74c-8.79,16.25-7.34,48.77-27.16,45.07-7.26-1.36-13.53-9.33-11.15-48.94,2.9-48.33,43.5-58.74,80.97-65.58,40.52-7.39,85.93,53.91,86.29,54.81,0,0,13.82,25.49,30.41,35.47l125.71,67.4" fill="none" stroke="#221a38" stroke-linecap="round" stroke-miterlimit="10" stroke-width="4.4"/>
    <path d="M309.79,349.2c1.28,5.73,3.16,9.1,3.9,10.25,9.7,14.82,26.72,25.25,34.91,19.26,9.15-6.69,2.91-18.13-2.56-23.67-11.82-11.97-9.85-25.71-6.02-33.37" fill="none" stroke="#221a38" stroke-linecap="round" stroke-miterlimit="10" stroke-width="4.4"/>
    <path d="M247.24,235.26s34.1,22.88,61.6,45.33" fill="none" stroke="#ff0" stroke-linecap="round" stroke-miterlimit="10" stroke-width="10.5"/>
    <path d="M343.38,316.7s7.88,8.02,16.45,18.18" fill="none" stroke="#ff0" stroke-linecap="round" stroke-miterlimit="10" stroke-width="10.5"/>
    <path d="M374.98,374.08c5.03,2.84,11.22,5.11,18.3,5.29,19.82.5,142.31,111.31,142.31,111.31" fill="none" stroke="#221a38" stroke-linecap="round" stroke-miterlimit="10" stroke-width="4.4"/>
    <path d="M298.75,51.71c14.86-7.39,40.26,2.86,26.17,23.52-9.68,14.2-33.07,12.42-44.22,21.81-16.9,14.22-39.3-7.5-21.71-22.19.17-.25,9.27-7.51,15.38-11.78,1.72-1.2,3.52-2.27,5.45-3.09l18.93-8.26Z" fill="#fff" stroke="#221a38" stroke-linecap="round" stroke-miterlimit="10" stroke-width="4.84"/>
    <path d="M294.53,121.6c-12.58,5.41-22.81,10.24-27.42-3.99-8.11-25.01,56.61-43.39,56.61-43.39,8.29-1.62,15.22.88,20.51,14.42,2.18,5.58-1.25,11.07-4.95,15.85" fill="#fff" stroke="#221a38" stroke-linecap="round" stroke-miterlimit="10" stroke-width="4.84"/>
    <path d="M327.73,133.38c-12.44,8.02-33.43,20.23-42.24,10.37-5.81-6.5-.72-14.17,4.05-18.56,6.54-6.02,11.42-10.54,22.64-15.53,13.73-6.11,23.26-5.04,23.26-5.04,0,0,7.02.6,13.33,7.03,10.88,11.08,3.21,22.55,3.21,22.55,0,0-7.11,37.81-75.56,67.09-16.63,7.12-23.31,17.63-27.24,27.6-5.81,14.72-19.62,168.52-13.41,251.27" fill="none" stroke="#221a38" stroke-linecap="round" stroke-miterlimit="10" stroke-width="4.84"/>
    <path d="M354.37,375.77s12.91,5.3,20.75-2.4c7.85-7.7,8.17-32.35,4.33-38.11-3.84-5.75-15.63-10.43-23.69,7.89l-2.4,7.86" fill="#fff" stroke="#221a38" stroke-linecap="round" stroke-miterlimit="10" stroke-width="4.4"/>
    <path d="M179.09,121.64c3.63-4.12,21.79-6.32,55.72,32.94,26.16,30.27,31.82,46.67,33.47,53.79" fill="none" stroke="#ff0" stroke-linecap="round" stroke-miterlimit="10" stroke-width="10.5"/>
    <path d="M392.19,284.57c-7.63-3.06-44.28-6.7-61.13-13.82-11.55-4.88-25.11,2.12-23.52,17.53,1.76,17.07,22.57,19.36,29.31,23.97,19.41,13.27,49.33,17.24,49.33,17.24" fill="#fff" stroke="#221a38" stroke-linecap="round" stroke-miterlimit="10" stroke-width="4.4"/>
    <path d="M382.69,361.6c1.43.25,7.95,9.6,10.71,12.71,12.29,13.81,39.41,62.13,39.41,62.13" fill="none" stroke="#ff0" stroke-linecap="round" stroke-miterlimit="10" stroke-width="10.5"/>
    <path d="M324.1,143.03s7.24,6.83,28.27,65.12" fill="none" stroke="#ff0" stroke-linecap="round" stroke-miterlimit="10" stroke-width="10.5"/>
    <path d="M247.24,235.26s34.1,22.88,61.6,45.33" fill="none" opacity=".2" stroke="#ff0" stroke-linecap="round" stroke-miterlimit="10" stroke-width="52.5"/>
    <path d="M179.09,121.64c3.63-4.12,21.79-6.32,55.72,32.94,26.16,30.27,31.82,46.67,33.47,53.79" fill="none" opacity=".2" stroke="#ff0" stroke-linecap="round" stroke-miterlimit="10" stroke-width="52.5"/>
    <path d="M324.1,143.03s7.24,6.83,28.27,65.12" fill="none" opacity=".2" stroke="#ff0" stroke-linecap="round" stroke-miterlimit="10" stroke-width="52.5"/>
    <g>
      <path d="M344.04,332.9s6.79,5.22,14.32,12" fill="none" opacity=".2" stroke="#ff0" stroke-linecap="round" stroke-miterlimit="10" stroke-width="40"/>
      <path d="M424.06,413.99s-25.25-33.96-36.26-42.75c-3.14-2.51-7.87-6.69-10.08-9.08" fill="none" opacity=".2" stroke="#ff0" stroke-linecap="round" stroke-miterlimit="10" stroke-width="40"/>
    </g>
    <path d="M431.1,260.82s-16.8,42,16.8,78.39c33.6,36.4,145.59,113.39,145.59,113.39l22.4-54.6-137.19-67.19-47.6-69.99Z" fill="#1d253a" opacity=".4"/>
  </g>
</svg>