<?xml version="1.0" encoding="UTF-8"?>
<svg id="Layer_1" data-name="Layer 1" xmlns="http://www.w3.org/2000/svg" width="1400" height="1600" xmlns:xlink="http://www.w3.org/1999/xlink" viewBox="0 0 1400 1600">
  <defs>
    <clipPath id="clippath">
      <rect x="-159.39" y="-431.46" width="600" height="400" fill="none"/>
    </clipPath>
    <clipPath id="clippath-1">
      <rect x="458.51" y="-432.5" width="600" height="400" fill="none"/>
    </clipPath>
    <clipPath id="clippath-2">
      <rect x="1075" y="-433.47" width="600" height="400" fill="none"/>
    </clipPath>
  </defs>
  <rect width="1400" height="1600" fill="#24335b"/>
  <path d="M522.93,676s-19.76,36.71-32.19,54.78c-12.42,18.07-54.21,99.39-60.99,190.87-6.78,91.48,1.13,169.41,1.13,169.41l29.93,52.52,35.01-11.29-4.52-116.89,29.93,183.53,45.74,234.35s5.65,21.46-7.91,27.67c-13.55,6.21-25.41,14.12-24.85,22.02.56,7.91,6.21,33.88,36.71,32.75,30.49-1.13,92.05,2.82,91.48-61.55-.56-64.38,25.98-281.79,25.98-281.79,0,0,11.29,72.28,16.38,87.53,5.08,15.25,20.89,77.93,27.67,124.24,6.78,46.31,16.38,80.19,8.47,80.19s-26.54,13.55-28.8,23.72c-2.26,10.16,3.39,36.14,41.79,36.71,38.4.56,67.2,2.26,73.41-42.92,6.21-45.18,9.04-44.61,19.2-82.45,10.16-37.84,35.01-155.86,38.4-172.8,3.39-16.94,33.32-99.95,33.88-114.64.56-14.68,17.51-181.27,20.89-208.94,0,0,48.56-111.25,26.54-155.86-22.02-44.61-43.48-76.24-83.58-86.96l-359.72,15.81Z" fill="#fff" stroke="#221a38" stroke-linecap="round" stroke-miterlimit="10" stroke-width="2"/>
  <path d="M884.09,656.62s104.66,53.01,84.95,148.16c-19.71,95.15-63.88,193.69-178.06,180.1-52.76-6.28-83.91-28.69-113.54-41.9-14.66-6.54-29.08-7.21-39.88-10.6-14.61-4.59-23.28-10.7-23.28-10.7,0,0-16.99-8.16-2.04-27.19,0,0-10.37-25.8,7.64-28.18,0,0-3.58-21.84,17.51-20.89,0,0,9.56,1,17.69,6.02,6.4,3.95,11.53-14.04,25.81-6.56,5.61,2.94,12.37,18.57,26.37,24.02,21.63,8.43,53.12,6.83,66.74,7.24,22.43.68,67.28-15.63,70-50.97" fill="none" stroke="#221a38" stroke-linecap="round" stroke-linejoin="round" stroke-width="6.88"/>
  <path d="M937.78,900.61s-8.84,201.85-35.34,271.17c-26.51,69.32-55.05,249.42-70,289.52-14.95,40.1,4.08,63.21-72.72,63.21-59.52,0-63.21-48.25-15.63-61.85,0,0-20.39-156.99-35.34-193.01-14.95-36.02-30.58-147.48-30.58-147.48" fill="none" stroke="#221a38" stroke-linecap="round" stroke-miterlimit="10" stroke-width="6.88"/>
  <path d="M710.28,866.45s-33.7,29.96-38.23,79.35" fill="none" stroke="#ff0" stroke-linecap="round" stroke-miterlimit="10" stroke-width="8"/>
  <path d="M681.9,898.57s1.36-7.65,8.84-4.42" fill="none" stroke="#ff0" stroke-linecap="round" stroke-miterlimit="10" stroke-width="8"/>
  <path d="M687.85,896.53s17.5,11.38,21.92,22.94" fill="none" stroke="#ff0" stroke-linecap="round" stroke-miterlimit="10" stroke-width="8"/>
  <path d="M683.26,892.45s-15.63-3.91-15.8-21.58" fill="none" stroke="#ff0" stroke-linecap="round" stroke-miterlimit="10" stroke-width="8"/>
  <path d="M469.13,1127.73c.96,4.64,3.03,13.66,4.69,19.3,1.71,5.79,9.03,7.79,13.32,3.53.05-.05.09-.09.14-.14,3.87-3.99-.76-27.94-.76-27.94" fill="#fff" stroke="#221a38" stroke-linecap="round" stroke-miterlimit="10" stroke-width="5.47"/>
  <path d="M486.51,1124.45c1.1,4.34,2.17,8.56,2.95,11.65,1,3.98,4.83,6.75,8.88,6.08,1.77-.29,3.39-1.17,4.29-3.14,3.54-7.79-1.72-25.12-1.72-25.12l-8.33-95.04" fill="#fff" stroke="#221a38" stroke-linecap="round" stroke-miterlimit="10" stroke-width="5.47"/>
  <path d="M429.42,1057.6s3.62,76.57,13.37,80.88c9.74,4.3,14.31-5.77,13.5-15.35-.81-9.57,3.27-28.6,3.27-28.6l-30.13-36.93Z" fill="#fff"/>
  <path d="M452.26,1137.03c1.12,4.91,2.27,8.38,3.73,11.66.97,2.17,2.59,4.01,4.71,5.07,2.45,1.22,5.66,1.58,8.01-2.69,5.91-10.76.15-26,.15-26" fill="#fff" stroke="#221a38" stroke-linecap="round" stroke-miterlimit="10" stroke-width="5.47"/>
  <path d="M519.35,688.3c-27.94,37.27-93.28,138.96-92.31,285.02,1.1,165.46,12.54,168.65,23.45,166.06,7.31-1.74,5.79-20.61,4.7-29.25-.33-2.59,1.02-5.1,3.36-6.26l10.32-5.14" fill="none" stroke="#221a38" stroke-linecap="round" stroke-miterlimit="10" stroke-width="6.88"/>
  <path d="M510.3,798.66s-33.98,31.94-19.03,74.08c14.95,42.14,26.51,38.74,6.12,77.48-20.39,38.74,9.51,135.25,14.95,193.01,5.44,57.77,61.85,296.32,55.05,308.55-6.8,12.23-26.51,12.23-31.26,26.51-4.76,14.27,2.72,38.74,44.86,36.7,63.9-3.09,80.88-16.99,80.88-59.13s24.62-284.24,24.62-284.24" fill="none" stroke="#221a38" stroke-linecap="round" stroke-miterlimit="10" stroke-width="6.88"/>
  <g>
    <path d="M484.36,1393.56c-5.72-3.59-13.81-9.46-31.51,7.58-13.23,12.74-18.26,18.04-18.26,18.04,0,0-72.92,61.48-72.95,62.29s9.64,9.28,9.64,9.28l129.28-79.37s-7.02-12.06-16.2-17.82Z" fill="#f7bc00" stroke="#221a38" stroke-linecap="round" stroke-linejoin="round" stroke-width="2.24"/>
    <path d="M364.28,1484.05c-.5.04,89.92-68.79,89.92-68.79l9.53,9.74s-95.49,62.92-95.03,63.03l-4.41-3.97Z" fill="#e8e8e8" stroke="#221a38" stroke-linecap="round" stroke-miterlimit="10" stroke-width="1.12"/>
    <path d="M482.67,1393.16l-19.21,15.22,6.72,8.58,22.35-15.44s-5.75-7.21-9.85-8.35Z" fill="#221a38"/>
    <line x1="375.42" y1="1475.1" x2="375.35" y2="1483.39" fill="none" stroke="#221a38" stroke-linecap="round" stroke-miterlimit="10" stroke-width="1.12"/>
    <line x1="386.42" y1="1467.42" x2="387.12" y2="1475.7" fill="none" stroke="#221a38" stroke-linecap="round" stroke-miterlimit="10" stroke-width="1.12"/>
    <line x1="397.07" y1="1458.84" x2="398.43" y2="1468.09" fill="none" stroke="#221a38" stroke-linecap="round" stroke-miterlimit="10" stroke-width="1.12"/>
    <circle cx="465.19" cy="1413.74" r="13.65" fill="#221a38"/>
    <line x1="410.59" y1="1448.76" x2="411.94" y2="1458.73" fill="none" stroke="#221a38" stroke-linecap="round" stroke-miterlimit="10" stroke-width="1.12"/>
    <line x1="432.32" y1="1431.77" x2="433.73" y2="1444.63" fill="none" stroke="#221a38" stroke-linecap="round" stroke-miterlimit="10" stroke-width="1.12"/>
    <line x1="421.85" y1="1439.37" x2="423.27" y2="1452.23" fill="none" stroke="#221a38" stroke-linecap="round" stroke-miterlimit="10" stroke-width="1.12"/>
    <line x1="442.84" y1="1423.85" x2="444.16" y2="1437.37" fill="none" stroke="#221a38" stroke-linecap="round" stroke-miterlimit="10" stroke-width="1.12"/>
  </g>
  <g clip-path="url(#clippath)">
    <path d="M-23.68,41.85S99.37-81.92,108.79-93.69c9.42-11.77,38.46-43.95,40.42-50.23s11.77-46.7,45.13-85.55c33.36-38.85,76.92-80.84,76.92-80.84,0,0,10.6-11.77,20.8-5.89s3.53,34.93-9.81,49.06c0,0,31-41.6,38.46-49.84,7.46-8.24,22.76-8.63,22.76,5.49s-23.15,62.01-23.15,62.01c0,0,29.43-33.36,40.42-40.03,10.99-6.67,17.27-3.14,20.01-1.57,2.75,1.57,8.45,19.26-11.56,48.69l-93.22,121.63S212.43-30.29,201.4-5.78c-10.03,22.29-15.01,25.4-15.01,25.4,0,0-62.17,68.23-91.47,36.45-23.15-25.12-72.17,13.04-118.61-14.22Z" fill="#fff"/>
    <path d="M322.16-185.96c3.96-5.25,10.04-12.79,18.91-23.04,18.96-21.94,42.79-53.9,43.88-66.9,1.08-13-1.9-17.6-13.81-17.88s-46.58,39-54.17,50.92c0,0,28.44-47.94,26.81-62.02-1.63-14.08-5.42-18.96-17.6-14.9-12.19,4.06-44.69,51.46-45.23,52.54-.54,1.08,14.92-10.31,17.45-31.83,2.53-21.52-18.02-19.71-25-13.69-6.97,6.02-36.87,34.69-36.87,35.77l-21.16,20.09c-9.63,11.3-51.19,50.65-67.98,116.73C147.38-140.17.51,18.38-9.78,26.51" fill="none" stroke="#221a38" stroke-linecap="round" stroke-miterlimit="10" stroke-width="6.24"/>
    <path d="M179.63,29.65s83.98-143.86,101.31-153.07c17.33-9.21,57.54-24.05,68.81-25.63,22.63-3.17,43.87-20.4,39.95-33.81-3.29-11.29-14.62-17.6-31.11-17.04-22.85.77-25.51,17.87-54.21,7.82-31.36-10.99-67.42-5.48-68.2-5.28,0,0-27.7,4.06-43,32.23" fill="none" stroke="#221a38" stroke-linecap="round" stroke-miterlimit="10" stroke-width="6.24"/>
  </g>
  <g clip-path="url(#clippath-1)">
    <path d="M933.9-4.01l-68.5-253.6s-6.01-3.47-12.26-6.94c-6.25-3.47-15.65-13.77-15.42-29.73l16.35,3.82c10.18-5.32,13.7-30.36,14.57-46.27,1.16-21.05-8.33-27.76-8.33-27.76,0,0,4.06-14.64,13.98-15.66,18.08-1.86,22.27,11.67,23.65,15.6,0,0,9.25-14.49,21.01-12.26,16.38,3.1,19.16,21.14,19.16,21.14,0,0,4.41-12.23,15.05-8.53,10.64,3.7,35.99,17.58,18.64,108.27L1067.86-.16l-133.95-3.85Z" fill="#fff" stroke="#221a38" stroke-linecap="round" stroke-linejoin="round" stroke-width="6.67"/>
    <path d="M442.81-128.81s71.13-99.01,173.71-120.81c0,0,14.54-30.31,45.04-39.32,31.45-9.29,45.39-10.37,76.85,1.07,31.45,11.44,20.73,30.38,20.73,30.38l-51.47,102.58s-20.73,14.3-43.96,13.23c-23.23-1.07-25.02-10.72-42.53-2.5-17.51,8.22-41.74,20.59-58.98,52.19s-8.33,95.26-8.33,95.26c0,0-85.8,30.22-118.98-5.14-18.83-20.07,3.26-90.19,7.92-126.94Z" fill="#fff"/>
  </g>
  <g clip-path="url(#clippath-2)">
    <path d="M1167.77,30.3s4.78-153.55,34.96-230.32c30.18-76.76,51.55-99.97,51.55-99.97,0,0,8.62-19.49,9.5-27.85.88-8.35,22.73-33.35,41.73-44.66,19.01-11.31,33.79-28.11,33.79-28.11,0,0,36.04-18.62,31.81,18.29l41.35,53.61s18.68,5.62,17.43,17.32c-1.25,11.7-9.66,36.31-30.02,52.17-15.39,11.99-55.74,29.29-65.81,37.9-8.31,7.11-17.18,41.1-19.09,59.07-1.91,17.97-5.24,207.58-5.24,207.58,0,0-97.09-8.19-141.97-15.04Z" fill="#fff"/>
    <path d="M1691.7-32.66s-104.17-55.48-111.07-59.35c-6.9-3.87-28.15-15.51-32.36-21.27-4.2-5.76-27.11-37.26-34.96-46.07-7.84-8.82-36.19-34.64-57.94-35.68-21.75-1.04-51.03,6.31-65.2,16.06-14.17,9.75-24.58,20.9-27.16,36.88-2.58,15.98-2.44,45.25,1.51,54.31,3.94,9.06,13.4,10.03,20.43,3.71,0,0,1.86,14.44,16.59,24.46,14.73,10.02,20.45,7.7,26.34.51,0,0,11.65,8.34,21.24-.88,0,0,11.68,6.46,19.39,5.73s16.99,3.77,21.92,7.37,124.05,105.85,124.05,105.85c0,0,56.6-32.08,77.22-91.64Z" fill="#fff"/>
    <path d="M1168.5,30.6s-5.94-204.44,87.4-334.17l3.01-5.73s-1.52-14.87,15.24-36.03c19.6-24.74,26.89-20.2,50.66-42.22,38.86-35.97,58.01-4.7,40.07,13.67-8.9,9.11-9.55,15.82-23.19,20" fill="none" stroke="#221a38" stroke-linecap="round" stroke-miterlimit="10" stroke-width="4.84"/>
    <path d="M1402.73-300.08c-12.44,8.02-33.43,20.23-42.24,10.37-5.81-6.5-.72-14.17,4.05-18.56,6.54-6.02,11.42-10.54,22.64-15.53,13.73-6.11,23.26-5.04,23.26-5.04,0,0,7.02.6,13.33,7.03,10.88,11.08,3.21,22.55,3.21,22.55,0,0-7.11,37.81-75.56,67.09-16.63,7.12-23.31,17.63-27.24,27.6-5.81,14.72-19.62,168.52-13.41,251.27" fill="none" stroke="#221a38" stroke-linecap="round" stroke-miterlimit="10" stroke-width="4.84"/>
  </g>
  <path d="M708.09,733.72c-7.1-2.37-162.56-18.07-205.19,64.82-7.22,14.05-12.36,37.77-8.68,62.23,2.42,16.15,21.67,30.52,10.47,57.06-29.53,70,16.86,289.09,10.05,285.69-9.47-4.74-145.17-40.26-142.8-49.73s5.44-551.81,121.49-551.81,428.58-82.39,502.08-2.37c144.58,157.41-287.41,134.11-287.41,134.11Z" fill="#24335b" opacity=".2"/>
  <path d="M936.14,402.7s-19.8,3.59-3.21,107.12c13.99,87.27-1.16,102.6,28.93,101.6,37.36-1.25,60.39-73.87,40.48-122.05-43.38-104.97-66.19-86.67-66.19-86.67Z" fill="#e293e2" stroke="#221a38" stroke-linecap="round" stroke-miterlimit="10" stroke-width="6.75"/>
  <path d="M458.95,395.74s-41.77-28.95-79.94,78.68c-18.4,51.9,4.18,123.26,49.19,132.01,47.86,9.3,23.04-28.02,24.85-91.26,2.99-104.46,5.89-119.43,5.89-119.43Z" fill="#e293e2" stroke="#221a38" stroke-linecap="round" stroke-miterlimit="10" stroke-width="6.75"/>
  <path d="M523.73,328.63c-29.38,22.91-57.9,56.65-76.28,106.24-52.86,142.62,10.33,280.06,218.72,290.98,208.39,10.93,311.22-107.57,293.05-229.12-18.34-122.76-110.18-237.83-322.22-215.98,0,0-58.16,4.89-113.28,47.87" fill="#fff" stroke="#221a38" stroke-linecap="round" stroke-miterlimit="10" stroke-width="8.44"/>
  <path d="M801.36,404.29c-21.39,10.52-29.2,45.82-29.2,45.82,0,0-1.45,6.68-2.46,16.73-15.26,1.04-31.6,5.75-31.18,21.38.41,15.08,14.06,20.56,32.14,20.7,2.28,13.04,5.42,35.62,14.91,44.51,33.74,31.6,78.05,5.93,87.3-66.41,4.43-34.64-9.18-63.76-20.42-75.49-8.33-8.69-24.26-20.43-51.08-7.25Z" fill="none" stroke="#221a38" stroke-linecap="round" stroke-miterlimit="10" stroke-width="8"/>
  <path d="M688.2,487.15c-2.33-16.38-21.1-17.6-36.93-15.59-.79-9.6,1.92-50.96-28.51-62.55-33.22-12.66-51.42-.85-65.21,12.68-13.92,13.65-25.52,46.75-24.6,83.37,1.82,72.91,69.14,85.09,94.78,61.97,14.51-13.08,20.62-34.16,23.03-52.87,22.48-2.02,39.91-9.59,37.44-27.01Z" fill="none" stroke="#221a38" stroke-linecap="round" stroke-miterlimit="10" stroke-width="8"/>
  <path d="M706.88,514.79s-74.77,6-91.69,60.04c-16.92,54.03,3.82,111.96,98.79,109.78,94.97-2.18,102.06-66.12,96.61-102.14-5.46-36.02-42.03-77.5-103.7-67.68Z" fill="#e293e2" stroke="#221a38" stroke-linecap="round" stroke-miterlimit="10" stroke-width="6.3"/>
  <path d="M722.87,547.72s-32.42-3.85-33.42,19.07c-1,22.92,36.5,16.14,36.5,16.14" fill="none" stroke="#221a38" stroke-linecap="round" stroke-miterlimit="10" stroke-width="8.44"/>
  <path d="M692.23,630.91s25.92-5.01,46.85.59" fill="none" stroke="#221a38" stroke-linecap="round" stroke-linejoin="round" stroke-width="8.44"/>
  <path d="M612.98,478.33s-21.16-1-24.15,27.6c-2.41,22.99,11.07,43.17,24.8,41.54,13.73-1.63,17.24-23.99,15.53-33.36s.65-36.73-16.19-35.78Z" fill="#e293e2" stroke="#221a38" stroke-linecap="round" stroke-miterlimit="10" stroke-width="6.3"/>
  <path d="M824.79,472.67s-24.67-12.8-30.02,17.95c-5.35,30.75.67,47.84,14.03,48.52,13.36.68,22.72-13.67,24.05-29.39,1.34-15.72.63-31.19-8.07-37.09Z" fill="#e293e2" stroke="#221a38" stroke-linecap="round" stroke-miterlimit="10" stroke-width="6.3"/>
  <path d="M441.59,635.85s275.29-296.46,516.69-8.47c0,0,46.69,147.48,155.64-101.19,108.94-248.67-333.93-359.98-449.98-355.24-116.05,4.74-381.3,47.37-388.4,317.35-7.1,269.99,166.05,147.55,166.05,147.55Z" fill="#24335b" opacity=".4"/>
  <path d="M492.33,964.54s10.36-72,162.82-31.76c184.46,48.68,253.72-1.72,347.29-139.76,0,0-110.12,739.04-116.47,739.04s-391.76,6.05-391.76-2.42,31.76-120.4,29.65-126.75c-2.12-6.35-31.53-438.34-31.53-438.34Z" fill="#24335b" opacity=".2"/>
  <ellipse cx="687.49" cy="892.6" rx="112.05" ry="105.12" fill="#ff0" opacity=".1"/>
</svg>