<?xml version="1.0" encoding="UTF-8"?>
<svg id="Layer_1" data-name="Layer 1" xmlns="http://www.w3.org/2000/svg" width="1400" height="1200" xmlns:xlink="http://www.w3.org/1999/xlink" viewBox="0 0 1400 1200">
  <defs>
    <clipPath id="clippath">
      <rect x="0" y="0" width="1400" height="1200" fill="none"/>
    </clipPath>
    <clipPath id="clippath-1">
      <rect x="-4.03" y="1239.41" width="1395.16" height="774.95" fill="none"/>
    </clipPath>
    <clipPath id="clippath-2">
      <rect x="-517.77" y="576.56" width="1558.9" height="1859.01" fill="none"/>
    </clipPath>
  </defs>
  <g clip-path="url(#clippath)">
    <rect x="0" y="0" width="1400" height="1200" fill="#24335b"/>
    <g opacity=".2">
      <circle cx="335.17" cy="121.45" r="10.44" fill="#fff"/>
      <circle cx="-.89" cy="201.49" r="10.44" fill="#fff"/>
      <circle cx="530.09" cy="223.84" r="10.44" fill="#fff"/>
      <circle cx="755.1" cy="62.23" r="10.44" fill="#fff"/>
      <circle cx="1099.17" cy="220.81" r="10.44" fill="#fff"/>
      <circle cx="1357.79" cy="416.98" r="10.44" fill="#fff"/>
      <circle cx="877.05" cy="178.7" r="10.44" fill="#fff"/>
    </g>
    <path d="M260.4,653.08s49.23,187.33,102.99,258.07c53.76,70.74,96.05,77.1,135.53,82.45,81.32,11.01,179.19-25.61,225.88-66.64,46.69-41.03,114.31-84.93,135.53-111.81,21.22-26.88,46.83-68.64,72.28-104.47,24.65-34.7,104.62-58.87,111.81-122.82,6.7-59.65,20.21-58.58,17.38-119.42l-801.41,184.64Z" fill="#2f3f70"/>
    <path d="M415.4,454.3s24.34-110.21,208.92-173.09c0,0,199.02-37.36,290.11,18.83,92.51,57.06,189.25,123.99,131.99,241.11-7.01,14.35-84.96,116.47-118.48,122.63-17.09,3.14-40.63-5.36-53.08.37-12.13,5.58-4.4,21.63-19.54,37.23-12.9,13.29-47.79,26.1-67.38,33.35-118.78,43.96-129.82,75.21-228.95,93.26-105.52,19.21-333.05-85.93-299.79-208.04,30.04-110.27,156.19-165.65,156.19-165.65Z" fill="#3a5084" stroke="#24335b" stroke-linecap="round" stroke-miterlimit="10" stroke-width="6"/>
    <g>
      <path d="M899.14,242.74s3.86-1.08,6.43,8.6c2.57,9.68-1.62,11.63-5.51,11.98-4.39.39-6.43-.54-6.9-10.12-.45-9.15,5.97-10.45,5.97-10.45Z" fill="#e293e2" stroke="#221a38" stroke-linecap="round" stroke-miterlimit="10" stroke-width="1.57"/>
      <path d="M922.67,242.94s12.3,5.07,14.89,20.39c2.59,15.32-5.83,28.01-25.43,23.18-19.72-4.86-25.04-17.83-19.72-29.27,5.32-11.44,13.8-20.04,30.25-14.3Z" fill="#fff" stroke="#221a38" stroke-linecap="round" stroke-miterlimit="10" stroke-width="1.57"/>
      <path d="M933.47,256.91s5.76-2.15,9.74,8.22c3.99,10.37,1.52,12.57-2.62,13.87-4.13,1.3-8.1,1.31-10.7-10.85-2.13-9.94,3.58-11.24,3.58-11.24Z" fill="#e293e2" stroke="#221a38" stroke-linecap="round" stroke-miterlimit="10" stroke-width="1.57"/>
    </g>
    <path d="M938.51,313.23c-.93-.42-3.67-.48-4.55-.04-.42.21-2.03-4.36-2.2-4.8l-7.99-22.07c-5.8-18.34-23.37-18.93-23.37-18.93,0,0-7.34-3.39-22.59,2.82-15.25,6.21-16.65,8.24-16.65,8.24,0,0-7.06,4.41-7.69,14.44-.51,8.09,2.23,10.61,4.09,12.22l1.8,14.77-15.64,4.65s-3.45-1.2-7.21,1.44-6.4,9.22-5.46,14.12c.94,4.89,8.66,2.82,10.17-1.69l2.26-4.71s15.14-2.77,25.21-5.45c1.74-.46-.05-12,1.51-13.36l1.46.14,3.19,17.14-20.37,6.39s-2.45-3.2-6.21-.56c-3.76,2.64-6.4,9.22-5.46,14.12.94,4.89,8.66,2.82,10.16-1.69l2.26-4.71s32.56-6.02,34.26-9.41c1-2.01,1.03-14.7,1.03-25.07,10.18-3.27,18.09-6.08,24.08-8.33,1.08-.4,2.3-.08,3.01.82,3.75,4.75,11.99,15.69,13.38,16.52,2.04,1.22,5.92-.64,10.41-.41,2.15.11-.51-5.52-2.87-6.59Z" fill="#fff" stroke="#221a38" stroke-linecap="round" stroke-miterlimit="10" stroke-width="1.57"/>
    <path d="M625.37,698.76l244.38-184.63s59.11-122.87-55.08-203.7c-92.49-65.47-198.21,5.51-219.29,19.75-21.07,14.24-169.25,191.75-169.25,191.75l199.24,176.83Z" fill="#2f3f70" stroke="#24335b" stroke-linecap="round" stroke-miterlimit="10" stroke-width="2.61"/>
    <path d="M724.78,621.01s-2.41-8.12-11.13.6c-8.72,8.72-9.02,21.35,0,24.06,9.02,2.71,15.64,2.71,17.14-6.01,1.5-8.72-3.31-8.72-6.01-18.65Z" fill="#3a5084" stroke="#221a38" stroke-linecap="round" stroke-miterlimit="10" stroke-width="2.94"/>
    <path d="M710.91,639.83s-.6-15.04-6.92-16.84c-6.32-1.8-24.66,3.91-21.35,24.66,3.31,20.75,32.48,15.64,28.27-7.82Z" fill="#3a5084" stroke="#221a38" stroke-linecap="round" stroke-miterlimit="10" stroke-width="2.94"/>
    <path d="M728.28,647.36s0-6.92-3.31-14.74c-3.31-7.82-16.24-8.42-21.35,2.11-5.11,10.53-10.83,24.96-4.21,30.38,6.62,5.41,16.24,4.51,21.35,1.5,5.11-3.01,10.53-2.41,7.52-19.25Z" fill="#3a5084" stroke="#221a38" stroke-linecap="round" stroke-miterlimit="10" stroke-width="2.94"/>
    <path d="M704.5,662.05s1.2-5.41-12.03-12.03c-13.23-6.62-23.76,11.73-19.55,19.55,4.21,7.82,14.44,6.62,17.44,6.32,0,0,16.54,2.41,14.14-13.83Z" fill="#3a5084" stroke="#221a38" stroke-linecap="round" stroke-miterlimit="10" stroke-width="2.94"/>
    <g>
      <path d="M519.43,719.22s-98.6-13.31-107.39-116.78c-10.03-118.08,75.71-129.16,141.17-126.42,65.27,2.72,129.11,93.47,117.26,151.55-23.03,112.92-151.04,91.65-151.04,91.65Z" fill="#2f3f70" stroke="#24335b" stroke-linecap="round" stroke-miterlimit="10" stroke-width="2.61"/>
      <path d="M525.54,710.01s-93.55-12.88-101.37-112.71c-8.88-113.32,72.09-123.92,133.87-121.3,61.6,2.61,121.97,89.61,110.82,145.5-21.77,109.11-143.31,88.51-143.31,88.51Z" fill="#2f3f70" stroke="#24335b" stroke-linecap="round" stroke-miterlimit="10" stroke-width="2.61"/>
    </g>
    <path d="M541.61,605.46c-2.17.38-1.86,2.93-1.86,2.93,0,0,.09,93.97-20.69,116.83-14.77,16.25-29.27,62.55-63.98,79.91-3.69,1.85-4.95,37.65-2.87,63.05v50.1l9.07,326.5" fill="none" stroke="#ff0" stroke-linecap="round" stroke-miterlimit="10" stroke-width="4"/>
    <path d="M541.61,605.46c-2.17.38-1.86,2.93-1.86,2.93,0,0,.09,93.97-20.69,116.83-14.77,16.25-29.27,62.55-63.98,79.91-3.69,1.85-4.95,37.65-2.87,63.05v50.1l9.07,326.5" fill="none" opacity=".1" stroke="#ff0" stroke-linecap="round" stroke-miterlimit="10" stroke-width="30"/>
    <path d="M890.12,265.59s11.75-24.45,21.95-21.55c23.92,6.79,11.87,43.62,11.87,43.62l30.05-3.44s-18.09-40.43-28.26-43.97c-20.61-7.18-42.29.92-35.61,25.34Z" fill="#24335b" opacity=".5"/>
    <path d="M905.4,268.85s11.41,17.34-14.65,41.98l25.58-8.53,14.64,17.92,11.24-.48s-1.32-4.14-3.62-5.6c-1.76-1.12-4.56-.54-4.94-1.19-8.09-13.75-7.67-41.25-28.25-44.1Z" fill="#24335b" opacity=".5"/>
  </g>
  <g clip-path="url(#clippath-1)">
    <g clip-path="url(#clippath-2)">
      <polygon points="-563.35 1618.88 421.63 1650.25 418.02 682.23 -563.35 770.29 -563.35 1618.88" fill="#2f3f70" stroke="#221a38" stroke-linecap="round" stroke-miterlimit="10" stroke-width="3"/>
      <path d="M423.58,1653.28s-69.28-19.08-76.51-302.43c-7.22-283.34-4.23-656.59,96.96-694.61,101.18-38.02,84.68,832.09,50.98,936.85-17.24,53.6-45.82,75.18-71.43,60.19Z" fill="#446099" stroke="#221a38" stroke-linecap="round" stroke-miterlimit="10" stroke-width="3"/>
      <path d="M428.51,1641.28s-56.44-18.8-63.46-293.94c-7.01-275.13-6.07-637.52,76.09-674.02,82.17-36.51,72.23,808.23,45.24,909.81-13.81,51.97-36.98,72.81-57.87,58.16Z" fill="#233259" stroke="#221a38" stroke-linecap="round" stroke-miterlimit="10" stroke-width="3"/>
      <path d="M890.03,1068.96c28.02,209.73-78.04,491.12-189.09,530.36-136.3,48.16-217.72,71.65-266.22,44.22-41.82-23.65-59.16-86.2-66.11-191.34-7.22-109.34-5.98-195.87-6.95-294.52-1.64-167.59,12.49-455.95,69.33-473.44,257.33-79.18,432.17,183.63,459.04,384.72Z" fill="#ff0" opacity=".04"/>
      <path d="M695.49,1114.86c-4.12,194.51-37.82,488.69-246.41,531.26-50.54,10.31-58.42-45.72-86.65-280.57-37.36-310.87,35.22-647.97,51.08-663.83,150.54-150.54,286.64,193.01,281.98,413.13Z" fill="#ff0" opacity=".04"/>
    </g>
  </g>
</svg>