<?xml version="1.0" encoding="UTF-8"?>
<svg id="Layer_1" data-name="Layer 1" xmlns="http://www.w3.org/2000/svg" width="1400" height="780" xmlns:xlink="http://www.w3.org/1999/xlink" viewBox="0 0 1400 780">
  <defs>
    <clipPath id="clippath">
      <rect x="6.98" y="-1237.6" width="1400" height="1200" fill="none"/>
    </clipPath>
    <clipPath id="clippath-1">
      <rect x="2.94" y="1.8" width="1395.16" height="774.95" fill="none"/>
    </clipPath>
    <clipPath id="clippath-2">
      <rect x="-510.79" y="-661.05" width="1558.9" height="1859.01" fill="none"/>
    </clipPath>
  </defs>
  <rect x="0" y="-4.15" width="1403.03" height="785.48" fill="#24335b"/>
  <g clip-path="url(#clippath)">
    <path d="M548.59-632.14c-2.17.38-1.86,2.93-1.86,2.93,0,0,.09,93.97-20.69,116.83-14.77,16.25-29.27,62.55-63.98,79.91-3.69,1.85-4.95,37.65-2.87,63.05v50.1L468.25,7.17" fill="none" stroke="#ff0" stroke-linecap="round" stroke-miterlimit="10" stroke-width="4"/>
    <path d="M548.59-632.14c-2.17.38-1.86,2.93-1.86,2.93,0,0,.09,93.97-20.69,116.83-14.77,16.25-29.27,62.55-63.98,79.91-3.69,1.85-4.95,37.65-2.87,63.05v50.1L468.25,7.17" fill="none" opacity=".1" stroke="#ff0" stroke-linecap="round" stroke-miterlimit="10" stroke-width="30"/>
  </g>
  <g clip-path="url(#clippath-1)">
    <g>
      <g clip-path="url(#clippath-2)">
        <path d="M841.09,420.54s-27.2,114.59-62.63,164.61c-35.43,50.02-58.35,117.75-104.2,139.63-45.85,21.88-88.63,100.64-119.89,123.56-31.26,22.92-34.39,58.35-70.86,83.36,0,0-180.1,183.86-339.28,197.81-159.18,13.94-505.41,29.05-676.2-171.96,0,0-52.28-58.09-56.93-96.43-4.65-38.34-45.31-405.49,9.29-442.67,51.64-35.16,1276.28-1.95,1409.06,1.76,7.62.21,11.64.33,11.64.33Z" fill="#2f3f70"/>
        <path d="M479.39,373.09s53.14,7.82,98.47,7.82,287.76,23.09,261.56,42.26c-100.22,73.33-234.99,40.58-306.89,35.89-71.9-4.69-976.09,30.21-1092.4,24.46l-2.32-147.56,1041.58,37.13" fill="#3a5084"/>
        <polygon points="-556.37 381.27 428.61 412.64 425 -555.37 -556.37 -467.32 -556.37 381.27" fill="#2f3f70" stroke="#221a38" stroke-linecap="round" stroke-miterlimit="10" stroke-width="3"/>
        <g>
          <path d="M843.96,509.28l12.2,36.82s-5.85,3.85-9.86.12l-56.27-87.59s5.04-5.29-.34-10.02c-1.65-1.45-10.18,3.76-10.18,3.76,0,0-5.16-4.73-7.78-5.07-2.62-.34-5.23.53-4.27,4.87,0,0-3.49-1.97-7.04-.94-3.55,1.03-.34,5.63-.34,5.63,0,0-3.65-1.48-5.12.61-1.48,2.08-2.78,5.9,6.51,10.33,0,0,15.36,13.73,17.58,18.29,1.52,3.13,16,55.6,35.52,84.64,7.72,11.48,13.84,12.38,24.32,18.26,2.85,1.6-6.48,36.87-9.59,37.06-4.84.3-10.75-15.03-25.45-18.26-7.12-1.56-25.98,9.71-25.98,9.71,0,0-22.16,15.53-23.05,12.75-.97-3.05-4.17-12.77-6.64-14.2-2.47-1.43-11.46-1.82-15.37,2.21-3.91,4.04-3.91,17.04-2.09,25.64,0,0-2.47-3.1-13.41,2.89-10.94,5.99-4.43,31.39-3.39,35.56,1.04,4.17,7.42,22.01,24.62,15.63,8.4-3.12,24.69-14.66,36.51-18.36,5.78-1.81,18.92-8.05,33.23,7.64,14.01,15.35,29.14,29.63,47.52,34.29,37.27,9.46,83.92-16.15,93.6-39.25,18.64-44.47,4.09-134.12-14.96-159.81-18.58-25.04-44.59-18.01-58.59,5.08l-11.38-35.79-21.17-67.66c-.51-2.12-8.17-11.72-12.56-10.17-1.07.38,3.26,6.76,3.66,7.39,1.2,1.91-6.16-8.79-10.5-6.13-.75.46,8.44,10.31,7.61,10.87-.87.58-8.11-11.66-11.68-5.87-.5.81,8.32,9.1,7.79,10.03-.78,1.37-6.95-5.29-8.24-.24-.21.82,2.21,5.39,5.76,6.16,0,0,14.4,64.5,16.51,66.86l2.34,6.25Z" fill="#fff"/>
          <path d="M782.84,456.23s-6.96-7.63-11.12-8.93c-4.17-1.3-5.4,3.79-3.83,5.61" fill="none" stroke="#221a38" stroke-linecap="round" stroke-miterlimit="10" stroke-width="4.06"/>
          <path d="M776.51,458.38s-11.82-10.6-16.1-7.15c-1.25,1.01-1.55,2.93-1.09,3.78" fill="none" stroke="#221a38" stroke-linecap="round" stroke-miterlimit="10" stroke-width="4.98"/>
          <path d="M937.89,524.23c4.46,16.78,15.63,27.09,18.76,72.94,1.67,24.48,11.97,91.75-38.56,114.62-28.72,13-35.8,15.37-61.99,10.13-40.39-8.09-59.06-49.53-71.85-45.63-12.84,3.92-40.53,25.42-54.6,22.03-19.19-4.62-18.76-29-19.02-38.64-.26-9.64,10.75-17.94,18.67-16.76,11.12,1.65,15.2,15.2,15.98,19.36.78,4.17,32.25-37.11,57.31-38.21,11.98-.53,33.41,31.93,33.41,31.93" fill="none" stroke="#221a38" stroke-linecap="round" stroke-linejoin="round" stroke-width="4.98"/>
          <path d="M909.76,577.37c-84.47,33.88-92.79-5.66-97.48-10.35-4.69-4.69-32.25-82.81-34.08-84.63-1.82-1.82-15.36-14.52-15.36-14.52,0,0-9.49-6.66-7.69-10.01,2.44-4.54,7.36-.48,7.36-.48,0,0,5.05,2.52,7.79,5.57" fill="none" stroke="#221a38" stroke-linecap="round" stroke-miterlimit="10" stroke-width="4.98"/>
          <path d="M730.44,643.28s-5.21-13.29.78-22.14c5.16-7.63,14.98-7.64,18.76-3.65,4.69,4.95,2.24,14.68,8.48,13.88,2.64-.34,9.82-8.4,18.68-13.7,9.07-5.43,19.19-9.22,24.14-10.28,11.17-2.39,24.83,10.48,28.36,17.67.85,1.74,3.59-4.03,4.25-6.09.39-1.21.93-6.85,1.44-8.42l4.7-21.26" fill="none" stroke="#221a38" stroke-linecap="round" stroke-miterlimit="10" stroke-width="4.98"/>
          <path d="M856.2,544.96l-30.32-107.16.08-.42s-9.68-3.98-7.53-8.15c1.63-3.16,6.17.34,9.64,2.28,0,0-3.31-4.57-7.55-7.45,0,0-2.99-1.47-2.45-4.3.19-1,2.43-2.84,5.29-1.8s7.35,6.64,7.89,8.07c0,0-2.2-4.53-9.11-8.61,0,0-1.74-4.84,3.5-3.45,3.12.83,4.64,2.38,8.72,7.79,0,0-2.04-2.63-3.74-4.73-1.46-1.8-4.08-2.81-2.07-3.48,1.32-.44,6.47-2.07,12.83,6.96,2.72,3.86,3.72,5.18,4.03,7.86l.39,1.4c1.04,2.87,1.13,17.8,1.13,17.8l24.89,82.2" fill="none" stroke="#221a38" stroke-linecap="round" stroke-linejoin="round" stroke-width="3.98"/>
          <g>
            <path d="M916.66,538.57c-9.31,0-19.46-1.25-30.17-3.7-22.4-5.13-37.29-15.34-44.25-30.33-11.89-25.62,2.78-57.84,7.56-67.1,8.05-15.59,26.64-24.9,49.75-24.9,20.28,0,42.47,7.15,62.5,20.14,29.46,19.1,18.52,66.22,17.96,68.54-.3.87-3.56,9.85-12.48,18.69-12.49,12.38-29.61,18.66-50.87,18.66Z" fill="#fff"/>
            <path d="M899.55,409.88v5.32s0,0,0,0c19.77,0,41.45,7,61.05,19.71,11.72,7.6,18.15,20.75,19.12,39.1.71,13.38-1.9,24.88-2.27,26.46-.43,1.19-3.64,9.54-11.98,17.74-11.96,11.75-28.39,17.71-48.81,17.71-9.11,0-19.06-1.22-29.58-3.63-21.56-4.94-35.83-14.65-42.43-28.85-4.27-9.21-5.39-20.3-3.32-32.99,2.13-13.03,7.07-24.47,10.83-31.78,7.58-14.69,25.29-23.46,47.39-23.46v-5.32M899.55,409.88c-23.87,0-43.44,9.53-52.11,26.34-15.8,30.63-27.93,86.03,38.45,101.24,11.52,2.64,21.73,3.77,30.77,3.77,53.32,0,65.91-39.27,65.91-39.27,0,0,12.99-50.74-19.06-71.52-21.79-14.13-44.32-20.57-63.95-20.57h0Z" fill="#221a38"/>
          </g>
          <path d="M875.59,451.83l1.51.05c.56-2.26,1.1-3.69,1.1-3.69,0,0,5.39-10,12.74-9.89,9.91.16,17.33,5.71,11.29,26.07-6.04,20.36-22.57,18.63-26.1,9.93-1.4-3.45-.46-11.5-.22-15.02l-1.88-.77c-1.68-.88-3.56-2.33-4.09-4.08l.1-1.28c1.24-1.99,3.69-1.43,5.55-1.33Z" fill="none" stroke="#221a38" stroke-linecap="round" stroke-miterlimit="10" stroke-width="3"/>
          <path d="M890.65,449.21s5.15.85,2.9,8.79c-2.25,7.93-5.75,10.04-9.51,8.09-4.21-2.18-1.29-19.32,6.61-16.88Z" fill="#e293e2" stroke="#221a38" stroke-linecap="round" stroke-miterlimit="10" stroke-width="1.85"/>
          <path d="M942.73,448.75c7.58-.42,19.81,15.18,14.74,40.72-5.1,25.7-23.42,26.3-29.89,24.45-6.47-1.85-18.21-6.73-11.5-34.55,8.15-33.8,22.77-30.38,26.65-30.62Z" fill="#e293e2" stroke="#221a38" stroke-linecap="round" stroke-miterlimit="10" stroke-width="3"/>
          <path d="M860.04,431.8c-.34,1.94-2.3,6.89-3.77,9.48-.31.54-.06,1.21.52,1.43l1.51.56c1.89.86,2.04,3.35,1.44,4.41-1.03,1.82-2.81,2.12-4.03,1.67l-2.47-.4c-.46-.08-.91.19-1.09.62-3.76,8.94-12.33,8.55-11.83,6.34,3.88-17,15.46-28.02,15.46-28.02,0,0,6.03-6.12,4.26,3.92Z" fill="#fff" stroke="#221a38" stroke-linecap="round" stroke-miterlimit="10" stroke-width="3"/>
          <path d="M854.47,455.14c.12.03.22.08.33.14,1.33.78,10.63,6.61,12.42,17.69,1.93,11.94-1.66,32.24-23.15,27.24-8.04-1.87-12.93-11.61-13.73-19.5-1.31-12.89,6.38-30.89,24.14-25.57Z" fill="#e293e2" stroke="#221a38" stroke-linecap="round" stroke-miterlimit="10" stroke-width="5.05"/>
          <path d="M842.76,458.6s-8.84-5.67-10.98-.53c-2.09,5.01,3.16,6.97,6.21,8.33" fill="#e293e2" stroke="#221a38" stroke-linecap="round" stroke-miterlimit="10" stroke-width="3.73"/>
          <line x1="830.19" y1="476.1" x2="839.46" y2="481.64" fill="none" stroke="#221a38" stroke-linecap="round" stroke-miterlimit="10" stroke-width="4.31"/>
          <path d="M917.83,548.2s-4.69-16.93-13.29-16.93-16.42-.11-23.71,13.69l37,3.24Z" fill="#fff"/>
          <path d="M780.8,453.15c1.99-1.76,3.64-2.94,4.9-3.72,2.23-1.37,5.18.17,5.19,2.79,0,2.94-1.74,6.01-1.74,6.01,0,0,2.65,4.32,7.8,12.24,11.73,18.02,45.53,76.82,51.61,76.05,12.86-1.64,25.09-3.35,40.8-13.55,0,0,15.99-10.86,28.36,7.63" fill="none" stroke="#221a38" stroke-linecap="round" stroke-miterlimit="10" stroke-width="4"/>
          <path d="M803.74,476.51s-2.81,1.22-9.84,6.75" fill="none" stroke="#ff0" stroke-linecap="round" stroke-miterlimit="10" stroke-width="4"/>
          <path d="M777.73,491.51s6.2-2.58,12.58-6.56" fill="none" stroke="#ff0" stroke-linecap="round" stroke-miterlimit="10" stroke-width="4"/>
          <path d="M791.75,483.43s-4.17,14.59-14.07,18.93" fill="none" stroke="#ff0" stroke-linecap="round" stroke-miterlimit="10" stroke-width="4"/>
          <path d="M793.25,480.48s4.74,14.93-5.33,26.57" fill="none" stroke="#ff0" stroke-linecap="round" stroke-miterlimit="10" stroke-width="4"/>
          <path d="M850.56,434.7s4.32.58,2.22,7.31c-2.1,6.72-5.12,8.59-8.24,7.05-3.49-1.72-.59-16.2,6.01-14.36Z" fill="#e293e2" stroke="#221a38" stroke-linecap="round" stroke-miterlimit="10" stroke-width="1.56"/>
        </g>
        <path d="M430.56,415.68s-69.28-19.08-76.51-302.43c-7.22-283.34-4.23-656.59,96.96-694.61,101.18-38.02,84.68,832.09,50.98,936.85-17.24,53.6-45.82,75.18-71.43,60.19Z" fill="#446099" stroke="#221a38" stroke-linecap="round" stroke-miterlimit="10" stroke-width="3"/>
        <path d="M435.49,403.68s-56.44-18.8-63.46-293.94c-7.01-275.13-6.07-637.52,76.09-674.02,82.17-36.51,72.23,808.23,45.24,909.81-13.81,51.97-36.98,72.81-57.87,58.16Z" fill="#233259" stroke="#221a38" stroke-linecap="round" stroke-miterlimit="10" stroke-width="3"/>
        <path d="M897.01-168.65c28.02,209.73-78.04,491.12-189.09,530.36-136.3,48.16-217.72,71.65-266.22,44.22-41.82-23.65-59.16-86.2-66.11-191.34-7.22-109.34-5.98-195.87-6.95-294.52-1.64-167.59,12.49-455.95,69.33-473.44,257.33-79.18,432.17,183.63,459.04,384.72Z" fill="#ff0" opacity=".04"/>
        <path d="M702.46-122.74c-4.12,194.51-37.82,488.69-246.41,531.26-50.54,10.31-58.42-45.72-86.65-280.57-37.36-310.87,35.22-647.97,51.08-663.83,150.54-150.54,286.64,193.01,281.98,413.13Z" fill="#ff0" opacity=".04"/>
        <path d="M923.78,416.75s-63.79,65.05-123.16,44.84c0,0-16.42,10.74-36.63,7.58-20.21-3.16-65.05,175.58-65.05,175.58,0,0-59.37,70.11,2.53,86.53,61.89,16.42,326.53,5.05,326.53,5.05,0,0,32.21-321.47-104.21-319.58Z" fill="#24335b" opacity=".5"/>
      </g>
      <ellipse cx="779.7" cy="463.22" rx="80.79" ry="75.79" fill="#ff0" opacity=".1"/>
    </g>
  </g>
  <rect x="2.94" y="1.8" width="1395.16" height="774.95" fill="none" stroke="#4f6ba3" stroke-miterlimit="10" stroke-width="2"/>
</svg>