<?xml version="1.0" encoding="UTF-8"?>
<svg id="Layer_1" data-name="Layer 1" xmlns="http://www.w3.org/2000/svg" width="1401.57" height="1998.92" xmlns:xlink="http://www.w3.org/1999/xlink" viewBox="0 0 1401.57 1998.92">
  <defs>
    <clipPath id="clippath">
      <rect x=".9" width="1400.13" height="2000" fill="none"/>
    </clipPath>
  </defs>
  <g clip-path="url(#clippath)">
    <rect x=".9" width="1400.13" height="2000" fill="#24335b"/>
    <path d="M1537.96,2064.76s-47.46-267.76-316.23-388.52c-63.91-28.71-194.23-138.83-241.67-168.19-47.44-29.36-187.48-40.66-219.11-63.25-31.62-22.59-162.63-49.69-214.59-15.81-51.95,33.88-119.74,21.37-185.25,75.58-56.47,46.73-181.23,141.01-221.36,158.12-262.05,111.72-176.19,397.55-176.19,397.55l1574.4,4.52Z" fill="#192233"/>
    <path d="M161.19,1012.17s103.91,275.58,241.69,356.89c137.79,81.32,257.51,88.09,338.82,54.21,81.32-33.88,273.32-60.99,295.91-106.16,22.59-45.18,162.63-162.63,121.98-280.09-40.66-117.46-998.4-24.85-998.4-24.85Z" fill="#2f3f70"/>
    <path d="M312.34,751.16s-79.23-131.53,117.26-177.48c0,0,201.42-71.86,396.16-25.35,212.34,50.71,250.37,72.89,331.19,137.86,71.8,57.72,77.65,122.02,45.95,172.73-17.22,27.56-31.69,85.57-69.72,91.91-24.63,4.1,34.91,63.14,26.94,103-6.34,31.69-56.06,90.44-87.16,114.09-72.89,55.46-216.8,65.46-347.04,60.22-236.11-9.51-608.51-87.16-557.8-285.24,48.53-189.58,144.2-191.74,144.2-191.74Z" fill="#3a5084" stroke="#24335b" stroke-linecap="round" stroke-miterlimit="10" stroke-width="6"/>
    <path d="M768.41,1011.55l236.3-226.28s110.57-229.86-103.04-381.07c-173.04-122.49-381.93-1.3-410.23,36.94-31.85,43.03-124.88,283.6-124.88,283.6l401.86,286.81Z" fill="#2f3f70" stroke="#24335b" stroke-linecap="round" stroke-miterlimit="10" stroke-width="5.49"/>
    <g>
      <path d="M557.2,1059.45s-184.46-24.9-200.9-218.46c-18.76-220.9,141.63-241.62,264.1-236.51,122.1,5.1,241.53,174.85,219.36,283.51-43.09,211.26-282.56,171.46-282.56,171.46Z" fill="#2f3f70" stroke="#24335b" stroke-linecap="round" stroke-miterlimit="10" stroke-width="4.88"/>
      <path d="M568.64,1042.23s-175.01-24.09-189.65-210.85c-16.61-211.99,134.86-231.82,250.44-226.93,115.24,4.88,228.18,167.64,207.31,272.19-40.73,204.13-268.1,165.59-268.1,165.59Z" fill="#2f3f70" stroke="#24335b" stroke-linecap="round" stroke-miterlimit="10" stroke-width="4.88"/>
    </g>
    <g>
      <path d="M563.84,1708.18s18.57,13.47,18.57,40.8c0,27.34,6.02,16.98-1.3,41.23,0,0-1.42.02-1.87,1.73,0,0,.08,2.29-1.51,2.69-1.78.46-5.88,2.18-7.76.78-1.74-1.31-1.35-5.06-1.6-5.85l-11.87,55.91s.37,2.63,1.34,5.37c1.63,4.58,2.61,11.27-4.9,10.89-8.61-.44-9.69-1.09-8.61-15.36.7-9.13-7.26-47.01-7.26-47.01,0,0-2.82,11.49-4.41,16.22-1.59,4.74-5.12,26.23-4.98,30.03s1.13,4.96,1.51,9.14.45,7.98-6.97,7.63-8.06-1.63-9.26-12.74c-1.14-10.56-9.8-38.73-10.76-42.16s.19-.6-1.14-3.84c-1.32-3.24-5.79-24.17-6.55-32.88s-1.42-20.21-1.42-20.21c0,0-1.59-1.59-2.38,1.56-.79,3.15-.78,11.03-2.45,13.46-2.58,3.75-10.35.26-12.52-.47-1.65-.56-5.93-8.75-1.32-25.6,1.86-6.81,11.43-10.8,14.87-16.75,6.23-10.77,12.8-17.42,12.8-17.42l61.73,2.84Z" fill="#fff"/>
      <path d="M502.64,1704.62s-6.65,3.27-17.1,25.29c0,0-9.22,1.51-12.61,15.06-3.39,13.55-.56,17.32,3.01,19.76,5.36,3.67,14.21,1.13,14.21-4.8s.09-10.17,2.5-10.58c0,0,1.58,36.12,6.32,48.52,4.74,12.4,10.98,43.72,13.66,50.9,2.68,7.18-2.18,12.64,7.08,13.51,3.69.35,13.07,1.09,7.6-12.36,0,0,3.65-28.09,6.32-34.54,2.68-6.45,5.47-26.39,5.47-26.39" fill="none" stroke="#221a38" stroke-linecap="round" stroke-miterlimit="10" stroke-width="2"/>
      <path d="M491.76,1660.38s3.64.68.75,19.23c-2.43,15.64.37,18.41-5.15,18.19-6.86-.28-11.19-13.35-7.61-21.96,7.8-18.77,12.01-15.45,12.01-15.45Z" fill="#e293e2" stroke="#221a38" stroke-linecap="round" stroke-miterlimit="10" stroke-width="2"/>
      <path d="M546.48,1638.44s24.46,2.06,33.92,27.58-1.85,50.11-39.14,52.07c-37.29,1.96-55.69-19.25-52.44-41,3.28-21.97,19.72-42.56,57.66-38.65Z" fill="#fff" stroke="#221a38" stroke-linecap="round" stroke-miterlimit="10" stroke-width="2"/>
      <path d="M513.07,1659c3.83,1.88,5.46,9.21,5.46,9.21,0,0,.26,1.2.44,2.99,2.73.19,5.65,1.03,5.58,3.83-.07,2.7-2.52,3.68-5.75,3.7-.41,2.33-.97,6.37-2.67,7.96-6.04,5.65-13.97,1.06-15.62-11.88-.79-6.2,1.45-12.72,3.54-14.75,2.32-2.26,4.22-3.42,9.02-1.06Z" fill="#fff" stroke="#221a38" stroke-linecap="round" stroke-miterlimit="10" stroke-width="2"/>
      <path d="M537.32,1675.37c.42-2.93,3.77-3.15,6.61-2.79.14-1.72-.88-12.17,5.18-12.75,6.33-.61,9.51,1.75,11.97,4.17,2.49,2.44,4.19,8.03,4.02,14.58-.33,13.05-12.37,15.23-16.96,11.09-2.6-2.34-3.69-6.11-4.12-9.46-4.02-.36-7.14-1.72-6.7-4.83Z" fill="none" stroke="#221a38" stroke-linecap="round" stroke-miterlimit="10" stroke-width="2"/>
      <path d="M532.01,1679.24s13.38,1.07,16.41,10.74c3.03,9.67-.68,20.03-17.68,19.64s-18.26-11.83-17.29-18.28c.98-6.45,7.52-13.87,18.56-12.11Z" fill="#e293e2" stroke="#221a38" stroke-linecap="round" stroke-miterlimit="10" stroke-width="2"/>
      <path d="M530.58,1685.14s-5.8-.69-5.98,3.41c-.18,4.1,6.53,2.89,6.53,2.89" fill="none" stroke="#221a38" stroke-linecap="round" stroke-miterlimit="10" stroke-width="2"/>
      <path d="M534.63,1700.02s-4.64-.9-8.38.11" fill="none" stroke="#221a38" stroke-linecap="round" stroke-linejoin="round" stroke-width="2"/>
      <path d="M552.43,1670.25s3.79-.11,4.23,5.01c.36,4.12-2.12,7.69-4.57,7.35-2.45-.33-3.01-4.35-2.67-6.02.33-1.67,0-6.57,3.01-6.35Z" fill="#e293e2" stroke="#221a38" stroke-linecap="round" stroke-miterlimit="10" stroke-width="2"/>
      <path d="M507.61,1668.27s4.54-2.08,5.5,3.42c.96,5.5-.12,8.56-2.51,8.68-2.39.12-4.07-2.45-4.3-5.26-.24-2.81.12-6.6,1.32-6.85Z" fill="#e293e2" stroke="#221a38" stroke-linecap="round" stroke-miterlimit="10" stroke-width="2"/>
      <path d="M583.63,1777.45s-.65,13.7-2.39,14.47c-1.74.77-2.56-1.03-2.42-2.75.15-1.71-.58-5.12-.58-5.12l5.39-6.61Z" fill="#fff"/>
      <path d="M567.53,1711.36c5,6.67,16.69,24.87,16.52,51-.2,29.61-2.24,30.18-4.2,29.71-1.31-.31-1.04-3.69-.84-5.23.06-.46-.18-.91-.6-1.12l-1.85-.92" fill="none" stroke="#221a38" stroke-linecap="round" stroke-miterlimit="10" stroke-width="2"/>
      <path d="M569.15,1731.11s6.08,5.72,3.41,13.26c-2.68,7.54-4.74,6.93-1.09,13.86,3.65,6.93-1.7,24.2-2.68,34.54-.97,10.34-10.91,51.24-11.27,53.72-.87,5.99.78,7.03,1.63,9.59.85,2.55.98,6.29-7.52,5.77-10.68-.65-7.3-6.62-7.3-14.16,0-7.54-6.71-49.84-6.71-49.84" fill="none" stroke="#221a38" stroke-linecap="round" stroke-miterlimit="10" stroke-width="2"/>
      <path d="M581.13,1663.48s7.31-3.42,10.83,16.7c2.12,12.11.75,19.84-7.15,21.38-8.4,1.63-7.48-5.56-8.64-16.81-1.96-19.05,4.96-21.27,4.96-21.27Z" fill="#e293e2" stroke="#221a38" stroke-linecap="round" stroke-miterlimit="10" stroke-width="2"/>
    </g>
    <ellipse cx="491.01" cy="1760.32" rx="34.58" ry="32.44" fill="#ff0" opacity=".1"/>
    <path d="M479.16,1753.1c-.92.6.98-6.83,5.32-9.44,0,0,2.6-1.68,4.18-.33,1.57,1.36-1.25,2.87-2.28,7.7l-7.21,2.06Z" fill="#fff" stroke="#221a38" stroke-linecap="round" stroke-miterlimit="10" stroke-width="2"/>
    <path d="M586.56,827.49s-3.03,16.68-3.88,24.3c-.85,7.62,3.39,187.2,3.39,187.2l-12.71,20.33-3.39,8.47-77.81,118.69c-3.94,6.02-6.05,13.05-6.05,20.25v539.28l1.02,2.26c5.76,5.93,3.03,10.64,1.62,20.33-1.41,9.69-2.35,29.93-2.54,37.74s-.09,121.22-.09,121.22c0,0,1.69,51.67-31.34,61.84-33.04,10.16-37.27,22.87-40.66,30.49-3.39,7.62-8.47,25.41-33.88,33.88" fill="none" stroke="#ff0" stroke-linecap="round" stroke-miterlimit="10" stroke-width="4"/>
    <path d="M579.78,1789.21s.73,5.31-1.31,5.47c-2.04.16-1.88-3.27-2.08-6.45" fill="none" stroke="#221a38" stroke-linecap="round" stroke-miterlimit="10" stroke-width="2"/>
    <path d="M576.63,1793.65s-.53,2.08-2.33,1.63c-1.8-.45-1.47-6.16-1.47-6.16" fill="none" stroke="#221a38" stroke-linecap="round" stroke-miterlimit="10" stroke-width="2"/>
    <path d="M573.25,1794.51s-1.71,2.74-3.39.04" fill="none" stroke="#221a38" stroke-linecap="round" stroke-miterlimit="10" stroke-width="2"/>
    <path d="M498.56,1750.26c-.5-1.16-2.58,1.21-4.12,3.23,0-.03-.02-.07-.03-.1.61-1,1.29-2.24,1.9-3.66,1.57-3.63-.06-4.14-1.44-3.91-.64.11-2.08,1.66-3.46,3.31,0,0-.01,0-.02-.01.49-.69.92-1.34,1.2-1.84,1.03-1.9.11-4.99-3.58-2.39-1.97,1.39-3.87,2.49-5.23,3.25-2.99,1.19-5.11,4.15-5.11,7.62,0,4.52,3.6,8.19,8.05,8.19,2.19,0,4.18-.9,5.63-2.34l.02.02c2.33-2.55,7.01-9.47,6.2-11.37Z" fill="#fff" stroke="#221a38" stroke-linecap="round" stroke-miterlimit="10" stroke-width="2"/>
    <g>
      <path d="M478.33,1764.47s-2.12-7.79,2.03-15.63" fill="none" stroke="#ff0" stroke-linecap="round" stroke-miterlimit="10" stroke-width="2"/>
      <path d="M477.22,1756.88s-.54,1.28.89,1.53" fill="none" stroke="#ff0" stroke-linecap="round" stroke-miterlimit="10" stroke-width="2"/>
      <path d="M478.55,1757.71s3.74,0,5.53-1.29" fill="none" stroke="#ff0" stroke-linecap="round" stroke-miterlimit="10" stroke-width="2"/>
      <path d="M476.15,1758.03s-2.72-.94-4.48,1.69" fill="none" stroke="#ff0" stroke-linecap="round" stroke-miterlimit="10" stroke-width="2"/>
    </g>
    <path d="M494.65,1660.29s30.75-30.08,58.97,1.41c6.78,7.56,8.41,11.94,5.97,37.32,0,0-4.89,18.46-21.35,19.07-3.03.11,27.54.52,33.61,17.25,5.74,15.82-1.87,11.57-.75,23.51,1.12,11.94-4.54,33.77-7.48,48.79-4.14,21.09-6.54,33.17-6.7,45.99-.06,4.81,1.98,6.73-3.84,8.71l5.84-.04c.19.04,3.69-1.38,2.54-4.58-1.84-5.08-1.49-13.46.28-24.78,1.02-6.51,2.8-28.67,7.91-36,5.59-8.03,13.78-10.55,13.53-20.24-.21-8.07,6.5-26.56-11.49-62.54-2.42-4.84,10.19-9.83,6.47-33-3.01-18.7,7.15-14.27-5.61-29.2-10.17-11.89-28.01-14.14-42.81-13.16-23.93,1.58-35.08,21.49-35.08,21.49Z" fill="#24335b" opacity=".6"/>
    <path d="M578.84,1666.08s11.38-1.28,7.34,34.4c0,0,8.34-3.08,7.61-12.51-.73-9.43-1.9-13.96-5.53-19.85-3.63-5.89-8.58-5.17-9.43-2.04Z" fill="#24335b" opacity=".8"/>
    <path d="M526.49,1679.84s10.16-3.32,17.79,4.94,4.33,17.8,3.04,19.27c-4.16,4.73-13.41,5.58-13.41,5.58,0,0,9.92-.99,9.39-14.58-.52-13.22-7.44-11.37-16.8-15.21Z" fill="#24335b" opacity=".2"/>
    <path d="M537.99,1800.47s.71-8.82,2.96-10.45c2.26-1.62,4.94,27.88,4.09,34.59s1.34,22.38,1.34,22.38c0,0-1.27,12.07,1.2,12.92,0,0,1.27,2.12-1.91.64-3.18-1.48-2.68-7.84-2.33-12.14.35-4.31-5.36-47.93-5.36-47.93Z" fill="#24335b" opacity=".8"/>
    <path d="M586.56,827.49s-3.03,16.68-3.88,24.3c-.85,7.62,3.39,187.2,3.39,187.2l-12.71,20.33-3.39,8.47-83.86,127.91v550.3l1.02,2.26c5.76,5.93,3.03,10.64,1.62,20.33-1.41,9.69-2.35,29.93-2.54,37.74s-.09,121.22-.09,121.22c0,0,1.69,51.67-31.34,61.84-33.04,10.16-37.27,22.87-40.66,30.49-3.39,7.62-8.47,25.41-33.88,33.88" fill="none" opacity=".1" stroke="#ff0" stroke-linecap="round" stroke-miterlimit="10" stroke-width="40"/>
    <g opacity=".2">
      <circle cx="386.16" cy="139.5" r="8.64" fill="#fff"/>
      <circle cx="108.06" cy="205.73" r="8.64" fill="#fff"/>
      <circle cx="547.47" cy="224.23" r="8.64" fill="#fff"/>
      <circle cx="733.68" cy="90.49" r="8.64" fill="#fff"/>
      <circle cx="1018.41" cy="221.72" r="8.64" fill="#fff"/>
      <circle cx="1232.43" cy="384.06" r="8.64" fill="#fff"/>
      <circle cx="834.59" cy="186.87" r="8.64" fill="#fff"/>
    </g>
    <path d="M488.77,1598.64c-59.27,0-107.31,45.07-107.31,100.68s48.05,100.68,107.31,100.68,107.32-45.07,107.32-100.68-48.05-100.68-107.32-100.68ZM593.62,1698.33c-1.94,3.39-4.6,5.5-7.68,6.1-.9.18-1.69.26-2.37.26-1.26,0-2.18-.3-2.86-.93-.19-.18-.35-.37-.49-.58-.03.04-.05.09-.08.13-6.98,10.62-20.08,16.72-37.89,17.65-1.6.08-3.17.13-4.73.13-17.36,0-31.59-5.22-40.4-14.92-1.94-2.14-3.56-4.44-4.86-6.88-.6.95-1.63,1.39-3.47,1.39-.17,0-.35,0-.53-.01-2.54-.1-4.94-1.73-6.76-4.58-3.35-5.24-4.08-13.14-1.74-18.77,4.1-9.87,7.87-15.31,11.2-16.18,1.07-.28,1.79-.01,2.14.18.32.11.7.35,1.06.85,2.47-4.6,5.94-9.14,10.8-13.03,10.45-8.36,24.77-11.67,42.55-9.83.71.07,23.19,2.46,33.43,25.03.86-.25,2.09-.39,3.56.09,4.06,1.3,7.68,6.38,10.74,15.1,2.08,5.91,1.42,13.46-1.63,18.79Z" fill="#ff0" opacity=".1"/>
    <path d="M489.36,1560.53c-83.38,0-150.97,63.41-150.97,141.63s67.59,141.63,150.97,141.63,150.97-63.41,150.97-141.63-67.59-141.63-150.97-141.63ZM593.62,1696.07c-1.94,3.39-4.6,5.5-7.68,6.1-.9.18-1.69.26-2.37.26-1.26,0-2.18-.3-2.86-.93-.19-.18-.35-.37-.49-.58-.03.04-.05.09-.08.13-6.98,10.62-20.08,16.72-37.89,17.65-1.6.08-3.17.13-4.73.13-17.36,0-31.59-5.22-40.4-14.92-1.94-2.14-3.56-4.44-4.86-6.88-.6.95-1.63,1.39-3.47,1.39-.17,0-.35,0-.53-.01-2.54-.1-4.94-1.73-6.76-4.58-3.35-5.24-4.08-13.14-1.74-18.77,4.1-9.87,7.87-15.31,11.2-16.18,1.07-.28,1.79-.01,2.14.18.32.11.7.35,1.06.85,2.47-4.6,5.94-9.14,10.8-13.03,10.45-8.36,24.77-11.67,42.55-9.83.71.07,23.19,2.46,33.43,25.03.86-.25,2.09-.39,3.56.09,4.06,1.3,7.68,6.38,10.74,15.1,2.08,5.91,1.42,13.46-1.63,18.79Z" fill="#ff0" opacity=".06"/>
    <path d="M880.18,915.72s-3.2-11.09-14.81.82c-11.6,11.91-12,29.15,0,32.85,12,3.7,20.81,3.7,22.81-8.21,2-11.91-4.4-11.91-8-25.46Z" fill="#3a5084" stroke="#221a38" stroke-linecap="round" stroke-miterlimit="10" stroke-width="3.96"/>
    <path d="M861.73,941.42s-.8-20.53-9.2-22.99c-8.4-2.46-32.81,5.34-28.41,33.67,4.4,28.33,43.22,21.35,37.61-10.68Z" fill="#3a5084" stroke="#221a38" stroke-linecap="round" stroke-miterlimit="10" stroke-width="3.96"/>
    <path d="M884.85,951.7s0-9.44-4.4-20.12c-4.4-10.68-21.61-11.5-28.41,2.87-6.8,14.37-14.41,34.08-5.6,41.47,8.8,7.39,21.61,6.16,28.41,2.05,6.8-4.11,14-3.28,10-26.28Z" fill="#3a5084" stroke="#221a38" stroke-linecap="round" stroke-miterlimit="10" stroke-width="3.96"/>
    <path d="M853.21,971.75s1.6-7.39-16.01-16.42c-17.61-9.03-31.61,16.01-26.01,26.69,5.6,10.68,19.21,9.03,23.21,8.62,0,0,22.01,3.28,18.81-18.89Z" fill="#3a5084" stroke="#221a38" stroke-linecap="round" stroke-miterlimit="10" stroke-width="3.96"/>
  </g>
</svg>