<?xml version="1.0" encoding="UTF-8"?>
<svg xmlns="http://www.w3.org/2000/svg" width="2400" height="1200" viewBox="0 0 2400 1200">
  <g isolation="isolate">
    <g id="Layer_1" data-name="Layer 1">
      <rect x="-9.02" y="-7.88" width="2423.54" height="1214.39" fill="#24335b"/>
      <g mix-blend-mode="soft-light" opacity=".5">
        <circle cx="378.47" cy="701.82" r="8.64" fill="#fff"/>
        <circle cx="113.74" cy="867.85" r="6.2" transform="translate(-577.9 331.43) rotate(-44.74)" fill="#fff"/>
        <ellipse cx="557.88" cy="707.42" rx="6.63" ry="6.63" transform="translate(-323.6 521.23) rotate(-39.81)" fill="#fff"/>
        <circle cx="671.51" cy="504.33" r="6.5" transform="translate(-135.74 272.77) rotate(-20.9)" fill="#fff"/>
        <circle cx="991.75" cy="600.52" r="10.19" transform="translate(-167.48 580.95) rotate(-30.23)" fill="#fff"/>
        <circle cx="1133.02" cy="415.59" r="8.64" fill="#fff"/>
        <circle cx="803.21" cy="550.38" r="8.64" fill="#fff"/>
        <circle cx="1538.69" cy="489.72" r="7.3" transform="translate(58.07 1134.05) rotate(-41.17)" fill="#fff"/>
        <circle cx="1253.93" cy="481.28" r="8.64" fill="#fff"/>
        <circle cx="1672.61" cy="615.94" r="8.64" fill="#fff"/>
        <ellipse cx="1899.84" cy="562.16" rx="6.88" ry="6.86" transform="translate(328.69 1769.19) rotate(-54.02)" fill="#fff"/>
        <circle cx="2181.14" cy="702.02" r="6.19" transform="translate(956.27 2638.49) rotate(-75.53)" fill="#fff"/>
        <circle cx="2396.26" cy="883.23" r="8.64" fill="#fff"/>
        <circle cx="2086.03" cy="521.97" r="8.64" fill="#fff"/>
      </g>
      <path d="M1642.15,1244.98s0-146.97-111.16-200.02c-45.3-21.62-94.86-128.01-128.84-149.05-33.98-21.04-118.82-87.4-141.47-103.58s-162.73-27.11-199.95-2.84c-37.22,24.27-48.7,27.16-95.63,66-40.46,33.48-117.14,103.93-138.95,126.32-96,98.53-103.58,267.79-103.58,267.79l919.58-4.61Z" fill="#192233"/>
      <path d="M897.49,408.27s55.42,146.97,128.9,190.34c73.49,43.37,137.34,46.98,180.71,28.91,43.37-18.07,145.77-32.53,157.82-56.62,12.05-24.09,86.74-86.74,65.05-149.38-21.68-62.64-532.48-13.25-532.48-13.25Z" fill="#2f3f70"/>
      <path d="M978.1,269.07s-42.26-70.15,62.54-94.66c0,0,107.43-38.32,211.29-13.52,113.25,27.04,133.53,38.88,176.64,73.53,38.29,30.79,41.41,65.08,24.51,92.12-9.19,14.7-16.9,45.64-37.19,49.02-13.14,2.19,18.62,33.67,14.37,54.93-3.38,16.9-29.9,48.23-46.48,60.85-38.88,29.58-115.62,34.91-185.09,32.12-125.93-5.07-324.54-46.48-297.49-152.13,25.88-101.11,76.91-102.26,76.91-102.26Z" fill="#3a5084" stroke="#24335b" stroke-linecap="round" stroke-miterlimit="10" stroke-width="3.2"/>
      <path d="M1221.34,407.94l126.03-120.68s58.97-122.59-54.96-203.24c-92.29-65.33-203.69-.7-218.79,19.7-16.99,22.95-66.6,151.25-66.6,151.25l214.33,152.97Z" fill="#2f3f70" stroke="#24335b" stroke-linecap="round" stroke-miterlimit="10" stroke-width="2.93"/>
      <g>
        <path d="M1108.69,433.49s-98.38-13.28-107.15-116.51c-10-117.81,75.53-128.86,140.85-126.14,65.12,2.72,128.81,93.25,116.99,151.21-22.98,112.67-150.7,91.45-150.7,91.45Z" fill="#2f3f70" stroke="#24335b" stroke-linecap="round" stroke-miterlimit="10" stroke-width="2.6"/>
        <path d="M1114.79,424.3s-93.34-12.85-101.15-112.46c-8.86-113.06,71.93-123.64,133.57-121.03,61.46,2.6,121.69,89.41,110.57,145.17-21.72,108.87-142.99,88.31-142.99,88.31Z" fill="#2f3f70" stroke="#24335b" stroke-linecap="round" stroke-miterlimit="10" stroke-width="2.6"/>
      </g>
      <g>
        <path d="M1127.57,827.51s13.3,9.65,13.3,29.23c0,19.58,4.31,12.17-.93,29.54,0,0-1.02.01-1.34,1.24,0,0,.06,1.64-1.08,1.93-1.27.33-4.21,1.56-5.56.56-1.25-.94-.97-3.62-1.15-4.19l-8.51,40.06s.26,1.89.96,3.84c1.17,3.28,1.87,8.08-3.51,7.8-6.17-.31-6.95-.78-6.17-11,.5-6.54-5.2-33.68-5.2-33.68,0,0-2.02,8.23-3.16,11.62-1.14,3.4-3.67,18.79-3.57,21.51s.81,3.55,1.09,6.55.32,5.72-4.99,5.46-5.78-1.17-6.63-9.13-7.02-27.75-7.71-30.21.13-.43-.82-2.75c-.95-2.32-4.15-17.31-4.69-23.55-.54-6.24-1.02-14.48-1.02-14.48,0,0-1.14-1.14-1.7,1.12-.57,2.26-.56,7.91-1.75,9.64-1.85,2.69-7.42.19-8.97-.34-1.18-.4-4.25-6.27-.94-18.34,1.33-4.88,8.19-7.74,10.65-12,4.46-7.72,9.17-12.48,9.17-12.48l44.23,2.04Z" fill="#fff"/>
        <path d="M1083.73,824.96s-4.76,2.34-12.25,18.12c0,0-6.61,1.08-9.04,10.79s-.4,12.41,2.16,14.16c3.84,2.63,10.18.81,10.18-3.44s.07-7.28,1.79-7.58c0,0,1.13,25.88,4.53,34.76,3.4,8.89,7.87,31.33,9.78,36.47,1.92,5.14-1.56,9.05,5.07,9.68,2.64.25,9.37.78,5.44-8.85,0,0,2.61-20.13,4.53-24.74,1.92-4.62,3.92-18.91,3.92-18.91" fill="none" stroke="#221a38" stroke-linecap="round" stroke-miterlimit="10" stroke-width="1.43"/>
        <path d="M1075.93,793.27s2.61.48.54,13.78c-1.74,11.21.26,13.19-3.69,13.03-4.91-.2-8.02-9.56-5.45-15.74,5.59-13.45,8.61-11.07,8.61-11.07Z" fill="#e293e2" stroke="#221a38" stroke-linecap="round" stroke-miterlimit="10" stroke-width="1.43"/>
        <path d="M1115.13,777.55s17.53,1.47,24.3,19.76c6.78,18.28-1.32,35.9-28.04,37.3-26.72,1.4-39.9-13.79-37.57-29.37,2.35-15.74,14.13-30.49,41.31-27.69Z" fill="#fff" stroke="#221a38" stroke-linecap="round" stroke-miterlimit="10" stroke-width="1.43"/>
        <path d="M1091.2,792.28c2.74,1.35,3.92,6.6,3.92,6.6,0,0,.19.86.32,2.15,1.96.13,4.05.74,4,2.74-.05,1.93-1.8,2.64-4.12,2.65-.29,1.67-.69,4.57-1.91,5.71-4.33,4.05-10.01.76-11.19-8.51-.57-4.44,1.04-9.11,2.53-10.57,1.66-1.62,3.02-2.45,6.46-.76Z" fill="#fff" stroke="#221a38" stroke-linecap="round" stroke-miterlimit="10" stroke-width="1.43"/>
        <path d="M1108.57,804.01c.3-2.1,2.7-2.26,4.73-2,.1-1.23-.63-8.72,3.71-9.14s6.81,1.25,8.58,2.99,3,5.75,2.88,10.45c-.23,9.35-8.86,10.91-12.15,7.94-1.86-1.68-2.64-4.38-2.95-6.78-2.88-.26-5.12-1.23-4.8-3.46Z" fill="none" stroke="#221a38" stroke-linecap="round" stroke-miterlimit="10" stroke-width="1.43"/>
        <path d="M1104.77,806.78s9.59.77,11.76,7.7c2.17,6.93-.49,14.35-12.66,14.07s-13.08-8.48-12.39-13.09c.7-4.62,5.39-9.94,13.29-8.68Z" fill="#e293e2" stroke="#221a38" stroke-linecap="round" stroke-miterlimit="10" stroke-width="1.43"/>
        <path d="M1103.74,811s-4.16-.49-4.28,2.44c-.13,2.94,4.68,2.07,4.68,2.07" fill="none" stroke="#221a38" stroke-linecap="round" stroke-miterlimit="10" stroke-width="1.43"/>
        <path d="M1106.64,821.67s-3.32-.64-6.01.08" fill="none" stroke="#221a38" stroke-linecap="round" stroke-linejoin="round" stroke-width="1.43"/>
        <path d="M1119.4,800.34s2.71-.08,3.03,3.59c.26,2.95-1.52,5.51-3.27,5.27-1.76-.24-2.16-3.11-1.92-4.31.24-1.2,0-4.71,2.16-4.55Z" fill="#e293e2" stroke="#221a38" stroke-linecap="round" stroke-miterlimit="10" stroke-width="1.43"/>
        <path d="M1087.29,798.92s3.26-1.49,3.94,2.45-.09,6.13-1.8,6.22c-1.71.09-2.91-1.75-3.08-3.77-.17-2.02.09-4.73.94-4.91Z" fill="#e293e2" stroke="#221a38" stroke-linecap="round" stroke-miterlimit="10" stroke-width="1.43"/>
        <path d="M1141.75,877.14s-.46,9.82-1.71,10.37c-1.25.55-1.83-.74-1.73-1.97s-.42-3.67-.42-3.67l3.86-4.73Z" fill="#fff"/>
        <path d="M1130.22,829.79c3.58,4.78,11.96,17.82,11.83,36.54-.14,21.21-1.61,21.62-3.01,21.29-.94-.22-.74-2.64-.6-3.75.04-.33-.13-.65-.43-.8l-1.32-.66" fill="none" stroke="#221a38" stroke-linecap="round" stroke-miterlimit="10" stroke-width="1.43"/>
        <path d="M1131.38,843.94s4.36,4.1,2.44,9.5c-1.92,5.4-3.4,4.97-.78,9.93,2.61,4.97-1.22,17.34-1.92,24.74-.7,7.41-7.82,36.71-8.07,38.49-.62,4.29.56,5.04,1.17,6.87.61,1.83.7,4.51-5.38,4.14-7.65-.47-5.23-4.74-5.23-10.15,0-5.4-4.81-35.71-4.81-35.71" fill="none" stroke="#221a38" stroke-linecap="round" stroke-miterlimit="10" stroke-width="1.43"/>
        <path d="M1139.96,795.49s5.24-2.45,7.76,11.97c1.52,8.68.54,14.22-5.13,15.32-6.02,1.17-5.36-3.98-6.19-12.05-1.4-13.65,3.55-15.24,3.55-15.24Z" fill="#e293e2" stroke="#221a38" stroke-linecap="round" stroke-miterlimit="10" stroke-width="1.43"/>
      </g>
      <ellipse cx="1075.39" cy="864.86" rx="24.77" ry="23.24" fill="#ff0" opacity=".1"/>
      <path d="M1066.9,859.69c-.66.43.7-4.9,3.81-6.76,0,0,1.87-1.2,2.99-.23s-.89,2.06-1.63,5.52l-5.17,1.48Z" fill="#fff" stroke="#221a38" stroke-linecap="round" stroke-miterlimit="10" stroke-width="1.43"/>
      <path d="M1124.35,309.78s-1.62,8.9-2.07,12.96c-.45,4.07,1.81,99.84,1.81,99.84l-6.78,10.84-1.81,4.52-41.5,63.3c-2.1,3.21-3.22,6.96-3.22,10.8v287.62l.21,2.07c-.23,5.91-.1,5.25.2,10.2.32,5.21-.27,15.74-.37,19.91s-.05,64.65-.05,64.65c0,0,.9,27.56-16.72,32.98-17.62,5.42-19.88,12.2-21.68,16.26s-4.52,13.55-18.07,18.07c0,0-58.55,29.38-70.55,42.01s-56.21,42.32-71.37,64.42-16.42,34.11-44.21,48-84.63,36.63-94.11,56.84-9.47,24-12.63,44.84" fill="none" stroke="#ff0" stroke-linecap="round" stroke-miterlimit="10" stroke-width="2.13"/>
      <path d="M1138.99,885.56s.53,3.8-.94,3.92c-1.46.12-1.35-2.34-1.49-4.62" fill="none" stroke="#221a38" stroke-linecap="round" stroke-miterlimit="10" stroke-width="1.43"/>
      <path d="M1136.74,888.75s-.38,1.49-1.67,1.17-1.05-4.42-1.05-4.42" fill="none" stroke="#221a38" stroke-linecap="round" stroke-miterlimit="10" stroke-width="1.43"/>
      <path d="M1134.31,889.36s-1.23,1.96-2.43.03" fill="none" stroke="#221a38" stroke-linecap="round" stroke-miterlimit="10" stroke-width="1.43"/>
      <path d="M1080.8,857.66c-.36-.83-1.85.87-2.95,2.31,0-.02-.01-.05-.02-.07.43-.72.92-1.61,1.36-2.62,1.13-2.6-.04-2.97-1.03-2.8-.46.08-1.49,1.19-2.48,2.37,0,0,0,0-.01,0,.35-.49.66-.96.86-1.32.74-1.36.08-3.58-2.56-1.71-1.41.99-2.77,1.78-3.75,2.33-2.14.86-3.66,2.97-3.66,5.46,0,3.24,2.58,5.87,5.77,5.87,1.57,0,2.99-.64,4.03-1.68h.01c1.67-1.81,5.03-6.77,4.44-8.13Z" fill="#fff" stroke="#221a38" stroke-linecap="round" stroke-miterlimit="10" stroke-width="1.43"/>
      <g>
        <path d="M1066.31,867.84s-1.52-5.58,1.46-11.2" fill="none" stroke="#ff0" stroke-linecap="round" stroke-miterlimit="10" stroke-width="1.43"/>
        <path d="M1065.51,862.4s-.39.92.64,1.09" fill="none" stroke="#ff0" stroke-linecap="round" stroke-miterlimit="10" stroke-width="1.43"/>
        <path d="M1066.47,863s2.68,0,3.96-.93" fill="none" stroke="#ff0" stroke-linecap="round" stroke-miterlimit="10" stroke-width="1.43"/>
        <path d="M1064.74,863.23s-1.95-.68-3.21,1.21" fill="none" stroke="#ff0" stroke-linecap="round" stroke-miterlimit="10" stroke-width="1.43"/>
      </g>
      <path d="M1078,793.2s22.03-21.55,42.25,1.01c4.86,5.42,6.03,8.56,4.28,26.74,0,0-3.5,13.22-15.3,13.66-2.17.08,19.73.38,24.08,12.36,4.11,11.33-1.34,8.29-.53,16.84.8,8.55-3.25,24.19-5.36,34.95-2.96,15.11-4.68,23.76-4.8,32.95-.04,3.45,1.42,4.82-2.75,6.24l4.18-.03c.14.03,2.65-.99,1.82-3.28-1.31-3.64-1.07-9.64.2-17.75.73-4.66,2.01-20.54,5.66-25.79,4.01-5.75,9.87-7.56,9.69-14.5-.15-5.78,4.66-19.03-8.23-44.81-1.73-3.47,7.3-7.05,4.64-23.64-2.15-13.4,5.12-10.22-4.02-20.92-7.28-8.52-20.07-10.13-30.67-9.43-17.14,1.13-25.13,15.39-25.13,15.39Z" fill="#24335b" opacity=".6"/>
      <path d="M1138.31,797.35s8.15-.92,5.26,24.65c0,0,5.97-2.21,5.46-8.96-.52-6.75-1.36-10-3.96-14.22-2.6-4.22-6.14-3.7-6.75-1.46Z" fill="#24335b" opacity=".8"/>
      <path d="M1100.81,807.21s7.28-2.38,12.74,3.54c5.46,5.92,3.1,12.75,2.17,13.81-2.98,3.39-9.61,4-9.61,4,0,0,7.11-.71,6.73-10.44-.37-9.47-5.33-8.14-12.04-10.9Z" fill="#24335b" opacity=".2"/>
      <path d="M1109.05,893.64s.51-6.32,2.12-7.48c1.62-1.16,3.54,19.98,2.93,24.78s.96,16.03.96,16.03c0,0-.91,8.65.86,9.25,0,0,.91,1.52-1.37.46-2.28-1.06-1.92-5.61-1.67-8.7.25-3.08-3.84-34.34-3.84-34.34Z" fill="#24335b" opacity=".8"/>
      <path d="M1124.35,309.78s-1.62,8.9-2.07,12.96c-.45,4.07,1.81,99.84,1.81,99.84l-6.78,10.84-1.81,4.52-44.72,68.22v293.5l.05,3.39c.26,5.62-.37,5.16,0,8.92.52,5.2.1,15.7,0,19.87s-.05,64.65-.05,64.65c0,0,.9,27.56-16.72,32.98-17.62,5.42-19.88,12.2-21.68,16.26s-4.52,13.55-18.07,18.07c0,0-57.29,28.75-71.81,39.49s-72.63,60.63-74.53,72.63-33.47,44.84-72.63,60.63-68.21,32.84-72.63,73.89" fill="none" opacity=".1" stroke="#ff0" stroke-linecap="round" stroke-miterlimit="10" stroke-width="21.33"/>
      <path d="M1073.79,749.03c-42.46,0-76.89,32.29-76.89,72.13s34.42,72.13,76.89,72.13,76.89-32.29,76.89-72.13-34.42-72.13-76.89-72.13ZM1148.91,820.46c-1.39,2.43-3.29,3.94-5.5,4.37-.65.13-1.21.19-1.7.19-.91,0-1.56-.22-2.05-.66-.14-.13-.25-.27-.35-.42-.02.03-.04.06-.06.09-5,7.61-14.39,11.98-27.14,12.65-1.15.06-2.27.09-3.39.09-12.44,0-22.63-3.74-28.94-10.69-1.39-1.53-2.55-3.18-3.48-4.93-.43.68-1.17,1-2.49,1-.12,0-.25,0-.38,0-1.82-.07-3.54-1.24-4.84-3.28-2.4-3.76-2.92-9.41-1.25-13.45,2.94-7.07,5.64-10.97,8.03-11.59.76-.2,1.28,0,1.53.13.23.08.5.25.76.61,1.77-3.3,4.26-6.55,7.74-9.34,7.49-5.99,17.75-8.36,30.48-7.05.51.05,16.61,1.76,23.95,17.94.62-.18,1.49-.28,2.55.06,2.91.93,5.5,4.57,7.7,10.82,1.49,4.23,1.02,9.64-1.17,13.46Z" fill="#ff0" opacity=".1"/>
      <path d="M1074.21,721.73c-59.74,0-108.16,45.43-108.16,101.47s48.43,101.47,108.16,101.47,108.16-45.43,108.16-101.47-48.43-101.47-108.16-101.47ZM1148.91,818.84c-1.39,2.43-3.29,3.94-5.5,4.37-.65.13-1.21.19-1.7.19-.91,0-1.56-.22-2.05-.66-.14-.13-.25-.27-.35-.42-.02.03-.04.06-.06.09-5,7.61-14.39,11.98-27.14,12.65-1.15.06-2.27.09-3.39.09-12.44,0-22.63-3.74-28.94-10.69-1.39-1.53-2.55-3.18-3.48-4.93-.43.68-1.17,1-2.49,1-.12,0-.25,0-.38,0-1.82-.07-3.54-1.24-4.84-3.28-2.4-3.76-2.92-9.41-1.25-13.45,2.94-7.07,5.64-10.97,8.03-11.59.76-.2,1.28,0,1.53.13.23.08.5.25.76.61,1.77-3.3,4.26-6.55,7.74-9.34,7.49-5.99,17.75-8.36,30.48-7.05.51.05,16.61,1.76,23.95,17.94.62-.18,1.49-.28,2.55.06,2.91.93,5.5,4.57,7.7,10.82,1.49,4.23,1.02,9.64-1.17,13.46Z" fill="#ff0" opacity=".06"/>
      <path d="M1280.95,356.83s-1.71-5.91-7.9.44c-6.19,6.35-6.4,15.55,0,17.52,6.4,1.97,11.1,1.97,12.16-4.38,1.07-6.35-2.35-6.35-4.27-13.58Z" fill="#3a5084" stroke="#221a38" stroke-linecap="round" stroke-miterlimit="10" stroke-width="2.11"/>
      <path d="M1271.11,370.54s-.43-10.95-4.91-12.26c-4.48-1.31-17.5,2.85-15.15,17.96,2.35,15.11,23.05,11.39,20.06-5.69Z" fill="#3a5084" stroke="#221a38" stroke-linecap="round" stroke-miterlimit="10" stroke-width="2.11"/>
      <path d="M1283.44,376.02s0-5.04-2.35-10.73c-2.35-5.69-11.52-6.13-15.15,1.53-3.63,7.66-7.68,18.18-2.99,22.12,4.69,3.94,11.52,3.28,15.15,1.09,3.63-2.19,7.47-1.75,5.34-14.02Z" fill="#3a5084" stroke="#221a38" stroke-linecap="round" stroke-miterlimit="10" stroke-width="2.11"/>
      <path d="M1266.56,386.71s.85-3.94-8.54-8.76c-9.39-4.82-16.86,8.54-13.87,14.23,2.99,5.69,10.24,4.82,12.38,4.6,0,0,11.74,1.75,10.03-10.07Z" fill="#3a5084" stroke="#221a38" stroke-linecap="round" stroke-miterlimit="10" stroke-width="2.11"/>
    </g>
  </g>
</svg>