<?xml version="1.0" encoding="UTF-8"?>
<svg id="Layer_1" data-name="Layer 1" xmlns="http://www.w3.org/2000/svg" width="800" height="600" xmlns:xlink="http://www.w3.org/1999/xlink" viewBox="0 0 800 600">
  <defs>
    <clipPath id="clippath">
      <path d="M762.74,218.12c-23.14-52.45-68.59-88.77-122.28-104.19-30.31-69.72-131.37-98.41-230.98-63.95-5.6,1.94-11.06,4.04-16.41,6.28-31.15-10.4-66.55-11.73-101.65-1.75-14.49,4.12-28.01,9.92-40.37,17.07-21.84,1.14-44.3,6.39-66.04,16.16-68.84,30.92-108.62,97.18-100.71,159.2-29.32,36.58-40.87,82.12-26.94,124.38,15.7,47.65,59.93,79.38,113.36,87.69,22.33,34.22,57.15,61.78,103.33,75.37,51.74,15.23,108.08,10.08,155.13-9.74,25.25,12.42,57.5,15.46,89.65,6.07,20.03-5.85,37.49-15.79,51.34-28.26,25.39-1.87,51.14-8.1,76.1-19.11,107.94-47.62,160.09-166.36,116.48-265.22Z" fill="none"/>
    </clipPath>
  </defs>
  <rect x="-9.23" y="-6.59" width="825.14" height="616.57" fill="#2b3751"/>
  <g>
    <ellipse cx="218.07" cy="318.35" rx="169.23" ry="139.63" transform="translate(-88.71 84.28) rotate(-18.25)" fill="#ff911a"/>
    <ellipse cx="242.03" cy="214.7" rx="162.35" ry="139.18" transform="translate(-66.72 118.02) rotate(-24.19)" fill="#ff911a"/>
    <ellipse cx="331.89" cy="196.77" rx="162.35" ry="147.91" transform="translate(-41.15 98.21) rotate(-15.86)" fill="#ff911a"/>
    <path d="M530,422.37c-26.39,89.66-150.72,142.98-255.97,112-105.25-30.98-151.57-134.52-125.18-224.18,26.39-89.66,133.1-137.24,238.36-106.26,105.25,30.98,169.19,128.78,142.8,218.44Z" fill="#ff911a"/>
    <ellipse cx="567.3" cy="304.33" rx="213.61" ry="195.64" transform="translate(-74.58 254.93) rotate(-23.81)" fill="#ff911a"/>
    <ellipse cx="456.62" cy="186.23" rx="197.7" ry="144.18" transform="translate(-35.79 159.52) rotate(-19.08)" fill="#ff911a"/>
    <ellipse cx="492.66" cy="441.16" rx="113.38" ry="93.29" transform="translate(-103.89 155.74) rotate(-16.27)" fill="#ff911a"/>
  </g>
  <g clip-path="url(#clippath)">
    <g>
      <path d="M330.35,446.93s21.16-3.77,48.95-.8" fill="none" stroke="#000" stroke-linecap="round" stroke-miterlimit="10" stroke-width="3.54"/>
      <g>
        <path d="M812.9,472.91c-30.8-.64-399.99-8.29-432.77-9.12.36-2.37.65-6.36.99-13.09.43-8.41.87-20.46,1.29-35.81l1.57-75.36c.18-11.16.3-19.57.35-23.06l412.44,3.89,16.13,152.56Z" fill="#ff911a"/>
        <path d="M386.08,318.26l73,.69,123.81,1.17,212.28,2,15.75,148.99c-41.36-.86-386.32-8.01-428.77-9.03.29-2.7.48-6.36.73-11.27.43-8.43.87-20.49,1.29-35.88l1.57-75.37c.15-9.54.26-17.13.32-21.3M382.58,314.68s-.13,9.98-.37,24.82l-1.57,75.35c-.77,27.86-1.73,50.65-2.82,50.65-8.67,0,437.05,9.23,437.05,9.23l-16.51-156.13-215.44-2.03-123.81-1.17-76.53-.72h0Z"/>
      </g>
      <path d="M458.69,400.86c4.48-3.64,14.74-8.95,14.74-8.95l39.36,15.3,100.35-131.51-55.21,8.21-22.57-51.48-58.2,69.39s-10.26,3.36-17.35,12.13c-7.09,8.77-12.12,17.35-12.12,17.35,0,0-27.98,10.07-33.2,12.13-5.22,2.05-12.12,5.41-27.61-1.12-15.48-6.53-43.28-30.78-43.28-30.78l-18.28-19.77s56.33,3.54,78.72-52.04c22.38-55.59-26.12-121.99-26.12-121.99,0,0-39.82-36.25-110.19-16.82,0,0-25.32,7.58-39.03,16.26-13.71,8.67-36.93,34.14-34.7,74.99,2.24,40.85,10.16,53.9,25.83,69.85,0,0-30.46,50.08-58.84,118.74-20.38,49.29-10.91,95.13,4.2,106.88,15.11,11.75,17.63,17.63,32.74,21.54,15.11,3.92,69.67,11.75,99.05,10.63,29.38-1.12,54.56-2.52,65.47-5.04,10.91-2.52,29.1-4.76,33.02-1.68,3.92,3.08,10.07,3.36,9.51,13.71-.56,10.35-6.16,47.01-11.19,58.48-5.04,11.47-6.16,28.26-1.12,32.18,5.04,3.92,6.71,11.19,27.7,12.59,20.99,1.4,43.09-1.96,46.45-7.56,3.36-5.59,7.28-13.15-7.83-21.82l-13.43-3.36s36.52-66.44,37.68-108.61l-103.35-1.54s-3.16-6.25-1.74-20.55c1.41-14.2,1.74-19.78,1.74-19.78,0,0-18.83-2.28-22.46-1.72,0,0,1.12-30.78-7.28-38.05,0,0,44.77,11.47,57.36,11.47s46.73-13.99,51.2-17.63ZM450.95,365.48l4.41,6.39s-6.22,10.23-36.66,6.02c0,0,23.14-6.2,32.26-12.41Z" fill="#ff911a"/>
      <path d="M349.58,407.2c4.25,6.71,9.92,19.17,7.61,37.65" fill="none" stroke="#000" stroke-linecap="round" stroke-miterlimit="10" stroke-width="3.54"/>
      <path d="M244.61,109.13c-4.8,2.11-55.14,14.08-50.45,95.03,4.69,80.95,90.34,90.34,140.79,86.82,50.45-3.52,111.46-58.66,44.58-172.46,0,0-57.49-43.41-134.92-9.39Z" fill="none" stroke="#000" stroke-linecap="round" stroke-miterlimit="10" stroke-width="3.54"/>
      <path d="M366.35,186.38s10.54-23.6-9.54-29.63c-20.09-6.03-39.17,49.72-19.59,57.25,13.45,5.17,20.51-2.68,24.74-12.99,9.9,3.19,16.23,1.43,17.04-4.95.64-5.04-7.74-8.25-12.66-9.69Z" fill="none" stroke="#000" stroke-linecap="round" stroke-linejoin="round" stroke-width="3.54"/>
      <ellipse cx="353.83" cy="190.89" rx="11.93" ry="5.09" transform="translate(77.25 482.67) rotate(-74.88)"/>
      <path d="M388.21,218.64s12.2,2.93,11.87,8.94c-.33,6.02-8.62,9.59-16.59,4.72" fill="none" stroke="#000" stroke-linecap="round" stroke-miterlimit="10" stroke-width="3.54"/>
      <path d="M388.7,252.14s-8.13.98-20.98-2.76c-12.85-3.74,12.03,15.61,20.98,2.76Z"/>
      <path d="M220.3,260.96s-63.51,105.2-70.99,166.46c-3.78,31.01,5.48,76.2,67.89,85.69,62.96,9.57,116.87,7.77,153.02.56,36.16-7.21,38.95,6.68,31.72,41.18-7.23,34.5-27.27,66.77,8.9,73.45,36.17,6.68,76.79-2.23,51.19-26.15,0,0-5.56-3.34-16.69-5.01,0,0,39.76-74.43,37.95-104.88" fill="none" stroke="#000" stroke-linecap="round" stroke-miterlimit="10" stroke-width="3.54"/>
      <path d="M305.11,344.51s68.44,34.5,99.05,34.5,45.07,2.23,54.53-11.69c9.46-13.91,19.87-25.86,29.94-21.24" fill="none" stroke="#000" stroke-linecap="round" stroke-miterlimit="10" stroke-width="3.54"/>
      <path d="M485.48,347.7s17.07-8.04,22.94-9.23c5.88-1.19,19.66-2.66,21.68-.56,2.03,2.1.91,5.88-6.72,6.65-7.62.77-17.42,3.92-17.42,3.92,0,0,14.13-5.32,17.21-1.12s-1.54,7.62-11.75,9.09c0,0,14.76-5.67,13.29,1.26-1.47,6.93-12.59,7.9-12.59,7.9,0,0,14.63-6.77,15.95-3.17,3.08,8.42-52.18,27.23-52.18,27.23,0,0-47.36,31.69-75.34,27.7-27.98-3.99-63.16-9.37-109.19-33.86" fill="none" stroke="#000" stroke-linecap="round" stroke-linejoin="round" stroke-width="3.54"/>
      <path d="M324.94,292.02s12.59,14.27,21.82,22.66c9.04,8.21,29.47,22.94,37.31,26.3s19.77,7.27,31.34,2.61c11.57-4.66,30.22-8.95,31.9-12.68,1.68-3.73,18.65-26.67,28.54-28.17,9.89-1.49,12.36,2.53,11.1,5.32-.93,2.05-5.32,5.97-13.71,6.34,0,0-4.29,8.49-12.78,12.59l-20.43,22.76,15.11,21.45" fill="none" stroke="#000" stroke-linecap="round" stroke-linejoin="round" stroke-width="3.54"/>
      <path d="M475.85,302.74s52.23-62.49,59.32-70.51l21.64,52.42s44.39-5.22,56.71-9.33l-100.35,131.88-40.29-14.36" fill="none" stroke="#000" stroke-linecap="round" stroke-linejoin="round" stroke-width="3.54"/>
      <line x1="551.21" y1="291.55" x2="517.07" y2="336.13" fill="none" stroke="#000" stroke-linecap="round" stroke-linejoin="round" stroke-width="3.54"/>
      <path d="M450.85,365.88s-20.98,11.47-38.61,13.15" fill="none" stroke="#000" stroke-linecap="round" stroke-linejoin="round" stroke-width="3.54"/>
      <path d="M384.26,136.45s-62.68-59.32-147.17-16.51c0,0-6.16-16.23,5.32-28.82,11.47-12.59,123.11-30.5,146.62,31.62l-5.32,15.67"/>
      <g>
        <path d="M811.02,494.86c-28.6-.64-411.7-9.2-429.28-9.2-.31,0-.52,0-.63,0h-.02c-.14,0-.29-.01-.53-.29-2.16-2.51-1.7-13.47-.64-21.32l433.02,9.72-1.92,21.08Z" fill="#ff911a"/>
        <path d="M381.47,465.86l429.53,9.64-1.6,17.55c-39.18-.88-410.35-9.17-427.67-9.17h-.05c-1.1-2.18-1.18-10.01-.22-18.02M378.38,462.25s-3.87,25.18,2.69,25.18c.04,0,.07,0,.11,0,.1,0,.28,0,.55,0,18.36,0,430.9,9.24,430.9,9.24l2.24-24.62-436.49-9.79h0Z"/>
      </g>
    </g>
  </g>
  <g>
    <rect x="402.03" y="302.03" width="335.48" height="49.86" rx="24.93" ry="24.93" fill="#fff"/>
    <path d="M610.29,350.51s10.68,22.6,18.93,27.85l-1.39-35.61-17.54,7.77Z" fill="#fff"/>
  </g>
  <text transform="translate(416.11 335.12)" font-family="ChalkboardSE-Bold, &apos;Chalkboard SE&apos;" font-size="24" font-weight="700"><tspan x="0" y="0">It </tspan><tspan x="32.62" y="0" letter-spacing="-.02em">f</tspan><tspan x="42.96" y="0" letter-spacing="0em">e</tspan><tspan x="56.11" y="0" letter-spacing="-.1em">l</tspan><tspan x="61.34" y="0">t </tspan><tspan x="82.79" y="0" letter-spacing="-.04em">l</tspan><tspan x="89.48" y="0" letter-spacing="0em">i</tspan><tspan x="96" y="0" letter-spacing="-.04em">k</tspan><tspan x="108.3" y="0" letter-spacing="0em">e a job i</tspan><tspan x="207.22" y="0" letter-spacing="-.04em">n</tspan><tspan x="219.1" y="0" letter-spacing="-.05em">t</tspan><tspan x="229.42" y="0" letter-spacing=".02em">e</tspan><tspan x="243.1" y="0" letter-spacing=".07em">r</tspan><tspan x="255.72" y="0">vie</tspan><tspan x="287.09" y="0" letter-spacing="-.05em">w</tspan><tspan x="303.64" y="0" letter-spacing="-.05em">.</tspan></text>
  <g>
    <path d="M218.98,452.65s-13.72-1.37-16.66,32.92c-2.94,34.29,12.4,38.4,25.76,37.27,15.1-1.28,20.72-21.6,17.32-38.37-6.26-30.87-26.41-31.82-26.41-31.82Z" fill="#e293e2" stroke="#221a38" stroke-linecap="round" stroke-miterlimit="10" stroke-width="3.04"/>
    <path d="M113.43,419.15s-43.42,11.83-52,60.98c-8.58,49.15,22.33,92.06,90.21,83.21,67.88-8.85,91.65-55.52,78.57-93.65-13.21-38.51-49.68-70.18-116.78-50.54Z" fill="#fff" stroke="#221a38" stroke-linecap="round" stroke-miterlimit="10" stroke-width="2.01"/>
    <path d="M198.85,452.7c-14.88-.94-19.83,16.7-19.83,16.7,0,0-.68,2.14-1.31,5.39-5.02-.12-10.5.93-10.83,6.05-.32,4.94,3.97,7.14,9.87,7.73.35,4.33,1.49,8.64,4.05,12.06,6.79,9.07,29.33,8.6,32.8-15.07,3.04-20.77-2.27-32.06-14.75-32.85Z" fill="#fff" stroke="#221a38" stroke-linecap="round" stroke-miterlimit="10" stroke-width="2.42"/>
    <path d="M152.12,493.88s-25.69,5.93-28.8,25.59c-3.1,19.66,7.23,39.73,40.15,34.09,32.91-5.64,31.94-29.24,28.19-41.48-3.75-12.25-18.6-24.79-39.54-18.2Z" fill="#e293e2" stroke="#221a38" stroke-linecap="round" stroke-miterlimit="10" stroke-width="3.04"/>
    <path d="M154.39,503.13s12.78-5.38,14.45,3.29c1.67,8.67-10.72,10.12-10.72,10.12" fill="none" stroke="#221a38" stroke-linecap="round" stroke-miterlimit="10" stroke-width="3.43"/>
    <path d="M66.24,453.4s-16.63-8.56-31.88,31.39c-7.36,19.26-2.23,43.99,14.54,47.68,17.83,3.92,23.6-6.87,28.8-32.85,7.68-38.37-11.46-46.21-11.46-46.21Z" fill="#e293e2" stroke="#221a38" stroke-linecap="round" stroke-miterlimit="10" stroke-width="3.04"/>
    <g>
      <path d="M139.82,485.67c-.27-5.42-6.36-6.38-11.59-6.21.03-3.16-1.38-21.18-12.47-22.91-13.09-2.05-25.59,6.42-27.19,30.29-1.6,23.87,20.02,29.88,29.09,23.1,5.13-3.84,7.76-10.54,9.11-16.58,7.4.02,13.33-1.93,13.04-7.69Z" fill="none" stroke="#221a38" stroke-linecap="round" stroke-miterlimit="10" stroke-width="2.42"/>
      <path d="M115.26,460.81s-5.05-3.59-9.18,6.7c-4.13,10.29.44,18.37,5.25,20.01,7.63,2.59,10.59-8.24,10.15-16.17-.61-11.18-6.22-10.54-6.22-10.54Z" fill="#e293e2" stroke="#221a38" stroke-linecap="round" stroke-miterlimit="10" stroke-width="3.04"/>
    </g>
    <path d="M203.42,457.54c-1.39-.12-6.26,1.08-7.66,11.86-1.89,14.49,8.43,13.81,10.62,9.2,2.08-4.37,6.46-20.25-2.96-21.07Z" fill="#e293e2" stroke="#221a38" stroke-linecap="round" stroke-miterlimit="10" stroke-width="3.04"/>
    <path d="M167.8,525.11s-8.36,3.14-16.54,2.79c0,0-.48,6.13,7.67,5.09,8.15-1.03,8.94-3.92,8.87-7.89Z"/>
  </g>
  <g>
    <path d="M691.12,372.11c-8.34,1.39-20.8,2.61-23.22,33.27-1.81,22.93-2.12,32.07-2.12,32.07,0,0-17.26,118.17-16.62,118.95.64.78,16.73.69,16.73.69l55.21-181.74s-16.6-5.47-29.98-3.24Z" fill="#f7bc00" stroke="#000" stroke-linecap="round" stroke-linejoin="round" stroke-width="4.2"/>
    <path d="M689.2,373.13l-5.36,30.21,13.42,2.46,8.11-33.03s-11.37-1.99-16.17.36Z"/>
    <polygon points="681.85 411.46 700.03 413.16 661.2 557.57 653.63 558.17 681.85 411.46" fill="#ddd"/>
    <circle cx="689.91" cy="406.94" r="17.1" transform="translate(-85.68 607.03) rotate(-45)"/>
    <polygon points="691.15 399.07 684.2 401.87 683.14 409.28 689.04 413.9 695.98 411.11 697.04 403.69 691.15 399.07" fill="#fff"/>
    <path d="M680.87,417.49s-27.55,139.59-27.12,139.14" fill="none" stroke="#000" stroke-linecap="round" stroke-miterlimit="10" stroke-width="1.87"/>
    <path d="M697.88,418.7s-37.22,138.26-36.7,137.99" fill="none" stroke="#000" stroke-linecap="round" stroke-miterlimit="10" stroke-width="1.87"/>
    <line x1="667.83" y1="485.09" x2="677.39" y2="493.32" fill="none" stroke="#000" stroke-linecap="round" stroke-miterlimit="10" stroke-width="1.87"/>
    <line x1="662.8" y1="510.27" x2="670.89" y2="517.28" fill="none" stroke="#000" stroke-linecap="round" stroke-miterlimit="10" stroke-width="1.87"/>
    <line x1="657.95" y1="535.61" x2="664.87" y2="541.69" fill="none" stroke="#000" stroke-linecap="round" stroke-miterlimit="10" stroke-width="1.87"/>
    <line x1="671.85" y1="461.89" x2="683.26" y2="472.61" fill="none" stroke="#221a38" stroke-linecap="round" stroke-miterlimit="10" stroke-width="1.87"/>
    <line x1="677.37" y1="434.97" x2="689.84" y2="446.54" fill="none" stroke="#000" stroke-linecap="round" stroke-miterlimit="10" stroke-width="1.87"/>
  </g>
</svg>