<?xml version="1.0" encoding="UTF-8"?>
<svg id="Layer_1" data-name="Layer 1" xmlns="http://www.w3.org/2000/svg" width="800" height="600" viewBox="0 0 800 600">
  <rect x="-6.44" y="-4.33" width="815.37" height="609.04" fill="#2b3751"/>
  <g>
    <path d="M358.64,286.85c-38.58,78.12,12.5,179.6,114.08,226.66,101.58,47.06,215.2,21.87,253.78-56.25,38.58-78.12-12.5-179.6-114.08-226.66-101.58-47.06-215.2-21.87-253.78,56.25Z" fill="#ff911a"/>
    <path d="M460.02,163.04c-31.07,76.77,14.66,163.67,102.14,194.08,87.49,30.42,183.6-7.16,214.67-83.93,31.07-76.77-14.66-163.67-102.14-194.08-87.49-30.42-183.6,7.16-214.67,83.93Z" fill="#ff911a"/>
    <path d="M283.64,134.11c-21.37,74.45,49.22,154.85,157.65,179.58,108.43,24.73,213.66-15.57,235.02-90.01,21.37-74.45-49.22-154.85-157.65-179.58-108.43-24.73-213.66,15.57-235.02,90.01Z" fill="#ff911a"/>
    <path d="M313.79,483.44c41.88,76.79,172.87,99.15,270.07,48.08,97.2-51.07,123.81-156.23,81.93-233.03-41.88-76.79-154.63-97.64-251.83-46.57-97.2,51.07-142.04,154.73-100.16,231.52Z" fill="#ff911a"/>
    <path d="M25.07,412.86c9.08,83.92,90.16,135.98,181.1,116.29,90.94-19.69,157.3-103.69,148.22-187.6-9.08-83.92-90.16-135.98-181.1-116.29C82.35,244.95,15.99,328.95,25.07,412.86Z" fill="#ff911a"/>
    <path d="M18.67,270.79c-2.62,89.85,88.8,156.94,204.19,149.86,115.38-7.08,211.04-85.65,213.66-175.5,2.62-89.85-88.8-156.94-204.19-149.86-115.38,7.08-211.04,85.65-213.66,175.5Z" fill="#ff911a"/>
    <path d="M72.25,93.39c-45.87,50.95-34.35,133.6,25.74,184.61,60.09,51,145.99,51.05,191.86.09,45.87-50.95,34.35-133.6-25.74-184.61-60.09-51-145.99-51.05-191.86-.09Z" fill="#ff911a"/>
    <path d="M142.99,175.12c-6.41,74.06,73.94,135.76,179.47,137.82,105.53,2.05,196.27-56.32,202.67-130.38,6.41-74.06-73.94-135.76-179.47-137.82-105.53-2.05-196.27,56.32-202.67,130.38Z" fill="#ff911a"/>
    <path d="M667.97,167.52c-69.66-8.5-129.27,64.85-133.13,163.83-3.86,98.98,49.48,186.1,119.14,194.6,69.66,8.5,129.27-64.85,133.13-163.83,3.86-98.98-49.48-186.1-119.14-194.6Z" fill="#ff911a"/>
    <path d="M152.46,447c-5.85,48.53,60.7,92.3,148.66,97.75,87.95,5.45,164-29.47,169.85-78,5.85-48.53-60.7-92.3-148.66-97.75s-164,29.47-169.85,78Z" fill="#ff911a"/>
  </g>
  <g>
    <path d="M438.05,339.22c35.7-5.12,71.2-30,81.15-70.88,14.9-61.27,14.14-110.57-95.16-135.41,0,0-77.83-9.94-102.67,61.27-24.84,71.21,19.87,114.26,66.24,137.45,11.39,5.69,24.22,8.47,37.33,8.51" fill="none" stroke="#000" stroke-linecap="round" stroke-miterlimit="10" stroke-width="3.01"/>
    <path d="M398.09,130.87s28.64,17.18,38.05,40.1c0,0,44.19,2.45,64.24,11.46,0,0-3.27-27.82-15.14-40.1-11.87-12.27-65.46-27.41-87.15-11.46Z"/>
    <path d="M449.59,233.7c-1.19-.44-3.51-1.04-5.51-1.54.71-3.08,2.95-22.74-10.26-25.06-19.37-3.4-27.23,15.82-27.96,24.01-.73,8.19,4.09,24.14,17.18,26.19,5.31.83,15.1-2.93,18.82-14.73,2.13.37,4.54.72,6.1.73,3.37.01,4.82-.98,5.57-3.78.75-2.81-1.59-4.94-3.95-5.81Z" fill="none" stroke="#000" stroke-linecap="round" stroke-linejoin="round" stroke-width="2.93"/>
    <path d="M511.69,227.46c-1.58-3.88-15.7-18.17-25.88,2.01,0,0-.7,1.44-1.45,3.73l-6-1.15s-4.55-.73-4.57,6.01c-.01,4.37,3.9,6.11,8.87,6.73.19,3.98,1.31,8.18,4.28,11.87,9.03,11.21,21.22,3.63,24.44-4.39,3.22-8.03,1.89-20.92.31-24.81Z" fill="none" stroke="#000" stroke-linecap="round" stroke-linejoin="round" stroke-width="2.93"/>
    <path d="M429.42,228.08s-4.72-.69-5.94,7.93c-1.22,8.62,2.43,8.26,4.58,8.04,2.15-.22,3.48-6.08,3.82-8.96.34-2.89.91-6.99-2.46-7Z"/>
    <path d="M499.47,233.38s-3.29.77-3.8,4.86c-.51,4.09-1,9.24,2.4,10.24s4.32-3.02,5.15-7.75c.83-4.73-.26-8.08-3.75-7.35Z"/>
    <path d="M463.55,263.02s13.28.04,11.64,9.04c-1.64,9-14.09,3.64-14.09,3.64" fill="none" stroke="#000" stroke-linecap="round" stroke-miterlimit="10" stroke-width="2.93"/>
    <path d="M441.05,276.93s13.09,25.78-18.82,36.82" fill="none" stroke="#000" stroke-linecap="round" stroke-miterlimit="10" stroke-width="2.93"/>
    <path d="M481.96,283.48s-15.55,9-8.18,34.78" fill="none" stroke="#000" stroke-linecap="round" stroke-miterlimit="10" stroke-width="2.93"/>
    <path d="M472.15,296.16s-10.23-10.23-20.05,1.23l-1.23,12.27-38.05,45.42s-4.5,3.68,2.05,5.32c6.55,1.64,40.1-41.73,40.1-41.73,0,0,8.23,7.01,18.05-3.22,0,0-.79-2.71-1.31-9.55-.53-6.83.45-9.74.45-9.74Z" fill="none" stroke="#000" stroke-linecap="round" stroke-miterlimit="10" stroke-width="2.93"/>
    <path d="M425.5,396.41s4.5-9.82,17.59-15.96c13.09-6.14,18-11.05,13.5-19.23-4.5-8.18-11.87,4.91-11.87,4.91,0,0,10.64-13.5,5.73-18.41-4.91-4.91-12.68,8.59-12.68,8.59,0,0,11.05-11.87,3.27-13.91-7.77-2.05-16.37,9.82-16.37,9.82-21.28-4.09-27.41,13.5-24.14,22.5,3.27,9,4.09,10.23,4.09,10.23" fill="none" stroke="#000" stroke-linecap="round" stroke-linejoin="round" stroke-width="2.93"/>
    <path d="M444.42,283.93s20.29-3.31,29.81,5.8" fill="none" stroke="#000" stroke-linecap="round" stroke-miterlimit="10" stroke-width="2.93"/>
    <path d="M434.07,307.11c.41,1.24,4.97,5.8,13.25,7.04" fill="none" stroke="#000" stroke-linecap="round" stroke-miterlimit="10" stroke-width="2.93"/>
    <path d="M332.23,285.59c-1.66.83-55.48,25.25-70.38,74.93s24.43,75.76,48.02,87.77c23.6,12.01,92.32,19.87,117.57-49.27,0,0-6.05-5.39-14.39-8.35-8.34-2.97-9.27-3.52-11.49-2.04s-1.11,8.15-14.08,15.57c-12.97,7.41-59,31.02-72.64-35.21" fill="none" stroke="#000" stroke-linecap="round" stroke-miterlimit="10" stroke-width="2.93"/>
    <path d="M485.8,319.43c3.81,5.81,15.43,20.76,39.4,31.19,30.32,13.18,77.79,39.55,51.42,88.34-26.37,48.78-27.69,30.32-27.69,30.32,0,0-1.32-9.89-13.84-17.8,0,0,35.59-27.04,5.27-46.81-30.31-19.77-51.42-23.07-51.42-23.07l-10.53,55.62" fill="none" stroke="#000" stroke-linecap="round" stroke-linejoin="round" stroke-width="2.93"/>
    <path d="M535.98,451.92c-.43,0-4.7,1-10.67.71s-8.25,3.27-8.97,6.83" fill="none" stroke="#000" stroke-linecap="round" stroke-linejoin="round" stroke-width="2.93"/>
    <path d="M528.86,457.89c-.85,0-8.35-2.42-15.47,4.12-7.12,6.55-1.56,9.49,1.42,6.65" fill="none" stroke="#000" stroke-linecap="round" stroke-linejoin="round" stroke-width="2.93"/>
    <path d="M529.71,463.02s-9.83-4.42-16.25,8.34c0,0-1.23,3.37,3.34,2.46,1.28-.26,3.49-4.03,5.98-5.47,1.91-1.1,4.89-1.32,6.64-1.05,0,0-13.07,5.97-11.84,8.77,1.25,2.84,3.35.75,8.51-1.06,5.7-1.99,2.76-.31,8.31-.88s9.6,2.95,14.26-5.28" fill="none" stroke="#000" stroke-linecap="round" stroke-linejoin="round" stroke-width="2.93"/>
    <line x1="265.71" y1="500.29" x2="534.04" y2="419.22" fill="none" stroke="#000" stroke-linecap="round" stroke-linejoin="round" stroke-width="2.93"/>
    <path d="M516.98,458.31c-9.7-4.49-34.37-13.02-72.72-6.93-50.58,8.04-65.99,48.91-50.92,67.33,15.07,18.42,71.35,25.12,100.5,15.41,29.14-9.71,61.3-36.85,38.52-59.63" fill="none" stroke="#000" stroke-linecap="round" stroke-linejoin="round" stroke-width="2.93"/>
    <g>
      <path d="M463.31,504.28c-4.16,0-8.64-2.65-9.59-5.68-.72-2.31-.6-4.38.37-6.14,1.42-2.58,4.66-4.63,9.38-5.91.12-.02.49-.07,1.01-.07,1.33,0,3.2.31,4.55,1.8,1.52,1.68,2.11,4.51,1.73,8.41-.64,6.61-4.94,7.59-7.45,7.59Z" fill="#ff911a"/>
      <path d="M464.48,487.94h0c1.03,0,2.47.23,3.46,1.32,1.22,1.34,1.69,3.86,1.35,7.28-.4,4.16-2.42,6.27-5.99,6.27-3.85,0-7.5-2.46-8.19-4.65-.61-1.95-.52-3.58.25-5,1.2-2.18,4.17-4.01,8.39-5.18.13-.02.38-.04.72-.04M464.48,485.01c-.8,0-1.33.1-1.33.1-8.18,2.21-13.04,6.85-10.83,13.93,1.16,3.72,6.24,6.71,10.99,6.71,4.27,0,8.28-2.42,8.91-8.92,1.03-10.62-4.98-11.82-7.74-11.82h0Z"/>
    </g>
    <path d="M433.54,484.11s3.09-5.53,11.94-1.11c8.84,4.42,4.42,13.93-3.54,13.04-7.96-.88-11.05-6.41-8.4-11.94Z" fill="none" stroke="#000" stroke-linecap="round" stroke-linejoin="round" stroke-width="2.93"/>
    <path d="M454.98,465.98s26.08-4.2,47.52,9.28c21.44,13.48,6.63,33.38-24.98,38.46-16.05,2.58-54.82,2.65-57.47-18.13-2.89-22.67,34.93-29.62,34.93-29.62Z" fill="none" stroke="#000" stroke-linecap="round" stroke-linejoin="round" stroke-width="2.93"/>
    <g>
      <path d="M471.87,520.27c-.96,0-1.83-.24-2.66-.73-.94-.55-1.9-1.01-2.82-1.46-3.98-1.91-6.86-3.3-5.76-10.54.01-.07.02-.15.02-.22,0-.4.27-10.03,14.23-10.03,4.98,0,8.19,1.35,9.52,4.02,1.85,3.69-.23,9.23-2.3,11.98-3.23,4.3-7.15,6.98-10.23,6.98Z" fill="#ff911a"/>
      <path d="M474.87,498.75c3.01,0,6.88.56,8.21,3.21,1.4,2.81-.03,7.61-2.16,10.45-2.91,3.88-6.47,6.39-9.06,6.39-.69,0-1.31-.17-1.91-.53-.99-.59-1.98-1.06-2.93-1.52-3.92-1.88-5.88-2.83-4.94-9,.02-.15.03-.26.03-.41.02-.88.55-8.59,12.76-8.59M474.87,495.82c-15.69,0-15.69,11.49-15.69,11.49-1.55,10.17,4.42,10.61,9.28,13.48,1.09.65,2.24.93,3.41.93,4.04,0,8.32-3.45,11.4-7.56,3.98-5.3,7.29-18.35-8.4-18.35h0Z"/>
    </g>
    <path d="M290.56,435.84s-6.98,32.58-7.91,59.58" fill="none" stroke="#000" stroke-linecap="round" stroke-linejoin="round" stroke-width="2.93"/>
  </g>
  <g>
    <path d="M220.65,448.5s-13.68-1.37-16.61,32.83c-2.94,34.19,12.36,38.29,25.68,37.16,15.05-1.28,20.66-21.54,17.27-38.26-6.24-30.78-26.34-31.73-26.34-31.73Z" fill="#e293e2" stroke="#000" stroke-linecap="round" stroke-miterlimit="10" stroke-width="3.03"/>
    <path d="M115.41,415.09s-43.29,11.8-51.85,60.81c-8.55,49.01,22.26,91.8,89.95,82.97,67.68-8.83,91.39-55.36,78.35-93.39-13.17-38.4-49.53-69.98-116.45-50.39Z" fill="#fff" stroke="#000" stroke-linecap="round" stroke-miterlimit="10" stroke-width="2"/>
    <path d="M200.58,448.55c-14.83-.93-19.77,16.65-19.77,16.65,0,0-.67,2.13-1.3,5.38-5-.12-10.47.92-10.8,6.03-.32,4.93,3.96,7.12,9.85,7.71.35,4.31,1.48,8.62,4.03,12.02,6.77,9.04,29.25,8.57,32.7-15.03,1.32-9.03,1.06-16.26-.68-21.61-1.16-3.56-4.21-3.57-6.66-5.44-2.31-1.77-3.95-5.49-7.36-5.7Z" fill="#fff" stroke="#000" stroke-linecap="round" stroke-miterlimit="10" stroke-width="2.41"/>
    <path d="M153.98,489.61s-25.62,5.92-28.72,25.52c-3.1,19.6,7.21,39.62,40.03,34,32.82-5.63,31.85-29.15,28.11-41.36-3.74-12.21-18.55-24.72-39.43-18.15Z" fill="#e293e2" stroke="#000" stroke-linecap="round" stroke-miterlimit="10" stroke-width="3.03"/>
    <path d="M156.26,498.84s12.74-5.37,14.41,3.28c1.67,8.65-10.69,10.09-10.69,10.09" fill="none" stroke="#000" stroke-linecap="round" stroke-miterlimit="10" stroke-width="3.42"/>
    <path d="M72.91,451.28s-16.17-9.28-33.18,29.82c-8.2,18.85-4.22,43.72,12.32,48.15,17.58,4.71,23.82-5.77,30.18-31.42,9.39-37.88-9.32-46.55-9.32-46.55Z" fill="#e293e2" stroke="#000" stroke-linecap="round" stroke-miterlimit="10" stroke-width="3.03"/>
    <g>
      <path d="M141.72,481.42c-.27-5.4-6.34-6.37-11.56-6.19.03-3.15-2.45-26.62-12.43-22.85-4.79,1.81-9.29,2.73-12.6,3.22-8.08,1.19-13.49,11.72-14.51,26.99-1.59,23.8,19.97,29.79,29.01,23.03,5.12-3.83,7.74-10.51,9.09-16.53,7.38.02,13.29-1.93,13.01-7.67Z" fill="none" stroke="#000" stroke-linecap="round" stroke-miterlimit="10" stroke-width="2.41"/>
      <path d="M117.1,459.96s-6.71-.59-8.39,8.54c-2,10.87,2.95,17.37,7.91,18.37,7.87,1.58,9.74-9.07,8.3-16.85-2.03-10.97-7.83-10.06-7.83-10.06Z" fill="#e293e2" stroke="#000" stroke-linecap="round" stroke-miterlimit="10" stroke-width="3.03"/>
    </g>
    <path d="M204.53,456.5c-1.39.03-6.08,1.75-6.3,12.59-.29,14.56,9.86,12.77,11.53,7.97,1.58-4.56,4.2-20.78-5.23-20.56Z" fill="#e293e2" stroke="#000" stroke-linecap="round" stroke-miterlimit="10" stroke-width="3.03"/>
    <path d="M170.25,522.49s-8.79,1.39-16.72-.59c0,0-1.69,5.89,6.48,6.51,8.17.62,9.51-2.04,10.24-5.93Z"/>
  </g>
  <g>
    <rect x="67" y="209.3" width="231.41" height="49.71" rx="24.86" ry="24.86" fill="#fff"/>
    <rect x="67" y="240.62" width="144.59" height="49.71" rx="24.86" ry="24.86" fill="#fff"/>
    <path d="M177.03,279.38s19.47,17.53,41.58,13.11c0,0-18.23-12.39-26.42-26.24-8.18-13.85-15.16,13.13-15.16,13.13Z" fill="#fff"/>
  </g>
  <g>
    <rect x="559.37" y="244.67" width="211.83" height="49.71" rx="24.86" ry="24.86" fill="#fff"/>
    <rect x="559.37" y="272.36" width="175.4" height="49.71" rx="24.86" ry="24.86" fill="#fff"/>
    <path d="M577.69,307.42s-11.45,12.87-35.03,7.81c0,0,21.47-13.47,24.16-23.55,2.43-9.12,10.87,15.74,10.87,15.74Z" fill="#fff"/>
  </g>
  <g>
    <rect x="151.01" y="67.42" width="506.56" height="49.71" rx="24.86" ry="24.86" fill="#fff"/>
    <path d="M533.28,111.32s-13.82,20.74-22.72,24.72l6.54-34.93,16.18,10.21Z" fill="#fff"/>
  </g>
  <g>
    <path d="M90.92,241.74c-.05.44-.22.8-.49,1.09-.27.28-.58.46-.93.53-.34.07-.68.03-.99-.13-.32-.16-.55-.47-.69-.93-.09-.3-.15-.63-.17-.98-.03-.35-.04-.7-.03-1.05,0-.34.02-.68.04-.99.02-.32.03-.58.03-.8,0-.51,0-1.02-.01-1.51,0-.49-.01-1-.01-1.51-.87-.83-1.66-1.71-2.37-2.64s-1.36-1.92-1.92-2.98c-.18-.32-.34-.67-.5-1.05-.16-.38-.25-.76-.27-1.13-.09-.34-.05-.64.11-.92.16-.27.38-.49.65-.64.27-.15.57-.22.9-.21.33,0,.62.12.89.33.19.16.35.34.48.56.12.21.23.44.32.68.09.24.17.48.25.73.08.25.18.48.3.69.37.67.78,1.3,1.23,1.87.45.57.93,1.15,1.45,1.71.46-.62.95-1.2,1.49-1.74.53-.54,1.02-1.12,1.46-1.74.09-.14.22-.36.4-.65.18-.29.36-.6.56-.91.19-.32.4-.61.61-.89.21-.27.4-.46.56-.54.28-.18.57-.26.86-.24.29.02.56.11.8.27s.43.38.57.65c.14.27.19.57.16.89-.04.34-.19.74-.46,1.22-.27.48-.59.96-.95,1.46-.36.5-.73.96-1.1,1.41-.37.44-.66.8-.88,1.06-.18.21-.35.42-.52.62-.17.2-.34.4-.52.6-.23.27-.45.53-.66.8-.21.27-.42.53-.64.8v3.02c0,1.01,0,2.02.03,3.02v.19Z"/>
    <path d="M95.69,236.27c.12-.51.3-1.02.52-1.51.22-.49.49-.97.81-1.42.32-.45.68-.86,1.07-1.23s.83-.67,1.29-.9c.81-.42,1.63-.64,2.45-.65.82,0,1.59.16,2.29.49.71.34,1.31.84,1.8,1.5.49.66.82,1.45.98,2.37.09.6.14,1.17.15,1.71,0,.54-.05,1.1-.17,1.68-.18.83-.53,1.66-1.07,2.48-.54.82-1.18,1.51-1.94,2.07-.75.56-1.57.92-2.47,1.1-.89.18-1.79.04-2.69-.42-.41-.19-.77-.42-1.1-.68-.33-.26-.62-.56-.89-.92-.3-.39-.53-.8-.7-1.22-.17-.42-.3-.87-.41-1.33-.12-.49-.17-.99-.13-1.5.04-.5.1-.99.19-1.47l.03-.16ZM98.87,236.83c-.05.28-.1.56-.13.84-.04.27-.04.55,0,.84.05.41.16.78.33,1.11.17.34.39.6.66.8.27.19.59.3.94.3.35,0,.73-.1,1.14-.33.51-.3.95-.76,1.33-1.39.37-.63.6-1.28.69-1.96.09-.68.02-1.33-.21-1.94-.23-.61-.68-1.05-1.35-1.31-.44,0-.85.08-1.22.25-.37.17-.69.39-.97.66-.27.27-.51.6-.72.97-.2.37-.37.76-.49,1.17Z"/>
    <path d="M120.54,240.54c.16.23.25.5.28.81.03.31,0,.6-.11.88-.1.27-.26.5-.48.68-.22.18-.51.26-.86.24-.46-.04-.83-.19-1.11-.48-.28-.28-.55-.6-.8-.95-.69.57-1.4.96-2.13,1.18-.73.22-1.45.27-2.16.15-.71-.12-1.37-.42-1.99-.89-.62-.47-1.14-1.1-1.56-1.9-.39-.74-.61-1.56-.65-2.47-.04-.9-.06-1.76-.04-2.57,0-.28,0-.56.03-.84.02-.27.04-.56.05-.86.02-.23.03-.45.03-.68s.01-.43.04-.62c.03-.19.08-.39.16-.58.08-.19.2-.38.36-.56.21-.23.47-.37.77-.41.3-.04.59-.01.86.09.27.11.51.27.72.49.2.22.31.49.33.81.04.9.01,1.81-.07,2.73-.08.92-.08,1.82.01,2.71.04.42.15.86.33,1.3.19.44.48.76.89.95.41.18.82.16,1.23-.04.42-.2.76-.45,1.02-.73.12-.14.24-.3.36-.46.11-.17.24-.31.38-.44-.07-.62-.12-1.24-.13-1.86-.02-.62-.02-1.24,0-1.86,0-.34.01-.7.04-1.1.03-.4.1-.78.21-1.14.11-.36.29-.68.52-.95.23-.27.56-.45.98-.52.19-.04.38-.02.57.05.19.07.35.17.49.29.25.21.42.45.5.72.09.27.13.55.13.85s-.02.61-.07.91c-.04.31-.08.6-.09.86-.04.5-.06,1.02-.08,1.56-.02.55,0,1.1.05,1.64.05.55.15,1.08.3,1.59.15.51.38.98.68,1.41Z"/>
    <path d="M124.2,223.89c.21-.35.48-.59.8-.72.32-.12.63-.15.94-.09.31.06.58.22.82.46.24.25.38.57.41.98.02.27-.02.55-.12.85-.1.3-.22.6-.37.9-.15.3-.31.59-.48.88-.17.28-.3.53-.41.74-.14.28-.27.56-.38.84-.12.27-.25.54-.41.81-.25.44-.57.69-.97.76-.4.06-.77,0-1.11-.16-.34-.17-.61-.43-.8-.78-.19-.35-.19-.73-.01-1.14.09-.35.24-.72.45-1.09s.4-.72.56-1.03c.18-.35.34-.7.5-1.03.16-.34.32-.67.48-1.01l.11-.16Z"/>
    <path d="M133.98,231.16c.27-.35.57-.6.91-.73s.67-.16.97-.08c.3.08.56.26.77.54.21.28.33.66.34,1.14,0,.12-.02.28-.07.48-.04.19-.1.39-.17.6-.07.2-.13.39-.19.56-.05.17-.09.28-.11.33-.3.95-.65,1.98-1.05,3.09-.4,1.11-.76,2.13-1.1,3.09-.14.41-.29.79-.44,1.15-.15.36-.3.74-.46,1.13-.12.32-.3.57-.54.77-.24.19-.5.32-.77.37-.27.05-.55.03-.84-.08-.28-.11-.53-.3-.74-.58-.14-.19-.26-.44-.36-.74-.1-.3-.17-.52-.23-.66-.19-.51-.39-1.02-.58-1.51-.19-.49-.39-.99-.58-1.49-.27-.67-.54-1.33-.82-1.99-.28-.65-.57-1.3-.88-1.94-.18-.39-.37-.77-.58-1.14s-.37-.76-.48-1.17c-.11-.37-.09-.7.04-.99s.33-.52.58-.68c.26-.16.55-.25.88-.27.33-.02.64.07.94.27.23.14.44.36.64.66.19.3.37.63.53.98.16.35.3.7.44,1.05.13.34.25.63.36.86.25.57.49,1.13.73,1.7.24.57.47,1.13.7,1.7.37-1.04.73-2.08,1.07-3.12.34-1.03.67-2.08.97-3.14l.11-.16Z"/>
    <path d="M148.07,239.06c.42-.11.8-.11,1.13-.01.33.1.58.26.76.49.18.23.26.51.24.85-.02.34-.17.69-.45,1.06-.23.3-.55.56-.95.77-.41.21-.79.38-1.14.5-.87.32-1.69.54-2.47.66-.78.12-1.51.12-2.19,0-.68-.12-1.32-.38-1.91-.77-.59-.39-1.15-.94-1.66-1.64-.35-.48-.61-1.02-.78-1.63-.17-.61-.26-1.23-.28-1.87-.02-.64.04-1.26.16-1.88.12-.62.3-1.18.53-1.67.3-.62.78-1.18,1.43-1.7.65-.51,1.38-.92,2.17-1.22.8-.3,1.61-.47,2.44-.52.83-.04,1.56.08,2.2.38.53.25.99.61,1.37,1.07.38.47.64.98.78,1.52.14.55.15,1.1.04,1.66-.11.56-.4,1.07-.86,1.52s-.93.8-1.46,1.07c-.53.27-1.08.51-1.64.72-.57.2-1.14.38-1.74.52-.59.14-1.16.3-1.71.48.37.42.8.69,1.27.81.48.12.98.14,1.5.07.52-.07,1.05-.22,1.58-.44.53-.22,1.03-.46,1.49-.73l.16-.08ZM142.71,234.5c-.41.23-.71.52-.9.86-.19.34-.34.83-.42,1.45.46-.14.98-.29,1.55-.45.57-.16,1.12-.33,1.63-.5.51-.18.95-.37,1.3-.58.35-.21.53-.44.53-.69,0-.14-.02-.28-.07-.41-.04-.13-.14-.23-.28-.28-.5-.18-1.01-.21-1.54-.11-.53.11-.97.26-1.33.45l-.48.27Z"/>
    <path d="M167.05,243.3c-.51.02-1-.02-1.47-.11-.47-.09-.93-.24-1.39-.45-.23.12-.46.19-.68.19s-.42-.04-.61-.11c-.19-.07-.34-.16-.48-.25s-.23-.17-.28-.23c-.19-.28-.31-.6-.34-.95-.04-.35.08-.69.34-1.01v-13.63c0-.41.14-.75.42-1.02.28-.27.61-.45.98-.52.37-.07.73,0,1.07.19.34.19.58.55.7,1.06.07.32.13.63.17.94.04.31.07.67.08,1.07,0,.41,0,.88,0,1.41,0,.53-.03,1.18-.07,1.96.16-.09.32-.17.49-.25.17-.08.34-.16.52-.25.49-.23,1.03-.37,1.59-.42.57-.05,1.12-.02,1.66.09.54.12,1.04.33,1.51.64.47.31.85.71,1.15,1.21.42.71.71,1.53.86,2.48.15.95.15,1.88,0,2.81-.15.93-.46,1.79-.93,2.59-.47.8-1.13,1.39-1.98,1.78-.53.25-1.07.44-1.63.57s-1.13.21-1.71.23ZM165.38,236.51v3.18s.07.06.11.08c.04.02.07.04.11.08,1.59.53,2.97.17,4.14-1.09.27-.71.39-1.37.38-2,0-.63-.13-1.3-.36-2.03-.09-.21-.23-.35-.44-.41-.2-.06-.38-.14-.54-.23-.28-.05-.59,0-.92.16-.33.16-.64.36-.94.6-.3.24-.57.5-.82.78-.25.28-.44.52-.58.72l-.13.16Z"/>
    <path d="M185.11,239.06c.42-.11.8-.11,1.13-.01.33.1.58.26.76.49.18.23.26.51.24.85-.02.34-.17.69-.45,1.06-.23.3-.55.56-.95.77-.41.21-.79.38-1.14.5-.87.32-1.69.54-2.47.66-.78.12-1.51.12-2.19,0-.68-.12-1.32-.38-1.91-.77-.59-.39-1.15-.94-1.66-1.64-.35-.48-.61-1.02-.78-1.63-.17-.61-.26-1.23-.28-1.87-.02-.64.04-1.26.16-1.88.12-.62.3-1.18.53-1.67.3-.62.78-1.18,1.43-1.7.65-.51,1.38-.92,2.17-1.22.8-.3,1.61-.47,2.44-.52.83-.04,1.56.08,2.2.38.53.25.99.61,1.37,1.07.38.47.64.98.78,1.52.14.55.15,1.1.04,1.66-.11.56-.4,1.07-.86,1.52s-.93.8-1.46,1.07c-.53.27-1.08.51-1.64.72-.57.2-1.14.38-1.74.52-.59.14-1.16.3-1.71.48.37.42.8.69,1.27.81.48.12.98.14,1.5.07.52-.07,1.05-.22,1.58-.44.53-.22,1.03-.46,1.49-.73l.16-.08ZM179.76,234.5c-.41.23-.71.52-.9.86-.19.34-.34.83-.42,1.45.46-.14.98-.29,1.55-.45.57-.16,1.12-.33,1.63-.5.51-.18.95-.37,1.3-.58.35-.21.53-.44.53-.69,0-.14-.02-.28-.07-.41-.04-.13-.14-.23-.28-.28-.5-.18-1.01-.21-1.54-.11-.53.11-.97.26-1.33.45l-.48.27Z"/>
    <path d="M198.27,239.06c.42-.11.8-.11,1.13-.01.33.1.58.26.76.49.18.23.26.51.24.85-.02.34-.17.69-.45,1.06-.23.3-.55.56-.95.77-.41.21-.79.38-1.14.5-.87.32-1.69.54-2.47.66-.78.12-1.51.12-2.19,0-.68-.12-1.32-.38-1.91-.77-.59-.39-1.15-.94-1.66-1.64-.35-.48-.61-1.02-.78-1.63-.17-.61-.26-1.23-.28-1.87-.02-.64.04-1.26.16-1.88.12-.62.3-1.18.53-1.67.3-.62.78-1.18,1.43-1.7.65-.51,1.38-.92,2.17-1.22.8-.3,1.61-.47,2.44-.52.83-.04,1.56.08,2.2.38.53.25.99.61,1.37,1.07.38.47.64.98.78,1.52.14.55.15,1.1.04,1.66-.11.56-.4,1.07-.86,1.52s-.93.8-1.46,1.07c-.53.27-1.08.51-1.64.72-.57.2-1.14.38-1.74.52-.59.14-1.16.3-1.71.48.37.42.8.69,1.27.81.48.12.98.14,1.5.07.52-.07,1.05-.22,1.58-.44.53-.22,1.03-.46,1.49-.73l.16-.08ZM192.91,234.5c-.41.23-.71.52-.9.86-.19.34-.34.83-.42,1.45.46-.14.98-.29,1.55-.45.57-.16,1.12-.33,1.63-.5.51-.18.95-.37,1.3-.58.35-.21.53-.44.53-.69,0-.14-.02-.28-.07-.41-.04-.13-.14-.23-.28-.28-.5-.18-1.01-.21-1.54-.11-.53.11-.97.26-1.33.45l-.48.27Z"/>
    <path d="M211.47,241.92c-.05.44-.22.8-.49,1.09-.27.28-.58.46-.93.53-.34.07-.68.03-.99-.13-.32-.16-.55-.47-.69-.93-.16-.49-.22-1.01-.19-1.55.04-.54.05-1.04.05-1.5,0-.95,0-1.9.01-2.85,0-.95-.03-1.9-.12-2.85-.02-.04-.04-.07-.05-.09-.02-.03-.05-.07-.11-.12-.41-.11-.84-.08-1.3.08-.46.16-.85.36-1.17.61-.28.23-.56.54-.84.94-.27.4-.41.78-.41,1.15v3.66c0,.28,0,.59.03.93.02.34,0,.66-.04.98-.04.32-.15.61-.3.88-.16.27-.42.46-.77.58-.19.07-.38.1-.54.08-.17-.02-.35-.06-.54-.13-.32-.11-.55-.29-.69-.54-.14-.26-.24-.53-.29-.82-.05-.29-.08-.57-.07-.85,0-.27.01-.49.01-.65,0-.41,0-.99-.01-1.76,0-.77-.01-1.58-.01-2.43v-4.19c0-.39.11-.71.34-.97.23-.26.5-.42.81-.5.31-.08.64-.06.98.05.34.12.63.35.86.7.71-.46,1.48-.77,2.33-.93.85-.16,1.65-.13,2.4.08.75.21,1.38.61,1.88,1.19.5.58.76,1.39.78,2.41,0,.04,0,.14.03.32.02.18.03.42.03.74v6.79Z"/>
    <path d="M222.98,240.84c-.11-.3-.15-.6-.13-.89.02-.29.09-.56.23-.8.13-.24.32-.42.57-.56.25-.13.55-.18.9-.15.19.02.37.07.53.16.16.09.3.19.44.32.13.12.27.26.4.4.13.14.27.27.41.37.3.23.62.4.95.5.34.11.69.19,1.06.24.25,0,.45-.06.6-.19.15-.12.25-.27.3-.45.05-.18.07-.37.04-.57-.03-.2-.09-.37-.2-.49-.3-.3-.67-.49-1.1-.58-.43-.09-.84-.19-1.21-.32-.53-.18-1.05-.4-1.56-.68-.51-.27-.93-.65-1.25-1.13-.34-.49-.53-1.02-.6-1.58-.06-.56-.02-1.1.13-1.63.15-.53.4-1.02.76-1.46.35-.44.78-.8,1.27-1.09.37-.21.78-.35,1.22-.41.44-.06.89-.08,1.34-.04.45.04.9.12,1.34.25.44.13.85.28,1.22.44.42.19.74.47.95.82.21.35.31.71.3,1.07,0,.36-.13.68-.37.94-.24.27-.59.4-1.05.4-.28,0-.54-.05-.77-.15-.23-.1-.47-.19-.72-.28-.32-.12-.66-.21-1.03-.25-.37-.04-.67-.02-.9.07-.07.02-.15.08-.24.17-.09.1-.15.22-.2.36-.04.14-.05.28-.03.42.03.14.12.26.28.34.42.23.88.41,1.35.53.48.12.95.27,1.41.42.46.16.89.36,1.29.61.4.25.73.6.99,1.06.39.67.59,1.37.6,2.11,0,.73-.14,1.42-.44,2.06-.3.64-.74,1.18-1.33,1.63-.58.45-1.26.72-2.04.81-.55.05-1.09.02-1.62-.09-.53-.12-1.04-.3-1.54-.56-.5-.26-.95-.56-1.38-.92-.42-.35-.8-.72-1.11-1.11l-.08-.16Z"/>
    <path d="M234.57,226.78c.07-.65.3-1.14.68-1.45.38-.31.78-.46,1.21-.45.42,0,.82.17,1.18.49.36.32.55.77.57,1.35.04.6-.12,1.07-.46,1.39-.34.33-.74.51-1.18.56-.44.04-.86-.08-1.25-.36-.39-.28-.63-.73-.72-1.35l-.03-.19ZM238.07,241.87c-.04.35-.16.67-.37.94s-.46.47-.73.6c-.27.12-.57.15-.89.08-.32-.07-.6-.27-.85-.58-.14-.18-.24-.38-.3-.6-.06-.22-.1-.45-.12-.69-.02-.24-.02-.48-.01-.72,0-.24.01-.46.01-.65-.02-1.04-.02-2.08-.01-3.1,0-1.03,0-2.06-.01-3.1,0-.42-.03-.85-.08-1.29-.05-.43-.03-.86.08-1.29.09-.32.24-.59.46-.82.22-.23.47-.39.74-.48.27-.09.56-.1.85-.03.29.07.54.26.76.56.28.35.42.7.42,1.05v3.06c0,.6,0,1.19.03,1.78.02.85.03,1.7.03,2.55v2.73Z"/>
    <path d="M251.59,241.92c-.05.44-.22.8-.49,1.09-.27.28-.58.46-.93.53-.34.07-.68.03-.99-.13-.32-.16-.55-.47-.69-.93-.16-.49-.22-1.01-.19-1.55.04-.54.05-1.04.05-1.5,0-.95,0-1.9.01-2.85,0-.95-.03-1.9-.12-2.85-.02-.04-.04-.07-.05-.09-.02-.03-.05-.07-.11-.12-.41-.11-.84-.08-1.3.08-.46.16-.85.36-1.17.61-.28.23-.56.54-.84.94-.27.4-.41.78-.41,1.15v3.66c0,.28,0,.59.03.93.02.34,0,.66-.04.98-.04.32-.15.61-.3.88-.16.27-.42.46-.77.58-.19.07-.38.1-.54.08-.17-.02-.35-.06-.54-.13-.32-.11-.55-.29-.69-.54-.14-.26-.24-.53-.29-.82-.05-.29-.08-.57-.07-.85,0-.27.01-.49.01-.65,0-.41,0-.99-.01-1.76,0-.77-.01-1.58-.01-2.43v-4.19c0-.39.11-.71.34-.97.23-.26.5-.42.81-.5.31-.08.64-.06.98.05.34.12.63.35.86.7.71-.46,1.48-.77,2.33-.93.85-.16,1.65-.13,2.4.08.75.21,1.38.61,1.88,1.19.5.58.76,1.39.78,2.41,0,.04,0,.14.03.32.02.18.03.42.03.74v6.79Z"/>
    <path d="M254.93,248.15c-.3-.37-.46-.76-.48-1.15-.02-.4.07-.74.27-1.02.19-.28.47-.48.84-.58.36-.11.76-.05,1.21.16.19.14.37.25.53.32.16.07.38.18.66.32.27.12.57.22.9.28.34.06.65.07.95.04.6-.04,1.06-.14,1.39-.31.33-.17.56-.39.7-.66.14-.27.23-.61.25-1.01.03-.4.04-.84.04-1.34-.57.19-1.13.34-1.7.44-.57.1-1.15.11-1.75.04-1.17-.14-2.13-.56-2.88-1.25-.75-.69-1.3-1.51-1.64-2.47-.34-.95-.49-1.98-.42-3.06.06-1.09.31-2.09.76-3.01.27-.53.63-1.02,1.09-1.47.46-.45.98-.82,1.55-1.11.57-.29,1.18-.48,1.8-.57.63-.09,1.23-.04,1.82.16.34.12.66.25.98.37.32.12.63.28.93.48.34-.3.73-.45,1.18-.45s.84.21,1.15.64c.07.11.15.23.24.36.09.13.13.26.13.38.02,1.89.02,3.78.01,5.66,0,1.88-.01,3.77-.01,5.66,0,.76-.1,1.47-.3,2.12-.2.65-.51,1.23-.92,1.74-.41.5-.91.92-1.51,1.23-.6.32-1.3.52-2.1.61-.41.04-.8.05-1.19.05s-.79-.04-1.19-.13c-.57-.11-1.11-.28-1.63-.53-.52-.25-1.04-.52-1.55-.82l-.11-.11ZM258.06,240.07c.78.37,1.49.49,2.15.36.65-.13,1.32-.43,1.99-.89v-4.22c-.51-.51-1.01-.87-1.5-1.07-.49-.2-1.07-.26-1.74-.17-.12.07-.24.13-.36.19-.11.05-.23.11-.36.16-.37.42-.65.84-.85,1.23-.19.4-.31.8-.34,1.22-.04.42,0,.84.09,1.27.1.43.24.91.44,1.42.05.09.13.18.24.27.11.09.19.17.24.24Z"/>
    <path d="M271.27,240.97c.19.18.36.4.49.68.13.27.2.55.21.82,0,.27-.05.53-.19.77-.13.24-.37.42-.7.54-.27.09-.56.11-.88.05-.32-.05-.63-.16-.94-.32-.31-.16-.58-.35-.82-.57-.24-.22-.41-.46-.52-.73-.04-.09-.06-.19-.08-.31-.02-.11-.03-.22-.03-.3v-14.72c0-.41.15-.75.46-1.03.31-.28.65-.45,1.02-.5.18-.02.37,0,.57.08.2.07.39.17.57.3.18.13.32.29.44.46.11.18.17.36.17.56v1.83c0,.76,0,1.59.01,2.49,0,.9.01,1.83.01,2.8s0,1.89-.01,2.77c0,.88-.01,1.69-.01,2.43s0,1.32-.03,1.76l.24.13Z"/>
    <path d="M283.33,239.06c.42-.11.8-.11,1.13-.01.33.1.58.26.76.49.18.23.26.51.24.85-.02.34-.17.69-.45,1.06-.23.3-.55.56-.95.77-.41.21-.79.38-1.14.5-.87.32-1.69.54-2.47.66-.78.12-1.51.12-2.19,0-.68-.12-1.32-.38-1.91-.77-.59-.39-1.15-.94-1.66-1.64-.35-.48-.61-1.02-.78-1.63-.17-.61-.26-1.23-.28-1.87-.02-.64.04-1.26.16-1.88.12-.62.3-1.18.53-1.67.3-.62.78-1.18,1.43-1.7.65-.51,1.38-.92,2.17-1.22.8-.3,1.61-.47,2.44-.52.83-.04,1.56.08,2.2.38.53.25.99.61,1.37,1.07.38.47.64.98.78,1.52.14.55.15,1.1.04,1.66-.11.56-.4,1.07-.86,1.52s-.93.8-1.46,1.07c-.53.27-1.08.51-1.64.72-.57.2-1.14.38-1.74.52-.59.14-1.16.3-1.71.48.37.42.8.69,1.27.81.48.12.98.14,1.5.07.52-.07,1.05-.22,1.58-.44.53-.22,1.03-.46,1.49-.73l.16-.08ZM277.98,234.5c-.41.23-.71.52-.9.86-.19.34-.34.83-.42,1.45.46-.14.98-.29,1.55-.45.57-.16,1.12-.33,1.63-.5.51-.18.95-.37,1.3-.58.35-.21.53-.44.53-.69,0-.14-.02-.28-.07-.41-.04-.13-.14-.23-.28-.28-.5-.18-1.01-.21-1.54-.11-.53.11-.97.26-1.33.45l-.48.27Z"/>
    <path d="M85.67,262.58c-.35-.09-.66-.24-.92-.45-.26-.21-.43-.46-.53-.74-.1-.28-.1-.57,0-.88.1-.3.31-.57.65-.82.28-.21.6-.32.95-.32h1.03c0-.12,0-.39-.03-.81-.02-.42-.02-.87-.01-1.37,0-.49.04-.97.09-1.42.05-.45.15-.76.29-.94.35-.49.79-.73,1.31-.7.52.03.95.28,1.29.76.07.09.14.19.2.32.06.12.09.24.09.34.02.64.02,1.27.01,1.91,0,.64-.01,1.27-.01,1.91h2.09c.32,0,.59.11.82.32.23.21.39.46.49.74.1.28.12.57.08.88-.04.3-.18.55-.41.74-.41.34-.88.51-1.42.53-.54.02-1.09.03-1.66.03,0,.97,0,1.95-.01,2.92,0,.97,0,1.94.01,2.92,0,.42.02.86.07,1.3.04.44.01.87-.09,1.27-.09.32-.24.57-.45.76-.21.19-.45.3-.72.34-.27.04-.54.03-.82-.05-.28-.08-.55-.23-.8-.44-.12-.12-.22-.34-.28-.64-.06-.3-.1-.62-.12-.95-.02-.39-.02-.8,0-1.25v-1.38c0-.57,0-1.15-.01-1.76,0-.61-.01-1.19-.01-1.74v-1.3l-1.19-.03Z"/>
    <path d="M97.97,271.96c-.35.26-.72.38-1.1.36-.38-.02-.72-.17-1.01-.46s-.44-.69-.44-1.21v-14.74c0-.41.16-.75.48-1.03.32-.28.67-.46,1.06-.53.39-.07.75,0,1.09.19.34.19.52.56.56,1.09.07.92.1,1.82.09,2.69,0,.88-.02,1.75-.04,2.64.65-.44,1.33-.74,2.04-.89.71-.15,1.39-.15,2.04.01.65.16,1.26.48,1.83.95.57.48,1.03,1.14,1.38,1.99.25.57.42,1.17.5,1.82.09.65.14,1.3.15,1.96,0,.66,0,1.32-.03,1.98-.03.65-.04,1.27-.04,1.86,0,.37-.1.71-.29,1.01-.19.3-.44.52-.73.66-.29.14-.6.19-.93.13-.33-.05-.62-.25-.89-.58-.27-.35-.43-.77-.49-1.25-.06-.48-.08-.99-.05-1.52.03-.54.07-1.09.12-1.66.05-.57.07-1.11.04-1.63s-.13-1-.3-1.45c-.18-.44-.49-.8-.93-1.09-.35-.05-.67-.03-.95.07-.28.1-.54.24-.77.44-.23.19-.45.42-.65.66-.2.25-.41.5-.62.74-.05.09-.12.17-.19.25-.07.08-.15.16-.24.25v5.04c-.11.58-.34,1-.69,1.26Z"/>
    <path d="M120.3,270.25c.14.51.11.94-.08,1.27-.19.34-.46.56-.81.68s-.72.1-1.13-.04c-.41-.14-.76-.42-1.06-.85-.5.37-.98.63-1.45.78-.47.15-1,.23-1.6.25-.9.04-1.71-.07-2.41-.3-.71-.24-1.3-.6-1.79-1.07-.49-.48-.84-1.07-1.07-1.79-.23-.72-.31-1.54-.24-2.48.04-.39.1-.77.2-1.14.1-.37.21-.73.33-1.09.14-.39.34-.8.6-1.25.26-.44.52-.82.78-1.14.95-1.17,2.15-2.01,3.58-2.52.25-.09.58-.17,1.01-.24.42-.07.85-.1,1.29-.09.43,0,.85.07,1.25.17.4.11.69.29.89.56.16.21.27.4.34.56.07.16.11.33.12.5,0,.18,0,.37,0,.57,0,.2-.01.46-.01.76,0,.5,0,.98-.01,1.45,0,.47,0,.94.01,1.42v.62c0,.26,0,.53.03.81.02.28.04.55.07.81.03.26.07.46.12.62l1.06,2.17ZM114.68,269.05c.19-.12.42-.26.66-.41.25-.15.47-.32.66-.52-.16-.94-.25-1.87-.28-2.81-.03-.94-.02-1.88.01-2.84-.8.14-1.51.49-2.15,1.03-.64.55-1.08,1.19-1.33,1.94-.11.3-.19.61-.27.93-.07.32-.1.63-.08.93.02.41.12.75.32,1.02.19.27.43.48.7.62.27.14.57.22.88.24.31.02.6-.03.86-.13Z"/>
    <path d="M122.5,262.58c-.35-.09-.66-.24-.92-.45-.26-.21-.43-.46-.53-.74-.1-.28-.1-.57,0-.88.1-.3.31-.57.65-.82.28-.21.6-.32.95-.32h1.03c0-.12,0-.39-.03-.81-.02-.42-.02-.87-.01-1.37,0-.49.04-.97.09-1.42.05-.45.15-.76.29-.94.35-.49.79-.73,1.31-.7.52.03.95.28,1.29.76.07.09.14.19.2.32.06.12.09.24.09.34.02.64.02,1.27.01,1.91,0,.64-.01,1.27-.01,1.91h2.09c.32,0,.59.11.82.32.23.21.39.46.49.74.1.28.12.57.08.88-.04.3-.18.55-.41.74-.41.34-.88.51-1.42.53-.54.02-1.09.03-1.66.03,0,.97,0,1.95-.01,2.92,0,.97,0,1.94.01,2.92,0,.42.02.86.07,1.3.04.44.01.87-.09,1.27-.09.32-.24.57-.45.76-.21.19-.45.3-.72.34-.27.04-.54.03-.82-.05-.28-.08-.55-.23-.8-.44-.12-.12-.22-.34-.28-.64-.06-.3-.1-.62-.12-.95-.02-.39-.02-.8,0-1.25v-1.38c0-.57,0-1.15-.01-1.76,0-.61-.01-1.19-.01-1.74v-1.3l-1.19-.03Z"/>
    <path d="M145.89,269.77c.19.18.36.4.49.68.13.27.2.55.21.82,0,.27-.05.53-.19.77-.13.24-.37.42-.7.54-.27.09-.56.11-.88.05-.32-.05-.63-.16-.94-.32-.31-.16-.58-.35-.82-.57-.24-.22-.41-.46-.52-.73-.04-.09-.06-.19-.08-.31-.02-.11-.03-.22-.03-.3v-14.72c0-.41.15-.75.46-1.03.31-.28.65-.45,1.02-.5.18-.02.37,0,.57.08.2.07.39.17.57.3.18.13.32.29.44.46.11.18.17.36.17.56v1.83c0,.76,0,1.59.01,2.49,0,.9.01,1.83.01,2.8s0,1.89-.01,2.77c0,.88-.01,1.69-.01,2.43s0,1.32-.03,1.76l.24.13Z"/>
    <path d="M148.33,265.07c.12-.51.3-1.02.52-1.51.22-.49.49-.97.81-1.42.32-.45.68-.86,1.07-1.23s.83-.67,1.29-.9c.81-.42,1.63-.64,2.45-.65.82,0,1.59.16,2.29.49.71.34,1.31.84,1.8,1.5.49.66.82,1.45.98,2.37.09.6.14,1.17.15,1.71,0,.54-.05,1.1-.17,1.68-.18.83-.53,1.66-1.07,2.48-.54.82-1.18,1.51-1.94,2.07-.75.56-1.57.92-2.47,1.1-.89.18-1.79.04-2.69-.42-.41-.19-.77-.42-1.1-.68-.33-.26-.62-.56-.89-.92-.3-.39-.53-.8-.7-1.22-.17-.42-.3-.87-.41-1.33-.12-.49-.17-.99-.13-1.5.04-.5.1-.99.19-1.47l.03-.16ZM151.51,265.63c-.05.28-.1.56-.13.84-.04.27-.04.55,0,.84.05.41.16.78.33,1.11.17.34.39.6.66.8.27.19.59.3.94.3.35,0,.73-.1,1.14-.33.51-.3.95-.76,1.33-1.39.37-.63.6-1.28.69-1.96.09-.68.02-1.33-.21-1.94-.23-.61-.68-1.05-1.35-1.31-.44,0-.85.08-1.22.25-.37.17-.69.39-.97.66-.27.27-.51.6-.72.97-.2.37-.37.76-.49,1.17Z"/>
    <path d="M172.2,270.72c-.05.44-.22.8-.49,1.09-.27.28-.58.46-.93.53-.34.07-.68.03-.99-.13-.32-.16-.55-.47-.69-.93-.16-.49-.22-1.01-.19-1.55.04-.54.05-1.04.05-1.5,0-.95,0-1.9.01-2.85,0-.95-.03-1.9-.12-2.85-.02-.04-.04-.07-.05-.09-.02-.03-.05-.07-.11-.12-.41-.11-.84-.08-1.3.08-.46.16-.85.36-1.17.61-.28.23-.56.54-.84.94-.27.4-.41.78-.41,1.15v3.66c0,.28,0,.59.03.93.02.34,0,.66-.04.98-.04.32-.15.61-.3.88-.16.27-.42.46-.77.58-.19.07-.38.1-.54.08-.17-.02-.35-.06-.54-.13-.32-.11-.55-.29-.69-.54-.14-.26-.24-.53-.29-.82-.05-.29-.08-.57-.07-.85,0-.27.01-.49.01-.65,0-.41,0-.99-.01-1.76,0-.77-.01-1.58-.01-2.43v-4.19c0-.39.11-.71.34-.97.23-.26.5-.42.81-.5.31-.08.64-.06.98.05.34.12.63.35.86.7.71-.46,1.48-.77,2.33-.93.85-.16,1.65-.13,2.4.08.75.21,1.38.61,1.88,1.19.5.58.76,1.39.78,2.41,0,.04,0,.14.03.32.02.18.03.42.03.74v6.79Z"/>
    <path d="M175.54,276.95c-.3-.37-.46-.76-.48-1.15-.02-.4.07-.74.27-1.02.19-.28.47-.48.84-.58.36-.11.76-.05,1.21.16.19.14.37.25.53.32.16.07.38.18.66.32.27.12.57.22.9.28.34.06.65.07.95.04.6-.04,1.06-.14,1.39-.31.33-.17.56-.39.7-.66.14-.27.23-.61.25-1.01.03-.4.04-.84.04-1.34-.57.19-1.13.34-1.7.44-.57.1-1.15.11-1.75.04-1.17-.14-2.13-.56-2.88-1.25-.75-.69-1.3-1.51-1.64-2.47-.34-.95-.49-1.98-.42-3.06.06-1.09.31-2.09.76-3.01.27-.53.63-1.02,1.09-1.47.46-.45.98-.82,1.55-1.11.57-.29,1.18-.48,1.8-.57.63-.09,1.23-.04,1.82.16.34.12.66.25.98.37.32.12.63.28.93.48.34-.3.73-.45,1.18-.45s.84.21,1.15.64c.07.11.15.23.24.36.09.13.13.26.13.38.02,1.89.02,3.78.01,5.66,0,1.88-.01,3.77-.01,5.66,0,.76-.1,1.47-.3,2.12-.2.65-.51,1.23-.92,1.74-.41.5-.91.92-1.51,1.23-.6.32-1.3.52-2.1.61-.41.04-.8.05-1.19.05s-.79-.04-1.19-.13c-.57-.11-1.11-.28-1.63-.53-.52-.25-1.04-.52-1.55-.82l-.11-.11ZM178.67,268.87c.78.37,1.49.49,2.15.36.65-.13,1.32-.43,1.99-.89v-4.22c-.51-.51-1.01-.87-1.5-1.07-.49-.2-1.07-.26-1.74-.17-.12.07-.24.13-.36.19-.11.05-.23.11-.36.16-.37.42-.65.84-.85,1.23-.19.4-.31.8-.34,1.22-.04.42,0,.84.09,1.27.1.43.24.91.44,1.42.05.09.13.18.24.27.11.09.19.17.24.24Z"/>
    <path d="M192.41,264.89c.23.11.44.23.62.37.19.14.35.33.49.56.12.23.17.47.13.73-.04.26-.12.49-.25.7s-.31.39-.53.53c-.22.14-.46.22-.7.24-.42.04-.83-.04-1.22-.21-.39-.18-.74-.41-1.06-.69-.37-.32-.63-.71-.77-1.17-.18-.57-.23-1.07-.16-1.52.07-.45.23-.87.46-1.25.24-.38.54-.73.92-1.06.37-.33.75-.65,1.14-.97.19-.14.39-.29.6-.45.2-.16.4-.33.58-.5.19-.18.34-.37.48-.58.13-.21.21-.45.23-.72-.11-.44-.29-.73-.56-.86-.27-.13-.56-.17-.88-.11-.32.06-.65.19-.98.4-.34.2-.64.41-.9.62-.16.12-.3.27-.44.44-.13.17-.27.33-.41.49-.14.16-.3.3-.46.42-.17.12-.36.2-.57.24-.35.05-.68,0-.98-.15-.3-.15-.54-.36-.7-.62-.17-.27-.25-.56-.24-.89,0-.33.14-.64.38-.94.44-.53.92-1.01,1.45-1.45.52-.43,1.07-.8,1.66-1.09.58-.29,1.2-.49,1.86-.61.65-.11,1.33-.11,2.04.01.44.09.84.27,1.18.54.34.27.64.6.89.98.25.38.45.78.6,1.21.15.42.25.83.3,1.22.04.41,0,.82-.13,1.23-.12.42-.3.81-.53,1.18-.23.37-.5.72-.8,1.03-.3.32-.61.58-.93.8-.23.16-.48.34-.76.53-.27.19-.51.38-.72.57-.2.19-.35.35-.44.49-.09.14-.05.24.11.29ZM189.41,271.23c.07-.64.31-1.12.73-1.45.42-.33.86-.49,1.34-.5.48,0,.92.15,1.31.46.4.32.61.8.62,1.43.02.41-.06.76-.24,1.06-.18.3-.4.53-.68.7-.27.17-.58.27-.93.29-.34.03-.67-.03-.97-.16-.3-.13-.56-.35-.78-.65-.22-.3-.36-.7-.41-1.19Z"/>
  </g>
  <g>
    <path d="M180.36,91c.42.12.74.35.95.68.21.33.31.67.3,1.02,0,.35-.12.69-.33.99-.21.31-.52.51-.93.6v4.61c0,.44-.11.84-.33,1.18-.22.34-.49.59-.81.73-.32.14-.65.17-1.01.09-.35-.08-.67-.31-.95-.7-.12-.18-.21-.38-.25-.61-.04-.23-.07-.44-.07-.64v-4.59h-6.18v4.51c0,.19-.02.39-.05.6-.04.2-.1.38-.19.54-.23.42-.52.7-.88.82-.35.12-.7.12-1.03-.01-.34-.13-.62-.36-.86-.69-.24-.33-.36-.73-.36-1.21v-13.71c0-.46.14-.86.41-1.19.27-.34.59-.57.94-.7.35-.13.71-.14,1.07-.03.36.12.63.39.81.84.05.14.09.27.11.38.02.12.03.24.03.38v5.99h6.18v-5.68c0-.35.08-.69.24-1.01.19-.39.47-.66.84-.82.36-.16.72-.2,1.06-.13.34.07.65.24.9.52.26.27.38.65.38,1.13v6.1Z"/>
    <path d="M182.62,93.71c.12-.51.3-1.02.52-1.51.22-.49.49-.97.81-1.42.32-.45.68-.86,1.07-1.23s.83-.67,1.29-.9c.81-.42,1.63-.64,2.45-.65.82,0,1.59.16,2.29.49.71.34,1.31.84,1.8,1.5.49.66.82,1.45.98,2.37.09.6.14,1.17.15,1.71,0,.54-.05,1.1-.17,1.68-.18.83-.53,1.66-1.07,2.48-.54.82-1.18,1.51-1.94,2.07-.75.56-1.57.92-2.47,1.1-.89.18-1.79.04-2.69-.42-.41-.19-.77-.42-1.1-.68-.33-.26-.62-.56-.89-.92-.3-.39-.53-.8-.7-1.22-.17-.42-.3-.87-.41-1.33-.12-.49-.17-.99-.13-1.5.04-.5.1-.99.19-1.47l.03-.16ZM185.8,94.27c-.05.28-.1.56-.13.84-.04.27-.04.55,0,.84.05.41.16.78.33,1.11.17.34.39.6.66.8.27.19.59.3.94.3.35,0,.73-.1,1.14-.33.51-.3.95-.76,1.33-1.39.37-.63.6-1.28.69-1.96.09-.68.02-1.33-.21-1.94-.23-.61-.68-1.05-1.35-1.31-.44,0-.85.08-1.22.25-.37.17-.69.39-.97.66-.27.27-.51.6-.72.97-.2.37-.37.76-.49,1.17Z"/>
    <path d="M209.51,88.59c.27-.35.57-.6.92-.73s.67-.16.97-.08c.3.08.56.26.77.54.21.28.33.66.34,1.14.02.27-.09.74-.33,1.43s-.53,1.59-.86,2.71c-.02.07-.05.16-.09.27-.04.11-.11.28-.19.53-.08.25-.19.59-.34,1.03-.15.44-.36,1.03-.62,1.78-.12.37-.28.81-.46,1.33-.19.51-.42.97-.7,1.37-.28.4-.62.67-1.01.82-.39.15-.86.04-1.41-.33-.18-.12-.37-.38-.58-.76-.21-.38-.42-.79-.61-1.23-.19-.44-.37-.86-.52-1.26-.15-.4-.25-.66-.3-.78-.12-.28-.27-.6-.42-.94s-.31-.69-.45-1.05l-.16.4c-.23.58-.46,1.17-.69,1.75-.23.58-.46,1.16-.69,1.72-.12.3-.24.63-.34.98-.11.35-.26.66-.45.93-.16.23-.36.39-.6.49-.24.1-.48.14-.73.12-.25-.02-.48-.08-.7-.2-.22-.12-.41-.28-.57-.49-.25-.35-.44-.76-.58-1.22-.14-.46-.28-.88-.42-1.27-.19-.55-.37-1.11-.53-1.68-.16-.57-.33-1.13-.5-1.66-.09-.28-.2-.65-.34-1.11-.14-.46-.28-.93-.41-1.42-.13-.49-.24-.96-.32-1.42-.08-.46-.11-.84-.09-1.14.02-.3.12-.57.3-.81.19-.24.41-.42.68-.53.27-.11.54-.15.84-.12.29.04.55.17.78.4.34.35.54.73.61,1.13.07.4.15.83.24,1.29.14.71.3,1.41.49,2.09.19.69.38,1.38.6,2.07.07-.16.15-.35.24-.58.09-.23.23-.57.42-1.03.16-.39.31-.77.46-1.14.15-.37.3-.74.44-1.11.11-.27.21-.53.32-.78.11-.26.21-.51.32-.76.12-.27.31-.48.54-.65.24-.17.5-.27.78-.32.28-.04.56-.02.82.08.27.1.48.28.64.54.23.35.41.75.53,1.18.12.43.26.84.4,1.23.25.64.49,1.28.73,1.92.24.65.49,1.28.76,1.9.39-1.06.73-2.13,1.03-3.2.3-1.07.63-2.14.98-3.2l.11-.16Z"/>
    <path d="M230.08,92.46v-.37c-.16-.41-.42-.69-.77-.86-.35-.17-.73-.27-1.14-.3-.23.07-.42.15-.56.24-.14.09-.27.19-.37.29s-.2.23-.29.36c-.09.13-.19.27-.32.41v6.95c0,.55-.16.98-.49,1.29-.33.31-.69.49-1.09.53-.4.04-.76-.05-1.1-.29-.34-.24-.51-.64-.53-1.21-.04-1.36-.05-2.91-.04-4.64,0-1.73.01-3.67.01-5.81,0-.37.11-.68.33-.93.22-.25.49-.42.8-.5.31-.09.63-.08.95.01.33.1.6.3.81.6.99-.49,1.98-.65,2.96-.46.98.19,1.87.65,2.67,1.39.35-.35.73-.67,1.14-.95.41-.28.85-.47,1.33-.56.55-.09,1.1-.07,1.66.07s1.07.35,1.55.65c.48.3.9.67,1.26,1.11.36.44.63.92.81,1.43.09.35.13.67.13.95v7.21c0,.21-.03.42-.08.61-.16.46-.41.78-.76.97s-.7.25-1.06.2c-.36-.05-.68-.22-.94-.5-.27-.28-.4-.66-.4-1.14v-7.13c-.16-.42-.39-.73-.69-.93-.3-.19-.61-.28-.93-.27-.32.02-.62.13-.92.34s-.53.5-.7.88v6.95c0,.48-.16.88-.46,1.19-.31.32-.65.52-1.02.61-.37.09-.72.05-1.05-.11-.33-.16-.52-.48-.57-.95l-.13-7.32Z"/>
    <path d="M253.32,97.98c.16.23.25.5.28.81.03.31,0,.6-.11.88-.1.27-.26.5-.48.68-.22.18-.51.26-.86.24-.46-.04-.83-.19-1.11-.48-.28-.28-.55-.6-.8-.95-.69.57-1.4.96-2.13,1.18-.73.22-1.45.27-2.16.15-.71-.12-1.37-.42-1.99-.89-.62-.47-1.14-1.1-1.56-1.9-.39-.74-.61-1.56-.65-2.47-.04-.9-.06-1.76-.04-2.57,0-.28,0-.56.03-.84.02-.27.04-.56.05-.86.02-.23.03-.45.03-.68s.01-.43.04-.62c.03-.19.08-.39.16-.58.08-.19.2-.38.36-.56.21-.23.47-.37.77-.41.3-.04.59-.01.86.09.27.11.51.27.72.49.2.22.31.49.33.81.04.9.01,1.81-.07,2.73-.08.92-.08,1.82.01,2.71.04.42.15.86.33,1.3.19.44.48.76.89.95.41.18.82.16,1.23-.04.42-.2.76-.45,1.02-.73.12-.14.24-.3.36-.46.11-.17.24-.31.38-.44-.07-.62-.12-1.24-.13-1.86-.02-.62-.02-1.24,0-1.86,0-.34.01-.7.04-1.1.03-.4.1-.78.21-1.14.11-.36.29-.68.52-.95.23-.27.56-.45.98-.52.19-.04.38-.02.57.05.19.07.35.17.49.29.25.21.42.45.5.72.09.27.13.55.13.85s-.02.61-.07.91c-.04.31-.08.6-.09.86-.04.5-.06,1.02-.08,1.56-.02.55,0,1.1.05,1.64.05.55.15,1.08.3,1.59.15.51.38.98.68,1.41Z"/>
    <path d="M262.28,96.73c.44-.28.86-.41,1.26-.37.4.04.72.17.98.41.26.24.4.56.42.95.03.4-.11.82-.41,1.26-.19.3-.47.57-.84.82-.36.25-.71.44-1.05.58-.78.35-1.56.51-2.36.48-.8-.04-1.53-.23-2.21-.58-.68-.35-1.27-.84-1.76-1.47-.5-.63-.83-1.36-1.01-2.19-.35-1.59-.28-3.12.21-4.59.19-.53.43-1.04.7-1.54.27-.49.61-.95.99-1.35.39-.41.82-.76,1.3-1.07.48-.31,1-.52,1.56-.62.39-.07.88-.07,1.49.01.6.08,1.19.23,1.76.46.57.23,1.08.53,1.51.9.43.37.68.81.73,1.33.04.28,0,.54-.11.78-.11.24-.26.44-.45.6-.19.16-.42.27-.68.33-.26.06-.52.06-.78-.01-.32-.09-.57-.21-.76-.36-.19-.15-.43-.35-.73-.6-.14-.04-.27-.09-.4-.17-.12-.08-.26-.11-.4-.09l-.72.08c-.12.07-.24.13-.34.19-.11.05-.21.11-.32.16-.6.6-1.04,1.27-1.33,2-.28.73-.35,1.52-.21,2.37.09.55.26,1,.52,1.35.26.35.56.6.9.73.34.13.72.15,1.14.04.42-.11.83-.34,1.23-.72l.13-.11Z"/>
    <path d="M270.26,100.59c-.35.26-.72.38-1.1.36-.38-.02-.72-.17-1.01-.46s-.44-.69-.44-1.21v-14.74c0-.41.16-.75.48-1.03.32-.28.67-.46,1.06-.53.39-.07.75,0,1.09.19.34.19.52.56.56,1.09.07.92.1,1.82.09,2.69,0,.88-.02,1.75-.04,2.64.65-.44,1.33-.74,2.04-.89.71-.15,1.39-.15,2.04.01.65.16,1.26.48,1.83.95.57.48,1.03,1.14,1.38,1.99.25.57.42,1.17.5,1.82.09.65.14,1.3.15,1.96,0,.66,0,1.32-.03,1.98-.03.65-.04,1.27-.04,1.86,0,.37-.1.71-.29,1.01-.19.3-.44.52-.73.66-.29.14-.6.19-.93.13-.33-.05-.62-.25-.89-.58-.27-.35-.43-.77-.49-1.25-.06-.48-.08-.99-.05-1.52.03-.54.07-1.09.12-1.66.05-.57.07-1.11.04-1.63s-.13-1-.3-1.45c-.18-.44-.49-.8-.93-1.09-.35-.05-.67-.03-.95.07-.28.1-.54.24-.77.44-.23.19-.45.42-.65.66-.2.25-.41.5-.62.74-.05.09-.12.17-.19.25-.07.08-.15.16-.24.25v5.04c-.11.58-.34,1-.69,1.26Z"/>
    <path d="M291.08,84.22c.07-.65.3-1.14.68-1.45.38-.31.78-.46,1.21-.45.42,0,.82.17,1.18.49.36.32.55.77.57,1.35.04.6-.12,1.07-.46,1.39-.34.33-.74.51-1.18.56-.44.04-.86-.08-1.25-.36-.39-.28-.63-.73-.72-1.35l-.03-.19ZM294.58,99.3c-.04.35-.16.67-.37.94s-.46.47-.73.6c-.27.12-.57.15-.89.08-.32-.07-.6-.27-.85-.58-.14-.18-.24-.38-.3-.6-.06-.22-.1-.45-.12-.69-.02-.24-.02-.48-.01-.72,0-.24.01-.46.01-.65-.02-1.04-.02-2.08-.01-3.1,0-1.03,0-2.06-.01-3.1,0-.42-.03-.85-.08-1.29-.05-.43-.03-.86.08-1.29.09-.32.24-.59.46-.82.22-.23.47-.39.74-.48.27-.09.56-.1.85-.03.29.07.54.26.76.56.28.35.42.7.42,1.05v3.06c0,.6,0,1.19.03,1.78.02.85.03,1.7.03,2.55v2.73Z"/>
    <path d="M296.88,98.27c-.11-.3-.15-.6-.13-.89.02-.29.09-.56.23-.8.13-.24.32-.42.57-.56.25-.13.55-.18.9-.15.19.02.37.07.53.16.16.09.3.19.44.32.13.12.27.26.4.4.13.14.27.27.41.37.3.23.62.4.95.5.34.11.69.19,1.06.24.25,0,.45-.06.6-.19.15-.12.25-.27.3-.45.05-.18.07-.37.04-.57-.03-.2-.09-.37-.2-.49-.3-.3-.67-.49-1.1-.58-.43-.09-.84-.19-1.21-.32-.53-.18-1.05-.4-1.56-.68-.51-.27-.93-.65-1.25-1.13-.34-.49-.53-1.02-.6-1.58-.06-.56-.02-1.1.13-1.63.15-.53.4-1.02.76-1.46.35-.44.78-.8,1.27-1.09.37-.21.78-.35,1.22-.41.44-.06.89-.08,1.34-.04.45.04.9.12,1.34.25.44.13.85.28,1.22.44.42.19.74.47.95.82.21.35.31.71.3,1.07,0,.36-.13.68-.37.94-.24.27-.59.4-1.05.4-.28,0-.54-.05-.77-.15-.23-.1-.47-.19-.72-.28-.32-.12-.66-.21-1.03-.25-.37-.04-.67-.02-.9.07-.07.02-.15.08-.24.17-.09.1-.15.22-.2.36-.04.14-.05.28-.03.42.03.14.12.26.28.34.42.23.88.41,1.35.53.48.12.95.27,1.41.42.46.16.89.36,1.29.61.4.25.73.6.99,1.06.39.67.59,1.37.6,2.11,0,.73-.14,1.42-.44,2.06-.3.64-.74,1.18-1.33,1.63-.58.45-1.26.72-2.04.81-.55.05-1.09.02-1.62-.09-.53-.12-1.04-.3-1.54-.56-.5-.26-.95-.56-1.38-.92-.42-.35-.8-.72-1.11-1.11l-.08-.16Z"/>
    <path d="M327.12,88.35c.21-.35.48-.6.8-.73s.63-.16.94-.09c.31.07.58.23.82.48.24.25.38.57.44.98.04.3-.02.73-.17,1.27-.15.55-.34,1.11-.56,1.7-.22.58-.45,1.14-.68,1.67-.23.53-.42.95-.56,1.25-.6,1.33-1.26,2.63-1.96,3.9-.71,1.27-1.43,2.54-2.17,3.79-.11.19-.23.43-.37.72-.14.28-.29.57-.44.88-.15.3-.3.58-.46.85-.16.27-.31.46-.45.58-.32.3-.65.48-.98.53-.34.05-.64,0-.92-.13-.27-.14-.5-.36-.66-.66-.17-.3-.23-.66-.2-1.09.02-.16.09-.37.21-.62.12-.26.27-.52.42-.8.16-.27.32-.53.48-.78.16-.25.28-.45.37-.61.35-.58.69-1.17,1.02-1.75.33-.58.66-1.17.99-1.75-1.17-.97-2.18-2.06-3.04-3.25-.86-1.19-1.52-2.51-1.98-3.94-.09-.25-.18-.49-.27-.74-.09-.25-.11-.5-.08-.77.04-.3.12-.57.25-.81.13-.24.31-.43.52-.58.21-.15.45-.23.73-.25.27-.02.55.04.84.19.23.12.41.3.54.52.13.22.24.46.33.72.09.26.16.52.23.78.06.27.14.5.23.72.71,1.75,1.78,3.24,3.21,4.48.51-1.06.97-2.13,1.38-3.2.41-1.07.77-2.16,1.09-3.28l.11-.16Z"/>
    <path d="M330.62,93.71c.12-.51.3-1.02.52-1.51.22-.49.49-.97.81-1.42.32-.45.68-.86,1.07-1.23s.83-.67,1.29-.9c.81-.42,1.63-.64,2.45-.65.82,0,1.59.16,2.29.49.71.34,1.31.84,1.8,1.5.49.66.82,1.45.98,2.37.09.6.14,1.17.15,1.71,0,.54-.05,1.1-.17,1.68-.18.83-.53,1.66-1.07,2.48-.54.82-1.18,1.51-1.94,2.07-.75.56-1.57.92-2.47,1.1-.89.18-1.79.04-2.69-.42-.41-.19-.77-.42-1.1-.68-.33-.26-.62-.56-.89-.92-.3-.39-.53-.8-.7-1.22-.17-.42-.3-.87-.41-1.33-.12-.49-.17-.99-.13-1.5.04-.5.1-.99.19-1.47l.03-.16ZM333.8,94.27c-.05.28-.1.56-.13.84-.04.27-.04.55,0,.84.05.41.16.78.33,1.11.17.34.39.6.66.8.27.19.59.3.94.3.35,0,.73-.1,1.14-.33.51-.3.95-.76,1.33-1.39.37-.63.6-1.28.69-1.96.09-.68.02-1.33-.21-1.94-.23-.61-.68-1.05-1.35-1.31-.44,0-.85.08-1.22.25-.37.17-.69.39-.97.66-.27.27-.51.6-.72.97-.2.37-.37.76-.49,1.17Z"/>
    <path d="M355.47,97.98c.16.23.25.5.28.81.03.31,0,.6-.11.88-.1.27-.26.5-.48.68-.22.18-.51.26-.86.24-.46-.04-.83-.19-1.11-.48-.28-.28-.55-.6-.8-.95-.69.57-1.4.96-2.13,1.18-.73.22-1.45.27-2.16.15-.71-.12-1.37-.42-1.99-.89-.62-.47-1.14-1.1-1.56-1.9-.39-.74-.61-1.56-.65-2.47-.04-.9-.06-1.76-.04-2.57,0-.28,0-.56.03-.84.02-.27.04-.56.05-.86.02-.23.03-.45.03-.68s.01-.43.04-.62c.03-.19.08-.39.16-.58.08-.19.2-.38.36-.56.21-.23.47-.37.77-.41.3-.04.59-.01.86.09.27.11.51.27.72.49.2.22.31.49.33.81.04.9.01,1.81-.07,2.73-.08.92-.08,1.82.01,2.71.04.42.15.86.33,1.3.19.44.48.76.89.95.41.18.82.16,1.23-.04.42-.2.76-.45,1.02-.73.12-.14.24-.3.36-.46.11-.17.24-.31.38-.44-.07-.62-.12-1.24-.13-1.86-.02-.62-.02-1.24,0-1.86,0-.34.01-.7.04-1.1.03-.4.1-.78.21-1.14.11-.36.29-.68.52-.95.23-.27.56-.45.98-.52.19-.04.38-.02.57.05.19.07.35.17.49.29.25.21.42.45.5.72.09.27.13.55.13.85s-.02.61-.07.91c-.04.31-.08.6-.09.86-.04.5-.06,1.02-.08,1.56-.02.55,0,1.1.05,1.64.05.55.15,1.08.3,1.59.15.51.38.98.68,1.41Z"/>
    <path d="M358.35,91.87c.02-.11,0-.32-.03-.62-.28-.16-.5-.36-.66-.61-.16-.25-.25-.51-.28-.8-.03-.28.03-.55.16-.81.13-.26.35-.47.65-.65.41-.23.85-.27,1.34-.13.49.14.91.35,1.26.64.44-.34.9-.62,1.38-.85.48-.23.96-.38,1.46-.46.49-.08,1-.07,1.51.04.51.11,1.02.33,1.51.66.25.16.48.36.69.6.21.24.34.51.4.81.09.44.05.83-.11,1.15-.16.33-.38.57-.66.72-.28.15-.6.19-.95.13-.35-.06-.69-.25-1.01-.57-.11-.07-.18-.13-.23-.17-.04-.04-.14-.1-.28-.17-.28-.07-.56-.05-.84.05-.27.11-.54.25-.8.44-.26.19-.5.39-.72.61l-.6.6v6.76c0,.27-.05.52-.16.77-.16.41-.41.69-.76.85-.34.16-.69.2-1.03.13-.34-.07-.65-.25-.9-.53-.26-.28-.38-.65-.38-1.09v-7.43c0,.07,0,.05.03-.07Z"/>
    <path d="M385.03,92.46v-.37c-.16-.41-.42-.69-.77-.86-.35-.17-.73-.27-1.14-.3-.23.07-.42.15-.56.24-.14.09-.27.19-.37.29s-.2.23-.29.36c-.09.13-.19.27-.32.41v6.95c0,.55-.16.98-.49,1.29-.33.31-.69.49-1.09.53-.4.04-.76-.05-1.1-.29-.34-.24-.51-.64-.53-1.21-.04-1.36-.05-2.91-.04-4.64,0-1.73.01-3.67.01-5.81,0-.37.11-.68.33-.93.22-.25.49-.42.8-.5.31-.09.63-.08.95.01.33.1.6.3.81.6.99-.49,1.98-.65,2.96-.46.98.19,1.87.65,2.67,1.39.35-.35.73-.67,1.14-.95.41-.28.85-.47,1.33-.56.55-.09,1.1-.07,1.66.07s1.07.35,1.55.65c.48.3.9.67,1.26,1.11.36.44.63.92.81,1.43.09.35.13.67.13.95v7.21c0,.21-.03.42-.08.61-.16.46-.41.78-.76.97s-.7.25-1.06.2c-.36-.05-.68-.22-.94-.5-.27-.28-.4-.66-.4-1.14v-7.13c-.16-.42-.39-.73-.69-.93-.3-.19-.61-.28-.93-.27-.32.02-.62.13-.92.34s-.53.5-.7.88v6.95c0,.48-.16.88-.46,1.19-.31.32-.65.52-1.02.61-.37.09-.72.05-1.05-.11-.33-.16-.52-.48-.57-.95l-.13-7.32Z"/>
    <path d="M396.36,93.71c.12-.51.3-1.02.52-1.51.22-.49.49-.97.81-1.42.32-.45.68-.86,1.07-1.23s.83-.67,1.29-.9c.81-.42,1.63-.64,2.45-.65.82,0,1.59.16,2.29.49.71.34,1.31.84,1.8,1.5.49.66.82,1.45.98,2.37.09.6.14,1.17.15,1.71,0,.54-.05,1.1-.17,1.68-.18.83-.53,1.66-1.07,2.48-.54.82-1.18,1.51-1.94,2.07-.75.56-1.57.92-2.47,1.1-.89.18-1.79.04-2.69-.42-.41-.19-.77-.42-1.1-.68-.33-.26-.62-.56-.89-.92-.3-.39-.53-.8-.7-1.22-.17-.42-.3-.87-.41-1.33-.12-.49-.17-.99-.13-1.5.04-.5.1-.99.19-1.47l.03-.16ZM399.54,94.27c-.05.28-.1.56-.13.84-.04.27-.04.55,0,.84.05.41.16.78.33,1.11.17.34.39.6.66.8.27.19.59.3.94.3.35,0,.73-.1,1.14-.33.51-.3.95-.76,1.33-1.39.37-.63.6-1.28.69-1.96.09-.68.02-1.33-.21-1.94-.23-.61-.68-1.05-1.35-1.31-.44,0-.85.08-1.22.25-.37.17-.69.39-.97.66-.27.27-.51.6-.72.97-.2.37-.37.76-.49,1.17Z"/>
    <path d="M420.22,99.36c-.05.44-.22.8-.49,1.09-.27.28-.58.46-.93.53-.34.07-.68.03-.99-.13-.32-.16-.55-.47-.69-.93-.16-.49-.22-1.01-.19-1.55.04-.54.05-1.04.05-1.5,0-.95,0-1.9.01-2.85,0-.95-.03-1.9-.12-2.85-.02-.04-.04-.07-.05-.09-.02-.03-.05-.07-.11-.12-.41-.11-.84-.08-1.3.08-.46.16-.85.36-1.17.61-.28.23-.56.54-.84.94-.27.4-.41.78-.41,1.15v3.66c0,.28,0,.59.03.93.02.34,0,.66-.04.98-.04.32-.15.61-.3.88-.16.27-.42.46-.77.58-.19.07-.38.1-.54.08-.17-.02-.35-.06-.54-.13-.32-.11-.55-.29-.69-.54-.14-.26-.24-.53-.29-.82-.05-.29-.08-.57-.07-.85,0-.27.01-.49.01-.65,0-.41,0-.99-.01-1.76,0-.77-.01-1.58-.01-2.43v-4.19c0-.39.11-.71.34-.97.23-.26.5-.42.81-.5.31-.08.64-.06.98.05.34.12.63.35.86.7.71-.46,1.48-.77,2.33-.93.85-.16,1.65-.13,2.4.08.75.21,1.38.61,1.88,1.19.5.58.76,1.39.78,2.41,0,.04,0,.14.03.32.02.18.03.42.03.74v6.79Z"/>
    <path d="M423.51,91.22c-.35-.09-.66-.24-.92-.45-.26-.21-.43-.46-.53-.74-.1-.28-.1-.57,0-.88.1-.3.31-.57.65-.82.28-.21.6-.32.95-.32h1.03c0-.12,0-.39-.03-.81-.02-.42-.02-.87-.01-1.37,0-.49.04-.97.09-1.42.05-.45.15-.76.29-.94.35-.49.79-.73,1.31-.7.52.03.95.28,1.29.76.07.09.14.19.2.32.06.12.09.24.09.34.02.64.02,1.27.01,1.91,0,.64-.01,1.27-.01,1.91h2.09c.32,0,.59.11.82.32.23.21.39.46.49.74.1.28.12.57.08.88-.04.3-.18.55-.41.74-.41.34-.88.51-1.42.53-.54.02-1.09.03-1.66.03,0,.97,0,1.95-.01,2.92,0,.97,0,1.94.01,2.92,0,.42.02.86.07,1.3.04.44.01.87-.09,1.27-.09.32-.24.57-.45.76-.21.19-.45.3-.72.34-.27.04-.54.03-.82-.05-.28-.08-.55-.23-.8-.44-.12-.12-.22-.34-.28-.64-.06-.3-.1-.62-.12-.95-.02-.39-.02-.8,0-1.25v-1.38c0-.57,0-1.15-.01-1.76,0-.61-.01-1.19-.01-1.74v-1.3l-1.19-.03Z"/>
    <path d="M435.82,100.59c-.35.26-.72.38-1.1.36-.38-.02-.72-.17-1.01-.46s-.44-.69-.44-1.21v-14.74c0-.41.16-.75.48-1.03.32-.28.67-.46,1.06-.53.39-.07.75,0,1.09.19.34.19.52.56.56,1.09.07.92.1,1.82.09,2.69,0,.88-.02,1.75-.04,2.64.65-.44,1.33-.74,2.04-.89.71-.15,1.39-.15,2.04.01.65.16,1.26.48,1.83.95.57.48,1.03,1.14,1.38,1.99.25.57.42,1.17.5,1.82.09.65.14,1.3.15,1.96,0,.66,0,1.32-.03,1.98-.03.65-.04,1.27-.04,1.86,0,.37-.1.71-.29,1.01-.19.3-.44.52-.73.66-.29.14-.6.19-.93.13-.33-.05-.62-.25-.89-.58-.27-.35-.43-.77-.49-1.25-.06-.48-.08-.99-.05-1.52.03-.54.07-1.09.12-1.66.05-.57.07-1.11.04-1.63s-.13-1-.3-1.45c-.18-.44-.49-.8-.93-1.09-.35-.05-.67-.03-.95.07-.28.1-.54.24-.77.44-.23.19-.45.42-.65.66-.2.25-.41.5-.62.74-.05.09-.12.17-.19.25-.07.08-.15.16-.24.25v5.04c-.11.58-.34,1-.69,1.26Z"/>
    <path d="M450.53,98.4c.19.18.36.4.49.68.13.27.2.55.21.82,0,.27-.05.53-.19.77-.13.24-.37.42-.7.54-.27.09-.56.11-.88.05-.32-.05-.63-.16-.94-.32-.31-.16-.58-.35-.82-.57-.24-.22-.41-.46-.52-.73-.04-.09-.06-.19-.08-.31-.02-.11-.03-.22-.03-.3v-14.72c0-.41.15-.75.46-1.03.31-.28.65-.45,1.02-.5.18-.02.37,0,.57.08.2.07.39.17.57.3.18.13.32.29.44.46.11.18.17.36.17.56v1.83c0,.76,0,1.59.01,2.49,0,.9.01,1.83.01,2.8s0,1.89-.01,2.77c0,.88-.01,1.69-.01,2.43s0,1.32-.03,1.76l.24.13Z"/>
    <path d="M462.2,88.35c.21-.35.48-.6.8-.73s.63-.16.94-.09c.31.07.58.23.82.48.24.25.38.57.44.98.04.3-.02.73-.17,1.27-.15.55-.34,1.11-.56,1.7-.22.58-.45,1.14-.68,1.67-.23.53-.42.95-.56,1.25-.6,1.33-1.26,2.63-1.96,3.9-.71,1.27-1.43,2.54-2.17,3.79-.11.19-.23.43-.37.72-.14.28-.29.57-.44.88-.15.3-.3.58-.46.85-.16.27-.31.46-.45.58-.32.3-.65.48-.98.53-.34.05-.64,0-.92-.13-.27-.14-.5-.36-.66-.66-.17-.3-.23-.66-.2-1.09.02-.16.09-.37.21-.62.12-.26.27-.52.42-.8.16-.27.32-.53.48-.78.16-.25.28-.45.37-.61.35-.58.69-1.17,1.02-1.75.33-.58.66-1.17.99-1.75-1.17-.97-2.18-2.06-3.04-3.25-.86-1.19-1.52-2.51-1.98-3.94-.09-.25-.18-.49-.27-.74-.09-.25-.11-.5-.08-.77.04-.3.12-.57.25-.81.13-.24.31-.43.52-.58.21-.15.45-.23.73-.25.27-.02.55.04.84.19.23.12.41.3.54.52.13.22.24.46.33.72.09.26.16.52.23.78.06.27.14.5.23.72.71,1.75,1.78,3.24,3.21,4.48.51-1.06.97-2.13,1.38-3.2.41-1.07.77-2.16,1.09-3.28l.11-.16Z"/>
    <path d="M480.69,98.4c.19.18.36.4.49.68.13.27.2.55.21.82,0,.27-.05.53-.19.77-.13.24-.37.42-.7.54-.27.09-.56.11-.88.05-.32-.05-.63-.16-.94-.32-.31-.16-.58-.35-.82-.57-.24-.22-.41-.46-.52-.73-.04-.09-.06-.19-.08-.31-.02-.11-.03-.22-.03-.3v-14.72c0-.41.15-.75.46-1.03.31-.28.65-.45,1.02-.5.18-.02.37,0,.57.08.2.07.39.17.57.3.18.13.32.29.44.46.11.18.17.36.17.56v1.83c0,.76,0,1.59.01,2.49,0,.9.01,1.83.01,2.8s0,1.89-.01,2.77c0,.88-.01,1.69-.01,2.43s0,1.32-.03,1.76l.24.13Z"/>
    <path d="M483.52,84.22c.07-.65.3-1.14.68-1.45.38-.31.78-.46,1.21-.45.42,0,.82.17,1.18.49.36.32.55.77.57,1.35.04.6-.12,1.07-.46,1.39-.34.33-.74.51-1.18.56-.44.04-.86-.08-1.25-.36-.39-.28-.63-.73-.72-1.35l-.03-.19ZM487.02,99.3c-.04.35-.16.67-.37.94s-.46.47-.73.6c-.27.12-.57.15-.89.08-.32-.07-.6-.27-.85-.58-.14-.18-.24-.38-.3-.6-.06-.22-.1-.45-.12-.69-.02-.24-.02-.48-.01-.72,0-.24.01-.46.01-.65-.02-1.04-.02-2.08-.01-3.1,0-1.03,0-2.06-.01-3.1,0-.42-.03-.85-.08-1.29-.05-.43-.03-.86.08-1.29.09-.32.24-.59.46-.82.22-.23.47-.39.74-.48.27-.09.56-.1.85-.03.29.07.54.26.76.56.28.35.42.7.42,1.05v3.06c0,.6,0,1.19.03,1.78.02.85.03,1.7.03,2.55v2.73Z"/>
    <path d="M497,88.59c.27-.35.57-.6.91-.73s.67-.16.97-.08c.3.08.56.26.77.54.21.28.33.66.34,1.14,0,.12-.02.28-.07.48-.04.19-.1.39-.17.6-.07.2-.13.39-.19.56-.05.17-.09.28-.11.33-.3.95-.65,1.98-1.05,3.09-.4,1.11-.76,2.13-1.1,3.09-.14.41-.29.79-.44,1.15-.15.36-.3.74-.46,1.13-.12.32-.3.57-.54.77-.24.19-.5.32-.77.37-.27.05-.55.03-.84-.08-.28-.11-.53-.3-.74-.58-.14-.19-.26-.44-.36-.74-.1-.3-.17-.52-.23-.66-.19-.51-.39-1.02-.58-1.51-.19-.49-.39-.99-.58-1.49-.27-.67-.54-1.33-.82-1.99-.28-.65-.57-1.3-.88-1.94-.18-.39-.37-.77-.58-1.14s-.37-.76-.48-1.17c-.11-.37-.09-.7.04-.99s.33-.52.58-.68c.26-.16.55-.25.88-.27.33-.02.64.07.94.27.23.14.44.36.64.66.19.3.37.63.53.98.16.35.3.7.44,1.05.13.34.25.63.36.86.25.57.49,1.13.73,1.7.24.57.47,1.13.7,1.7.37-1.04.73-2.08,1.07-3.12.34-1.03.67-2.08.97-3.14l.11-.16Z"/>
    <path d="M501.77,84.22c.07-.65.3-1.14.68-1.45.38-.31.78-.46,1.21-.45.42,0,.82.17,1.18.49.36.32.55.77.57,1.35.04.6-.12,1.07-.46,1.39-.34.33-.74.51-1.18.56-.44.04-.86-.08-1.25-.36-.39-.28-.63-.73-.72-1.35l-.03-.19ZM505.27,99.3c-.04.35-.16.67-.37.94s-.46.47-.73.6c-.27.12-.57.15-.89.08-.32-.07-.6-.27-.85-.58-.14-.18-.24-.38-.3-.6-.06-.22-.1-.45-.12-.69-.02-.24-.02-.48-.01-.72,0-.24.01-.46.01-.65-.02-1.04-.02-2.08-.01-3.1,0-1.03,0-2.06-.01-3.1,0-.42-.03-.85-.08-1.29-.05-.43-.03-.86.08-1.29.09-.32.24-.59.46-.82.22-.23.47-.39.74-.48.27-.09.56-.1.85-.03.29.07.54.26.76.56.28.35.42.7.42,1.05v3.06c0,.6,0,1.19.03,1.78.02.85.03,1.7.03,2.55v2.73Z"/>
    <path d="M518.79,99.36c-.05.44-.22.8-.49,1.09-.27.28-.58.46-.93.53-.34.07-.68.03-.99-.13-.32-.16-.55-.47-.69-.93-.16-.49-.22-1.01-.19-1.55.04-.54.05-1.04.05-1.5,0-.95,0-1.9.01-2.85,0-.95-.03-1.9-.12-2.85-.02-.04-.04-.07-.05-.09-.02-.03-.05-.07-.11-.12-.41-.11-.84-.08-1.3.08-.46.16-.85.36-1.17.61-.28.23-.56.54-.84.94-.27.4-.41.78-.41,1.15v3.66c0,.28,0,.59.03.93.02.34,0,.66-.04.98-.04.32-.15.61-.3.88-.16.27-.42.46-.77.58-.19.07-.38.1-.54.08-.17-.02-.35-.06-.54-.13-.32-.11-.55-.29-.69-.54-.14-.26-.24-.53-.29-.82-.05-.29-.08-.57-.07-.85,0-.27.01-.49.01-.65,0-.41,0-.99-.01-1.76,0-.77-.01-1.58-.01-2.43v-4.19c0-.39.11-.71.34-.97.23-.26.5-.42.81-.5.31-.08.64-.06.98.05.34.12.63.35.86.7.71-.46,1.48-.77,2.33-.93.85-.16,1.65-.13,2.4.08.75.21,1.38.61,1.88,1.19.5.58.76,1.39.78,2.41,0,.04,0,.14.03.32.02.18.03.42.03.74v6.79Z"/>
    <path d="M522.14,105.59c-.3-.37-.46-.76-.48-1.15-.02-.4.07-.74.27-1.02.19-.28.47-.48.84-.58.36-.11.76-.05,1.21.16.19.14.37.25.53.32.16.07.38.18.66.32.27.12.57.22.9.28.34.06.65.07.95.04.6-.04,1.06-.14,1.39-.31.33-.17.56-.39.7-.66.14-.27.23-.61.25-1.01.03-.4.04-.84.04-1.34-.57.19-1.13.34-1.7.44-.57.1-1.15.11-1.75.04-1.17-.14-2.13-.56-2.88-1.25-.75-.69-1.3-1.51-1.64-2.47-.34-.95-.49-1.98-.42-3.06.06-1.09.31-2.09.76-3.01.27-.53.63-1.02,1.09-1.47.46-.45.98-.82,1.55-1.11.57-.29,1.18-.48,1.8-.57.63-.09,1.23-.04,1.82.16.34.12.66.25.98.37.32.12.63.28.93.48.34-.3.73-.45,1.18-.45s.84.21,1.15.64c.07.11.15.23.24.36.09.13.13.26.13.38.02,1.89.02,3.78.01,5.66,0,1.88-.01,3.77-.01,5.66,0,.76-.1,1.47-.3,2.12-.2.65-.51,1.23-.92,1.74-.41.5-.91.92-1.51,1.23-.6.32-1.3.52-2.1.61-.41.04-.8.05-1.19.05s-.79-.04-1.19-.13c-.57-.11-1.11-.28-1.63-.53-.52-.25-1.04-.52-1.55-.82l-.11-.11ZM525.27,97.5c.78.37,1.49.49,2.15.36.65-.13,1.32-.43,1.99-.89v-4.22c-.51-.51-1.01-.87-1.5-1.07-.49-.2-1.07-.26-1.74-.17-.12.07-.24.13-.36.19-.11.05-.23.11-.36.16-.37.42-.65.84-.85,1.23-.19.4-.31.8-.34,1.22-.04.42,0,.84.09,1.27.1.43.24.91.44,1.42.05.09.13.18.24.27.11.09.19.17.24.24Z"/>
    <path d="M554.06,96.49c.42-.11.8-.11,1.13-.01.33.1.58.26.76.49.18.23.26.51.24.85-.02.34-.17.69-.45,1.06-.23.3-.55.56-.95.77-.41.21-.79.38-1.14.5-.87.32-1.69.54-2.47.66-.78.12-1.51.12-2.19,0-.68-.12-1.32-.38-1.91-.77-.59-.39-1.15-.94-1.66-1.64-.35-.48-.61-1.02-.78-1.63-.17-.61-.26-1.23-.28-1.87-.02-.64.04-1.26.16-1.88.12-.62.3-1.18.53-1.67.3-.62.78-1.18,1.43-1.7.65-.51,1.38-.92,2.17-1.22.8-.3,1.61-.47,2.44-.52.83-.04,1.56.08,2.2.38.53.25.99.61,1.37,1.07.38.47.64.98.78,1.52.14.55.15,1.1.04,1.66-.11.56-.4,1.07-.86,1.52s-.93.8-1.46,1.07c-.53.27-1.08.51-1.64.72-.57.2-1.14.38-1.74.52-.59.14-1.16.3-1.71.48.37.42.8.69,1.27.81.48.12.98.14,1.5.07.52-.07,1.05-.22,1.58-.44.53-.22,1.03-.46,1.49-.73l.16-.08ZM548.71,91.93c-.41.23-.71.52-.9.86-.19.34-.34.83-.42,1.45.46-.14.98-.29,1.55-.45.57-.16,1.12-.33,1.63-.5.51-.18.95-.37,1.3-.58.35-.21.53-.44.53-.69,0-.14-.02-.28-.07-.41-.04-.13-.14-.23-.28-.28-.5-.18-1.01-.21-1.54-.11-.53.11-.97.26-1.33.45l-.48.27Z"/>
    <path d="M566.08,87.93c.35-.23.71-.35,1.07-.36.36,0,.68.07.95.23.27.16.47.4.58.72.11.32.1.7-.04,1.14-.14.35-.38.68-.72.98-.34.3-.63.57-.88.82-.39.41-.77.8-1.14,1.19-.37.39-.74.79-1.11,1.19.55.64,1.08,1.29,1.59,1.95.51.66,1,1.35,1.46,2.06.18.27.35.53.53.8.18.27.28.56.32.88.05.39-.03.73-.24,1.02-.21.29-.48.5-.8.64-.32.13-.65.16-.99.09-.34-.07-.63-.27-.86-.61-.51-.74-1.02-1.48-1.52-2.2-.5-.72-1.04-1.43-1.6-2.12-.41.5-.8,1-1.17,1.51-.37.51-.73,1.03-1.09,1.56-.12.19-.24.39-.34.58-.11.19-.24.36-.4.5-.32.32-.68.5-1.07.56-.4.05-.75,0-1.06-.16-.31-.16-.53-.4-.68-.73-.14-.33-.13-.7.03-1.13.16-.41.39-.84.69-1.31.3-.47.62-.93.97-1.39.34-.46.69-.91,1.05-1.34.35-.43.66-.81.93-1.13-.23-.25-.42-.45-.57-.61-.15-.16-.28-.3-.4-.42-.12-.12-.23-.25-.36-.38-.12-.13-.29-.3-.5-.52-.16-.16-.34-.32-.53-.49-.19-.17-.38-.35-.56-.54-.18-.19-.34-.4-.49-.61-.15-.21-.26-.43-.33-.66-.09-.32-.08-.61.03-.89.11-.27.27-.5.49-.69.22-.19.48-.3.78-.36.3-.05.59,0,.88.13.16.09.29.17.38.24.1.07.21.17.33.29.11.12.28.3.52.52.24.22.5.47.78.74.28.27.57.57.88.88.3.31.57.61.82.89.51-.58,1.04-1.15,1.59-1.7.55-.55,1.1-1.1,1.67-1.64l.13-.11Z"/>
    <path d="M570.69,89.15c.12-.42.32-.75.6-.97.27-.22.57-.35.88-.38.31-.04.61.02.89.16.28.14.5.36.66.66.19-.11.39-.2.58-.29.19-.09.42-.17.66-.24,1.13-.3,2.14-.28,3.01.07.88.34,1.6.88,2.19,1.59.58.72,1,1.56,1.25,2.52.25.96.3,1.93.17,2.89-.13.96-.47,1.87-1.02,2.71-.55.84-1.34,1.49-2.36,1.95-.67.3-1.37.49-2.11.57-.73.08-1.46.09-2.19.04,0,.02,0,.16.01.42,0,.27.01.6.01,1.01v1.33c0,.48-.01.94-.04,1.38-.03.44-.06.84-.11,1.18-.04.34-.11.58-.2.7-.23.34-.51.55-.85.64-.34.09-.65.07-.95-.04-.3-.12-.56-.31-.78-.58-.22-.27-.33-.61-.33-.99v-16.15l.03-.16ZM574.09,92.6c-.05.09-.08.13-.08.12s-.04.02-.11.09v4.38c.35.05.71.08,1.06.08s.72-.05,1.11-.16c.8-.19,1.42-.58,1.88-1.15.46-.57.64-1.29.53-2.13-.05-.35-.16-.72-.3-1.1-.15-.38-.35-.7-.6-.97-.25-.27-.54-.45-.88-.56-.34-.11-.72-.07-1.14.11-.3.12-.57.31-.81.56-.24.25-.46.5-.68.74Z"/>
    <path d="M593.53,96.49c.42-.11.8-.11,1.13-.01.33.1.58.26.76.49.18.23.26.51.24.85-.02.34-.17.69-.45,1.06-.23.3-.55.56-.95.77-.41.21-.79.38-1.14.5-.87.32-1.69.54-2.47.66-.78.12-1.51.12-2.19,0-.68-.12-1.32-.38-1.91-.77-.59-.39-1.15-.94-1.66-1.64-.35-.48-.61-1.02-.78-1.63-.17-.61-.26-1.23-.28-1.87-.02-.64.04-1.26.16-1.88.12-.62.3-1.18.53-1.67.3-.62.78-1.18,1.43-1.7.65-.51,1.38-.92,2.17-1.22.8-.3,1.61-.47,2.44-.52.83-.04,1.56.08,2.2.38.53.25.99.61,1.37,1.07.38.47.64.98.78,1.52.14.55.15,1.1.04,1.66-.11.56-.4,1.07-.86,1.52s-.93.8-1.46,1.07c-.53.27-1.08.51-1.64.72-.57.2-1.14.38-1.74.52-.59.14-1.16.3-1.71.48.37.42.8.69,1.27.81.48.12.98.14,1.5.07.52-.07,1.05-.22,1.58-.44.53-.22,1.03-.46,1.49-.73l.16-.08ZM588.17,91.93c-.41.23-.71.52-.9.86-.19.34-.34.83-.42,1.45.46-.14.98-.29,1.55-.45.57-.16,1.12-.33,1.63-.5.51-.18.95-.37,1.3-.58.35-.21.53-.44.53-.69,0-.14-.02-.28-.07-.41-.04-.13-.14-.23-.28-.28-.5-.18-1.01-.21-1.54-.11-.53.11-.97.26-1.33.45l-.48.27Z"/>
    <path d="M607.69,99.36c-.05.44-.22.8-.49,1.09-.27.28-.58.46-.93.53-.34.07-.68.03-.99-.13-.32-.16-.55-.47-.69-.93-.16-.49-.22-1.01-.19-1.55.04-.54.05-1.04.05-1.5,0-.95,0-1.9.01-2.85,0-.95-.03-1.9-.12-2.85-.02-.04-.04-.07-.05-.09-.02-.03-.05-.07-.11-.12-.41-.11-.84-.08-1.3.08-.46.16-.85.36-1.17.61-.28.23-.56.54-.84.94-.27.4-.41.78-.41,1.15v3.66c0,.28,0,.59.03.93.02.34,0,.66-.04.98-.04.32-.15.61-.3.88-.16.27-.42.46-.77.58-.19.07-.38.1-.54.08-.17-.02-.35-.06-.54-.13-.32-.11-.55-.29-.69-.54-.14-.26-.24-.53-.29-.82-.05-.29-.08-.57-.07-.85,0-.27.01-.49.01-.65,0-.41,0-.99-.01-1.76,0-.77-.01-1.58-.01-2.43v-4.19c0-.39.11-.71.34-.97.23-.26.5-.42.81-.5.31-.08.64-.06.98.05.34.12.63.35.86.7.71-.46,1.48-.77,2.33-.93.85-.16,1.65-.13,2.4.08.75.21,1.38.61,1.88,1.19.5.58.76,1.39.78,2.41,0,.04,0,.14.03.32.02.18.03.42.03.74v6.79Z"/>
    <path d="M609.25,98.27c-.11-.3-.15-.6-.13-.89.02-.29.09-.56.23-.8.13-.24.32-.42.57-.56.25-.13.55-.18.9-.15.19.02.37.07.53.16.16.09.3.19.44.32.13.12.27.26.4.4.13.14.27.27.41.37.3.23.62.4.95.5.34.11.69.19,1.06.24.25,0,.45-.06.6-.19.15-.12.25-.27.3-.45.05-.18.07-.37.04-.57-.03-.2-.09-.37-.2-.49-.3-.3-.67-.49-1.1-.58-.43-.09-.84-.19-1.21-.32-.53-.18-1.05-.4-1.56-.68-.51-.27-.93-.65-1.25-1.13-.34-.49-.53-1.02-.6-1.58-.06-.56-.02-1.1.13-1.63.15-.53.4-1.02.76-1.46.35-.44.78-.8,1.27-1.09.37-.21.78-.35,1.22-.41.44-.06.89-.08,1.34-.04.45.04.9.12,1.34.25.44.13.85.28,1.22.44.42.19.74.47.95.82.21.35.31.71.3,1.07,0,.36-.13.68-.37.94-.24.27-.59.4-1.05.4-.28,0-.54-.05-.77-.15-.23-.1-.47-.19-.72-.28-.32-.12-.66-.21-1.03-.25-.37-.04-.67-.02-.9.07-.07.02-.15.08-.24.17-.09.1-.15.22-.2.36-.04.14-.05.28-.03.42.03.14.12.26.28.34.42.23.88.41,1.35.53.48.12.95.27,1.41.42.46.16.89.36,1.29.61.4.25.73.6.99,1.06.39.67.59,1.37.6,2.11,0,.73-.14,1.42-.44,2.06-.3.64-.74,1.18-1.33,1.63-.58.45-1.26.72-2.04.81-.55.05-1.09.02-1.62-.09-.53-.12-1.04-.3-1.54-.56-.5-.26-.95-.56-1.38-.92-.42-.35-.8-.72-1.11-1.11l-.08-.16Z"/>
    <path d="M630.33,96.49c.42-.11.8-.11,1.13-.01.33.1.58.26.76.49.18.23.26.51.24.85-.02.34-.17.69-.45,1.06-.23.3-.55.56-.95.77-.41.21-.79.38-1.14.5-.87.32-1.69.54-2.47.66-.78.12-1.51.12-2.19,0-.68-.12-1.32-.38-1.91-.77-.59-.39-1.15-.94-1.66-1.64-.35-.48-.61-1.02-.78-1.63-.17-.61-.26-1.23-.28-1.87-.02-.64.04-1.26.16-1.88.12-.62.3-1.18.53-1.67.3-.62.78-1.18,1.43-1.7.65-.51,1.38-.92,2.17-1.22.8-.3,1.61-.47,2.44-.52.83-.04,1.56.08,2.2.38.53.25.99.61,1.37,1.07.38.47.64.98.78,1.52.14.55.15,1.1.04,1.66-.11.56-.4,1.07-.86,1.52s-.93.8-1.46,1.07c-.53.27-1.08.51-1.64.72-.57.2-1.14.38-1.74.52-.59.14-1.16.3-1.71.48.37.42.8.69,1.27.81.48.12.98.14,1.5.07.52-.07,1.05-.22,1.58-.44.53-.22,1.03-.46,1.49-.73l.16-.08ZM624.98,91.93c-.41.23-.71.52-.9.86-.19.34-.34.83-.42,1.45.46-.14.98-.29,1.55-.45.57-.16,1.12-.33,1.63-.5.51-.18.95-.37,1.3-.58.35-.21.53-.44.53-.69,0-.14-.02-.28-.07-.41-.04-.13-.14-.23-.28-.28-.5-.18-1.01-.21-1.54-.11-.53.11-.97.26-1.33.45l-.48.27Z"/>
    <path d="M639.46,93.52c.23.11.44.23.62.37.19.14.35.33.49.56.12.23.17.47.13.73-.04.26-.12.49-.25.7s-.31.39-.53.53c-.22.14-.46.22-.7.24-.42.04-.83-.04-1.22-.21-.39-.18-.74-.41-1.06-.69-.37-.32-.63-.71-.77-1.17-.18-.57-.23-1.07-.16-1.52.07-.45.23-.87.46-1.25.24-.38.54-.73.92-1.06.37-.33.75-.65,1.14-.97.19-.14.39-.29.6-.45.2-.16.4-.33.58-.5.19-.18.34-.37.48-.58.13-.21.21-.45.23-.72-.11-.44-.29-.73-.56-.86-.27-.13-.56-.17-.88-.11-.32.06-.65.19-.98.4-.34.2-.64.41-.9.62-.16.12-.3.27-.44.44-.13.17-.27.33-.41.49-.14.16-.3.3-.46.42-.17.12-.36.2-.57.24-.35.05-.68,0-.98-.15-.3-.15-.54-.36-.7-.62-.17-.27-.25-.56-.24-.89,0-.33.14-.64.38-.94.44-.53.92-1.01,1.45-1.45.52-.43,1.07-.8,1.66-1.09.58-.29,1.2-.49,1.86-.61.65-.11,1.33-.11,2.04.01.44.09.84.27,1.18.54.34.27.64.6.89.98.25.38.45.78.6,1.21.15.42.25.83.3,1.22.04.41,0,.82-.13,1.23-.12.42-.3.81-.53,1.18-.23.37-.5.72-.8,1.03-.3.32-.61.58-.93.8-.23.16-.48.34-.76.53-.27.19-.51.38-.72.57-.2.19-.35.35-.44.49-.09.14-.05.24.11.29ZM636.46,99.86c.07-.64.31-1.12.73-1.45.42-.33.86-.49,1.34-.5.48,0,.92.15,1.31.46.4.32.61.8.62,1.43.02.41-.06.76-.24,1.06-.18.3-.4.53-.68.7-.27.17-.58.27-.93.29-.34.03-.67-.03-.97-.16-.3-.13-.56-.35-.78-.65-.22-.3-.36-.7-.41-1.19Z"/>
  </g>
  <g>
    <path d="M580.67,275.69c-.46-.09-.85-.3-1.18-.64-.33-.34-.49-.75-.49-1.25v-11.16c-.32.05-.63.01-.93-.12-.3-.13-.54-.31-.72-.53-.18-.22-.28-.48-.31-.77-.03-.29.07-.57.28-.84.23-.3.5-.55.82-.76.32-.2.65-.37,1.01-.5.35-.13.72-.24,1.1-.33.38-.09.75-.17,1.1-.24.99-.16,1.98-.2,2.97-.12.99.08,1.93.3,2.81.65.88.35,1.69.85,2.43,1.48.73.64,1.33,1.43,1.79,2.39.28.58.49,1.19.61,1.82.12.63.19,1.26.21,1.9.02.83-.08,1.64-.29,2.41-.21.78-.53,1.51-.95,2.19-.42.68-.94,1.29-1.54,1.82-.6.53-1.27.97-2.02,1.33-.65.3-1.35.52-2.08.66-.73.14-1.45.27-2.16.37-.35.05-.73.11-1.13.17-.4.06-.78.09-1.15.09l-.19-.03ZM583.53,261.61c-.23,0-.45,0-.65.03-.2.02-.42.04-.65.08v10.63c.11,0,.19,0,.27-.03.07-.02.14-.03.21-.03s.13,0,.19-.03c.25-.04.45-.06.61-.08.16-.02.31-.04.45-.07.14-.03.29-.06.44-.09.15-.04.32-.08.52-.13,1.03-.27,1.83-.69,2.43-1.26.59-.57,1.04-1.37,1.34-2.37.19-.58.28-1.18.27-1.78-.02-.6-.13-1.18-.33-1.72-.2-.55-.5-1.05-.89-1.5-.39-.45-.87-.81-1.43-1.07-.46-.21-.92-.35-1.37-.42-.45-.07-.92-.12-1.39-.16Z"/>
    <path d="M593.66,268.35c.12-.51.3-1.02.52-1.51.22-.49.49-.97.81-1.42.32-.45.68-.86,1.07-1.23s.83-.67,1.29-.9c.81-.42,1.63-.64,2.45-.65.82,0,1.59.16,2.29.49.71.34,1.31.84,1.8,1.5.49.66.82,1.45.98,2.37.09.6.14,1.17.15,1.71,0,.54-.05,1.1-.17,1.68-.18.83-.53,1.66-1.07,2.48-.54.82-1.18,1.51-1.94,2.07-.75.56-1.57.92-2.47,1.1-.89.18-1.79.04-2.69-.42-.41-.19-.77-.42-1.1-.68-.33-.26-.62-.56-.89-.92-.3-.39-.53-.8-.7-1.22-.17-.42-.3-.87-.41-1.33-.12-.49-.17-.99-.13-1.5.04-.5.1-.99.19-1.47l.03-.16ZM596.85,268.9c-.05.28-.1.56-.13.84-.04.27-.04.55,0,.84.05.41.16.78.33,1.11.17.34.39.6.66.8.27.19.59.3.94.3.35,0,.73-.1,1.14-.33.51-.3.95-.76,1.33-1.39.37-.63.6-1.28.69-1.96.09-.68.02-1.33-.21-1.94-.23-.61-.68-1.05-1.35-1.31-.44,0-.85.08-1.22.25-.37.17-.69.39-.97.66-.27.27-.51.6-.72.97-.2.37-.37.76-.49,1.17Z"/>
    <path d="M625.06,262.99c.21-.35.48-.6.8-.73s.63-.16.94-.09c.31.07.58.23.82.48.24.25.38.57.44.98.04.3-.02.73-.17,1.27-.15.55-.34,1.11-.56,1.7-.22.58-.45,1.14-.68,1.67-.23.53-.42.95-.56,1.25-.6,1.33-1.26,2.63-1.96,3.9-.71,1.27-1.43,2.54-2.17,3.79-.11.19-.23.43-.37.72-.14.28-.29.57-.44.88-.15.3-.3.58-.46.85-.16.27-.31.46-.45.58-.32.3-.65.48-.98.53-.34.05-.64,0-.92-.13-.27-.14-.5-.36-.66-.66-.17-.3-.23-.66-.2-1.09.02-.16.09-.37.21-.62.12-.26.27-.52.42-.8.16-.27.32-.53.48-.78.16-.25.28-.45.37-.61.35-.58.69-1.17,1.02-1.75.33-.58.66-1.17.99-1.75-1.17-.97-2.18-2.06-3.04-3.25-.86-1.19-1.52-2.51-1.98-3.94-.09-.25-.18-.49-.27-.74-.09-.25-.11-.5-.08-.77.04-.3.12-.57.25-.81.13-.24.31-.43.52-.58.21-.15.45-.23.73-.25.27-.02.55.04.84.19.23.12.41.3.54.52.13.22.24.46.33.72.09.26.16.52.23.78.06.27.14.5.23.72.71,1.75,1.78,3.24,3.21,4.48.51-1.06.97-2.13,1.38-3.2.41-1.07.77-2.16,1.09-3.28l.11-.16Z"/>
    <path d="M628.56,268.35c.12-.51.3-1.02.52-1.51.22-.49.49-.97.81-1.42.32-.45.68-.86,1.07-1.23s.83-.67,1.29-.9c.81-.42,1.63-.64,2.45-.65.82,0,1.59.16,2.29.49.71.34,1.31.84,1.8,1.5.49.66.82,1.45.98,2.37.09.6.14,1.17.15,1.71,0,.54-.05,1.1-.17,1.68-.18.83-.53,1.66-1.07,2.48-.54.82-1.18,1.51-1.94,2.07-.75.56-1.57.92-2.47,1.1-.89.18-1.79.04-2.69-.42-.41-.19-.77-.42-1.1-.68-.33-.26-.62-.56-.89-.92-.3-.39-.53-.8-.7-1.22-.17-.42-.3-.87-.41-1.33-.12-.49-.17-.99-.13-1.5.04-.5.1-.99.19-1.47l.03-.16ZM631.75,268.9c-.05.28-.1.56-.13.84-.04.27-.04.55,0,.84.05.41.16.78.33,1.11.17.34.39.6.66.8.27.19.59.3.94.3.35,0,.73-.1,1.14-.33.51-.3.95-.76,1.33-1.39.37-.63.6-1.28.69-1.96.09-.68.02-1.33-.21-1.94-.23-.61-.68-1.05-1.35-1.31-.44,0-.85.08-1.22.25-.37.17-.69.39-.97.66-.27.27-.51.6-.72.97-.2.37-.37.76-.49,1.17Z"/>
    <path d="M653.41,272.61c.16.23.25.5.28.81.03.31,0,.6-.11.88-.1.27-.26.5-.48.68-.22.18-.51.26-.86.24-.46-.04-.83-.19-1.11-.48-.28-.28-.55-.6-.8-.95-.69.57-1.4.96-2.13,1.18-.73.22-1.45.27-2.16.15-.71-.12-1.37-.42-1.99-.89-.62-.47-1.14-1.1-1.56-1.9-.39-.74-.61-1.56-.65-2.47-.04-.9-.06-1.76-.04-2.57,0-.28,0-.56.03-.84.02-.27.04-.56.05-.86.02-.23.03-.45.03-.68s.01-.43.04-.62c.03-.19.08-.39.16-.58.08-.19.2-.38.36-.56.21-.23.47-.37.77-.41.3-.04.59-.01.86.09.27.11.51.27.72.49.2.22.31.49.33.81.04.9.01,1.81-.07,2.73-.08.92-.08,1.82.01,2.71.04.42.15.86.33,1.3.19.44.48.76.89.95.41.18.82.16,1.23-.04.42-.2.76-.45,1.02-.73.12-.14.24-.3.36-.46.11-.17.24-.31.38-.44-.07-.62-.12-1.24-.13-1.86-.02-.62-.02-1.24,0-1.86,0-.34.01-.7.04-1.1.03-.4.1-.78.21-1.14.11-.36.29-.68.52-.95.23-.27.56-.45.98-.52.19-.04.38-.02.57.05.19.07.35.17.49.29.25.21.42.45.5.72.09.27.13.55.13.85s-.02.61-.07.91c-.04.31-.08.6-.09.86-.04.5-.06,1.02-.08,1.56-.02.55,0,1.1.05,1.64.05.55.15,1.08.3,1.59.15.51.38.98.68,1.41Z"/>
    <path d="M669.06,273.04c.19.18.36.4.49.68.13.27.2.55.21.82,0,.27-.05.53-.19.77-.13.24-.37.42-.7.54-.27.09-.56.11-.88.05-.32-.05-.63-.16-.94-.32-.31-.16-.58-.35-.82-.57-.24-.22-.41-.46-.52-.73-.04-.09-.06-.19-.08-.31-.02-.11-.03-.22-.03-.3v-14.72c0-.41.15-.75.46-1.03.31-.28.65-.45,1.02-.5.18-.02.37,0,.57.08.2.07.39.17.57.3.18.13.32.29.44.46.11.18.17.36.17.56v1.83c0,.76,0,1.59.01,2.49,0,.9.01,1.83.01,2.8s0,1.89-.01,2.77c0,.88-.01,1.69-.01,2.43s0,1.32-.03,1.76l.24.13Z"/>
    <path d="M671.9,258.85c.07-.65.3-1.14.68-1.45.38-.31.78-.46,1.21-.45.42,0,.82.17,1.18.49.36.32.55.77.57,1.35.04.6-.12,1.07-.46,1.39-.34.33-.74.51-1.18.56-.44.04-.86-.08-1.25-.36-.39-.28-.63-.73-.72-1.35l-.03-.19ZM675.4,273.94c-.04.35-.16.67-.37.94s-.46.47-.73.6c-.27.12-.57.15-.89.08-.32-.07-.6-.27-.85-.58-.14-.18-.24-.38-.3-.6-.06-.22-.1-.45-.12-.69-.02-.24-.02-.48-.01-.72,0-.24.01-.46.01-.65-.02-1.04-.02-2.08-.01-3.1,0-1.03,0-2.06-.01-3.1,0-.42-.03-.85-.08-1.29-.05-.43-.03-.86.08-1.29.09-.32.24-.59.46-.82.22-.23.47-.39.74-.48.27-.09.56-.1.85-.03.29.07.54.26.76.56.28.35.42.7.42,1.05v3.06c0,.6,0,1.19.03,1.78.02.85.03,1.7.03,2.55v2.73Z"/>
    <path d="M685.37,263.23c.27-.35.57-.6.91-.73s.67-.16.97-.08c.3.08.56.26.77.54.21.28.33.66.34,1.14,0,.12-.02.28-.07.48-.04.19-.1.39-.17.6-.07.2-.13.39-.19.56-.05.17-.09.28-.11.33-.3.95-.65,1.98-1.05,3.09-.4,1.11-.76,2.13-1.1,3.09-.14.41-.29.79-.44,1.15-.15.36-.3.74-.46,1.13-.12.32-.3.57-.54.77-.24.19-.5.32-.77.37-.27.05-.55.03-.84-.08-.28-.11-.53-.3-.74-.58-.14-.19-.26-.44-.36-.74-.1-.3-.17-.52-.23-.66-.19-.51-.39-1.02-.58-1.51-.19-.49-.39-.99-.58-1.49-.27-.67-.54-1.33-.82-1.99-.28-.65-.57-1.3-.88-1.94-.18-.39-.37-.77-.58-1.14s-.37-.76-.48-1.17c-.11-.37-.09-.7.04-.99s.33-.52.58-.68c.26-.16.55-.25.88-.27.33-.02.64.07.94.27.23.14.44.36.64.66.19.3.37.63.53.98.16.35.3.7.44,1.05.13.34.25.63.36.86.25.57.49,1.13.73,1.7.24.57.47,1.13.7,1.7.37-1.04.73-2.08,1.07-3.12.34-1.03.67-2.08.97-3.14l.11-.16Z"/>
    <path d="M699.45,271.13c.42-.11.8-.11,1.13-.01.33.1.58.26.76.49.18.23.26.51.24.85-.02.34-.17.69-.45,1.06-.23.3-.55.56-.95.77-.41.21-.79.38-1.14.5-.87.32-1.69.54-2.47.66-.78.12-1.51.12-2.19,0-.68-.12-1.32-.38-1.91-.77-.59-.39-1.15-.94-1.66-1.64-.35-.48-.61-1.02-.78-1.63-.17-.61-.26-1.23-.28-1.87-.02-.64.04-1.26.16-1.88.12-.62.3-1.18.53-1.67.3-.62.78-1.18,1.43-1.7.65-.51,1.38-.92,2.17-1.22.8-.3,1.61-.47,2.44-.52.83-.04,1.56.08,2.2.38.53.25.99.61,1.37,1.07.38.47.64.98.78,1.52.14.55.15,1.1.04,1.66-.11.56-.4,1.07-.86,1.52s-.93.8-1.46,1.07c-.53.27-1.08.51-1.64.72-.57.2-1.14.38-1.74.52-.59.14-1.16.3-1.71.48.37.42.8.69,1.27.81.48.12.98.14,1.5.07.52-.07,1.05-.22,1.58-.44.53-.22,1.03-.46,1.49-.73l.16-.08ZM694.09,266.57c-.41.23-.71.52-.9.86-.19.34-.34.83-.42,1.45.46-.14.98-.29,1.55-.45.57-.16,1.12-.33,1.63-.5.51-.18.95-.37,1.3-.58.35-.21.53-.44.53-.69,0-.14-.02-.28-.07-.41-.04-.13-.14-.23-.28-.28-.5-.18-1.01-.21-1.54-.11-.53.11-.97.26-1.33.45l-.48.27Z"/>
    <path d="M726.6,263.23c.27-.35.57-.6.92-.73s.67-.16.97-.08c.3.08.56.26.77.54.21.28.33.66.34,1.14.02.27-.09.74-.33,1.43s-.53,1.59-.86,2.71c-.02.07-.05.16-.09.27-.04.11-.11.28-.19.53-.08.25-.19.59-.34,1.03-.15.44-.36,1.03-.62,1.78-.12.37-.28.81-.46,1.33-.19.51-.42.97-.7,1.37-.28.4-.62.67-1.01.82-.39.15-.86.04-1.41-.33-.18-.12-.37-.38-.58-.76-.21-.38-.42-.79-.61-1.23-.19-.44-.37-.86-.52-1.26-.15-.4-.25-.66-.3-.78-.12-.28-.27-.6-.42-.94s-.31-.69-.45-1.05l-.16.4c-.23.58-.46,1.17-.69,1.75-.23.58-.46,1.16-.69,1.72-.12.3-.24.63-.34.98-.11.35-.26.66-.45.93-.16.23-.36.39-.6.49-.24.1-.48.14-.73.12-.25-.02-.48-.08-.7-.2-.22-.12-.41-.28-.57-.49-.25-.35-.44-.76-.58-1.22-.14-.46-.28-.88-.42-1.27-.19-.55-.37-1.11-.53-1.68-.16-.57-.33-1.13-.5-1.66-.09-.28-.2-.65-.34-1.11-.14-.46-.28-.93-.41-1.42-.13-.49-.24-.96-.32-1.42-.08-.46-.11-.84-.09-1.14.02-.3.12-.57.3-.81.19-.24.41-.42.68-.53.27-.11.54-.15.84-.12.29.04.55.17.78.4.34.35.54.73.61,1.13.07.4.15.83.24,1.29.14.71.3,1.41.49,2.09.19.69.38,1.38.6,2.07.07-.16.15-.35.24-.58.09-.23.23-.57.42-1.03.16-.39.31-.77.46-1.14.15-.37.3-.74.44-1.11.11-.27.21-.53.32-.78.11-.26.21-.51.32-.76.12-.27.31-.48.54-.65.24-.17.5-.27.78-.32.28-.04.56-.02.82.08.27.1.48.28.64.54.23.35.41.75.53,1.18.12.43.26.84.4,1.23.25.64.49,1.28.73,1.92.24.65.49,1.28.76,1.9.39-1.06.73-2.13,1.03-3.2.3-1.07.63-2.14.98-3.2l.11-.16Z"/>
    <path d="M731.8,258.85c.07-.65.3-1.14.68-1.45.38-.31.78-.46,1.21-.45.42,0,.82.17,1.18.49.36.32.55.77.57,1.35.04.6-.12,1.07-.46,1.39-.34.33-.74.51-1.18.56-.44.04-.86-.08-1.25-.36-.39-.28-.63-.73-.72-1.35l-.03-.19ZM735.3,273.94c-.04.35-.16.67-.37.94s-.46.47-.73.6c-.27.12-.57.15-.89.08-.32-.07-.6-.27-.85-.58-.14-.18-.24-.38-.3-.6-.06-.22-.1-.45-.12-.69-.02-.24-.02-.48-.01-.72,0-.24.01-.46.01-.65-.02-1.04-.02-2.08-.01-3.1,0-1.03,0-2.06-.01-3.1,0-.42-.03-.85-.08-1.29-.05-.43-.03-.86.08-1.29.09-.32.24-.59.46-.82.22-.23.47-.39.74-.48.27-.09.56-.1.85-.03.29.07.54.26.76.56.28.35.42.7.42,1.05v3.06c0,.6,0,1.19.03,1.78.02.85.03,1.7.03,2.55v2.73Z"/>
    <path d="M738.48,265.85c-.35-.09-.66-.24-.92-.45-.26-.21-.43-.46-.53-.74-.1-.28-.1-.57,0-.88.1-.3.31-.57.65-.82.28-.21.6-.32.95-.32h1.03c0-.12,0-.39-.03-.81-.02-.42-.02-.87-.01-1.37,0-.49.04-.97.09-1.42.05-.45.15-.76.29-.94.35-.49.79-.73,1.31-.7.52.03.95.28,1.29.76.07.09.14.19.2.32.06.12.09.24.09.34.02.64.02,1.27.01,1.91,0,.64-.01,1.27-.01,1.91h2.09c.32,0,.59.11.82.32.23.21.39.46.49.74.1.28.12.57.08.88-.04.3-.18.55-.41.74-.41.34-.88.51-1.42.53-.54.02-1.09.03-1.66.03,0,.97,0,1.95-.01,2.92,0,.97,0,1.94.01,2.92,0,.42.02.86.07,1.3.04.44.01.87-.09,1.27-.09.32-.24.57-.45.76-.21.19-.45.3-.72.34-.27.04-.54.03-.82-.05-.28-.08-.55-.23-.8-.44-.12-.12-.22-.34-.28-.64-.06-.3-.1-.62-.12-.95-.02-.39-.02-.8,0-1.25v-1.38c0-.57,0-1.15-.01-1.76,0-.61-.01-1.19-.01-1.74v-1.3l-1.19-.03Z"/>
    <path d="M750.79,275.23c-.35.26-.72.38-1.1.36-.38-.02-.72-.17-1.01-.46s-.44-.69-.44-1.21v-14.74c0-.41.16-.75.48-1.03.32-.28.67-.46,1.06-.53.39-.07.75,0,1.09.19.34.19.52.56.56,1.09.07.92.1,1.82.09,2.69,0,.88-.02,1.75-.04,2.64.65-.44,1.33-.74,2.04-.89.71-.15,1.39-.15,2.04.01.65.16,1.26.48,1.83.95.57.48,1.03,1.14,1.38,1.99.25.57.42,1.17.5,1.82.09.65.14,1.3.15,1.96,0,.66,0,1.32-.03,1.98-.03.65-.04,1.27-.04,1.86,0,.37-.1.71-.29,1.01-.19.3-.44.52-.73.66-.29.14-.6.19-.93.13-.33-.05-.62-.25-.89-.58-.27-.35-.43-.77-.49-1.25-.06-.48-.08-.99-.05-1.52.03-.54.07-1.09.12-1.66.05-.57.07-1.11.04-1.63s-.13-1-.3-1.45c-.18-.44-.49-.8-.93-1.09-.35-.05-.67-.03-.95.07-.28.1-.54.24-.77.44-.23.19-.45.42-.65.66-.2.25-.41.5-.62.74-.05.09-.12.17-.19.25-.07.08-.15.16-.24.25v5.04c-.11.58-.34,1-.69,1.26Z"/>
    <path d="M587.09,291.79c.21-.35.48-.6.8-.73s.63-.16.94-.09c.31.07.58.23.82.48.24.25.38.57.44.98.04.3-.02.73-.17,1.27-.15.55-.34,1.11-.56,1.7-.22.58-.45,1.14-.68,1.67-.23.53-.42.95-.56,1.25-.6,1.33-1.26,2.63-1.96,3.9-.71,1.27-1.43,2.54-2.17,3.79-.11.19-.23.43-.37.72-.14.28-.29.57-.44.88-.15.3-.3.58-.46.85-.16.27-.31.46-.45.58-.32.3-.65.48-.98.53-.34.05-.64,0-.92-.13-.27-.14-.5-.36-.66-.66-.17-.3-.23-.66-.2-1.09.02-.16.09-.37.21-.62.12-.26.27-.52.42-.8.16-.27.32-.53.48-.78.16-.25.28-.45.37-.61.35-.58.69-1.17,1.02-1.75.33-.58.66-1.17.99-1.75-1.17-.97-2.18-2.06-3.04-3.25-.86-1.19-1.52-2.51-1.98-3.94-.09-.25-.18-.49-.27-.74-.09-.25-.11-.5-.08-.77.04-.3.12-.57.25-.81.13-.24.31-.43.52-.58.21-.15.45-.23.73-.25.27-.02.55.04.84.19.23.12.41.3.54.52.13.22.24.46.33.72.09.26.16.52.23.78.06.27.14.5.23.72.71,1.75,1.78,3.24,3.21,4.48.51-1.06.97-2.13,1.38-3.2.41-1.07.77-2.16,1.09-3.28l.11-.16Z"/>
    <path d="M590.59,297.15c.12-.51.3-1.02.52-1.51.22-.49.49-.97.81-1.42.32-.45.68-.86,1.07-1.23s.83-.67,1.29-.9c.81-.42,1.63-.64,2.45-.65.82,0,1.59.16,2.29.49.71.34,1.31.84,1.8,1.5.49.66.82,1.45.98,2.37.09.6.14,1.17.15,1.71,0,.54-.05,1.1-.17,1.68-.18.83-.53,1.66-1.07,2.48-.54.82-1.18,1.51-1.94,2.07-.75.56-1.57.92-2.47,1.1-.89.18-1.79.04-2.69-.42-.41-.19-.77-.42-1.1-.68-.33-.26-.62-.56-.89-.92-.3-.39-.53-.8-.7-1.22-.17-.42-.3-.87-.41-1.33-.12-.49-.17-.99-.13-1.5.04-.5.1-.99.19-1.47l.03-.16ZM593.77,297.7c-.05.28-.1.56-.13.84-.04.27-.04.55,0,.84.05.41.16.78.33,1.11.17.34.39.6.66.8.27.19.59.3.94.3.35,0,.73-.1,1.14-.33.51-.3.95-.76,1.33-1.39.37-.63.6-1.28.69-1.96.09-.68.02-1.33-.21-1.94-.23-.61-.68-1.05-1.35-1.31-.44,0-.85.08-1.22.25-.37.17-.69.39-.97.66-.27.27-.51.6-.72.97-.2.37-.37.76-.49,1.17Z"/>
    <path d="M615.44,301.41c.16.23.25.5.28.81.03.31,0,.6-.11.88-.1.27-.26.5-.48.68-.22.18-.51.26-.86.24-.46-.04-.83-.19-1.11-.48-.28-.28-.55-.6-.8-.95-.69.57-1.4.96-2.13,1.18-.73.22-1.45.27-2.16.15-.71-.12-1.37-.42-1.99-.89-.62-.47-1.14-1.1-1.56-1.9-.39-.74-.61-1.56-.65-2.47-.04-.9-.06-1.76-.04-2.57,0-.28,0-.56.03-.84.02-.27.04-.56.05-.86.02-.23.03-.45.03-.68s.01-.43.04-.62c.03-.19.08-.39.16-.58.08-.19.2-.38.36-.56.21-.23.47-.37.77-.41.3-.04.59-.01.86.09.27.11.51.27.72.49.2.22.31.49.33.81.04.9.01,1.81-.07,2.73-.08.92-.08,1.82.01,2.71.04.42.15.86.33,1.3.19.44.48.76.89.95.41.18.82.16,1.23-.04.42-.2.76-.45,1.02-.73.12-.14.24-.3.36-.46.11-.17.24-.31.38-.44-.07-.62-.12-1.24-.13-1.86-.02-.62-.02-1.24,0-1.86,0-.34.01-.7.04-1.1.03-.4.1-.78.21-1.14.11-.36.29-.68.52-.95.23-.27.56-.45.98-.52.19-.04.38-.02.57.05.19.07.35.17.49.29.25.21.42.45.5.72.09.27.13.55.13.85s-.02.61-.07.91c-.04.31-.08.6-.09.86-.04.5-.06,1.02-.08,1.56-.02.55,0,1.1.05,1.64.05.55.15,1.08.3,1.59.15.51.38.98.68,1.41Z"/>
    <path d="M618.33,295.3c.02-.11,0-.32-.03-.62-.28-.16-.5-.36-.66-.61-.16-.25-.25-.51-.28-.8-.03-.28.03-.55.16-.81.13-.26.35-.47.65-.65.41-.23.85-.27,1.34-.13.49.14.91.35,1.26.64.44-.34.9-.62,1.38-.85.48-.23.96-.38,1.46-.46.49-.08,1-.07,1.51.04.51.11,1.02.33,1.51.66.25.16.48.36.69.6.21.24.34.51.4.81.09.44.05.83-.11,1.15-.16.33-.38.57-.66.72-.28.15-.6.19-.95.13-.35-.06-.69-.25-1.01-.57-.11-.07-.18-.13-.23-.17-.04-.04-.14-.1-.28-.17-.28-.07-.56-.05-.84.05-.27.11-.54.25-.8.44-.26.19-.5.39-.72.61l-.6.6v6.76c0,.27-.05.52-.16.77-.16.41-.41.69-.76.85-.34.16-.69.2-1.03.13-.34-.07-.65-.25-.9-.53-.26-.28-.38-.65-.38-1.09v-7.43c0,.07,0,.05.03-.07Z"/>
    <path d="M643.33,303.8c-.23.28-.5.48-.8.58-.3.11-.61.11-.93,0-.32-.11-.58-.34-.8-.72-.09-.14-.16-.29-.21-.45s-.08-.32-.08-.48v-6.97c-.34,0-.64-.09-.91-.28-.27-.19-.48-.42-.61-.69-.13-.27-.18-.57-.15-.88.04-.31.18-.6.42-.86.18-.19.37-.32.57-.38.2-.06.42-.1.65-.12-.02-.55-.03-1.09-.04-1.62,0-.53.03-1.06.12-1.59.11-.83.35-1.54.74-2.12.39-.58.87-1.03,1.45-1.35.57-.32,1.22-.5,1.92-.56.71-.05,1.44.05,2.2.32.32.11.62.24.91.4s.55.36.78.61c.16.18.27.38.34.62.07.24.08.48.04.72-.04.24-.13.46-.27.66-.13.2-.32.36-.57.46-.34.14-.67.18-.99.11-.33-.07-.65-.19-.97-.34-.19-.07-.38-.14-.56-.21-.18-.07-.36-.12-.56-.16-.19-.04-.37,0-.53.08-.16.09-.3.21-.41.36-.12.15-.2.32-.27.5-.06.19-.09.37-.09.54-.02.41-.02.82-.01,1.23,0,.42.01.83.01,1.23.27-.02.55-.04.85-.05.3-.02.6-.03.89-.03s.56,0,.81.03c.25.02.44.05.58.11.28.11.51.27.69.49.18.22.29.46.34.72.05.26.03.52-.07.78-.1.27-.27.5-.52.69-.23.18-.5.3-.8.37-.3.07-.62.12-.95.15-.34.03-.66.04-.98.03-.32,0-.6-.01-.85-.01v7.08c-.05.39-.19.72-.42,1.01Z"/>
    <path d="M660.25,302.32c.14.51.11.94-.08,1.27-.19.34-.46.56-.81.68s-.72.1-1.13-.04c-.41-.14-.76-.42-1.06-.85-.5.37-.98.63-1.45.78-.47.15-1,.23-1.6.25-.9.04-1.71-.07-2.41-.3-.71-.24-1.3-.6-1.79-1.07-.49-.48-.84-1.07-1.07-1.79-.23-.72-.31-1.54-.24-2.48.04-.39.1-.77.2-1.14.1-.37.21-.73.33-1.09.14-.39.34-.8.6-1.25.26-.44.52-.82.78-1.14.95-1.17,2.15-2.01,3.58-2.52.25-.09.58-.17,1.01-.24.42-.07.85-.1,1.29-.09.43,0,.85.07,1.25.17.4.11.69.29.89.56.16.21.27.4.34.56.07.16.11.33.12.5,0,.18,0,.37,0,.57,0,.2-.01.46-.01.76,0,.5,0,.98-.01,1.45,0,.47,0,.94.01,1.42v.62c0,.26,0,.53.03.81.02.28.04.55.07.81.03.26.07.46.12.62l1.06,2.17ZM654.63,301.12c.19-.12.42-.26.66-.41.25-.15.47-.32.66-.52-.16-.94-.25-1.87-.28-2.81-.03-.94-.02-1.88.01-2.84-.8.14-1.51.49-2.15,1.03-.64.55-1.08,1.19-1.33,1.94-.11.3-.19.61-.27.93-.07.32-.1.63-.08.93.02.41.12.75.32,1.02.19.27.43.48.7.62.27.14.57.22.88.24.31.02.6-.03.86-.13Z"/>
    <path d="M668.55,295.9v-.37c-.16-.41-.42-.69-.77-.86-.35-.17-.73-.27-1.14-.3-.23.07-.42.15-.56.24-.14.09-.27.19-.37.29s-.2.23-.29.36c-.09.13-.19.27-.32.41v6.95c0,.55-.16.98-.49,1.29-.33.31-.69.49-1.09.53-.4.04-.76-.05-1.1-.29-.34-.24-.51-.64-.53-1.21-.04-1.36-.05-2.91-.04-4.64,0-1.73.01-3.67.01-5.81,0-.37.11-.68.33-.93.22-.25.49-.42.8-.5.31-.09.63-.08.95.01.33.1.6.3.81.6.99-.49,1.98-.65,2.96-.46.98.19,1.87.65,2.67,1.39.35-.35.73-.67,1.14-.95.41-.28.85-.47,1.33-.56.55-.09,1.1-.07,1.66.07s1.07.35,1.55.65c.48.3.9.67,1.26,1.11.36.44.63.92.81,1.43.09.35.13.67.13.95v7.21c0,.21-.03.42-.08.61-.16.46-.41.78-.76.97s-.7.25-1.06.2c-.36-.05-.68-.22-.94-.5-.27-.28-.4-.66-.4-1.14v-7.13c-.16-.42-.39-.73-.69-.93-.3-.19-.61-.28-.93-.27-.32.02-.62.13-.92.34s-.53.5-.7.88v6.95c0,.48-.16.88-.46,1.19-.31.32-.65.52-1.02.61-.37.09-.72.05-1.05-.11-.33-.16-.52-.48-.57-.95l-.13-7.32Z"/>
    <path d="M680.78,287.65c.07-.65.3-1.14.68-1.45.38-.31.78-.46,1.21-.45.42,0,.82.17,1.18.49.36.32.55.77.57,1.35.04.6-.12,1.07-.46,1.39-.34.33-.74.51-1.18.56-.44.04-.86-.08-1.25-.36-.39-.28-.63-.73-.72-1.35l-.03-.19ZM684.28,302.74c-.04.35-.16.67-.37.94s-.46.47-.73.6c-.27.12-.57.15-.89.08-.32-.07-.6-.27-.85-.58-.14-.18-.24-.38-.3-.6-.06-.22-.1-.45-.12-.69-.02-.24-.02-.48-.01-.72,0-.24.01-.46.01-.65-.02-1.04-.02-2.08-.01-3.1,0-1.03,0-2.06-.01-3.1,0-.42-.03-.85-.08-1.29-.05-.43-.03-.86.08-1.29.09-.32.24-.59.46-.82.22-.23.47-.39.74-.48.27-.09.56-.1.85-.03.29.07.54.26.76.56.28.35.42.7.42,1.05v3.06c0,.6,0,1.19.03,1.78.02.85.03,1.7.03,2.55v2.73Z"/>
    <path d="M691.15,301.84c.19.18.36.4.49.68.13.27.2.55.21.82,0,.27-.05.53-.19.77-.13.24-.37.42-.7.54-.27.09-.56.11-.88.05-.32-.05-.63-.16-.94-.32-.31-.16-.58-.35-.82-.57-.24-.22-.41-.46-.52-.73-.04-.09-.06-.19-.08-.31-.02-.11-.03-.22-.03-.3v-14.72c0-.41.15-.75.46-1.03.31-.28.65-.45,1.02-.5.18-.02.37,0,.57.08.2.07.39.17.57.3.18.13.32.29.44.46.11.18.17.36.17.56v1.83c0,.76,0,1.59.01,2.49,0,.9.01,1.83.01,2.8s0,1.89-.01,2.77c0,.88-.01,1.69-.01,2.43s0,1.32-.03,1.76l.24.13Z"/>
    <path d="M702.82,291.79c.21-.35.48-.6.8-.73s.63-.16.94-.09c.31.07.58.23.82.48.24.25.38.57.44.98.04.3-.02.73-.17,1.27-.15.55-.34,1.11-.56,1.7-.22.58-.45,1.14-.68,1.67-.23.53-.42.95-.56,1.25-.6,1.33-1.26,2.63-1.96,3.9-.71,1.27-1.43,2.54-2.17,3.79-.11.19-.23.43-.37.72-.14.28-.29.57-.44.88-.15.3-.3.58-.46.85-.16.27-.31.46-.45.58-.32.3-.65.48-.98.53-.34.05-.64,0-.92-.13-.27-.14-.5-.36-.66-.66-.17-.3-.23-.66-.2-1.09.02-.16.09-.37.21-.62.12-.26.27-.52.42-.8.16-.27.32-.53.48-.78.16-.25.28-.45.37-.61.35-.58.69-1.17,1.02-1.75.33-.58.66-1.17.99-1.75-1.17-.97-2.18-2.06-3.04-3.25-.86-1.19-1.52-2.51-1.98-3.94-.09-.25-.18-.49-.27-.74-.09-.25-.11-.5-.08-.77.04-.3.12-.57.25-.81.13-.24.31-.43.52-.58.21-.15.45-.23.73-.25.27-.02.55.04.84.19.23.12.41.3.54.52.13.22.24.46.33.72.09.26.16.52.23.78.06.27.14.5.23.72.71,1.75,1.78,3.24,3.21,4.48.51-1.06.97-2.13,1.38-3.2.41-1.07.77-2.16,1.09-3.28l.11-.16Z"/>
    <path d="M713.13,296.96c.23.11.44.23.62.37.19.14.35.33.49.56.12.23.17.47.13.73-.04.26-.12.49-.25.7s-.31.39-.53.53c-.22.14-.46.22-.7.24-.42.04-.83-.04-1.22-.21-.39-.18-.74-.41-1.06-.69-.37-.32-.63-.71-.77-1.17-.18-.57-.23-1.07-.16-1.52.07-.45.23-.87.46-1.25.24-.38.54-.73.92-1.06.37-.33.75-.65,1.14-.97.19-.14.39-.29.6-.45.2-.16.4-.33.58-.5.19-.18.34-.37.48-.58.13-.21.21-.45.23-.72-.11-.44-.29-.73-.56-.86-.27-.13-.56-.17-.88-.11-.32.06-.65.19-.98.4-.34.2-.64.41-.9.62-.16.12-.3.27-.44.44-.13.17-.27.33-.41.49-.14.16-.3.3-.46.42-.17.12-.36.2-.57.24-.35.05-.68,0-.98-.15-.3-.15-.54-.36-.7-.62-.17-.27-.25-.56-.24-.89,0-.33.14-.64.38-.94.44-.53.92-1.01,1.45-1.45.52-.43,1.07-.8,1.66-1.09.58-.29,1.2-.49,1.86-.61.65-.11,1.33-.11,2.04.01.44.09.84.27,1.18.54.34.27.64.6.89.98.25.38.45.78.6,1.21.15.42.25.83.3,1.22.04.41,0,.82-.13,1.23-.12.42-.3.81-.53,1.18-.23.37-.5.72-.8,1.03-.3.32-.61.58-.93.8-.23.16-.48.34-.76.53-.27.19-.51.38-.72.57-.2.19-.35.35-.44.49-.09.14-.05.24.11.29ZM710.13,303.3c.07-.64.31-1.12.73-1.45.42-.33.86-.49,1.34-.5.48,0,.92.15,1.31.46.4.32.61.8.62,1.43.02.41-.06.76-.24,1.06-.18.3-.4.53-.68.7-.27.17-.58.27-.93.29-.34.03-.67-.03-.97-.16-.3-.13-.56-.35-.78-.65-.22-.3-.36-.7-.41-1.19Z"/>
  </g>
  <g>
    <path d="M689.1,394.53c-8.34,1.39-20.8,2.61-23.22,33.27-1.81,22.93-2.12,32.07-2.12,32.07,0,0-17.26,118.17-16.62,118.95.64.78,16.73.69,16.73.69l55.21-181.74s-16.6-5.47-29.98-3.24Z" fill="#f7bc00" stroke="#000" stroke-linecap="round" stroke-linejoin="round" stroke-width="4.2"/>
    <path d="M687.19,395.56l-5.36,30.21,13.42,2.46,8.11-33.03s-11.37-1.99-16.17.36Z"/>
    <polygon points="679.84 433.88 698.02 435.59 659.19 580 651.62 580.6 679.84 433.88" fill="#ddd"/>
    <circle cx="687.9" cy="429.36" r="17.1" transform="translate(-102.12 612.17) rotate(-45)"/>
    <polygon points="689.13 421.5 682.19 424.29 681.13 431.7 687.02 436.32 693.97 433.53 695.02 426.12 689.13 421.5" fill="#fff"/>
    <path d="M678.86,439.91s-27.55,139.59-27.12,139.14" fill="none" stroke="#000" stroke-linecap="round" stroke-miterlimit="10" stroke-width="1.87"/>
    <path d="M695.87,441.12s-37.22,138.26-36.7,137.99" fill="none" stroke="#000" stroke-linecap="round" stroke-miterlimit="10" stroke-width="1.87"/>
    <line x1="665.82" y1="507.52" x2="675.38" y2="515.75" fill="none" stroke="#000" stroke-linecap="round" stroke-miterlimit="10" stroke-width="1.87"/>
    <line x1="660.78" y1="532.69" x2="668.88" y2="539.7" fill="none" stroke="#000" stroke-linecap="round" stroke-miterlimit="10" stroke-width="1.87"/>
    <line x1="655.94" y1="558.03" x2="662.86" y2="564.12" fill="none" stroke="#000" stroke-linecap="round" stroke-miterlimit="10" stroke-width="1.87"/>
    <line x1="669.84" y1="484.32" x2="681.25" y2="495.03" fill="none" stroke="#221a38" stroke-linecap="round" stroke-miterlimit="10" stroke-width="1.87"/>
    <line x1="675.36" y1="457.4" x2="687.82" y2="468.96" fill="none" stroke="#000" stroke-linecap="round" stroke-miterlimit="10" stroke-width="1.87"/>
  </g>
</svg>