<?xml version="1.0" encoding="UTF-8"?>
<svg id="Layer_1" data-name="Layer 1" xmlns="http://www.w3.org/2000/svg" width="800" height="600" viewBox="0 0 800 600">
  <rect x="-6.44" y="-4.33" width="815.37" height="609.04" fill="#2b3751"/>
  <g>
    <path d="M358.64,286.85c-38.58,78.12,12.5,179.6,114.08,226.66,101.58,47.06,215.2,21.87,253.78-56.25,38.58-78.12-12.5-179.6-114.08-226.66-101.58-47.06-215.2-21.87-253.78,56.25Z" fill="#ff911a"/>
    <path d="M460.02,163.04c-31.07,76.77,14.66,163.67,102.14,194.08,87.49,30.42,183.6-7.16,214.67-83.93,31.07-76.77-14.66-163.67-102.14-194.08-87.49-30.42-183.6,7.16-214.67,83.93Z" fill="#ff911a"/>
    <path d="M283.64,134.11c-21.37,74.45,49.22,154.85,157.65,179.58,108.43,24.73,213.66-15.57,235.02-90.01,21.37-74.45-49.22-154.85-157.65-179.58-108.43-24.73-213.66,15.57-235.02,90.01Z" fill="#ff911a"/>
    <path d="M313.79,483.44c41.88,76.79,172.87,99.15,270.07,48.08,97.2-51.07,123.81-156.23,81.93-233.03-41.88-76.79-154.63-97.64-251.83-46.57-97.2,51.07-142.04,154.73-100.16,231.52Z" fill="#ff911a"/>
    <path d="M25.07,412.86c9.08,83.92,90.16,135.98,181.1,116.29,90.94-19.69,157.3-103.69,148.22-187.6-9.08-83.92-90.16-135.98-181.1-116.29C82.35,244.95,15.99,328.95,25.07,412.86Z" fill="#ff911a"/>
    <path d="M18.67,270.79c-2.62,89.85,88.8,156.94,204.19,149.86,115.38-7.08,211.04-85.65,213.66-175.5,2.62-89.85-88.8-156.94-204.19-149.86-115.38,7.08-211.04,85.65-213.66,175.5Z" fill="#ff911a"/>
    <path d="M72.25,93.39c-45.87,50.95-34.35,133.6,25.74,184.61,60.09,51,145.99,51.05,191.86.09,45.87-50.95,34.35-133.6-25.74-184.61-60.09-51-145.99-51.05-191.86-.09Z" fill="#ff911a"/>
    <path d="M142.99,175.12c-6.41,74.06,73.94,135.76,179.47,137.82,105.53,2.05,196.27-56.32,202.67-130.38,6.41-74.06-73.94-135.76-179.47-137.82-105.53-2.05-196.27,56.32-202.67,130.38Z" fill="#ff911a"/>
    <path d="M667.97,167.52c-69.66-8.5-129.27,64.85-133.13,163.83-3.86,98.98,49.48,186.1,119.14,194.6,69.66,8.5,129.27-64.85,133.13-163.83,3.86-98.98-49.48-186.1-119.14-194.6Z" fill="#ff911a"/>
    <path d="M152.46,447c-5.85,48.53,60.7,92.3,148.66,97.75,87.95,5.45,164-29.47,169.85-78,5.85-48.53-60.7-92.3-148.66-97.75s-164,29.47-169.85,78Z" fill="#ff911a"/>
  </g>
  <g>
    <path d="M438.05,339.22c35.7-5.12,71.2-30,81.15-70.88,14.9-61.27,14.14-110.57-95.16-135.41,0,0-77.83-9.94-102.67,61.27-24.84,71.21,19.87,114.26,66.24,137.45,11.39,5.69,24.22,8.47,37.33,8.51" fill="none" stroke="#000" stroke-linecap="round" stroke-miterlimit="10" stroke-width="3.01"/>
    <path d="M398.09,130.87s28.64,17.18,38.05,40.1c0,0,44.19,2.45,64.24,11.46,0,0-3.27-27.82-15.14-40.1-11.87-12.27-65.46-27.41-87.15-11.46Z"/>
    <path d="M449.59,233.7c-1.19-.44-3.51-1.04-5.51-1.54.71-3.08,2.95-22.74-10.26-25.06-19.37-3.4-27.23,15.82-27.96,24.01-.73,8.19,4.09,24.14,17.18,26.19,5.31.83,15.1-2.93,18.82-14.73,2.13.37,4.54.72,6.1.73,3.37.01,4.82-.98,5.57-3.78.75-2.81-1.59-4.94-3.95-5.81Z" fill="none" stroke="#000" stroke-linecap="round" stroke-linejoin="round" stroke-width="2.93"/>
    <path d="M511.69,227.46c-1.58-3.88-15.7-18.17-25.88,2.01,0,0-.7,1.44-1.45,3.73l-6-1.15s-4.55-.73-4.57,6.01c-.01,4.37,3.9,6.11,8.87,6.73.19,3.98,1.31,8.18,4.28,11.87,9.03,11.21,21.22,3.63,24.44-4.39,3.22-8.03,1.89-20.92.31-24.81Z" fill="none" stroke="#000" stroke-linecap="round" stroke-linejoin="round" stroke-width="2.93"/>
    <path d="M429.42,228.08s-4.72-.69-5.94,7.93c-1.22,8.62,2.43,8.26,4.58,8.04,2.15-.22,3.48-6.08,3.82-8.96.34-2.89.91-6.99-2.46-7Z"/>
    <path d="M499.47,233.38s-3.29.77-3.8,4.86c-.51,4.09-1,9.24,2.4,10.24s4.32-3.02,5.15-7.75c.83-4.73-.26-8.08-3.75-7.35Z"/>
    <path d="M463.55,263.02s13.28.04,11.64,9.04c-1.64,9-14.09,3.64-14.09,3.64" fill="none" stroke="#000" stroke-linecap="round" stroke-miterlimit="10" stroke-width="2.93"/>
    <path d="M441.05,276.93s13.09,25.78-18.82,36.82" fill="none" stroke="#000" stroke-linecap="round" stroke-miterlimit="10" stroke-width="2.93"/>
    <path d="M481.96,283.48s-15.55,9-8.18,34.78" fill="none" stroke="#000" stroke-linecap="round" stroke-miterlimit="10" stroke-width="2.93"/>
    <path d="M472.15,296.16s-10.23-10.23-20.05,1.23l-1.23,12.27-38.05,45.42s-4.5,3.68,2.05,5.32c6.55,1.64,40.1-41.73,40.1-41.73,0,0,8.23,7.01,18.05-3.22,0,0-.79-2.71-1.31-9.55-.53-6.83.45-9.74.45-9.74Z" fill="none" stroke="#000" stroke-linecap="round" stroke-miterlimit="10" stroke-width="2.93"/>
    <path d="M425.5,396.41s4.5-9.82,17.59-15.96c13.09-6.14,18-11.05,13.5-19.23-4.5-8.18-11.87,4.91-11.87,4.91,0,0,10.64-13.5,5.73-18.41-4.91-4.91-12.68,8.59-12.68,8.59,0,0,11.05-11.87,3.27-13.91-7.77-2.05-16.37,9.82-16.37,9.82-21.28-4.09-27.41,13.5-24.14,22.5,3.27,9,4.09,10.23,4.09,10.23" fill="none" stroke="#000" stroke-linecap="round" stroke-linejoin="round" stroke-width="2.93"/>
    <path d="M444.42,283.93s20.29-3.31,29.81,5.8" fill="none" stroke="#000" stroke-linecap="round" stroke-miterlimit="10" stroke-width="2.93"/>
    <path d="M434.07,307.11c.41,1.24,4.97,5.8,13.25,7.04" fill="none" stroke="#000" stroke-linecap="round" stroke-miterlimit="10" stroke-width="2.93"/>
    <path d="M332.23,285.59c-1.66.83-55.48,25.25-70.38,74.93s24.43,75.76,48.02,87.77c23.6,12.01,92.32,19.87,117.57-49.27,0,0-6.05-5.39-14.39-8.35-8.34-2.97-9.27-3.52-11.49-2.04s-1.11,8.15-14.08,15.57c-12.97,7.41-59,31.02-72.64-35.21" fill="none" stroke="#000" stroke-linecap="round" stroke-miterlimit="10" stroke-width="2.93"/>
    <path d="M485.8,319.43c3.81,5.81,15.43,20.76,39.4,31.19,30.32,13.18,77.79,39.55,51.42,88.34-26.37,48.78-27.69,30.32-27.69,30.32,0,0-1.32-9.89-13.84-17.8,0,0,35.59-27.04,5.27-46.81-30.31-19.77-51.42-23.07-51.42-23.07l-10.53,55.62" fill="none" stroke="#000" stroke-linecap="round" stroke-linejoin="round" stroke-width="2.93"/>
    <path d="M535.98,451.92c-.43,0-4.7,1-10.67.71s-8.25,3.27-8.97,6.83" fill="none" stroke="#000" stroke-linecap="round" stroke-linejoin="round" stroke-width="2.93"/>
    <path d="M528.86,457.89c-.85,0-8.35-2.42-15.47,4.12-7.12,6.55-1.56,9.49,1.42,6.65" fill="none" stroke="#000" stroke-linecap="round" stroke-linejoin="round" stroke-width="2.93"/>
    <path d="M529.71,463.02s-9.83-4.42-16.25,8.34c0,0-1.23,3.37,3.34,2.46,1.28-.26,3.49-4.03,5.98-5.47,1.91-1.1,4.89-1.32,6.64-1.05,0,0-13.07,5.97-11.84,8.77,1.25,2.84,3.35.75,8.51-1.06,5.7-1.99,2.76-.31,8.31-.88s9.6,2.95,14.26-5.28" fill="none" stroke="#000" stroke-linecap="round" stroke-linejoin="round" stroke-width="2.93"/>
    <line x1="265.71" y1="500.29" x2="534.04" y2="419.22" fill="none" stroke="#000" stroke-linecap="round" stroke-linejoin="round" stroke-width="2.93"/>
    <path d="M516.98,458.31c-9.7-4.49-34.37-13.02-72.72-6.93-50.58,8.04-65.99,48.91-50.92,67.33,15.07,18.42,71.35,25.12,100.5,15.41,29.14-9.71,61.3-36.85,38.52-59.63" fill="none" stroke="#000" stroke-linecap="round" stroke-linejoin="round" stroke-width="2.93"/>
    <g>
      <path d="M463.31,504.28c-4.16,0-8.64-2.65-9.59-5.68-.72-2.31-.6-4.38.37-6.14,1.42-2.58,4.66-4.63,9.38-5.91.12-.02.49-.07,1.01-.07,1.33,0,3.2.31,4.55,1.8,1.52,1.68,2.11,4.51,1.73,8.41-.64,6.61-4.94,7.59-7.45,7.59Z" fill="#ff911a"/>
      <path d="M464.48,487.94h0c1.03,0,2.47.23,3.46,1.32,1.22,1.34,1.69,3.86,1.35,7.28-.4,4.16-2.42,6.27-5.99,6.27-3.85,0-7.5-2.46-8.19-4.65-.61-1.95-.52-3.58.25-5,1.2-2.18,4.17-4.01,8.39-5.18.13-.02.38-.04.72-.04M464.48,485.01c-.8,0-1.33.1-1.33.1-8.18,2.21-13.04,6.85-10.83,13.93,1.16,3.72,6.24,6.71,10.99,6.71,4.27,0,8.28-2.42,8.91-8.92,1.03-10.62-4.98-11.82-7.74-11.82h0Z"/>
    </g>
    <path d="M433.54,484.11s3.09-5.53,11.94-1.11c8.84,4.42,4.42,13.93-3.54,13.04-7.96-.88-11.05-6.41-8.4-11.94Z" fill="none" stroke="#000" stroke-linecap="round" stroke-linejoin="round" stroke-width="2.93"/>
    <path d="M454.98,465.98s26.08-4.2,47.52,9.28c21.44,13.48,6.63,33.38-24.98,38.46-16.05,2.58-54.82,2.65-57.47-18.13-2.89-22.67,34.93-29.62,34.93-29.62Z" fill="none" stroke="#000" stroke-linecap="round" stroke-linejoin="round" stroke-width="2.93"/>
    <g>
      <path d="M471.87,520.27c-.96,0-1.83-.24-2.66-.73-.94-.55-1.9-1.01-2.82-1.46-3.98-1.91-6.86-3.3-5.76-10.54.01-.07.02-.15.02-.22,0-.4.27-10.03,14.23-10.03,4.98,0,8.19,1.35,9.52,4.02,1.85,3.69-.23,9.23-2.3,11.98-3.23,4.3-7.15,6.98-10.23,6.98Z" fill="#ff911a"/>
      <path d="M474.87,498.75c3.01,0,6.88.56,8.21,3.21,1.4,2.81-.03,7.61-2.16,10.45-2.91,3.88-6.47,6.39-9.06,6.39-.69,0-1.31-.17-1.91-.53-.99-.59-1.98-1.06-2.93-1.52-3.92-1.88-5.88-2.83-4.94-9,.02-.15.03-.26.03-.41.02-.88.55-8.59,12.76-8.59M474.87,495.82c-15.69,0-15.69,11.49-15.69,11.49-1.55,10.17,4.42,10.61,9.28,13.48,1.09.65,2.24.93,3.41.93,4.04,0,8.32-3.45,11.4-7.56,3.98-5.3,7.29-18.35-8.4-18.35h0Z"/>
    </g>
    <path d="M290.56,435.84s-6.98,32.58-7.91,59.58" fill="none" stroke="#000" stroke-linecap="round" stroke-linejoin="round" stroke-width="2.93"/>
  </g>
  <g>
    <path d="M220.65,448.5s-13.68-1.37-16.61,32.83c-2.94,34.19,12.36,38.29,25.68,37.16,15.05-1.28,20.66-21.54,17.27-38.26-6.24-30.78-26.34-31.73-26.34-31.73Z" fill="#e293e2" stroke="#000" stroke-linecap="round" stroke-miterlimit="10" stroke-width="3.03"/>
    <path d="M115.41,415.09s-43.29,11.8-51.85,60.81c-8.55,49.01,22.26,91.8,89.95,82.97,67.68-8.83,91.39-55.36,78.35-93.39-13.17-38.4-49.53-69.98-116.45-50.39Z" fill="#fff" stroke="#000" stroke-linecap="round" stroke-miterlimit="10" stroke-width="2"/>
    <path d="M200.58,448.55c-14.83-.93-19.77,16.65-19.77,16.65,0,0-.67,2.13-1.3,5.38-5-.12-10.47.92-10.8,6.03-.32,4.93,3.96,7.12,9.85,7.71.35,4.31,1.48,8.62,4.03,12.02,6.77,9.04,29.25,8.57,32.7-15.03,1.32-9.03,1.06-16.26-.68-21.61-1.16-3.56-4.21-3.57-6.66-5.44-2.31-1.77-3.95-5.49-7.36-5.7Z" fill="#fff" stroke="#000" stroke-linecap="round" stroke-miterlimit="10" stroke-width="2.41"/>
    <path d="M153.98,489.61s-25.62,5.92-28.72,25.52c-3.1,19.6,7.21,39.62,40.03,34,32.82-5.63,31.85-29.15,28.11-41.36-3.74-12.21-18.55-24.72-39.43-18.15Z" fill="#e293e2" stroke="#000" stroke-linecap="round" stroke-miterlimit="10" stroke-width="3.03"/>
    <path d="M156.26,498.84s12.74-5.37,14.41,3.28c1.67,8.65-10.69,10.09-10.69,10.09" fill="none" stroke="#000" stroke-linecap="round" stroke-miterlimit="10" stroke-width="3.42"/>
    <path d="M72.91,451.28s-16.17-9.28-33.18,29.82c-8.2,18.85-4.22,43.72,12.32,48.15,17.58,4.71,23.82-5.77,30.18-31.42,9.39-37.88-9.32-46.55-9.32-46.55Z" fill="#e293e2" stroke="#000" stroke-linecap="round" stroke-miterlimit="10" stroke-width="3.03"/>
    <g>
      <path d="M141.72,481.42c-.27-5.4-6.34-6.37-11.56-6.19.03-3.15-2.45-26.62-12.43-22.85-4.79,1.81-9.29,2.73-12.6,3.22-8.08,1.19-13.49,11.72-14.51,26.99-1.59,23.8,19.97,29.79,29.01,23.03,5.12-3.83,7.74-10.51,9.09-16.53,7.38.02,13.29-1.93,13.01-7.67Z" fill="none" stroke="#000" stroke-linecap="round" stroke-miterlimit="10" stroke-width="2.41"/>
      <path d="M117.1,459.96s-6.71-.59-8.39,8.54c-2,10.87,2.95,17.37,7.91,18.37,7.87,1.58,9.74-9.07,8.3-16.85-2.03-10.97-7.83-10.06-7.83-10.06Z" fill="#e293e2" stroke="#000" stroke-linecap="round" stroke-miterlimit="10" stroke-width="3.03"/>
    </g>
    <path d="M204.53,456.5c-1.39.03-6.08,1.75-6.3,12.59-.29,14.56,9.86,12.77,11.53,7.97,1.58-4.56,4.2-20.78-5.23-20.56Z" fill="#e293e2" stroke="#000" stroke-linecap="round" stroke-miterlimit="10" stroke-width="3.03"/>
    <path d="M170.25,522.49s-8.79,1.39-16.72-.59c0,0-1.69,5.89,6.48,6.51,8.17.62,9.51-2.04,10.24-5.93Z"/>
  </g>
  <g>
    <rect x="67" y="209.3" width="231.41" height="49.71" rx="24.86" ry="24.86" fill="#fff"/>
    <rect x="67" y="240.62" width="144.59" height="49.71" rx="24.86" ry="24.86" fill="#fff"/>
    <path d="M177.03,279.38s19.47,17.53,41.58,13.11c0,0-18.23-12.39-26.42-26.24-8.18-13.85-15.16,13.13-15.16,13.13Z" fill="#fff"/>
  </g>
  <g>
    <rect x="559.37" y="244.67" width="211.83" height="49.71" rx="24.86" ry="24.86" fill="#fff"/>
    <rect x="559.37" y="272.36" width="175.4" height="49.71" rx="24.86" ry="24.86" fill="#fff"/>
    <path d="M577.69,307.42s-11.45,12.87-35.03,7.81c0,0,21.47-13.47,24.16-23.55,2.43-9.12,10.87,15.74,10.87,15.74Z" fill="#fff"/>
  </g>
  <g>
    <rect x="151.01" y="67.42" width="506.56" height="49.71" rx="24.86" ry="24.86" fill="#fff"/>
    <path d="M533.28,111.32s-13.82,20.74-22.72,24.72l6.54-34.93,16.18,10.21Z" fill="#fff"/>
  </g>
  <text transform="translate(82.48 242.61)" font-family="ChalkboardSE-Bold, &apos;Chalkboard SE&apos;" font-size="24" font-weight="700"><tspan x="0" y="0" letter-spacing="-.09em">Y</tspan><tspan x="12.46" y="0" letter-spacing=".03em">o</tspan><tspan x="25.43" y="0" letter-spacing="0em">u</tspan><tspan x="38.64" y="0" letter-spacing="-.11em">’</tspan><tspan x="43.31" y="0" letter-spacing="0em">v</tspan><tspan x="54.81" y="0" letter-spacing="0em">e be</tspan><tspan x="105.02" y="0" letter-spacing="-.04em">e</tspan><tspan x="117.21" y="0">n si</tspan><tspan x="157.33" y="0" letter-spacing=".02em">n</tspan><tspan x="170.49" y="0">g</tspan><tspan x="183.67" y="0" letter-spacing="-.06em">l</tspan><tspan x="190.08" y="0">e </tspan><tspan x="0" y="28.8">th</tspan><tspan x="25.09" y="28.8" letter-spacing="-.07em">a</tspan><tspan x="36.83" y="28.8">t </tspan><tspan x="58.29" y="28.8" letter-spacing="-.04em">l</tspan><tspan x="65.1" y="28.8" letter-spacing=".03em">o</tspan><tspan x="77.94" y="28.8" letter-spacing=".02em">n</tspan><tspan x="91.09" y="28.8" letter-spacing="-.05em">g</tspan><tspan x="103.19" y="28.8" letter-spacing="0em">?</tspan></text>
  <text transform="translate(166.41 100.05)" font-family="ChalkboardSE-Bold, &apos;Chalkboard SE&apos;" font-size="24" font-weight="700"><tspan x="0" y="0">H</tspan><tspan x="15.46" y="0" letter-spacing=".02em">o</tspan><tspan x="28.27" y="0" letter-spacing="0em">w </tspan><tspan x="56.03" y="0" letter-spacing="0em">m</tspan><tspan x="74.28" y="0" letter-spacing="0em">u</tspan><tspan x="87.49" y="0" letter-spacing="0em">c</tspan><tspan x="99.87" y="0">h is </tspan><tspan x="150.73" y="0" letter-spacing="-.03em">y</tspan><tspan x="163.46" y="0" letter-spacing=".03em">o</tspan><tspan x="176.43" y="0" letter-spacing=".02em">u</tspan><tspan x="190.01" y="0">r m</tspan><tspan x="229.2" y="0" letter-spacing=".03em">o</tspan><tspan x="242.04" y="0" letter-spacing="-.04em">n</tspan><tspan x="253.92" y="0">th</tspan><tspan x="279" y="0" letter-spacing="-.04em">l</tspan><tspan x="285.82" y="0">y </tspan><tspan x="309.16" y="0" letter-spacing="-.04em">l</tspan><tspan x="315.84" y="0" letter-spacing="0em">i</tspan><tspan x="322.39" y="0">vi</tspan><tspan x="340.61" y="0" letter-spacing=".02em">n</tspan><tspan x="353.76" y="0">g </tspan><tspan x="376.89" y="0" letter-spacing="-.03em">e</tspan><tspan x="389.3" y="0" letter-spacing="-.01em">x</tspan><tspan x="402.88" y="0" letter-spacing=".01em">p</tspan><tspan x="416.35" y="0" letter-spacing="0em">ense?</tspan></text>
  <text transform="translate(577.12 274.68)" font-family="ChalkboardSE-Bold, &apos;Chalkboard SE&apos;" font-size="24" font-weight="700"><tspan x="0" y="0">Do </tspan><tspan x="37.98" y="0" letter-spacing="-.03em">y</tspan><tspan x="50.7" y="0" letter-spacing=".03em">o</tspan><tspan x="63.67" y="0">u </tspan><tspan x="86.82" y="0" letter-spacing="-.04em">l</tspan><tspan x="93.51" y="0" letter-spacing="0em">i</tspan><tspan x="100.06" y="0" letter-spacing="0em">v</tspan><tspan x="111.56" y="0" letter-spacing="0em">e </tspan><tspan x="134.66" y="0" letter-spacing=".04em">w</tspan><tspan x="153.41" y="0" letter-spacing="-.07em">i</tspan><tspan x="158.19" y="0">th </tspan><tspan x="0" y="28.8" letter-spacing="-.03em">y</tspan><tspan x="12.73" y="28.8" letter-spacing=".03em">o</tspan><tspan x="25.7" y="28.8" letter-spacing=".02em">u</tspan><tspan x="39.27" y="28.8">r </tspan><tspan x="60.25" y="28.8" letter-spacing="-.03em">f</tspan><tspan x="70.41" y="28.8">a</tspan><tspan x="83.8" y="28.8" letter-spacing=".02em">m</tspan><tspan x="102.39" y="28.8" letter-spacing="0em">i</tspan><tspan x="108.91" y="28.8" letter-spacing="-.04em">l</tspan><tspan x="115.73" y="28.8" letter-spacing="0em">y</tspan><tspan x="129.28" y="28.8" letter-spacing="0em">?</tspan></text>
  <g>
    <path d="M689.1,394.53c-8.34,1.39-20.8,2.61-23.22,33.27-1.81,22.93-2.12,32.07-2.12,32.07,0,0-17.26,118.17-16.62,118.95.64.78,16.73.69,16.73.69l55.21-181.74s-16.6-5.47-29.98-3.24Z" fill="#f7bc00" stroke="#000" stroke-linecap="round" stroke-linejoin="round" stroke-width="4.2"/>
    <path d="M687.19,395.56l-5.36,30.21,13.42,2.46,8.11-33.03s-11.37-1.99-16.17.36Z"/>
    <polygon points="679.84 433.88 698.02 435.59 659.19 580 651.62 580.6 679.84 433.88" fill="#ddd"/>
    <circle cx="687.9" cy="429.36" r="17.1" transform="translate(-102.12 612.17) rotate(-45)"/>
    <polygon points="689.13 421.5 682.19 424.29 681.13 431.7 687.02 436.32 693.97 433.53 695.02 426.12 689.13 421.5" fill="#fff"/>
    <path d="M678.86,439.91s-27.55,139.59-27.12,139.14" fill="none" stroke="#000" stroke-linecap="round" stroke-miterlimit="10" stroke-width="1.87"/>
    <path d="M695.87,441.12s-37.22,138.26-36.7,137.99" fill="none" stroke="#000" stroke-linecap="round" stroke-miterlimit="10" stroke-width="1.87"/>
    <line x1="665.82" y1="507.52" x2="675.38" y2="515.75" fill="none" stroke="#000" stroke-linecap="round" stroke-miterlimit="10" stroke-width="1.87"/>
    <line x1="660.78" y1="532.69" x2="668.88" y2="539.7" fill="none" stroke="#000" stroke-linecap="round" stroke-miterlimit="10" stroke-width="1.87"/>
    <line x1="655.94" y1="558.03" x2="662.86" y2="564.12" fill="none" stroke="#000" stroke-linecap="round" stroke-miterlimit="10" stroke-width="1.87"/>
    <line x1="669.84" y1="484.32" x2="681.25" y2="495.03" fill="none" stroke="#221a38" stroke-linecap="round" stroke-miterlimit="10" stroke-width="1.87"/>
    <line x1="675.36" y1="457.4" x2="687.82" y2="468.96" fill="none" stroke="#000" stroke-linecap="round" stroke-miterlimit="10" stroke-width="1.87"/>
  </g>
</svg>