<?xml version="1.0" encoding="UTF-8"?>
<svg id="Layer_1" data-name="Layer 1" xmlns="http://www.w3.org/2000/svg" width="800" height="600" viewBox="0 0 800 600">
  <rect x="-11.35" y="-9.46" width="822.55" height="618.34" fill="#2b3751"/>
  <g>
    <path d="M342.48,267.79c30.61,89.96-16.05,186.44-104.21,215.5-88.16,29.06-184.44-20.31-215.04-110.27-30.61-89.96,16.05-186.44,104.21-215.5,88.16-29.06,184.44,20.31,215.04,110.27Z" fill="#ff911a"/>
    <ellipse cx="223.71" cy="237.1" rx="161.25" ry="138.24" transform="translate(-77.51 112.49) rotate(-24.19)" fill="#ff911a"/>
    <ellipse cx="312.96" cy="219.29" rx="161.25" ry="146.91" transform="translate(-48.02 93.9) rotate(-15.86)" fill="#ff911a"/>
    <path d="M512.52,423.83c-26.21,89.05-149.7,142.01-254.24,111.24-104.54-30.77-150.54-133.61-124.33-222.66,26.21-89.05,132.2-136.3,236.74-105.54,104.54,30.77,168.04,127.9,141.83,216.95Z" fill="#ff911a"/>
    <ellipse cx="564.75" cy="336.25" rx="224.53" ry="210.83" transform="translate(-87.7 256.76) rotate(-23.82)" fill="#ff911a"/>
    <ellipse cx="436.84" cy="208.82" rx="196.36" ry="143.2" transform="translate(-44.27 154.3) rotate(-19.08)" fill="#ff911a"/>
    <ellipse cx="472.64" cy="462.03" rx="112.61" ry="92.65" transform="translate(-110.54 150.97) rotate(-16.27)" fill="#ff911a"/>
  </g>
  <path d="M166.35,212.19s-54.76-3.34-72.12,55.42c-17.36,58.76,36.73,94.82,66.11,97.49,29.38,2.67,82.13-4.67,89.48-56.76,7.35-52.09-19.37-96.16-83.47-96.16Z" fill="none" stroke="#000" stroke-linecap="round" stroke-miterlimit="10" stroke-width="2.55"/>
  <path d="M219.49,296.51c0-.41,0-.69,0-.69.18-10.27-.9-16.4-8.29-18.74-7.39-2.34-13.87,4.69-15.5,9.37-1.62,4.69-7.62,25.6,8.65,28,7.58,1.12,10.87-4.14,12.6-9.43,6.46,1.91,8.75-1.17,8.85-3.26.12-2.42-3.6-4.25-6.3-5.25Z" fill="none" stroke="#000" stroke-linecap="round" stroke-miterlimit="10" stroke-width="2.55"/>
  <path d="M251.1,290.18s-.53-3.23-3.63-2.97c-3.1.26-7.32,3.76-9.23,12.86-.05.24-.08.48-.12.72-.68-.11-1.41-.19-2.12-.19-2.57,0-3.69,2.64-2.9,4.62.45,1.13,2.02,2.37,4.94,3.01.9,5.85,3.99,10.3,7.66,9.38,6.13-1.53,5.41-27.43,5.41-27.43Z" fill="none" stroke="#000" stroke-linecap="round" stroke-miterlimit="10" stroke-width="2.55"/>
  <path d="M209.49,294.54s-3.63-1.06-5.34,7.12c-1.71,8.18,1.52,8.57,2.97,8.31,1.45-.26,3.1-4.62,3.96-8.71.86-4.09.07-6.53-1.58-6.73Z"/>
  <path d="M247.87,299.55s-3.1-.53-4.48,6.86c-1.38,7.39.46,7.85,1.71,7.91,1.25.07,2.97-3.43,3.89-6.53.92-3.1,1.12-8.11-1.12-8.24Z"/>
  <path d="M223.8,322.04s7.19-1.19,8.05,2.84c.86,4.02-2.18,7.52-9.56,5.74" fill="none" stroke="#000" stroke-linecap="round" stroke-miterlimit="10" stroke-width="2.55"/>
  <path d="M223.2,345.64s-6.46-1.32-12.33-1.06" fill="none" stroke="#000" stroke-linecap="round" stroke-miterlimit="10" stroke-width="2.55"/>
  <path d="M121.22,230.63s40.6,11.53,55.02,24.99c0,0,42.28-13.69,66.55,3.6,0,0,3.12-17.54-21.62-34.84-24.75-17.3-87.45-25.95-99.94,6.25Z"/>
  <path d="M250.11,450.36c1.44.96.43,4.83-.96,6.13-12.7,11.86-31.21,1.97-31.21,1.97-18.17,12.22-63.29,27.57-109.35,9.71-46.06-17.86-36.66-72.07-28.2-93.06,6.84-16.97,26.46-28.89,33.85-32.89" fill="none" stroke="#000" stroke-linecap="round" stroke-miterlimit="10" stroke-width="2.55"/>
  <path d="M122.07,383.26s-17.86,32.27,7.83,50.13c25.69,17.86,87.11-.63,87.11-.63,0,0,9.27-9.38,23.94-10.24" fill="none" stroke="#000" stroke-linecap="round" stroke-miterlimit="10" stroke-width="2.55"/>
  <path d="M259.72,457.32c-1.15,2.3-3.65,8.38-4.56,8.89-5.01,2.82-20.3,1.56-26.67-1.8-.76-.4-.73-.85-.69-2.4" fill="none" stroke="#000" stroke-linecap="round" stroke-miterlimit="10" stroke-width="2.55"/>
  <path d="M235.52,435.82l8.43-20.29s1.57-6.27,10.34-5.64c8.77.63,15.67.63,15.67.63,0,0,8.15.31,3.76,8.77-1.19,2.3-2.58,7.64-5.23,13.17" fill="none" stroke="#000" stroke-linecap="round" stroke-miterlimit="10" stroke-width="2.55"/>
  <path d="M207.59,360.02s10.81,3.24,17.18,35.68c3.61,18.41,12.49,21,18.05,21.95" fill="none" stroke="#000" stroke-linecap="round" stroke-miterlimit="10" stroke-width="2.55"/>
  <path d="M235.46,436.06s.36,3.24,4.8,3.12c4.44-.12,5.44-2.14,6.37-3.48,1.56-2.28,3.6-4.2,6.25-1.8,4.12,3.74-4.56,10.09-7.21,11.29" fill="none" stroke="#000" stroke-linecap="round" stroke-miterlimit="10" stroke-width="2.55"/>
  <path d="M251.92,441.35s3.72.84.84,6.49c-.93,1.82-5.77,4.56-11.17,5.77" fill="none" stroke="#000" stroke-linecap="round" stroke-miterlimit="10" stroke-width="2.55"/>
  <path d="M268.61,432.7s-3,2.52-5.53.6c-2.52-1.92-2.04-3.6-4.68-3.84-2.64-.24-4.62,4.62.12,8.77,4.8,4.2,7.45,3,8.89,2.28,1.44-.72,5.77-4.32,1.2-7.81Z" fill="none" stroke="#000" stroke-linecap="round" stroke-miterlimit="10" stroke-width="2.55"/>
  <path d="M259.72,439.79s-2.4-1.32-4.56,1.8c-2.16,3.12,1.08,8.05,6.97,8.29,5.89.24,7.45-3.96,4.08-7.81,0,0-4.32,0-6.49-2.28Z" fill="none" stroke="#000" stroke-linecap="round" stroke-miterlimit="10" stroke-width="2.55"/>
  <path d="M262.85,449.88s-2.88.36-5.89-.24c-3-.6-4.2,2.88-3.48,4.32s5.17,4.32,9.25,3.36,5.89-2.04,3.84-8.65" fill="none" stroke="#000" stroke-linecap="round" stroke-miterlimit="10" stroke-width="2.55"/>
  <path d="M77.85,438.53c-.36,1.89-1.17,6.18-2.13,11.7" fill="none" stroke="#000" stroke-linecap="round" stroke-miterlimit="10" stroke-width="2.55"/>
  <path d="M419.52,108.26s-41.66-2.14-61.6,50.56c-19.94,52.7,36.68,82.97,68.72,80.12,32.05-2.85,64.45-11.04,65.16-60.89.71-49.85-33.83-69.79-72.28-69.79Z" fill="none" stroke="#000" stroke-linecap="round" stroke-miterlimit="10" stroke-width="2.55"/>
  <path d="M415.97,164.01c-1.09-.18-3.17-.32-4.96-.41.1-2.75-.11-14.78-11.78-15.09-13.17-.36-12.82,17.09-12.11,24.21.71,7.12,6.77,14.6,12.46,13.89,4.64-.58,9.98-3.05,11.23-13.75,1.88-.03,4-.13,5.34-.38,2.88-.54,3.96-1.62,4.14-4.14.18-2.52-2.16-3.96-4.32-4.32Z" fill="none" stroke="#000" stroke-linecap="round" stroke-linejoin="round" stroke-width="2.55"/>
  <path d="M469.12,153.19c-1.98-3.06-16.4-12.97-21.8,5.95,0,0-.37,1.35-.63,3.42h-5.32s-6.67.72-5.59,6.49c.7,3.74,6.99,3.99,11.34,3.71.81,3.37,2.46,6.78,5.6,9.45,9.55,8.11,18.74-.36,20.18-7.75,1.44-7.39-1.8-18.2-3.78-21.26Z" fill="none" stroke="#000" stroke-linecap="round" stroke-linejoin="round" stroke-width="2.55"/>
  <path d="M402.8,166.4s-4.14.18-3.78,7.75c.36,7.57,3.42,6.67,5.23,6.13,1.8-.54,1.98-5.77,1.8-8.29s-.36-6.13-3.24-5.59Z"/>
  <path d="M464.28,165.14s-2.7,1.44-2.52,5.77c.18,4.32.54,9.73,3.6,10.09,3.06.36,3.24-3.96,3.24-9.01s-1.44-8.29-4.32-6.85Z"/>
  <path d="M415.25,186.71s6.31-1.98,9.01,1.62c2.7,3.6-2.52,7.39-7.93,5.95" fill="none" stroke="#000" stroke-linecap="round" stroke-miterlimit="10" stroke-width="2.55"/>
  <path d="M412.36,212.11s7.93,5.95,14.23-.18" fill="none" stroke="#000" stroke-linecap="round" stroke-miterlimit="10" stroke-width="2.55"/>
  <path d="M391.19,316.08c-1.62,1.35-2.25,2.79-2.25,2.79-7.57,15.14-25.95,36.31-42.52,35.59-16.58-.72-26.3-30.97-16.94-65.59,10.1-37.35,43-52.42,52.68-56.11" fill="none" stroke="#000" stroke-linecap="round" stroke-linejoin="round" stroke-width="2.55"/>
  <path d="M398.13,294.28s-3.6-8.83-2.7-11.53c.9-2.7,3.78-3.42,5.41.36,1.62,3.78,4.23,11.26,4.23,11.26l-6.94-.09Z"/>
  <path d="M433.17,354.01l-.21,9.61c-.03,1.21-1.04,2.17-2.26,2.15l-36.41-.81c-1.18-.03-2.14-.98-2.16-2.17l-1-51.64c-.02-1.15.91-2.09,2.06-2.08l39.43.33c1.04,0,1.87.87,1.84,1.91l-.58,18.11" fill="none" stroke="#000" stroke-linecap="round" stroke-miterlimit="10" stroke-width="2.55"/>
  <path d="M434.26,325.09s5.5,5.05-4.05,4.68c-8.35-.32-11.71-1.98-17.48-2.7-5.77-.72-6.58,3.6-2.88,4.77,3,.95,17.3,2.67,16.22,5.5-1.08,2.82-13.45-1.32-17.78-1.86s-5.59,4.5,1.08,5.41c6.67.9,14.9,2.82,13.99,4.2-1.35,2.05-12.23-1.29-14.21-.57-1.98.72-2.69,3.34.67,4.11,2.57.58,24.71,8.54,36.25,3.67,0,0,42.52,9.73,55.32-14.23,12.79-23.96,7.93-59.88-26.91-98.56,0,0-4.08-3.84-12.01-4.56-2.55-.23-4.31-.96-5.52-1.85" fill="none" stroke="#000" stroke-linecap="round" stroke-miterlimit="10" stroke-width="2.55"/>
  <path d="M474.47,239.5s-9.49,23.78-8.59,50.63c0,0,14.41,12.79,14.23,23.96-.18,11.17-10.99,12.97-16.4,14.78-5.41,1.8-20.18-3.06-20.18-3.06-3.3-4.95-7.44-7.8-9.22-8.88" fill="none" stroke="#000" stroke-linecap="round" stroke-miterlimit="10" stroke-width="2.55"/>
  <path d="M378.13,233.74s1.44,10.09.72,16.22c-.72,6.13-1.44,11.17,9.01,11.53,10.45.36,54.78,5.41,62.34,3.24,7.57-2.16,5.77-2.88,6.85-10.09,1.08-7.21,3.24-15.86,6.49-19.1" fill="none" stroke="#000" stroke-linecap="round" stroke-miterlimit="10" stroke-width="2.55"/>
  <path d="M370.56,238.06c.36,1.08,2.52,37.12-5.77,56.22,0,0-9.91,12.25-7.21,24.69,0,0,.9,2.7,7.57-3.42,6.67-6.13,16.76-16.04,21.98-18.2,5.23-2.16,11.53-2.16,17.84-2.52,0,0,4.23-.72,3.33,2.34-.75,2.54-12.16,3.78-12.16,3.78,0,0,12.91-3.57,13.69.18.45,2.16-12.49,4.68-12.49,4.68,12.67-3.15,14.29,1.53,6.64,3.42" fill="none" stroke="#000" stroke-linecap="round" stroke-linejoin="round" stroke-width="2.55"/>
  <path d="M353.27,353.78c-.56,7.94-3.15,43.83-5.92,73.24" fill="none" stroke="#000" stroke-linecap="round" stroke-linejoin="round" stroke-width="2.55"/>
  <path d="M481.19,352.18s1.92,46.61,6.73,66.79c.78,3.27,1.36,6.86,1.8,10.6" fill="none" stroke="#000" stroke-linecap="round" stroke-linejoin="round" stroke-width="2.55"/>
  <path d="M271.69,425.58c79.78,1.03,331.47,6.16,331.47,6.16,0,0,4.94-.77,7.82,4.04,2.88,4.8,20.82,53.2,20.82,53.2,0,0,2.42,4.43-7.5,3.31-.93-.11-419.47-8.65-419.47-8.65,0,0-4.8.48,1.44-7.21,2.11-2.6,7.47-9.24,13.65-16.91" fill="none" stroke="#000" stroke-linecap="round" stroke-linejoin="round" stroke-width="2.55"/>
  <path d="M631.02,493.24c0-1.44-.17,19.38-.17,19.38" fill="none" stroke="#000" stroke-linecap="round" stroke-linejoin="round" stroke-width="2.55"/>
  <line x1="203.34" y1="482.8" x2="203.39" y2="496.54" fill="none" stroke="#000" stroke-linecap="round" stroke-linejoin="round" stroke-width="2.55"/>
  <g>
    <path d="M681.39,388.14c-8.42,1.4-20.99,2.63-23.44,33.58-1.83,23.14-2.14,32.37-2.14,32.37,0,0-17.42,119.29-16.78,120.08s16.89.7,16.89.7l55.74-183.46s-16.76-5.52-30.26-3.27Z" fill="#f7bc00" stroke="#000" stroke-linecap="round" stroke-linejoin="round" stroke-width="4.24"/>
    <path d="M679.46,389.17l-5.41,30.5,13.55,2.48,8.19-33.34s-11.48-2-16.33.36Z"/>
    <polygon points="672.04 427.86 690.39 429.58 651.19 575.36 643.55 575.96 672.04 427.86" fill="#ddd"/>
    <circle cx="680.17" cy="423.3" r="17.26" transform="translate(-98.7 610.84) rotate(-45.43)"/>
    <polygon points="681.42 415.36 674.41 418.18 673.34 425.66 679.29 430.32 686.3 427.5 687.37 420.02 681.42 415.36" fill="#fff"/>
    <path d="M671.05,433.95s-27.81,140.91-27.37,140.45" fill="none" stroke="#000" stroke-linecap="round" stroke-miterlimit="10" stroke-width="1.88"/>
    <path d="M688.22,435.17s-37.57,139.57-37.05,139.29" fill="none" stroke="#000" stroke-linecap="round" stroke-miterlimit="10" stroke-width="1.88"/>
    <line x1="657.89" y1="502.19" x2="667.53" y2="510.5" fill="none" stroke="#000" stroke-linecap="round" stroke-miterlimit="10" stroke-width="1.88"/>
    <line x1="652.8" y1="527.6" x2="660.97" y2="534.68" fill="none" stroke="#000" stroke-linecap="round" stroke-miterlimit="10" stroke-width="1.88"/>
    <line x1="647.92" y1="553.18" x2="654.9" y2="559.33" fill="none" stroke="#000" stroke-linecap="round" stroke-miterlimit="10" stroke-width="1.88"/>
    <line x1="661.95" y1="478.77" x2="673.46" y2="489.59" fill="none" stroke="#221a38" stroke-linecap="round" stroke-miterlimit="10" stroke-width="1.88"/>
    <line x1="667.52" y1="451.6" x2="680.1" y2="463.27" fill="none" stroke="#000" stroke-linecap="round" stroke-miterlimit="10" stroke-width="1.88"/>
  </g>
  <g>
    <rect x="491.19" y="305.43" width="275.19" height="49.8" rx="24.9" ry="24.9" fill="#fff"/>
    <rect x="491.19" y="273.85" width="275.19" height="49.8" rx="24.9" ry="24.9" fill="#fff"/>
    <rect x="491.19" y="334.8" width="191.31" height="49.8" rx="24.9" ry="24.9" fill="#fff"/>
    <path d="M559.14,379.93s10.11,24,38.53,33.47l-15.16-35.37-23.37,1.89Z" fill="#fff"/>
  </g>
  <g>
    <path d="M530.15,307.18c-.05.39-.19.72-.4.99s-.46.46-.73.57c-.27.11-.57.12-.88.04-.31-.08-.6-.29-.86-.62-.23-.28-.36-.6-.38-.94-.03-.34-.08-.69-.15-1.02-.18-.97-.43-1.97-.77-3-1.1.02-2.18.03-3.26.03s-2.16,0-3.24.03c-.16.46-.3.93-.41,1.41s-.23.95-.33,1.41c-.09.35-.17.72-.24,1.1-.07.38-.23.71-.48.99-.3.35-.62.55-.97.6-.34.04-.65-.01-.93-.17-.27-.16-.5-.4-.66-.73-.17-.33-.23-.7-.17-1.13.05-.55.16-1.09.32-1.62.16-.53.31-1.06.45-1.59.8-3.04,1.82-5.98,3.08-8.83.11-.25.22-.49.33-.72.11-.23.23-.46.33-.69.12-.25.25-.51.37-.8.12-.28.27-.54.44-.78.17-.24.37-.44.6-.61.23-.17.51-.25.85-.25.44,0,.81.14,1.11.42,1.2,1.2,2.19,2.56,2.97,4.07.78,1.51,1.48,3.05,2.1,4.63.37-.02.73-.02,1.09,0,.35.02.67.18.95.48.25.25.39.51.44.8.04.28.02.56-.08.82-.1.27-.26.5-.48.69-.22.19-.49.33-.81.4.18.62.33,1.25.46,1.9.13.65.24,1.3.33,1.95v.19ZM524.74,299.97c-.34-.8-.69-1.59-1.07-2.37-.38-.79-.81-1.53-1.29-2.24-.35.78-.69,1.55-.99,2.32-.31.77-.6,1.55-.86,2.35.83-.02,1.56-.03,2.19-.03s1.3,0,2.03-.03Z"/>
    <path d="M536.35,308.27c-.23.28-.5.48-.8.58-.3.11-.61.11-.93,0-.32-.11-.58-.34-.8-.72-.09-.14-.16-.29-.21-.45s-.08-.32-.08-.48v-6.97c-.34,0-.64-.09-.91-.28-.27-.19-.48-.42-.61-.69-.13-.27-.18-.57-.15-.88.04-.31.18-.6.42-.86.18-.19.37-.32.57-.38.2-.06.42-.1.65-.12-.02-.55-.03-1.09-.04-1.62,0-.53.03-1.06.12-1.59.11-.83.35-1.54.74-2.12.39-.58.87-1.03,1.45-1.35.57-.32,1.22-.5,1.92-.56.71-.05,1.44.05,2.2.32.32.11.62.24.91.4s.55.36.78.61c.16.18.27.38.34.62.07.24.08.48.04.72-.04.24-.13.46-.27.66-.13.2-.32.36-.57.46-.34.14-.67.18-.99.11-.33-.07-.65-.19-.97-.34-.19-.07-.38-.14-.56-.21-.18-.07-.36-.12-.56-.16-.19-.04-.37,0-.53.08-.16.09-.3.21-.41.36-.12.15-.2.32-.27.5-.06.19-.09.37-.09.54-.02.41-.02.82-.01,1.23,0,.42.01.83.01,1.23.27-.02.55-.04.85-.05.3-.02.6-.03.89-.03s.56,0,.81.03c.25.02.44.05.58.11.28.11.51.27.69.49.18.22.29.46.34.72.05.26.03.52-.07.78-.1.27-.27.5-.52.69-.23.18-.5.3-.8.37-.3.07-.62.12-.95.15-.34.03-.66.04-.98.03-.32,0-.6-.01-.85-.01v7.08c-.05.39-.19.72-.42,1.01Z"/>
    <path d="M543.57,299.12c-.35-.09-.66-.24-.92-.45-.26-.21-.43-.46-.53-.74-.1-.28-.1-.57,0-.88.1-.3.31-.57.65-.82.28-.21.6-.32.95-.32h1.03c0-.12,0-.39-.03-.81-.02-.42-.02-.87-.01-1.37,0-.49.04-.97.09-1.42.05-.45.15-.76.29-.94.35-.49.79-.73,1.31-.7.52.03.95.28,1.29.76.07.09.14.19.2.32.06.12.09.24.09.34.02.64.02,1.27.01,1.91,0,.64-.01,1.27-.01,1.91h2.09c.32,0,.59.11.82.32.23.21.39.46.49.74.1.28.12.57.08.88-.04.3-.18.55-.41.74-.41.34-.88.51-1.42.53-.54.02-1.09.03-1.66.03,0,.97,0,1.95-.01,2.92,0,.97,0,1.94.01,2.92,0,.42.02.86.07,1.3.04.44.01.87-.09,1.27-.09.32-.24.57-.45.76-.21.19-.45.3-.72.34-.27.04-.54.03-.82-.05-.28-.08-.55-.23-.8-.44-.12-.12-.22-.34-.28-.64-.06-.3-.1-.62-.12-.95-.02-.39-.02-.8,0-1.25v-1.38c0-.57,0-1.15-.01-1.76,0-.61-.01-1.19-.01-1.74v-1.3l-1.19-.03Z"/>
    <path d="M561.47,304.4c.42-.11.8-.11,1.13-.01.33.1.58.26.76.49.18.23.26.51.24.85-.02.34-.17.69-.45,1.06-.23.3-.55.56-.95.77-.41.21-.79.38-1.14.5-.87.32-1.69.54-2.47.66-.78.12-1.51.12-2.19,0-.68-.12-1.32-.38-1.91-.77-.59-.39-1.15-.94-1.66-1.64-.35-.48-.61-1.02-.78-1.63-.17-.61-.26-1.23-.28-1.87-.02-.64.04-1.26.16-1.88.12-.62.3-1.18.53-1.67.3-.62.78-1.18,1.43-1.7.65-.51,1.38-.92,2.17-1.22.8-.3,1.61-.47,2.44-.52.83-.04,1.56.08,2.2.38.53.25.99.61,1.37,1.07.38.47.64.98.78,1.52.14.55.15,1.1.04,1.66-.11.56-.4,1.07-.86,1.52s-.93.8-1.46,1.07c-.53.27-1.08.51-1.64.72-.57.2-1.14.38-1.74.52-.59.14-1.16.3-1.71.48.37.42.8.69,1.27.81.48.12.98.14,1.5.07.52-.07,1.05-.22,1.58-.44.53-.22,1.03-.46,1.49-.73l.16-.08ZM556.11,299.84c-.41.23-.71.52-.9.86-.19.34-.34.83-.42,1.45.46-.14.98-.29,1.55-.45.57-.16,1.12-.33,1.63-.5.51-.18.95-.37,1.3-.58.35-.21.53-.44.53-.69,0-.14-.02-.28-.07-.41-.04-.13-.14-.23-.28-.28-.5-.18-1.01-.21-1.54-.11-.53.11-.97.26-1.33.45l-.48.27Z"/>
    <path d="M566.32,299.77c.02-.11,0-.32-.03-.62-.28-.16-.5-.36-.66-.61-.16-.25-.25-.51-.28-.8-.03-.28.03-.55.16-.81.13-.26.35-.47.65-.65.41-.23.85-.27,1.34-.13.49.14.91.35,1.26.64.44-.34.9-.62,1.38-.85.48-.23.96-.38,1.46-.46.49-.08,1-.07,1.51.04.51.11,1.02.33,1.51.66.25.16.48.36.69.6.21.24.34.51.4.81.09.44.05.83-.11,1.15-.16.33-.38.57-.66.72-.28.15-.6.19-.95.13-.35-.06-.69-.25-1.01-.57-.11-.07-.18-.13-.23-.17-.04-.04-.14-.1-.28-.17-.28-.07-.56-.05-.84.05-.27.11-.54.25-.8.44-.26.19-.5.39-.72.61l-.6.6v6.76c0,.27-.05.52-.16.77-.16.41-.41.69-.76.85-.34.16-.69.2-1.03.13-.34-.07-.65-.25-.9-.53-.26-.28-.38-.65-.38-1.09v-7.43c0,.07,0,.05.03-.07Z"/>
    <path d="M588.54,299.12c-.35-.09-.66-.24-.92-.45-.26-.21-.43-.46-.53-.74-.1-.28-.1-.57,0-.88.1-.3.31-.57.65-.82.28-.21.6-.32.95-.32h1.03c0-.12,0-.39-.03-.81-.02-.42-.02-.87-.01-1.37,0-.49.04-.97.09-1.42.05-.45.15-.76.29-.94.35-.49.79-.73,1.31-.7.52.03.95.28,1.29.76.07.09.14.19.2.32.06.12.09.24.09.34.02.64.02,1.27.01,1.91,0,.64-.01,1.27-.01,1.91h2.09c.32,0,.59.11.82.32.23.21.39.46.49.74.1.28.12.57.08.88-.04.3-.18.55-.41.74-.41.34-.88.51-1.42.53-.54.02-1.09.03-1.66.03,0,.97,0,1.95-.01,2.92,0,.97,0,1.94.01,2.92,0,.42.02.86.07,1.3.04.44.01.87-.09,1.27-.09.32-.24.57-.45.76-.21.19-.45.3-.72.34-.27.04-.54.03-.82-.05-.28-.08-.55-.23-.8-.44-.12-.12-.22-.34-.28-.64-.06-.3-.1-.62-.12-.95-.02-.39-.02-.8,0-1.25v-1.38c0-.57,0-1.15-.01-1.76,0-.61-.01-1.19-.01-1.74v-1.3l-1.19-.03Z"/>
    <path d="M600.85,308.5c-.35.26-.72.38-1.1.36-.38-.02-.72-.17-1.01-.46s-.44-.69-.44-1.21v-14.74c0-.41.16-.75.48-1.03.32-.28.67-.46,1.06-.53.39-.07.75,0,1.09.19.34.19.52.56.56,1.09.07.92.1,1.82.09,2.69,0,.88-.02,1.75-.04,2.64.65-.44,1.33-.74,2.04-.89.71-.15,1.39-.15,2.04.01.65.16,1.26.48,1.83.95.57.48,1.03,1.14,1.38,1.99.25.57.42,1.17.5,1.82.09.65.14,1.3.15,1.96,0,.66,0,1.32-.03,1.98-.03.65-.04,1.27-.04,1.86,0,.37-.1.71-.29,1.01-.19.3-.44.52-.73.66-.29.14-.6.19-.93.13-.33-.05-.62-.25-.89-.58-.27-.35-.43-.77-.49-1.25-.06-.48-.08-.99-.05-1.52.03-.54.07-1.09.12-1.66.05-.57.07-1.11.04-1.63s-.13-1-.3-1.45c-.18-.44-.49-.8-.93-1.09-.35-.05-.67-.03-.95.07-.28.1-.54.24-.77.44-.23.19-.45.42-.65.66-.2.25-.41.5-.62.74-.05.09-.12.17-.19.25-.07.08-.15.16-.24.25v5.04c-.11.58-.34,1-.69,1.26Z"/>
    <path d="M623.18,306.79c.14.51.11.94-.08,1.27-.19.34-.46.56-.81.68s-.72.1-1.13-.04c-.41-.14-.76-.42-1.06-.85-.5.37-.98.63-1.45.78-.47.15-1,.23-1.6.25-.9.04-1.71-.07-2.41-.3-.71-.24-1.3-.6-1.79-1.07-.49-.48-.84-1.07-1.07-1.79-.23-.72-.31-1.54-.24-2.48.04-.39.1-.77.2-1.14.1-.37.21-.73.33-1.09.14-.39.34-.8.6-1.25.26-.44.52-.82.78-1.14.95-1.17,2.15-2.01,3.58-2.52.25-.09.58-.17,1.01-.24.42-.07.85-.1,1.29-.09.43,0,.85.07,1.25.17.4.11.69.29.89.56.16.21.27.4.34.56.07.16.11.33.12.5,0,.18,0,.37,0,.57,0,.2-.01.46-.01.76,0,.5,0,.98-.01,1.45,0,.47,0,.94.01,1.42v.62c0,.26,0,.53.03.81.02.28.04.55.07.81.03.26.07.46.12.62l1.06,2.17ZM617.56,305.59c.19-.12.42-.26.66-.41.25-.15.47-.32.66-.52-.16-.94-.25-1.87-.28-2.81-.03-.94-.02-1.88.01-2.84-.8.14-1.51.49-2.15,1.03-.64.55-1.08,1.19-1.33,1.94-.11.3-.19.61-.27.93-.07.32-.1.63-.08.93.02.41.12.75.32,1.02.19.27.43.48.7.62.27.14.57.22.88.24.31.02.6-.03.86-.13Z"/>
    <path d="M625.38,299.12c-.35-.09-.66-.24-.92-.45-.26-.21-.43-.46-.53-.74-.1-.28-.1-.57,0-.88.1-.3.31-.57.65-.82.28-.21.6-.32.95-.32h1.03c0-.12,0-.39-.03-.81-.02-.42-.02-.87-.01-1.37,0-.49.04-.97.09-1.42.05-.45.15-.76.29-.94.35-.49.79-.73,1.31-.7.52.03.95.28,1.29.76.07.09.14.19.2.32.06.12.09.24.09.34.02.64.02,1.27.01,1.91,0,.64-.01,1.27-.01,1.91h2.09c.32,0,.59.11.82.32.23.21.39.46.49.74.1.28.12.57.08.88-.04.3-.18.55-.41.74-.41.34-.88.51-1.42.53-.54.02-1.09.03-1.66.03,0,.97,0,1.95-.01,2.92,0,.97,0,1.94.01,2.92,0,.42.02.86.07,1.3.04.44.01.87-.09,1.27-.09.32-.24.57-.45.76-.21.19-.45.3-.72.34-.27.04-.54.03-.82-.05-.28-.08-.55-.23-.8-.44-.12-.12-.22-.34-.28-.64-.06-.3-.1-.62-.12-.95-.02-.39-.02-.8,0-1.25v-1.38c0-.57,0-1.15-.01-1.76,0-.61-.01-1.19-.01-1.74v-1.3l-1.19-.03Z"/>
    <path d="M633.73,305.27c.21-.35.48-.59.8-.72.32-.12.64-.15.95-.09.32.06.6.22.84.46.24.25.38.57.41.98.04.28-.01.55-.15.8-.13.25-.25.5-.36.74-.27.58-.53,1.17-.81,1.76-.27.59-.57,1.16-.89,1.71-.19.34-.45.56-.77.68-.32.11-.64.14-.95.07-.32-.07-.6-.23-.84-.48-.24-.25-.37-.57-.38-.95l2.15-4.96Z"/>
    <path d="M651.69,308.5c-.35.26-.72.38-1.1.36-.38-.02-.72-.17-1.01-.46s-.44-.69-.44-1.21v-14.74c0-.41.16-.75.48-1.03.32-.28.67-.46,1.06-.53.39-.07.75,0,1.09.19.34.19.52.56.56,1.09.07.92.1,1.82.09,2.69,0,.88-.02,1.75-.04,2.64.65-.44,1.33-.74,2.04-.89.71-.15,1.39-.15,2.04.01.65.16,1.26.48,1.83.95.57.48,1.03,1.14,1.38,1.99.25.57.42,1.17.5,1.82.09.65.14,1.3.15,1.96,0,.66,0,1.32-.03,1.98-.03.65-.04,1.27-.04,1.86,0,.37-.1.71-.29,1.01-.19.3-.44.52-.73.66-.29.14-.6.19-.93.13-.33-.05-.62-.25-.89-.58-.27-.35-.43-.77-.49-1.25-.06-.48-.08-.99-.05-1.52.03-.54.07-1.09.12-1.66.05-.57.07-1.11.04-1.63s-.13-1-.3-1.45c-.18-.44-.49-.8-.93-1.09-.35-.05-.67-.03-.95.07-.28.1-.54.24-.77.44-.23.19-.45.42-.65.66-.2.25-.41.5-.62.74-.05.09-.12.17-.19.25-.07.08-.15.16-.24.25v5.04c-.11.58-.34,1-.69,1.26Z"/>
    <path d="M672.05,304.4c.42-.11.8-.11,1.13-.01.33.1.58.26.76.49.18.23.26.51.24.85-.02.34-.17.69-.45,1.06-.23.3-.55.56-.95.77-.41.21-.79.38-1.14.5-.87.32-1.69.54-2.47.66-.78.12-1.51.12-2.19,0-.68-.12-1.32-.38-1.91-.77-.59-.39-1.15-.94-1.66-1.64-.35-.48-.61-1.02-.78-1.63-.17-.61-.26-1.23-.28-1.87-.02-.64.04-1.26.16-1.88.12-.62.3-1.18.53-1.67.3-.62.78-1.18,1.43-1.7.65-.51,1.38-.92,2.17-1.22.8-.3,1.61-.47,2.44-.52.83-.04,1.56.08,2.2.38.53.25.99.61,1.37,1.07.38.47.64.98.78,1.52.14.55.15,1.1.04,1.66-.11.56-.4,1.07-.86,1.52s-.93.8-1.46,1.07c-.53.27-1.08.51-1.64.72-.57.2-1.14.38-1.74.52-.59.14-1.16.3-1.71.48.37.42.8.69,1.27.81.48.12.98.14,1.5.07.52-.07,1.05-.22,1.58-.44.53-.22,1.03-.46,1.49-.73l.16-.08ZM666.69,299.84c-.41.23-.71.52-.9.86-.19.34-.34.83-.42,1.45.46-.14.98-.29,1.55-.45.57-.16,1.12-.33,1.63-.5.51-.18.95-.37,1.3-.58.35-.21.53-.44.53-.69,0-.14-.02-.28-.07-.41-.04-.13-.14-.23-.28-.28-.5-.18-1.01-.21-1.54-.11-.53.11-.97.26-1.33.45l-.48.27Z"/>
    <path d="M699.21,296.5c.27-.35.57-.6.92-.73s.67-.16.97-.08c.3.08.56.26.77.54.21.28.33.66.34,1.14.02.27-.09.74-.33,1.43s-.53,1.59-.86,2.71c-.02.07-.05.16-.09.27-.04.11-.11.28-.19.53-.08.25-.19.59-.34,1.03-.15.44-.36,1.03-.62,1.78-.12.37-.28.81-.46,1.33-.19.51-.42.97-.7,1.37-.28.4-.62.67-1.01.82-.39.15-.86.04-1.41-.33-.18-.12-.37-.38-.58-.76-.21-.38-.42-.79-.61-1.23-.19-.44-.37-.86-.52-1.26-.15-.4-.25-.66-.3-.78-.12-.28-.27-.6-.42-.94s-.31-.69-.45-1.05l-.16.4c-.23.58-.46,1.17-.69,1.75-.23.58-.46,1.16-.69,1.72-.12.3-.24.63-.34.98-.11.35-.26.66-.45.93-.16.23-.36.39-.6.49-.24.1-.48.14-.73.12-.25-.02-.48-.08-.7-.2-.22-.12-.41-.28-.57-.49-.25-.35-.44-.76-.58-1.22-.14-.46-.28-.88-.42-1.27-.19-.55-.37-1.11-.53-1.68-.16-.57-.33-1.13-.5-1.66-.09-.28-.2-.65-.34-1.11-.14-.46-.28-.93-.41-1.42-.13-.49-.24-.96-.32-1.42-.08-.46-.11-.84-.09-1.14.02-.3.12-.57.3-.81.19-.24.41-.42.68-.53.27-.11.54-.15.84-.12.29.04.55.17.78.4.34.35.54.73.61,1.13.07.4.15.83.24,1.29.14.71.3,1.41.49,2.09.19.69.38,1.38.6,2.07.07-.16.15-.35.24-.58.09-.23.23-.57.42-1.03.16-.39.31-.77.46-1.14.15-.37.3-.74.44-1.11.11-.27.21-.53.32-.78.11-.26.21-.51.32-.76.12-.27.31-.48.54-.65.24-.17.5-.27.78-.32.28-.04.56-.02.82.08.27.1.48.28.64.54.23.35.41.75.53,1.18.12.43.26.84.4,1.23.25.64.49,1.28.73,1.92.24.65.49,1.28.76,1.9.39-1.06.73-2.13,1.03-3.2.3-1.07.63-2.14.98-3.2l.11-.16Z"/>
    <path d="M712.97,304.4c.42-.11.8-.11,1.13-.01.33.1.58.26.76.49.18.23.26.51.24.85-.02.34-.17.69-.45,1.06-.23.3-.55.56-.95.77-.41.21-.79.38-1.14.5-.87.32-1.69.54-2.47.66-.78.12-1.51.12-2.19,0-.68-.12-1.32-.38-1.91-.77-.59-.39-1.15-.94-1.66-1.64-.35-.48-.61-1.02-.78-1.63-.17-.61-.26-1.23-.28-1.87-.02-.64.04-1.26.16-1.88.12-.62.3-1.18.53-1.67.3-.62.78-1.18,1.43-1.7.65-.51,1.38-.92,2.17-1.22.8-.3,1.61-.47,2.44-.52.83-.04,1.56.08,2.2.38.53.25.99.61,1.37,1.07.38.47.64.98.78,1.52.14.55.15,1.1.04,1.66-.11.56-.4,1.07-.86,1.52s-.93.8-1.46,1.07c-.53.27-1.08.51-1.64.72-.57.2-1.14.38-1.74.52-.59.14-1.16.3-1.71.48.37.42.8.69,1.27.81.48.12.98.14,1.5.07.52-.07,1.05-.22,1.58-.44.53-.22,1.03-.46,1.49-.73l.16-.08ZM707.61,299.84c-.41.23-.71.52-.9.86-.19.34-.34.83-.42,1.45.46-.14.98-.29,1.55-.45.57-.16,1.12-.33,1.63-.5.51-.18.95-.37,1.3-.58.35-.21.53-.44.53-.69,0-.14-.02-.28-.07-.41-.04-.13-.14-.23-.28-.28-.5-.18-1.01-.21-1.54-.11-.53.11-.97.26-1.33.45l-.48.27Z"/>
    <path d="M727.13,307.26c-.05.44-.22.8-.49,1.09-.27.28-.58.46-.93.53-.34.07-.68.03-.99-.13-.32-.16-.55-.47-.69-.93-.16-.49-.22-1.01-.19-1.55.04-.54.05-1.04.05-1.5,0-.95,0-1.9.01-2.85,0-.95-.03-1.9-.12-2.85-.02-.04-.04-.07-.05-.09-.02-.03-.05-.07-.11-.12-.41-.11-.84-.08-1.3.08-.46.16-.85.36-1.17.61-.28.23-.56.54-.84.94-.27.4-.41.78-.41,1.15v3.66c0,.28,0,.59.03.93.02.34,0,.66-.04.98-.04.32-.15.61-.3.88-.16.27-.42.46-.77.58-.19.07-.38.1-.54.08-.17-.02-.35-.06-.54-.13-.32-.11-.55-.29-.69-.54-.14-.26-.24-.53-.29-.82-.05-.29-.08-.57-.07-.85,0-.27.01-.49.01-.65,0-.41,0-.99-.01-1.76,0-.77-.01-1.58-.01-2.43v-4.19c0-.39.11-.71.34-.97.23-.26.5-.42.81-.5.31-.08.64-.06.98.05.34.12.63.35.86.7.71-.46,1.48-.77,2.33-.93.85-.16,1.65-.13,2.4.08.75.21,1.38.61,1.88,1.19.5.58.76,1.39.78,2.41,0,.04,0,.14.03.32.02.18.03.42.03.74v6.79Z"/>
    <path d="M730.42,299.12c-.35-.09-.66-.24-.92-.45-.26-.21-.43-.46-.53-.74-.1-.28-.1-.57,0-.88.1-.3.31-.57.65-.82.28-.21.6-.32.95-.32h1.03c0-.12,0-.39-.03-.81-.02-.42-.02-.87-.01-1.37,0-.49.04-.97.09-1.42.05-.45.15-.76.29-.94.35-.49.79-.73,1.31-.7.52.03.95.28,1.29.76.07.09.14.19.2.32.06.12.09.24.09.34.02.64.02,1.27.01,1.91,0,.64-.01,1.27-.01,1.91h2.09c.32,0,.59.11.82.32.23.21.39.46.49.74.1.28.12.57.08.88-.04.3-.18.55-.41.74-.41.34-.88.51-1.42.53-.54.02-1.09.03-1.66.03,0,.97,0,1.95-.01,2.92,0,.97,0,1.94.01,2.92,0,.42.02.86.07,1.3.04.44.01.87-.09,1.27-.09.32-.24.57-.45.76-.21.19-.45.3-.72.34-.27.04-.54.03-.82-.05-.28-.08-.55-.23-.8-.44-.12-.12-.22-.34-.28-.64-.06-.3-.1-.62-.12-.95-.02-.39-.02-.8,0-1.25v-1.38c0-.57,0-1.15-.01-1.76,0-.61-.01-1.19-.01-1.74v-1.3l-1.19-.03Z"/>
    <path d="M515.4,334.98c-.11-.3-.15-.6-.13-.89.02-.29.09-.56.23-.8.13-.24.32-.42.57-.56.25-.13.55-.18.9-.15.19.02.37.07.53.16.16.09.3.19.44.32.13.12.27.26.4.4.13.14.27.27.41.37.3.23.62.4.95.5.34.11.69.19,1.06.24.25,0,.45-.06.6-.19.15-.12.25-.27.3-.45.05-.18.07-.37.04-.57-.03-.2-.09-.37-.2-.49-.3-.3-.67-.49-1.1-.58-.43-.09-.84-.19-1.21-.32-.53-.18-1.05-.4-1.56-.68-.51-.27-.93-.65-1.25-1.13-.34-.49-.53-1.02-.6-1.58-.06-.56-.02-1.1.13-1.63.15-.53.4-1.02.76-1.46.35-.44.78-.8,1.27-1.09.37-.21.78-.35,1.22-.41.44-.06.89-.08,1.34-.04.45.04.9.12,1.34.25.44.13.85.28,1.22.44.42.19.74.47.95.82.21.35.31.71.3,1.07,0,.36-.13.68-.37.94-.24.27-.59.4-1.05.4-.28,0-.54-.05-.77-.15-.23-.1-.47-.19-.72-.28-.32-.12-.66-.21-1.03-.25-.37-.04-.67-.02-.9.07-.07.02-.15.08-.24.17-.09.1-.15.22-.2.36-.04.14-.05.28-.03.42.03.14.12.26.28.34.42.23.88.41,1.35.53.48.12.95.27,1.41.42.46.16.89.36,1.29.61.4.25.73.6.99,1.06.39.67.59,1.37.6,2.11,0,.73-.14,1.42-.44,2.06-.3.64-.74,1.18-1.33,1.63-.58.45-1.26.72-2.04.81-.55.05-1.09.02-1.62-.09-.53-.12-1.04-.3-1.54-.56-.5-.26-.95-.56-1.38-.92-.42-.35-.8-.72-1.11-1.11l-.08-.16Z"/>
    <path d="M527.76,327.92c-.35-.09-.66-.24-.92-.45-.26-.21-.43-.46-.53-.74-.1-.28-.1-.57,0-.88.1-.3.31-.57.65-.82.28-.21.6-.32.95-.32h1.03c0-.12,0-.39-.03-.81-.02-.42-.02-.87-.01-1.37,0-.49.04-.97.09-1.42.05-.45.15-.76.29-.94.35-.49.79-.73,1.31-.7.52.03.95.28,1.29.76.07.09.14.19.2.32.06.12.09.24.09.34.02.64.02,1.27.01,1.91,0,.64-.01,1.27-.01,1.91h2.09c.32,0,.59.11.82.32.23.21.39.46.49.74.1.28.12.57.08.88-.04.3-.18.55-.41.74-.41.34-.88.51-1.42.53-.54.02-1.09.03-1.66.03,0,.97,0,1.95-.01,2.92,0,.97,0,1.94.01,2.92,0,.42.02.86.07,1.3.04.44.01.87-.09,1.27-.09.32-.24.57-.45.76-.21.19-.45.3-.72.34-.27.04-.54.03-.82-.05-.28-.08-.55-.23-.8-.44-.12-.12-.22-.34-.28-.64-.06-.3-.1-.62-.12-.95-.02-.39-.02-.8,0-1.25v-1.38c0-.57,0-1.15-.01-1.76,0-.61-.01-1.19-.01-1.74v-1.3l-1.19-.03Z"/>
    <path d="M538.03,328.57c.02-.11,0-.32-.03-.62-.28-.16-.5-.36-.66-.61-.16-.25-.25-.51-.28-.8-.03-.28.03-.55.16-.81.13-.26.35-.47.65-.65.41-.23.85-.27,1.34-.13.49.14.91.35,1.26.64.44-.34.9-.62,1.38-.85.48-.23.96-.38,1.46-.46.49-.08,1-.07,1.51.04.51.11,1.02.33,1.51.66.25.16.48.36.69.6.21.24.34.51.4.81.09.44.05.83-.11,1.15-.16.33-.38.57-.66.72-.28.15-.6.19-.95.13-.35-.06-.69-.25-1.01-.57-.11-.07-.18-.13-.23-.17-.04-.04-.14-.1-.28-.17-.28-.07-.56-.05-.84.05-.27.11-.54.25-.8.44-.26.19-.5.39-.72.61l-.6.6v6.76c0,.27-.05.52-.16.77-.16.41-.41.69-.76.85-.34.16-.69.2-1.03.13-.34-.07-.65-.25-.9-.53-.26-.28-.38-.65-.38-1.09v-7.43c0,.07,0,.05.03-.07Z"/>
    <path d="M558.26,335.59c.14.51.11.94-.08,1.27-.19.34-.46.56-.81.68s-.72.1-1.13-.04c-.41-.14-.76-.42-1.06-.85-.5.37-.98.63-1.45.78-.47.15-1,.23-1.6.25-.9.04-1.71-.07-2.41-.3-.71-.24-1.3-.6-1.79-1.07-.49-.48-.84-1.07-1.07-1.79-.23-.72-.31-1.54-.24-2.48.04-.39.1-.77.2-1.14.1-.37.21-.73.33-1.09.14-.39.34-.8.6-1.25.26-.44.52-.82.78-1.14.95-1.17,2.15-2.01,3.58-2.52.25-.09.58-.17,1.01-.24.42-.07.85-.1,1.29-.09.43,0,.85.07,1.25.17.4.11.69.29.89.56.16.21.27.4.34.56.07.16.11.33.12.5,0,.18,0,.37,0,.57,0,.2-.01.46-.01.76,0,.5,0,.98-.01,1.45,0,.47,0,.94.01,1.42v.62c0,.26,0,.53.03.81.02.28.04.55.07.81.03.26.07.46.12.62l1.06,2.17ZM552.64,334.39c.19-.12.42-.26.66-.41.25-.15.47-.32.66-.52-.16-.94-.25-1.87-.28-2.81-.03-.94-.02-1.88.01-2.84-.8.14-1.51.49-2.15,1.03-.64.55-1.08,1.19-1.33,1.94-.11.3-.19.61-.27.93-.07.32-.1.63-.08.93.02.41.12.75.32,1.02.19.27.43.48.7.62.27.14.57.22.88.24.31.02.6-.03.86-.13Z"/>
    <path d="M560.2,320.92c.07-.65.3-1.14.68-1.45.38-.31.78-.46,1.21-.45.42,0,.82.17,1.18.49.36.32.55.77.57,1.35.04.6-.12,1.07-.46,1.39-.34.33-.74.51-1.18.56-.44.04-.86-.08-1.25-.36-.39-.28-.63-.73-.72-1.35l-.03-.19ZM563.7,336.01c-.04.35-.16.67-.37.94s-.46.47-.73.6c-.27.12-.57.15-.89.08-.32-.07-.6-.27-.85-.58-.14-.18-.24-.38-.3-.6-.06-.22-.1-.45-.12-.69-.02-.24-.02-.48-.01-.72,0-.24.01-.46.01-.65-.02-1.04-.02-2.08-.01-3.1,0-1.03,0-2.06-.01-3.1,0-.42-.03-.85-.08-1.29-.05-.43-.03-.86.08-1.29.09-.32.24-.59.46-.82.22-.23.47-.39.74-.48.27-.09.56-.1.85-.03.29.07.54.26.76.56.28.35.42.7.42,1.05v3.06c0,.6,0,1.19.03,1.78.02.85.03,1.7.03,2.55v2.73Z"/>
    <path d="M567.41,342.3c-.3-.37-.46-.76-.48-1.15-.02-.4.07-.74.27-1.02.19-.28.47-.48.84-.58.36-.11.76-.05,1.21.16.19.14.37.25.53.32.16.07.38.18.66.32.27.12.57.22.9.28.34.06.65.07.95.04.6-.04,1.06-.14,1.39-.31.33-.17.56-.39.7-.66.14-.27.23-.61.25-1.01.03-.4.04-.84.04-1.34-.57.19-1.13.34-1.7.44-.57.1-1.15.11-1.75.04-1.17-.14-2.13-.56-2.88-1.25-.75-.69-1.3-1.51-1.64-2.47-.34-.95-.49-1.98-.42-3.06.06-1.09.31-2.09.76-3.01.27-.53.63-1.02,1.09-1.47.46-.45.98-.82,1.55-1.11.57-.29,1.18-.48,1.8-.57.63-.09,1.23-.04,1.82.16.34.12.66.25.98.37.32.12.63.28.93.48.34-.3.73-.45,1.18-.45s.84.21,1.15.64c.07.11.15.23.24.36.09.13.13.26.13.38.02,1.89.02,3.78.01,5.66,0,1.88-.01,3.77-.01,5.66,0,.76-.1,1.47-.3,2.12-.2.65-.51,1.23-.92,1.74-.41.5-.91.92-1.51,1.23-.6.32-1.3.52-2.1.61-.41.04-.8.05-1.19.05s-.79-.04-1.19-.13c-.57-.11-1.11-.28-1.63-.53-.52-.25-1.04-.52-1.55-.82l-.11-.11ZM570.54,334.21c.78.37,1.49.49,2.15.36.65-.13,1.32-.43,1.99-.89v-4.22c-.51-.51-1.01-.87-1.5-1.07-.49-.2-1.07-.26-1.74-.17-.12.07-.24.13-.36.19-.11.05-.23.11-.36.16-.37.42-.65.84-.85,1.23-.19.4-.31.8-.34,1.22-.04.42,0,.84.09,1.27.1.43.24.91.44,1.42.05.09.13.18.24.27.11.09.19.17.24.24Z"/>
    <path d="M583.19,337.3c-.35.26-.72.38-1.1.36-.38-.02-.72-.17-1.01-.46s-.44-.69-.44-1.21v-14.74c0-.41.16-.75.48-1.03.32-.28.67-.46,1.06-.53.39-.07.75,0,1.09.19.34.19.52.56.56,1.09.07.92.1,1.82.09,2.69,0,.88-.02,1.75-.04,2.64.65-.44,1.33-.74,2.04-.89.71-.15,1.39-.15,2.04.01.65.16,1.26.48,1.83.95.57.48,1.03,1.14,1.38,1.99.25.57.42,1.17.5,1.82.09.65.14,1.3.15,1.96,0,.66,0,1.32-.03,1.98-.03.65-.04,1.27-.04,1.86,0,.37-.1.71-.29,1.01-.19.3-.44.52-.73.66-.29.14-.6.19-.93.13-.33-.05-.62-.25-.89-.58-.27-.35-.43-.77-.49-1.25-.06-.48-.08-.99-.05-1.52.03-.54.07-1.09.12-1.66.05-.57.07-1.11.04-1.63s-.13-1-.3-1.45c-.18-.44-.49-.8-.93-1.09-.35-.05-.67-.03-.95.07-.28.1-.54.24-.77.44-.23.19-.45.42-.65.66-.2.25-.41.5-.62.74-.05.09-.12.17-.19.25-.07.08-.15.16-.24.25v5.04c-.11.58-.34,1-.69,1.26Z"/>
    <path d="M594.88,327.92c-.35-.09-.66-.24-.92-.45-.26-.21-.43-.46-.53-.74-.1-.28-.1-.57,0-.88.1-.3.31-.57.65-.82.28-.21.6-.32.95-.32h1.03c0-.12,0-.39-.03-.81-.02-.42-.02-.87-.01-1.37,0-.49.04-.97.09-1.42.05-.45.15-.76.29-.94.35-.49.79-.73,1.31-.7.52.03.95.28,1.29.76.07.09.14.19.2.32.06.12.09.24.09.34.02.64.02,1.27.01,1.91,0,.64-.01,1.27-.01,1.91h2.09c.32,0,.59.11.82.32.23.21.39.46.49.74.1.28.12.57.08.88-.04.3-.18.55-.41.74-.41.34-.88.51-1.42.53-.54.02-1.09.03-1.66.03,0,.97,0,1.95-.01,2.92,0,.97,0,1.94.01,2.92,0,.42.02.86.07,1.3.04.44.01.87-.09,1.27-.09.32-.24.57-.45.76-.21.19-.45.3-.72.34-.27.04-.54.03-.82-.05-.28-.08-.55-.23-.8-.44-.12-.12-.22-.34-.28-.64-.06-.3-.1-.62-.12-.95-.02-.39-.02-.8,0-1.25v-1.38c0-.57,0-1.15-.01-1.76,0-.61-.01-1.19-.01-1.74v-1.3l-1.19-.03Z"/>
    <path d="M616.34,327.92c-.35-.09-.66-.24-.92-.45-.26-.21-.43-.46-.53-.74-.1-.28-.1-.57,0-.88.1-.3.31-.57.65-.82.28-.21.6-.32.95-.32h1.03c0-.12,0-.39-.03-.81-.02-.42-.02-.87-.01-1.37,0-.49.04-.97.09-1.42.05-.45.15-.76.29-.94.35-.49.79-.73,1.31-.7.52.03.95.28,1.29.76.07.09.14.19.2.32.06.12.09.24.09.34.02.64.02,1.27.01,1.91,0,.64-.01,1.27-.01,1.91h2.09c.32,0,.59.11.82.32.23.21.39.46.49.74.1.28.12.57.08.88-.04.3-.18.55-.41.74-.41.34-.88.51-1.42.53-.54.02-1.09.03-1.66.03,0,.97,0,1.95-.01,2.92,0,.97,0,1.94.01,2.92,0,.42.02.86.07,1.3.04.44.01.87-.09,1.27-.09.32-.24.57-.45.76-.21.19-.45.3-.72.34-.27.04-.54.03-.82-.05-.28-.08-.55-.23-.8-.44-.12-.12-.22-.34-.28-.64-.06-.3-.1-.62-.12-.95-.02-.39-.02-.8,0-1.25v-1.38c0-.57,0-1.15-.01-1.76,0-.61-.01-1.19-.01-1.74v-1.3l-1.19-.03Z"/>
    <path d="M624.34,330.42c.12-.51.3-1.02.52-1.51.22-.49.49-.97.81-1.42.32-.45.68-.86,1.07-1.23s.83-.67,1.29-.9c.81-.42,1.63-.64,2.45-.65.82,0,1.59.16,2.29.49.71.34,1.31.84,1.8,1.5.49.66.82,1.45.98,2.37.09.6.14,1.17.15,1.71,0,.54-.05,1.1-.17,1.68-.18.83-.53,1.66-1.07,2.48-.54.82-1.18,1.51-1.94,2.07-.75.56-1.57.92-2.47,1.1-.89.18-1.79.04-2.69-.42-.41-.19-.77-.42-1.1-.68-.33-.26-.62-.56-.89-.92-.3-.39-.53-.8-.7-1.22-.17-.42-.3-.87-.41-1.33-.12-.49-.17-.99-.13-1.5.04-.5.1-.99.19-1.47l.03-.16ZM627.53,330.97c-.05.28-.1.56-.13.84-.04.27-.04.55,0,.84.05.41.16.78.33,1.11.17.34.39.6.66.8.27.19.59.3.94.3.35,0,.73-.1,1.14-.33.51-.3.95-.76,1.33-1.39.37-.63.6-1.28.69-1.96.09-.68.02-1.33-.21-1.94-.23-.61-.68-1.05-1.35-1.31-.44,0-.85.08-1.22.25-.37.17-.69.39-.97.66-.27.27-.51.6-.72.97-.2.37-.37.76-.49,1.17Z"/>
    <path d="M646.33,334.98c-.11-.3-.15-.6-.13-.89.02-.29.09-.56.23-.8.13-.24.32-.42.57-.56.25-.13.55-.18.9-.15.19.02.37.07.53.16.16.09.3.19.44.32.13.12.27.26.4.4.13.14.27.27.41.37.3.23.62.4.95.5.34.11.69.19,1.06.24.25,0,.45-.06.6-.19.15-.12.25-.27.3-.45.05-.18.07-.37.04-.57-.03-.2-.09-.37-.2-.49-.3-.3-.67-.49-1.1-.58-.43-.09-.84-.19-1.21-.32-.53-.18-1.05-.4-1.56-.68-.51-.27-.93-.65-1.25-1.13-.34-.49-.53-1.02-.6-1.58-.06-.56-.02-1.1.13-1.63.15-.53.4-1.02.76-1.46.35-.44.78-.8,1.27-1.09.37-.21.78-.35,1.22-.41.44-.06.89-.08,1.34-.04.45.04.9.12,1.34.25.44.13.85.28,1.22.44.42.19.74.47.95.82.21.35.31.71.3,1.07,0,.36-.13.68-.37.94-.24.27-.59.4-1.05.4-.28,0-.54-.05-.77-.15-.23-.1-.47-.19-.72-.28-.32-.12-.66-.21-1.03-.25-.37-.04-.67-.02-.9.07-.07.02-.15.08-.24.17-.09.1-.15.22-.2.36-.04.14-.05.28-.03.42.03.14.12.26.28.34.42.23.88.41,1.35.53.48.12.95.27,1.41.42.46.16.89.36,1.29.61.4.25.73.6.99,1.06.39.67.59,1.37.6,2.11,0,.73-.14,1.42-.44,2.06-.3.64-.74,1.18-1.33,1.63-.58.45-1.26.72-2.04.81-.55.05-1.09.02-1.62-.09-.53-.12-1.04-.3-1.54-.56-.5-.26-.95-.56-1.38-.92-.42-.35-.8-.72-1.11-1.11l-.08-.16Z"/>
    <path d="M664.79,333.44c.44-.28.86-.41,1.26-.37.4.04.72.17.98.41.26.24.4.56.42.95.03.4-.11.82-.41,1.26-.19.3-.47.57-.84.82-.36.25-.71.44-1.05.58-.78.35-1.56.51-2.36.48-.8-.04-1.53-.23-2.21-.58-.68-.35-1.27-.84-1.76-1.47-.5-.63-.83-1.36-1.01-2.19-.35-1.59-.28-3.12.21-4.59.19-.53.43-1.04.7-1.54.27-.49.61-.95.99-1.35.39-.41.82-.76,1.3-1.07.48-.31,1-.52,1.56-.62.39-.07.88-.07,1.49.01.6.08,1.19.23,1.76.46.57.23,1.08.53,1.51.9.43.37.68.81.73,1.33.04.28,0,.54-.11.78-.11.24-.26.44-.45.6-.19.16-.42.27-.68.33-.26.06-.52.06-.78-.01-.32-.09-.57-.21-.76-.36-.19-.15-.43-.35-.73-.6-.14-.04-.27-.09-.4-.17-.12-.08-.26-.11-.4-.09l-.72.08c-.12.07-.24.13-.34.19-.11.05-.21.11-.32.16-.6.6-1.04,1.27-1.33,2-.28.73-.35,1.52-.21,2.37.09.55.26,1,.52,1.35.26.35.56.6.9.73.34.13.72.15,1.14.04.42-.11.83-.34,1.23-.72l.13-.11Z"/>
    <path d="M670.7,328.57c.02-.11,0-.32-.03-.62-.28-.16-.5-.36-.66-.61-.16-.25-.25-.51-.28-.8-.03-.28.03-.55.16-.81.13-.26.35-.47.65-.65.41-.23.85-.27,1.34-.13.49.14.91.35,1.26.64.44-.34.9-.62,1.38-.85.48-.23.96-.38,1.46-.46.49-.08,1-.07,1.51.04.51.11,1.02.33,1.51.66.25.16.48.36.69.6.21.24.34.51.4.81.09.44.05.83-.11,1.15-.16.33-.38.57-.66.72-.28.15-.6.19-.95.13-.35-.06-.69-.25-1.01-.57-.11-.07-.18-.13-.23-.17-.04-.04-.14-.1-.28-.17-.28-.07-.56-.05-.84.05-.27.11-.54.25-.8.44-.26.19-.5.39-.72.61l-.6.6v6.76c0,.27-.05.52-.16.77-.16.41-.41.69-.76.85-.34.16-.69.2-1.03.13-.34-.07-.65-.25-.9-.53-.26-.28-.38-.65-.38-1.09v-7.43c0,.07,0,.05.03-.07Z"/>
    <path d="M680.19,330.42c.12-.51.3-1.02.52-1.51.22-.49.49-.97.81-1.42.32-.45.68-.86,1.07-1.23s.83-.67,1.29-.9c.81-.42,1.63-.64,2.45-.65.82,0,1.59.16,2.29.49.71.34,1.31.84,1.8,1.5.49.66.82,1.45.98,2.37.09.6.14,1.17.15,1.71,0,.54-.05,1.1-.17,1.68-.18.83-.53,1.66-1.07,2.48-.54.82-1.18,1.51-1.94,2.07-.75.56-1.57.92-2.47,1.1-.89.18-1.79.04-2.69-.42-.41-.19-.77-.42-1.1-.68-.33-.26-.62-.56-.89-.92-.3-.39-.53-.8-.7-1.22-.17-.42-.3-.87-.41-1.33-.12-.49-.17-.99-.13-1.5.04-.5.1-.99.19-1.47l.03-.16ZM683.38,330.97c-.05.28-.1.56-.13.84-.04.27-.04.55,0,.84.05.41.16.78.33,1.11.17.34.39.6.66.8.27.19.59.3.94.3.35,0,.73-.1,1.14-.33.51-.3.95-.76,1.33-1.39.37-.63.6-1.28.69-1.96.09-.68.02-1.33-.21-1.94-.23-.61-.68-1.05-1.35-1.31-.44,0-.85.08-1.22.25-.37.17-.69.39-.97.66-.27.27-.51.6-.72.97-.2.37-.37.76-.49,1.17Z"/>
    <path d="M696.79,335.11c.19.18.36.4.49.68.13.27.2.55.21.82,0,.27-.05.53-.19.77-.13.24-.37.42-.7.54-.27.09-.56.11-.88.05-.32-.05-.63-.16-.94-.32-.31-.16-.58-.35-.82-.57-.24-.22-.41-.46-.52-.73-.04-.09-.06-.19-.08-.31-.02-.11-.03-.22-.03-.3v-14.72c0-.41.15-.75.46-1.03.31-.28.65-.45,1.02-.5.18-.02.37,0,.57.08.2.07.39.17.57.3.18.13.32.29.44.46.11.18.17.36.17.56v1.83c0,.76,0,1.59.01,2.49,0,.9.01,1.83.01,2.8s0,1.89-.01,2.77c0,.88-.01,1.69-.01,2.43s0,1.32-.03,1.76l.24.13Z"/>
    <path d="M704.17,335.11c.19.18.36.4.49.68.13.27.2.55.21.82,0,.27-.05.53-.19.77-.13.24-.37.42-.7.54-.27.09-.56.11-.88.05-.32-.05-.63-.16-.94-.32-.31-.16-.58-.35-.82-.57-.24-.22-.41-.46-.52-.73-.04-.09-.06-.19-.08-.31-.02-.11-.03-.22-.03-.3v-14.72c0-.41.15-.75.46-1.03.31-.28.65-.45,1.02-.5.18-.02.37,0,.57.08.2.07.39.17.57.3.18.13.32.29.44.46.11.18.17.36.17.56v1.83c0,.76,0,1.59.01,2.49,0,.9.01,1.83.01,2.8s0,1.89-.01,2.77c0,.88-.01,1.69-.01,2.43s0,1.32-.03,1.76l.24.13Z"/>
    <path d="M707,320.92c.07-.65.3-1.14.68-1.45.38-.31.78-.46,1.21-.45.42,0,.82.17,1.18.49.36.32.55.77.57,1.35.04.6-.12,1.07-.46,1.39-.34.33-.74.51-1.18.56-.44.04-.86-.08-1.25-.36-.39-.28-.63-.73-.72-1.35l-.03-.19ZM710.51,336.01c-.04.35-.16.67-.37.94s-.46.47-.73.6c-.27.12-.57.15-.89.08-.32-.07-.6-.27-.85-.58-.14-.18-.24-.38-.3-.6-.06-.22-.1-.45-.12-.69-.02-.24-.02-.48-.01-.72,0-.24.01-.46.01-.65-.02-1.04-.02-2.08-.01-3.1,0-1.03,0-2.06-.01-3.1,0-.42-.03-.85-.08-1.29-.05-.43-.03-.86.08-1.29.09-.32.24-.59.46-.82.22-.23.47-.39.74-.48.27-.09.56-.1.85-.03.29.07.54.26.76.56.28.35.42.7.42,1.05v3.06c0,.6,0,1.19.03,1.78.02.85.03,1.7.03,2.55v2.73Z"/>
    <path d="M724.03,336.06c-.05.44-.22.8-.49,1.09-.27.28-.58.46-.93.53-.34.07-.68.03-.99-.13-.32-.16-.55-.47-.69-.93-.16-.49-.22-1.01-.19-1.55.04-.54.05-1.04.05-1.5,0-.95,0-1.9.01-2.85,0-.95-.03-1.9-.12-2.85-.02-.04-.04-.07-.05-.09-.02-.03-.05-.07-.11-.12-.41-.11-.84-.08-1.3.08-.46.16-.85.36-1.17.61-.28.23-.56.54-.84.94-.27.4-.41.78-.41,1.15v3.66c0,.28,0,.59.03.93.02.34,0,.66-.04.98-.04.32-.15.61-.3.88-.16.27-.42.46-.77.58-.19.07-.38.1-.54.08-.17-.02-.35-.06-.54-.13-.32-.11-.55-.29-.69-.54-.14-.26-.24-.53-.29-.82-.05-.29-.08-.57-.07-.85,0-.27.01-.49.01-.65,0-.41,0-.99-.01-1.76,0-.77-.01-1.58-.01-2.43v-4.19c0-.39.11-.71.34-.97.23-.26.5-.42.81-.5.31-.08.64-.06.98.05.34.12.63.35.86.7.71-.46,1.48-.77,2.33-.93.85-.16,1.65-.13,2.4.08.75.21,1.38.61,1.88,1.19.5.58.76,1.39.78,2.41,0,.04,0,.14.03.32.02.18.03.42.03.74v6.79Z"/>
    <path d="M727.37,342.3c-.3-.37-.46-.76-.48-1.15-.02-.4.07-.74.27-1.02.19-.28.47-.48.84-.58.36-.11.76-.05,1.21.16.19.14.37.25.53.32.16.07.38.18.66.32.27.12.57.22.9.28.34.06.65.07.95.04.6-.04,1.06-.14,1.39-.31.33-.17.56-.39.7-.66.14-.27.23-.61.25-1.01.03-.4.04-.84.04-1.34-.57.19-1.13.34-1.7.44-.57.1-1.15.11-1.75.04-1.17-.14-2.13-.56-2.88-1.25-.75-.69-1.3-1.51-1.64-2.47-.34-.95-.49-1.98-.42-3.06.06-1.09.31-2.09.76-3.01.27-.53.63-1.02,1.09-1.47.46-.45.98-.82,1.55-1.11.57-.29,1.18-.48,1.8-.57.63-.09,1.23-.04,1.82.16.34.12.66.25.98.37.32.12.63.28.93.48.34-.3.73-.45,1.18-.45s.84.21,1.15.64c.07.11.15.23.24.36.09.13.13.26.13.38.02,1.89.02,3.78.01,5.66,0,1.88-.01,3.77-.01,5.66,0,.76-.1,1.47-.3,2.12-.2.65-.51,1.23-.92,1.74-.41.5-.91.92-1.51,1.23-.6.32-1.3.52-2.1.61-.41.04-.8.05-1.19.05s-.79-.04-1.19-.13c-.57-.11-1.11-.28-1.63-.53-.52-.25-1.04-.52-1.55-.82l-.11-.11ZM730.5,334.21c.78.37,1.49.49,2.15.36.65-.13,1.32-.43,1.99-.89v-4.22c-.51-.51-1.01-.87-1.5-1.07-.49-.2-1.07-.26-1.74-.17-.12.07-.24.13-.36.19-.11.05-.23.11-.36.16-.37.42-.65.84-.85,1.23-.19.4-.31.8-.34,1.22-.04.42,0,.84.09,1.27.1.43.24.91.44,1.42.05.09.13.18.24.27.11.09.19.17.24.24Z"/>
    <path d="M515.59,359.22c.12-.51.3-1.02.52-1.51.22-.49.49-.97.81-1.42.32-.45.68-.86,1.07-1.23s.83-.67,1.29-.9c.81-.42,1.63-.64,2.45-.65.82,0,1.59.16,2.29.49.71.34,1.31.84,1.8,1.5.49.66.82,1.45.98,2.37.09.6.14,1.17.15,1.71,0,.54-.05,1.1-.17,1.68-.18.83-.53,1.66-1.07,2.48-.54.82-1.18,1.51-1.94,2.07-.75.56-1.57.92-2.47,1.1-.89.18-1.79.04-2.69-.42-.41-.19-.77-.42-1.1-.68-.33-.26-.62-.56-.89-.92-.3-.39-.53-.8-.7-1.22-.17-.42-.3-.87-.41-1.33-.12-.49-.17-.99-.13-1.5.04-.5.1-.99.19-1.47l.03-.16ZM518.77,359.77c-.05.28-.1.56-.13.84-.04.27-.04.55,0,.84.05.41.16.78.33,1.11.17.34.39.6.66.8.27.19.59.3.94.3.35,0,.73-.1,1.14-.33.51-.3.95-.76,1.33-1.39.37-.63.6-1.28.69-1.96.09-.68.02-1.33-.21-1.94-.23-.61-.68-1.05-1.35-1.31-.44,0-.85.08-1.22.25-.37.17-.69.39-.97.66-.27.27-.51.6-.72.97-.2.37-.37.76-.49,1.17Z"/>
    <path d="M539.46,364.86c-.05.44-.22.8-.49,1.09-.27.28-.58.46-.93.53-.34.07-.68.03-.99-.13-.32-.16-.55-.47-.69-.93-.16-.49-.22-1.01-.19-1.55.04-.54.05-1.04.05-1.5,0-.95,0-1.9.01-2.85,0-.95-.03-1.9-.12-2.85-.02-.04-.04-.07-.05-.09-.02-.03-.05-.07-.11-.12-.41-.11-.84-.08-1.3.08-.46.16-.85.36-1.17.61-.28.23-.56.54-.84.94-.27.4-.41.78-.41,1.15v3.66c0,.28,0,.59.03.93.02.34,0,.66-.04.98-.04.32-.15.61-.3.88-.16.27-.42.46-.77.58-.19.07-.38.1-.54.08-.17-.02-.35-.06-.54-.13-.32-.11-.55-.29-.69-.54-.14-.26-.24-.53-.29-.82-.05-.29-.08-.57-.07-.85,0-.27.01-.49.01-.65,0-.41,0-.99-.01-1.76,0-.77-.01-1.58-.01-2.43v-4.19c0-.39.11-.71.34-.97.23-.26.5-.42.81-.5.31-.08.64-.06.98.05.34.12.63.35.86.7.71-.46,1.48-.77,2.33-.93.85-.16,1.65-.13,2.4.08.75.21,1.38.61,1.88,1.19.5.58.76,1.39.78,2.41,0,.04,0,.14.03.32.02.18.03.42.03.74v6.79Z"/>
    <path d="M554.39,366.1c-.35.26-.72.38-1.1.36-.38-.02-.72-.17-1.01-.46s-.44-.69-.44-1.21v-14.74c0-.41.16-.75.48-1.03.32-.28.67-.46,1.06-.53.39-.07.75,0,1.09.19.34.19.52.56.56,1.09.07.92.1,1.82.09,2.69,0,.88-.02,1.75-.04,2.64.65-.44,1.33-.74,2.04-.89.71-.15,1.39-.15,2.04.01.65.16,1.26.48,1.83.95.57.48,1.03,1.14,1.38,1.99.25.57.42,1.17.5,1.82.09.65.14,1.3.15,1.96,0,.66,0,1.32-.03,1.98-.03.65-.04,1.27-.04,1.86,0,.37-.1.71-.29,1.01-.19.3-.44.52-.73.66-.29.14-.6.19-.93.13-.33-.05-.62-.25-.89-.58-.27-.35-.43-.77-.49-1.25-.06-.48-.08-.99-.05-1.52.03-.54.07-1.09.12-1.66.05-.57.07-1.11.04-1.63s-.13-1-.3-1.45c-.18-.44-.49-.8-.93-1.09-.35-.05-.67-.03-.95.07-.28.1-.54.24-.77.44-.23.19-.45.42-.65.66-.2.25-.41.5-.62.74-.05.09-.12.17-.19.25-.07.08-.15.16-.24.25v5.04c-.11.58-.34,1-.69,1.26Z"/>
    <path d="M565.66,349.72c.07-.65.3-1.14.68-1.45.38-.31.78-.46,1.21-.45.42,0,.82.17,1.18.49.36.32.55.77.57,1.35.04.6-.12,1.07-.46,1.39-.34.33-.74.51-1.18.56-.44.04-.86-.08-1.25-.36-.39-.28-.63-.73-.72-1.35l-.03-.19ZM569.16,364.81c-.04.35-.16.67-.37.94s-.46.47-.73.6c-.27.12-.57.15-.89.08-.32-.07-.6-.27-.85-.58-.14-.18-.24-.38-.3-.6-.06-.22-.1-.45-.12-.69-.02-.24-.02-.48-.01-.72,0-.24.01-.46.01-.65-.02-1.04-.02-2.08-.01-3.1,0-1.03,0-2.06-.01-3.1,0-.42-.03-.85-.08-1.29-.05-.43-.03-.86.08-1.29.09-.32.24-.59.46-.82.22-.23.47-.39.74-.48.27-.09.56-.1.85-.03.29.07.54.26.76.56.28.35.42.7.42,1.05v3.06c0,.6,0,1.19.03,1.78.02.85.03,1.7.03,2.55v2.73Z"/>
    <path d="M571.47,363.78c-.11-.3-.15-.6-.13-.89.02-.29.09-.56.23-.8.13-.24.32-.42.57-.56.25-.13.55-.18.9-.15.19.02.37.07.53.16.16.09.3.19.44.32.13.12.27.26.4.4.13.14.27.27.41.37.3.23.62.4.95.5.34.11.69.19,1.06.24.25,0,.45-.06.6-.19.15-.12.25-.27.3-.45.05-.18.07-.37.04-.57-.03-.2-.09-.37-.2-.49-.3-.3-.67-.49-1.1-.58-.43-.09-.84-.19-1.21-.32-.53-.18-1.05-.4-1.56-.68-.51-.27-.93-.65-1.25-1.13-.34-.49-.53-1.02-.6-1.58-.06-.56-.02-1.1.13-1.63.15-.53.4-1.02.76-1.46.35-.44.78-.8,1.27-1.09.37-.21.78-.35,1.22-.41.44-.06.89-.08,1.34-.04.45.04.9.12,1.34.25.44.13.85.28,1.22.44.42.19.74.47.95.82.21.35.31.71.3,1.07,0,.36-.13.68-.37.94-.24.27-.59.4-1.05.4-.28,0-.54-.05-.77-.15-.23-.1-.47-.19-.72-.28-.32-.12-.66-.21-1.03-.25-.37-.04-.67-.02-.9.07-.07.02-.15.08-.24.17-.09.1-.15.22-.2.36-.04.14-.05.28-.03.42.03.14.12.26.28.34.42.23.88.41,1.35.53.48.12.95.27,1.41.42.46.16.89.36,1.29.61.4.25.73.6.99,1.06.39.67.59,1.37.6,2.11,0,.73-.14,1.42-.44,2.06-.3.64-.74,1.18-1.33,1.63-.58.45-1.26.72-2.04.81-.55.05-1.09.02-1.62-.09-.53-.12-1.04-.3-1.54-.56-.5-.26-.95-.56-1.38-.92-.42-.35-.8-.72-1.11-1.11l-.08-.16Z"/>
    <path d="M593.13,354.65c.12-.42.32-.75.6-.97.27-.22.57-.35.88-.38.31-.04.61.02.89.16.28.14.5.36.66.66.19-.11.39-.2.58-.29.19-.09.42-.17.66-.24,1.13-.3,2.14-.28,3.01.07.88.34,1.6.88,2.19,1.59.58.72,1,1.56,1.25,2.52.25.96.3,1.93.17,2.89-.13.96-.47,1.87-1.02,2.71-.55.84-1.34,1.49-2.36,1.95-.67.3-1.37.49-2.11.57-.73.08-1.46.09-2.19.04,0,.02,0,.16.01.42,0,.27.01.6.01,1.01v1.33c0,.48-.01.94-.04,1.38-.03.44-.06.84-.11,1.18-.04.34-.11.58-.2.7-.23.34-.51.55-.85.64-.34.09-.65.07-.95-.04-.3-.12-.56-.31-.78-.58-.22-.27-.33-.61-.33-.99v-16.15l.03-.16ZM596.53,358.1c-.05.09-.08.13-.08.12s-.04.02-.11.09v4.38c.35.05.71.08,1.06.08s.72-.05,1.11-.16c.8-.19,1.42-.58,1.88-1.15.46-.57.64-1.29.53-2.13-.05-.35-.16-.72-.3-1.1-.15-.38-.35-.7-.6-.97-.25-.27-.54-.45-.88-.56-.34-.11-.72-.07-1.14.11-.3.12-.57.31-.81.56-.24.25-.46.5-.68.74Z"/>
    <path d="M608.91,366.1c-.35.26-.72.38-1.1.36-.38-.02-.72-.17-1.01-.46s-.44-.69-.44-1.21v-14.74c0-.41.16-.75.48-1.03.32-.28.67-.46,1.06-.53.39-.07.75,0,1.09.19.34.19.52.56.56,1.09.07.92.1,1.82.09,2.69,0,.88-.02,1.75-.04,2.64.65-.44,1.33-.74,2.04-.89.71-.15,1.39-.15,2.04.01.65.16,1.26.48,1.83.95.57.48,1.03,1.14,1.38,1.99.25.57.42,1.17.5,1.82.09.65.14,1.3.15,1.96,0,.66,0,1.32-.03,1.98-.03.65-.04,1.27-.04,1.86,0,.37-.1.71-.29,1.01-.19.3-.44.52-.73.66-.29.14-.6.19-.93.13-.33-.05-.62-.25-.89-.58-.27-.35-.43-.77-.49-1.25-.06-.48-.08-.99-.05-1.52.03-.54.07-1.09.12-1.66.05-.57.07-1.11.04-1.63s-.13-1-.3-1.45c-.18-.44-.49-.8-.93-1.09-.35-.05-.67-.03-.95.07-.28.1-.54.24-.77.44-.23.19-.45.42-.65.66-.2.25-.41.5-.62.74-.05.09-.12.17-.19.25-.07.08-.15.16-.24.25v5.04c-.11.58-.34,1-.69,1.26Z"/>
    <path d="M619.25,359.22c.12-.51.3-1.02.52-1.51.22-.49.49-.97.81-1.42.32-.45.68-.86,1.07-1.23s.83-.67,1.29-.9c.81-.42,1.63-.64,2.45-.65.82,0,1.59.16,2.29.49.71.34,1.31.84,1.8,1.5.49.66.82,1.45.98,2.37.09.6.14,1.17.15,1.71,0,.54-.05,1.1-.17,1.68-.18.83-.53,1.66-1.07,2.48-.54.82-1.18,1.51-1.94,2.07-.75.56-1.57.92-2.47,1.1-.89.18-1.79.04-2.69-.42-.41-.19-.77-.42-1.1-.68-.33-.26-.62-.56-.89-.92-.3-.39-.53-.8-.7-1.22-.17-.42-.3-.87-.41-1.33-.12-.49-.17-.99-.13-1.5.04-.5.1-.99.19-1.47l.03-.16ZM622.43,359.77c-.05.28-.1.56-.13.84-.04.27-.04.55,0,.84.05.41.16.78.33,1.11.17.34.39.6.66.8.27.19.59.3.94.3.35,0,.73-.1,1.14-.33.51-.3.95-.76,1.33-1.39.37-.63.6-1.28.69-1.96.09-.68.02-1.33-.21-1.94-.23-.61-.68-1.05-1.35-1.31-.44,0-.85.08-1.22.25-.37.17-.69.39-.97.66-.27.27-.51.6-.72.97-.2.37-.37.76-.49,1.17Z"/>
    <path d="M643.12,364.86c-.05.44-.22.8-.49,1.09-.27.28-.58.46-.93.53-.34.07-.68.03-.99-.13-.32-.16-.55-.47-.69-.93-.16-.49-.22-1.01-.19-1.55.04-.54.05-1.04.05-1.5,0-.95,0-1.9.01-2.85,0-.95-.03-1.9-.12-2.85-.02-.04-.04-.07-.05-.09-.02-.03-.05-.07-.11-.12-.41-.11-.84-.08-1.3.08-.46.16-.85.36-1.17.61-.28.23-.56.54-.84.94-.27.4-.41.78-.41,1.15v3.66c0,.28,0,.59.03.93.02.34,0,.66-.04.98-.04.32-.15.61-.3.88-.16.27-.42.46-.77.58-.19.07-.38.1-.54.08-.17-.02-.35-.06-.54-.13-.32-.11-.55-.29-.69-.54-.14-.26-.24-.53-.29-.82-.05-.29-.08-.57-.07-.85,0-.27.01-.49.01-.65,0-.41,0-.99-.01-1.76,0-.77-.01-1.58-.01-2.43v-4.19c0-.39.11-.71.34-.97.23-.26.5-.42.81-.5.31-.08.64-.06.98.05.34.12.63.35.86.7.71-.46,1.48-.77,2.33-.93.85-.16,1.65-.13,2.4.08.75.21,1.38.61,1.88,1.19.5.58.76,1.39.78,2.41,0,.04,0,.14.03.32.02.18.03.42.03.74v6.79Z"/>
    <path d="M655.26,362c.42-.11.8-.11,1.13-.01.33.1.58.26.76.49.18.23.26.51.24.85-.02.34-.17.69-.45,1.06-.23.3-.55.56-.95.77-.41.21-.79.38-1.14.5-.87.32-1.69.54-2.47.66-.78.12-1.51.12-2.19,0-.68-.12-1.32-.38-1.91-.77-.59-.39-1.15-.94-1.66-1.64-.35-.48-.61-1.02-.78-1.63-.17-.61-.26-1.23-.28-1.87-.02-.64.04-1.26.16-1.88.12-.62.3-1.18.53-1.67.3-.62.78-1.18,1.43-1.7.65-.51,1.38-.92,2.17-1.22.8-.3,1.61-.47,2.44-.52.83-.04,1.56.08,2.2.38.53.25.99.61,1.37,1.07.38.47.64.98.78,1.52.14.55.15,1.1.04,1.66-.11.56-.4,1.07-.86,1.52s-.93.8-1.46,1.07c-.53.27-1.08.51-1.64.72-.57.2-1.14.38-1.74.52-.59.14-1.16.3-1.71.48.37.42.8.69,1.27.81.48.12.98.14,1.5.07.52-.07,1.05-.22,1.58-.44.53-.22,1.03-.46,1.49-.73l.16-.08ZM649.91,357.44c-.41.23-.71.52-.9.86-.19.34-.34.83-.42,1.45.46-.14.98-.29,1.55-.45.57-.16,1.12-.33,1.63-.5.51-.18.95-.37,1.3-.58.35-.21.53-.44.53-.69,0-.14-.02-.28-.07-.41-.04-.13-.14-.23-.28-.28-.5-.18-1.01-.21-1.54-.11-.53.11-.97.26-1.33.45l-.48.27Z"/>
    <path d="M663.06,364.09c0,.44-.1.82-.3,1.13-.2.31-.46.54-.76.7-.3.16-.63.24-.99.25-.36,0-.7-.05-1.02-.19-.32-.13-.59-.34-.81-.62-.22-.28-.35-.65-.38-1.09-.04-.46.05-.84.25-1.15.2-.31.46-.54.78-.7.32-.16.66-.24,1.03-.25.37,0,.72.05,1.05.19.33.13.6.34.82.64.22.29.33.66.33,1.1Z"/>
  </g>
  <g>
    <path d="M214.25,458.51s-13.68-1.37-16.61,32.83c-2.94,34.19,12.36,38.29,25.68,37.16,15.05-1.28,20.66-21.54,17.27-38.26-6.24-30.78-26.34-31.73-26.34-31.73Z" fill="#e293e2" stroke="#000" stroke-linecap="round" stroke-miterlimit="10" stroke-width="3.03"/>
    <path d="M109.01,425.1s-43.29,11.8-51.85,60.81c-8.55,49.01,22.26,91.8,89.95,82.97,67.68-8.83,91.39-55.36,78.35-93.39-13.17-38.4-49.53-69.98-116.45-50.39Z" fill="#fff" stroke="#000" stroke-linecap="round" stroke-miterlimit="10" stroke-width="2"/>
    <path d="M194.19,458.56c-14.83-.93-19.77,16.65-19.77,16.65,0,0-.67,2.13-1.3,5.38-5-.12-10.47.92-10.8,6.03-.32,4.93,3.96,7.12,9.85,7.71.35,4.31,1.48,8.62,4.03,12.02,6.77,9.04,29.25,8.57,32.7-15.03,1.32-9.03,1.06-16.26-.68-21.61-1.16-3.56-4.21-3.57-6.66-5.44-2.31-1.77-3.95-5.49-7.36-5.7Z" fill="#fff" stroke="#000" stroke-linecap="round" stroke-miterlimit="10" stroke-width="2.41"/>
    <path d="M147.58,499.62s-25.62,5.92-28.72,25.52c-3.1,19.6,7.21,39.62,40.03,34,32.82-5.63,31.85-29.15,28.11-41.36-3.74-12.21-18.55-24.72-39.43-18.15Z" fill="#e293e2" stroke="#000" stroke-linecap="round" stroke-miterlimit="10" stroke-width="3.03"/>
    <path d="M149.86,508.85s12.74-5.37,14.41,3.28c1.67,8.65-10.69,10.09-10.69,10.09" fill="none" stroke="#000" stroke-linecap="round" stroke-miterlimit="10" stroke-width="3.42"/>
    <path d="M66.51,461.29s-16.17-9.28-33.18,29.82c-8.2,18.85-4.22,43.72,12.32,48.15,17.58,4.71,23.82-5.77,30.18-31.42,9.39-37.88-9.32-46.55-9.32-46.55Z" fill="#e293e2" stroke="#000" stroke-linecap="round" stroke-miterlimit="10" stroke-width="3.03"/>
    <g>
      <path d="M135.33,491.43c-.27-5.4-6.34-6.37-11.56-6.19.03-3.15-2.45-26.62-12.43-22.85-4.79,1.81-9.29,2.73-12.6,3.22-8.08,1.19-13.49,11.72-14.51,26.99-1.59,23.8,19.97,29.79,29.01,23.03,5.12-3.83,7.74-10.51,9.09-16.53,7.38.02,13.29-1.93,13.01-7.67Z" fill="none" stroke="#000" stroke-linecap="round" stroke-miterlimit="10" stroke-width="2.41"/>
      <path d="M110.7,469.98s-6.71-.59-8.39,8.54c-2,10.87,2.95,17.37,7.91,18.37,7.87,1.58,9.74-9.07,8.3-16.85-2.03-10.97-7.83-10.06-7.83-10.06Z" fill="#e293e2" stroke="#000" stroke-linecap="round" stroke-miterlimit="10" stroke-width="3.03"/>
    </g>
    <path d="M198.13,466.51c-1.39.03-6.08,1.75-6.3,12.59-.29,14.56,9.86,12.77,11.53,7.97,1.58-4.56,4.2-20.78-5.23-20.56Z" fill="#e293e2" stroke="#000" stroke-linecap="round" stroke-miterlimit="10" stroke-width="3.03"/>
    <path d="M163.86,532.5s-8.79,1.39-16.72-.59c0,0-1.69,5.89,6.48,6.51,8.17.62,9.51-2.04,10.24-5.93Z"/>
  </g>
</svg>