<?xml version="1.0" encoding="UTF-8"?>
<svg id="Layer_1" data-name="Layer 1" xmlns="http://www.w3.org/2000/svg" width="800" height="600" viewBox="0 0 800 600">
  <rect x="-11.35" y="-9.46" width="822.55" height="618.34" fill="#2b3751"/>
  <g>
    <path d="M342.48,267.79c30.61,89.96-16.05,186.44-104.21,215.5-88.16,29.06-184.44-20.31-215.04-110.27-30.61-89.96,16.05-186.44,104.21-215.5,88.16-29.06,184.44,20.31,215.04,110.27Z" fill="#ff911a"/>
    <ellipse cx="223.71" cy="237.1" rx="161.25" ry="138.24" transform="translate(-77.51 112.49) rotate(-24.19)" fill="#ff911a"/>
    <ellipse cx="312.96" cy="219.29" rx="161.25" ry="146.91" transform="translate(-48.02 93.9) rotate(-15.86)" fill="#ff911a"/>
    <path d="M512.52,423.83c-26.21,89.05-149.7,142.01-254.24,111.24-104.54-30.77-150.54-133.61-124.33-222.66,26.21-89.05,132.2-136.3,236.74-105.54,104.54,30.77,168.04,127.9,141.83,216.95Z" fill="#ff911a"/>
    <ellipse cx="564.75" cy="336.25" rx="224.53" ry="210.83" transform="translate(-87.7 256.76) rotate(-23.82)" fill="#ff911a"/>
    <ellipse cx="436.84" cy="208.82" rx="196.36" ry="143.2" transform="translate(-44.27 154.3) rotate(-19.08)" fill="#ff911a"/>
    <ellipse cx="472.64" cy="462.03" rx="112.61" ry="92.65" transform="translate(-110.54 150.97) rotate(-16.27)" fill="#ff911a"/>
  </g>
  <path d="M166.35,212.19s-54.76-3.34-72.12,55.42c-17.36,58.76,36.73,94.82,66.11,97.49,29.38,2.67,82.13-4.67,89.48-56.76,7.35-52.09-19.37-96.16-83.47-96.16Z" fill="none" stroke="#000" stroke-linecap="round" stroke-miterlimit="10" stroke-width="2.55"/>
  <path d="M219.49,296.51c0-.41,0-.69,0-.69.18-10.27-.9-16.4-8.29-18.74-7.39-2.34-13.87,4.69-15.5,9.37-1.62,4.69-7.62,25.6,8.65,28,7.58,1.12,10.87-4.14,12.6-9.43,6.46,1.91,8.75-1.17,8.85-3.26.12-2.42-3.6-4.25-6.3-5.25Z" fill="none" stroke="#000" stroke-linecap="round" stroke-miterlimit="10" stroke-width="2.55"/>
  <path d="M251.1,290.18s-.53-3.23-3.63-2.97c-3.1.26-7.32,3.76-9.23,12.86-.05.24-.08.48-.12.72-.68-.11-1.41-.19-2.12-.19-2.57,0-3.69,2.64-2.9,4.62.45,1.13,2.02,2.37,4.94,3.01.9,5.85,3.99,10.3,7.66,9.38,6.13-1.53,5.41-27.43,5.41-27.43Z" fill="none" stroke="#000" stroke-linecap="round" stroke-miterlimit="10" stroke-width="2.55"/>
  <path d="M209.49,294.54s-3.63-1.06-5.34,7.12c-1.71,8.18,1.52,8.57,2.97,8.31,1.45-.26,3.1-4.62,3.96-8.71.86-4.09.07-6.53-1.58-6.73Z"/>
  <path d="M247.87,299.55s-3.1-.53-4.48,6.86c-1.38,7.39.46,7.85,1.71,7.91,1.25.07,2.97-3.43,3.89-6.53.92-3.1,1.12-8.11-1.12-8.24Z"/>
  <path d="M223.8,322.04s7.19-1.19,8.05,2.84c.86,4.02-2.18,7.52-9.56,5.74" fill="none" stroke="#000" stroke-linecap="round" stroke-miterlimit="10" stroke-width="2.55"/>
  <path d="M223.2,345.64s-6.46-1.32-12.33-1.06" fill="none" stroke="#000" stroke-linecap="round" stroke-miterlimit="10" stroke-width="2.55"/>
  <path d="M121.22,230.63s40.6,11.53,55.02,24.99c0,0,42.28-13.69,66.55,3.6,0,0,3.12-17.54-21.62-34.84-24.75-17.3-87.45-25.95-99.94,6.25Z"/>
  <path d="M250.11,450.36c1.44.96.43,4.83-.96,6.13-12.7,11.86-31.21,1.97-31.21,1.97-18.17,12.22-63.29,27.57-109.35,9.71-46.06-17.86-36.66-72.07-28.2-93.06,6.84-16.97,26.46-28.89,33.85-32.89" fill="none" stroke="#000" stroke-linecap="round" stroke-miterlimit="10" stroke-width="2.55"/>
  <path d="M122.07,383.26s-17.86,32.27,7.83,50.13c25.69,17.86,87.11-.63,87.11-.63,0,0,9.27-9.38,23.94-10.24" fill="none" stroke="#000" stroke-linecap="round" stroke-miterlimit="10" stroke-width="2.55"/>
  <path d="M259.72,457.32c-1.15,2.3-3.65,8.38-4.56,8.89-5.01,2.82-20.3,1.56-26.67-1.8-.76-.4-.73-.85-.69-2.4" fill="none" stroke="#000" stroke-linecap="round" stroke-miterlimit="10" stroke-width="2.55"/>
  <path d="M235.52,435.82l8.43-20.29s1.57-6.27,10.34-5.64c8.77.63,15.67.63,15.67.63,0,0,8.15.31,3.76,8.77-1.19,2.3-2.58,7.64-5.23,13.17" fill="none" stroke="#000" stroke-linecap="round" stroke-miterlimit="10" stroke-width="2.55"/>
  <path d="M207.59,360.02s10.81,3.24,17.18,35.68c3.61,18.41,12.49,21,18.05,21.95" fill="none" stroke="#000" stroke-linecap="round" stroke-miterlimit="10" stroke-width="2.55"/>
  <path d="M235.46,436.06s.36,3.24,4.8,3.12c4.44-.12,5.44-2.14,6.37-3.48,1.56-2.28,3.6-4.2,6.25-1.8,4.12,3.74-4.56,10.09-7.21,11.29" fill="none" stroke="#000" stroke-linecap="round" stroke-miterlimit="10" stroke-width="2.55"/>
  <path d="M251.92,441.35s3.72.84.84,6.49c-.93,1.82-5.77,4.56-11.17,5.77" fill="none" stroke="#000" stroke-linecap="round" stroke-miterlimit="10" stroke-width="2.55"/>
  <path d="M268.61,432.7s-3,2.52-5.53.6c-2.52-1.92-2.04-3.6-4.68-3.84-2.64-.24-4.62,4.62.12,8.77,4.8,4.2,7.45,3,8.89,2.28,1.44-.72,5.77-4.32,1.2-7.81Z" fill="none" stroke="#000" stroke-linecap="round" stroke-miterlimit="10" stroke-width="2.55"/>
  <path d="M259.72,439.79s-2.4-1.32-4.56,1.8c-2.16,3.12,1.08,8.05,6.97,8.29,5.89.24,7.45-3.96,4.08-7.81,0,0-4.32,0-6.49-2.28Z" fill="none" stroke="#000" stroke-linecap="round" stroke-miterlimit="10" stroke-width="2.55"/>
  <path d="M262.85,449.88s-2.88.36-5.89-.24c-3-.6-4.2,2.88-3.48,4.32s5.17,4.32,9.25,3.36,5.89-2.04,3.84-8.65" fill="none" stroke="#000" stroke-linecap="round" stroke-miterlimit="10" stroke-width="2.55"/>
  <path d="M77.85,438.53c-.36,1.89-1.17,6.18-2.13,11.7" fill="none" stroke="#000" stroke-linecap="round" stroke-miterlimit="10" stroke-width="2.55"/>
  <path d="M419.52,108.26s-41.66-2.14-61.6,50.56c-19.94,52.7,36.68,82.97,68.72,80.12,32.05-2.85,64.45-11.04,65.16-60.89.71-49.85-33.83-69.79-72.28-69.79Z" fill="none" stroke="#000" stroke-linecap="round" stroke-miterlimit="10" stroke-width="2.55"/>
  <path d="M415.97,164.01c-1.09-.18-3.17-.32-4.96-.41.1-2.75-.11-14.78-11.78-15.09-13.17-.36-12.82,17.09-12.11,24.21.71,7.12,6.77,14.6,12.46,13.89,4.64-.58,9.98-3.05,11.23-13.75,1.88-.03,4-.13,5.34-.38,2.88-.54,3.96-1.62,4.14-4.14.18-2.52-2.16-3.96-4.32-4.32Z" fill="none" stroke="#000" stroke-linecap="round" stroke-linejoin="round" stroke-width="2.55"/>
  <path d="M469.12,153.19c-1.98-3.06-16.4-12.97-21.8,5.95,0,0-.37,1.35-.63,3.42h-5.32s-6.67.72-5.59,6.49c.7,3.74,6.99,3.99,11.34,3.71.81,3.37,2.46,6.78,5.6,9.45,9.55,8.11,18.74-.36,20.18-7.75,1.44-7.39-1.8-18.2-3.78-21.26Z" fill="none" stroke="#000" stroke-linecap="round" stroke-linejoin="round" stroke-width="2.55"/>
  <path d="M402.8,166.4s-4.14.18-3.78,7.75c.36,7.57,3.42,6.67,5.23,6.13,1.8-.54,1.98-5.77,1.8-8.29s-.36-6.13-3.24-5.59Z"/>
  <path d="M464.28,165.14s-2.7,1.44-2.52,5.77c.18,4.32.54,9.73,3.6,10.09,3.06.36,3.24-3.96,3.24-9.01s-1.44-8.29-4.32-6.85Z"/>
  <path d="M415.25,186.71s6.31-1.98,9.01,1.62c2.7,3.6-2.52,7.39-7.93,5.95" fill="none" stroke="#000" stroke-linecap="round" stroke-miterlimit="10" stroke-width="2.55"/>
  <path d="M412.36,212.11s7.93,5.95,14.23-.18" fill="none" stroke="#000" stroke-linecap="round" stroke-miterlimit="10" stroke-width="2.55"/>
  <path d="M391.19,316.08c-1.62,1.35-2.25,2.79-2.25,2.79-7.57,15.14-25.95,36.31-42.52,35.59-16.58-.72-26.3-30.97-16.94-65.59,10.1-37.35,43-52.42,52.68-56.11" fill="none" stroke="#000" stroke-linecap="round" stroke-linejoin="round" stroke-width="2.55"/>
  <path d="M398.13,294.28s-3.6-8.83-2.7-11.53c.9-2.7,3.78-3.42,5.41.36,1.62,3.78,4.23,11.26,4.23,11.26l-6.94-.09Z"/>
  <path d="M433.17,354.01l-.21,9.61c-.03,1.21-1.04,2.17-2.26,2.15l-36.41-.81c-1.18-.03-2.14-.98-2.16-2.17l-1-51.64c-.02-1.15.91-2.09,2.06-2.08l39.43.33c1.04,0,1.87.87,1.84,1.91l-.58,18.11" fill="none" stroke="#000" stroke-linecap="round" stroke-miterlimit="10" stroke-width="2.55"/>
  <path d="M434.26,325.09s5.5,5.05-4.05,4.68c-8.35-.32-11.71-1.98-17.48-2.7-5.77-.72-6.58,3.6-2.88,4.77,3,.95,17.3,2.67,16.22,5.5-1.08,2.82-13.45-1.32-17.78-1.86s-5.59,4.5,1.08,5.41c6.67.9,14.9,2.82,13.99,4.2-1.35,2.05-12.23-1.29-14.21-.57-1.98.72-2.69,3.34.67,4.11,2.57.58,24.71,8.54,36.25,3.67,0,0,42.52,9.73,55.32-14.23,12.79-23.96,7.93-59.88-26.91-98.56,0,0-4.08-3.84-12.01-4.56-2.55-.23-4.31-.96-5.52-1.85" fill="none" stroke="#000" stroke-linecap="round" stroke-miterlimit="10" stroke-width="2.55"/>
  <path d="M474.47,239.5s-9.49,23.78-8.59,50.63c0,0,14.41,12.79,14.23,23.96-.18,11.17-10.99,12.97-16.4,14.78-5.41,1.8-20.18-3.06-20.18-3.06-3.3-4.95-7.44-7.8-9.22-8.88" fill="none" stroke="#000" stroke-linecap="round" stroke-miterlimit="10" stroke-width="2.55"/>
  <path d="M378.13,233.74s1.44,10.09.72,16.22c-.72,6.13-1.44,11.17,9.01,11.53,10.45.36,54.78,5.41,62.34,3.24,7.57-2.16,5.77-2.88,6.85-10.09,1.08-7.21,3.24-15.86,6.49-19.1" fill="none" stroke="#000" stroke-linecap="round" stroke-miterlimit="10" stroke-width="2.55"/>
  <path d="M370.56,238.06c.36,1.08,2.52,37.12-5.77,56.22,0,0-9.91,12.25-7.21,24.69,0,0,.9,2.7,7.57-3.42,6.67-6.13,16.76-16.04,21.98-18.2,5.23-2.16,11.53-2.16,17.84-2.52,0,0,4.23-.72,3.33,2.34-.75,2.54-12.16,3.78-12.16,3.78,0,0,12.91-3.57,13.69.18.45,2.16-12.49,4.68-12.49,4.68,12.67-3.15,14.29,1.53,6.64,3.42" fill="none" stroke="#000" stroke-linecap="round" stroke-linejoin="round" stroke-width="2.55"/>
  <path d="M353.27,353.78c-.56,7.94-3.15,43.83-5.92,73.24" fill="none" stroke="#000" stroke-linecap="round" stroke-linejoin="round" stroke-width="2.55"/>
  <path d="M481.19,352.18s1.92,46.61,6.73,66.79c.78,3.27,1.36,6.86,1.8,10.6" fill="none" stroke="#000" stroke-linecap="round" stroke-linejoin="round" stroke-width="2.55"/>
  <path d="M271.69,425.58c79.78,1.03,331.47,6.16,331.47,6.16,0,0,4.94-.77,7.82,4.04,2.88,4.8,20.82,53.2,20.82,53.2,0,0,2.42,4.43-7.5,3.31-.93-.11-419.47-8.65-419.47-8.65,0,0-4.8.48,1.44-7.21,2.11-2.6,7.47-9.24,13.65-16.91" fill="none" stroke="#000" stroke-linecap="round" stroke-linejoin="round" stroke-width="2.55"/>
  <path d="M631.02,493.24c0-1.44-.17,19.38-.17,19.38" fill="none" stroke="#000" stroke-linecap="round" stroke-linejoin="round" stroke-width="2.55"/>
  <line x1="203.34" y1="482.8" x2="203.39" y2="496.54" fill="none" stroke="#000" stroke-linecap="round" stroke-linejoin="round" stroke-width="2.55"/>
  <g>
    <path d="M681.39,388.14c-8.42,1.4-20.99,2.63-23.44,33.58-1.83,23.14-2.14,32.37-2.14,32.37,0,0-17.42,119.29-16.78,120.08s16.89.7,16.89.7l55.74-183.46s-16.76-5.52-30.26-3.27Z" fill="#f7bc00" stroke="#000" stroke-linecap="round" stroke-linejoin="round" stroke-width="4.24"/>
    <path d="M679.46,389.17l-5.41,30.5,13.55,2.48,8.19-33.34s-11.48-2-16.33.36Z"/>
    <polygon points="672.04 427.86 690.39 429.58 651.19 575.36 643.55 575.96 672.04 427.86" fill="#ddd"/>
    <circle cx="680.17" cy="423.3" r="17.26" transform="translate(-98.7 610.84) rotate(-45.43)"/>
    <polygon points="681.42 415.36 674.41 418.18 673.34 425.66 679.29 430.32 686.3 427.5 687.37 420.02 681.42 415.36" fill="#fff"/>
    <path d="M671.05,433.95s-27.81,140.91-27.37,140.45" fill="none" stroke="#000" stroke-linecap="round" stroke-miterlimit="10" stroke-width="1.88"/>
    <path d="M688.22,435.17s-37.57,139.57-37.05,139.29" fill="none" stroke="#000" stroke-linecap="round" stroke-miterlimit="10" stroke-width="1.88"/>
    <line x1="657.89" y1="502.19" x2="667.53" y2="510.5" fill="none" stroke="#000" stroke-linecap="round" stroke-miterlimit="10" stroke-width="1.88"/>
    <line x1="652.8" y1="527.6" x2="660.97" y2="534.68" fill="none" stroke="#000" stroke-linecap="round" stroke-miterlimit="10" stroke-width="1.88"/>
    <line x1="647.92" y1="553.18" x2="654.9" y2="559.33" fill="none" stroke="#000" stroke-linecap="round" stroke-miterlimit="10" stroke-width="1.88"/>
    <line x1="661.95" y1="478.77" x2="673.46" y2="489.59" fill="none" stroke="#221a38" stroke-linecap="round" stroke-miterlimit="10" stroke-width="1.88"/>
    <line x1="667.52" y1="451.6" x2="680.1" y2="463.27" fill="none" stroke="#000" stroke-linecap="round" stroke-miterlimit="10" stroke-width="1.88"/>
  </g>
  <g>
    <rect x="491.19" y="305.43" width="275.19" height="49.8" rx="24.9" ry="24.9" fill="#fff"/>
    <rect x="491.19" y="273.85" width="275.19" height="49.8" rx="24.9" ry="24.9" fill="#fff"/>
    <rect x="491.19" y="334.8" width="191.31" height="49.8" rx="24.9" ry="24.9" fill="#fff"/>
    <path d="M559.14,379.93s10.11,24,38.53,33.47l-15.16-35.37-23.37,1.89Z" fill="#fff"/>
  </g>
  <text transform="translate(514.85 307.95)" font-family="ChalkboardSE-Bold, &apos;Chalkboard SE&apos;" font-size="24" font-weight="700"><tspan x="0" y="0" letter-spacing="-.02em">A</tspan><tspan x="15.54" y="0" letter-spacing="-.04em">f</tspan><tspan x="25.54" y="0" letter-spacing="-.05em">t</tspan><tspan x="35.85" y="0" letter-spacing=".02em">e</tspan><tspan x="49.54" y="0">r th</tspan><tspan x="95.6" y="0" letter-spacing="-.07em">a</tspan><tspan x="107.35" y="0" letter-spacing="-.13em">t</tspan><tspan x="115.73" y="0">, he we</tspan><tspan x="200.51" y="0" letter-spacing="-.04em">n</tspan><tspan x="212.39" y="0">t </tspan><tspan x="0" y="28.8" letter-spacing="-.05em">s</tspan><tspan x="9.73" y="28.8">t</tspan><tspan x="21.24" y="28.8" letter-spacing="-.07em">r</tspan><tspan x="30.68" y="28.8">ai</tspan><tspan x="50.6" y="28.8" letter-spacing=".02em">g</tspan><tspan x="64.36" y="28.8" letter-spacing="-.05em">h</tspan><tspan x="76.85" y="28.8">t </tspan><tspan x="98.31" y="28.8" letter-spacing="-.04em">t</tspan><tspan x="108.75" y="28.8" letter-spacing="0em">o </tspan><tspan x="130.92" y="28.8" letter-spacing="0em">s</tspan><tspan x="141.56" y="28.8" letter-spacing="0em">c</tspan><tspan x="153.92" y="28.8" letter-spacing="-.01em">r</tspan><tspan x="164.6" y="28.8">o</tspan><tspan x="176.83" y="28.8" letter-spacing="-.02em">l</tspan><tspan x="184.2" y="28.8" letter-spacing="-.04em">l</tspan><tspan x="190.88" y="28.8">i</tspan><tspan x="197.41" y="28.8" letter-spacing=".02em">n</tspan><tspan x="210.56" y="28.8" letter-spacing="0em">g </tspan><tspan x="0" y="57.6" letter-spacing=".03em">o</tspan><tspan x="12.83" y="57.6">n </tspan><tspan x="35.56" y="57.6" letter-spacing=".02em">h</tspan><tspan x="49.54" y="57.6" letter-spacing="0em">is ph</tspan><tspan x="103.66" y="57.6" letter-spacing=".03em">o</tspan><tspan x="116.5" y="57.6" letter-spacing=".02em">n</tspan><tspan x="129.65" y="57.6" letter-spacing="-.04em">e</tspan><tspan x="141.96" y="57.6" letter-spacing="-.05em">.</tspan></text>
  <g>
    <path d="M214.25,458.51s-13.68-1.37-16.61,32.83c-2.94,34.19,12.36,38.29,25.68,37.16,15.05-1.28,20.66-21.54,17.27-38.26-6.24-30.78-26.34-31.73-26.34-31.73Z" fill="#e293e2" stroke="#000" stroke-linecap="round" stroke-miterlimit="10" stroke-width="3.03"/>
    <path d="M109.01,425.1s-43.29,11.8-51.85,60.81c-8.55,49.01,22.26,91.8,89.95,82.97,67.68-8.83,91.39-55.36,78.35-93.39-13.17-38.4-49.53-69.98-116.45-50.39Z" fill="#fff" stroke="#000" stroke-linecap="round" stroke-miterlimit="10" stroke-width="2"/>
    <path d="M194.19,458.56c-14.83-.93-19.77,16.65-19.77,16.65,0,0-.67,2.13-1.3,5.38-5-.12-10.47.92-10.8,6.03-.32,4.93,3.96,7.12,9.85,7.71.35,4.31,1.48,8.62,4.03,12.02,6.77,9.04,29.25,8.57,32.7-15.03,1.32-9.03,1.06-16.26-.68-21.61-1.16-3.56-4.21-3.57-6.66-5.44-2.31-1.77-3.95-5.49-7.36-5.7Z" fill="#fff" stroke="#000" stroke-linecap="round" stroke-miterlimit="10" stroke-width="2.41"/>
    <path d="M147.58,499.62s-25.62,5.92-28.72,25.52c-3.1,19.6,7.21,39.62,40.03,34,32.82-5.63,31.85-29.15,28.11-41.36-3.74-12.21-18.55-24.72-39.43-18.15Z" fill="#e293e2" stroke="#000" stroke-linecap="round" stroke-miterlimit="10" stroke-width="3.03"/>
    <path d="M149.86,508.85s12.74-5.37,14.41,3.28c1.67,8.65-10.69,10.09-10.69,10.09" fill="none" stroke="#000" stroke-linecap="round" stroke-miterlimit="10" stroke-width="3.42"/>
    <path d="M66.51,461.29s-16.17-9.28-33.18,29.82c-8.2,18.85-4.22,43.72,12.32,48.15,17.58,4.71,23.82-5.77,30.18-31.42,9.39-37.88-9.32-46.55-9.32-46.55Z" fill="#e293e2" stroke="#000" stroke-linecap="round" stroke-miterlimit="10" stroke-width="3.03"/>
    <g>
      <path d="M135.33,491.43c-.27-5.4-6.34-6.37-11.56-6.19.03-3.15-2.45-26.62-12.43-22.85-4.79,1.81-9.29,2.73-12.6,3.22-8.08,1.19-13.49,11.72-14.51,26.99-1.59,23.8,19.97,29.79,29.01,23.03,5.12-3.83,7.74-10.51,9.09-16.53,7.38.02,13.29-1.93,13.01-7.67Z" fill="none" stroke="#000" stroke-linecap="round" stroke-miterlimit="10" stroke-width="2.41"/>
      <path d="M110.7,469.98s-6.71-.59-8.39,8.54c-2,10.87,2.95,17.37,7.91,18.37,7.87,1.58,9.74-9.07,8.3-16.85-2.03-10.97-7.83-10.06-7.83-10.06Z" fill="#e293e2" stroke="#000" stroke-linecap="round" stroke-miterlimit="10" stroke-width="3.03"/>
    </g>
    <path d="M198.13,466.51c-1.39.03-6.08,1.75-6.3,12.59-.29,14.56,9.86,12.77,11.53,7.97,1.58-4.56,4.2-20.78-5.23-20.56Z" fill="#e293e2" stroke="#000" stroke-linecap="round" stroke-miterlimit="10" stroke-width="3.03"/>
    <path d="M163.86,532.5s-8.79,1.39-16.72-.59c0,0-1.69,5.89,6.48,6.51,8.17.62,9.51-2.04,10.24-5.93Z"/>
  </g>
</svg>