<?xml version="1.0" encoding="UTF-8"?>
<svg id="Layer_1" data-name="Layer 1" xmlns="http://www.w3.org/2000/svg" width="800" height="550" viewBox="0 0 800 550">
  <rect x="-9.13" y="-7.07" width="818.68" height="565.83" fill="#2b3751"/>
  <path d="M150.06,431.53s-52.02,16.32-66.4,127.97h325.65s-61.03-75.76-77.1-151.04l-182.14,23.07Z" fill="#fff" stroke="#000" stroke-linecap="round" stroke-miterlimit="10" stroke-width="3.02"/>
  <path d="M351.8,261.29s-23.15-2.31-28.12,55.55c-4.97,57.87,20.93,64.81,43.46,62.9,25.48-2.16,34.97-36.45,29.23-64.75-10.57-52.1-44.58-53.7-44.58-53.7Z" fill="#e293e2" stroke="#221a38" stroke-linecap="round" stroke-miterlimit="10" stroke-width="5.13"/>
  <path d="M154.72,211.91s-71.26,23.29-74.8,107.41c-3.55,84.12,53.81,144.21,167.83,125.63,117.95-19.21,147.87-115.89,117.6-176.82-30.57-61.54-113.76-96.51-210.63-56.23Z" fill="#fff" stroke="#221a38" stroke-linecap="round" stroke-miterlimit="10" stroke-width="3.39"/>
  <path d="M317.84,257.53c-25.11-1.58-33.46,28.17-33.46,28.17,0,0-1.14,3.61-2.21,9.1-8.47-.2-17.71,1.56-18.27,10.2-.54,8.34,6.71,12.05,16.66,13.04.6,7.3,2.51,14.59,6.83,20.35,11.46,15.3,49.5,14.51,55.35-25.44,5.13-35.05-3.83-54.11-24.9-55.43Z" fill="#fff" stroke="#221a38" stroke-linecap="round" stroke-miterlimit="10" stroke-width="4.08"/>
  <path d="M238.97,327.02s-43.36,10.01-48.6,43.19c-5.24,33.18,12.21,67.05,67.75,57.53,55.54-9.52,53.91-49.34,47.58-70-6.33-20.67-31.39-41.84-66.73-30.72Z" fill="#e293e2" stroke="#221a38" stroke-linecap="round" stroke-miterlimit="10" stroke-width="5.13"/>
  <path d="M242.82,342.64s21.57-9.08,24.39,5.56c2.82,14.64-18.09,17.08-18.09,17.08" fill="none" stroke="#221a38" stroke-linecap="round" stroke-miterlimit="10" stroke-width="5.79"/>
  <path d="M98.85,263.5s-28.06-14.44-53.8,52.97c-12.41,32.51-3.77,74.24,24.53,80.46,30.09,6.61,39.83-11.6,48.6-55.44,12.95-64.76-19.34-77.98-19.34-77.98Z" fill="#e293e2" stroke="#221a38" stroke-linecap="round" stroke-miterlimit="10" stroke-width="5.13"/>
  <path d="M218.22,313.16c-.45-9.15-10.73-10.77-19.56-10.47.05-5.33-2.34-35.74-21.04-38.67-22.1-3.46-43.18,10.84-45.88,51.12-2.7,40.28,33.79,50.42,49.1,38.98,8.66-6.48,13.1-17.78,15.38-27.98,12.49.03,22.49-3.26,22.01-12.98Z" fill="none" stroke="#221a38" stroke-linecap="round" stroke-miterlimit="10" stroke-width="4.08"/>
  <path d="M265.43,379.72s-14.11,5.3-27.92,4.71c0,0-.81,10.34,12.95,8.6,13.76-1.74,15.08-6.61,14.97-13.31Z"/>
  <path d="M149.93,319.32c0-2.88,6.71-30.69,17.26-26.85,10.55,3.84,4.8,28.77,4.8,28.77" fill="none" stroke="#221a38" stroke-linecap="round" stroke-miterlimit="10" stroke-width="5.13"/>
  <path d="M300.19,311.59c0-2.88,6.71-30.69,17.26-26.85,10.55,3.84,4.8,28.77,4.8,28.77" fill="none" stroke="#221a38" stroke-linecap="round" stroke-miterlimit="10" stroke-width="5.13"/>
  <g>
    <path d="M679.28,220.06c-10.29-1.09-25.4-3.72-38.29,31.69-9.63,26.47-12.99,37.16-12.99,37.16,0,0-58.99,133.86-58.49,134.99.5,1.13,19.53,6.28,19.53,6.28l124.56-196.5s-17.81-11.88-34.33-13.62Z" fill="#f7bc00" stroke="#000" stroke-linecap="round" stroke-linejoin="round" stroke-width="8.22"/>
    <path d="M676.68,220.64l-16.2,33.92,15.04,7.29,20.37-36.34s-12.78-6.06-19.21-4.86Z"/>
    <polygon points="655.48 263.49 676.38 271.44 583.36 429.23 574.23 427.46 655.48 263.49" fill="#ddd"/>
    <path d="M652.35,270.28s-78.13,155.79-77.48,155.39" fill="none" stroke="#221a38" stroke-linecap="round" stroke-miterlimit="10" stroke-width="2.29"/>
    <path d="M672.04,277.27s-89.12,151.06-88.41,150.9" fill="none" stroke="#221a38" stroke-linecap="round" stroke-miterlimit="10" stroke-width="2.29"/>
    <line x1="614.87" y1="345.83" x2="623.46" y2="358.67" fill="none" stroke="#221a38" stroke-linecap="round" stroke-miterlimit="10" stroke-width="2.29"/>
    <line x1="600.7" y1="373.9" x2="607.96" y2="384.82" fill="none" stroke="#221a38" stroke-linecap="round" stroke-miterlimit="10" stroke-width="2.29"/>
    <line x1="586.71" y1="402.24" x2="592.88" y2="411.68" fill="none" stroke="#221a38" stroke-linecap="round" stroke-miterlimit="10" stroke-width="2.29"/>
    <line x1="633.62" y1="308.04" x2="643.58" y2="324.42" fill="none" stroke="#221a38" stroke-linecap="round" stroke-miterlimit="10" stroke-width="2.29"/>
    <line x1="642.51" y1="289.78" x2="653.44" y2="307.51" fill="none" stroke="#221a38" stroke-linecap="round" stroke-miterlimit="10" stroke-width="2.29"/>
    <path d="M654.33,333.43s-.05,0-.08,0c-7.76-.73-13.05-2.36-18.15-5.24-2.45-1.38-2.32-2.53-3.55-3.15-1.05-.52-2.85,0-5.43-.75-10.14-2.94-13-10.08-13.3-10.49-1.06-1.45-.84-3.6.48-4.79,1.32-1.19,3.26-.98,4.32.46.18.24,11.33,14.83,36.24,17.17,1.69.16,2.93,1.81,2.76,3.68-.16,1.85-1.63,3.22-3.29,3.11Z" fill="#fff34a" stroke="#000" stroke-linecap="round" stroke-miterlimit="10" stroke-width="2.73"/>
    <path d="M659.88,327.89s-.06,0-.08,0c-30.64-3.64-43.83-20.43-44.38-21.14-1.14-1.49-.86-3.63.63-4.78,1.49-1.14,3.62-.86,4.77.62.12.15,4.43,4.99,11.54,9.03.81.46,2.83,3.84,3.72,4.28.85.42,4,.04,5.28.23,6.1.93,10.75,3.98,19.25,4.99,1.87.22,3.2,1.92,2.98,3.79-.22,1.84-1.87,3.16-3.7,2.99Z" fill="#fff34a" stroke="#000" stroke-linecap="round" stroke-miterlimit="10" stroke-width="2.87"/>
    <g>
      <path d="M705.82,382.33c-1.09,0-2.23-.12-3.38-.37-15.54-3.32-12.71-18.22-10.64-29.1,2-10.55,2.85-17.12-2.38-19.43-2.3-1.02-4.52-1.51-6.77-1.51-4.68,0-8.75,2.15-13.06,4.43-3.72,1.97-7.95,4.2-12.35,4.2-5.88,0-10.95-4.02-15.51-12.3-.2-.37-1.13-1.07-3.18-1.07-.4,0-.83.03-1.27.08-.17.02-.33.03-.5.03-1.98,0-3.65-1.48-3.9-3.44-.13-1.04.15-2.07.8-2.9s1.57-1.36,2.62-1.49c.74-.09,1.48-.14,2.2-.14,4.57,0,8.35,1.92,10.12,5.13,3.22,5.85,5.75,8.23,8.73,8.23,2.34,0,4.95-1.38,8.57-3.29,4.49-2.37,10.07-5.33,16.82-5.33,3.3,0,6.62.73,9.87,2.16,11.32,5,8.88,17.8,6.93,28.09-3.14,16.5-1.02,18.75,4.55,19.94.56.12,1.12.18,1.64.18,4.26,0,7.25-3.89,11.67-10.3,4.49-6.51,9.59-13.89,18.47-14.63.32-.03.64-.04.96-.04,8.75,0,17.98,9.57,20.74,16.43.81,2.01-.17,4.31-2.18,5.12-.47.19-.97.29-1.47.29-1.61,0-3.05-.97-3.65-2.46-2.21-5.49-9.24-11.51-13.43-11.51-.11,0-.22,0-.32.01-5.17.43-8.8,5.69-12.65,11.26-4.22,6.11-9.46,13.71-18.06,13.71h0Z" fill="#fff34a"/>
      <path d="M705.82,382.33c-1.09,0-2.23-.12-3.38-.37-15.54-3.32-12.71-18.22-10.64-29.1,2-10.55,2.85-17.12-2.38-19.43-2.3-1.02-4.52-1.51-6.77-1.51-4.68,0-8.75,2.15-13.06,4.43-3.72,1.97-7.95,4.2-12.35,4.2-5.88,0-10.95-4.02-15.51-12.3-.2-.37-1.13-1.07-3.18-1.07-.4,0-.83.03-1.27.08-.17.02-.33.03-.5.03-1.98,0-3.65-1.48-3.9-3.44-.13-1.04.15-2.07.8-2.9s1.57-1.36,2.62-1.49c.74-.09,1.48-.14,2.2-.14,4.57,0,8.35,1.92,10.12,5.13,3.22,5.85,5.75,8.23,8.73,8.23,2.34,0,4.95-1.38,8.57-3.29,4.49-2.37,10.07-5.33,16.82-5.33,3.3,0,6.62.73,9.87,2.16,11.32,5,8.88,17.8,6.93,28.09-3.14,16.5-1.02,18.75,4.55,19.94.56.12,1.12.18,1.64.18,4.26,0,7.25-3.89,11.67-10.3,4.49-6.51,9.59-13.89,18.47-14.63.32-.03.64-.04.96-.04,8.75,0,17.98,9.57,20.74,16.43.81,2.01-.17,4.31-2.18,5.12-.47.19-.97.29-1.47.29-1.61,0-3.05-.97-3.65-2.46-2.21-5.49-9.24-11.51-13.43-11.51-.11,0-.22,0-.32.01-5.17.43-8.8,5.69-12.65,11.26-4.22,6.11-9.46,13.71-18.06,13.71h0Z" fill="none" stroke="#000" stroke-miterlimit="10" stroke-width="1.87"/>
    </g>
    <g>
      <path d="M556.6,351.39c-.72,0-1.47-.06-2.21-.19-11.94-2.04-12.67-14.32-13.25-24.19-.78-13.24-2.04-19.09-10.79-19.53-.16,0-.32-.01-.48-.01-6.32,0-11.48,6.25-14.53,17.61-.46,1.72-2.02,2.91-3.8,2.91-.34,0-.69-.05-1.02-.14-2.1-.56-3.34-2.73-2.78-4.82,1.89-7.05,7.83-23.44,22.06-23.44.31,0,.62,0,.94.02,16.71.83,17.6,15.91,18.25,26.92.64,10.82,1.51,16.01,6.73,16.9.25.04.5.06.74.06,6,0,11.97-12.11,16.75-21.84,5.54-11.26,10.32-20.98,17.82-22.01.61-.08,1.2-.13,1.77-.13,2.32,0,4.31.69,5.92,2.06,3.97,3.37,4.13,9.41,4.31,15.81.23,8.49.81,12.09,3.81,12.4.13.01.25.02.37.02,2.04,0,3.41-1.9,5.84-5.93,2.29-3.81,5.76-9.57,12.18-9.57,1.95,0,4.06.54,6.27,1.62,1.95.95,2.77,3.3,1.83,5.26-.65,1.35-2.04,2.22-3.54,2.22-.6,0-1.17-.13-1.71-.39-1.19-.58-2.04-.83-2.76-.83-1.85,0-3.16,1.85-5.52,5.76-2.48,4.12-5.87,9.75-12.49,9.75-.41,0-.82-.02-1.26-.07-10.35-1.06-10.65-12.01-10.87-20.01-.1-3.56-.24-8.94-1.53-10.03-.1-.09-.33-.19-.84-.19-.25,0-.5.03-.69.05-3.35.46-8.25,10.41-11.83,17.68-6.06,12.31-12.92,26.26-23.68,26.26h0Z" fill="#fff34a"/>
      <path d="M556.6,351.39c-.72,0-1.47-.06-2.21-.19-11.94-2.04-12.67-14.32-13.25-24.19-.78-13.24-2.04-19.09-10.79-19.53-.16,0-.32-.01-.48-.01-6.32,0-11.48,6.25-14.53,17.61-.46,1.72-2.02,2.91-3.8,2.91-.34,0-.69-.05-1.02-.14-2.1-.56-3.34-2.73-2.78-4.82,1.89-7.05,7.83-23.44,22.06-23.44.31,0,.62,0,.94.02,16.71.83,17.6,15.91,18.25,26.92.64,10.82,1.51,16.01,6.73,16.9.25.04.5.06.74.06,6,0,11.97-12.11,16.75-21.84,5.54-11.26,10.32-20.98,17.82-22.01.61-.08,1.2-.13,1.77-.13,2.32,0,4.31.69,5.92,2.06,3.97,3.37,4.13,9.41,4.31,15.81.23,8.49.81,12.09,3.81,12.4.13.01.25.02.37.02,2.04,0,3.41-1.9,5.84-5.93,2.29-3.81,5.76-9.57,12.18-9.57,1.95,0,4.06.54,6.27,1.62,1.95.95,2.77,3.3,1.83,5.26-.65,1.35-2.04,2.22-3.54,2.22-.6,0-1.17-.13-1.71-.39-1.19-.58-2.04-.83-2.76-.83-1.85,0-3.16,1.85-5.52,5.76-2.48,4.12-5.87,9.75-12.49,9.75-.41,0-.82-.02-1.26-.07-10.35-1.06-10.65-12.01-10.87-20.01-.1-3.56-.24-8.94-1.53-10.03-.1-.09-.33-.19-.84-.19-.25,0-.5.03-.69.05-3.35.46-8.25,10.41-11.83,17.68-6.06,12.31-12.92,26.26-23.68,26.26h0Z" fill="none" stroke="#000" stroke-miterlimit="10" stroke-width="1.87"/>
    </g>
    <g>
      <path d="M636.77,314.72s-3.59,4.61-4.52,11.64" fill="#fff34a" stroke="#000" stroke-linecap="round" stroke-miterlimit="10" stroke-width="2.87"/>
      <g>
        <path d="M632.25,329.16c-.09,0-.18,0-.26-.01h-.11c-1.53-.22-2.61-1.63-2.41-3.16,1.02-7.68,4.92-12.78,5.09-12.99.54-.69,1.34-1.08,2.21-1.08.62,0,1.23.21,1.72.59,1.22.95,1.44,2.71.5,3.93-.03.03-3.15,4.21-3.96,10.3-.18,1.39-1.38,2.43-2.78,2.43Z" fill="#fff34a"/>
        <path d="M636.77,313.35c.29,0,.59.09.84.29.59.46.7,1.32.24,1.91-.03.04-3.38,4.44-4.25,10.98-.09.69-.68,1.19-1.35,1.19-.04,0-.09,0-.13,0-.02,0-.04,0-.05,0-.75-.1-1.27-.79-1.17-1.53.97-7.31,4.64-12.1,4.8-12.3.27-.35.67-.53,1.08-.53M636.77,310.48c-1.32,0-2.54.6-3.35,1.64-.44.57-4.32,5.76-5.38,13.68-.31,2.32,1.33,4.45,3.64,4.76h.03s.03,0,.03,0h.11c.14.02.27.03.4.03,2.12,0,3.92-1.58,4.2-3.68.75-5.67,3.66-9.58,3.69-9.62,1.41-1.83,1.07-4.49-.77-5.92-.74-.57-1.66-.89-2.6-.89h0Z"/>
      </g>
    </g>
    <circle cx="666.47" cy="260.78" r="20.94" transform="translate(-37.32 390.65) rotate(-31.82)"/>
    <polygon points="670.5 251.9 661.39 252.93 657.72 261.33 663.17 268.71 672.28 267.69 675.95 259.28 670.5 251.9" fill="#fff"/>
  </g>
  <g>
    <rect x="46.53" y="66.09" width="240.01" height="50.05" rx="25.02" ry="25.02" fill="#fff"/>
    <rect x="46.53" y="96" width="175.97" height="50.05" rx="25.02" ry="25.02" fill="#fff"/>
    <path d="M139.62,146.33s17.37,18.11,26.89,20.47l-12.67-33.45-14.22,12.98Z" fill="#fff"/>
  </g>
  <text transform="translate(70.2 99.56)" font-family="ChalkboardSE-Bold, &apos;Chalkboard SE&apos;" font-size="24" font-weight="700"><tspan x="0" y="0">So </tspan><tspan x="36.81" y="0" letter-spacing="-.03em">y</tspan><tspan x="49.54" y="0" letter-spacing=".03em">o</tspan><tspan x="62.5" y="0">u z</tspan><tspan x="99.02" y="0" letter-spacing=".03em">o</tspan><tspan x="111.86" y="0" letter-spacing=".02em">n</tspan><tspan x="125.01" y="0" letter-spacing=".05em">e</tspan><tspan x="139.3" y="0" letter-spacing="0em">d </tspan><tspan x="163.65" y="0" letter-spacing=".03em">o</tspan><tspan x="176.61" y="0" letter-spacing="-.06em">u</tspan><tspan x="188.36" y="0">t</tspan><tspan x="0" y="28.8" letter-spacing="-.03em">a</tspan><tspan x="12.6" y="28.8" letter-spacing="-.04em">f</tspan><tspan x="22.59" y="28.8" letter-spacing="-.05em">t</tspan><tspan x="32.91" y="28.8" letter-spacing=".02em">e</tspan><tspan x="46.59" y="28.8">r th</tspan><tspan x="92.66" y="28.8" letter-spacing="-.07em">a</tspan><tspan x="104.41" y="28.8">t?</tspan></text>
  <g>
    <rect x="348.34" y="95.46" width="430.42" height="50.05" rx="22.98" ry="22.98" fill="#fff"/>
    <rect x="346.31" y="121.6" width="314.77" height="50.05" rx="25.02" ry="25.02" fill="#fff"/>
    <path d="M513.38,169.44s30.11,21.63,39.64,23.99l-12.67-33.45-26.97,9.46Z" fill="#fff"/>
  </g>
  <text transform="translate(363.25 129.33)" font-family="ChalkboardSE-Bold, &apos;Chalkboard SE&apos;" font-size="24" font-weight="700"><tspan x="0" y="0">Of </tspan><tspan x="38.8" y="0" letter-spacing="-.03em">c</tspan><tspan x="50.41" y="0" letter-spacing=".03em">o</tspan><tspan x="63.38" y="0" letter-spacing=".02em">u</tspan><tspan x="76.96" y="0" letter-spacing=".02em">r</tspan><tspan x="88.39" y="0" letter-spacing="0em">se! I </tspan><tspan x="150.65" y="0" letter-spacing="-.07em">a</tspan><tspan x="162.4" y="0" letter-spacing="-.05em">t</tspan><tspan x="172.72" y="0" letter-spacing="-.02em">e</tspan><tspan x="185.31" y="0">, pa</tspan><tspan x="229.04" y="0" letter-spacing=".04em">i</tspan><tspan x="236.42" y="0" letter-spacing="0em">d, a</tspan><tspan x="281.34" y="0" letter-spacing=".05em">n</tspan><tspan x="295.21" y="0" letter-spacing="0em">d </tspan><tspan x="319.55" y="0" letter-spacing=".02em">g</tspan><tspan x="333.29" y="0" letter-spacing="-.04em">o</tspan><tspan x="344.64" y="0">t </tspan><tspan x="366.09" y="0" letter-spacing=".03em">o</tspan><tspan x="379.06" y="0" letter-spacing="-.06em">u</tspan><tspan x="390.81" y="0" letter-spacing="-.11em">t</tspan><tspan x="399.56" y="0" letter-spacing="-.05em">.</tspan><tspan x="0" y="28.8" letter-spacing=".02em">I</tspan><tspan x="11.69" y="28.8" letter-spacing="-.09em">’</tspan><tspan x="16.87" y="28.8">m so d</tspan><tspan x="92.47" y="28.8" letter-spacing=".03em">o</tspan><tspan x="105.31" y="28.8" letter-spacing=".02em">n</tspan><tspan x="118.46" y="28.8" letter-spacing="0em">e </tspan><tspan x="141.56" y="28.8" letter-spacing=".04em">w</tspan><tspan x="160.31" y="28.8" letter-spacing="-.07em">i</tspan><tspan x="165.08" y="28.8">th d</tspan><tspan x="214.51" y="28.8" letter-spacing="-.07em">a</tspan><tspan x="226.26" y="28.8" letter-spacing="0em">t</tspan><tspan x="237.9" y="28.8">i</tspan><tspan x="244.42" y="28.8" letter-spacing=".02em">n</tspan><tspan x="257.58" y="28.8" letter-spacing="-.04em">g</tspan><tspan x="269.83" y="28.8">! </tspan></text>
  <path d="M179.48,199.72s-39.01,185.55,89.61,241.42c0,0-5.97,4.22-25.3,5.27,0,0,8.43,83.99,68.17,108.94H32.6V199.72h146.87Z" fill="#2b3751" opacity=".4"/>
  <rect x="1.85" y=".49" width="796.88" height="549.02" fill="none" stroke="#2e4270" stroke-linecap="round" stroke-miterlimit="10" stroke-width="2.69"/>
  <path d="M743.8,359.24c-12.6,74.8-91.96,116.85-160.93,96.78-69.82-20.32-76.88-96.04-49.27-170.27,27.6-74.24,84.1-112.66,152.28-87.31,68.18,25.35,71.1,82.58,57.93,160.8Z" fill="#fff34a" opacity=".2"/>
</svg>