<?xml version="1.0" encoding="UTF-8"?>
<svg id="Layer_1" data-name="Layer 1" xmlns="http://www.w3.org/2000/svg" width="800" height="550" viewBox="0 0 800 550">
  <rect x="-7.81" y="-5.67" width="814.41" height="565.59" fill="#2b3751"/>
  <path d="M135.35,377.07s-81.6,42.07-82.23,182.46h351.32s-31.12-97.78-36.16-141l-232.92-41.46Z" fill="#fff" stroke="#221a38" stroke-linecap="round" stroke-miterlimit="10" stroke-width="4.05"/>
  <path d="M447.8,257.28s-27.28-8.79-45.15,59.6c-17.87,68.39,11.74,83.47,39.16,87.01,30.99,4.01,49.43-34.82,48.38-70.39-1.94-65.47-42.39-76.23-42.39-76.23Z" fill="#e293e2" stroke="#221a38" stroke-linecap="round" stroke-miterlimit="10" stroke-width="6.14"/>
  <path d="M221.68,146.69s-90.23,9.56-111.81,109.94c-21.58,100.38,34.82,187.62,175.35,194.82,145.37,7.46,201.16-101.19,177.41-182.42-23.98-82.03-116.52-145.72-240.95-122.35Z" fill="#fff" stroke="#221a38" stroke-linecap="round" stroke-miterlimit="10" stroke-width="4.05"/>
  <path d="M393.5,242.99c-20.57,3.29-31.56,26.21-31.56,26.21,0,0-2.11,4.05-4.52,10.38-10.11-2.44-21.56-2.71-24.01,7.55-2.37,9.9,5.56,16.25,17.29,20.03-.79,8.95,0,18.22,3.99,26.27,10.58,21.39,56.36,30.31,71.6-16.27,8.54-26.12,8.85-45.87,1.43-58.56" fill="#fff" stroke="#221a38" stroke-linecap="round" stroke-miterlimit="10" stroke-width="4.88"/>
  <path d="M298.98,307.17s-54.05.81-67.16,39.4c-13.11,38.59.83,83.91,69.38,86.86,68.55,2.94,74.79-45.43,71.46-71.96-3.33-26.53-29.02-58.52-73.68-54.3Z" fill="#e293e2" stroke="#221a38" stroke-linecap="round" stroke-miterlimit="10" stroke-width="5.91"/>
  <path d="M300.42,326.7s26.32-4.1,26.83,10.85c.52,14.96-23.82,12.7-23.82,12.7" fill="none" stroke="#221a38" stroke-linecap="round" stroke-miterlimit="10" stroke-width="6.09"/>
  <path d="M144.07,194.33s-30.67-24.67-75.41,49.83c-21.58,35.93-19.81,88.42,12.84,103.25,34.72,15.76,50.15-3.63,69.69-54.15,28.87-74.62-7.13-98.93-7.13-98.93Z" fill="#e293e2" stroke="#221a38" stroke-linecap="round" stroke-miterlimit="10" stroke-width="6.14"/>
  <path d="M197.6,220.5c-10.54,8.12-19.42,22.5-24.74,44.55-11.53,47.81,30.13,69.48,50.84,59.67,11.72-5.55,19.37-18.01,24.2-29.7,14.97,3.27,27.64,1.91,29.06-9.93,1.34-11.13-10.65-15.76-21.3-17.69,1-5.53,3.68-34.09-9.69-47.16" fill="none" stroke="#221a38" stroke-linecap="round" stroke-miterlimit="10" stroke-width="4.88"/>
  <path d="M319.86,377.49s-18,2.72-34.44-1.57c0,0-3.1,12.24,13.76,13.71,16.85,1.47,19.44-4.05,20.68-12.14Z"/>
  <path d="M384.92,287.13s-9.87,2.08-11.26,13.72c-1.39,11.63-2.68,26.26,7.58,29.21,10.26,2.95,12.88-8.45,15.22-21.88,2.34-13.43-1.06-23.01-11.54-21.04Z"/>
  <path d="M211.42,262.66s-9.87,2.08-11.26,13.72c-1.39,11.63-2.68,26.26,7.58,29.21,10.26,2.95,12.88-8.45,15.22-21.88,2.34-13.43-1.06-23.01-11.54-21.04Z"/>
  <path d="M265.49,216.39s-45.6,10.01-80.08,1.11" fill="none" stroke="#221a38" stroke-linecap="round" stroke-miterlimit="10" stroke-width="4.88"/>
  <path d="M384.08,234.25s24.14,24.77,51.45,24.77" fill="none" stroke="#221a38" stroke-linecap="round" stroke-miterlimit="10" stroke-width="4.88"/>
  <path d="M121.25,459.17s-16.2,42.94-15.36,90.04" fill="none" stroke="#221a38" stroke-linecap="round" stroke-miterlimit="10" stroke-width="4.05"/>
  <g>
    <rect x="468.24" y="121.01" width="281.88" height="49.76" rx="24.88" ry="24.88" fill="#fff"/>
    <rect x="468.24" y="152.73" width="151.81" height="49.76" rx="24.88" ry="24.88" fill="#fff"/>
    <path d="M493.21,198.1s-17.27,18-26.74,20.35l12.6-33.26,14.14,12.91Z" fill="#fff"/>
  </g>
  <text transform="translate(486.31 156.04)" font-family="ChalkboardSE-Bold, &apos;Chalkboard SE&apos;" font-size="24" font-weight="700"><tspan x="0" y="0">I ki</tspan><tspan x="40.84" y="0" letter-spacing=".05em">n</tspan><tspan x="54.71" y="0" letter-spacing="0em">d of wa</tspan><tspan x="143.33" y="0" letter-spacing="-.04em">n</tspan><tspan x="155.21" y="0">t </tspan><tspan x="176.67" y="0" letter-spacing="-.04em">t</tspan><tspan x="187.12" y="0" letter-spacing="0em">o t</tspan><tspan x="220.8" y="0" letter-spacing=".04em">r</tspan><tspan x="232.7" y="0" letter-spacing="0em">y </tspan><tspan x="0" y="28.8">d</tspan><tspan x="14.4" y="28.8" letter-spacing="-.07em">a</tspan><tspan x="26.15" y="28.8" letter-spacing="0em">t</tspan><tspan x="37.79" y="28.8" letter-spacing="0em">i</tspan><tspan x="44.31" y="28.8" letter-spacing=".02em">n</tspan><tspan x="57.47" y="28.8">g </tspan><tspan x="80.59" y="28.8" letter-spacing="-.04em">t</tspan><tspan x="91.04" y="28.8" letter-spacing=".04em">o</tspan><tspan x="104.19" y="28.8">o</tspan></text>
  <path d="M285.02,135.02s69.52,173.11,1.12,314.95c0,0,21.15,2.53,42.61.56,19.26-1.76,19.97-5.36,22.71-3.08,3.36,2.8,30.82,90.35,40.78,111.92H37.21V139.38l247.81-4.35Z" fill="#2b3751" opacity=".4"/>
  <rect x="1.56" y=".49" width="796.88" height="549.02" fill="none" stroke="#2e4270" stroke-linecap="round" stroke-miterlimit="10" stroke-width="2.69"/>
</svg>