<?xml version="1.0" encoding="UTF-8"?>
<svg id="Layer_1" data-name="Layer 1" xmlns="http://www.w3.org/2000/svg" width="600" height="360" viewBox="0 0 600 360">
  <rect x="-5.81" y="-3.54" width="611.62" height="367.08" fill="#1d253a"/>
  <path d="M390.17,24.88s-23.47-2.18-42.58,5.46c-19.11,7.64-62.24,36.03-72.61,55.68-10.37,19.65-40.4,72.61-18.02,117.37,22.38,44.77,64.96,80.25,93.9,86.8,28.93,6.55,69.33,9.28,100.45,3.28,31.12-6.01,74.79-41.49,80.25-51.86,5.46-10.37,42.58-62.78,18.56-117.37-24.02-54.59-43.67-74.79-84.62-86.26-40.94-11.46-32.76-10.92-75.34-13.1Z" fill="#050507"/>
  <path d="M448.34,287.89s-5-1.05-9.47,2.26c-4.47,3.32-8.74,10.89-8.74,10.89,0,0-1.47-3.63-3.68-5s-3.53-3.05-6.05-2.58c-2.53.47-4.84,4.26-5.68,10.68v2.68l-4.42,14.89s-2.53-1.58-4.74-1.21c-2.21.37-4.89,3.11-3.37,6.84,1.53,3.74,9.42,7.68,11.89,5.84,2.47-1.84,5.63-9.21,5.63-9.21,0,0,.79,2.63,4.84,2.32,0,0,4.11,17.58,25.21,23.26,0,0,9.42,1.68,25.79-3.37,16.37-5.05,14.89-24.95,14.89-24.95,0,0,8.16.84,9.11-9.11.95-9.95.63-18.74-3.53-22.79-4.16-4.05-10.32-7.21-10.32-7.21l-37.37,5.74Z" fill="#fff"/>
  <path d="M490.89,249.02s1.76-4.71,5.74-3.6c4.09,1.14,16.93,23.32,2.56,24.91-13.77,1.53-8.3-21.31-8.3-21.31Z" fill="#e293e2" stroke="#000" stroke-linecap="round" stroke-miterlimit="10" stroke-width="2.5"/>
  <g>
    <path d="M459.76,290.02c-15.28,0-33.95-4.42-36.11-25.46-1-9.74,1.33-18.16,6.93-25.03,7.87-9.66,20.48-14.08,28.89-14.93h.1s1.26-.27,3.29-.27c19.08,0,28.55,18.08,31.74,25.86,3.87,9.44,3.64,17.64-.67,24.38-6.92,10.81-22.6,15.03-28.69,15.3l-.39.02c-1.27.06-3.02.13-5.09.13Z" fill="#fff"/>
    <path d="M462.86,225.33h0c3.43,0,8.7.71,14.29,4.08,6.92,4.17,12.47,11.29,16.52,21.16,3.74,9.12,3.54,17.01-.58,23.46-6.71,10.49-21.96,14.58-27.89,14.84l-.39.02c-1.26.06-2.99.13-5.04.13-8.54,0-15.69-1.36-21.25-4.05-8.21-3.97-12.88-10.87-13.87-20.51-.97-9.46,1.28-17.64,6.71-24.29,7.68-9.42,20-13.73,28.21-14.56h.1s.09-.03.09-.03c.01,0,1.19-.23,3.1-.23M462.86,223.33c-2.18,0-3.49.27-3.49.27-14.05,1.42-39.63,12.63-36.71,41.05,2.45,23.81,25.14,26.36,37.11,26.36,2.32,0,4.24-.1,5.52-.15,9.08-.39,42.95-10.03,30.24-41.05-9.7-23.68-25.65-26.48-32.67-26.48h0Z"/>
  </g>
  <path d="M427.08,248.95s-6.79-2.13-11.84,10.18,3.32,19.26,9.47,16.97c6.16-2.29,10.11-24.08,2.37-27.16Z" fill="#e293e2" stroke="#000" stroke-linecap="round" stroke-miterlimit="10" stroke-width="2.5"/>
  <path d="M487.5,283.1s12,4.21,12.32,16.53c.32,12.32.32,21.47-9.26,22.11" fill="none" stroke="#000" stroke-linecap="round" stroke-miterlimit="10" stroke-width="1.99"/>
  <path d="M489.92,301.74s.32,19.68.63,23.89c.32,4.21-3.79,18.74-18.11,21.68-14.32,2.95-33.47,8.95-48.21-21.37" fill="none" stroke="#000" stroke-linecap="round" stroke-miterlimit="10" stroke-width="1.99"/>
  <path d="M444.06,288.11s-5.4-.16-10.77,8.26c-5.37,8.42-9.16,14.11-9.16,14.11" fill="none" stroke="#000" stroke-linecap="round" stroke-miterlimit="10" stroke-width="1.99"/>
  <path d="M425.71,307.95s-1.06-5.97.05-7.45c1.11-1.48,2.96-3.08,1.76-4.28-.43-.43-1.82-1.13-4.71,2.56" fill="none" stroke="#000" stroke-linecap="round" stroke-miterlimit="10" stroke-width="1.99"/>
  <path d="M425.83,295.53s.07-1.87-1.64-1.45c-1.95.49-3.91,2.87-3.91,2.87" fill="none" stroke="#000" stroke-linecap="round" stroke-miterlimit="10" stroke-width="1.99"/>
  <path d="M422.75,294.52s-.41-1.9-2.88-1.05c-2.47.85-4.92,5.51-5.26,8.51s1.6,15.61,3.77,20.29,6.22,4.18,8.49,2.31c2.27-1.87,15.36-14.76,17.01-18.55" fill="none" stroke="#000" stroke-linecap="round" stroke-miterlimit="10" stroke-width="1.99"/>
  <path d="M414.55,305.79c-1.97,5.8-3.51,12.4-4.28,15.99-.36,1.66-1.07,2.44-1.07,2.44" fill="none" stroke="#000" stroke-linecap="round" stroke-miterlimit="10" stroke-width="1.99"/>
  <path d="M430.06,301.28c-.28-.7-.98-2.27-2.15-3.73" fill="none" stroke="#000" stroke-linecap="round" stroke-miterlimit="10" stroke-width="1.99"/>
  <path d="M409.98,321.85s-1.74-1.86-4.46-1.14c-2.72.71-5.37,4.3-2.13,8.45,3.24,4.14,8.64,4.58,10.18,4.18,2.13-.55,6.16-8.8,6.16-8.8" fill="none" stroke="#000" stroke-linecap="round" stroke-miterlimit="10" stroke-width="1.99"/>
  <ellipse cx="324.66" cy="68.28" rx="3.82" ry="4.09" fill="#6994ff"/>
  <ellipse cx="443.67" cy="48.09" rx="3.82" ry="4.09" fill="#6994ff"/>
  <ellipse cx="490.81" cy="49.59" rx="3.82" ry="4.09" fill="#6994ff"/>
  <ellipse cx="527.2" cy="103.22" rx="3.82" ry="4.09" fill="#6994ff"/>
  <ellipse cx="393.99" cy="114.96" rx="3.82" ry="4.09" fill="#6994ff"/>
  <ellipse cx="270.62" cy="155.36" rx="3.82" ry="4.09" fill="#6994ff"/>
  <text transform="translate(23 220)" fill="#fff" font-family="ChalkboardSE-Bold, &apos;Chalkboard SE&apos;" font-size="24" font-weight="700"><tspan x="0" y="0" letter-spacing="0em">b</tspan><tspan x="13.98" y="0" letter-spacing="-.06em">u</tspan><tspan x="25.72" y="0">t th</tspan><tspan x="72.26" y="0" letter-spacing=".02em">e</tspan><tspan x="85.95" y="0" letter-spacing="-.02em">r</tspan><tspan x="96.45" y="0">e</tspan><tspan x="109.6" y="0" letter-spacing="-.19em">’</tspan><tspan x="112.25" y="0">s </tspan><tspan x="0" y="28.8" letter-spacing=".02em">n</tspan><tspan x="13.34" y="28.8">o </tspan><tspan x="35.51" y="28.8" letter-spacing=".03em">o</tspan><tspan x="48.34" y="28.8" letter-spacing=".02em">n</tspan><tspan x="61.5" y="28.8">e </tspan><tspan x="84.59" y="28.8" letter-spacing="-.01em">ar</tspan><tspan x="108.33" y="28.8" letter-spacing=".03em">o</tspan><tspan x="121.3" y="28.8" letter-spacing=".01em">u</tspan><tspan x="134.85" y="28.8" letter-spacing=".05em">n</tspan><tspan x="148.72" y="28.8">d h</tspan><tspan x="186.64" y="28.8" letter-spacing=".02em">e</tspan><tspan x="200.32" y="28.8" letter-spacing="-.02em">r</tspan><tspan x="210.82" y="28.8">e</tspan></text>
  <path d="M492.53,248.12c6.42,13.05-2.38,28.55-16.52,33.22-14.32,4.73-24.21-6.23-27.99-20.89-3.78-14.65,1.51-27.01,16.12-30.77s21.68,4.8,28.39,18.44Z" fill="#fff34a" opacity=".2"/>
  <path d="M492.33,320.66c-1.52,14.41-16.01,23.43-29.26,20.48-13.41-2.98-15.61-17.31-11.25-31.8,4.36-14.49,14.58-22.53,27.73-18.57,13.16,3.96,14.36,14.82,12.77,29.89Z" fill="#fff34a" opacity=".2"/>
  <path d="M454.38,301.61c4.58-10.74,10.58-12,10.58-12-17.05-5.21-20.13-36.79-14.05-48.79,6.08-12,25.11-12.63,25.11-12.63l-11.84-4.42-14.53,2.37-10.42,5.84s-6.35,4.25-9.47,9c-1.87,2.85-1.88,7.18-3.47,6.95-4.26-.63-12.16,11.37-12.16,11.37,0,0-3.79,9.16,1.89,14.53,5.68,5.37,11.53,1.26,11.53,1.26l5.37,7.89,11.53,5.21-7.58,3.32-6.79,10.11-4.89-7.74-7.74.32-3.32,10.42-3.63,16.89-5.84-.79-3,5.53,4.42,5.53,8.05,2.21,5.84-9.16,5.21,1.26s1.42,5.68,5.37,11.37c3.95,5.68,17.53,12.32,17.53,12.32,0,0,6,1.11,12.16.16,6.16-.95,6.95-2.68,6.95-2.68-28.74-3.16-15.54-39.18-12.79-45.63ZM430.81,264.7c-2.98,13.92-10.22,10.22-10.22,10.22,8.25-11.25,4.89-25.42,4.89-25.42,0,0,8.64-.28,5.33,15.2Z" fill="#2b3751" opacity=".4"/>
  <path d="M479.8,286.4s16.84-1.47,19.37,29.26c0,0,7.58-29.05-13.26-33.68l-6.11,4.42Z" fill="#2b3751" opacity=".4"/>
</svg>