<?xml version="1.0" encoding="UTF-8"?>
<svg id="Layer_1" data-name="Layer 1" xmlns="http://www.w3.org/2000/svg" width="600" height="360" viewBox="0 0 600 360">
  <rect x="-5.81" y="-3.54" width="611.62" height="367.08" fill="#1d253a"/>
  <path d="M390.17,24.88s-23.47-2.18-42.58,5.46c-19.11,7.64-62.24,36.03-72.61,55.68-10.37,19.65-40.4,72.61-18.02,117.37,22.38,44.77,64.96,80.25,93.9,86.8,28.93,6.55,69.33,9.28,100.45,3.28,31.12-6.01,74.79-41.49,80.25-51.86,5.46-10.37,42.58-62.78,18.56-117.37-24.02-54.59-43.67-74.79-84.62-86.26-40.94-11.46-32.76-10.92-75.34-13.1Z" fill="#050507"/>
  <path d="M448.34,287.89s-5-1.05-9.47,2.26c-4.47,3.32-8.74,10.89-8.74,10.89,0,0-1.47-3.63-3.68-5s-3.53-3.05-6.05-2.58c-2.53.47-4.84,4.26-5.68,10.68v2.68l-4.42,14.89s-2.53-1.58-4.74-1.21c-2.21.37-4.89,3.11-3.37,6.84,1.53,3.74,9.42,7.68,11.89,5.84,2.47-1.84,5.63-9.21,5.63-9.21,0,0,.79,2.63,4.84,2.32,0,0,4.11,17.58,25.21,23.26,0,0,9.42,1.68,25.79-3.37,16.37-5.05,14.89-24.95,14.89-24.95,0,0,8.16.84,9.11-9.11.95-9.95.63-18.74-3.53-22.79-4.16-4.05-10.32-7.21-10.32-7.21l-37.37,5.74Z" fill="#fff"/>
  <path d="M490.89,249.02s1.76-4.71,5.74-3.6c4.09,1.14,16.93,23.32,2.56,24.91-13.77,1.53-8.3-21.31-8.3-21.31Z" fill="#e293e2" stroke="#000" stroke-linecap="round" stroke-miterlimit="10" stroke-width="2.5"/>
  <g>
    <path d="M459.76,290.02c-15.28,0-33.95-4.42-36.11-25.46-1-9.74,1.33-18.16,6.93-25.03,7.87-9.66,20.48-14.08,28.89-14.93h.1s1.26-.27,3.29-.27c19.08,0,28.55,18.08,31.74,25.86,3.87,9.44,3.64,17.64-.67,24.38-6.92,10.81-22.6,15.03-28.69,15.3l-.39.02c-1.27.06-3.02.13-5.09.13Z" fill="#fff"/>
    <path d="M462.86,225.33h0c3.43,0,8.7.71,14.29,4.08,6.92,4.17,12.47,11.29,16.52,21.16,3.74,9.12,3.54,17.01-.58,23.46-6.71,10.49-21.96,14.58-27.89,14.84l-.39.02c-1.26.06-2.99.13-5.04.13-8.54,0-15.69-1.36-21.25-4.05-8.21-3.97-12.88-10.87-13.87-20.51-.97-9.46,1.28-17.64,6.71-24.29,7.68-9.42,20-13.73,28.21-14.56h.1s.09-.03.09-.03c.01,0,1.19-.23,3.1-.23M462.86,223.33c-2.18,0-3.49.27-3.49.27-14.05,1.42-39.63,12.63-36.71,41.05,2.45,23.81,25.14,26.36,37.11,26.36,2.32,0,4.24-.1,5.52-.15,9.08-.39,42.95-10.03,30.24-41.05-9.7-23.68-25.65-26.48-32.67-26.48h0Z"/>
  </g>
  <path d="M427.08,248.95s-6.79-2.13-11.84,10.18,3.32,19.26,9.47,16.97c6.16-2.29,10.11-24.08,2.37-27.16Z" fill="#e293e2" stroke="#000" stroke-linecap="round" stroke-miterlimit="10" stroke-width="2.5"/>
  <path d="M487.5,283.1s12,4.21,12.32,16.53c.32,12.32.32,21.47-9.26,22.11" fill="none" stroke="#000" stroke-linecap="round" stroke-miterlimit="10" stroke-width="1.99"/>
  <path d="M489.92,301.74s.32,19.68.63,23.89c.32,4.21-3.79,18.74-18.11,21.68-14.32,2.95-33.47,8.95-48.21-21.37" fill="none" stroke="#000" stroke-linecap="round" stroke-miterlimit="10" stroke-width="1.99"/>
  <path d="M444.06,288.11s-5.4-.16-10.77,8.26c-5.37,8.42-9.16,14.11-9.16,14.11" fill="none" stroke="#000" stroke-linecap="round" stroke-miterlimit="10" stroke-width="1.99"/>
  <path d="M425.71,307.95s-1.06-5.97.05-7.45c1.11-1.48,2.96-3.08,1.76-4.28-.43-.43-1.82-1.13-4.71,2.56" fill="none" stroke="#000" stroke-linecap="round" stroke-miterlimit="10" stroke-width="1.99"/>
  <path d="M425.83,295.53s.07-1.87-1.64-1.45c-1.95.49-3.91,2.87-3.91,2.87" fill="none" stroke="#000" stroke-linecap="round" stroke-miterlimit="10" stroke-width="1.99"/>
  <path d="M422.75,294.52s-.41-1.9-2.88-1.05c-2.47.85-4.92,5.51-5.26,8.51s1.6,15.61,3.77,20.29,6.22,4.18,8.49,2.31c2.27-1.87,15.36-14.76,17.01-18.55" fill="none" stroke="#000" stroke-linecap="round" stroke-miterlimit="10" stroke-width="1.99"/>
  <path d="M414.55,305.79c-1.97,5.8-3.51,12.4-4.28,15.99-.36,1.66-1.07,2.44-1.07,2.44" fill="none" stroke="#000" stroke-linecap="round" stroke-miterlimit="10" stroke-width="1.99"/>
  <path d="M430.06,301.28c-.28-.7-.98-2.27-2.15-3.73" fill="none" stroke="#000" stroke-linecap="round" stroke-miterlimit="10" stroke-width="1.99"/>
  <path d="M409.98,321.85s-1.74-1.86-4.46-1.14c-2.72.71-5.37,4.3-2.13,8.45,3.24,4.14,8.64,4.58,10.18,4.18,2.13-.55,6.16-8.8,6.16-8.8" fill="none" stroke="#000" stroke-linecap="round" stroke-miterlimit="10" stroke-width="1.99"/>
  <ellipse cx="324.66" cy="68.28" rx="3.82" ry="4.09" fill="#6994ff"/>
  <ellipse cx="443.67" cy="48.09" rx="3.82" ry="4.09" fill="#6994ff"/>
  <ellipse cx="490.81" cy="49.59" rx="3.82" ry="4.09" fill="#6994ff"/>
  <ellipse cx="527.2" cy="103.22" rx="3.82" ry="4.09" fill="#6994ff"/>
  <ellipse cx="393.99" cy="114.96" rx="3.82" ry="4.09" fill="#6994ff"/>
  <ellipse cx="270.62" cy="155.36" rx="3.82" ry="4.09" fill="#6994ff"/>
  <g>
    <path d="M29.65,220.69c-.51.02-1-.02-1.47-.11-.47-.09-.93-.24-1.39-.45-.23.12-.46.19-.68.19s-.42-.04-.61-.11c-.19-.07-.34-.15-.48-.25-.13-.1-.23-.17-.28-.23-.19-.28-.31-.6-.34-.95-.04-.35.08-.69.34-1.01v-13.63c0-.41.14-.75.42-1.02.28-.27.61-.45.98-.52s.73,0,1.07.19.58.55.7,1.06c.07.32.13.63.17.94.04.31.07.67.08,1.07,0,.41,0,.88,0,1.41,0,.53-.03,1.18-.07,1.96.16-.09.32-.17.49-.25.17-.08.34-.16.52-.25.49-.23,1.03-.37,1.59-.42.57-.05,1.12-.02,1.66.09.54.12,1.04.33,1.51.64.47.31.85.71,1.15,1.21.42.71.71,1.53.86,2.48.15.95.15,1.88,0,2.81-.15.93-.46,1.79-.93,2.59-.47.8-1.13,1.39-1.98,1.78-.53.25-1.07.44-1.63.57-.56.13-1.13.21-1.71.23ZM27.98,213.9v3.18s.07.06.11.08c.04.02.07.04.11.08,1.59.53,2.97.17,4.14-1.09.27-.71.39-1.37.38-2,0-.63-.13-1.3-.36-2.03-.09-.21-.23-.35-.44-.41s-.38-.14-.54-.23c-.28-.05-.59,0-.92.16s-.64.36-.94.6c-.3.24-.57.5-.82.78-.25.28-.44.52-.58.72l-.13.16Z" fill="#fff"/>
    <path d="M49.6,217.93c.16.23.25.5.28.81.03.31,0,.6-.11.88-.1.27-.26.5-.48.68-.22.18-.51.26-.86.24-.46-.04-.83-.19-1.11-.48-.28-.28-.55-.6-.8-.95-.69.57-1.4.96-2.13,1.18-.73.22-1.45.27-2.16.15-.71-.12-1.37-.42-1.99-.89-.62-.47-1.14-1.1-1.56-1.9-.39-.74-.61-1.56-.65-2.47-.04-.9-.06-1.76-.04-2.57,0-.28,0-.56.03-.84.02-.27.04-.56.05-.86.02-.23.03-.45.03-.68s.01-.43.04-.62.08-.39.16-.58c.08-.19.2-.38.36-.56.21-.23.47-.37.77-.41.3-.04.59-.01.86.09.27.11.51.27.72.49.2.22.31.49.33.81.04.9.01,1.81-.07,2.73-.08.92-.08,1.82.01,2.71.04.42.15.86.33,1.3.19.44.48.76.89.95.41.18.82.16,1.23-.04.42-.2.76-.45,1.02-.73.12-.14.24-.3.36-.46.11-.17.24-.31.38-.44-.07-.62-.12-1.24-.13-1.86-.02-.62-.02-1.24,0-1.86,0-.34.01-.7.04-1.1.03-.4.1-.78.21-1.14.11-.36.29-.68.52-.96.23-.27.56-.45.98-.52.19-.04.38-.02.57.05.19.07.35.17.49.29.25.21.42.45.5.72.09.27.13.55.13.85s-.02.61-.07.92c-.04.31-.08.6-.09.86-.04.5-.06,1.02-.08,1.56-.02.55,0,1.1.05,1.64.05.55.15,1.08.3,1.59.15.51.38.98.68,1.41Z" fill="#fff"/>
    <path d="M51.9,211.16c-.35-.09-.66-.24-.91-.45-.26-.21-.43-.46-.53-.74-.1-.28-.1-.57,0-.88.1-.3.31-.57.65-.82.28-.21.6-.32.95-.32h1.03c0-.12,0-.39-.03-.81-.02-.42-.02-.87-.01-1.37,0-.49.04-.97.09-1.42.05-.45.15-.76.29-.94.35-.49.79-.73,1.31-.7.52.03.95.28,1.29.76.07.09.14.19.2.32s.09.24.09.34c.02.64.02,1.27.01,1.91,0,.64-.01,1.27-.01,1.91h2.09c.32,0,.59.11.82.32.23.21.39.46.49.74.1.28.12.57.08.88-.04.3-.18.55-.41.74-.41.34-.88.51-1.42.53-.54.02-1.09.03-1.66.03,0,.97,0,1.95-.01,2.92,0,.97,0,1.94.01,2.92,0,.42.02.86.07,1.3.04.44.01.87-.09,1.27-.09.32-.24.57-.45.76-.21.19-.45.3-.72.35-.27.04-.54.03-.82-.05-.28-.08-.55-.23-.8-.44-.12-.12-.22-.34-.28-.64-.06-.3-.1-.62-.12-.95-.02-.39-.02-.8,0-1.25v-1.38c0-.57,0-1.15-.01-1.76,0-.61-.01-1.19-.01-1.74v-1.3l-1.19-.03Z" fill="#fff"/>
    <path d="M73.36,211.16c-.35-.09-.66-.24-.92-.45-.26-.21-.43-.46-.53-.74-.1-.28-.1-.57,0-.88.1-.3.31-.57.65-.82.28-.21.6-.32.95-.32h1.03c0-.12,0-.39-.03-.81-.02-.42-.02-.87-.01-1.37,0-.49.04-.97.09-1.42.05-.45.15-.76.29-.94.35-.49.79-.73,1.31-.7s.95.28,1.29.76c.07.09.14.19.2.32.06.12.09.24.09.34.02.64.02,1.27.01,1.91,0,.64-.01,1.27-.01,1.91h2.09c.32,0,.59.11.82.32.23.21.39.46.49.74.1.28.12.57.08.88-.04.3-.18.55-.41.74-.41.34-.88.51-1.42.53-.54.02-1.09.03-1.66.03,0,.97,0,1.95-.01,2.92,0,.97,0,1.94.01,2.92,0,.42.02.86.07,1.3.04.44.01.87-.09,1.27-.09.32-.24.57-.45.76-.21.19-.45.3-.72.35-.27.04-.54.03-.82-.05-.28-.08-.55-.23-.8-.44-.12-.12-.22-.34-.28-.64-.06-.3-.1-.62-.12-.95-.02-.39-.02-.8,0-1.25v-1.38c0-.57,0-1.15-.01-1.76,0-.61-.01-1.19-.01-1.74v-1.3l-1.19-.03Z" fill="#fff"/>
    <path d="M85.66,220.54c-.35.26-.72.38-1.1.36-.38-.02-.72-.17-1.01-.46-.29-.29-.44-.69-.44-1.21v-14.74c0-.41.16-.75.48-1.03.32-.28.67-.46,1.06-.53.39-.07.75,0,1.09.19.34.19.52.56.56,1.09.07.92.1,1.82.09,2.69,0,.88-.02,1.75-.04,2.64.65-.44,1.33-.74,2.04-.89.71-.15,1.39-.15,2.04.01.65.16,1.26.48,1.83.96.57.48,1.03,1.14,1.38,1.99.25.57.42,1.17.5,1.82.09.65.14,1.3.15,1.96,0,.66,0,1.32-.03,1.98-.03.65-.04,1.27-.04,1.86,0,.37-.1.71-.29,1.01-.19.3-.44.52-.73.66-.29.14-.6.19-.93.13-.33-.05-.62-.25-.89-.58-.27-.35-.43-.77-.49-1.25-.06-.48-.08-.99-.05-1.52.03-.54.07-1.09.12-1.66.05-.57.07-1.11.04-1.63-.03-.52-.13-1-.31-1.45s-.49-.8-.93-1.09c-.35-.05-.67-.03-.95.07-.28.1-.54.24-.77.44-.23.19-.45.42-.65.66-.2.25-.41.5-.62.74-.05.09-.12.17-.19.25-.07.08-.15.16-.24.25v5.04c-.11.58-.34,1-.69,1.26Z" fill="#fff"/>
    <path d="M106.03,216.44c.42-.11.8-.11,1.13-.01.33.1.58.26.76.49.18.23.26.51.24.85-.02.34-.17.69-.45,1.06-.23.3-.55.56-.95.77-.41.21-.79.38-1.14.5-.87.32-1.69.54-2.47.66-.78.12-1.51.12-2.19,0-.68-.12-1.32-.38-1.91-.77-.59-.39-1.15-.94-1.66-1.64-.35-.48-.61-1.02-.78-1.63-.17-.61-.26-1.23-.28-1.87-.02-.64.04-1.26.16-1.88.12-.62.3-1.18.53-1.67.3-.62.78-1.18,1.43-1.7.65-.51,1.38-.92,2.17-1.22.8-.3,1.61-.47,2.44-.52.83-.04,1.56.08,2.2.38.53.25.99.61,1.37,1.07.38.47.64.98.78,1.52.14.55.15,1.1.04,1.66-.12.56-.4,1.07-.86,1.52-.44.44-.93.8-1.46,1.07-.53.27-1.08.51-1.64.72-.57.2-1.15.38-1.74.52-.59.14-1.16.3-1.71.48.37.42.8.69,1.27.81.48.12.98.14,1.5.07.52-.07,1.05-.22,1.58-.44.53-.22,1.03-.46,1.49-.73l.16-.08ZM100.67,211.88c-.41.23-.71.52-.9.86-.19.34-.34.83-.42,1.45.46-.14.98-.29,1.55-.45.57-.16,1.12-.33,1.63-.5.51-.18.95-.37,1.3-.58.35-.21.53-.44.53-.69,0-.14-.02-.28-.07-.41-.04-.13-.14-.23-.28-.28-.5-.18-1.01-.21-1.54-.11-.53.11-.97.26-1.33.45l-.48.26Z" fill="#fff"/>
    <path d="M110.88,211.81c.02-.11,0-.32-.03-.62-.28-.16-.5-.36-.66-.61-.16-.25-.25-.51-.28-.8-.03-.28.03-.55.16-.81s.35-.47.65-.65c.41-.23.85-.27,1.34-.13s.91.35,1.26.64c.44-.34.9-.62,1.38-.85.48-.23.96-.38,1.46-.46.49-.08,1-.07,1.51.04.51.11,1.02.33,1.51.66.25.16.48.36.69.6.21.24.34.51.4.81.09.44.05.83-.11,1.15-.16.33-.38.57-.66.72-.28.15-.6.19-.95.13-.35-.06-.69-.25-1.01-.57-.11-.07-.18-.13-.23-.17-.04-.04-.14-.1-.28-.17-.28-.07-.56-.05-.84.05-.27.11-.54.25-.8.44-.26.19-.5.39-.72.61-.22.22-.42.42-.6.6v6.76c0,.27-.05.52-.16.77-.16.41-.41.69-.76.85-.34.16-.69.2-1.03.13-.34-.07-.65-.25-.9-.53-.26-.28-.38-.64-.38-1.09v-7.43c0,.07,0,.05.03-.07Z" fill="#fff"/>
    <path d="M130.21,216.44c.42-.11.8-.11,1.13-.01.33.1.58.26.76.49.18.23.26.51.24.85s-.17.69-.45,1.06c-.23.3-.55.56-.95.77-.41.21-.79.38-1.14.5-.87.32-1.69.54-2.47.66-.78.12-1.51.12-2.19,0-.68-.12-1.32-.38-1.91-.77s-1.14-.94-1.66-1.64c-.35-.48-.61-1.02-.78-1.63-.17-.61-.26-1.23-.28-1.87-.02-.64.04-1.26.16-1.88.12-.62.3-1.18.53-1.67.3-.62.78-1.18,1.43-1.7.65-.51,1.38-.92,2.17-1.22.8-.3,1.61-.47,2.44-.52.83-.04,1.56.08,2.2.38.53.25.99.61,1.37,1.07.38.47.64.98.78,1.52.14.55.15,1.1.04,1.66-.12.56-.4,1.07-.86,1.52s-.93.8-1.46,1.07c-.53.27-1.08.51-1.64.72s-1.14.38-1.74.52c-.59.14-1.16.3-1.71.48.37.42.8.69,1.27.81.48.12.98.14,1.5.07.52-.07,1.05-.22,1.58-.44.53-.22,1.03-.46,1.49-.73l.16-.08ZM124.86,211.88c-.41.23-.71.52-.9.86-.19.34-.34.83-.42,1.45.46-.14.98-.29,1.55-.45.57-.16,1.12-.33,1.63-.5.51-.18.95-.37,1.3-.58.35-.21.53-.44.53-.69,0-.14-.02-.28-.07-.41-.04-.13-.14-.23-.28-.28-.5-.18-1.01-.21-1.54-.11-.53.11-.97.26-1.33.45l-.48.26Z" fill="#fff"/>
    <path d="M135.68,201.27c.21-.35.48-.59.8-.72.32-.12.63-.15.94-.09.31.06.58.22.82.46.24.25.38.57.41.98.02.26-.02.55-.12.85-.1.3-.22.6-.37.9s-.31.59-.48.88c-.17.28-.31.53-.41.74-.14.28-.27.56-.38.84-.11.27-.25.54-.41.81-.25.44-.57.69-.97.76-.4.06-.77,0-1.11-.16-.34-.17-.61-.43-.8-.78-.19-.35-.19-.73-.01-1.14.09-.35.24-.72.45-1.09s.4-.72.56-1.03c.18-.35.34-.7.5-1.03.16-.34.32-.67.48-1.01l.11-.16Z" fill="#fff"/>
    <path d="M135.81,218.22c-.11-.3-.15-.6-.13-.89.02-.29.09-.56.23-.8.13-.24.32-.42.57-.56s.55-.18.9-.15c.19.02.37.07.53.16s.31.19.44.32c.13.12.27.26.4.4s.27.26.41.37c.3.23.62.4.95.5.34.11.69.19,1.06.24.25,0,.45-.06.6-.19.15-.12.25-.27.3-.45.05-.18.07-.37.04-.57s-.09-.37-.2-.49c-.3-.3-.67-.49-1.1-.58-.43-.09-.84-.19-1.21-.32-.53-.18-1.05-.4-1.56-.68-.51-.27-.93-.65-1.25-1.13-.34-.49-.53-1.02-.6-1.58-.06-.56-.02-1.1.13-1.63.15-.53.4-1.02.76-1.46.35-.44.78-.8,1.27-1.09.37-.21.78-.35,1.22-.41.44-.06.89-.08,1.34-.04.45.04.9.12,1.34.25s.85.28,1.22.44c.42.19.74.47.95.82.21.35.31.71.3,1.07,0,.36-.13.68-.37.94s-.59.4-1.05.4c-.28,0-.54-.05-.77-.15-.23-.1-.47-.19-.72-.28-.32-.12-.66-.21-1.03-.25-.37-.04-.67-.02-.9.07-.07.02-.15.08-.24.17-.09.1-.16.22-.2.36-.04.14-.05.28-.03.42.03.14.12.26.28.34.42.23.88.41,1.35.53.48.12.95.27,1.41.42.46.16.89.36,1.29.61.4.25.73.6.99,1.06.39.67.59,1.37.6,2.11,0,.73-.14,1.42-.44,2.06-.3.64-.74,1.18-1.33,1.63s-1.26.72-2.04.81c-.55.05-1.09.02-1.62-.09-.53-.12-1.04-.3-1.54-.56-.5-.26-.95-.56-1.38-.92-.42-.35-.8-.72-1.11-1.11l-.08-.16Z" fill="#fff"/>
    <path d="M34.77,248.11c-.05.44-.22.8-.49,1.09-.27.28-.58.46-.93.53-.34.07-.68.03-.99-.13s-.55-.47-.69-.93c-.16-.49-.22-1.01-.19-1.55.04-.54.05-1.04.05-1.5,0-.95,0-1.9.01-2.85,0-.95-.03-1.9-.12-2.85-.02-.04-.04-.07-.05-.09-.02-.03-.05-.07-.11-.12-.41-.11-.84-.08-1.3.08-.46.16-.85.36-1.17.61-.28.23-.56.54-.84.94-.27.4-.41.78-.41,1.15v3.66c0,.28,0,.59.03.93.02.34,0,.66-.04.98-.04.32-.15.61-.31.88-.16.27-.42.46-.77.58-.19.07-.38.1-.54.08-.17-.02-.35-.06-.54-.13-.32-.11-.55-.29-.69-.54-.14-.26-.24-.53-.29-.82-.05-.29-.08-.57-.07-.85,0-.27.01-.49.01-.65,0-.41,0-.99-.01-1.76,0-.77-.01-1.58-.01-2.43v-4.19c0-.39.11-.71.34-.97.23-.26.5-.42.81-.5.31-.08.64-.06.98.05.34.12.63.35.86.7.71-.46,1.49-.77,2.33-.93.85-.16,1.65-.13,2.4.08.75.21,1.38.61,1.88,1.19.5.58.76,1.39.78,2.41,0,.04,0,.14.03.32.02.18.03.42.03.74v6.79Z" fill="#fff"/>
    <path d="M37.08,242.46c.12-.51.3-1.02.52-1.51.22-.49.49-.97.81-1.42.32-.45.68-.86,1.07-1.23s.83-.67,1.29-.9c.81-.42,1.63-.64,2.45-.65.82,0,1.59.16,2.29.49.71.34,1.31.84,1.8,1.5.49.66.82,1.45.98,2.37.09.6.14,1.17.15,1.71,0,.54-.05,1.1-.17,1.68-.18.83-.54,1.66-1.07,2.48-.54.82-1.18,1.51-1.94,2.07-.75.56-1.57.92-2.47,1.1-.89.18-1.79.04-2.69-.42-.41-.2-.77-.42-1.1-.68-.33-.26-.62-.56-.89-.92-.3-.39-.53-.79-.7-1.22-.17-.42-.3-.87-.41-1.33-.12-.49-.17-.99-.13-1.5.04-.5.1-.99.19-1.47l.03-.16ZM40.26,243.01c-.05.28-.1.56-.13.84-.04.27-.04.55,0,.83.05.41.16.78.33,1.11.17.34.39.6.66.79.27.2.59.3.94.31.35,0,.73-.1,1.14-.33.51-.3.95-.76,1.33-1.39.37-.63.6-1.28.69-1.96.09-.68.02-1.33-.21-1.94-.23-.61-.68-1.05-1.35-1.31-.44,0-.85.08-1.22.25-.37.17-.69.39-.97.66-.27.27-.51.6-.72.97-.2.37-.37.76-.49,1.17Z" fill="#fff"/>
    <path d="M59.25,242.46c.12-.51.3-1.02.52-1.51.22-.49.49-.97.81-1.42.32-.45.68-.86,1.07-1.23.4-.37.83-.67,1.29-.9.81-.42,1.63-.64,2.45-.65.82,0,1.59.16,2.29.49.71.34,1.31.84,1.8,1.5.49.66.82,1.45.98,2.37.09.6.14,1.17.15,1.71,0,.54-.05,1.1-.17,1.68-.18.83-.53,1.66-1.07,2.48s-1.18,1.51-1.94,2.07c-.75.56-1.57.92-2.47,1.1-.89.18-1.79.04-2.69-.42-.41-.2-.77-.42-1.1-.68-.33-.26-.62-.56-.89-.92-.3-.39-.54-.79-.7-1.22-.17-.42-.3-.87-.41-1.33-.12-.49-.17-.99-.13-1.5.04-.5.1-.99.19-1.47l.03-.16ZM62.43,243.01c-.05.28-.1.56-.13.84-.04.27-.04.55,0,.83.05.41.16.78.33,1.11.17.34.39.6.66.79.27.2.59.3.94.31.35,0,.73-.1,1.14-.33.51-.3.95-.76,1.33-1.39.37-.63.6-1.28.69-1.96.09-.68.02-1.33-.21-1.94-.23-.61-.68-1.05-1.35-1.31-.44,0-.85.08-1.22.25-.37.17-.69.39-.97.66-.27.27-.51.6-.72.97-.2.37-.37.76-.49,1.17Z" fill="#fff"/>
    <path d="M83.11,248.11c-.05.44-.22.8-.49,1.09-.27.28-.58.46-.93.53-.34.07-.68.03-.99-.13s-.55-.47-.69-.93c-.16-.49-.22-1.01-.19-1.55.04-.54.05-1.04.05-1.5,0-.95,0-1.9.01-2.85,0-.95-.03-1.9-.12-2.85-.02-.04-.04-.07-.05-.09-.02-.03-.05-.07-.11-.12-.41-.11-.84-.08-1.3.08-.46.16-.85.36-1.17.61-.28.23-.56.54-.84.94-.27.4-.41.78-.41,1.15v3.66c0,.28,0,.59.03.93.02.34,0,.66-.04.98-.04.32-.15.61-.3.88s-.42.46-.77.58c-.19.07-.38.1-.54.08-.17-.02-.35-.06-.54-.13-.32-.11-.55-.29-.69-.54-.14-.26-.24-.53-.29-.82s-.08-.57-.07-.85c0-.27.01-.49.01-.65,0-.41,0-.99-.01-1.76,0-.77-.01-1.58-.01-2.43v-4.19c0-.39.11-.71.34-.97.23-.26.5-.42.81-.5.31-.08.64-.06.98.05.34.12.63.35.86.7.71-.46,1.48-.77,2.33-.93.85-.16,1.65-.13,2.4.08.75.21,1.38.61,1.88,1.19.5.58.76,1.39.78,2.41,0,.04,0,.14.03.32.02.18.03.42.03.74v6.79Z" fill="#fff"/>
    <path d="M95.26,245.24c.42-.11.8-.11,1.13-.01.33.1.58.26.76.49.18.23.26.51.24.85-.02.34-.17.69-.45,1.06-.23.3-.55.56-.95.77-.41.21-.79.38-1.14.5-.87.32-1.69.54-2.47.66-.78.12-1.51.12-2.19,0-.68-.12-1.32-.38-1.91-.77s-1.14-.94-1.66-1.64c-.35-.48-.61-1.02-.78-1.63-.17-.61-.26-1.23-.28-1.87s.04-1.26.16-1.88c.12-.62.3-1.18.53-1.67.3-.62.78-1.18,1.43-1.7.65-.51,1.38-.92,2.17-1.22.8-.3,1.61-.47,2.44-.52.83-.04,1.56.08,2.2.38.53.25.99.61,1.37,1.07.38.47.64.98.78,1.52.14.55.15,1.1.04,1.66-.12.56-.4,1.07-.86,1.52-.44.44-.93.8-1.46,1.07-.53.27-1.08.51-1.64.72-.57.2-1.14.38-1.74.52-.59.14-1.16.3-1.71.48.37.42.8.69,1.27.81.48.12.98.14,1.5.07.52-.07,1.05-.22,1.58-.44.53-.22,1.03-.46,1.49-.73l.16-.08ZM89.9,240.68c-.41.23-.71.52-.9.86-.19.34-.34.83-.42,1.45.46-.14.98-.29,1.55-.45.57-.16,1.12-.33,1.63-.5.51-.18.95-.37,1.3-.58.35-.21.53-.44.53-.69,0-.14-.02-.28-.07-.41-.04-.13-.14-.23-.28-.28-.5-.18-1.01-.21-1.54-.11-.53.11-.97.26-1.33.45l-.48.27Z" fill="#fff"/>
    <path d="M120.32,247.63c.14.51.11.94-.08,1.27-.19.34-.46.56-.81.68-.34.12-.72.1-1.13-.04-.41-.14-.76-.42-1.06-.85-.5.37-.98.63-1.45.78-.47.15-1,.23-1.6.25-.9.04-1.71-.07-2.41-.31-.71-.24-1.3-.6-1.79-1.07-.49-.48-.84-1.07-1.07-1.79-.23-.72-.31-1.54-.24-2.48.04-.39.1-.77.2-1.14.1-.37.21-.73.33-1.09.14-.39.34-.8.6-1.25.26-.44.52-.82.78-1.14.95-1.17,2.15-2.01,3.58-2.52.25-.09.58-.17,1.01-.24.42-.07.85-.1,1.29-.09.43,0,.85.07,1.25.17.4.11.69.29.89.56.16.21.27.4.34.56.07.16.11.33.12.5,0,.18,0,.37,0,.57,0,.2-.01.46-.01.76,0,.5,0,.98-.01,1.45,0,.47,0,.94.01,1.42v.62c0,.26,0,.53.03.81.02.28.04.55.07.81.03.26.07.46.12.62l1.06,2.17ZM114.7,246.44c.19-.12.42-.26.66-.41.25-.15.47-.32.66-.52-.16-.94-.25-1.87-.28-2.81-.03-.94-.02-1.88.01-2.84-.8.14-1.51.49-2.15,1.03-.64.55-1.08,1.19-1.33,1.94-.11.3-.19.61-.27.93-.07.32-.1.63-.08.93.02.41.12.75.32,1.02.19.27.43.48.7.62.27.14.57.22.88.24.31.02.6-.03.86-.13Z" fill="#fff"/>
    <path d="M122.57,240.61c.02-.12,0-.32-.03-.62-.28-.16-.5-.36-.66-.61-.16-.25-.25-.51-.28-.8-.03-.28.03-.55.16-.81.13-.26.35-.47.65-.65.41-.23.85-.27,1.34-.13.49.14.91.35,1.26.64.44-.34.9-.62,1.38-.85.48-.23.96-.38,1.46-.46.49-.08,1-.07,1.51.04.51.11,1.02.33,1.51.66.25.16.48.36.69.6.21.24.34.51.4.81.09.44.05.83-.11,1.15-.16.33-.38.57-.66.72-.28.15-.6.19-.95.13-.35-.06-.69-.25-1.01-.57-.11-.07-.18-.13-.23-.17-.04-.04-.14-.1-.28-.17-.28-.07-.56-.05-.84.05-.27.11-.54.25-.8.44-.26.19-.5.39-.72.61-.22.22-.42.42-.6.6v6.76c0,.27-.05.52-.16.77-.16.41-.41.69-.76.85s-.69.2-1.03.13c-.34-.07-.65-.25-.9-.53-.26-.28-.38-.65-.38-1.09v-7.43c0,.07,0,.05.03-.07Z" fill="#fff"/>
    <path d="M132.07,242.46c.12-.51.3-1.02.52-1.51.22-.49.49-.97.81-1.42.32-.45.68-.86,1.07-1.23.4-.37.83-.67,1.29-.9.81-.42,1.63-.64,2.45-.65s1.59.16,2.29.49c.71.34,1.31.84,1.8,1.5.49.66.82,1.45.98,2.37.09.6.14,1.17.15,1.71,0,.54-.05,1.1-.17,1.68-.18.83-.53,1.66-1.07,2.48s-1.18,1.51-1.94,2.07c-.75.56-1.57.92-2.47,1.1-.89.18-1.79.04-2.69-.42-.41-.2-.77-.42-1.1-.68-.33-.26-.62-.56-.89-.92-.3-.39-.54-.79-.7-1.22-.17-.42-.3-.87-.41-1.33-.12-.49-.17-.99-.13-1.5.04-.5.1-.99.19-1.47l.03-.16ZM135.25,243.01c-.05.28-.1.56-.13.84-.04.27-.04.55,0,.83.05.41.16.78.33,1.11s.39.6.66.79c.27.2.59.3.94.31.35,0,.73-.1,1.14-.33.51-.3.95-.76,1.33-1.39.37-.63.6-1.28.69-1.96.09-.68.02-1.33-.21-1.94-.23-.61-.68-1.05-1.35-1.31-.44,0-.85.08-1.22.25-.37.17-.69.39-.97.66-.27.27-.51.6-.72.97-.2.37-.37.76-.49,1.17Z" fill="#fff"/>
    <path d="M156.92,246.73c.16.23.25.5.28.81.03.31,0,.6-.11.88-.1.27-.26.5-.48.68-.22.18-.51.26-.86.24-.46-.04-.83-.19-1.11-.48-.28-.28-.55-.6-.8-.95-.69.57-1.4.96-2.14,1.18-.73.22-1.45.27-2.16.15-.71-.12-1.37-.42-1.99-.89-.62-.47-1.14-1.1-1.56-1.9-.39-.74-.61-1.56-.65-2.47-.04-.9-.06-1.76-.04-2.57,0-.28,0-.56.03-.84.02-.27.04-.56.05-.86.02-.23.03-.46.03-.68s.01-.43.04-.62c.03-.19.08-.39.16-.58.08-.19.2-.38.36-.56.21-.23.47-.37.77-.41.3-.04.59-.01.86.09.27.11.51.27.72.49.2.22.31.49.33.81.04.9.01,1.81-.07,2.73-.08.92-.08,1.82.01,2.71.04.42.15.86.33,1.3.19.44.48.76.89.95.41.18.82.16,1.23-.04.42-.2.76-.45,1.02-.73.12-.14.24-.3.36-.46.11-.17.24-.31.38-.44-.07-.62-.12-1.24-.13-1.86-.02-.62-.02-1.24,0-1.86,0-.34.01-.7.04-1.1.03-.4.1-.78.21-1.14.11-.36.29-.68.52-.95.23-.27.56-.45.98-.52.19-.04.38-.02.57.05.19.07.35.17.49.29.25.21.42.45.5.72.09.27.13.55.13.85s-.02.61-.07.92c-.04.31-.08.6-.09.86-.04.5-.06,1.02-.08,1.56-.02.55,0,1.1.05,1.64.05.55.15,1.08.31,1.59.15.51.38.98.68,1.41Z" fill="#fff"/>
    <path d="M169.62,248.11c-.05.44-.22.8-.49,1.09-.27.28-.58.46-.93.53-.34.07-.68.03-.99-.13s-.55-.47-.69-.93c-.16-.49-.22-1.01-.19-1.55.04-.54.05-1.04.05-1.5,0-.95,0-1.9.01-2.85,0-.95-.03-1.9-.12-2.85-.02-.04-.04-.07-.05-.09-.02-.03-.05-.07-.11-.12-.41-.11-.84-.08-1.3.08-.46.16-.85.36-1.17.61-.28.23-.56.54-.84.94-.27.4-.41.78-.41,1.15v3.66c0,.28,0,.59.03.93.02.34,0,.66-.04.98-.04.32-.15.61-.31.88-.16.27-.42.46-.77.58-.19.07-.38.1-.54.08-.17-.02-.35-.06-.54-.13-.32-.11-.55-.29-.69-.54-.14-.26-.24-.53-.29-.82-.05-.29-.08-.57-.07-.85,0-.27.01-.49.01-.65,0-.41,0-.99-.01-1.76,0-.77-.01-1.58-.01-2.43v-4.19c0-.39.11-.71.34-.97.23-.26.5-.42.81-.5.31-.08.64-.06.98.05.34.12.63.35.86.7.71-.46,1.49-.77,2.33-.93.85-.16,1.65-.13,2.4.08.75.21,1.38.61,1.88,1.19.5.58.76,1.39.78,2.41,0,.04,0,.14.03.32.02.18.03.42.03.74v6.79Z" fill="#fff"/>
    <path d="M184.44,246.67c.3.51.4.97.3,1.38-.1.41-.3.71-.6.92-.3.2-.67.28-1.1.24-.43-.04-.85-.27-1.26-.68-.42.3-.87.53-1.33.7-.46.17-.95.31-1.46.44-.8.18-1.56.16-2.29-.04-.73-.2-1.38-.54-1.95-1-.57-.46-1.03-1.03-1.38-1.71-.35-.68-.55-1.42-.58-2.21-.05-.88.01-1.73.2-2.55.19-.81.48-1.56.89-2.23.41-.67.94-1.25,1.6-1.72.66-.48,1.45-.81,2.35-1.01.53-.11,1.06-.16,1.6-.16s1.07.04,1.6.13c-.02-.39-.03-.84-.04-1.34,0-.5-.01-1-.01-1.47s.02-.91.05-1.29c.04-.38.08-.65.13-.81.12-.32.31-.56.57-.73.26-.17.53-.26.81-.27.28,0,.56.06.84.21.27.15.49.38.65.68.04.09.08.17.13.25.05.08.08.16.08.25.02,2.32.02,4.61.01,6.87,0,2.26-.01,4.55-.01,6.87.07.11.13.2.19.27ZM180.76,245.22c.04-.05.1-.11.2-.16.1-.05.15-.12.15-.21v-2.19c0-.72,0-1.45-.03-2.19-.42-.09-.87-.14-1.33-.16-.46-.02-.91.03-1.34.13-.43.11-.83.28-1.19.53-.36.25-.65.6-.86,1.06-.11.34-.2.67-.29,1.01-.09.34-.14.66-.15.98,0,.32.03.63.12.94.09.31.24.61.45.89.07.07.15.14.25.21.1.07.29.2.57.37.65.05,1.28,0,1.87-.19.59-.18,1.12-.52,1.58-1.03Z" fill="#fff"/>
    <path d="M200.04,249.34c-.35.26-.72.38-1.1.36-.38-.02-.72-.17-1.01-.46s-.44-.69-.44-1.21v-14.75c0-.41.16-.75.48-1.03.32-.28.67-.46,1.06-.53.39-.07.75,0,1.09.19.34.19.52.56.56,1.09.07.92.1,1.82.09,2.69,0,.88-.02,1.75-.04,2.64.65-.44,1.33-.74,2.04-.89.71-.15,1.39-.15,2.04.01.65.16,1.26.48,1.83.95.57.48,1.03,1.14,1.38,1.99.25.57.42,1.17.5,1.82.09.65.14,1.3.15,1.96,0,.66,0,1.32-.03,1.98-.03.65-.04,1.27-.04,1.86,0,.37-.1.71-.29,1.01-.19.3-.44.52-.73.66-.29.14-.6.19-.93.13-.33-.05-.62-.25-.89-.58-.27-.35-.43-.77-.49-1.25-.06-.48-.08-.99-.05-1.52.03-.54.07-1.09.12-1.66.05-.57.07-1.11.04-1.63-.03-.52-.13-1-.31-1.45-.18-.44-.49-.8-.93-1.09-.35-.05-.67-.03-.95.07-.28.1-.54.24-.77.44-.23.2-.45.42-.65.66-.2.25-.41.5-.62.74-.05.09-.12.17-.19.25-.07.08-.15.16-.24.25v5.04c-.11.58-.34,1-.69,1.26Z" fill="#fff"/>
    <path d="M220.4,245.24c.42-.11.8-.11,1.13-.01.33.1.58.26.76.49.18.23.26.51.24.85-.02.34-.17.69-.45,1.06-.23.3-.55.56-.95.77s-.79.38-1.14.5c-.87.32-1.69.54-2.47.66-.78.12-1.51.12-2.19,0-.68-.12-1.32-.38-1.91-.77-.59-.39-1.15-.94-1.66-1.64-.35-.48-.61-1.02-.78-1.63-.17-.61-.26-1.23-.28-1.87-.02-.64.04-1.26.16-1.88.12-.62.3-1.18.53-1.67.3-.62.78-1.18,1.43-1.7.65-.51,1.38-.92,2.17-1.22.8-.3,1.61-.47,2.44-.52.83-.04,1.56.08,2.2.38.53.25.99.61,1.37,1.07.38.47.64.98.78,1.52.14.55.15,1.1.04,1.66-.12.56-.4,1.07-.86,1.52-.44.44-.93.8-1.46,1.07-.53.27-1.08.51-1.64.72-.57.2-1.15.38-1.74.52-.59.14-1.16.3-1.71.48.37.42.8.69,1.27.81.48.12.98.14,1.5.07.52-.07,1.05-.22,1.58-.44.53-.22,1.03-.46,1.49-.73l.16-.08ZM215.05,240.68c-.41.23-.71.52-.9.86-.19.34-.34.83-.42,1.45.46-.14.98-.29,1.55-.45.57-.16,1.12-.33,1.63-.5.51-.18.95-.37,1.3-.58.35-.21.53-.44.53-.69,0-.14-.02-.28-.07-.41-.04-.13-.14-.23-.28-.28-.5-.18-1.01-.21-1.54-.11-.53.11-.97.26-1.33.45l-.48.27Z" fill="#fff"/>
    <path d="M225.26,240.61c.02-.12,0-.32-.03-.62-.28-.16-.5-.36-.66-.61-.16-.25-.25-.51-.28-.8-.03-.28.03-.55.16-.81.13-.26.35-.47.65-.65.41-.23.85-.27,1.34-.13s.91.35,1.26.64c.44-.34.9-.62,1.38-.85.48-.23.96-.38,1.46-.46.49-.08,1-.07,1.51.04.51.11,1.02.33,1.51.66.25.16.48.36.69.6.21.24.34.51.4.81.09.44.05.83-.11,1.15-.16.33-.38.57-.66.72-.28.15-.6.19-.95.13-.35-.06-.69-.25-1.01-.57-.11-.07-.18-.13-.23-.17-.04-.04-.14-.1-.28-.17-.28-.07-.56-.05-.84.05-.27.11-.54.25-.8.44-.26.19-.5.39-.72.61-.22.22-.42.42-.6.6v6.76c0,.27-.05.52-.16.77-.16.41-.41.69-.76.85s-.69.2-1.03.13c-.34-.07-.65-.25-.9-.53-.26-.28-.38-.65-.38-1.09v-7.43c0,.07,0,.05.03-.07Z" fill="#fff"/>
    <path d="M244.59,245.24c.42-.11.8-.11,1.13-.01.33.1.58.26.76.49.18.23.26.51.24.85-.02.34-.17.69-.45,1.06-.23.3-.55.56-.95.77-.41.21-.79.38-1.14.5-.87.32-1.69.54-2.47.66-.78.12-1.51.12-2.19,0-.68-.12-1.32-.38-1.91-.77s-1.14-.94-1.66-1.64c-.35-.48-.61-1.02-.78-1.63-.17-.61-.26-1.23-.28-1.87s.04-1.26.16-1.88c.12-.62.3-1.18.53-1.67.3-.62.78-1.18,1.43-1.7.65-.51,1.38-.92,2.17-1.22.8-.3,1.61-.47,2.44-.52.83-.04,1.56.08,2.2.38.53.25.99.61,1.37,1.07.38.47.64.98.78,1.52.14.55.15,1.1.04,1.66-.12.56-.4,1.07-.86,1.52-.44.44-.93.8-1.46,1.07-.53.27-1.08.51-1.64.72-.57.2-1.14.38-1.74.52-.59.14-1.16.3-1.71.48.37.42.8.69,1.27.81.48.12.98.14,1.5.07.52-.07,1.05-.22,1.58-.44.53-.22,1.03-.46,1.49-.73l.16-.08ZM239.23,240.68c-.41.23-.71.52-.9.86-.19.34-.34.83-.42,1.45.46-.14.98-.29,1.55-.45.57-.16,1.12-.33,1.63-.5.51-.18.95-.37,1.3-.58.35-.21.53-.44.53-.69,0-.14-.02-.28-.07-.41-.04-.13-.14-.23-.28-.28-.5-.18-1.01-.21-1.54-.11-.53.11-.97.26-1.33.45l-.48.27Z" fill="#fff"/>
  </g>
  <path d="M492.53,248.12c6.42,13.05-2.38,28.55-16.52,33.22-14.32,4.73-24.21-6.23-27.99-20.89-3.78-14.65,1.51-27.01,16.12-30.77s21.68,4.8,28.39,18.44Z" fill="#fff34a" opacity=".2"/>
  <path d="M492.33,320.66c-1.52,14.41-16.01,23.43-29.26,20.48-13.41-2.98-15.61-17.31-11.25-31.8,4.36-14.49,14.58-22.53,27.73-18.57,13.16,3.96,14.36,14.82,12.77,29.89Z" fill="#fff34a" opacity=".2"/>
  <path d="M454.38,301.61c4.58-10.74,10.58-12,10.58-12-17.05-5.21-20.13-36.79-14.05-48.79,6.08-12,25.11-12.63,25.11-12.63l-11.84-4.42-14.53,2.37-10.42,5.84s-6.35,4.25-9.47,9c-1.87,2.85-1.88,7.18-3.47,6.95-4.26-.63-12.16,11.37-12.16,11.37,0,0-3.79,9.16,1.89,14.53,5.68,5.37,11.53,1.26,11.53,1.26l5.37,7.89,11.53,5.21-7.58,3.32-6.79,10.11-4.89-7.74-7.74.32-3.32,10.42-3.63,16.89-5.84-.79-3,5.53,4.42,5.53,8.05,2.21,5.84-9.16,5.21,1.26s1.42,5.68,5.37,11.37c3.95,5.68,17.53,12.32,17.53,12.32,0,0,6,1.11,12.16.16,6.16-.95,6.95-2.68,6.95-2.68-28.74-3.16-15.54-39.18-12.79-45.63ZM430.81,264.7c-2.98,13.92-10.22,10.22-10.22,10.22,8.25-11.25,4.89-25.42,4.89-25.42,0,0,8.64-.28,5.33,15.2Z" fill="#2b3751" opacity=".4"/>
  <path d="M479.8,286.4s16.84-1.47,19.37,29.26c0,0,7.58-29.05-13.26-33.68l-6.11,4.42Z" fill="#2b3751" opacity=".4"/>
</svg>