<?xml version="1.0" encoding="UTF-8"?>
<svg id="Layer_1" data-name="Layer 1" xmlns="http://www.w3.org/2000/svg" width="2400" height="1200" xmlns:xlink="http://www.w3.org/1999/xlink" viewBox="0 0 2400 1200">
  <defs>
    <linearGradient id="linear-gradient" x1="288.05" y1="471.83" x2="2463.24" y2="471.83" gradientUnits="userSpaceOnUse">
      <stop offset="0" stop-color="#fdef4b"/>
      <stop offset="1" stop-color="#fdef4b" stop-opacity=".2"/>
    </linearGradient>
    <linearGradient id="linear-gradient-2" x1="284.54" y1="472.97" x2="2453.48" y2="472.97" xlink:href="#linear-gradient"/>
  </defs>
  <rect x="-20.73" y="-20.59" width="2444.4" height="1235.21" fill="#1d253a"/>
  <g>
    <path d="M1298.94-78c15.44,30.01,36.79,54.53,65.44,72.22,10.31,6.37,22.22,10.06,32.96,15.81,27.33,14.63,46.1,38.3,62.93,63.23,11.54,17.1,23.91,33.88,40.02,45.85,20.12,14.95,30.75,37.6,49.28,53.35" fill="none" stroke="#445e9e" stroke-linecap="round" stroke-linejoin="round" stroke-width="2.07"/>
    <path d="M2024.7,204.54c1.3-5.28,5.53-8.36,9.39-11.3,23.34-17.77,33.57-41.5,35.42-70.46,1.66-26.01-.48-50.49-15.81-72.49-5.63-8.08-10.49-16.17-18.24-23.21-20.69-18.79-13.64-25.14-10.09-44.93,13.59-40.98,34.95-40.82,33.9-50.94" fill="none" stroke="#445e9e" stroke-linecap="round" stroke-linejoin="round" stroke-width="2.07"/>
    <path d="M515.41-65.74c-19.11.06-39.05-1.09-56.67,5-21.38,7.39-43.11,14.87-62.57,27.94-38.36,25.75-68.53,59.77-99.21,93.43-1.14,1.25-2.73,2.1-4.11,3.13-2.5.46-2.93-1.64-4.24-3.01-4.55-4.78-12.68-6.33-13.32-14.59-.51-6.69,3.86-12.05,6.48-17.44,10.12-20.81,22.06-40.72,30.77-62.25,4.58-11.32,7.42-22.9,7.25-35.21" fill="none" stroke="#445e9e" stroke-linecap="round" stroke-linejoin="round" stroke-width="2.07"/>
    <path d="M1190.35,653.81c12.88-9.69,16.54-25.09,23.97-38.21,5.73-10.13,12.26-20,19.75-28.87,5.06-6,12.35-2.59,16.25,7.07,3.44,8.49,6.01,17.33,9.48,25.81,2.1,5.12,3.42,10.85,8.62,14.73,7.16-3.71,14.75,3.82,22.34-.2" fill="none" stroke="#445e9e" stroke-linecap="round" stroke-linejoin="round" stroke-width="2.07"/>
    <path d="M1427.4,564.79c-4.13-6.07-3.91-13.1-2.93-19.64,2.89-19.25,4.14-38.56,3.97-58,0-1.04.16-2.1-.03-3.1-.86-4.51-2.63-8.94-7.27-10.18-4.51-1.2-7.35,3-9.12,6.11-9.19,16.15-16.49,33.22-22.91,50.65-8,21.72-16.13,43.39-23.67,65.26-2.12,6.16-5.85,10.47-10.51,14.44" fill="none" stroke="#445e9e" stroke-linecap="round" stroke-linejoin="round" stroke-width="2.07"/>
    <path d="M1715.18,812.19c.02-3.46.45-6.63-4.1-8.39-18.07-7-36.76-11.2-55.94-13.33-45.2-5.01-76.49,20.28-102.85,51.26-11.97,14.07-24.38,19.61-41.03,20.11-34.34,1.03-64.37,12.93-92.31,32.91-33.83,24.19-52.13,57.4-61.93,96.52-6.73,26.85-22.78-18.23-49.54-8.89-29.19,10.19-59.53,16.5-88.25,28.3-22.78,9.36-41.85,23.87-60.89,38.66-7.7,5.98-14.9,12.69-21.72,19.66-7.39,7.55-14.72,9.3-25.03,5.35-18.14-6.96-36.55-12.16-56.87-9.93-25.1,2.75-53.13-73.93-75.84-64.08-16.22,7.03-26.77-6.59-42.03,2.5-4.33,2.58-9.74,5.54-9.42,12.24" fill="none" stroke="#445e9e" stroke-linecap="round" stroke-linejoin="round" stroke-width="2.07"/>
    <path d="M1833.19,203.51c-5.69.67-9.51-3.79-14.47-5.24-39.92-11.65-97.86-1.26-119.1,45.59-4.85,10.71-7.69,22.05-11.33,33.15-1.12,3.42-1.9,6.96-3.15,10.34-5.48,14.79-12.63,20.17-27.87,17.33-16.87-3.15-33.79-3.92-50.78-4.9-26.74-1.55-52.37,3.91-75.27,17.08-11.29,6.5-18.92,18.89-27.21,29.5-7.57,9.68-15.56,19.06-22.67,29.06-7.68,10.81-17.25,14.47-30.15,11.42-12.3-2.91-24.76-5.35-37.25-7.27-32.03-4.94-58.54,6.53-80.63,29.01-10.61,10.8-21.07,21.98-29.92,34.21-17.59,24.29-42.96,35.63-69.4,46.81-23.07,9.76-48.25,13.33-70.42,24.73-22.97,11.81-36.13,31.4-38.49,57.7-.99,11.06,4.41,17.94,13.52,22.77,15.55,8.25,32.62,9.48,49.69,10.29,9.16.43,18.45-.47,26.91,4.22" fill="none" stroke="#445e9e" stroke-linecap="round" stroke-linejoin="round" stroke-width="2.07"/>
    <path d="M2468.67,88.69c-23.98-32.18-53.14-58.4-90.99-73.55-28.66-11.47-58.07-11.48-86.8-1.7-14.48,4.93-25.41,3.58-37.55-5.4-35.82-26.47-77.14-39.27-120.98-40.01-40.03-.67-72.28,17.74-95.25,51.19-2.22,3.24-4.8,6.23-7.22,9.33" fill="none" stroke="#445e9e" stroke-linecap="round" stroke-linejoin="round" stroke-width="2.07"/>
    <path d="M889.11,520.27c-5.86,1.04-7.96,5.39-10.56,10.24-4.91,9.17-8.62,19.34-17.39,25.99" fill="none" stroke="#445e9e" stroke-linecap="round" stroke-linejoin="round" stroke-width="2.07"/>
    <path d="M1031.96,760.43c-2.85-12.12-13.24-18.32-21.99-24.49-18.53-13.04-39.41-21.8-61.86-26.24" fill="none" stroke="#445e9e" stroke-linecap="round" stroke-linejoin="round" stroke-width="2.07"/>
    <path d="M1176.89,638.28c-2.91,1.87-6.07,2.71-8.47,6.08-11.69,16.42-20.98,33.97-27.82,52.91-1.82,5.05-.78,8.36,4.2,10.37" fill="none" stroke="#445e9e" stroke-linecap="round" stroke-linejoin="round" stroke-width="2.07"/>
    <path d="M1934.64,402.26c-2.23,3.41-1.89,8.72-7.25,9.83" fill="none" stroke="#445e9e" stroke-linecap="round" stroke-linejoin="round" stroke-width="2.07"/>
    <path d="M2007.05,1284.27c-6.75-9.73-14.75-18.32-24.77-24.91-9.97-6.55-15.04-15.14-14.82-27.92.31-18.06-11.56-28.06-26.48-36.46-25.73-14.47-54.15-20.73-81.99-28.46-29.65-8.23-59.92-14.28-90-20.91-10.34-2.28-17.05-9.65-24.81-15.64-16.97-13.09-35.05-24.14-56.96-25.69-19.81-1.41-39.44.65-59.04,4.79-32.34,6.84-62.65-42.24-94.13-32.82-17.41,5.21-34.16,7-51.88.13-24.96-9.68-50.68-6.65-75.41,1.03-41.02,12.73-76.16-6.98-100.57,29.74-6.67,10.03-18.55,11.99-28.94,15.43-26.18,8.68-52.29,3.79-78.67-.6-31.23-5.21-58.05,22.28-83.89,5.03-18.59-12.42-39.06-21.36-61.99-18.49-19.83,2.48-39.4-17.66-59.03-13.69-16.78,3.39-33.65-76.79-50.73-75.62-1.37.09-2.97.47-4.11-.06-15.46-7.12-29.75,63.67-44.54,65.28" fill="none" stroke="#445e9e" stroke-linecap="round" stroke-linejoin="round" stroke-width="2.07"/>
    <path d="M925.34,845.32c-10.97-1.02-20.33,5.42-31.03,6.49-17.36,1.74-34.62.3-51.77-.63-26.96-1.47-50.99,6.53-74.57,17.91-21.4,10.33-42.39,21.47-64.05,31.35-20.28,9.25-40.49,6.95-61.2,3.93-29.16-4.24-58.17-11.79-87.97-6.19-26.25,4.93-50.49,15.8-74.43,27.08-5.46,2.57-10.46,1.27-15.64,1.78-24,2.36-47.72,5.15-68.42,19.57-8.83,6.16-15.78,13.42-20.61,22.92-10.66,20.95-.45,38.36,23.82,41.44,2.76.35,5.97.89,8.25.66,11.85-1.21,17.16,5.84,21.83,14.81,5.99,11.51,12.63,22.58,21.64,32.16,25.49,27.13,57.98,41,93.23,49.59,25.96,6.33,52.48,5.71,78.63,2.87,40.19-4.35,53.99-61.16,94.07-53.1,27.5,5.53,77.54-35.05,100.49-19.99,20.68,13.56,41.85,25.87,65.27,34.11,8.21,2.89,10.21,10.62,7.44,18.62-5.93,17.14-61.86-4.43-79.55-4.72-52.15-.84-184.46,35.93-214.99,75.17-6.19,7.95-12.98,15.51-18.5,23.9-8.01,12.19-19.7,16.71-33.25,18.58-21.58,2.98-43.03,27.44-63.13,36.26" fill="none" stroke="#445e9e" stroke-linecap="round" stroke-linejoin="round" stroke-width="2.07"/>
    <path d="M491.6,472.66c8.55-6.6,16.1-13.43,15.87-25.89-.08-4.1,4.02-8.18,5.84-12.43,20.89-48.8,48.81-93.41,80.93-135.48,2.71-3.55,5.84-10.07,11.07-7.98,4.96,1.99,5.92,8.36,6.49,14.06,2.14,21.42,4.28,42.86,7.24,64.18,4.8,34.56,10.54,68.99,15.24,103.56,1.28,9.44-.69,19.45,7.44,26.89" fill="none" stroke="#445e9e" stroke-linecap="round" stroke-linejoin="round" stroke-width="2.07"/>
    <path d="M1631.33,299.78c.69-11.04,1.66-22.07,2.01-33.13.58-18.63.83-37.26,1.02-55.9.03-2.73-.11-5.49-.67-8.34-1.13-5.76-1.24-12.66-7.61-14.06-5.67-1.25-8.9,4.61-12.44,8.86-15.03,18.07-25.6,38.88-37.15,59.09-3.59,6.27-5.89,13.03-13.32,16.84-5.78,2.96-3.95,10.88-6.36,16.27" fill="none" stroke="#445e9e" stroke-linecap="round" stroke-linejoin="round" stroke-width="2.07"/>
    <path d="M5.19,748.89c18.66,14.87,32.36,33.5,45.45,52.93,20.64,30.65,33.26,64.89,45.69,99.33,7.96,22.06,18.1,43.53,41.35,53.63,11.42,4.96,24.14,6.86,36.1,10.67,29.95,9.55,56.14,23.76,72.81,52.54,8.79,15.17,13.08,31.24,16.05,47.84,4.26,23.83,18.36,37.65,40.48,45.71,18.57,6.76-3.23-10.13,15.43-3.65,46.95,16.3,44.43,2.4,51.63,26.42,1.92,8.32,25.21,16.81,8.4,39.62,8.42,16.05-.52,13.26,15.54,16.12,9.27,1.65,40.3,21.95,49.46,24.02,29.03,6.54,6.06,24.8,15.6,52.67,3.26,9.52,5.36,19.54,11.34,27.97" fill="none" stroke="#445e9e" stroke-linecap="round" stroke-linejoin="round" stroke-width="2.07"/>
    <path d="M889.24,518.12c11.72,17.3,8.31,37,9.16,55.99,1.15,25.53,2,51.07,3.21,76.6.26,5.53,2.95,10.84,1.99,16.57" fill="none" stroke="#445e9e" stroke-linecap="round" stroke-linejoin="round" stroke-width="2.07"/>
    <path d="M755.57,527.52c-.13-5.08,1.61-9.75,3.08-14.5,2.07-6.65,4.5-13.02-.75-19.86-1.96-2.56-1.59-7.46-1.2-11.18,3.69-34.76,5.13-69.66,5.97-104.57.23-9.64-1.26-19.32-1.92-28.98-.31-4.46-2.83-7.88-5.18-11.39-5.18-.47-8.22,2.95-11.39,6.2-21.4,21.97-38.08,47.34-53.95,73.43-14.08,23.15-27.99,46.31-38.21,71.49-.75,1.84-1.62,4.07-3.13,5.09-10.4,7.03-9.14,17.73-9.25,28.05" fill="none" stroke="#445e9e" stroke-linecap="round" stroke-linejoin="round" stroke-width="2.07"/>
    <path d="M2237.95,289.43c.51-5.99-.16-11.32-3.98-16.68-8.71-12.23-9.71-27.35-13.47-41.33-12.33-45.92-20.37-92.88-33.28-138.67-2.83-10.04-5.63-20.06-11.35-29.01-9.69-15.15-16.9-15.32-25.86.05-9.88,16.94-16.65,35.27-22.77,53.82-5.1,15.44-10.88,30.66-14.71,46.53-.98,4.06-3.98,7.63-6.05,11.43" fill="none" stroke="#445e9e" stroke-linecap="round" stroke-linejoin="round" stroke-width="2.07"/>
    <path d="M1361.15,627.93c-10.12-16.15-13.85-34.03-14.51-52.79-.45-12.59-1.96-25.02-5.03-37.3-.99-3.96-2.35-7.31-6.36-8.12-4.09-.83-6.86,1.17-9.44,4.95-9.32,13.65-15.55,28.82-22.63,43.58-8.75,18.23-16.11,37.2-27.94,53.83" fill="none" stroke="#445e9e" stroke-linecap="round" stroke-linejoin="round" stroke-width="2.07"/>
    <path d="M274.21,208.69c17.61,15.58,29.43,34.68,37.58,56.82,6.17,16.77,21.65,26.42,34.93,37.32,10.79,8.86,21.17,18.38,26.57,31.24,4.81,11.48,9.27,23.8.54,36.27-2.1,2.99-4.7,6.81-4.38,11.22" fill="none" stroke="#445e9e" stroke-linecap="round" stroke-linejoin="round" stroke-width="2.07"/>
    <path d="M519.55,412.62c-12.78-7.38-23.71-17.49-37.2-23.94-24.09-11.52-49.33-18.42-75.56-23.05-9-1.59-18.45.49-26.99-3.72" fill="none" stroke="#445e9e" stroke-linecap="round" stroke-linejoin="round" stroke-width="2.07"/>
    <path d="M1560.94,273.9c-7.42-10.26-2.64-21.29-2.11-32.09.76-15.55,3.8-30.95,3.08-46.58-.11-2.41.14-4.71-.78-7.32-3.43-9.78-8.77-11.6-15.65-4-10.63,11.76-19.85,24.65-28,38.25-7.39,12.34-14.66,24.75-21.67,37.3-1.75,3.13-3.78,5.81-6.31,8.23" fill="none" stroke="#445e9e" stroke-linecap="round" stroke-linejoin="round" stroke-width="2.07"/>
    <path d="M857.02,580.31c.34-3.8.52-7.62,1.07-11.38.89-6.09.7-11.45-1.63-17.78-4.06-11.04-1.67-23.32-1.37-35.02.92-35.22,2.36-70.41-1-105.61-.56-5.91-.92-11.83-2.32-17.57-2.62-10.76-9.52-12.89-17.47-5.13-11.21,10.93-19.48,24.27-27.85,37.31-12.02,18.72-21.43,38.94-31.22,58.9-2.99,6.09-5.7,12.41-12.42,15.53" fill="none" stroke="#445e9e" stroke-linecap="round" stroke-linejoin="round" stroke-width="2.07"/>
    <path d="M2454.15,783.55c-38.63-29.89-178.3-109.23-227.26-107.7-28.81.9-224.88,24.42-250.5,37.64-17.65,9.11-33.03,6.18-50.06,2.53-43.62-9.35-86.21-7.8-126.25,14.42-26.55,14.74-49.58,33.85-69.42,56.87-5.25,6.1-11,11.77-16.52,17.63" fill="none" stroke="#445e9e" stroke-linecap="round" stroke-linejoin="round" stroke-width="2.07"/>
    <path d="M462.57,925.9c-10.71,1.25-70.65-10.47-81.73-12.29-14.07-2.31-27.14-6.66-37.32-17.53-9.82-10.5-21.75-12.96-36.21-11.73-62.11,5.28-117.8-12.5-167.66-49.4-11.9-8.8-23.43-18.78-38.36-21.47-12.71-2.29-25.95-3.88-38.25,2.85" fill="none" stroke="#445e9e" stroke-linecap="round" stroke-linejoin="round" stroke-width="2.07"/>
    <path d="M-62.38,229.54c32.96,36.11,70.32,64.2,119.12,75.8,21.99,5.23,44.14,9.09,66.39,11.66,25.31,2.92,47.57,11.83,67.13,27.43,14.32,11.42,29.46,21.83,41.82,35.83,6.36,7.2,17.35,4.53,25.51,3,34.49-6.48,62.85,4.89,88.04,27.31,5.65,5.03,10.88,10.55,16.62,15.46,12.46,10.67,29.03,10.27,43.64,14.96,5.54,1.78,12.72-4.29,20.56-2.76,19.61,3.82,35.34,13.57,50.97,25.76,21.82,17.01,36.44,39.24,51.36,61.53,4.8,7.16,9.68,9.78,18.79,7.45,23-5.87,46.57-8.99,70.33-9.48,25.99-.54,51.83.95,75.54,13.39,16.92,8.88,30.81,21.65,41.18,37.39,9.7,14.72,23.01,20.32,39.55,22.84,22.06,3.36,43.5,9.19,62.17,22.51,21.67,15.45,32.45,37.83,40.35,62.15,1.01,3.11,2.11,6.2,3.1,9.32,5.08,16.01,5.13,16.47,21.73,14.36,15.17-1.93,29.85-.1,44.53,3.24" fill="none" stroke="#445e9e" stroke-linecap="round" stroke-linejoin="round" stroke-width="2.07"/>
    <path d="M-61.2,347.38c12.28-9.47,25.43-16.8,40.29-21.99,31.57-11.03,55.32,1.47,69.47,26.14,8.54,14.89,16.69,30.04,25.99,44.44,15.87,24.59,38.62,36.62,68.19,34.18,13.69-1.13,26.27-4.98,36.31-15.4,12.13-12.58,25.84-22.89,43.37-27.12,3.33-.8,6.24-3.32,9.35-5.04" fill="none" stroke="#445e9e" stroke-linecap="round" stroke-linejoin="round" stroke-width="2.07"/>
    <path d="M2179.98,1223.16c-1.59-11.8-1.01-23.52-8.79-34.53-5.47-7.74-5.94-18.98-8.82-28.61-14.23-47.59-26.13-95.88-42.42-142.86-2.55-7.36-5.87-14.11-13.06-17.95-6.39,2.64-9.7,7.69-12.79,12.79-13.78,22.74-28.35,45.18-39.1,69.45-21.07,47.57-40.42,95.9-51.98,146.89-1.77,7.81-3.72,15.66-3.13,23.8.41,5.68-.37,10.99-4.16,15.53" fill="none" stroke="#445e9e" stroke-linecap="round" stroke-linejoin="round" stroke-width="2.07"/>
    <path d="M2430.24,980.82c-36.14-47.84-67.43-90.15-70.27-95.43-5.85-10.87-10.49-22.42-16.77-33.01-11.06-18.65-22.31-13.54-32.01-2.2-14.18,16.58-22.7,36.21-30.95,55.97-17.85,42.74-77.91,193.96-86.83,239.37-2.65,13.48-5.48,26.92-8.28,40.37-.97,4.67-3.92,8.16-7.23,11.39" fill="none" stroke="#445e9e" stroke-linecap="round" stroke-linejoin="round" stroke-width="2.07"/>
    <path d="M1944.99,408.47c2.01-9.34,10.66-13.21,16.82-18.33,24.51-20.38,45.48-66.64,76.42-72.37,10.72-1.98,17.95,21.42,28.94,19.43,2.95-.53,18.53,12.1,21.82,14.16,18.76,11.74,38.97,21.47,56.49,34.78,14.98,11.38,28.9,10.06,43.75,3.54,17.63-7.74,35.23-14.36,54.93-14.48,18.52-.12,34.91,6.41,50.67,14.75,31.27,16.55,59.42,37.23,82.97,63.98,9.91,11.26,24.09,15.95,38.21,16.29" fill="none" stroke="#445e9e" stroke-linecap="round" stroke-linejoin="round" stroke-width="2.07"/>
    <path d="M1914.97,417.79c-9.1,3.39-16.66,9.51-23.65,15.7-29.2,25.87-61.94,34.09-100.66,27.28-32.66-5.75-65.82-10.8-99.28-9.75-30.56.96-58.38,10.29-78.43,34.27-19.32,23.1-44.49,30.66-72.65,35.35-37.2,6.2-73.04,16.76-103.76,40.81-16.69,13.06-31.78,27.61-46.24,42.83-12.45,13.12-27.68,23.32-38.54,38.09-12.02,16.35-29.93,19.25-48.58,19.69-8.62.21-17.31-.62-25.87.14-43.96,3.91-80.43,25.01-114.94,50.58-14.22,10.54-26.39,23.3-39.24,35.31-12.32,11.51-26.24,14.32-42.55,11.51-15.13-2.61-30.5-2.12-45.51,1.9-11.08,2.97-19.69,10.52-28.89,16.69-20.63,13.83-39.35,30.16-58.04,46.47-6.26,5.46-16.41,6.45-18.78,16.5-.43,1.81-3.57,2.44-3.01,5.2" fill="none" stroke="#445e9e" stroke-linecap="round" stroke-linejoin="round" stroke-width="2.07"/>
  </g>
  <line x1="288.68" y1="658.43" x2="2462.62" y2="285.24" fill="none" stroke="url(#linear-gradient)" stroke-linecap="round" stroke-linejoin="round" stroke-width="1.26"/>
  <line x1="288.68" y1="658.43" x2="2449.34" y2="287.52" fill="none" opacity=".2" stroke="url(#linear-gradient-2)" stroke-linecap="round" stroke-linejoin="round" stroke-width="8.28"/>
  <path d="M310.5,706.31s-8.57,34.19-25.32,60.89c-9.4,14.99-10.55,11.08-14.62,20.44-4.07,9.37-46.08,44.41-98.68,29.08-52.6-15.33-55.73-34.01-62.78-43.34-7.05-9.33-16.81-56.61-16.3-56.59.88.03,217.7-10.49,217.7-10.49Z" fill="#2b3751"/>
  <path d="M211.29,681.56s69.91-5.12,87.1,7.02c17.19,12.15,12.88,16.52,9.01,27.34-3.86,10.82-29.65,27.15-44.2,29.04,0,0-6.14.57-8.54,4.22-2.4,3.65-12.7,10.41-34.08,9.35,0,0-4.63-1.97-9.76.68-5.13,2.65-34.19,5.86-48.99,1.66-14.8-4.2-17.26.6-28.33-6.02-11.07-6.63-17.26-10.7-22.99-18.52-5.73-7.82-28.31-12.11-11.84-30.72,0,0,8.78-14.64,32.55-17.83,23.78-3.18,46.78-7.57,80.06-6.23Z" fill="#576f96"/>
  <path d="M120.92,637.7c4.21-26.79,27.68-45.29,63.15-32.96,5.23.24,75.31,7.21,78.46,7.77,4.71.83,30.03,1.21,41.68,34.24,7.45,21.14-8.37,45.67-17.79,50.25-37.19,18.06-83.46,38.4-83.46,38.4l-.77.44c-12.09,10.78-33.21,8.3-33.21,8.3-38.87-4.51-55.36-59.99-48.06-106.43Z" fill="#2b3751"/>
  <path d="M171.73,747.08s62.45,1.29,44.56-85.14c-18.24-88.11-86.57-73.43-94.7-26.99-8.13,46.44,6.88,107.61,50.14,112.13Z" fill="#446099" stroke="#221a38" stroke-linecap="round" stroke-miterlimit="10" stroke-width=".83"/>
  <path d="M171,743.46s59.54.24,42.64-80.86c-17.23-82.68-80.27-72.26-88.51-25.42-7.67,43.58,4.99,102.05,45.87,106.28Z" fill="#24335b" stroke="#221a38" stroke-linecap="round" stroke-miterlimit="10" stroke-width=".83"/>
  <path d="M149.76,671.51c2.08,38.63,14.44,63.36,32.46,68.32,10.4,2.86,38.07-.18,33.87-63.96-2.89-43.88-17.87-67.28-38.03-67.39-25.57-.14-30.67,19.09-28.31,63.03Z" fill="#ff0" opacity=".1"/>
  <path d="M276.11,697.47s.72-2.43,3.33.18c2.61,2.61,2.7,6.38,0,7.19s-4.67.81-5.12-1.8c-.45-2.61.99-2.61,1.8-5.57Z" fill="#3a5084" stroke="#221a38" stroke-linecap="round" stroke-miterlimit="10" stroke-width=".83"/>
  <path d="M284.07,697.37s.18-4.49,2.07-5.03c1.89-.54,7.37,1.17,6.38,7.37s-9.71,4.67-8.45-2.34Z" fill="#3a5084" stroke="#221a38" stroke-linecap="round" stroke-miterlimit="10" stroke-width=".83"/>
  <path d="M279.12,700.63s0-2.07.99-4.4c.99-2.34,4.85-2.52,6.38.63,1.53,3.15,3.24,7.46,1.26,9.08s-4.85,1.35-6.38.45c-1.53-.9-3.15-.72-2.25-5.75Z" fill="#3a5084" stroke="#221a38" stroke-linecap="round" stroke-miterlimit="10" stroke-width=".83"/>
  <path d="M287.3,701.5s-.36-1.62,3.6-3.6c3.96-1.98,7.1,3.51,5.84,5.84-1.26,2.34-4.31,1.98-5.21,1.89,0,0-4.94.72-4.23-4.14Z" fill="#3a5084" stroke="#221a38" stroke-linecap="round" stroke-miterlimit="10" stroke-width=".83"/>
  <path d="M172.16,668.56c0-22.33,8.66-41.81,21.52-52.17,10.76,13.46,17.77,36.34,19.89,62.22,1.84,22.39-2,37.96-8.16,48.55-19.04-6.06-33.25-29.99-33.25-58.6Z" fill="#ff0" opacity=".04"/>
  <path d="M172.72,741.68c0,4.71-13.11,13.09-21.4,13.09s-11.1-.48-11.1-5.19,6.71-12.57,15-12.57,17.49-.05,17.49,4.66Z" fill="#2f3f70" opacity=".6"/>
  <g>
    <path d="M157,734.99s-2.3-.84-2.78.96c-.3,1.1-.61,2.72-.5,4.72.04.61.38,1.46-.73,1.65l-1.15.42c-1.04.23-2.69.04-2.95-1s1.05-1.51,1.92-1.42c.27.03-.19-1-.35-5.6-.15-4.6,2.88-4.26,2.88-4.26" fill="#fff" stroke="#221a38" stroke-miterlimit="10" stroke-width=".46"/>
    <path d="M169.6,724.44s.92,2.72,3.14,8.32c2.22,5.6-1.69,9.43-6.25,10.01-4.56.58-7.07-3.67-7.36-3.95-.58-.54-.89-.32-1.46,2.65-.46,2.42-1.76,2.8-1.76,2.8-3.18.96-4.53-1.04-3.99-1.73.54-.69,1.65-.73,1.65-.73l-.04-2.15c.05-3.1.67-4.27,1.98-5l-.85-6.25,4.05-3.35s9.49-2.38,10.89-.63" fill="#fff" stroke="#221a38" stroke-miterlimit="10" stroke-width=".46"/>
    <path d="M164.8,736.56s-1.73-2.27-4-2.94" fill="none" stroke="#221a38" stroke-linecap="round" stroke-miterlimit="10" stroke-width=".46"/>
    <path d="M156.21,716.37s1.31-.21,1.79,3.07c.48,3.28-.98,3.76-2.26,3.72-1.46-.04-2.09-.42-1.88-3.59.2-3.02,2.36-3.2,2.36-3.2Z" fill="#e293e2" stroke="#221a38" stroke-miterlimit="10" stroke-width=".46"/>
    <path d="M164,712.84s4.31.38,5.98,5.14c1.67,4.76-.33,9.34-6.9,9.7-6.58.36-9.01-3.95-7.94-7.9,1.07-3.95,2.17-7.67,8.86-6.94Z" fill="#fff" stroke="#221a38" stroke-miterlimit="10" stroke-width=".46"/>
    <path d="M157.36,716.03c1.25.71,1.23,1.94,1.23,1.94,0,0,.02.21.02.53.48.08.97.28.91.77-.06.47-.51.6-1.08.55-.11.4-.3.79-.61,1.06-.81.73-2.93.35-2.99-1.96-.06-2.3,1.27-3.61,2.51-2.9Z" fill="#fff" stroke="#221a38" stroke-miterlimit="10" stroke-width=".46"/>
    <path d="M156.71,717.46s.69.04.63.79c-.06.75-.19,1-.54,1.02s-.67-.06-.58-1c.1-.94.48-.81.48-.81Z" fill="#e293e2" stroke="#221a38" stroke-miterlimit="10" stroke-width=".46"/>
    <path d="M159.82,720.38s2.63.21,3.22,2.11c.59,1.9-.13,4.64-3.47,4.56-3.34-.08-3.59-3.03-3.39-4.3.19-1.27,1.48-2.72,3.64-2.38Z" fill="#e293e2" stroke="#221a38" stroke-miterlimit="10" stroke-width=".46"/>
    <path d="M159.74,721.4s-1.34-.35-1.38.54,1.21.84,1.21.84" fill="none" stroke="#221a38" stroke-linecap="round" stroke-miterlimit="10" stroke-width=".46"/>
    <path d="M160.28,724.41s-1.19.13-1.61.08" fill="none" stroke="#221a38" stroke-linecap="round" stroke-miterlimit="10" stroke-width=".46"/>
    <path d="M169.81,717.43s1.98-.27,2.49,3.3c.52,3.57-.42,4.08-1.82,4.2s-2.65-.17-2.61-4.2c.04-3.3,1.94-3.3,1.94-3.3Z" fill="#e293e2" stroke="#221a38" stroke-miterlimit="10" stroke-width=".46"/>
    <g>
      <path d="M161.09,719.53c.07-.52.67-.56,1.17-.49.02-.3.19-1.25,1.22-1.84,1.25-.71,2.57.59,2.51,2.9-.06,2.3-2.18,2.69-2.99,1.96-.46-.41-.65-1.08-.73-1.67-.71-.06-1.26-.3-1.18-.85Z" fill="none" stroke="#221a38" stroke-miterlimit="10" stroke-width=".46"/>
      <path d="M163.34,718.71s.42-.23.67.56c.25.79-.15,1.42-.56,1.44s-.54-.6-.58-1.13c-.04-.61.46-.86.46-.86Z" fill="#e293e2" stroke="#221a38" stroke-miterlimit="10" stroke-width=".46"/>
    </g>
    <path d="M154.66,728.42s-1.04.83-2.08,3.24l3.51,3.46,2.36-1.75-3.79-4.95Z" fill="#fff"/>
    <path d="M157.78,729.08s-2.49,1.92-1.61,2.57,1.61,2.19,1.76,3.64c.15,1.46-.19.61-.58,1-.38.38-.77-.19-.77-.19-.23-1.34-3.72-3.49-3.26-5.64.35-1.61,2.78-3.39,3.98-4.19" fill="none" stroke="#221a38" stroke-linecap="round" stroke-miterlimit="10" stroke-width=".46"/>
    <path d="M164.26,731.92s-3.64,2.18-5.39,2.52c-3.22.62-8.04-.64-8.69-.41-.65.23-.75-.98-.04-1.38.6-.34,5.37-.32,7.79-.46,1.19-.07,3.45-1.35,3.45-1.35" fill="#fff" stroke="#221a38" stroke-linecap="round" stroke-miterlimit="10" stroke-width=".46"/>
  </g>
  <path d="M157.97,714.41s5.19-2.07,9.59,2.85c4.41,4.93.91,9.2,1.81,12.06.91,2.85,4.41,6.87,1.94,10.63-2.46,3.76-5.83,4.28-7.91,2.46s-5.44-4.8-5.44-4.15-.26,5.96-2.98,6.22-3.24-1.69-3.24-1.69c0,0-4.28.52-2.07-1.43,2.2-1.94-.78-9.46,2.85-10.11,0,0,.91-2.07,4.8-5.32,0,0-2.2-1.3-2.46-2.85,0,0-2.72-1.43.39-5.83,0,0,3.11-3.5,2.72-2.85Z" fill="#2f3f70" opacity=".6"/>
  <text transform="translate(1034.26 137.21)" fill="#fff" font-family="Davis-Regular, Davis" font-size="78.67"><tspan x="0" y="0">The Cup</tspan></text>
  <polygon points="1994.58 354.24 1969.9 384.65 2098.91 358.69 2091.22 353.92 2076.28 343.5 1994.58 354.24" fill="#1d253a"/>
</svg>