<?xml version="1.0" encoding="UTF-8"?>
<svg id="Layer_1" data-name="Layer 1" xmlns="http://www.w3.org/2000/svg" width="600" height="800" xmlns:xlink="http://www.w3.org/1999/xlink" viewBox="0 0 600 800">
  <defs>
    <clipPath id="clippath">
      <rect width="600" height="800" fill="none"/>
    </clipPath>
    <linearGradient id="linear-gradient" x1="141.52" y1="406.34" x2="615" y2="406.34" gradientUnits="userSpaceOnUse">
      <stop offset="0" stop-color="#fdef4b"/>
      <stop offset="1" stop-color="#fdef4b" stop-opacity=".2"/>
    </linearGradient>
    <linearGradient id="linear-gradient-2" x1="140.09" y1="406.81" x2="611.01" y2="406.81" xlink:href="#linear-gradient"/>
  </defs>
  <g clip-path="url(#clippath)">
    <rect width="600" height="800" fill="#1d253a"/>
    <g>
      <path d="M619.82,58.98c-11.23-4.12-20.16-.33-28.32,6.92-3.04,2.7-5.66,5.88-8.49,8.83-1.61,1.68-3.18,2.5-5.93,2.28-8-.65-16.06-1.42-24.08.25-7.81,1.62-13.69,5.88-17.73,12.7-.75,1.27-1.88,2.73-1.21,4.18.86,1.85-.13,3.27-1,4.19-2.58,2.74-1.66,5.86-.23,8.03,8.74,13.18,14.22,27.99,21.39,41.94,6.3,12.25,15.02,22.26,26.72,29.48,4.21,2.6,9.07,4.11,13.46,6.46,11.16,5.97,18.82,15.64,25.69,25.82" fill="none" stroke="#445e9e" stroke-linecap="round" stroke-linejoin="round" stroke-width=".85"/>
      <path d="M531.02,101.35c-2.89-.38-4.58-1.89-6.01-4.6-5.09-9.63-13.92-15.35-22.68-21.26-12.11-8.16-25.71-10.14-39.76-11.47-9.45-.9-19.14.28-28.26-1.5-10.31-2.01-18.51,1.52-27.15,5.37-.48.22-1.17.52-2.13.22-1.51-.46-3.49-.27-5,.33-12.37,4.89-23.19,11.98-31.29,22.76-.19.25-.35.54-.42.84-1.81,8.34-8.95,11.12-15.13,15.35-13.69,9.37-28.83,14.59-44.9,17.56-6.14,1.14-12.41,1.62-18.58,2.61-10.41,1.66-18.9,7.17-26.14,14.41-8.19,8.19-18.1,11.26-29.23,11.3-7.8.03-15.94-.44-23.14,2.04-8.73,3.02-17.6,6.07-25.54,11.41-15.66,10.51-27.98,24.4-40.5,38.14-.47.51-1.11.86-1.68,1.28-1.02.19-1.2-.67-1.73-1.23-1.86-1.95-5.18-2.59-5.44-5.96-.21-2.73,1.58-4.92,2.65-7.12,4.13-8.5,9.01-16.62,12.56-25.41,1.87-4.62,3.03-9.35,2.96-14.37-.09-6.67,1.36-13.9-1.95-19.72" fill="none" stroke="#445e9e" stroke-linecap="round" stroke-linejoin="round" stroke-width=".85"/>
      <path d="M509.89,447.06c5.26-3.96,6.75-10.24,9.79-15.6,2.34-4.13,5-8.17,8.06-11.79,2.07-2.45,5.04-1.06,6.64,2.89,1.4,3.47,2.46,7.08,3.87,10.54.86,2.09,1.39,4.43,3.52,6.01,2.92-1.51,6.02,1.56,9.12-.08" fill="none" stroke="#445e9e" stroke-linecap="round" stroke-linejoin="round" stroke-width=".85"/>
      <path d="M606.67,410.71c-1.68-2.48-1.6-5.35-1.2-8.02,1.18-7.86,1.69-15.74,1.62-23.68,0-.42.07-.86-.01-1.27-.35-1.84-1.07-3.65-2.97-4.15-1.84-.49-3,1.22-3.72,2.5-3.75,6.59-6.73,13.56-9.35,20.68-3.27,8.87-6.59,17.71-9.66,26.64-.87,2.52-2.39,4.27-4.29,5.89" fill="none" stroke="#445e9e" stroke-linecap="round" stroke-linejoin="round" stroke-width=".85"/>
      <path d="M603.22,545.42c-13.81,9.88-21.28,23.43-25.28,39.41-2.75,10.96-9.3-7.44-20.22-3.63-11.92,4.16-24.3,6.74-36.03,11.55-9.3,3.82-17.08,9.74-24.86,15.78-3.14,2.44-6.08,5.18-8.87,8.03-3.02,3.08-6.01,3.8-10.22,2.18-7.41-2.84-14.92-4.96-23.22-4.05-10.25,1.12-21.69-30.18-30.96-26.16-6.62,2.87-10.93-2.69-17.16,1.02-1.77,1.05-3.97,2.26-3.85,5" fill="none" stroke="#445e9e" stroke-linecap="round" stroke-linejoin="round" stroke-width=".85"/>
      <path d="M628.69,333.4c-3.13,4.41-7.04,5.91-12.31,4.66-5.02-1.19-10.11-2.18-15.21-2.97-13.08-2.02-23.9,2.66-32.92,11.84-4.33,4.41-8.6,8.97-12.22,13.96-7.18,9.92-17.54,14.55-28.33,19.11-9.42,3.98-19.7,5.44-28.75,10.1-9.38,4.82-14.75,12.82-15.72,23.56-.41,4.52,1.8,7.33,5.52,9.3,6.35,3.37,13.32,3.87,20.29,4.2,3.74.18,7.53-.19,10.99,1.72" fill="none" stroke="#445e9e" stroke-linecap="round" stroke-linejoin="round" stroke-width=".85"/>
      <path d="M386.91,392.54c-2.39.43-3.25,2.2-4.31,4.18-2,3.75-3.52,7.89-7.1,10.61" fill="none" stroke="#445e9e" stroke-linecap="round" stroke-linejoin="round" stroke-width=".85"/>
      <path d="M445.23,490.59c-1.17-4.95-5.4-7.48-8.98-10-7.56-5.33-16.09-8.9-25.25-10.71" fill="none" stroke="#445e9e" stroke-linecap="round" stroke-linejoin="round" stroke-width=".85"/>
      <path d="M504.4,440.72c-1.19.76-2.48,1.11-3.46,2.48-4.77,6.7-8.57,13.87-11.36,21.6-.74,2.06-.32,3.42,1.72,4.24" fill="none" stroke="#445e9e" stroke-linecap="round" stroke-linejoin="round" stroke-width=".85"/>
      <path d="M51.35,790.01c-6.05.43-7.8,2.28-7.59,8.24.21,6.2,1.16,12.37.83,18.6" fill="none" stroke="#445e9e" stroke-linecap="round" stroke-linejoin="round" stroke-width=".85"/>
      <path d="M94.88,792.76c-2.68.7-5.35,1.41-8.03,2.11" fill="none" stroke="#445e9e" stroke-linecap="round" stroke-linejoin="round" stroke-width=".85"/>
      <path d="M209.83,153.76c-.69-5.07-.22-10.13-.09-15.22.2-7.88-.16-15.78-.37-23.66-.03-1.27-.37-2.6-.84-3.79-1.4-3.54-3.2-3.94-5.87-1.26-2.91,2.92-4.84,6.55-6.76,10.14-4.26,7.95-7.97,16.18-11.34,24.54-.41,1.01-.75,2.36-1.42,2.84-3.4,2.47-3.98,6.11-4.59,9.8" fill="none" stroke="#445e9e" stroke-linecap="round" stroke-linejoin="round" stroke-width=".85"/>
      <path d="M598.25,620c-16.75,5.2-31.09-2.85-41.06,12.14-2.72,4.1-7.57,4.89-11.82,6.3-10.69,3.54-21.35,1.55-32.12-.25-12.75-2.13-23.7,9.1-34.25,2.05-7.59-5.07-15.95-8.72-25.31-7.55-8.1,1.01-16.08-7.21-24.1-5.59-6.85,1.38-13.74-31.35-20.71-30.87-.56.04-1.21.19-1.68-.02-6.31-2.91-12.14,25.99-18.19,26.65" fill="none" stroke="#445e9e" stroke-linecap="round" stroke-linejoin="round" stroke-width=".85"/>
      <path d="M401.7,525.24c-4.48-.42-8.3,2.21-12.67,2.65-7.09.71-14.13.12-21.13-.26-11.01-.6-20.82,2.66-30.44,7.31-8.74,4.22-17.31,8.76-26.15,12.8-8.28,3.78-16.53,2.84-24.98,1.61-11.91-1.73-23.75-4.81-35.91-2.53-10.72,2.01-20.61,6.45-30.39,11.06-2.23,1.05-4.27.52-6.39.73-9.8.96-19.48,2.1-27.93,7.99-3.61,2.51-6.44,5.48-8.42,9.36-4.35,8.55-.19,15.66,9.72,16.92,1.13.14,2.44.36,3.37.27,4.84-.49,7.01,2.38,8.91,6.05,2.45,4.7,5.16,9.22,8.83,13.13,10.41,11.08,23.67,16.74,38.06,20.25,10.6,2.58,21.42,2.33,32.1,1.17,16.41-1.78,22.04-24.97,38.41-21.68,11.23,2.26,31.66-14.31,41.03-8.16,8.44,5.54,17.08,10.56,26.65,13.93,3.35,1.18,4.17,4.34,3.04,7.6-2.42,7-25.26-1.81-32.48-1.93-21.29-.34-75.31,14.67-87.77,30.69-2.53,3.25-5.3,6.33-7.55,9.76-3.27,4.98-8.04,6.82-13.58,7.58-8.81,1.21-17.57,11.2-25.77,14.8-13.6,5.97-1.45,29.44-9.71,42.68-1.43,2.29-2.67,4.73-3.8,7.18-1.45,3.15-3.79,4.44-7.21,4.24-4.36-.25,22.69,25.81,18.33,25.71-12.4-.3-23.26,3.94-32.95,11.42-3.73,2.87-7.44,5.78-10.97,8.89-5.81,5.12-12.25,7.05-19.89,5.07-16.18-4.19-31.83-1.66-47.35,3.72-15.35,5.32-29.54,12.53-41.86,23.26-2.72,2.37-5.47,4.48-5.46,8.5" fill="none" stroke="#445e9e" stroke-linecap="round" stroke-linejoin="round" stroke-width=".85"/>
      <path d="M224.63,373.1c3.49-2.7,6.57-5.48,6.48-10.57-.03-1.67,1.64-3.34,2.38-5.07,8.53-19.92,19.93-38.14,33.04-55.31,1.11-1.45,2.38-4.11,4.52-3.26,2.02.81,2.41,3.41,2.65,5.74.88,8.75,1.75,17.5,2.96,26.2,1.96,14.11,4.3,28.16,6.22,42.28.52,3.86-.28,7.94,3.04,10.98" fill="none" stroke="#445e9e" stroke-linecap="round" stroke-linejoin="round" stroke-width=".85"/>
      <path d="M180.25,149.96c-2.11-1.95-2.57-4.39-2.58-7.18-.03-11.27-.25-11.55-.37-22.82-.03-3.21-.67-6.21-2.75-8.9-3.86.21-4.89,3.8-6.48,6.41-4.03,6.63-7.81,2.42-11.39,9.3-.91,1.75-2.15,2.93-3.47,4.18" fill="none" stroke="#445e9e" stroke-linecap="round" stroke-linejoin="round" stroke-width=".85"/>
      <path d="M26.05,485.87c7.62,6.07,13.21,13.68,18.56,21.61,8.43,12.51,13.58,26.49,18.65,40.55,3.25,9.01,7.39,17.77,16.88,21.89,4.66,2.02,9.85,2.8,14.74,4.36,12.23,3.9,22.92,9.7,29.73,21.45,3.59,6.19,5.34,12.75,6.55,19.53,1.74,9.73,7.5,15.37,16.53,18.66,7.58,2.76-1.32-4.13,6.3-1.49,19.17,6.66,18.14.98,21.08,10.78.78,3.4,10.29,6.86,3.43,16.18,3.44,6.55-.21,5.41,6.34,6.58,3.78.67,16.45,8.96,20.19,9.8,11.85,2.67,2.47,10.12,6.37,21.5,1.33,3.89,2.19,7.98,4.63,11.42" fill="none" stroke="#445e9e" stroke-linecap="round" stroke-linejoin="round" stroke-width=".85"/>
      <path d="M386.96,391.66c4.79,7.06,3.39,15.1,3.74,22.86.47,10.42.82,20.85,1.31,31.27.11,2.26,1.2,4.43.81,6.76" fill="none" stroke="#445e9e" stroke-linecap="round" stroke-linejoin="round" stroke-width=".85"/>
      <path d="M332.39,395.5c-.05-2.07.66-3.98,1.26-5.92.84-2.72,1.84-5.31-.31-8.11-.8-1.04-.65-3.05-.49-4.56,1.51-14.19,2.09-28.44,2.44-42.69.1-3.94-.51-7.89-.78-11.83-.12-1.82-1.16-3.22-2.12-4.65-2.11-.19-3.36,1.2-4.65,2.53-8.73,8.97-15.55,19.33-22.02,29.98-5.75,9.45-11.43,18.91-15.6,29.19-.31.75-.66,1.66-1.28,2.08-4.25,2.87-3.73,7.24-3.78,11.45" fill="none" stroke="#445e9e" stroke-linecap="round" stroke-linejoin="round" stroke-width=".85"/>
      <path d="M579.63,436.49c-4.13-6.59-5.65-13.89-5.92-21.55-.18-5.14-.8-10.22-2.06-15.23-.4-1.62-.96-2.98-2.6-3.32-1.67-.34-2.8.48-3.85,2.02-3.81,5.57-6.35,11.76-9.24,17.79-3.57,7.44-6.58,15.19-11.41,21.98" fill="none" stroke="#445e9e" stroke-linecap="round" stroke-linejoin="round" stroke-width=".85"/>
      <path d="M135.88,265.33c7.19,6.36,12.01,14.16,15.34,23.2,2.52,6.85,8.84,10.79,14.26,15.24,4.41,3.62,8.64,7.5,10.85,12.75,1.97,4.69,3.79,9.72.22,14.81-.86,1.22-1.92,2.78-1.79,4.58" fill="none" stroke="#445e9e" stroke-linecap="round" stroke-linejoin="round" stroke-width=".85"/>
      <path d="M236.04,348.59c-5.22-3.01-9.68-7.14-15.19-9.78-9.84-4.7-20.14-7.52-30.85-9.41-3.67-.65-7.53.2-11.02-1.52" fill="none" stroke="#445e9e" stroke-linecap="round" stroke-linejoin="round" stroke-width=".85"/>
      <path d="M373.81,417.05c.14-1.55.21-3.11.44-4.65.36-2.49.28-4.67-.67-7.26-1.66-4.51-.68-9.52-.56-14.3.38-14.38.96-28.75-.41-43.12-.23-2.41-.37-4.83-.95-7.17-1.07-4.39-3.89-5.26-7.13-2.09-4.58,4.46-7.95,9.91-11.37,15.23-4.91,7.64-8.75,15.9-12.75,24.05-1.22,2.48-2.33,5.07-5.07,6.34" fill="none" stroke="#445e9e" stroke-linecap="round" stroke-linejoin="round" stroke-width=".85"/>
      <path d="M212.77,558.14c-4.37.51-28.84-4.28-33.37-5.02-5.74-.94-11.08-2.72-15.23-7.16-4.01-4.29-8.88-5.29-14.78-4.79-25.36,2.16-48.09-5.1-68.45-20.17-4.86-3.59-9.57-7.67-15.66-8.76-5.19-.93-10.59-1.58-15.62,1.16" fill="none" stroke="#445e9e" stroke-linecap="round" stroke-linejoin="round" stroke-width=".85"/>
      <path d="M-9.08,253.5c-1.14,8.14,2.15,14.44,7.54,20.35,13.46,14.74,28.71,26.21,48.63,30.94,8.98,2.13,18.02,3.71,27.1,4.76,10.33,1.19,19.42,4.83,27.41,11.2,5.85,4.66,12.03,8.91,17.07,14.63,2.59,2.94,7.08,1.85,10.41,1.22,14.08-2.65,25.66,2,35.94,11.15,2.31,2.05,4.44,4.31,6.79,6.31,5.09,4.36,11.85,4.19,17.81,6.11,2.26.73,5.19-1.75,8.39-1.13,8.01,1.56,14.43,5.54,20.81,10.52,8.91,6.94,14.88,16.02,20.97,25.12,1.96,2.92,3.95,3.99,7.67,3.04,9.39-2.39,19.01-3.67,28.71-3.87,10.61-.22,21.16.39,30.84,5.47,6.91,3.62,12.58,8.84,16.81,15.26,3.96,6.01,9.39,8.3,16.15,9.32,9.01,1.37,17.76,3.75,25.38,9.19,8.84,6.31,13.25,15.44,16.47,25.37.41,1.27.86,2.53,1.26,3.8,2.07,6.54,2.09,6.72,8.87,5.86,6.19-.79,12.19-.04,18.18,1.32" fill="none" stroke="#445e9e" stroke-linecap="round" stroke-linejoin="round" stroke-width=".85"/>
      <path d="M-58.53,307.59c4.31-1.82,8.76-.73,13.1-.36,9.59.83,18.92,2.84,27.03,8.43,2.71,1.86,5.08,4.21,7.64,6.3,4.69,3.83,4.72,3.85,9.71,0,5.01-3.87,10.38-6.86,16.45-8.98,12.89-4.5,22.59.6,28.36,10.67,3.49,6.08,6.81,12.26,10.61,18.14,6.48,10.04,15.77,14.95,27.84,13.95,5.59-.46,10.72-2.03,14.82-6.29,4.95-5.14,10.55-9.34,17.71-11.07,1.36-.33,2.55-1.35,3.82-2.06" fill="none" stroke="#445e9e" stroke-linecap="round" stroke-linejoin="round" stroke-width=".85"/>
      <path d="M48.39,789.8c3.04-23.54,10.95-45.76,18.63-68.03,2.78-8.06,5.7-16.09,9.67-23.69,1-1.92,2.05-3.75,3.82-5.06,1.26-.93,1.86-.13,2.55.84,4.2,5.81,5.06,12.72,6.28,19.46,2.66,14.66,2.71,29.54,3.45,44.37.63,12.56,1.18,25.14,2.95,37.61.14,1.01.55,1.97.83,2.96" fill="none" stroke="#445e9e" stroke-linecap="round" stroke-linejoin="round" stroke-width=".85"/>
      <path d="M43.32,792.34c-2.74-1.98-3.7-4.48-3.93-8.02-1.59-24.79-.27-49.6-.7-74.39-.07-4.17-.43-8.44-1.87-12.19-2.1-5.44-4.23-6.75-9.12-3-5.14,3.94-8.62,9.26-11.86,14.77-9.07,15.45-16.8,31.63-25.62,47.18-3.04,5.37-5.01,11.36-8.89,16.32-.89,1.14-1.78,3.02-2.75,3.54-3.23,1.72-3.3,4.42-3.3,7.34" fill="none" stroke="#445e9e" stroke-linecap="round" stroke-linejoin="round" stroke-width=".85"/>
      <path d="M610.4,409.35c-6.81,5.33-12.98,11.27-18.88,17.49-5.08,5.36-11.3,9.52-15.73,15.55-4.91,6.68-12.22,7.86-19.83,8.04-3.52.08-7.07-.25-10.56.06-17.95,1.6-32.84,10.21-46.93,20.65-5.8,4.3-10.77,9.51-16.02,14.42-5.03,4.7-10.71,5.85-17.37,4.7-6.18-1.07-12.45-.87-18.58.78-4.52,1.21-8.04,4.29-11.8,6.81-8.42,5.64-16.07,12.31-23.69,18.97-2.56,2.23-6.7,2.63-7.67,6.74-.17.74-1.46,1-1.23,2.12" fill="none" stroke="#445e9e" stroke-linecap="round" stroke-linejoin="round" stroke-width=".85"/>
    </g>
    <line x1="141.78" y1="448.94" x2="614.74" y2="363.74" fill="none" stroke="url(#linear-gradient)" stroke-linecap="round" stroke-linejoin="round" stroke-width=".51"/>
    <line x1="141.78" y1="448.94" x2="609.32" y2="364.67" fill="none" opacity=".2" stroke="url(#linear-gradient-2)" stroke-linecap="round" stroke-linejoin="round" stroke-width="3.38"/>
    <path d="M150.69,468.49s-3.5,13.96-10.34,24.86c-3.84,6.12-4.31,4.52-5.97,8.35-1.66,3.82-18.81,18.13-40.29,11.87-21.48-6.26-22.75-13.88-25.63-17.69-2.88-3.81-6.86-23.11-6.65-23.1.36.01,88.88-4.28,88.88-4.28Z" fill="#2b3751"/>
    <path d="M110.19,458.39s28.54-2.09,35.56,2.87c7.02,4.96,5.26,6.74,3.68,11.16-1.58,4.42-12.11,11.08-18.04,11.86,0,0-2.51.23-3.49,1.72-.98,1.49-5.18,4.25-13.91,3.82,0,0-1.89-.8-3.98.28s-13.96,2.39-20,.68c-6.04-1.72-7.05.25-11.57-2.46-4.52-2.71-7.05-4.37-9.39-7.56s-11.56-4.94-4.83-12.54c0,0,3.58-5.98,13.29-7.28,9.71-1.3,19.1-3.09,32.68-2.54Z" fill="#576f96"/>
    <path d="M73.29,440.48c1.72-10.94,11.3-18.49,25.78-13.46,2.14.1,30.74,2.94,32.03,3.17,1.92.34,12.26.49,17.01,13.98,3.04,8.63-3.42,18.65-7.26,20.51-15.18,7.37-34.07,15.68-34.07,15.68l-.31.18c-4.94,4.4-13.56,3.39-13.56,3.39-15.87-1.84-22.6-24.49-19.62-43.45Z" fill="#2b3751"/>
    <path d="M94.04,485.13s25.5.53,18.19-34.76c-7.45-35.97-35.34-29.98-38.66-11.02-3.32,18.96,2.81,43.93,20.47,45.78Z" fill="#446099" stroke="#221a38" stroke-linecap="round" stroke-miterlimit="10" stroke-width=".34"/>
    <path d="M93.74,483.65s24.31.1,17.41-33.01c-7.04-33.76-32.77-29.5-36.13-10.38-3.13,17.79,2.04,41.66,18.73,43.39Z" fill="#24335b" stroke="#221a38" stroke-linecap="round" stroke-miterlimit="10" stroke-width=".34"/>
    <path d="M85.06,454.28c.85,15.77,5.89,25.87,13.25,27.89,4.24,1.17,15.54-.07,13.83-26.11-1.18-17.92-7.3-27.47-15.52-27.51-10.44-.06-12.52,7.79-11.56,25.73Z" fill="#ff0" opacity=".1"/>
    <path d="M136.65,464.88s.29-.99,1.36.07c1.06,1.06,1.1,2.61,0,2.94s-1.91.33-2.09-.73.4-1.06.73-2.28Z" fill="#3a5084" stroke="#221a38" stroke-linecap="round" stroke-miterlimit="10" stroke-width=".34"/>
    <path d="M139.9,464.84s.07-1.84.84-2.06,3.01.48,2.61,3.01-3.96,1.91-3.45-.95Z" fill="#3a5084" stroke="#221a38" stroke-linecap="round" stroke-miterlimit="10" stroke-width=".34"/>
    <path d="M137.88,466.17s0-.84.4-1.8c.4-.95,1.98-1.03,2.61.26.62,1.28,1.32,3.05.51,3.71s-1.98.55-2.61.18-1.28-.29-.92-2.35Z" fill="#3a5084" stroke="#221a38" stroke-linecap="round" stroke-miterlimit="10" stroke-width=".34"/>
    <path d="M141.22,466.53s-.15-.66,1.47-1.47c1.61-.81,2.9,1.43,2.39,2.39-.51.95-1.76.81-2.13.77,0,0-2.02.29-1.72-1.69Z" fill="#3a5084" stroke="#221a38" stroke-linecap="round" stroke-miterlimit="10" stroke-width=".34"/>
    <path d="M94.21,453.08c0-9.12,3.54-17.07,8.79-21.3,4.39,5.5,7.25,14.84,8.12,25.4.75,9.14-.82,15.5-3.33,19.82-7.77-2.48-13.58-12.25-13.58-23.92Z" fill="#ff0" opacity=".04"/>
    <path d="M94.44,482.93c0,1.92-5.35,5.35-8.74,5.35s-4.53-.2-4.53-2.12,2.74-5.13,6.13-5.13,7.14-.02,7.14,1.9Z" fill="#2f3f70" opacity=".6"/>
    <g>
      <path d="M88.02,480.2s-.94-.34-1.14.39c-.12.45-.25,1.11-.2,1.93.01.25.16.59-.3.67l-.47.17c-.42.09-1.1.02-1.21-.41s.43-.62.78-.58c.11.01-.08-.41-.14-2.29-.06-1.88,1.17-1.74,1.17-1.74" fill="#fff" stroke="#221a38" stroke-miterlimit="10" stroke-width=".19"/>
      <path d="M93.16,475.89s.38,1.11,1.28,3.4-.69,3.85-2.55,4.09-2.88-1.5-3.01-1.61c-.23-.22-.36-.13-.59,1.08-.19.99-.72,1.14-.72,1.14-1.3.39-1.85-.42-1.63-.7s.67-.3.67-.3l-.02-.88c.02-1.27.27-1.75.81-2.04l-.35-2.55,1.65-1.37s3.87-.97,4.45-.26" fill="#fff" stroke="#221a38" stroke-miterlimit="10" stroke-width=".19"/>
      <path d="M91.21,480.84s-.7-.92-1.63-1.2" fill="none" stroke="#221a38" stroke-linecap="round" stroke-miterlimit="10" stroke-width=".19"/>
      <path d="M87.7,472.6s.53-.09.73,1.25-.4,1.53-.92,1.52c-.59-.02-.85-.17-.77-1.46.08-1.23.96-1.31.96-1.31Z" fill="#e293e2" stroke="#221a38" stroke-miterlimit="10" stroke-width=".19"/>
      <path d="M90.88,471.16s1.76.16,2.44,2.1-.13,3.81-2.82,3.96-3.68-1.61-3.24-3.23c.44-1.61.88-3.13,3.62-2.83Z" fill="#fff" stroke="#221a38" stroke-miterlimit="10" stroke-width=".19"/>
      <path d="M88.17,472.46c.51.29.5.79.5.79,0,0,0,.09,0,.22.19.03.4.12.37.32-.03.19-.21.25-.44.22-.05.16-.12.32-.25.43-.33.3-1.2.14-1.22-.8-.02-.94.52-1.47,1.03-1.18Z" fill="#fff" stroke="#221a38" stroke-miterlimit="10" stroke-width=".19"/>
      <path d="M87.9,473.04s.28.02.26.32-.08.41-.22.41-.27-.02-.23-.41.2-.33.2-.33Z" fill="#e293e2" stroke="#221a38" stroke-miterlimit="10" stroke-width=".19"/>
      <path d="M89.17,474.23s1.07.09,1.32.86-.05,1.89-1.42,1.86-1.46-1.24-1.39-1.75.6-1.11,1.49-.97Z" fill="#e293e2" stroke="#221a38" stroke-miterlimit="10" stroke-width=".19"/>
      <path d="M89.14,474.65s-.55-.14-.56.22.49.34.49.34" fill="none" stroke="#221a38" stroke-linecap="round" stroke-miterlimit="10" stroke-width=".19"/>
      <path d="M89.36,475.88s-.49.05-.66.03" fill="none" stroke="#221a38" stroke-linecap="round" stroke-miterlimit="10" stroke-width=".19"/>
      <path d="M93.25,473.03s.81-.11,1.02,1.35-.17,1.67-.74,1.71-1.08-.07-1.06-1.71c.02-1.35.79-1.35.79-1.35Z" fill="#e293e2" stroke="#221a38" stroke-miterlimit="10" stroke-width=".19"/>
      <g>
        <path d="M89.69,473.88c.03-.21.27-.23.48-.2.01-.12.08-.51.5-.75.51-.29,1.05.24,1.03,1.18-.02.94-.89,1.1-1.22.8-.19-.17-.27-.44-.3-.68-.29-.03-.51-.12-.48-.35Z" fill="none" stroke="#221a38" stroke-miterlimit="10" stroke-width=".19"/>
        <path d="M90.61,473.55s.17-.09.27.23-.06.58-.23.59-.22-.24-.23-.46c-.02-.25.19-.35.19-.35Z" fill="#e293e2" stroke="#221a38" stroke-miterlimit="10" stroke-width=".19"/>
      </g>
      <path d="M87.07,477.52s-.42.34-.85,1.32l1.43,1.41.97-.71-1.55-2.02Z" fill="#fff"/>
      <path d="M88.34,477.79s-1.02.78-.66,1.05.66.89.72,1.49-.08.25-.23.41-.31-.08-.31-.08c-.09-.55-1.52-1.42-1.33-2.3.14-.66,1.14-1.39,1.62-1.71" fill="none" stroke="#221a38" stroke-linecap="round" stroke-miterlimit="10" stroke-width=".19"/>
      <path d="M90.99,478.95s-1.48.89-2.2,1.03c-1.32.25-3.28-.26-3.55-.17s-.31-.4-.02-.56c.25-.14,2.19-.13,3.18-.19.48-.03,1.41-.55,1.41-.55" fill="#fff" stroke="#221a38" stroke-linecap="round" stroke-miterlimit="10" stroke-width=".19"/>
    </g>
    <path d="M88.42,471.8s2.12-.85,3.92,1.16.37,3.76.74,4.92,1.8,2.81.79,4.34c-1.01,1.53-2.38,1.75-3.23,1.01s-2.22-1.96-2.22-1.69-.11,2.43-1.22,2.54-1.32-.69-1.32-.69c0,0-1.75.21-.85-.58.9-.79-.32-3.86,1.16-4.13,0,0,.37-.85,1.96-2.17,0,0-.9-.53-1.01-1.16,0,0-1.11-.58.16-2.38,0,0,1.27-1.43,1.11-1.16Z" fill="#2f3f70" opacity=".6"/>
    <g>
      <path d="M166.18,137.21v-6.14h6.45v-42.96h-10.7c-.87,0-.94.16-.94,1.02v7.32h-6.61v-13.14c0-.79.55-1.18,1.18-1.18h41.54c.63,0,1.18.39,1.18,1.18v13.14h-6.61v-7.32c0-.87-.08-1.02-.94-1.02h-10.7v42.96h6.45v6.14h-20.3Z" fill="#fff"/>
      <path d="M225.81,137.21v-5.82h4.48v-14.48c0-7.71-3.38-9.28-7-9.28s-9.28,2.68-9.28,10.54v13.22h4.48v5.82h-16.36v-5.82h5.27v-42.17c0-.87-.08-1.26-.94-1.26h-4.33v-5.82h8.5c1.49,0,3.38.16,3.38,3.3v21.87c.63-1.1,4.09-5.82,11.01-5.82s11.88,4.25,11.88,12.9v16.99h4.56v5.82h-15.66Z" fill="#fff"/>
      <path d="M254.45,121.39c0,6.53,2.99,10.78,9.91,10.78s9.91-4.88,9.91-4.96l4.41,3.7s-4.56,7.24-14.48,7.24-17.15-6.29-17.15-18.33,8.02-18.33,17.15-18.33,15.89,6.06,15.89,19.9h-25.65ZM272.7,116.04c-.63-5.74-3.78-9.05-8.81-9.05s-8.65,3.3-9.44,9.05h18.25Z" fill="#fff"/>
      <path d="M355.7,124.62s-6.14,13.85-23.76,13.85-27.14-13.85-27.14-28.64,9.52-28.64,27.3-28.64c7.08,0,12.43,2.2,15.89,6.45l.79-5.51h5.66v17.94h-5.98c0-5.35-4.88-12.43-16.21-12.43s-19.59,8.5-19.59,22.19,8.26,22.03,19.75,22.03,16.29-7.71,17.78-10.86l5.51,3.62Z" fill="#fff"/>
      <path d="M391.34,137.21c-2.68,0-3.38-1.26-3.38-3.3v-1.57c-.63,1.1-3.85,5.82-10.78,5.82s-11.72-4.25-11.72-12.9v-15.73c0-.87-.08-1.26-.94-1.26h-3.62v-5.82h7.79c1.49,0,3.38.16,3.38,3.3v16.99c0,7.71,3.23,9.28,6.84,9.28s9.05-2.67,9.05-10.54v-11.96c0-.87-.08-1.26-.94-1.26h-3.54v-5.82h7.71c1.49,0,3.38.16,3.38,3.3v24.31c0,1.18.24,1.34.94,1.34h4.33v5.82h-8.5Z" fill="#fff"/>
      <path d="M404.4,153.41v-5.82h5.27v-38c0-1.1-.16-1.34-.94-1.34h-4.33v-5.82h8.5c2.36,0,3.38.87,3.38,3.3v1.02s3.23-5.27,10.86-5.27c10.94,0,16.99,8.81,16.99,18.33s-6.06,18.33-17.39,18.33c-5.98,0-9.05-3.3-10.46-5.66v15.11h5.43v5.82h-17.31ZM436.58,119.82c0-6.92-2.99-12.67-10.15-12.67s-10.31,5.74-10.31,12.67,3.15,12.67,10.31,12.67,10.15-5.74,10.15-12.67Z" fill="#fff"/>
    </g>
    <path d="M541.05,374.27s-6.59,3.25-8.81,4.27-7.89,3.26-7.89,3.26l75.66-8.02-.02-11.66-58.93,12.16Z" fill="#1d253a"/>
  </g>
</svg>